ply
format ascii 1.0
element vertex 1301
property float x
property float y
property float z
property uchar red
property uchar green
property uchar blue
end_header
271.000 983.000 319.000 43 40 40
270.000 985.000 319.000 33 33 35
271.000 984.000 318.000 43 40 39
271.000 984.000 319.000 37 35 36
271.000 985.000 318.000 45 42 41
271.000 985.000 319.000 37 35 35
271.000 986.000 317.000 43 39 38
271.000 987.000 316.000 42 40 39
271.000 987.000 317.000 40 38 37
270.000 986.000 319.000 36 35 37
271.000 986.000 318.000 40 38 39
271.000 986.000 319.000 37 36 37
271.000 987.000 318.000 38 36 37
271.000 988.000 316.000 40 39 39
287.000 965.000 309.000 122 95 82
286.000 965.000 311.000 140 112 95
287.000 965.000 310.000 136 109 92
287.000 966.000 309.000 113 89 77
287.000 967.000 309.000 110 87 77
286.000 966.000 310.000 135 106 91
286.000 966.000 311.000 137 108 92
286.000 967.000 310.000 132 103 88
286.000 967.000 311.000 133 104 88
287.000 966.000 310.000 131 103 87
287.000 967.000 310.000 127 100 87
283.000 967.000 314.000 155 124 108
284.000 965.000 313.000 155 125 108
285.000 965.000 312.000 145 116 97
285.000 965.000 313.000 150 120 103
284.000 965.000 314.000 156 125 108
284.000 966.000 313.000 153 122 107
284.000 967.000 312.000 148 118 103
284.000 967.000 313.000 153 122 107
285.000 966.000 312.000 142 113 97
285.000 966.000 313.000 148 118 101
285.000 967.000 312.000 139 111 95
284.000 966.000 314.000 156 125 110
286.000 965.000 312.000 145 115 98
286.000 966.000 312.000 144 115 100
285.000 968.000 311.000 131 103 88
285.000 969.000 311.000 129 103 87
285.000 970.000 311.000 124 98 85
285.000 971.000 311.000 116 91 79
287.000 968.000 309.000 105 84 74
287.000 969.000 309.000 104 84 73
286.000 968.000 310.000 127 99 85
286.000 968.000 311.000 129 102 87
286.000 969.000 310.000 121 94 82
286.000 969.000 311.000 124 98 83
287.000 968.000 310.000 120 95 82
287.000 969.000 310.000 110 88 77
286.000 970.000 310.000 114 90 79
286.000 970.000 311.000 118 93 80
286.000 971.000 310.000 107 84 74
286.000 971.000 311.000 111 87 76
287.000 970.000 310.000 104 83 73
287.000 971.000 310.000 99 80 71
285.000 972.000 311.000 110 86 77
286.000 972.000 311.000 101 79 70
286.000 973.000 311.000 87 69 62
287.000 972.000 310.000 93 75 67
287.000 972.000 311.000 89 72 65
287.000 973.000 311.000 76 63 58
281.000 971.000 315.000 137 106 93
283.000 968.000 313.000 153 122 107
283.000 969.000 313.000 149 118 102
282.000 969.000 314.000 150 117 102
283.000 968.000 314.000 155 123 108
283.000 969.000 314.000 150 118 103
283.000 970.000 313.000 142 112 97
283.000 971.000 313.000 136 107 94
282.000 970.000 314.000 144 114 99
282.000 970.000 315.000 144 113 100
282.000 971.000 314.000 140 111 97
282.000 971.000 315.000 140 110 97
283.000 970.000 314.000 144 114 99
283.000 971.000 314.000 138 109 95
281.000 971.000 316.000 138 108 95
281.000 972.000 315.000 133 104 91
281.000 973.000 315.000 122 94 82
283.000 972.000 313.000 127 98 87
282.000 972.000 314.000 132 105 92
282.000 972.000 315.000 134 106 92
282.000 973.000 314.000 126 99 87
282.000 973.000 315.000 118 92 80
283.000 972.000 314.000 126 98 87
283.000 973.000 314.000 114 89 79
283.000 973.000 315.000 110 87 78
282.000 974.000 315.000 98 75 66
282.000 975.000 315.000 85 66 59
283.000 974.000 314.000 96 75 67
283.000 974.000 315.000 92 72 63
283.000 975.000 315.000 77 62 54
281.000 972.000 316.000 133 104 90
281.000 973.000 316.000 120 94 83
280.000 974.000 316.000 101 77 68
280.000 975.000 316.000 83 64 57
280.000 975.000 317.000 81 66 60
281.000 974.000 316.000 100 76 68
281.000 975.000 316.000 80 62 55
282.000 974.000 316.000 92 70 61
282.000 975.000 316.000 80 63 56
284.000 968.000 312.000 147 116 102
284.000 968.000 313.000 151 120 106
284.000 969.000 312.000 139 109 95
284.000 969.000 313.000 146 115 100
285.000 968.000 312.000 136 108 93
285.000 969.000 312.000 134 106 90
284.000 970.000 312.000 136 108 94
284.000 970.000 313.000 138 110 95
284.000 971.000 312.000 130 102 90
284.000 971.000 313.000 131 103 90
285.000 970.000 312.000 129 102 88
285.000 971.000 312.000 123 97 84
284.000 972.000 313.000 121 94 83
284.000 973.000 313.000 108 81 72
285.000 972.000 312.000 114 89 79
285.000 973.000 312.000 98 76 66
285.000 973.000 313.000 95 74 64
284.000 973.000 314.000 101 78 70
285.000 974.000 313.000 78 63 52
284.000 974.000 314.000 87 67 59
284.000 975.000 314.000 74 58 50
284.000 975.000 315.000 71 56 48
285.000 974.000 314.000 79 61 52
285.000 975.000 314.000 71 59 51
286.000 973.000 312.000 84 67 59
287.000 973.000 312.000 70 58 53
286.000 974.000 312.000 72 58 50
286.000 974.000 313.000 73 60 50
286.000 975.000 313.000 71 61 54
287.000 974.000 312.000 68 57 51
287.000 975.000 312.000 68 60 54
287.000 975.000 313.000 69 60 55
286.000 975.000 314.000 71 62 56
272.000 983.000 318.000 50 47 45
272.000 983.000 319.000 44 42 41
273.000 983.000 318.000 55 51 49
274.000 983.000 318.000 54 51 49
275.000 982.000 318.000 52 49 48
275.000 983.000 318.000 53 49 48
279.000 977.000 317.000 61 55 50
279.000 978.000 317.000 57 51 48
279.000 979.000 317.000 53 47 45
278.000 979.000 318.000 57 52 50
279.000 979.000 318.000 55 50 48
276.000 981.000 318.000 53 50 49
277.000 981.000 318.000 55 52 52
276.000 982.000 318.000 52 49 48
276.000 983.000 318.000 51 49 49
277.000 982.000 318.000 54 51 50
277.000 983.000 318.000 52 50 50
278.000 980.000 318.000 57 53 51
278.000 981.000 318.000 60 57 57
279.000 980.000 318.000 56 52 50
279.000 981.000 318.000 59 56 56
278.000 982.000 318.000 59 56 55
278.000 983.000 318.000 55 52 52
279.000 982.000 318.000 64 61 61
279.000 983.000 318.000 61 58 57
272.000 984.000 317.000 55 51 50
272.000 985.000 317.000 52 47 45
273.000 984.000 317.000 56 52 50
273.000 985.000 317.000 54 50 48
272.000 984.000 318.000 52 48 46
272.000 985.000 318.000 51 47 46
273.000 984.000 318.000 57 53 51
272.000 986.000 317.000 47 44 42
272.000 987.000 316.000 46 43 42
272.000 987.000 317.000 46 42 40
273.000 986.000 316.000 52 49 48
273.000 986.000 317.000 54 51 50
273.000 987.000 316.000 47 44 43
274.000 984.000 317.000 55 51 50
274.000 985.000 317.000 55 52 51
275.000 984.000 317.000 55 52 51
275.000 985.000 317.000 54 51 51
275.000 984.000 318.000 54 51 50
275.000 985.000 318.000 55 52 52
274.000 986.000 316.000 52 49 48
274.000 986.000 317.000 54 51 51
274.000 987.000 316.000 46 44 44
275.000 986.000 317.000 48 46 46
275.000 987.000 316.000 44 43 45
275.000 987.000 317.000 44 43 45
272.000 988.000 315.000 43 41 42
273.000 988.000 315.000 43 42 43
274.000 988.000 315.000 43 41 43
275.000 988.000 315.000 42 40 42
272.000 988.000 316.000 43 41 41
275.000 988.000 316.000 41 40 42
276.000 984.000 318.000 52 50 50
276.000 985.000 318.000 52 50 50
277.000 984.000 318.000 51 49 50
277.000 985.000 318.000 49 47 48
276.000 986.000 317.000 45 43 43
276.000 987.000 316.000 41 41 42
276.000 987.000 317.000 42 41 42
277.000 986.000 317.000 44 41 42
277.000 987.000 317.000 42 41 42
276.000 986.000 318.000 48 45 45
277.000 986.000 318.000 45 42 43
278.000 984.000 318.000 52 49 49
278.000 985.000 318.000 50 48 48
279.000 984.000 318.000 54 51 50
279.000 985.000 318.000 53 50 50
278.000 987.000 317.000 44 43 44
279.000 987.000 317.000 48 46 47
278.000 986.000 318.000 48 46 46
278.000 987.000 318.000 48 46 47
279.000 986.000 318.000 53 50 51
279.000 987.000 318.000 50 48 49
278.000 989.000 315.000 47 46 48
279.000 990.000 315.000 52 51 53
276.000 988.000 316.000 41 40 42
277.000 988.000 316.000 41 41 43
277.000 988.000 317.000 42 41 43
278.000 988.000 317.000 42 42 43
278.000 989.000 316.000 46 45 47
279.000 988.000 317.000 45 44 46
279.000 989.000 316.000 48 47 49
279.000 990.000 316.000 51 50 51
283.000 976.000 315.000 66 54 47
280.000 976.000 317.000 68 58 52
280.000 977.000 317.000 60 53 49
281.000 976.000 316.000 68 57 49
281.000 976.000 317.000 62 53 47
281.000 977.000 317.000 58 51 46
280.000 978.000 317.000 54 48 46
280.000 979.000 317.000 50 45 43
281.000 978.000 317.000 52 46 45
281.000 979.000 317.000 48 44 43
280.000 979.000 318.000 51 47 46
282.000 976.000 316.000 65 55 49
282.000 977.000 316.000 58 51 46
282.000 977.000 317.000 56 49 45
283.000 976.000 316.000 65 56 51
283.000 977.000 316.000 58 51 47
282.000 978.000 317.000 50 45 42
282.000 979.000 317.000 44 41 39
283.000 978.000 316.000 52 46 43
283.000 978.000 317.000 50 45 42
283.000 979.000 317.000 47 43 41
281.000 980.000 317.000 47 45 44
280.000 980.000 318.000 53 49 49
280.000 981.000 318.000 56 53 52
281.000 980.000 318.000 47 45 45
281.000 981.000 318.000 48 45 45
280.000 982.000 318.000 60 57 56
280.000 983.000 318.000 63 59 59
281.000 982.000 318.000 50 48 47
281.000 983.000 318.000 58 54 53
282.000 980.000 317.000 44 42 42
282.000 981.000 317.000 47 45 45
283.000 980.000 317.000 46 44 43
283.000 981.000 317.000 48 46 46
282.000 980.000 318.000 46 43 44
282.000 981.000 318.000 46 44 44
283.000 982.000 317.000 49 47 47
282.000 982.000 318.000 45 42 42
282.000 983.000 318.000 48 46 45
283.000 982.000 318.000 46 44 45
283.000 983.000 318.000 45 43 43
284.000 976.000 315.000 66 57 52
285.000 976.000 314.000 69 59 54
285.000 976.000 315.000 66 58 54
285.000 977.000 315.000 57 49 45
285.000 978.000 315.000 52 45 42
287.000 976.000 313.000 63 54 48
286.000 976.000 314.000 65 55 51
286.000 977.000 314.000 56 47 42
286.000 977.000 315.000 53 45 40
287.000 976.000 314.000 59 48 42
287.000 977.000 314.000 56 47 42
286.000 978.000 315.000 49 42 38
286.000 979.000 315.000 47 43 41
287.000 978.000 314.000 51 44 40
287.000 979.000 314.000 52 47 45
287.000 979.000 315.000 51 46 45
284.000 976.000 316.000 66 59 55
284.000 977.000 316.000 59 51 48
284.000 978.000 316.000 51 44 40
284.000 979.000 316.000 45 40 38
284.000 979.000 317.000 46 42 41
285.000 978.000 316.000 50 42 39
285.000 979.000 316.000 44 38 36
286.000 979.000 316.000 42 37 37
286.000 980.000 315.000 43 40 39
287.000 980.000 315.000 46 43 43
287.000 981.000 315.000 41 39 40
287.000 982.000 315.000 38 37 38
284.000 980.000 317.000 45 42 42
284.000 981.000 317.000 45 43 44
285.000 980.000 316.000 40 36 35
285.000 980.000 317.000 42 39 39
285.000 981.000 316.000 40 37 37
285.000 981.000 317.000 44 42 41
284.000 982.000 317.000 49 47 48
284.000 983.000 317.000 49 48 49
285.000 982.000 317.000 48 46 47
285.000 983.000 317.000 51 49 50
284.000 983.000 318.000 47 45 46
286.000 980.000 316.000 39 35 35
286.000 981.000 316.000 35 33 32
287.000 981.000 316.000 37 35 36
286.000 982.000 316.000 40 38 38
286.000 982.000 317.000 47 45 45
286.000 983.000 316.000 50 48 49
286.000 983.000 317.000 50 49 49
287.000 982.000 316.000 38 36 36
287.000 983.000 316.000 46 45 46
285.000 991.000 311.000 59 57 60
286.000 991.000 310.000 58 56 60
286.000 991.000 311.000 62 60 63
287.000 991.000 310.000 64 63 66
287.000 991.000 311.000 66 65 68
280.000 984.000 318.000 59 55 54
280.000 985.000 318.000 55 52 51
281.000 984.000 318.000 62 59 58
281.000 985.000 318.000 58 55 54
280.000 987.000 317.000 53 51 52
281.000 987.000 317.000 59 57 58
280.000 986.000 318.000 54 51 51
280.000 987.000 318.000 54 52 53
281.000 986.000 318.000 55 52 52
281.000 987.000 318.000 57 54 55
282.000 984.000 318.000 59 57 57
282.000 985.000 318.000 60 58 58
283.000 984.000 318.000 49 47 47
283.000 985.000 318.000 56 54 55
282.000 986.000 317.000 59 57 57
282.000 987.000 317.000 62 59 60
283.000 986.000 317.000 61 59 60
283.000 987.000 317.000 66 64 66
282.000 986.000 318.000 58 56 56
283.000 986.000 318.000 60 58 59
281.000 991.000 312.000 55 55 57
281.000 991.000 313.000 54 53 56
280.000 990.000 315.000 51 50 51
281.000 990.000 314.000 50 48 50
281.000 990.000 315.000 50 48 49
281.000 991.000 314.000 51 50 51
282.000 989.000 315.000 58 55 57
283.000 989.000 315.000 61 56 58
282.000 991.000 312.000 52 50 52
282.000 991.000 313.000 53 52 53
283.000 990.000 313.000 59 56 58
283.000 991.000 312.000 52 50 51
283.000 991.000 313.000 56 54 56
282.000 990.000 314.000 55 52 54
282.000 990.000 315.000 56 53 54
282.000 991.000 314.000 51 49 51
283.000 990.000 314.000 58 54 57
283.000 990.000 315.000 60 55 58
280.000 988.000 317.000 49 47 49
280.000 989.000 316.000 50 48 49
281.000 988.000 316.000 53 51 51
281.000 988.000 317.000 54 52 53
281.000 989.000 316.000 51 49 50
280.000 990.000 316.000 50 49 50
282.000 988.000 316.000 59 57 58
282.000 988.000 317.000 59 57 58
282.000 989.000 316.000 56 53 54
283.000 988.000 316.000 66 64 65
283.000 989.000 316.000 61 58 60
286.000 987.000 315.000 58 56 58
287.000 987.000 315.000 59 57 58
284.000 984.000 317.000 47 45 45
284.000 985.000 317.000 49 47 47
285.000 984.000 317.000 49 48 48
285.000 985.000 317.000 46 43 44
284.000 986.000 317.000 57 56 57
284.000 987.000 316.000 66 65 67
284.000 987.000 317.000 63 62 64
285.000 986.000 317.000 50 49 50
285.000 987.000 316.000 60 59 62
285.000 987.000 317.000 57 57 59
286.000 984.000 316.000 55 53 53
286.000 984.000 317.000 54 52 52
286.000 985.000 316.000 53 51 52
286.000 985.000 317.000 50 48 49
287.000 984.000 316.000 54 52 53
287.000 985.000 316.000 53 51 51
286.000 986.000 316.000 49 48 48
286.000 987.000 316.000 54 53 54
287.000 986.000 316.000 54 51 52
287.000 987.000 316.000 54 53 54
284.000 988.000 315.000 68 66 68
284.000 989.000 315.000 64 60 63
285.000 988.000 315.000 70 68 70
285.000 989.000 314.000 68 66 67
285.000 989.000 315.000 70 67 69
284.000 990.000 313.000 63 61 63
284.000 991.000 312.000 59 57 58
284.000 991.000 313.000 63 61 63
285.000 990.000 313.000 69 66 68
285.000 991.000 312.000 62 59 61
285.000 991.000 313.000 64 61 63
284.000 990.000 314.000 62 60 61
285.000 990.000 314.000 69 67 68
287.000 989.000 313.000 69 66 67
286.000 988.000 315.000 64 62 63
286.000 989.000 314.000 69 67 68
286.000 989.000 315.000 69 67 68
287.000 988.000 314.000 65 63 65
287.000 988.000 315.000 64 62 64
287.000 989.000 314.000 66 64 65
286.000 990.000 312.000 67 65 66
286.000 990.000 313.000 68 66 68
286.000 991.000 312.000 65 63 65
287.000 990.000 312.000 69 67 70
287.000 990.000 313.000 70 67 69
287.000 991.000 312.000 68 66 69
284.000 988.000 316.000 67 66 68
285.000 988.000 316.000 67 65 67
282.000 992.000 311.000 59 58 60
283.000 992.000 310.000 57 55 58
283.000 992.000 311.000 55 54 56
285.000 993.000 307.000 57 54 57
286.000 993.000 306.000 59 58 61
286.000 993.000 307.000 62 60 63
287.000 993.000 306.000 59 57 60
287.000 993.000 307.000 65 63 66
286.000 994.000 305.000 43 42 44
287.000 994.000 304.000 45 42 44
287.000 994.000 305.000 47 44 47
287.000 994.000 306.000 51 49 53
284.000 993.000 309.000 55 54 57
285.000 992.000 309.000 51 49 53
285.000 993.000 308.000 58 55 58
285.000 993.000 309.000 54 52 55
284.000 992.000 310.000 55 54 57
284.000 992.000 311.000 56 55 57
284.000 993.000 310.000 56 55 58
285.000 992.000 310.000 55 53 56
285.000 992.000 311.000 57 55 58
286.000 992.000 308.000 62 60 62
286.000 992.000 309.000 57 55 58
286.000 993.000 308.000 60 58 61
287.000 992.000 308.000 67 65 68
287.000 992.000 309.000 63 61 64
287.000 993.000 308.000 65 63 66
286.000 992.000 310.000 56 54 58
287.000 992.000 310.000 61 59 63
282.000 992.000 312.000 53 52 54
283.000 992.000 312.000 53 51 53
284.000 992.000 312.000 56 54 56
291.000 964.000 302.000 106 87 78
291.000 964.000 303.000 108 86 74
291.000 965.000 302.000 97 78 70
291.000 965.000 303.000 99 80 70
291.000 966.000 303.000 91 77 68
291.000 967.000 303.000 77 65 56
293.000 963.000 299.000 73 64 60
295.000 963.000 296.000 55 53 53
295.000 963.000 297.000 59 56 56
294.000 962.000 298.000 66 61 59
294.000 963.000 298.000 64 58 57
292.000 963.000 300.000 76 63 55
292.000 963.000 301.000 91 76 67
293.000 963.000 300.000 74 63 57
293.000 964.000 299.000 67 60 57
293.000 965.000 299.000 59 53 51
295.000 964.000 296.000 54 51 52
295.000 964.000 297.000 55 53 53
295.000 965.000 297.000 50 48 49
294.000 964.000 298.000 61 57 55
294.000 964.000 299.000 62 56 54
294.000 965.000 298.000 55 51 50
294.000 965.000 299.000 54 49 48
295.000 964.000 298.000 58 55 55
295.000 965.000 298.000 49 46 46
295.000 966.000 297.000 49 47 48
294.000 966.000 299.000 51 48 48
295.000 966.000 298.000 48 46 46
295.000 966.000 299.000 50 47 47
295.000 967.000 298.000 47 45 46
295.000 967.000 299.000 50 47 47
292.000 964.000 300.000 73 61 54
292.000 964.000 301.000 82 68 61
292.000 965.000 301.000 70 58 53
293.000 964.000 300.000 69 59 56
293.000 965.000 300.000 59 52 49
293.000 965.000 301.000 59 50 47
292.000 964.000 302.000 98 82 75
292.000 965.000 302.000 79 62 58
293.000 966.000 300.000 52 48 46
293.000 966.000 301.000 55 49 48
293.000 967.000 301.000 55 51 52
292.000 966.000 302.000 67 53 49
292.000 966.000 303.000 73 59 52
292.000 967.000 302.000 61 49 48
292.000 967.000 303.000 63 52 46
293.000 966.000 302.000 55 48 47
293.000 967.000 302.000 53 47 47
294.000 965.000 300.000 52 47 46
294.000 966.000 300.000 52 49 49
294.000 967.000 300.000 51 49 49
294.000 967.000 301.000 51 48 48
295.000 967.000 300.000 51 49 49
294.000 967.000 302.000 43 40 40
295.000 968.000 298.000 44 42 42
295.000 968.000 299.000 46 43 43
295.000 969.000 299.000 48 45 45
292.000 968.000 303.000 54 46 42
293.000 968.000 302.000 46 42 42
293.000 968.000 303.000 48 43 41
293.000 969.000 303.000 43 41 41
294.000 968.000 300.000 51 48 49
294.000 968.000 301.000 47 44 44
295.000 968.000 300.000 48 45 46
295.000 968.000 301.000 48 44 45
295.000 969.000 300.000 46 44 44
295.000 969.000 301.000 44 40 41
294.000 968.000 302.000 42 39 40
294.000 969.000 302.000 42 38 39
294.000 969.000 303.000 43 40 41
295.000 969.000 302.000 41 38 39
295.000 970.000 300.000 47 44 43
295.000 970.000 301.000 42 38 38
294.000 970.000 303.000 42 39 40
295.000 970.000 302.000 39 36 37
295.000 970.000 303.000 40 37 39
298.000 962.000 291.000 44 44 46
297.000 961.000 292.000 45 45 47
297.000 961.000 293.000 49 48 49
296.000 961.000 294.000 56 54 55
296.000 961.000 295.000 57 54 53
297.000 961.000 294.000 53 52 53
297.000 962.000 292.000 47 47 49
297.000 962.000 293.000 48 47 50
297.000 963.000 293.000 49 49 52
296.000 962.000 294.000 53 51 51
296.000 962.000 295.000 53 51 51
296.000 963.000 295.000 53 51 52
297.000 962.000 294.000 51 49 51
297.000 963.000 294.000 53 52 54
298.000 961.000 292.000 43 44 46
298.000 962.000 292.000 47 47 50
298.000 963.000 292.000 49 49 52
298.000 965.000 291.000 47 48 50
298.000 966.000 291.000 45 45 47
298.000 967.000 291.000 47 47 49
297.000 964.000 293.000 48 48 51
297.000 965.000 293.000 49 49 52
296.000 964.000 295.000 52 50 51
296.000 965.000 295.000 50 48 49
297.000 964.000 294.000 49 48 50
297.000 964.000 295.000 50 49 50
297.000 965.000 294.000 47 47 49
297.000 965.000 295.000 49 48 50
296.000 966.000 295.000 53 52 53
297.000 966.000 294.000 45 45 47
297.000 966.000 295.000 49 48 50
297.000 967.000 294.000 48 48 50
297.000 967.000 295.000 47 46 48
298.000 964.000 292.000 51 51 53
298.000 964.000 293.000 51 51 53
298.000 965.000 292.000 48 48 50
298.000 965.000 293.000 47 47 49
298.000 966.000 292.000 44 44 45
298.000 966.000 293.000 43 43 45
298.000 967.000 292.000 47 46 47
298.000 967.000 293.000 49 48 49
298.000 967.000 294.000 51 50 52
296.000 963.000 296.000 55 53 53
296.000 964.000 296.000 53 51 51
296.000 965.000 296.000 50 49 50
296.000 965.000 297.000 49 48 49
296.000 966.000 296.000 51 50 52
296.000 966.000 297.000 49 48 49
296.000 967.000 296.000 46 45 47
296.000 967.000 297.000 46 44 46
296.000 967.000 298.000 46 44 45
297.000 968.000 294.000 48 48 50
297.000 968.000 295.000 47 47 49
297.000 969.000 294.000 43 42 44
297.000 969.000 295.000 42 42 44
297.000 970.000 295.000 37 37 39
298.000 968.000 292.000 47 46 46
298.000 968.000 293.000 50 49 51
298.000 969.000 292.000 45 42 43
298.000 969.000 293.000 44 43 43
298.000 968.000 294.000 51 50 51
298.000 969.000 294.000 45 44 45
298.000 970.000 293.000 45 42 42
298.000 970.000 294.000 42 40 41
298.000 970.000 295.000 38 37 39
298.000 971.000 294.000 40 38 38
298.000 971.000 295.000 38 36 36
299.000 971.000 294.000 43 41 41
298.000 972.000 295.000 39 36 35
299.000 972.000 294.000 44 43 43
299.000 972.000 295.000 39 37 37
299.000 973.000 294.000 43 42 43
299.000 973.000 295.000 39 37 37
299.000 974.000 295.000 37 37 38
296.000 968.000 296.000 47 46 48
296.000 968.000 297.000 45 44 46
296.000 969.000 296.000 43 43 44
296.000 969.000 297.000 43 42 44
297.000 969.000 296.000 43 42 44
296.000 968.000 298.000 44 42 42
296.000 969.000 298.000 44 42 42
296.000 969.000 299.000 48 45 45
296.000 970.000 297.000 40 38 39
297.000 970.000 296.000 38 37 40
297.000 970.000 297.000 38 36 38
297.000 971.000 296.000 37 35 37
297.000 971.000 297.000 38 36 37
296.000 970.000 298.000 45 43 43
296.000 970.000 299.000 49 46 46
296.000 971.000 298.000 46 44 44
296.000 971.000 299.000 48 45 45
297.000 971.000 298.000 41 39 39
297.000 971.000 299.000 45 42 42
298.000 971.000 296.000 37 35 36
296.000 970.000 300.000 47 43 43
296.000 970.000 301.000 42 39 38
296.000 971.000 300.000 46 43 42
296.000 971.000 301.000 44 41 40
297.000 971.000 300.000 46 43 41
297.000 971.000 301.000 45 42 40
296.000 970.000 302.000 39 36 35
296.000 971.000 302.000 38 36 36
296.000 971.000 303.000 39 37 38
297.000 971.000 302.000 39 37 36
297.000 971.000 303.000 39 38 39
297.000 972.000 297.000 38 36 37
297.000 972.000 298.000 39 38 38
297.000 972.000 299.000 43 40 40
298.000 972.000 296.000 39 37 37
298.000 972.000 297.000 37 36 37
299.000 972.000 296.000 40 37 37
299.000 973.000 296.000 39 37 37
299.000 973.000 297.000 39 38 37
298.000 972.000 298.000 37 35 36
298.000 972.000 299.000 39 37 37
298.000 973.000 298.000 37 35 36
299.000 973.000 298.000 39 37 37
299.000 973.000 299.000 38 36 36
299.000 974.000 296.000 38 37 37
299.000 974.000 297.000 39 38 38
299.000 974.000 298.000 39 37 37
299.000 974.000 299.000 41 39 39
299.000 975.000 299.000 40 39 39
297.000 972.000 300.000 45 42 41
297.000 972.000 301.000 44 40 38
297.000 972.000 302.000 39 37 37
297.000 972.000 303.000 37 37 38
297.000 973.000 303.000 39 40 41
298.000 972.000 300.000 42 39 38
298.000 972.000 301.000 42 39 37
298.000 973.000 300.000 40 38 37
298.000 973.000 301.000 42 39 38
299.000 973.000 300.000 40 38 37
299.000 973.000 301.000 42 40 39
298.000 972.000 302.000 40 38 38
298.000 972.000 303.000 35 36 38
298.000 973.000 302.000 40 37 37
298.000 973.000 303.000 39 39 41
299.000 974.000 300.000 41 39 39
299.000 974.000 301.000 42 40 39
299.000 975.000 300.000 40 38 38
299.000 975.000 301.000 40 38 38
298.000 974.000 302.000 40 38 38
298.000 974.000 303.000 42 42 43
298.000 975.000 303.000 44 44 45
299.000 974.000 302.000 41 39 39
299.000 975.000 302.000 41 39 39
299.000 975.000 303.000 42 41 42
300.000 974.000 297.000 39 38 38
300.000 975.000 298.000 41 40 41
300.000 975.000 299.000 41 40 40
300.000 975.000 300.000 41 39 39
288.000 964.000 307.000 97 77 69
288.000 965.000 307.000 92 75 68
289.000 964.000 306.000 109 88 78
289.000 964.000 307.000 104 85 78
289.000 965.000 306.000 94 74 64
289.000 965.000 307.000 91 74 64
288.000 966.000 307.000 84 69 61
289.000 966.000 306.000 78 60 49
289.000 966.000 307.000 84 70 61
289.000 967.000 306.000 74 60 50
289.000 967.000 307.000 77 64 56
290.000 964.000 304.000 108 83 70
290.000 964.000 305.000 109 85 71
290.000 965.000 304.000 98 77 66
290.000 965.000 305.000 94 73 64
291.000 965.000 304.000 92 73 62
290.000 965.000 306.000 83 63 53
290.000 966.000 304.000 86 69 58
290.000 966.000 305.000 86 71 62
290.000 967.000 305.000 80 67 59
291.000 966.000 304.000 86 71 61
291.000 967.000 304.000 78 66 58
291.000 967.000 305.000 76 64 55
290.000 966.000 306.000 77 60 50
290.000 967.000 306.000 71 57 47
288.000 964.000 308.000 103 77 66
288.000 965.000 308.000 95 73 61
288.000 966.000 308.000 88 69 61
288.000 967.000 308.000 79 65 57
288.000 967.000 309.000 95 75 66
289.000 968.000 307.000 71 59 51
291.000 968.000 305.000 67 57 51
290.000 968.000 306.000 65 56 49
290.000 968.000 307.000 66 56 50
290.000 969.000 307.000 65 57 52
291.000 968.000 306.000 62 54 48
291.000 969.000 306.000 56 49 45
291.000 969.000 307.000 55 50 47
288.000 968.000 308.000 76 64 57
288.000 968.000 309.000 88 71 63
288.000 969.000 309.000 87 71 64
289.000 968.000 308.000 70 59 53
289.000 969.000 308.000 68 58 53
289.000 969.000 309.000 71 61 56
288.000 970.000 309.000 89 74 67
289.000 970.000 309.000 72 62 58
289.000 971.000 309.000 74 64 61
288.000 970.000 310.000 93 77 68
288.000 971.000 310.000 84 70 63
289.000 971.000 310.000 75 64 60
290.000 969.000 308.000 64 57 54
290.000 970.000 308.000 62 57 54
290.000 970.000 309.000 65 58 56
290.000 971.000 309.000 66 59 57
291.000 970.000 308.000 59 56 54
291.000 971.000 308.000 59 55 54
291.000 971.000 309.000 61 56 54
289.000 972.000 309.000 73 65 61
288.000 972.000 310.000 78 65 60
288.000 973.000 310.000 72 62 57
288.000 973.000 311.000 70 60 56
289.000 972.000 310.000 72 63 59
289.000 973.000 310.000 68 59 55
289.000 973.000 311.000 65 56 52
288.000 974.000 311.000 65 56 52
289.000 974.000 310.000 64 55 52
289.000 974.000 311.000 64 56 53
289.000 975.000 311.000 62 55 51
290.000 972.000 309.000 70 62 59
290.000 973.000 309.000 70 61 58
291.000 972.000 308.000 60 56 54
291.000 972.000 309.000 65 59 57
291.000 973.000 309.000 67 59 56
290.000 973.000 310.000 69 59 56
291.000 974.000 309.000 63 55 50
290.000 974.000 310.000 65 55 51
290.000 975.000 310.000 59 50 47
290.000 975.000 311.000 58 50 47
291.000 974.000 310.000 65 56 52
291.000 975.000 310.000 60 52 48
292.000 968.000 304.000 61 52 45
292.000 968.000 305.000 59 50 47
292.000 969.000 305.000 52 45 44
293.000 968.000 304.000 51 45 41
293.000 969.000 304.000 48 44 43
293.000 969.000 305.000 47 43 43
292.000 969.000 306.000 53 47 45
293.000 969.000 306.000 49 44 44
292.000 970.000 306.000 48 44 45
292.000 970.000 307.000 51 49 48
292.000 971.000 307.000 50 49 51
293.000 970.000 306.000 49 46 46
293.000 970.000 307.000 45 44 44
293.000 971.000 306.000 46 44 46
293.000 971.000 307.000 46 45 46
294.000 969.000 304.000 45 43 43
294.000 970.000 304.000 43 41 41
294.000 970.000 305.000 46 45 45
294.000 971.000 305.000 47 46 48
295.000 970.000 304.000 40 39 40
295.000 971.000 304.000 42 40 42
295.000 971.000 305.000 47 46 47
294.000 970.000 306.000 48 47 48
294.000 971.000 306.000 45 45 46
295.000 971.000 306.000 46 45 47
292.000 971.000 308.000 54 52 52
293.000 972.000 307.000 44 43 45
295.000 972.000 305.000 49 48 49
294.000 972.000 306.000 43 42 44
294.000 972.000 307.000 42 42 43
294.000 973.000 307.000 43 42 44
295.000 972.000 306.000 45 44 45
295.000 973.000 306.000 43 44 46
295.000 973.000 307.000 44 43 45
294.000 974.000 307.000 41 40 41
294.000 975.000 307.000 45 43 42
295.000 974.000 306.000 41 41 43
295.000 974.000 307.000 43 42 44
295.000 975.000 306.000 44 43 45
295.000 975.000 307.000 44 43 44
292.000 972.000 308.000 52 50 51
292.000 972.000 309.000 60 55 54
292.000 973.000 308.000 54 51 50
292.000 973.000 309.000 58 52 49
293.000 972.000 308.000 46 45 47
293.000 973.000 308.000 48 46 47
292.000 974.000 308.000 55 51 49
292.000 974.000 309.000 56 50 46
292.000 975.000 309.000 56 49 45
293.000 974.000 308.000 49 46 45
293.000 975.000 308.000 51 47 45
293.000 975.000 309.000 54 49 47
292.000 975.000 310.000 61 53 49
294.000 974.000 308.000 45 42 43
294.000 975.000 308.000 47 44 43
288.000 974.000 312.000 66 57 52
288.000 975.000 312.000 66 59 54
289.000 975.000 312.000 65 59 55
296.000 971.000 304.000 41 41 42
296.000 972.000 304.000 43 44 46
296.000 972.000 305.000 48 47 49
296.000 973.000 305.000 46 46 48
297.000 972.000 304.000 43 43 44
297.000 973.000 304.000 46 46 47
297.000 973.000 305.000 50 49 50
296.000 973.000 306.000 43 43 46
296.000 974.000 305.000 44 44 46
296.000 975.000 305.000 41 40 42
297.000 974.000 304.000 48 48 49
297.000 974.000 305.000 49 48 50
297.000 975.000 305.000 48 47 48
296.000 974.000 306.000 41 41 44
296.000 975.000 306.000 40 40 42
298.000 974.000 304.000 47 46 48
298.000 975.000 304.000 48 48 50
298.000 975.000 305.000 51 50 52
294.000 991.000 303.000 52 48 50
295.000 991.000 303.000 55 51 54
299.000 976.000 301.000 40 39 39
299.000 976.000 302.000 41 40 41
299.000 976.000 303.000 42 41 42
299.000 977.000 303.000 43 42 43
299.000 983.000 303.000 67 65 67
300.000 976.000 298.000 37 37 38
300.000 976.000 299.000 39 39 39
300.000 977.000 299.000 38 37 38
300.000 978.000 299.000 39 38 38
300.000 976.000 300.000 42 41 41
300.000 976.000 301.000 41 39 40
300.000 977.000 300.000 41 40 41
300.000 977.000 301.000 40 38 39
300.000 976.000 302.000 41 40 41
300.000 977.000 302.000 41 40 41
300.000 977.000 303.000 43 42 44
300.000 978.000 300.000 41 40 40
300.000 978.000 301.000 39 38 38
300.000 979.000 301.000 41 41 42
301.000 979.000 301.000 43 42 44
300.000 978.000 302.000 40 39 40
300.000 978.000 303.000 44 43 44
300.000 979.000 302.000 42 41 42
300.000 979.000 303.000 46 45 47
300.000 980.000 301.000 47 46 47
300.000 981.000 301.000 52 50 52
300.000 980.000 302.000 47 46 47
300.000 980.000 303.000 51 50 52
300.000 981.000 302.000 52 51 53
300.000 981.000 303.000 53 52 53
300.000 982.000 301.000 54 53 54
300.000 982.000 302.000 58 57 59
300.000 982.000 303.000 57 55 57
300.000 983.000 302.000 62 60 62
300.000 983.000 303.000 63 62 63
299.000 984.000 302.000 56 55 56
299.000 984.000 303.000 63 61 62
299.000 985.000 302.000 56 54 55
299.000 985.000 303.000 60 58 59
298.000 987.000 302.000 53 50 50
298.000 987.000 303.000 55 53 54
299.000 986.000 303.000 58 56 57
299.000 987.000 303.000 55 53 54
297.000 988.000 303.000 63 61 62
297.000 989.000 302.000 60 58 59
297.000 989.000 303.000 65 62 64
296.000 990.000 303.000 62 60 62
297.000 990.000 303.000 62 59 61
298.000 988.000 303.000 60 58 58
300.000 984.000 303.000 63 60 62
289.000 976.000 311.000 59 52 48
290.000 976.000 311.000 55 49 45
290.000 977.000 311.000 60 53 48
291.000 976.000 310.000 56 49 47
291.000 976.000 311.000 55 48 45
291.000 977.000 311.000 54 48 45
291.000 978.000 311.000 53 47 43
291.000 979.000 311.000 51 45 42
295.000 976.000 307.000 45 43 44
295.000 977.000 307.000 45 43 43
292.000 976.000 309.000 56 49 46
293.000 976.000 309.000 54 49 47
293.000 977.000 309.000 48 43 41
292.000 976.000 310.000 56 50 47
292.000 977.000 310.000 51 46 43
292.000 977.000 311.000 51 46 43
293.000 977.000 310.000 46 41 39
293.000 978.000 309.000 43 38 35
292.000 978.000 310.000 44 39 37
292.000 978.000 311.000 46 40 38
292.000 979.000 310.000 40 35 33
292.000 979.000 311.000 45 40 39
293.000 978.000 310.000 42 37 35
293.000 979.000 310.000 40 36 35
294.000 976.000 308.000 50 46 45
294.000 976.000 309.000 51 47 46
294.000 977.000 308.000 49 45 43
294.000 977.000 309.000 46 42 40
295.000 977.000 308.000 48 45 44
294.000 978.000 309.000 45 40 38
294.000 979.000 309.000 45 40 40
295.000 978.000 308.000 45 42 42
295.000 978.000 309.000 48 43 43
295.000 979.000 308.000 42 39 39
295.000 979.000 309.000 45 41 40
294.000 979.000 310.000 41 37 38
292.000 980.000 311.000 45 43 43
292.000 981.000 311.000 43 43 44
293.000 980.000 310.000 41 39 38
293.000 980.000 311.000 42 39 39
293.000 981.000 311.000 36 35 36
293.000 982.000 311.000 38 38 40
293.000 983.000 311.000 45 46 48
294.000 980.000 309.000 41 38 39
295.000 980.000 308.000 40 38 37
295.000 980.000 309.000 40 38 38
295.000 981.000 309.000 34 32 32
294.000 980.000 310.000 40 37 37
294.000 981.000 310.000 32 31 31
295.000 981.000 310.000 32 30 32
295.000 982.000 309.000 36 35 35
295.000 983.000 309.000 34 33 33
294.000 982.000 310.000 32 32 33
294.000 982.000 311.000 31 31 32
294.000 983.000 310.000 36 35 36
294.000 983.000 311.000 42 42 44
295.000 982.000 310.000 35 34 35
295.000 983.000 310.000 35 34 35
288.000 976.000 312.000 61 54 49
288.000 976.000 313.000 61 52 48
288.000 977.000 313.000 62 53 47
289.000 976.000 312.000 62 55 50
289.000 977.000 312.000 66 58 53
289.000 977.000 313.000 66 57 51
288.000 978.000 313.000 61 53 48
289.000 978.000 312.000 67 59 53
289.000 978.000 313.000 66 57 52
289.000 979.000 313.000 61 53 48
288.000 978.000 314.000 57 50 44
288.000 979.000 314.000 57 51 47
289.000 979.000 314.000 56 50 46
290.000 977.000 312.000 63 55 50
290.000 978.000 312.000 63 55 50
290.000 979.000 312.000 57 49 45
290.000 979.000 313.000 57 49 44
291.000 978.000 312.000 55 49 45
291.000 979.000 312.000 52 45 42
289.000 980.000 313.000 52 46 43
288.000 980.000 314.000 49 45 43
288.000 980.000 315.000 48 45 44
288.000 981.000 315.000 43 40 41
289.000 980.000 314.000 49 44 42
289.000 981.000 314.000 47 43 43
288.000 982.000 315.000 41 40 41
288.000 983.000 315.000 41 40 41
289.000 982.000 314.000 47 44 45
289.000 982.000 315.000 45 43 43
289.000 983.000 314.000 53 51 52
289.000 983.000 315.000 49 47 48
290.000 980.000 312.000 51 44 39
290.000 980.000 313.000 51 45 41
290.000 981.000 313.000 48 44 43
291.000 980.000 312.000 46 41 38
291.000 981.000 312.000 45 42 43
291.000 981.000 313.000 45 41 40
290.000 982.000 313.000 49 46 46
290.000 983.000 313.000 51 49 49
291.000 982.000 313.000 51 49 49
291.000 983.000 313.000 46 43 43
290.000 982.000 314.000 48 46 46
290.000 983.000 314.000 51 49 49
292.000 980.000 312.000 44 42 42
292.000 981.000 312.000 47 46 47
292.000 982.000 312.000 46 45 46
292.000 983.000 312.000 42 41 41
292.000 983.000 313.000 41 39 39
293.000 983.000 312.000 43 43 45
290.000 991.000 307.000 61 59 61
291.000 991.000 307.000 60 57 59
288.000 991.000 309.000 68 66 69
289.000 991.000 308.000 68 65 66
289.000 991.000 309.000 71 68 70
288.000 990.000 311.000 69 68 70
288.000 991.000 310.000 69 67 70
288.000 991.000 311.000 68 67 69
289.000 990.000 310.000 70 68 70
289.000 990.000 311.000 69 67 69
289.000 991.000 310.000 70 68 70
290.000 989.000 311.000 72 70 72
291.000 989.000 310.000 73 71 73
291.000 989.000 311.000 73 71 73
290.000 990.000 309.000 71 68 70
290.000 991.000 308.000 65 63 64
290.000 991.000 309.000 70 68 69
291.000 990.000 309.000 70 68 69
291.000 991.000 308.000 65 62 64
291.000 991.000 309.000 70 68 69
290.000 990.000 310.000 71 69 71
290.000 990.000 311.000 71 69 71
291.000 990.000 310.000 72 70 71
291.000 990.000 311.000 73 71 73
293.000 987.000 311.000 56 55 56
294.000 984.000 311.000 45 45 47
294.000 985.000 311.000 46 46 48
295.000 984.000 310.000 42 40 41
295.000 984.000 311.000 46 45 47
295.000 985.000 310.000 48 47 48
295.000 986.000 309.000 52 51 53
295.000 987.000 308.000 60 59 60
295.000 987.000 309.000 53 53 55
294.000 986.000 311.000 47 46 48
294.000 987.000 310.000 56 55 57
294.000 987.000 311.000 50 50 51
295.000 986.000 310.000 49 48 49
295.000 987.000 310.000 51 51 53
292.000 991.000 305.000 63 60 62
293.000 991.000 304.000 54 52 52
293.000 991.000 305.000 62 59 60
292.000 991.000 306.000 59 56 58
292.000 991.000 307.000 58 56 58
293.000 990.000 307.000 61 59 60
293.000 991.000 306.000 61 58 59
293.000 991.000 307.000 59 56 58
294.000 989.000 307.000 67 65 66
295.000 989.000 306.000 68 66 68
295.000 989.000 307.000 67 65 67
294.000 990.000 305.000 68 66 67
294.000 991.000 304.000 55 52 54
294.000 991.000 305.000 65 62 63
295.000 990.000 304.000 68 66 68
295.000 990.000 305.000 72 70 71
295.000 991.000 304.000 62 59 61
294.000 990.000 306.000 66 64 65
294.000 990.000 307.000 64 62 63
294.000 991.000 306.000 65 63 64
295.000 990.000 306.000 70 68 69
293.000 989.000 308.000 70 68 70
293.000 989.000 309.000 69 67 69
292.000 989.000 310.000 72 70 72
292.000 989.000 311.000 70 68 70
293.000 988.000 310.000 64 62 64
293.000 988.000 311.000 63 62 63
293.000 989.000 310.000 69 67 69
292.000 990.000 308.000 71 69 71
292.000 990.000 309.000 71 69 70
292.000 991.000 308.000 65 63 65
293.000 990.000 308.000 70 68 70
293.000 990.000 309.000 71 69 71
292.000 990.000 310.000 72 70 72
294.000 988.000 309.000 67 65 67
294.000 989.000 308.000 67 65 66
294.000 989.000 309.000 68 67 68
295.000 988.000 308.000 66 64 66
295.000 988.000 309.000 66 64 66
295.000 989.000 308.000 67 65 67
294.000 988.000 310.000 64 62 64
288.000 984.000 315.000 48 47 47
288.000 985.000 315.000 52 49 49
289.000 984.000 315.000 44 42 43
289.000 985.000 315.000 48 47 47
288.000 986.000 315.000 54 51 51
288.000 987.000 315.000 60 58 58
289.000 986.000 315.000 52 50 51
289.000 987.000 314.000 55 53 53
289.000 987.000 315.000 53 50 50
291.000 984.000 313.000 46 43 44
291.000 985.000 313.000 50 49 49
290.000 984.000 314.000 47 45 46
290.000 984.000 315.000 41 40 40
290.000 985.000 314.000 45 43 43
290.000 985.000 315.000 48 46 47
291.000 984.000 314.000 48 46 47
291.000 985.000 314.000 48 46 47
291.000 986.000 313.000 51 49 49
291.000 987.000 313.000 59 56 56
290.000 986.000 314.000 53 51 52
290.000 986.000 315.000 53 52 53
290.000 987.000 314.000 56 53 53
291.000 986.000 314.000 51 49 49
291.000 987.000 314.000 59 56 56
288.000 984.000 316.000 52 50 51
288.000 985.000 316.000 53 50 50
288.000 986.000 316.000 54 51 51
288.000 989.000 313.000 68 66 68
289.000 988.000 313.000 64 62 62
289.000 989.000 312.000 69 67 69
289.000 989.000 313.000 68 66 68
288.000 988.000 314.000 67 65 65
288.000 988.000 315.000 66 64 65
288.000 989.000 314.000 69 66 67
289.000 988.000 314.000 63 61 62
288.000 990.000 312.000 70 69 71
289.000 990.000 312.000 69 67 69
290.000 988.000 313.000 61 58 59
290.000 989.000 312.000 68 66 68
291.000 988.000 312.000 66 64 65
291.000 988.000 313.000 62 60 60
291.000 989.000 312.000 70 68 70
290.000 988.000 314.000 58 56 56
292.000 984.000 313.000 42 40 42
292.000 985.000 313.000 52 51 53
293.000 984.000 312.000 42 42 44
293.000 985.000 312.000 49 48 50
293.000 985.000 313.000 53 52 54
292.000 986.000 313.000 50 49 50
292.000 987.000 312.000 59 57 58
292.000 987.000 313.000 55 52 52
293.000 986.000 312.000 52 51 52
293.000 986.000 313.000 54 52 55
293.000 987.000 312.000 56 54 55
293.000 987.000 313.000 52 50 50
294.000 986.000 312.000 47 47 49
292.000 988.000 312.000 66 64 65
293.000 988.000 312.000 61 59 61
297.000 976.000 305.000 49 48 50
296.000 976.000 306.000 42 40 43
296.000 976.000 307.000 45 43 45
296.000 977.000 306.000 40 39 42
296.000 977.000 307.000 42 41 42
297.000 976.000 306.000 42 41 43
297.000 977.000 306.000 40 39 42
296.000 978.000 307.000 39 38 38
297.000 978.000 306.000 40 40 43
297.000 978.000 307.000 35 35 37
297.000 979.000 307.000 36 36 37
298.000 976.000 304.000 48 47 49
298.000 976.000 305.000 53 52 53
298.000 977.000 305.000 53 52 55
299.000 976.000 304.000 45 45 46
299.000 977.000 304.000 46 46 47
299.000 977.000 305.000 51 50 52
298.000 978.000 305.000 51 51 54
299.000 978.000 304.000 47 46 48
299.000 978.000 305.000 47 47 49
299.000 979.000 304.000 51 51 54
299.000 979.000 305.000 49 49 52
298.000 978.000 306.000 50 51 54
298.000 979.000 306.000 48 48 52
296.000 978.000 308.000 41 39 39
296.000 979.000 308.000 39 38 37
297.000 980.000 307.000 35 34 36
297.000 981.000 307.000 35 35 37
297.000 982.000 307.000 43 43 46
297.000 983.000 307.000 41 41 42
299.000 980.000 305.000 54 54 57
299.000 981.000 305.000 57 56 58
298.000 980.000 306.000 46 46 48
298.000 980.000 307.000 41 41 43
298.000 981.000 306.000 49 49 51
298.000 981.000 307.000 42 42 44
299.000 980.000 306.000 48 48 50
299.000 981.000 306.000 54 54 56
299.000 982.000 304.000 55 54 56
299.000 982.000 305.000 56 55 57
299.000 983.000 304.000 60 59 61
299.000 983.000 305.000 54 54 57
298.000 982.000 306.000 49 48 50
298.000 982.000 307.000 46 46 48
298.000 983.000 306.000 47 46 48
298.000 983.000 307.000 44 44 46
299.000 982.000 306.000 52 52 54
299.000 983.000 306.000 50 50 52
296.000 980.000 308.000 38 36 36
296.000 981.000 308.000 37 36 37
296.000 981.000 309.000 36 35 35
297.000 980.000 308.000 34 33 36
297.000 981.000 308.000 36 36 38
296.000 982.000 308.000 38 37 38
296.000 982.000 309.000 37 35 36
296.000 983.000 308.000 36 35 35
296.000 983.000 309.000 33 32 31
297.000 982.000 308.000 40 40 41
297.000 983.000 308.000 39 39 41
300.000 979.000 304.000 50 50 52
300.000 980.000 304.000 56 55 57
300.000 981.000 304.000 60 58 60
300.000 982.000 304.000 57 56 57
300.000 983.000 304.000 57 55 57
297.000 984.000 307.000 49 48 49
297.000 985.000 307.000 63 62 65
297.000 987.000 305.000 60 59 60
296.000 987.000 307.000 68 66 68
297.000 986.000 306.000 65 61 65
297.000 986.000 307.000 64 62 64
297.000 987.000 306.000 63 60 63
297.000 987.000 307.000 64 61 64
298.000 985.000 305.000 66 65 68
299.000 984.000 304.000 65 64 66
299.000 984.000 305.000 63 62 64
299.000 985.000 304.000 61 59 61
299.000 985.000 305.000 63 62 64
298.000 984.000 306.000 56 56 58
298.000 984.000 307.000 51 51 53
298.000 985.000 306.000 67 66 69
298.000 985.000 307.000 65 65 68
299.000 984.000 306.000 55 55 57
298.000 986.000 305.000 61 59 61
298.000 987.000 304.000 59 57 59
298.000 987.000 305.000 58 55 58
299.000 986.000 304.000 59 57 59
299.000 986.000 305.000 60 58 60
298.000 986.000 306.000 67 65 67
296.000 984.000 309.000 45 43 44
296.000 985.000 309.000 49 48 49
297.000 984.000 308.000 44 43 45
297.000 985.000 308.000 58 58 60
296.000 986.000 308.000 54 52 56
296.000 986.000 309.000 51 50 52
296.000 987.000 308.000 59 58 60
296.000 987.000 309.000 53 53 55
297.000 986.000 308.000 58 56 60
297.000 987.000 308.000 59 57 61
296.000 988.000 305.000 65 64 67
296.000 989.000 304.000 66 65 67
296.000 989.000 305.000 71 70 72
297.000 988.000 304.000 62 61 63
297.000 988.000 305.000 63 62 64
297.000 989.000 304.000 66 65 67
297.000 989.000 305.000 68 67 69
296.000 988.000 306.000 68 67 69
296.000 988.000 307.000 69 67 69
296.000 989.000 306.000 68 67 69
297.000 988.000 306.000 66 64 66
296.000 990.000 304.000 67 65 68
296.000 990.000 305.000 73 71 74
298.000 988.000 304.000 61 59 61
296.000 988.000 308.000 65 64 66
289.000 994.000 303.000 55 53 54
289.000 995.000 302.000 45 44 46
289.000 995.000 303.000 51 49 50
291.000 993.000 303.000 38 37 37
290.000 994.000 302.000 41 41 43
290.000 994.000 303.000 46 45 46
291.000 994.000 303.000 36 35 37
292.000 992.000 303.000 45 43 44
292.000 993.000 302.000 34 34 36
292.000 993.000 303.000 39 38 39
293.000 992.000 302.000 36 34 35
293.000 992.000 303.000 44 42 44
294.000 992.000 303.000 46 42 44
288.000 993.000 305.000 58 56 59
289.000 993.000 305.000 59 57 60
288.000 992.000 307.000 67 65 69
288.000 993.000 306.000 62 59 63
288.000 993.000 307.000 64 63 66
289.000 992.000 306.000 63 60 65
289.000 992.000 307.000 66 63 67
289.000 993.000 306.000 64 61 65
288.000 994.000 304.000 52 49 50
288.000 994.000 305.000 54 51 54
289.000 994.000 304.000 58 56 56
289.000 994.000 305.000 58 56 57
290.000 992.000 305.000 62 60 63
290.000 993.000 304.000 54 52 54
290.000 993.000 305.000 59 57 59
291.000 992.000 304.000 54 52 54
291.000 992.000 305.000 61 59 61
291.000 993.000 304.000 49 47 49
290.000 992.000 306.000 62 59 63
290.000 992.000 307.000 64 61 63
290.000 993.000 306.000 63 61 64
291.000 992.000 306.000 60 57 61
291.000 992.000 307.000 60 57 60
290.000 994.000 304.000 54 52 53
288.000 992.000 308.000 70 67 70
288.000 992.000 309.000 66 64 67
289.000 992.000 308.000 68 65 67
292.000 992.000 304.000 52 49 50
292.000 992.000 305.000 60 57 59
293.000 992.000 304.000 50 48 49
292.000 992.000 306.000 61 58 60
269.000 983.000 321.000 38 38 39
268.000 983.000 322.000 41 42 45
268.000 983.000 323.000 41 42 45
269.000 982.000 322.000 38 39 42
269.000 983.000 322.000 38 39 42
270.000 982.000 321.000 39 38 38
270.000 983.000 320.000 36 34 34
270.000 983.000 321.000 37 36 36
271.000 982.000 320.000 42 39 38
271.000 983.000 320.000 39 37 37
269.000 984.000 321.000 38 38 40
269.000 985.000 321.000 37 37 39
269.000 984.000 322.000 40 40 43
270.000 984.000 320.000 35 33 35
270.000 984.000 321.000 33 32 32
270.000 985.000 320.000 33 33 34
270.000 986.000 320.000 36 36 37
