ply
format ascii 1.0
element vertex 1467
property float x
property float y
property float z
property uchar red
property uchar green
property uchar blue
end_header
155.000 698.000 159.000 74 80 89
155.000 699.000 159.000 77 83 92
155.000 700.000 159.000 80 87 96
155.000 701.000 159.000 82 89 98
155.000 702.000 159.000 79 86 95
155.000 703.000 159.000 78 85 94
156.000 699.000 158.000 76 82 90
157.000 701.000 157.000 83 88 96
156.000 700.000 158.000 76 82 91
156.000 701.000 158.000 77 83 92
157.000 700.000 158.000 76 82 91
157.000 702.000 157.000 79 85 93
157.000 703.000 157.000 75 81 90
156.000 702.000 158.000 76 82 91
156.000 703.000 158.000 75 82 91
158.000 701.000 157.000 89 95 103
158.000 702.000 157.000 87 92 101
158.000 703.000 157.000 79 85 93
159.000 702.000 157.000 88 94 103
159.000 703.000 156.000 81 88 97
159.000 703.000 157.000 80 87 95
143.000 692.000 175.000 91 97 106
143.000 693.000 175.000 83 89 98
143.000 694.000 175.000 76 82 90
143.000 695.000 175.000 74 79 87
141.000 697.000 175.000 73 79 88
141.000 698.000 175.000 74 80 89
141.000 699.000 174.000 75 81 90
141.000 699.000 175.000 74 81 89
142.000 696.000 174.000 73 79 87
142.000 697.000 174.000 74 80 89
142.000 699.000 173.000 78 84 92
143.000 699.000 172.000 78 85 93
142.000 699.000 174.000 77 83 92
140.000 701.000 175.000 86 91 100
141.000 700.000 174.000 77 83 92
141.000 700.000 175.000 78 84 92
141.000 701.000 174.000 80 85 94
141.000 701.000 175.000 82 88 96
140.000 702.000 175.000 86 92 100
140.000 703.000 175.000 84 90 98
141.000 702.000 174.000 80 86 94
141.000 702.000 175.000 82 88 96
141.000 703.000 174.000 81 86 95
141.000 703.000 175.000 81 87 96
142.000 700.000 173.000 79 85 94
142.000 701.000 173.000 81 87 95
143.000 700.000 172.000 81 87 96
143.000 700.000 173.000 80 86 95
143.000 701.000 172.000 88 94 102
143.000 701.000 173.000 84 89 98
142.000 700.000 174.000 78 84 93
142.000 701.000 174.000 79 85 93
142.000 702.000 173.000 83 89 98
142.000 703.000 173.000 81 87 96
143.000 702.000 172.000 89 95 103
143.000 702.000 173.000 86 92 100
143.000 703.000 172.000 83 90 99
142.000 702.000 174.000 82 87 96
142.000 703.000 174.000 80 86 95
135.000 696.000 191.000 69 74 81
135.000 697.000 190.000 72 77 84
135.000 697.000 191.000 72 77 84
135.000 698.000 189.000 71 77 84
135.000 699.000 189.000 70 76 84
135.000 698.000 190.000 73 78 86
135.000 698.000 191.000 78 83 91
135.000 699.000 190.000 70 76 84
135.000 699.000 191.000 74 79 87
135.000 700.000 189.000 70 75 83
135.000 701.000 189.000 71 76 84
135.000 700.000 190.000 69 75 83
135.000 700.000 191.000 69 74 82
135.000 701.000 190.000 69 75 83
135.000 701.000 191.000 69 74 82
135.000 702.000 189.000 73 79 87
135.000 703.000 189.000 78 84 92
135.000 702.000 190.000 74 79 87
135.000 702.000 191.000 76 81 89
135.000 703.000 190.000 79 85 92
135.000 703.000 191.000 84 89 97
139.000 695.000 179.000 76 82 90
139.000 692.000 181.000 73 80 88
139.000 693.000 181.000 72 79 87
139.000 693.000 182.000 73 79 87
141.000 692.000 178.000 75 82 90
141.000 693.000 178.000 73 79 88
141.000 693.000 179.000 74 80 88
140.000 695.000 177.000 75 81 89
140.000 695.000 178.000 76 82 90
141.000 694.000 178.000 74 80 88
142.000 692.000 176.000 88 93 102
142.000 692.000 177.000 80 86 95
142.000 693.000 176.000 78 84 93
142.000 693.000 177.000 75 81 90
143.000 692.000 176.000 91 96 105
143.000 693.000 176.000 85 90 99
142.000 694.000 176.000 73 79 88
140.000 693.000 180.000 73 79 87
136.000 692.000 187.000 71 76 83
136.000 695.000 189.000 70 74 81
139.000 696.000 179.000 79 85 94
139.000 697.000 179.000 85 91 99
139.000 699.000 177.000 79 85 93
138.000 698.000 179.000 79 85 94
138.000 699.000 179.000 77 83 91
139.000 698.000 178.000 86 91 100
139.000 698.000 179.000 84 90 99
139.000 699.000 178.000 80 86 94
139.000 699.000 179.000 79 85 93
137.000 697.000 182.000 72 78 85
137.000 697.000 183.000 71 77 85
137.000 699.000 181.000 76 81 89
137.000 698.000 182.000 75 80 88
137.000 698.000 183.000 75 80 87
137.000 699.000 182.000 76 81 89
137.000 699.000 183.000 76 82 89
138.000 697.000 180.000 76 83 91
138.000 697.000 182.000 72 78 86
138.000 698.000 180.000 76 82 91
138.000 698.000 181.000 76 81 89
138.000 699.000 180.000 75 81 90
138.000 699.000 181.000 76 81 89
138.000 698.000 182.000 74 80 87
139.000 700.000 177.000 78 84 93
139.000 701.000 177.000 80 86 95
138.000 700.000 179.000 76 82 90
138.000 701.000 179.000 76 81 90
139.000 700.000 178.000 78 83 92
139.000 700.000 179.000 77 82 91
139.000 701.000 178.000 77 83 92
139.000 701.000 179.000 75 81 89
139.000 702.000 177.000 87 92 101
139.000 703.000 177.000 87 93 102
138.000 702.000 179.000 78 84 92
138.000 703.000 178.000 78 84 93
138.000 703.000 179.000 77 83 92
139.000 702.000 178.000 79 85 94
139.000 703.000 178.000 80 86 95
137.000 700.000 181.000 75 80 89
137.000 701.000 181.000 75 81 89
137.000 700.000 182.000 76 81 89
137.000 700.000 183.000 76 81 89
137.000 701.000 182.000 75 80 89
137.000 701.000 183.000 74 79 87
137.000 702.000 181.000 75 81 89
137.000 703.000 181.000 75 81 89
137.000 702.000 182.000 74 79 87
137.000 702.000 183.000 72 78 86
137.000 703.000 182.000 73 79 87
137.000 703.000 183.000 72 77 86
138.000 700.000 180.000 76 82 90
138.000 700.000 181.000 76 81 90
138.000 701.000 180.000 75 81 90
138.000 701.000 181.000 76 81 89
138.000 702.000 180.000 77 82 91
138.000 702.000 181.000 75 81 89
138.000 703.000 180.000 75 81 90
138.000 703.000 181.000 75 81 90
140.000 696.000 177.000 78 84 93
140.000 697.000 177.000 81 87 96
140.000 698.000 176.000 78 84 93
140.000 698.000 177.000 81 87 96
140.000 699.000 176.000 75 81 90
140.000 699.000 177.000 77 83 92
141.000 699.000 176.000 74 80 89
140.000 698.000 178.000 86 91 100
140.000 700.000 176.000 79 85 93
140.000 700.000 177.000 78 84 93
140.000 701.000 176.000 87 92 101
140.000 701.000 177.000 85 91 100
140.000 702.000 176.000 92 97 106
140.000 702.000 177.000 91 97 106
140.000 703.000 176.000 89 94 103
136.000 697.000 185.000 82 88 96
136.000 697.000 186.000 80 85 93
136.000 697.000 187.000 72 77 85
136.000 698.000 184.000 74 80 88
136.000 698.000 185.000 73 79 87
136.000 699.000 184.000 76 81 89
136.000 699.000 185.000 75 80 88
137.000 698.000 184.000 75 80 88
137.000 699.000 184.000 77 82 90
136.000 698.000 186.000 72 78 87
136.000 698.000 187.000 71 76 84
136.000 699.000 186.000 73 79 87
136.000 699.000 187.000 71 76 84
136.000 696.000 189.000 68 73 80
136.000 697.000 188.000 69 73 80
136.000 697.000 189.000 69 74 81
136.000 696.000 190.000 69 74 81
136.000 697.000 190.000 71 76 83
136.000 698.000 188.000 70 75 81
136.000 698.000 189.000 70 76 83
136.000 699.000 188.000 70 75 82
136.000 699.000 189.000 70 76 83
136.000 700.000 184.000 77 82 89
136.000 700.000 185.000 76 81 88
136.000 701.000 184.000 73 78 86
136.000 701.000 185.000 74 79 87
137.000 700.000 184.000 77 82 90
137.000 701.000 184.000 75 80 88
136.000 700.000 186.000 75 80 88
136.000 700.000 187.000 72 77 85
136.000 701.000 186.000 74 80 87
136.000 701.000 187.000 72 77 85
136.000 702.000 184.000 71 77 85
136.000 702.000 185.000 73 78 86
136.000 703.000 184.000 70 76 84
136.000 703.000 185.000 71 76 84
137.000 702.000 184.000 71 77 85
137.000 703.000 184.000 71 76 84
136.000 702.000 186.000 74 79 86
136.000 702.000 187.000 72 77 85
136.000 703.000 186.000 71 77 84
136.000 703.000 187.000 71 76 83
136.000 700.000 188.000 70 75 83
136.000 700.000 189.000 70 75 83
136.000 701.000 188.000 70 75 83
136.000 701.000 189.000 71 76 84
136.000 702.000 188.000 72 78 86
136.000 702.000 189.000 72 77 85
136.000 703.000 188.000 73 79 88
149.000 691.000 166.000 91 97 107
151.000 691.000 164.000 83 89 99
151.000 695.000 163.000 90 96 106
149.000 692.000 166.000 90 97 106
149.000 695.000 165.000 93 99 109
151.000 692.000 164.000 85 92 101
150.000 695.000 164.000 88 94 104
145.000 691.000 171.000 80 87 96
146.000 691.000 170.000 81 88 97
145.000 692.000 171.000 79 85 94
146.000 694.000 170.000 82 88 96
146.000 695.000 170.000 81 87 96
144.000 692.000 173.000 91 97 106
144.000 693.000 173.000 86 92 100
144.000 694.000 173.000 78 84 93
147.000 701.000 167.000 80 85 93
147.000 702.000 167.000 78 84 92
147.000 703.000 167.000 77 84 93
151.000 699.000 163.000 85 92 101
149.000 696.000 165.000 90 96 106
149.000 697.000 165.000 88 94 103
149.000 698.000 165.000 87 93 102
148.000 698.000 166.000 86 91 100
149.000 698.000 166.000 87 93 102
150.000 697.000 165.000 88 94 103
150.000 698.000 165.000 87 93 102
151.000 700.000 163.000 86 92 101
151.000 702.000 163.000 85 91 100
151.000 703.000 163.000 90 96 106
148.000 701.000 166.000 80 86 95
148.000 701.000 167.000 80 85 94
149.000 701.000 166.000 83 88 97
149.000 702.000 165.000 84 90 99
149.000 703.000 165.000 85 91 101
148.000 702.000 166.000 78 84 94
148.000 702.000 167.000 77 83 92
148.000 703.000 166.000 79 86 95
148.000 703.000 167.000 77 84 93
149.000 702.000 166.000 81 87 96
149.000 703.000 166.000 82 89 98
150.000 702.000 164.000 85 91 100
150.000 702.000 165.000 86 92 101
150.000 703.000 164.000 90 97 106
150.000 703.000 165.000 88 95 104
144.000 696.000 171.000 86 91 100
144.000 697.000 171.000 83 88 97
145.000 696.000 171.000 86 91 100
144.000 699.000 172.000 78 85 93
144.000 700.000 171.000 81 87 96
144.000 701.000 171.000 90 95 104
145.000 700.000 170.000 78 84 93
145.000 700.000 171.000 80 86 95
145.000 701.000 170.000 83 89 97
145.000 701.000 171.000 86 92 100
144.000 702.000 171.000 89 94 103
144.000 703.000 171.000 84 90 99
145.000 702.000 170.000 85 91 99
145.000 702.000 171.000 87 93 102
145.000 703.000 170.000 85 91 100
146.000 700.000 169.000 78 84 92
146.000 701.000 168.000 78 84 92
146.000 701.000 169.000 80 86 94
147.000 701.000 168.000 79 85 93
146.000 702.000 168.000 78 84 92
146.000 702.000 169.000 81 86 94
146.000 703.000 168.000 79 85 93
146.000 703.000 169.000 82 87 95
147.000 702.000 168.000 78 84 92
147.000 703.000 168.000 78 84 93
152.000 694.000 161.000 83 90 99
152.000 695.000 161.000 88 94 104
153.000 694.000 160.000 80 86 95
152.000 695.000 162.000 89 96 105
154.000 692.000 160.000 79 85 94
154.000 693.000 160.000 78 84 93
154.000 695.000 160.000 79 85 93
152.000 696.000 161.000 90 97 106
153.000 696.000 161.000 86 92 102
153.000 697.000 161.000 86 93 103
152.000 696.000 162.000 90 97 107
153.000 698.000 161.000 84 91 101
153.000 699.000 161.000 85 91 101
152.000 699.000 162.000 86 92 102
154.000 696.000 160.000 81 87 96
154.000 697.000 160.000 80 87 96
154.000 698.000 160.000 79 86 95
154.000 699.000 160.000 81 88 98
153.000 700.000 161.000 88 94 104
153.000 701.000 161.000 91 96 105
152.000 700.000 162.000 87 93 103
152.000 701.000 162.000 88 94 103
153.000 702.000 161.000 89 95 104
153.000 703.000 161.000 85 91 101
152.000 702.000 162.000 87 93 102
152.000 703.000 162.000 88 94 103
152.000 703.000 163.000 88 94 104
153.000 702.000 162.000 88 93 102
153.000 703.000 162.000 87 93 102
154.000 700.000 160.000 86 92 102
154.000 701.000 160.000 89 95 104
154.000 702.000 160.000 86 92 102
154.000 703.000 160.000 84 90 100
155.000 702.000 160.000 82 89 98
155.000 703.000 160.000 82 88 98
160.000 703.000 156.000 84 90 99
135.000 695.000 192.000 70 75 83
135.000 695.000 193.000 74 79 86
135.000 696.000 192.000 69 74 81
135.000 696.000 193.000 70 75 82
135.000 697.000 192.000 70 76 83
135.000 697.000 193.000 69 74 81
135.000 696.000 194.000 69 74 82
135.000 696.000 195.000 69 75 83
135.000 697.000 194.000 68 73 80
135.000 697.000 195.000 65 71 78
135.000 698.000 192.000 76 81 89
135.000 698.000 193.000 70 75 82
135.000 699.000 192.000 72 77 84
135.000 699.000 193.000 69 73 80
135.000 698.000 194.000 68 72 79
135.000 698.000 195.000 66 70 77
135.000 699.000 194.000 68 72 79
135.000 696.000 196.000 71 76 84
135.000 697.000 196.000 64 70 77
135.000 698.000 196.000 65 70 77
135.000 700.000 192.000 70 75 82
135.000 700.000 193.000 68 73 80
135.000 701.000 192.000 71 76 83
135.000 701.000 193.000 69 74 81
134.000 700.000 195.000 68 72 79
134.000 701.000 194.000 69 74 80
134.000 701.000 195.000 69 73 80
135.000 700.000 194.000 69 73 80
134.000 702.000 193.000 73 78 85
134.000 703.000 193.000 79 85 92
135.000 702.000 192.000 77 82 90
135.000 702.000 193.000 75 80 88
135.000 703.000 192.000 89 94 102
135.000 703.000 193.000 85 90 98
134.000 702.000 194.000 70 75 82
134.000 702.000 195.000 68 72 79
134.000 703.000 194.000 73 78 85
134.000 703.000 195.000 68 73 80
136.000 693.000 195.000 86 91 99
136.000 695.000 192.000 69 74 82
155.000 704.000 159.000 78 85 94
155.000 705.000 158.000 80 86 96
155.000 705.000 159.000 81 88 97
155.000 706.000 158.000 84 91 100
155.000 706.000 159.000 84 91 100
155.000 707.000 158.000 91 97 108
155.000 707.000 159.000 89 95 105
154.000 709.000 159.000 89 96 105
155.000 708.000 158.000 97 104 114
155.000 708.000 159.000 94 100 111
155.000 709.000 158.000 101 108 118
155.000 709.000 159.000 97 104 114
154.000 710.000 159.000 87 94 103
154.000 711.000 159.000 85 92 102
155.000 710.000 158.000 99 106 116
155.000 710.000 159.000 94 101 111
155.000 711.000 158.000 94 101 112
155.000 711.000 159.000 90 97 107
157.000 704.000 157.000 75 81 90
157.000 705.000 157.000 76 82 91
156.000 704.000 158.000 76 82 92
156.000 705.000 158.000 78 84 94
157.000 706.000 157.000 79 86 95
157.000 707.000 157.000 85 92 101
156.000 706.000 158.000 81 87 97
156.000 707.000 158.000 87 94 104
158.000 704.000 157.000 74 81 89
158.000 705.000 156.000 76 81 90
158.000 705.000 157.000 76 82 90
159.000 704.000 156.000 75 81 90
159.000 704.000 157.000 75 82 90
159.000 705.000 156.000 76 81 90
158.000 706.000 156.000 78 84 92
158.000 706.000 157.000 78 84 93
158.000 707.000 156.000 79 86 95
158.000 707.000 157.000 83 89 98
159.000 706.000 156.000 76 82 90
159.000 707.000 156.000 76 82 91
159.000 709.000 155.000 75 82 91
159.000 710.000 155.000 76 82 92
159.000 711.000 155.000 75 82 91
156.000 708.000 157.000 99 106 117
156.000 709.000 157.000 100 108 119
157.000 708.000 157.000 92 99 110
157.000 709.000 157.000 96 103 114
156.000 708.000 158.000 97 104 115
156.000 709.000 158.000 101 108 119
156.000 710.000 157.000 100 107 118
156.000 711.000 157.000 93 100 111
157.000 710.000 157.000 98 105 116
157.000 711.000 157.000 92 99 110
156.000 710.000 158.000 99 106 117
156.000 711.000 158.000 93 100 111
158.000 708.000 156.000 80 87 97
158.000 708.000 157.000 84 91 101
158.000 709.000 156.000 82 90 100
159.000 708.000 156.000 77 83 93
159.000 709.000 156.000 76 83 92
158.000 710.000 156.000 85 92 101
158.000 711.000 156.000 85 92 101
159.000 710.000 156.000 78 85 94
159.000 711.000 156.000 78 85 94
154.000 712.000 159.000 83 89 99
154.000 713.000 159.000 82 88 98
155.000 712.000 158.000 86 93 103
155.000 712.000 159.000 85 92 102
155.000 713.000 158.000 84 91 100
155.000 713.000 159.000 84 90 100
154.000 714.000 159.000 82 88 97
154.000 715.000 159.000 81 87 96
155.000 714.000 158.000 82 88 98
155.000 715.000 158.000 80 87 96
153.000 716.000 159.000 88 94 103
153.000 717.000 159.000 89 96 105
153.000 718.000 159.000 87 94 104
153.000 719.000 159.000 93 99 109
154.000 716.000 158.000 84 90 99
154.000 716.000 159.000 83 90 99
159.000 712.000 155.000 77 84 93
159.000 713.000 155.000 82 88 97
156.000 712.000 157.000 83 91 101
156.000 713.000 157.000 83 89 99
157.000 712.000 157.000 83 90 100
157.000 713.000 157.000 81 87 97
156.000 712.000 158.000 85 92 103
156.000 713.000 158.000 83 90 99
156.000 714.000 157.000 81 87 96
156.000 715.000 157.000 80 86 95
157.000 714.000 156.000 80 87 96
157.000 714.000 157.000 80 86 95
156.000 714.000 158.000 81 88 97
158.000 712.000 156.000 81 88 97
158.000 713.000 156.000 82 88 97
159.000 712.000 156.000 79 85 95
158.000 714.000 156.000 85 91 100
143.000 705.000 171.000 77 83 92
143.000 706.000 171.000 79 85 94
143.000 707.000 171.000 80 86 95
140.000 704.000 175.000 83 89 97
140.000 705.000 175.000 80 86 95
141.000 704.000 174.000 80 86 95
141.000 704.000 175.000 82 88 96
141.000 705.000 174.000 80 86 95
141.000 705.000 175.000 80 86 95
140.000 706.000 175.000 81 87 95
140.000 707.000 175.000 81 87 96
141.000 706.000 174.000 81 87 96
141.000 706.000 175.000 81 87 95
141.000 707.000 174.000 84 90 99
141.000 707.000 175.000 82 88 96
142.000 704.000 173.000 78 85 93
142.000 705.000 173.000 79 85 94
143.000 704.000 172.000 78 85 94
143.000 705.000 172.000 78 84 93
142.000 704.000 174.000 79 85 94
142.000 705.000 174.000 80 86 94
142.000 706.000 173.000 81 87 95
142.000 707.000 173.000 84 90 99
143.000 706.000 172.000 79 85 94
143.000 707.000 172.000 82 88 97
142.000 706.000 174.000 81 87 96
142.000 707.000 174.000 83 89 98
143.000 708.000 171.000 81 87 96
143.000 709.000 171.000 83 89 98
143.000 710.000 171.000 86 91 100
143.000 711.000 171.000 85 91 100
141.000 709.000 173.000 93 100 110
140.000 708.000 175.000 84 90 99
140.000 709.000 175.000 90 96 105
141.000 708.000 174.000 89 95 105
141.000 709.000 174.000 93 99 109
141.000 710.000 173.000 94 101 110
141.000 711.000 173.000 93 100 110
140.000 710.000 175.000 94 100 109
140.000 711.000 174.000 93 99 109
140.000 711.000 175.000 90 96 106
141.000 710.000 174.000 93 100 110
141.000 711.000 174.000 93 99 109
142.000 708.000 173.000 88 94 104
142.000 709.000 172.000 87 93 103
142.000 709.000 173.000 91 97 107
143.000 708.000 172.000 84 90 99
143.000 709.000 172.000 85 91 100
142.000 710.000 172.000 91 97 107
142.000 710.000 173.000 93 100 109
142.000 711.000 172.000 92 97 106
142.000 711.000 173.000 95 101 110
143.000 710.000 172.000 90 95 104
143.000 711.000 172.000 90 95 104
139.000 714.000 175.000 77 83 92
139.000 715.000 175.000 77 83 91
139.000 716.000 175.000 77 83 91
139.000 717.000 175.000 75 82 90
139.000 718.000 175.000 76 83 91
139.000 719.000 174.000 81 87 95
139.000 719.000 175.000 82 88 96
143.000 712.000 170.000 80 86 95
143.000 712.000 171.000 81 87 96
143.000 713.000 170.000 80 86 95
143.000 713.000 171.000 79 85 94
142.000 715.000 171.000 83 89 98
143.000 714.000 170.000 83 89 97
143.000 714.000 171.000 81 87 96
143.000 715.000 170.000 87 93 101
143.000 715.000 171.000 86 91 100
141.000 712.000 173.000 84 91 100
141.000 713.000 173.000 79 85 94
140.000 712.000 174.000 86 92 101
140.000 712.000 175.000 82 88 98
140.000 713.000 174.000 78 85 94
140.000 713.000 175.000 77 84 93
141.000 712.000 174.000 86 92 102
141.000 713.000 174.000 79 85 95
141.000 714.000 173.000 78 84 93
141.000 715.000 173.000 77 83 91
140.000 714.000 174.000 77 83 92
140.000 714.000 175.000 77 83 92
140.000 715.000 174.000 78 83 92
140.000 715.000 175.000 78 84 92
142.000 712.000 172.000 84 90 99
142.000 712.000 173.000 85 91 100
142.000 713.000 172.000 80 85 94
142.000 713.000 173.000 80 86 94
142.000 714.000 172.000 79 85 93
142.000 715.000 172.000 78 84 93
142.000 716.000 171.000 80 86 95
142.000 717.000 171.000 78 85 94
143.000 716.000 170.000 81 88 97
143.000 716.000 171.000 81 87 96
143.000 717.000 170.000 77 84 94
143.000 717.000 171.000 78 85 94
143.000 718.000 169.000 80 87 96
143.000 719.000 169.000 83 90 99
142.000 718.000 171.000 80 87 96
142.000 719.000 171.000 84 90 100
143.000 718.000 170.000 79 86 96
143.000 719.000 170.000 84 91 101
140.000 717.000 173.000 75 80 89
141.000 716.000 173.000 77 82 91
141.000 717.000 172.000 78 84 93
141.000 717.000 173.000 77 83 91
140.000 716.000 174.000 77 83 91
140.000 716.000 175.000 78 83 91
140.000 717.000 174.000 74 80 88
140.000 718.000 173.000 75 81 89
140.000 719.000 173.000 77 83 92
141.000 718.000 172.000 79 85 94
141.000 718.000 173.000 77 83 91
141.000 719.000 172.000 80 86 95
141.000 719.000 173.000 78 84 92
140.000 718.000 174.000 76 82 90
140.000 719.000 174.000 79 85 93
142.000 716.000 172.000 77 83 92
142.000 717.000 172.000 77 84 93
142.000 718.000 172.000 80 86 95
142.000 719.000 172.000 82 88 97
135.000 705.000 187.000 71 76 84
135.000 706.000 187.000 70 75 83
135.000 707.000 187.000 72 78 85
135.000 704.000 188.000 74 80 89
135.000 704.000 189.000 79 85 94
135.000 705.000 188.000 70 77 85
135.000 705.000 189.000 74 81 89
135.000 704.000 190.000 81 87 95
135.000 704.000 191.000 84 89 97
135.000 705.000 190.000 76 82 90
135.000 705.000 191.000 77 82 90
135.000 706.000 188.000 68 74 82
135.000 706.000 189.000 69 76 84
135.000 707.000 188.000 68 74 82
135.000 707.000 189.000 69 75 83
134.000 707.000 191.000 69 74 81
135.000 706.000 190.000 70 76 84
135.000 706.000 191.000 70 76 83
135.000 707.000 190.000 68 74 81
135.000 707.000 191.000 68 74 81
135.000 708.000 186.000 84 89 97
135.000 708.000 187.000 76 81 89
135.000 709.000 186.000 80 85 94
135.000 709.000 187.000 74 80 88
135.000 710.000 185.000 80 86 94
135.000 711.000 184.000 77 83 92
135.000 711.000 185.000 76 82 91
134.000 711.000 187.000 71 76 84
135.000 710.000 186.000 75 81 89
135.000 710.000 187.000 71 77 85
135.000 711.000 186.000 73 79 87
135.000 711.000 187.000 72 77 85
134.000 709.000 189.000 69 74 81
135.000 708.000 188.000 70 76 83
135.000 708.000 189.000 68 74 81
135.000 709.000 188.000 70 75 82
135.000 709.000 189.000 69 74 81
134.000 708.000 190.000 69 74 81
134.000 708.000 191.000 69 74 81
134.000 709.000 190.000 69 74 81
134.000 709.000 191.000 69 74 81
135.000 708.000 190.000 68 74 81
134.000 710.000 188.000 70 75 82
134.000 710.000 189.000 70 75 82
134.000 711.000 188.000 71 76 84
134.000 711.000 189.000 71 76 83
135.000 710.000 188.000 70 75 82
134.000 710.000 190.000 70 75 82
134.000 710.000 191.000 70 75 83
134.000 711.000 190.000 71 76 83
134.000 711.000 191.000 70 75 83
135.000 713.000 183.000 72 79 87
135.000 714.000 183.000 77 83 91
135.000 715.000 183.000 83 88 95
135.000 716.000 183.000 79 84 91
135.000 717.000 183.000 74 79 87
135.000 718.000 182.000 72 77 85
135.000 718.000 183.000 74 79 86
135.000 719.000 182.000 73 78 86
135.000 719.000 183.000 74 79 86
135.000 712.000 184.000 74 80 89
135.000 712.000 185.000 71 78 86
135.000 713.000 184.000 72 78 86
135.000 713.000 185.000 71 78 86
134.000 712.000 187.000 71 76 84
134.000 713.000 186.000 72 78 86
134.000 713.000 187.000 71 77 85
135.000 712.000 186.000 71 77 85
135.000 712.000 187.000 71 77 85
135.000 713.000 186.000 72 78 86
134.000 715.000 185.000 80 85 93
135.000 714.000 184.000 77 83 91
135.000 714.000 185.000 74 80 88
135.000 715.000 184.000 86 90 98
135.000 715.000 185.000 81 85 93
134.000 714.000 186.000 73 78 86
134.000 714.000 187.000 71 77 85
134.000 715.000 186.000 74 79 87
134.000 715.000 187.000 73 78 86
133.000 712.000 191.000 71 76 84
133.000 713.000 190.000 70 75 83
133.000 713.000 191.000 70 76 84
133.000 715.000 189.000 70 76 84
133.000 714.000 190.000 69 75 82
133.000 714.000 191.000 68 74 82
133.000 715.000 190.000 69 75 82
133.000 715.000 191.000 67 73 80
134.000 712.000 188.000 71 76 84
134.000 712.000 189.000 70 75 83
134.000 713.000 188.000 71 76 84
134.000 713.000 189.000 70 76 83
134.000 712.000 190.000 70 75 83
134.000 712.000 191.000 71 76 84
134.000 713.000 190.000 69 74 82
134.000 714.000 188.000 71 77 85
134.000 714.000 189.000 71 76 83
134.000 715.000 188.000 71 77 85
134.000 715.000 189.000 70 76 83
133.000 718.000 187.000 71 76 84
133.000 719.000 187.000 69 75 82
134.000 716.000 185.000 80 85 93
134.000 717.000 185.000 74 79 87
135.000 716.000 184.000 84 88 96
135.000 716.000 185.000 86 91 98
135.000 717.000 184.000 75 80 87
134.000 716.000 186.000 74 79 87
134.000 716.000 187.000 71 77 84
134.000 717.000 186.000 72 77 84
134.000 717.000 187.000 70 75 83
134.000 718.000 184.000 73 78 86
134.000 718.000 185.000 73 78 85
134.000 719.000 184.000 74 79 86
134.000 719.000 185.000 73 78 85
135.000 718.000 184.000 74 79 86
134.000 718.000 186.000 71 76 83
134.000 718.000 187.000 70 75 82
134.000 719.000 186.000 71 76 84
134.000 719.000 187.000 70 75 83
133.000 716.000 188.000 72 77 85
133.000 716.000 189.000 74 80 88
133.000 717.000 188.000 72 77 84
133.000 717.000 189.000 76 82 90
133.000 716.000 190.000 74 79 87
133.000 716.000 191.000 69 74 82
133.000 717.000 190.000 80 85 93
133.000 717.000 191.000 77 82 90
133.000 718.000 188.000 72 77 84
133.000 718.000 189.000 73 78 85
133.000 719.000 188.000 71 76 83
133.000 719.000 189.000 70 76 83
132.000 719.000 191.000 66 71 79
133.000 718.000 190.000 76 81 89
133.000 718.000 191.000 75 80 87
133.000 719.000 190.000 70 76 83
133.000 719.000 191.000 69 74 82
134.000 716.000 188.000 71 76 84
134.000 716.000 189.000 71 76 84
134.000 717.000 188.000 70 76 84
139.000 704.000 177.000 83 89 98
139.000 705.000 177.000 80 86 95
138.000 704.000 178.000 78 84 93
138.000 704.000 179.000 76 82 91
138.000 705.000 178.000 76 83 92
138.000 705.000 179.000 75 82 91
139.000 704.000 178.000 79 86 95
139.000 705.000 178.000 77 83 92
139.000 706.000 177.000 79 85 93
139.000 707.000 177.000 78 84 92
138.000 706.000 179.000 76 82 92
138.000 707.000 179.000 78 84 93
139.000 706.000 178.000 76 83 91
139.000 707.000 178.000 75 82 90
139.000 707.000 179.000 77 83 92
137.000 704.000 182.000 79 85 93
137.000 704.000 183.000 76 82 90
137.000 705.000 182.000 89 94 103
137.000 705.000 183.000 85 90 99
137.000 706.000 182.000 86 93 102
137.000 706.000 183.000 85 91 100
137.000 707.000 182.000 84 91 101
137.000 707.000 183.000 86 92 102
138.000 704.000 180.000 75 81 90
138.000 704.000 181.000 79 85 94
138.000 705.000 180.000 79 86 95
138.000 705.000 181.000 87 93 102
138.000 706.000 180.000 80 87 96
138.000 706.000 181.000 86 92 101
138.000 707.000 180.000 83 89 98
138.000 707.000 181.000 84 91 100
139.000 708.000 177.000 76 82 91
139.000 709.000 177.000 76 82 91
138.000 708.000 179.000 79 85 94
138.000 709.000 179.000 76 83 91
139.000 708.000 178.000 75 81 90
139.000 708.000 179.000 77 83 92
139.000 709.000 178.000 75 81 90
139.000 709.000 179.000 76 82 91
139.000 710.000 176.000 81 87 95
139.000 710.000 177.000 77 83 91
139.000 711.000 176.000 79 85 93
139.000 711.000 177.000 76 81 90
138.000 710.000 178.000 74 80 89
138.000 710.000 179.000 74 80 89
138.000 711.000 178.000 74 79 88
138.000 711.000 179.000 73 79 87
139.000 710.000 178.000 75 81 89
139.000 711.000 178.000 74 80 88
137.000 709.000 181.000 82 88 97
136.000 709.000 183.000 80 86 95
137.000 708.000 182.000 84 90 99
137.000 708.000 183.000 85 91 100
137.000 709.000 182.000 78 85 94
137.000 709.000 183.000 77 84 93
137.000 710.000 180.000 77 83 91
137.000 710.000 181.000 76 82 90
137.000 711.000 180.000 73 78 86
137.000 711.000 181.000 72 77 85
136.000 710.000 183.000 76 82 90
136.000 711.000 182.000 70 75 83
136.000 711.000 183.000 74 80 88
137.000 710.000 182.000 72 78 86
137.000 710.000 183.000 72 79 87
137.000 711.000 182.000 70 76 84
138.000 708.000 180.000 82 89 98
138.000 708.000 181.000 85 91 100
138.000 709.000 180.000 83 88 97
138.000 709.000 181.000 85 91 99
138.000 710.000 180.000 79 84 92
138.000 711.000 180.000 73 79 87
140.000 704.000 176.000 86 91 100
140.000 705.000 176.000 81 87 95
140.000 706.000 176.000 81 86 95
140.000 707.000 176.000 79 85 94
140.000 708.000 176.000 79 86 94
140.000 709.000 176.000 82 88 97
140.000 710.000 176.000 85 91 100
140.000 711.000 176.000 85 91 100
136.000 704.000 185.000 70 77 85
136.000 705.000 184.000 77 83 91
136.000 705.000 185.000 75 80 88
137.000 704.000 184.000 73 79 87
137.000 705.000 184.000 77 83 92
136.000 704.000 186.000 72 77 84
136.000 704.000 187.000 71 77 84
136.000 705.000 186.000 73 78 86
136.000 705.000 187.000 71 76 84
136.000 706.000 184.000 80 85 93
136.000 706.000 185.000 79 85 93
136.000 707.000 184.000 83 89 97
136.000 707.000 185.000 85 90 98
137.000 706.000 184.000 82 88 97
137.000 707.000 184.000 84 90 99
136.000 706.000 186.000 76 81 88
136.000 706.000 187.000 72 78 85
136.000 707.000 186.000 80 86 93
136.000 707.000 187.000 74 79 87
136.000 704.000 188.000 72 78 87
136.000 708.000 184.000 84 90 99
136.000 708.000 185.000 84 90 98
136.000 709.000 184.000 80 86 95
136.000 709.000 185.000 82 88 96
136.000 708.000 186.000 84 90 97
136.000 709.000 186.000 84 89 97
136.000 710.000 184.000 78 85 94
136.000 710.000 185.000 81 87 95
136.000 711.000 184.000 78 84 93
137.000 712.000 179.000 71 77 85
137.000 713.000 179.000 73 79 87
137.000 714.000 179.000 77 83 91
137.000 715.000 179.000 78 84 92
138.000 712.000 177.000 74 80 88
138.000 713.000 177.000 75 81 89
139.000 712.000 176.000 77 83 92
139.000 712.000 177.000 75 80 89
139.000 713.000 176.000 75 81 90
139.000 713.000 177.000 74 80 88
138.000 712.000 178.000 74 79 87
138.000 712.000 179.000 72 78 86
138.000 713.000 178.000 75 81 89
138.000 713.000 179.000 75 81 88
138.000 714.000 177.000 78 84 92
138.000 715.000 176.000 80 86 94
138.000 715.000 177.000 82 88 96
139.000 714.000 176.000 77 83 91
139.000 715.000 176.000 78 84 93
138.000 714.000 178.000 79 85 93
138.000 714.000 179.000 79 85 93
138.000 715.000 178.000 84 89 97
136.000 713.000 181.000 72 77 84
137.000 712.000 180.000 71 77 85
137.000 712.000 181.000 72 77 85
137.000 713.000 180.000 72 77 85
137.000 713.000 181.000 72 77 85
136.000 712.000 182.000 70 76 84
136.000 712.000 183.000 72 78 86
136.000 713.000 182.000 71 76 84
136.000 713.000 183.000 72 78 86
137.000 712.000 182.000 71 76 84
136.000 714.000 181.000 73 78 86
136.000 715.000 181.000 73 79 86
137.000 714.000 180.000 75 80 88
137.000 714.000 181.000 73 79 86
137.000 715.000 180.000 74 80 88
136.000 714.000 182.000 72 78 86
136.000 714.000 183.000 74 80 88
136.000 715.000 182.000 72 77 84
136.000 715.000 183.000 76 81 88
138.000 712.000 180.000 72 78 86
137.000 716.000 179.000 76 83 91
137.000 717.000 178.000 84 89 98
137.000 717.000 179.000 77 83 91
137.000 718.000 178.000 81 86 94
137.000 718.000 179.000 76 82 90
137.000 719.000 178.000 81 86 94
137.000 719.000 179.000 77 83 91
138.000 716.000 176.000 81 87 95
138.000 716.000 177.000 84 89 98
138.000 717.000 176.000 80 86 94
138.000 717.000 177.000 83 89 97
139.000 716.000 176.000 79 85 93
139.000 717.000 176.000 78 84 93
138.000 716.000 178.000 86 91 99
138.000 717.000 178.000 84 89 98
138.000 718.000 176.000 78 84 93
138.000 718.000 177.000 81 86 95
138.000 719.000 176.000 80 86 95
138.000 719.000 177.000 82 88 96
139.000 718.000 176.000 76 83 92
139.000 719.000 176.000 81 87 96
138.000 718.000 178.000 82 87 96
136.000 716.000 181.000 73 78 85
136.000 717.000 180.000 72 78 86
136.000 717.000 181.000 70 76 84
137.000 716.000 180.000 73 78 86
137.000 717.000 180.000 72 78 86
136.000 716.000 182.000 72 77 85
136.000 716.000 183.000 77 81 89
136.000 717.000 182.000 71 76 83
136.000 718.000 180.000 73 78 86
136.000 718.000 181.000 71 77 85
136.000 719.000 180.000 74 80 89
136.000 719.000 181.000 73 79 87
137.000 718.000 180.000 74 80 88
137.000 719.000 180.000 74 80 89
136.000 718.000 182.000 71 76 84
136.000 719.000 182.000 73 78 86
136.000 712.000 184.000 77 83 91
139.000 720.000 174.000 86 92 100
139.000 720.000 175.000 90 96 104
139.000 721.000 175.000 91 97 106
139.000 722.000 174.000 81 87 96
139.000 722.000 175.000 84 90 99
143.000 720.000 169.000 88 95 104
143.000 721.000 169.000 90 96 106
142.000 721.000 170.000 96 102 111
142.000 721.000 171.000 93 99 108
143.000 720.000 170.000 92 98 108
143.000 721.000 170.000 93 99 109
140.000 720.000 173.000 78 84 93
140.000 721.000 173.000 79 85 94
141.000 720.000 172.000 83 89 98
141.000 720.000 173.000 79 85 94
141.000 721.000 172.000 85 91 99
141.000 721.000 173.000 79 85 94
140.000 720.000 174.000 81 87 96
140.000 721.000 174.000 82 88 97
140.000 722.000 173.000 79 85 94
140.000 722.000 174.000 80 86 94
135.000 721.000 181.000 77 82 90
134.000 720.000 183.000 78 83 90
134.000 721.000 183.000 77 82 90
135.000 720.000 182.000 76 81 89
135.000 720.000 183.000 76 81 89
135.000 721.000 182.000 76 81 89
135.000 721.000 183.000 77 81 89
135.000 722.000 181.000 74 80 88
135.000 723.000 181.000 81 87 95
134.000 722.000 183.000 75 80 88
134.000 723.000 183.000 75 81 89
135.000 722.000 182.000 75 80 88
135.000 722.000 183.000 75 80 88
135.000 723.000 182.000 77 83 91
135.000 723.000 183.000 76 82 90
135.000 724.000 181.000 91 96 105
134.000 724.000 183.000 77 82 90
135.000 724.000 182.000 85 91 100
133.000 720.000 186.000 71 77 85
133.000 720.000 187.000 70 76 83
133.000 721.000 186.000 72 77 85
133.000 721.000 187.000 71 77 85
133.000 722.000 186.000 72 78 86
133.000 722.000 187.000 73 79 87
133.000 723.000 186.000 71 77 86
133.000 723.000 187.000 73 80 88
134.000 720.000 184.000 75 80 88
134.000 720.000 185.000 73 78 86
134.000 721.000 184.000 76 81 88
134.000 721.000 185.000 74 79 86
134.000 720.000 186.000 71 77 84
134.000 721.000 186.000 73 79 86
134.000 722.000 184.000 74 79 87
134.000 722.000 185.000 72 78 86
134.000 723.000 184.000 73 78 86
134.000 723.000 185.000 72 77 85
134.000 722.000 186.000 73 79 87
134.000 723.000 186.000 71 77 85
133.000 720.000 188.000 70 75 83
133.000 720.000 189.000 71 77 84
133.000 721.000 188.000 72 78 85
133.000 721.000 189.000 73 79 88
133.000 720.000 190.000 70 76 84
133.000 720.000 191.000 69 74 82
133.000 721.000 190.000 74 80 88
133.000 722.000 188.000 77 83 92
133.000 722.000 189.000 77 83 92
133.000 723.000 188.000 80 86 94
133.000 723.000 189.000 79 85 93
132.000 722.000 190.000 86 92 100
132.000 723.000 190.000 87 92 100
132.000 723.000 191.000 85 89 97
133.000 722.000 190.000 81 86 95
133.000 723.000 190.000 84 90 98
133.000 724.000 186.000 68 74 82
133.000 724.000 187.000 71 77 85
133.000 725.000 187.000 69 75 84
134.000 725.000 185.000 71 77 86
134.000 724.000 186.000 69 75 83
134.000 725.000 186.000 71 77 85
133.000 724.000 188.000 77 83 91
133.000 724.000 189.000 75 81 90
133.000 725.000 188.000 69 76 84
133.000 725.000 189.000 71 77 86
132.000 724.000 190.000 76 82 91
132.000 724.000 191.000 80 85 93
132.000 725.000 190.000 69 75 83
132.000 725.000 191.000 70 76 84
133.000 724.000 190.000 78 84 92
132.000 726.000 191.000 67 72 80
137.000 720.000 177.000 81 87 95
137.000 721.000 177.000 80 86 94
136.000 720.000 179.000 77 82 91
136.000 721.000 179.000 75 81 89
137.000 720.000 178.000 80 86 94
137.000 720.000 179.000 78 84 92
137.000 721.000 178.000 78 84 92
137.000 721.000 179.000 76 82 90
137.000 722.000 177.000 80 86 94
137.000 723.000 177.000 79 85 94
136.000 722.000 179.000 75 80 88
136.000 723.000 179.000 77 83 91
137.000 722.000 178.000 78 84 92
137.000 723.000 178.000 77 83 92
138.000 720.000 176.000 88 93 102
138.000 720.000 177.000 83 89 97
138.000 721.000 176.000 90 96 104
138.000 721.000 177.000 82 88 97
138.000 722.000 176.000 87 92 101
138.000 723.000 176.000 82 88 97
136.000 720.000 180.000 77 83 91
136.000 720.000 181.000 77 82 90
136.000 721.000 180.000 76 81 89
136.000 721.000 181.000 76 82 90
136.000 722.000 180.000 75 81 89
136.000 722.000 181.000 75 80 89
147.000 704.000 167.000 77 83 92
147.000 705.000 167.000 80 86 95
147.000 706.000 167.000 87 93 101
147.000 707.000 167.000 87 93 102
147.000 708.000 167.000 83 89 98
147.000 709.000 167.000 82 89 98
146.000 711.000 167.000 81 86 95
147.000 710.000 166.000 82 88 97
147.000 710.000 167.000 81 87 96
147.000 711.000 166.000 81 87 96
147.000 711.000 167.000 81 86 95
151.000 704.000 163.000 95 101 111
151.000 705.000 163.000 90 97 107
151.000 706.000 163.000 89 95 105
151.000 707.000 163.000 87 94 103
149.000 704.000 165.000 88 94 104
149.000 705.000 165.000 90 96 105
148.000 704.000 166.000 78 85 94
148.000 704.000 167.000 77 84 93
148.000 705.000 166.000 84 90 99
148.000 705.000 167.000 82 88 96
149.000 704.000 166.000 83 90 99
149.000 705.000 166.000 88 94 102
149.000 706.000 165.000 92 98 107
149.000 707.000 165.000 87 94 102
148.000 706.000 166.000 90 96 104
148.000 706.000 167.000 88 94 102
148.000 707.000 166.000 86 93 102
148.000 707.000 167.000 87 93 102
149.000 706.000 166.000 92 97 106
149.000 707.000 166.000 87 94 103
150.000 704.000 164.000 97 103 112
150.000 704.000 165.000 93 99 108
150.000 705.000 164.000 93 99 109
150.000 705.000 165.000 92 98 107
150.000 706.000 164.000 92 98 107
150.000 706.000 165.000 92 98 107
150.000 707.000 164.000 89 95 105
150.000 707.000 165.000 88 94 103
151.000 706.000 164.000 90 96 106
151.000 708.000 163.000 86 92 101
151.000 709.000 163.000 82 88 97
150.000 710.000 163.000 78 84 93
150.000 711.000 163.000 78 84 93
151.000 710.000 162.000 77 83 92
151.000 710.000 163.000 78 84 93
151.000 711.000 162.000 78 84 93
151.000 711.000 163.000 78 84 93
149.000 708.000 165.000 83 90 99
149.000 709.000 165.000 81 88 96
148.000 708.000 166.000 82 89 98
148.000 708.000 167.000 83 90 99
148.000 709.000 166.000 83 89 98
149.000 708.000 166.000 82 89 98
149.000 710.000 165.000 80 86 95
149.000 711.000 164.000 77 83 92
149.000 711.000 165.000 78 84 93
148.000 710.000 166.000 82 88 97
148.000 711.000 166.000 80 86 95
150.000 708.000 164.000 85 92 100
150.000 709.000 164.000 82 88 97
150.000 710.000 164.000 78 84 93
150.000 711.000 164.000 77 83 92
145.000 705.000 169.000 77 83 91
144.000 704.000 171.000 80 86 95
144.000 705.000 170.000 77 84 93
144.000 705.000 171.000 77 84 93
145.000 704.000 170.000 80 86 95
145.000 705.000 170.000 77 84 92
145.000 706.000 169.000 78 84 92
145.000 707.000 169.000 79 85 94
144.000 706.000 170.000 78 84 93
144.000 706.000 171.000 78 84 93
144.000 707.000 170.000 79 85 94
144.000 707.000 171.000 79 85 94
145.000 706.000 170.000 77 83 92
145.000 707.000 170.000 78 84 93
146.000 704.000 168.000 77 83 91
146.000 704.000 169.000 77 83 92
146.000 705.000 168.000 77 83 92
146.000 705.000 169.000 77 83 91
147.000 704.000 168.000 77 83 92
147.000 705.000 168.000 79 85 93
146.000 706.000 168.000 83 88 97
146.000 706.000 169.000 80 86 94
146.000 707.000 168.000 84 90 98
146.000 707.000 169.000 81 87 96
147.000 706.000 168.000 85 91 99
147.000 707.000 168.000 86 92 101
145.000 708.000 169.000 79 85 94
145.000 709.000 169.000 81 87 96
144.000 708.000 170.000 81 87 95
144.000 708.000 171.000 80 86 95
144.000 709.000 170.000 83 88 97
144.000 709.000 171.000 83 89 98
145.000 708.000 170.000 79 85 94
145.000 709.000 170.000 81 87 95
144.000 711.000 169.000 83 88 97
145.000 710.000 169.000 82 88 97
145.000 711.000 169.000 84 89 97
144.000 710.000 170.000 84 90 98
144.000 711.000 170.000 83 89 97
146.000 708.000 168.000 80 86 95
146.000 708.000 169.000 79 85 94
146.000 709.000 168.000 80 86 95
146.000 709.000 169.000 79 86 94
147.000 708.000 168.000 82 89 98
146.000 710.000 168.000 81 86 95
146.000 711.000 168.000 82 88 96
146.000 712.000 167.000 82 88 97
146.000 713.000 167.000 86 92 101
147.000 712.000 166.000 81 87 97
147.000 712.000 167.000 81 87 96
147.000 713.000 166.000 86 92 102
147.000 715.000 165.000 87 93 103
146.000 714.000 167.000 89 94 104
146.000 715.000 167.000 84 90 99
147.000 714.000 166.000 90 96 106
147.000 715.000 166.000 87 93 102
145.000 719.000 167.000 83 89 99
147.000 716.000 165.000 83 89 98
147.000 717.000 165.000 81 87 96
146.000 716.000 166.000 82 87 96
146.000 716.000 167.000 81 87 95
146.000 717.000 166.000 81 87 95
146.000 717.000 167.000 81 86 95
147.000 716.000 166.000 82 88 97
147.000 717.000 166.000 81 87 96
147.000 718.000 165.000 83 89 98
147.000 719.000 165.000 84 90 100
146.000 718.000 166.000 82 88 96
146.000 718.000 167.000 81 87 96
146.000 719.000 166.000 84 90 99
146.000 719.000 167.000 84 90 99
147.000 718.000 166.000 82 88 97
147.000 719.000 166.000 84 90 99
150.000 712.000 163.000 79 85 94
150.000 713.000 163.000 81 87 96
151.000 712.000 162.000 80 86 95
151.000 712.000 163.000 79 85 94
151.000 713.000 162.000 84 89 98
151.000 715.000 161.000 91 97 106
150.000 714.000 163.000 82 87 96
150.000 715.000 162.000 83 89 98
150.000 715.000 163.000 82 88 98
151.000 714.000 162.000 85 91 100
151.000 715.000 162.000 87 93 102
148.000 712.000 165.000 79 85 95
148.000 713.000 165.000 83 90 100
149.000 712.000 164.000 78 84 93
149.000 712.000 165.000 78 85 94
149.000 713.000 164.000 82 88 97
149.000 713.000 165.000 83 89 98
148.000 712.000 166.000 80 86 96
148.000 713.000 166.000 81 88 98
148.000 714.000 165.000 89 95 105
148.000 715.000 165.000 86 92 102
149.000 714.000 164.000 84 90 99
149.000 714.000 165.000 86 92 101
149.000 715.000 164.000 84 90 99
150.000 712.000 164.000 78 84 93
150.000 713.000 164.000 80 86 95
149.000 716.000 163.000 81 88 97
149.000 717.000 163.000 82 88 98
149.000 718.000 163.000 83 89 98
149.000 719.000 163.000 84 90 100
151.000 716.000 161.000 87 93 102
151.000 717.000 161.000 87 92 101
150.000 716.000 162.000 82 88 98
150.000 716.000 163.000 82 88 97
150.000 717.000 162.000 83 89 98
150.000 717.000 163.000 82 89 98
151.000 716.000 162.000 85 91 100
151.000 717.000 162.000 83 89 98
151.000 718.000 161.000 84 89 98
151.000 719.000 161.000 81 87 96
150.000 718.000 162.000 82 88 97
150.000 718.000 163.000 82 88 97
150.000 719.000 162.000 83 89 98
150.000 719.000 163.000 83 89 99
151.000 718.000 162.000 82 88 97
148.000 716.000 165.000 84 90 99
148.000 717.000 164.000 83 89 98
148.000 717.000 165.000 82 88 97
149.000 716.000 164.000 82 88 97
149.000 717.000 164.000 83 89 98
148.000 718.000 164.000 84 90 99
148.000 718.000 165.000 84 90 99
148.000 719.000 164.000 85 91 101
148.000 719.000 165.000 85 91 100
149.000 718.000 164.000 84 90 99
149.000 719.000 164.000 84 91 100
144.000 712.000 169.000 82 87 96
144.000 713.000 169.000 82 87 96
145.000 712.000 168.000 84 89 98
145.000 712.000 169.000 84 89 98
145.000 713.000 168.000 84 90 98
145.000 713.000 169.000 83 89 97
144.000 712.000 170.000 81 87 95
144.000 713.000 170.000 81 87 95
144.000 714.000 169.000 82 87 96
144.000 715.000 169.000 82 88 97
145.000 714.000 168.000 82 88 97
145.000 714.000 169.000 82 87 96
145.000 715.000 168.000 81 87 96
145.000 715.000 169.000 80 87 96
144.000 714.000 170.000 82 88 97
144.000 715.000 170.000 85 91 100
146.000 712.000 168.000 83 89 98
146.000 713.000 168.000 86 91 100
146.000 714.000 168.000 85 91 100
144.000 716.000 169.000 80 86 95
144.000 717.000 169.000 78 85 94
145.000 716.000 168.000 79 85 94
145.000 716.000 169.000 79 85 94
145.000 717.000 168.000 80 86 95
144.000 718.000 169.000 80 86 95
144.000 719.000 168.000 85 91 100
144.000 719.000 169.000 83 89 98
145.000 718.000 168.000 81 87 96
145.000 719.000 168.000 83 89 98
153.000 704.000 161.000 83 89 98
153.000 705.000 161.000 81 88 97
152.000 704.000 162.000 86 92 101
152.000 704.000 163.000 89 96 105
152.000 705.000 162.000 84 90 100
152.000 705.000 163.000 86 93 103
153.000 706.000 161.000 83 89 99
153.000 707.000 160.000 83 89 98
153.000 707.000 161.000 82 89 98
152.000 706.000 162.000 85 91 101
152.000 706.000 163.000 87 94 103
152.000 707.000 162.000 84 90 100
154.000 704.000 160.000 81 87 97
154.000 705.000 160.000 81 88 98
154.000 706.000 160.000 83 90 99
154.000 706.000 161.000 82 89 99
154.000 707.000 160.000 84 91 101
154.000 707.000 161.000 83 89 98
153.000 708.000 160.000 83 90 99
153.000 708.000 161.000 83 89 99
153.000 709.000 160.000 82 88 97
153.000 709.000 161.000 81 87 96
152.000 708.000 162.000 84 90 100
152.000 708.000 163.000 85 92 101
152.000 709.000 162.000 81 87 96
152.000 711.000 161.000 79 85 94
153.000 710.000 160.000 80 86 96
153.000 710.000 161.000 79 85 94
153.000 711.000 160.000 80 87 96
153.000 711.000 161.000 79 85 94
152.000 710.000 162.000 77 84 92
152.000 711.000 162.000 78 84 93
154.000 708.000 160.000 87 93 103
154.000 709.000 160.000 84 91 100
154.000 710.000 160.000 83 89 99
154.000 711.000 160.000 82 88 97
152.000 712.000 161.000 80 86 95
152.000 713.000 161.000 83 90 99
153.000 712.000 160.000 80 87 96
153.000 712.000 161.000 80 86 95
153.000 713.000 160.000 82 88 97
153.000 713.000 161.000 83 89 99
152.000 712.000 162.000 79 85 94
152.000 713.000 162.000 84 90 100
152.000 714.000 161.000 86 93 102
152.000 715.000 161.000 91 97 107
153.000 714.000 160.000 83 89 99
153.000 714.000 161.000 83 90 100
153.000 715.000 160.000 88 94 104
154.000 712.000 160.000 81 87 96
154.000 713.000 160.000 81 88 97
154.000 714.000 160.000 82 88 97
154.000 715.000 160.000 81 88 97
152.000 716.000 160.000 93 100 110
152.000 716.000 161.000 93 99 108
152.000 717.000 160.000 92 98 108
152.000 717.000 161.000 92 98 107
153.000 716.000 160.000 89 95 105
152.000 718.000 160.000 89 95 104
152.000 718.000 161.000 87 93 102
152.000 719.000 160.000 86 92 101
152.000 719.000 161.000 83 89 98
153.000 718.000 160.000 88 95 104
145.000 720.000 167.000 85 92 101
145.000 721.000 167.000 85 91 101
147.000 720.000 165.000 85 91 100
147.000 721.000 165.000 84 91 100
146.000 720.000 166.000 85 91 100
146.000 720.000 167.000 85 91 101
146.000 721.000 166.000 84 91 100
146.000 721.000 167.000 84 91 101
147.000 721.000 166.000 84 90 100
149.000 720.000 163.000 84 90 100
149.000 721.000 162.000 86 93 102
150.000 720.000 162.000 83 90 99
148.000 720.000 164.000 85 91 101
148.000 720.000 165.000 85 91 101
149.000 720.000 164.000 84 91 100
144.000 720.000 168.000 87 93 103
144.000 720.000 169.000 87 93 102
144.000 721.000 168.000 89 95 104
144.000 721.000 169.000 90 96 105
145.000 720.000 168.000 87 93 102
145.000 721.000 168.000 86 93 102
144.000 722.000 169.000 92 98 107
161.000 706.000 155.000 72 78 87
161.000 707.000 155.000 73 79 88
162.000 705.000 155.000 73 79 87
162.000 706.000 155.000 73 79 87
162.000 707.000 155.000 72 78 87
163.000 706.000 155.000 78 84 93
163.000 707.000 155.000 76 82 91
160.000 704.000 156.000 77 83 92
160.000 705.000 156.000 74 80 89
161.000 704.000 156.000 76 81 90
161.000 705.000 156.000 74 79 88
160.000 706.000 156.000 75 81 89
160.000 707.000 156.000 74 80 89
161.000 706.000 156.000 73 79 87
161.000 707.000 156.000 74 80 88
162.000 705.000 156.000 73 79 87
160.000 708.000 155.000 75 81 90
160.000 709.000 155.000 74 81 90
161.000 708.000 155.000 72 79 87
161.000 709.000 155.000 72 78 86
160.000 710.000 155.000 74 81 90
160.000 711.000 155.000 75 81 90
161.000 710.000 155.000 73 79 88
161.000 711.000 155.000 75 81 89
162.000 708.000 155.000 72 78 86
162.000 709.000 155.000 73 78 87
163.000 708.000 155.000 73 79 88
163.000 709.000 155.000 73 79 87
162.000 710.000 155.000 74 80 88
162.000 711.000 155.000 76 81 89
163.000 710.000 155.000 73 79 87
163.000 711.000 155.000 74 79 87
160.000 708.000 156.000 75 82 90
164.000 707.000 155.000 84 91 100
164.000 708.000 155.000 76 83 92
164.000 709.000 155.000 74 81 90
165.000 708.000 155.000 85 92 101
165.000 709.000 154.000 80 86 95
165.000 709.000 155.000 81 87 97
164.000 710.000 154.000 72 79 88
164.000 710.000 155.000 73 79 88
164.000 711.000 154.000 73 79 88
164.000 711.000 155.000 73 79 87
165.000 710.000 154.000 76 83 92
165.000 711.000 154.000 73 80 89
166.000 709.000 154.000 85 91 100
166.000 710.000 154.000 79 85 95
166.000 711.000 154.000 73 80 90
167.000 710.000 154.000 76 83 92
160.000 712.000 155.000 75 82 91
160.000 713.000 155.000 77 84 93
161.000 712.000 155.000 76 81 89
162.000 712.000 155.000 76 81 88
163.000 712.000 154.000 76 82 90
163.000 712.000 155.000 75 81 89
168.000 710.000 154.000 76 82 91
134.000 704.000 193.000 82 87 94
134.000 705.000 193.000 72 77 85
135.000 704.000 192.000 86 91 99
135.000 704.000 193.000 86 91 99
135.000 705.000 192.000 77 82 90
135.000 705.000 193.000 80 85 93
134.000 704.000 194.000 73 79 86
134.000 704.000 195.000 69 74 81
134.000 705.000 194.000 69 74 82
134.000 705.000 195.000 67 72 79
134.000 706.000 192.000 67 73 80
134.000 706.000 193.000 68 73 81
134.000 707.000 192.000 68 73 81
134.000 707.000 193.000 68 73 80
135.000 706.000 192.000 68 73 81
134.000 706.000 194.000 67 73 81
134.000 706.000 195.000 67 72 79
134.000 707.000 194.000 67 72 79
134.000 707.000 195.000 67 72 79
134.000 708.000 192.000 68 73 81
134.000 708.000 193.000 68 73 80
134.000 709.000 192.000 72 76 83
134.000 709.000 193.000 72 77 84
134.000 708.000 194.000 68 73 80
134.000 708.000 195.000 68 73 81
134.000 709.000 194.000 72 77 85
134.000 709.000 195.000 72 78 86
134.000 710.000 192.000 73 79 87
134.000 710.000 193.000 78 84 92
134.000 711.000 192.000 73 79 87
134.000 711.000 193.000 76 82 91
134.000 710.000 194.000 80 86 94
134.000 710.000 195.000 79 85 93
134.000 711.000 194.000 81 87 96
134.000 710.000 196.000 76 81 89
133.000 713.000 193.000 82 87 95
133.000 712.000 194.000 82 88 97
133.000 712.000 195.000 84 90 98
133.000 713.000 194.000 80 86 94
133.000 713.000 195.000 81 86 94
133.000 714.000 192.000 73 79 87
133.000 714.000 193.000 73 79 87
133.000 715.000 192.000 67 73 81
133.000 715.000 193.000 67 73 81
133.000 714.000 194.000 72 78 86
133.000 714.000 195.000 74 79 87
133.000 715.000 194.000 66 72 80
133.000 715.000 195.000 67 72 80
134.000 712.000 192.000 73 78 87
133.000 716.000 192.000 66 72 79
133.000 716.000 193.000 67 73 80
133.000 717.000 192.000 68 74 81
133.000 717.000 193.000 68 73 80
133.000 716.000 194.000 67 72 79
133.000 716.000 195.000 66 71 78
133.000 718.000 192.000 68 73 81
133.000 718.000 193.000 68 73 80
132.000 718.000 194.000 67 71 77
132.000 719.000 194.000 67 71 77
131.000 724.000 194.000 65 70 78
131.000 725.000 194.000 64 69 76
131.000 726.000 194.000 64 69 76
131.000 726.000 195.000 62 67 73
132.000 720.000 193.000 66 71 79
132.000 721.000 193.000 67 73 80
132.000 720.000 194.000 67 72 78
132.000 721.000 194.000 67 72 80
132.000 722.000 192.000 72 78 86
132.000 722.000 193.000 68 74 82
132.000 723.000 192.000 78 83 91
132.000 723.000 193.000 68 74 82
132.000 722.000 194.000 67 73 81
132.000 724.000 192.000 75 80 88
132.000 724.000 193.000 68 74 81
132.000 725.000 192.000 68 73 81
132.000 725.000 193.000 68 73 80
132.000 726.000 192.000 66 71 79
