ply
format ascii 1.0
element vertex 1289
property float x
property float y
property float z
property uchar red
property uchar green
property uchar blue
end_header
252.000 567.000 279.000 102 109 121
251.000 568.000 279.000 95 102 113
251.000 569.000 279.000 97 104 116
251.000 570.000 279.000 105 112 123
252.000 568.000 279.000 99 106 118
252.000 569.000 279.000 96 104 116
252.000 570.000 279.000 101 109 121
252.000 571.000 279.000 116 123 134
249.000 570.000 280.000 88 95 106
249.000 571.000 280.000 88 95 106
250.000 568.000 280.000 91 98 108
250.000 569.000 280.000 90 97 108
250.000 570.000 280.000 93 100 111
250.000 571.000 280.000 93 100 111
248.000 573.000 280.000 90 96 107
249.000 572.000 280.000 89 96 106
249.000 573.000 280.000 89 95 105
248.000 574.000 280.000 88 95 105
249.000 574.000 280.000 88 95 104
249.000 575.000 280.000 89 95 105
250.000 572.000 280.000 90 97 108
250.000 573.000 280.000 90 96 106
250.000 574.000 280.000 89 95 105
252.000 576.000 279.000 88 94 104
252.000 577.000 279.000 86 91 101
253.000 577.000 278.000 86 92 102
253.000 577.000 279.000 85 91 101
252.000 578.000 279.000 84 90 100
252.000 579.000 279.000 84 91 101
253.000 578.000 279.000 84 90 99
253.000 579.000 279.000 84 90 100
254.000 577.000 278.000 88 94 104
254.000 577.000 279.000 86 92 102
255.000 577.000 278.000 95 101 111
254.000 578.000 278.000 90 96 105
254.000 578.000 279.000 85 91 100
254.000 579.000 279.000 87 93 102
255.000 578.000 278.000 99 105 115
255.000 579.000 278.000 97 103 113
255.000 579.000 279.000 91 97 107
252.000 580.000 279.000 88 95 106
253.000 580.000 279.000 88 94 104
253.000 581.000 279.000 88 94 104
253.000 582.000 279.000 87 94 103
253.000 583.000 279.000 90 96 105
254.000 580.000 279.000 89 95 104
254.000 581.000 279.000 89 95 104
255.000 580.000 279.000 90 96 105
255.000 581.000 279.000 90 96 106
254.000 582.000 279.000 89 95 105
254.000 583.000 279.000 92 98 108
255.000 582.000 279.000 91 97 106
255.000 583.000 279.000 92 98 107
248.000 579.000 281.000 109 116 127
248.000 580.000 281.000 115 123 135
248.000 581.000 281.000 111 119 131
249.000 581.000 281.000 105 113 126
249.000 582.000 281.000 97 104 115
251.000 580.000 280.000 104 111 123
250.000 583.000 281.000 92 99 109
252.000 581.000 280.000 89 96 106
252.000 582.000 280.000 87 93 103
252.000 583.000 280.000 89 95 104
253.000 582.000 280.000 87 93 103
253.000 583.000 280.000 89 95 105
254.000 583.000 280.000 92 99 109
254.000 584.000 279.000 99 105 115
255.000 584.000 279.000 96 102 112
255.000 585.000 279.000 101 107 117
253.000 584.000 280.000 92 99 109
253.000 585.000 280.000 99 105 115
252.000 587.000 281.000 90 97 108
253.000 586.000 280.000 102 108 118
253.000 587.000 280.000 98 105 115
254.000 584.000 280.000 99 105 116
254.000 585.000 280.000 105 111 121
255.000 585.000 280.000 107 112 123
254.000 586.000 280.000 109 115 125
254.000 587.000 280.000 103 108 119
255.000 586.000 280.000 103 109 119
255.000 587.000 280.000 97 102 111
252.000 588.000 281.000 91 99 111
253.000 588.000 280.000 93 101 112
253.000 589.000 280.000 100 108 119
253.000 589.000 281.000 105 112 124
253.000 590.000 281.000 113 120 131
253.000 591.000 281.000 111 117 128
254.000 588.000 280.000 94 101 111
254.000 589.000 280.000 94 101 112
255.000 588.000 280.000 90 96 106
255.000 589.000 280.000 91 97 107
254.000 590.000 280.000 95 102 112
254.000 590.000 281.000 99 106 117
254.000 591.000 281.000 100 106 117
255.000 590.000 280.000 93 99 110
255.000 590.000 281.000 92 99 109
255.000 591.000 281.000 92 99 110
251.000 597.000 283.000 131 140 154
253.000 592.000 281.000 106 112 122
253.000 593.000 281.000 104 109 119
252.000 593.000 282.000 101 106 116
252.000 594.000 282.000 101 106 115
252.000 595.000 282.000 103 107 115
253.000 594.000 282.000 101 106 115
253.000 595.000 282.000 103 107 115
254.000 592.000 281.000 101 107 118
254.000 593.000 281.000 101 107 118
255.000 592.000 281.000 97 103 114
255.000 593.000 281.000 96 103 114
254.000 594.000 281.000 99 106 116
255.000 594.000 281.000 97 104 115
254.000 594.000 282.000 100 105 116
254.000 595.000 282.000 102 107 116
255.000 594.000 282.000 98 104 115
255.000 595.000 282.000 101 107 118
252.000 596.000 282.000 106 111 122
253.000 596.000 282.000 103 108 117
253.000 597.000 282.000 107 114 125
252.000 598.000 283.000 139 147 161
253.000 598.000 282.000 114 121 134
253.000 598.000 283.000 127 134 148
253.000 599.000 283.000 133 140 153
254.000 596.000 282.000 105 109 118
254.000 597.000 282.000 104 109 119
255.000 596.000 282.000 107 111 120
255.000 597.000 282.000 106 111 120
254.000 598.000 282.000 105 111 121
254.000 599.000 283.000 112 118 128
255.000 598.000 282.000 105 109 118
255.000 599.000 283.000 108 112 121
255.000 600.000 283.000 112 116 126
265.000 575.000 277.000 87 92 100
266.000 575.000 277.000 85 91 99
267.000 574.000 277.000 85 91 101
267.000 575.000 277.000 84 89 98
268.000 574.000 277.000 84 89 98
268.000 575.000 277.000 83 88 97
269.000 574.000 277.000 82 87 96
269.000 575.000 277.000 83 89 97
270.000 573.000 277.000 83 88 96
271.000 573.000 276.000 84 89 98
271.000 573.000 277.000 83 88 96
270.000 574.000 277.000 83 88 96
270.000 575.000 277.000 83 89 97
271.000 574.000 277.000 83 88 96
271.000 575.000 277.000 84 89 98
275.000 567.000 275.000 105 110 121
276.000 567.000 275.000 97 103 113
277.000 567.000 275.000 92 98 108
278.000 567.000 275.000 90 96 105
279.000 566.000 274.000 93 99 109
279.000 567.000 274.000 91 97 106
275.000 568.000 275.000 93 99 109
275.000 569.000 275.000 89 95 104
275.000 570.000 275.000 90 95 104
273.000 570.000 276.000 107 112 121
273.000 571.000 276.000 103 108 117
274.000 570.000 276.000 102 107 116
274.000 571.000 276.000 100 105 114
275.000 570.000 276.000 90 95 104
275.000 571.000 276.000 89 95 104
272.000 572.000 276.000 88 93 101
272.000 573.000 276.000 82 88 96
272.000 573.000 277.000 81 86 94
273.000 572.000 276.000 92 97 106
273.000 573.000 276.000 84 89 98
273.000 573.000 277.000 82 87 95
272.000 574.000 277.000 81 86 95
272.000 575.000 277.000 83 88 97
273.000 574.000 277.000 82 87 95
273.000 575.000 277.000 83 88 96
274.000 572.000 276.000 92 97 105
274.000 573.000 276.000 84 89 97
274.000 573.000 277.000 81 86 94
275.000 572.000 276.000 86 91 100
275.000 573.000 276.000 81 86 94
275.000 573.000 277.000 80 85 93
274.000 574.000 277.000 81 86 94
274.000 575.000 277.000 83 88 96
275.000 574.000 277.000 80 85 93
275.000 575.000 277.000 82 87 95
276.000 568.000 275.000 90 96 105
276.000 569.000 275.000 88 93 102
277.000 568.000 275.000 89 95 104
277.000 569.000 275.000 89 94 103
276.000 570.000 275.000 87 92 101
277.000 570.000 275.000 87 93 101
278.000 568.000 275.000 88 94 103
278.000 569.000 275.000 88 93 102
279.000 568.000 274.000 91 96 105
279.000 568.000 275.000 90 95 104
279.000 569.000 275.000 87 93 102
278.000 570.000 275.000 84 90 99
279.000 570.000 275.000 84 90 99
279.000 571.000 275.000 84 90 99
276.000 570.000 276.000 86 91 100
276.000 571.000 276.000 85 90 99
277.000 570.000 276.000 86 91 100
277.000 571.000 276.000 84 90 99
278.000 571.000 276.000 84 89 99
279.000 571.000 276.000 85 91 100
276.000 572.000 276.000 83 88 97
276.000 573.000 276.000 79 85 94
277.000 572.000 276.000 84 90 99
277.000 573.000 276.000 85 91 100
276.000 574.000 277.000 80 86 95
276.000 575.000 277.000 82 88 97
277.000 574.000 276.000 88 94 104
277.000 574.000 277.000 86 92 102
277.000 575.000 277.000 91 97 107
278.000 572.000 276.000 88 95 104
278.000 573.000 276.000 97 104 114
279.000 572.000 276.000 95 101 111
279.000 573.000 276.000 107 113 124
278.000 574.000 276.000 97 104 114
278.000 574.000 277.000 94 101 111
278.000 575.000 276.000 98 105 115
278.000 575.000 277.000 95 102 113
279.000 574.000 276.000 99 106 117
279.000 575.000 276.000 99 106 117
283.000 563.000 273.000 92 97 107
281.000 565.000 273.000 115 121 131
281.000 565.000 274.000 108 113 123
280.000 566.000 274.000 94 100 110
280.000 567.000 274.000 91 97 107
281.000 566.000 274.000 95 101 110
281.000 567.000 274.000 91 96 105
282.000 564.000 273.000 113 119 129
282.000 565.000 273.000 112 118 127
283.000 564.000 273.000 97 103 112
283.000 565.000 273.000 97 102 112
282.000 566.000 273.000 95 101 110
283.000 566.000 273.000 91 97 106
282.000 566.000 274.000 93 99 108
282.000 567.000 274.000 90 96 105
283.000 567.000 274.000 91 97 106
284.000 563.000 272.000 92 97 107
284.000 563.000 273.000 92 97 107
285.000 562.000 272.000 92 98 108
285.000 563.000 272.000 92 98 108
284.000 564.000 273.000 93 99 108
284.000 565.000 273.000 92 98 108
285.000 564.000 272.000 92 98 108
285.000 564.000 273.000 93 99 109
285.000 565.000 273.000 92 98 108
284.000 566.000 273.000 90 96 106
284.000 567.000 273.000 89 95 105
285.000 566.000 273.000 91 97 106
284.000 567.000 274.000 89 95 104
286.000 564.000 272.000 92 98 108
286.000 565.000 272.000 96 103 113
286.000 565.000 273.000 97 103 112
280.000 568.000 274.000 90 96 104
280.000 568.000 275.000 90 95 104
280.000 569.000 275.000 87 92 101
281.000 568.000 274.000 89 94 103
281.000 569.000 274.000 87 92 101
281.000 569.000 275.000 86 92 100
280.000 570.000 275.000 86 91 100
280.000 571.000 275.000 86 91 100
281.000 570.000 275.000 84 89 98
282.000 568.000 274.000 88 94 102
282.000 569.000 274.000 87 92 100
282.000 569.000 275.000 87 92 100
283.000 568.000 274.000 89 95 104
283.000 569.000 274.000 88 93 102
282.000 570.000 275.000 85 90 99
283.000 570.000 274.000 86 92 101
280.000 572.000 275.000 84 90 100
281.000 572.000 275.000 84 90 99
281.000 573.000 275.000 84 91 100
280.000 572.000 276.000 88 94 103
280.000 573.000 276.000 95 102 112
280.000 574.000 276.000 99 106 117
280.000 575.000 276.000 104 110 121
284.000 568.000 274.000 89 95 104
256.000 577.000 278.000 101 109 120
257.000 577.000 278.000 101 109 120
256.000 578.000 278.000 105 112 123
256.000 579.000 278.000 102 108 119
257.000 578.000 278.000 99 106 117
257.000 579.000 278.000 92 99 109
259.000 577.000 277.000 102 110 121
258.000 577.000 278.000 100 107 118
258.000 578.000 278.000 96 103 114
258.000 579.000 278.000 91 97 108
259.000 578.000 278.000 99 106 117
259.000 579.000 278.000 97 103 114
256.000 580.000 278.000 93 99 109
256.000 580.000 279.000 91 97 107
256.000 581.000 279.000 91 97 106
257.000 580.000 278.000 90 96 106
257.000 581.000 278.000 90 95 104
257.000 581.000 279.000 91 96 105
256.000 582.000 279.000 91 97 106
256.000 583.000 279.000 91 97 106
257.000 582.000 279.000 91 96 105
257.000 583.000 279.000 89 95 104
258.000 580.000 278.000 90 96 105
258.000 581.000 278.000 92 97 105
258.000 581.000 279.000 91 96 105
259.000 580.000 278.000 94 99 109
259.000 581.000 278.000 91 97 106
258.000 582.000 279.000 92 97 106
258.000 583.000 279.000 90 95 104
259.000 582.000 278.000 91 97 106
259.000 582.000 279.000 91 97 106
259.000 583.000 279.000 90 96 106
260.000 577.000 277.000 102 110 121
261.000 577.000 277.000 105 112 123
261.000 578.000 277.000 105 112 123
260.000 578.000 278.000 102 109 120
260.000 579.000 278.000 104 110 120
261.000 578.000 278.000 106 113 123
261.000 579.000 278.000 102 108 118
262.000 576.000 277.000 99 105 116
262.000 577.000 277.000 102 108 118
263.000 576.000 277.000 93 99 108
263.000 577.000 277.000 95 100 110
262.000 578.000 277.000 98 104 115
262.000 578.000 278.000 95 101 112
262.000 579.000 278.000 92 98 108
263.000 578.000 278.000 92 97 107
263.000 579.000 278.000 88 94 104
260.000 580.000 278.000 98 104 113
260.000 581.000 278.000 91 97 107
261.000 580.000 278.000 92 98 108
261.000 581.000 278.000 90 96 106
260.000 582.000 278.000 90 97 107
260.000 582.000 279.000 91 98 108
260.000 583.000 279.000 95 102 112
261.000 582.000 278.000 90 96 107
261.000 582.000 279.000 92 99 109
261.000 583.000 279.000 99 106 116
262.000 580.000 278.000 86 92 101
262.000 581.000 278.000 85 92 101
263.000 580.000 278.000 85 91 100
263.000 581.000 278.000 85 91 100
262.000 582.000 279.000 88 94 104
262.000 583.000 279.000 94 99 109
263.000 582.000 279.000 87 93 102
263.000 583.000 279.000 89 95 104
256.000 584.000 279.000 91 97 107
256.000 585.000 279.000 92 99 109
257.000 584.000 279.000 89 95 105
257.000 585.000 279.000 90 96 106
256.000 586.000 279.000 91 97 107
257.000 586.000 279.000 90 96 106
258.000 584.000 279.000 90 96 105
258.000 585.000 279.000 90 96 106
259.000 584.000 279.000 92 98 108
259.000 585.000 279.000 91 97 107
258.000 586.000 279.000 90 96 106
259.000 586.000 279.000 90 96 106
260.000 584.000 279.000 98 104 115
260.000 585.000 279.000 93 100 109
261.000 584.000 279.000 103 108 119
261.000 585.000 279.000 94 99 109
260.000 586.000 279.000 91 96 106
261.000 586.000 279.000 90 96 105
262.000 584.000 279.000 96 101 110
262.000 585.000 279.000 91 96 105
263.000 584.000 279.000 89 95 103
263.000 585.000 279.000 89 94 103
256.000 586.000 280.000 94 100 109
256.000 587.000 280.000 93 98 108
257.000 586.000 280.000 90 96 106
257.000 587.000 280.000 90 97 106
258.000 586.000 280.000 90 96 106
258.000 587.000 280.000 89 95 105
259.000 586.000 280.000 91 96 105
259.000 587.000 280.000 90 96 105
256.000 588.000 280.000 91 96 106
256.000 589.000 280.000 91 97 107
257.000 588.000 280.000 91 97 106
257.000 589.000 280.000 93 99 108
256.000 590.000 280.000 93 99 109
256.000 590.000 281.000 94 100 110
256.000 591.000 281.000 95 101 112
257.000 590.000 280.000 95 101 111
257.000 590.000 281.000 95 102 112
257.000 591.000 281.000 96 102 113
258.000 588.000 280.000 90 96 105
258.000 589.000 280.000 92 98 107
259.000 588.000 280.000 90 95 104
259.000 589.000 280.000 90 96 105
258.000 590.000 280.000 94 100 110
258.000 590.000 281.000 93 100 110
258.000 591.000 281.000 97 103 114
259.000 590.000 280.000 91 97 107
259.000 590.000 281.000 90 97 107
259.000 591.000 281.000 95 101 111
260.000 586.000 280.000 90 96 105
260.000 587.000 280.000 89 94 104
261.000 586.000 280.000 88 94 103
261.000 587.000 280.000 88 93 102
263.000 585.000 280.000 88 93 102
262.000 586.000 280.000 87 93 102
262.000 587.000 280.000 88 93 102
263.000 586.000 280.000 87 92 101
263.000 587.000 280.000 88 93 102
260.000 588.000 280.000 89 94 103
260.000 589.000 280.000 89 95 104
261.000 588.000 280.000 87 93 102
261.000 589.000 280.000 87 93 102
260.000 590.000 280.000 90 96 105
260.000 590.000 281.000 90 96 105
260.000 591.000 281.000 92 98 108
261.000 590.000 281.000 89 95 104
261.000 591.000 281.000 91 97 106
262.000 588.000 280.000 87 93 102
262.000 589.000 280.000 86 92 102
262.000 589.000 281.000 86 92 102
263.000 588.000 280.000 87 93 102
263.000 589.000 280.000 87 93 102
263.000 589.000 281.000 88 94 103
262.000 590.000 281.000 88 94 103
262.000 591.000 281.000 91 96 106
263.000 590.000 281.000 89 95 105
263.000 591.000 281.000 91 97 107
264.000 576.000 277.000 87 92 101
264.000 577.000 277.000 87 92 101
265.000 576.000 277.000 85 90 99
265.000 577.000 277.000 85 90 99
265.000 577.000 278.000 85 90 99
264.000 578.000 278.000 88 93 102
264.000 579.000 278.000 87 92 102
265.000 578.000 278.000 85 91 99
265.000 579.000 278.000 87 92 100
266.000 576.000 277.000 84 89 98
266.000 577.000 277.000 83 88 97
267.000 576.000 277.000 83 88 97
267.000 577.000 277.000 82 88 96
266.000 577.000 278.000 83 88 97
267.000 577.000 278.000 82 88 97
266.000 578.000 278.000 84 89 98
266.000 579.000 278.000 85 90 99
267.000 578.000 278.000 84 90 99
267.000 579.000 278.000 85 90 99
264.000 580.000 278.000 86 91 100
264.000 581.000 278.000 86 91 100
264.000 581.000 279.000 87 92 101
265.000 580.000 278.000 86 92 100
265.000 581.000 278.000 86 91 100
265.000 581.000 279.000 87 92 100
264.000 582.000 279.000 87 93 102
264.000 583.000 279.000 87 93 102
265.000 582.000 279.000 86 92 100
265.000 583.000 279.000 86 92 101
266.000 580.000 278.000 86 91 99
266.000 581.000 278.000 86 91 99
266.000 581.000 279.000 86 91 99
267.000 580.000 278.000 85 90 99
267.000 580.000 279.000 86 91 100
267.000 581.000 279.000 85 90 99
266.000 582.000 279.000 85 90 99
266.000 583.000 279.000 88 93 103
267.000 582.000 279.000 83 89 98
267.000 583.000 279.000 91 96 106
268.000 576.000 277.000 84 89 98
269.000 576.000 277.000 85 91 100
268.000 577.000 278.000 86 91 100
269.000 577.000 278.000 94 99 108
268.000 578.000 278.000 87 93 102
268.000 579.000 278.000 89 95 104
269.000 578.000 278.000 97 103 112
269.000 579.000 278.000 100 105 115
270.000 576.000 277.000 87 93 102
271.000 576.000 277.000 89 95 104
270.000 577.000 278.000 98 104 114
271.000 576.000 278.000 93 99 109
271.000 577.000 278.000 101 108 118
270.000 578.000 278.000 102 109 119
270.000 579.000 278.000 104 111 121
271.000 578.000 278.000 105 111 122
271.000 579.000 278.000 105 112 122
268.000 580.000 278.000 90 96 105
268.000 580.000 279.000 90 95 104
268.000 581.000 279.000 87 92 101
269.000 580.000 278.000 100 106 115
269.000 580.000 279.000 97 102 111
269.000 581.000 279.000 90 96 104
268.000 582.000 279.000 84 90 99
268.000 583.000 279.000 91 96 105
269.000 582.000 279.000 85 90 99
269.000 583.000 279.000 88 93 102
270.000 580.000 278.000 101 107 117
270.000 580.000 279.000 95 101 111
270.000 581.000 279.000 88 93 102
271.000 580.000 278.000 103 109 119
271.000 580.000 279.000 95 101 111
271.000 581.000 279.000 87 93 103
270.000 582.000 279.000 83 89 98
270.000 583.000 279.000 86 91 100
271.000 582.000 279.000 84 90 99
271.000 583.000 279.000 86 92 101
264.000 584.000 279.000 87 93 102
264.000 585.000 279.000 88 93 102
265.000 584.000 279.000 89 95 104
265.000 585.000 279.000 91 96 104
266.000 584.000 279.000 95 100 109
266.000 585.000 279.000 93 98 107
267.000 584.000 279.000 99 104 114
268.000 584.000 279.000 97 102 111
269.000 584.000 279.000 90 96 105
270.000 584.000 279.000 90 95 104
271.000 584.000 279.000 89 94 103
264.000 585.000 280.000 88 93 101
265.000 585.000 280.000 90 95 103
264.000 586.000 280.000 87 93 101
264.000 587.000 280.000 88 93 102
265.000 586.000 280.000 88 93 102
265.000 587.000 280.000 87 93 103
266.000 585.000 280.000 91 96 105
267.000 585.000 280.000 95 101 110
266.000 586.000 280.000 89 94 103
266.000 587.000 280.000 88 94 105
267.000 586.000 280.000 90 95 105
267.000 587.000 280.000 91 98 108
264.000 588.000 280.000 88 94 104
264.000 589.000 281.000 91 97 106
265.000 588.000 280.000 89 96 106
265.000 588.000 281.000 92 99 109
265.000 589.000 281.000 97 103 113
264.000 590.000 281.000 94 100 110
264.000 591.000 281.000 94 101 111
265.000 590.000 281.000 105 110 120
265.000 591.000 281.000 101 107 117
266.000 588.000 280.000 91 98 109
266.000 588.000 281.000 95 102 113
266.000 589.000 281.000 102 108 119
267.000 588.000 280.000 101 107 118
267.000 588.000 281.000 108 114 125
267.000 589.000 281.000 115 121 132
266.000 590.000 281.000 109 115 125
266.000 591.000 281.000 103 109 120
267.000 590.000 281.000 116 122 133
267.000 591.000 281.000 102 109 120
268.000 584.000 280.000 95 100 110
268.000 585.000 280.000 95 101 110
269.000 584.000 280.000 92 97 106
269.000 585.000 280.000 90 95 105
268.000 586.000 280.000 91 97 106
268.000 587.000 280.000 93 99 110
269.000 586.000 280.000 88 94 103
269.000 587.000 280.000 89 95 105
270.000 585.000 280.000 89 95 104
271.000 585.000 280.000 90 95 104
270.000 586.000 280.000 88 93 102
270.000 587.000 280.000 88 93 103
271.000 586.000 280.000 89 95 104
271.000 587.000 280.000 88 94 103
268.000 588.000 280.000 108 114 124
268.000 588.000 281.000 116 122 132
268.000 589.000 281.000 120 126 137
269.000 588.000 280.000 100 106 116
269.000 589.000 281.000 114 119 130
268.000 590.000 281.000 122 128 139
268.000 591.000 281.000 103 110 121
269.000 590.000 281.000 110 116 127
269.000 591.000 281.000 97 105 116
270.000 588.000 280.000 89 96 106
270.000 589.000 280.000 93 100 111
270.000 589.000 281.000 93 100 111
271.000 588.000 280.000 89 95 105
271.000 589.000 280.000 90 97 107
270.000 590.000 281.000 94 101 112
270.000 591.000 281.000 94 101 111
271.000 590.000 280.000 91 98 108
271.000 590.000 281.000 91 98 108
271.000 591.000 280.000 93 99 109
271.000 591.000 281.000 94 100 110
256.000 592.000 281.000 97 104 114
256.000 593.000 281.000 98 105 116
257.000 592.000 281.000 101 108 118
257.000 593.000 281.000 107 114 126
256.000 594.000 281.000 99 107 118
257.000 594.000 281.000 111 118 130
256.000 594.000 282.000 102 109 120
256.000 595.000 282.000 107 113 124
257.000 594.000 282.000 109 116 128
257.000 595.000 282.000 113 120 131
258.000 592.000 281.000 109 116 126
258.000 593.000 281.000 114 121 132
259.000 592.000 281.000 108 114 124
259.000 593.000 281.000 112 118 128
258.000 594.000 281.000 112 119 130
259.000 594.000 281.000 112 119 130
258.000 594.000 282.000 111 119 131
258.000 595.000 282.000 113 121 133
259.000 594.000 282.000 114 121 132
259.000 595.000 282.000 113 120 132
256.000 596.000 282.000 111 117 127
256.000 597.000 282.000 110 116 126
257.000 596.000 282.000 117 124 135
257.000 597.000 282.000 115 121 132
256.000 598.000 282.000 105 109 119
256.000 599.000 283.000 108 112 120
257.000 598.000 282.000 105 110 120
257.000 598.000 283.000 104 109 118
257.000 599.000 283.000 107 110 118
258.000 596.000 282.000 112 120 132
258.000 597.000 282.000 110 117 128
259.000 596.000 282.000 109 117 129
259.000 597.000 282.000 108 115 126
258.000 598.000 282.000 104 110 120
258.000 598.000 283.000 104 109 118
258.000 599.000 283.000 105 109 117
259.000 598.000 283.000 103 109 120
259.000 599.000 283.000 106 111 120
260.000 592.000 281.000 99 105 115
260.000 593.000 281.000 106 112 123
261.000 592.000 281.000 94 100 110
261.000 593.000 281.000 100 106 117
261.000 593.000 282.000 105 112 123
260.000 594.000 281.000 111 117 128
260.000 594.000 282.000 114 121 132
260.000 595.000 282.000 115 123 135
261.000 594.000 282.000 115 122 134
261.000 595.000 282.000 116 125 138
262.000 592.000 281.000 93 100 110
262.000 593.000 281.000 99 106 116
263.000 592.000 281.000 94 100 110
263.000 593.000 281.000 97 103 113
262.000 593.000 282.000 105 111 122
263.000 593.000 282.000 100 106 117
262.000 594.000 282.000 116 123 135
262.000 595.000 282.000 124 131 144
263.000 594.000 282.000 114 121 131
263.000 595.000 282.000 115 121 134
260.000 596.000 282.000 110 118 131
260.000 597.000 282.000 113 120 132
260.000 597.000 283.000 116 122 134
261.000 596.000 282.000 122 131 144
261.000 597.000 282.000 123 130 143
261.000 597.000 283.000 126 133 145
260.000 598.000 283.000 113 119 130
260.000 599.000 283.000 107 112 122
261.000 598.000 283.000 121 127 139
261.000 599.000 283.000 107 113 124
262.000 596.000 282.000 121 129 141
262.000 597.000 282.000 116 124 137
262.000 597.000 283.000 111 119 131
263.000 596.000 282.000 101 110 122
263.000 597.000 282.000 99 107 119
262.000 598.000 283.000 106 113 125
262.000 599.000 283.000 102 108 120
263.000 598.000 282.000 98 106 118
263.000 598.000 283.000 100 107 119
263.000 599.000 283.000 102 108 119
256.000 600.000 283.000 110 115 125
256.000 601.000 283.000 114 118 127
257.000 600.000 283.000 108 112 121
257.000 601.000 283.000 110 114 123
257.000 602.000 283.000 114 116 124
258.000 600.000 283.000 106 110 118
258.000 601.000 283.000 107 112 122
259.000 600.000 283.000 107 111 120
259.000 601.000 283.000 106 112 123
258.000 602.000 283.000 110 113 123
259.000 602.000 283.000 108 113 123
259.000 603.000 284.000 109 112 121
260.000 600.000 283.000 106 111 121
260.000 601.000 283.000 113 118 130
261.000 600.000 283.000 106 112 122
261.000 601.000 283.000 129 133 144
260.000 602.000 283.000 115 120 131
260.000 603.000 283.000 111 115 124
261.000 602.000 283.000 139 142 152
261.000 603.000 283.000 120 122 131
262.000 600.000 283.000 102 109 119
262.000 601.000 283.000 123 127 137
263.000 600.000 283.000 103 109 119
263.000 601.000 283.000 108 113 123
262.000 602.000 283.000 137 140 150
262.000 603.000 283.000 116 118 126
263.000 602.000 283.000 115 120 130
263.000 603.000 282.000 102 107 117
263.000 603.000 283.000 108 112 121
260.000 603.000 284.000 109 112 121
260.000 604.000 283.000 110 113 122
260.000 605.000 283.000 110 113 122
261.000 604.000 283.000 112 114 122
261.000 605.000 283.000 111 113 121
261.000 606.000 283.000 110 112 121
261.000 607.000 283.000 106 108 116
262.000 604.000 283.000 111 113 120
262.000 605.000 283.000 111 112 120
263.000 604.000 282.000 102 106 115
263.000 604.000 283.000 104 106 115
263.000 605.000 282.000 102 105 113
263.000 605.000 283.000 105 107 115
263.000 607.000 281.000 102 107 116
262.000 606.000 282.000 102 104 112
262.000 606.000 283.000 108 110 118
262.000 607.000 282.000 100 103 110
262.000 607.000 283.000 103 105 113
263.000 606.000 282.000 103 106 114
263.000 607.000 282.000 103 106 115
260.000 604.000 284.000 107 111 120
260.000 605.000 284.000 108 112 121
271.000 594.000 279.000 93 100 110
271.000 595.000 279.000 102 107 118
269.000 598.000 279.000 114 121 133
269.000 599.000 279.000 105 112 124
270.000 596.000 279.000 114 121 133
270.000 597.000 279.000 115 123 135
271.000 596.000 279.000 109 115 127
271.000 597.000 278.000 110 117 128
271.000 597.000 279.000 114 121 134
271.000 598.000 277.000 96 103 114
271.000 599.000 276.000 90 97 107
271.000 599.000 277.000 92 98 109
270.000 598.000 279.000 114 121 133
270.000 599.000 278.000 101 108 120
270.000 599.000 279.000 102 109 121
271.000 598.000 278.000 108 115 126
271.000 599.000 278.000 99 105 116
264.000 592.000 281.000 94 101 111
265.000 592.000 281.000 93 100 110
264.000 593.000 282.000 96 103 113
265.000 593.000 282.000 93 99 109
264.000 594.000 282.000 102 108 119
264.000 595.000 282.000 100 107 118
265.000 594.000 282.000 96 102 112
265.000 595.000 282.000 96 102 112
266.000 592.000 281.000 95 102 112
266.000 593.000 281.000 93 99 109
267.000 592.000 281.000 93 100 110
267.000 593.000 281.000 95 101 111
266.000 593.000 282.000 93 99 109
267.000 594.000 281.000 98 104 114
267.000 595.000 281.000 98 104 114
266.000 594.000 282.000 94 100 110
266.000 595.000 282.000 94 100 110
267.000 594.000 282.000 96 102 112
267.000 595.000 282.000 96 102 112
264.000 596.000 282.000 97 104 115
264.000 597.000 282.000 98 105 116
265.000 596.000 282.000 96 102 112
265.000 597.000 282.000 97 103 114
264.000 598.000 282.000 99 106 117
264.000 598.000 283.000 101 108 120
264.000 599.000 282.000 101 107 118
264.000 599.000 283.000 103 109 120
265.000 598.000 282.000 98 104 114
265.000 599.000 282.000 100 107 117
267.000 596.000 281.000 97 103 114
267.000 597.000 281.000 96 102 113
266.000 596.000 282.000 94 100 111
266.000 597.000 282.000 97 103 113
267.000 596.000 282.000 96 102 113
267.000 597.000 282.000 97 103 114
267.000 598.000 281.000 96 102 113
267.000 599.000 281.000 97 103 114
266.000 598.000 282.000 98 104 115
266.000 599.000 282.000 99 105 116
267.000 598.000 282.000 97 103 114
267.000 599.000 282.000 97 104 115
268.000 592.000 281.000 94 101 112
268.000 593.000 281.000 96 103 113
269.000 592.000 281.000 95 102 113
269.000 593.000 281.000 97 103 114
268.000 594.000 281.000 98 104 114
268.000 595.000 281.000 97 103 114
269.000 594.000 281.000 98 104 115
269.000 595.000 281.000 100 106 117
270.000 592.000 281.000 95 101 112
270.000 593.000 281.000 96 102 112
271.000 592.000 280.000 93 99 109
271.000 592.000 281.000 94 100 110
271.000 593.000 280.000 92 98 108
271.000 593.000 281.000 94 100 111
270.000 594.000 280.000 92 99 109
270.000 594.000 281.000 95 101 112
270.000 595.000 280.000 102 108 119
270.000 595.000 281.000 96 103 114
271.000 594.000 280.000 90 97 107
268.000 596.000 281.000 95 102 114
268.000 597.000 281.000 95 102 114
269.000 596.000 281.000 98 105 117
269.000 597.000 280.000 103 110 123
269.000 597.000 281.000 96 104 116
268.000 598.000 281.000 99 106 117
268.000 599.000 280.000 101 108 119
268.000 599.000 281.000 98 105 116
269.000 598.000 280.000 112 119 131
269.000 599.000 280.000 108 114 126
270.000 596.000 280.000 110 117 128
270.000 597.000 280.000 113 121 133
267.000 603.000 279.000 117 123 135
265.000 607.000 279.000 112 120 133
266.000 605.000 279.000 96 103 114
267.000 604.000 279.000 100 107 119
267.000 605.000 278.000 98 105 116
267.000 605.000 279.000 98 104 116
267.000 607.000 277.000 124 129 140
266.000 606.000 279.000 97 105 116
266.000 607.000 278.000 130 136 148
266.000 607.000 279.000 109 116 129
267.000 606.000 278.000 102 108 120
267.000 606.000 279.000 101 108 120
267.000 607.000 278.000 124 130 142
271.000 601.000 275.000 93 100 111
270.000 602.000 275.000 93 99 110
270.000 603.000 275.000 95 102 113
271.000 602.000 274.000 102 109 120
271.000 602.000 275.000 96 103 114
271.000 603.000 274.000 104 110 121
271.000 603.000 275.000 97 104 115
268.000 601.000 279.000 98 105 116
269.000 600.000 279.000 96 103 114
269.000 601.000 278.000 94 100 110
269.000 601.000 279.000 96 102 113
269.000 602.000 277.000 94 100 110
269.000 603.000 277.000 96 102 112
268.000 602.000 279.000 107 113 124
268.000 603.000 278.000 99 104 115
268.000 603.000 279.000 107 113 124
269.000 602.000 278.000 94 101 111
269.000 602.000 279.000 98 104 115
269.000 603.000 278.000 97 103 113
270.000 600.000 277.000 91 98 108
270.000 601.000 276.000 90 96 107
270.000 601.000 277.000 91 98 108
271.000 600.000 276.000 90 96 106
271.000 600.000 277.000 91 97 107
271.000 601.000 276.000 90 96 107
270.000 600.000 278.000 94 101 111
270.000 600.000 279.000 95 102 113
270.000 601.000 278.000 93 100 110
270.000 602.000 276.000 92 99 109
270.000 602.000 277.000 92 99 109
270.000 603.000 276.000 94 100 111
270.000 603.000 277.000 94 100 111
271.000 602.000 276.000 93 100 111
269.000 605.000 275.000 95 102 113
269.000 606.000 275.000 97 103 114
269.000 607.000 275.000 99 105 115
271.000 604.000 273.000 95 103 114
271.000 605.000 273.000 99 106 117
270.000 604.000 275.000 96 103 114
270.000 605.000 274.000 102 108 120
270.000 605.000 275.000 97 104 115
271.000 604.000 274.000 99 105 117
271.000 604.000 275.000 97 104 115
271.000 605.000 274.000 98 105 117
270.000 607.000 273.000 122 129 142
271.000 606.000 272.000 104 110 121
271.000 606.000 273.000 116 122 134
271.000 607.000 272.000 106 113 125
271.000 607.000 273.000 121 128 140
270.000 606.000 274.000 120 126 138
270.000 606.000 275.000 108 114 125
270.000 607.000 274.000 121 128 140
268.000 604.000 277.000 96 103 114
268.000 605.000 277.000 96 102 114
269.000 604.000 276.000 95 102 113
269.000 604.000 277.000 96 102 113
269.000 605.000 276.000 94 101 112
268.000 604.000 278.000 99 105 115
268.000 604.000 279.000 102 109 120
268.000 605.000 278.000 98 104 115
268.000 606.000 276.000 95 101 111
268.000 606.000 277.000 97 104 115
268.000 607.000 276.000 99 104 113
268.000 607.000 277.000 109 115 125
269.000 606.000 276.000 94 100 110
268.000 606.000 278.000 98 105 116
270.000 604.000 276.000 95 102 113
264.000 600.000 282.000 100 107 118
264.000 600.000 283.000 102 108 119
264.000 601.000 282.000 102 108 119
264.000 601.000 283.000 102 108 118
265.000 600.000 282.000 101 108 119
265.000 601.000 282.000 103 110 121
264.000 602.000 282.000 105 111 121
264.000 603.000 282.000 103 108 118
265.000 602.000 282.000 107 113 124
265.000 603.000 282.000 107 113 123
266.000 601.000 281.000 102 109 121
267.000 600.000 281.000 97 104 115
267.000 601.000 281.000 99 106 118
266.000 600.000 282.000 100 106 117
266.000 601.000 282.000 102 109 120
267.000 600.000 282.000 98 105 116
266.000 602.000 281.000 108 115 126
266.000 603.000 280.000 115 122 134
266.000 603.000 281.000 111 117 129
267.000 602.000 280.000 119 126 138
267.000 602.000 281.000 116 123 135
267.000 603.000 280.000 123 130 142
267.000 603.000 281.000 121 127 139
266.000 602.000 282.000 106 113 124
264.000 605.000 281.000 101 105 114
265.000 604.000 281.000 107 112 123
265.000 605.000 281.000 101 106 116
264.000 604.000 282.000 103 107 117
264.000 605.000 282.000 102 106 115
265.000 604.000 282.000 106 111 121
264.000 606.000 281.000 101 105 115
264.000 607.000 280.000 103 109 121
264.000 607.000 281.000 99 105 116
265.000 606.000 280.000 98 104 115
265.000 606.000 281.000 102 107 117
265.000 607.000 280.000 105 111 123
264.000 606.000 282.000 102 105 114
266.000 604.000 280.000 102 109 121
266.000 604.000 281.000 107 113 124
266.000 605.000 280.000 97 104 115
266.000 605.000 281.000 101 107 118
267.000 604.000 280.000 101 109 121
266.000 606.000 280.000 96 103 114
268.000 600.000 280.000 97 104 115
268.000 600.000 281.000 98 105 116
268.000 601.000 280.000 100 107 118
269.000 600.000 280.000 99 106 117
268.000 602.000 280.000 117 123 135
272.000 576.000 277.000 86 92 101
273.000 576.000 277.000 83 88 97
273.000 577.000 277.000 84 90 100
272.000 577.000 278.000 95 101 111
273.000 577.000 278.000 86 93 102
272.000 578.000 278.000 103 109 120
272.000 579.000 278.000 104 111 121
273.000 578.000 278.000 89 96 105
273.000 579.000 278.000 90 97 107
274.000 576.000 277.000 83 87 95
274.000 577.000 277.000 82 87 95
275.000 576.000 277.000 81 86 94
275.000 577.000 277.000 80 85 93
274.000 577.000 278.000 83 88 96
275.000 577.000 278.000 80 85 93
274.000 578.000 278.000 84 90 98
274.000 579.000 278.000 84 90 99
275.000 578.000 278.000 81 86 94
275.000 579.000 278.000 82 87 96
272.000 580.000 278.000 96 102 112
272.000 580.000 279.000 96 102 111
272.000 581.000 279.000 87 93 102
273.000 580.000 278.000 87 93 102
273.000 581.000 278.000 85 90 99
273.000 581.000 279.000 86 91 99
272.000 582.000 279.000 86 91 100
272.000 583.000 279.000 88 94 102
273.000 582.000 279.000 86 91 100
273.000 583.000 279.000 89 94 103
274.000 580.000 278.000 85 90 98
274.000 581.000 278.000 86 91 99
275.000 580.000 278.000 84 89 98
275.000 581.000 278.000 86 91 100
274.000 582.000 278.000 87 93 102
274.000 582.000 279.000 87 93 102
274.000 583.000 279.000 91 97 106
275.000 582.000 278.000 87 94 104
275.000 583.000 278.000 96 103 114
275.000 583.000 279.000 95 101 111
276.000 576.000 277.000 83 89 98
276.000 577.000 277.000 83 89 98
277.000 576.000 277.000 92 98 108
277.000 577.000 277.000 99 104 113
276.000 578.000 277.000 84 90 99
277.000 578.000 277.000 93 98 107
277.000 579.000 277.000 85 90 99
276.000 578.000 278.000 79 85 94
276.000 579.000 278.000 81 86 95
277.000 579.000 278.000 84 89 98
278.000 576.000 277.000 98 104 114
278.000 577.000 277.000 103 108 118
279.000 576.000 276.000 96 103 114
279.000 576.000 277.000 96 103 114
279.000 577.000 277.000 93 99 110
278.000 578.000 277.000 95 100 109
278.000 579.000 277.000 87 92 101
279.000 578.000 277.000 87 93 102
277.000 580.000 277.000 86 91 100
277.000 581.000 277.000 87 92 101
276.000 580.000 278.000 84 89 98
276.000 581.000 278.000 87 93 102
277.000 580.000 278.000 85 91 99
277.000 581.000 278.000 88 94 103
276.000 582.000 278.000 92 98 108
276.000 583.000 278.000 100 107 117
277.000 582.000 278.000 93 98 108
277.000 583.000 278.000 94 99 110
278.000 580.000 277.000 86 91 100
278.000 581.000 277.000 86 91 100
272.000 584.000 279.000 91 96 105
272.000 585.000 279.000 91 96 105
273.000 584.000 279.000 91 96 106
273.000 585.000 279.000 92 98 107
272.000 586.000 279.000 91 96 106
273.000 586.000 279.000 91 97 108
273.000 587.000 279.000 98 105 116
274.000 584.000 279.000 93 100 111
274.000 585.000 279.000 96 103 114
275.000 584.000 278.000 104 111 123
275.000 584.000 279.000 99 106 118
275.000 585.000 278.000 109 115 126
275.000 585.000 279.000 106 113 124
274.000 586.000 279.000 95 102 113
274.000 587.000 279.000 96 104 116
275.000 586.000 279.000 99 106 117
275.000 587.000 278.000 96 103 114
275.000 587.000 279.000 96 104 115
275.000 591.000 275.000 90 97 108
273.000 589.000 279.000 118 124 135
273.000 590.000 279.000 103 109 120
273.000 591.000 279.000 96 102 112
275.000 589.000 277.000 89 95 106
274.000 588.000 279.000 112 119 130
274.000 589.000 278.000 107 113 125
274.000 589.000 279.000 116 122 133
275.000 588.000 278.000 99 105 117
275.000 588.000 279.000 100 107 118
275.000 589.000 278.000 96 103 114
274.000 591.000 277.000 91 97 108
275.000 590.000 276.000 86 93 104
275.000 590.000 277.000 88 95 106
275.000 591.000 276.000 89 95 106
275.000 591.000 277.000 90 96 107
274.000 590.000 278.000 101 108 118
274.000 590.000 279.000 106 112 123
274.000 591.000 278.000 96 101 111
274.000 591.000 279.000 98 104 114
275.000 590.000 278.000 95 102 112
277.000 584.000 277.000 89 94 103
277.000 585.000 277.000 88 93 102
276.000 584.000 278.000 108 115 126
276.000 585.000 278.000 107 113 124
277.000 584.000 278.000 97 103 113
277.000 585.000 278.000 96 102 112
277.000 586.000 277.000 86 91 101
277.000 587.000 276.000 88 93 103
277.000 587.000 277.000 89 95 104
276.000 586.000 278.000 94 100 110
276.000 587.000 278.000 92 98 109
277.000 586.000 278.000 90 96 107
278.000 585.000 277.000 86 91 100
276.000 589.000 275.000 88 94 104
277.000 588.000 275.000 89 94 104
277.000 589.000 275.000 88 94 103
277.000 591.000 272.000 93 101 112
276.000 590.000 275.000 92 98 108
276.000 591.000 274.000 108 114 125
276.000 591.000 275.000 98 104 115
277.000 590.000 275.000 90 97 107
277.000 591.000 274.000 109 115 126
276.000 588.000 277.000 91 96 106
276.000 589.000 276.000 88 94 104
276.000 589.000 277.000 89 94 104
277.000 588.000 276.000 91 96 105
277.000 589.000 276.000 90 95 105
276.000 588.000 278.000 91 98 108
276.000 590.000 276.000 87 93 103
272.000 585.000 280.000 90 96 105
272.000 586.000 280.000 91 96 106
272.000 587.000 280.000 93 99 109
273.000 586.000 280.000 92 99 109
273.000 587.000 280.000 97 103 114
272.000 588.000 280.000 95 101 111
272.000 589.000 280.000 97 103 114
273.000 588.000 280.000 112 118 129
273.000 589.000 280.000 113 118 129
272.000 590.000 280.000 94 101 112
272.000 591.000 280.000 93 99 110
273.000 590.000 280.000 102 109 120
275.000 595.000 271.000 90 97 108
275.000 596.000 271.000 87 94 104
275.000 597.000 271.000 86 92 102
275.000 598.000 270.000 91 97 107
275.000 598.000 271.000 87 93 103
275.000 599.000 270.000 91 98 108
275.000 599.000 271.000 87 94 103
276.000 593.000 271.000 98 106 118
277.000 592.000 271.000 100 107 118
277.000 593.000 270.000 102 109 119
277.000 593.000 271.000 102 109 120
277.000 595.000 269.000 95 101 111
276.000 594.000 271.000 96 103 114
276.000 595.000 270.000 104 110 120
276.000 595.000 271.000 94 101 112
277.000 594.000 270.000 102 108 118
277.000 594.000 271.000 98 105 116
277.000 595.000 270.000 103 109 120
278.000 593.000 269.000 95 100 111
278.000 592.000 270.000 99 105 115
278.000 593.000 270.000 100 106 117
278.000 594.000 269.000 88 94 104
278.000 595.000 268.000 85 91 100
278.000 595.000 269.000 86 92 102
279.000 594.000 268.000 85 91 100
279.000 595.000 268.000 85 90 99
279.000 597.000 267.000 85 90 99
277.000 596.000 269.000 88 95 105
277.000 597.000 269.000 87 94 104
276.000 596.000 270.000 100 106 117
276.000 596.000 271.000 92 99 109
276.000 597.000 270.000 93 99 109
276.000 598.000 269.000 92 98 108
276.000 599.000 269.000 103 108 117
277.000 598.000 268.000 87 94 104
277.000 598.000 269.000 90 96 105
277.000 599.000 268.000 94 100 109
277.000 599.000 269.000 101 107 116
276.000 598.000 270.000 93 98 108
276.000 599.000 270.000 97 102 112
278.000 596.000 268.000 84 90 100
278.000 597.000 268.000 86 92 101
279.000 596.000 268.000 84 90 98
279.000 597.000 268.000 87 92 101
278.000 598.000 268.000 87 93 103
278.000 599.000 268.000 90 96 106
279.000 598.000 268.000 88 93 102
273.000 603.000 271.000 92 98 108
275.000 601.000 269.000 91 97 108
274.000 600.000 271.000 86 92 102
274.000 601.000 271.000 88 94 104
275.000 600.000 270.000 94 100 110
275.000 600.000 271.000 89 95 105
275.000 601.000 270.000 91 97 107
275.000 601.000 271.000 89 95 105
275.000 602.000 269.000 91 97 107
275.000 603.000 269.000 91 97 107
274.000 602.000 270.000 91 97 107
274.000 602.000 271.000 89 95 104
274.000 603.000 270.000 92 97 107
274.000 603.000 271.000 91 97 107
275.000 602.000 270.000 91 97 107
275.000 603.000 270.000 92 98 108
273.000 604.000 271.000 93 99 109
273.000 605.000 270.000 90 96 107
273.000 605.000 271.000 93 99 109
272.000 606.000 271.000 96 102 113
274.000 604.000 270.000 92 98 108
274.000 604.000 271.000 93 99 109
276.000 600.000 269.000 111 116 125
276.000 601.000 269.000 97 103 113
277.000 600.000 268.000 105 110 120
277.000 600.000 269.000 113 118 127
277.000 601.000 268.000 96 101 111
276.000 600.000 270.000 99 105 114
276.000 602.000 268.000 90 96 106
276.000 602.000 269.000 89 96 106
278.000 600.000 268.000 93 98 108
273.000 595.000 275.000 90 97 107
275.000 593.000 273.000 105 112 125
274.000 593.000 275.000 92 99 110
275.000 592.000 275.000 93 101 112
275.000 593.000 274.000 103 110 122
275.000 593.000 275.000 95 103 115
274.000 595.000 273.000 100 106 117
275.000 594.000 272.000 99 107 119
275.000 594.000 273.000 105 112 124
275.000 595.000 272.000 94 101 113
275.000 595.000 273.000 102 109 120
274.000 594.000 274.000 101 109 120
274.000 594.000 275.000 94 101 113
274.000 595.000 274.000 103 110 121
274.000 595.000 275.000 94 100 111
275.000 594.000 274.000 104 112 123
273.000 593.000 277.000 88 94 104
272.000 592.000 279.000 93 99 109
272.000 593.000 279.000 91 97 107
273.000 592.000 278.000 93 99 108
273.000 592.000 279.000 94 100 109
273.000 593.000 278.000 90 96 105
273.000 593.000 279.000 92 98 107
272.000 595.000 277.000 89 96 106
273.000 594.000 276.000 87 94 105
273.000 594.000 277.000 87 93 104
273.000 595.000 276.000 88 95 106
273.000 595.000 277.000 87 94 104
272.000 594.000 278.000 91 96 106
272.000 594.000 279.000 91 97 107
272.000 595.000 278.000 93 98 109
272.000 595.000 279.000 98 103 114
273.000 594.000 278.000 89 95 105
274.000 592.000 276.000 88 95 105
274.000 592.000 277.000 90 96 106
274.000 593.000 276.000 88 95 106
274.000 593.000 277.000 89 95 105
275.000 592.000 276.000 88 95 106
274.000 592.000 278.000 92 97 107
274.000 594.000 276.000 88 95 106
273.000 596.000 275.000 90 96 107
273.000 597.000 274.000 89 95 104
273.000 597.000 275.000 88 94 104
273.000 598.000 273.000 90 95 104
273.000 599.000 273.000 91 97 106
272.000 598.000 275.000 89 95 105
272.000 599.000 275.000 90 96 106
273.000 598.000 274.000 90 96 105
273.000 598.000 275.000 89 95 105
273.000 599.000 274.000 90 96 105
273.000 599.000 275.000 90 95 105
274.000 596.000 273.000 93 99 110
274.000 597.000 272.000 86 91 101
274.000 597.000 273.000 89 95 105
275.000 596.000 272.000 87 94 104
275.000 597.000 272.000 84 90 100
274.000 596.000 274.000 95 102 112
274.000 596.000 275.000 93 100 110
274.000 597.000 274.000 90 96 106
274.000 598.000 272.000 87 92 102
274.000 598.000 273.000 90 95 104
274.000 599.000 272.000 88 94 104
274.000 599.000 273.000 91 96 106
272.000 596.000 277.000 91 98 109
272.000 597.000 276.000 88 95 106
272.000 597.000 277.000 96 102 113
273.000 596.000 276.000 89 95 106
273.000 597.000 276.000 88 94 104
272.000 596.000 278.000 101 107 118
272.000 597.000 278.000 105 111 122
272.000 598.000 276.000 89 96 106
272.000 598.000 277.000 91 98 109
272.000 599.000 276.000 89 96 107
276.000 592.000 273.000 101 109 121
276.000 593.000 272.000 104 112 124
276.000 593.000 273.000 106 114 126
277.000 592.000 272.000 100 108 120
277.000 592.000 273.000 98 106 118
276.000 592.000 274.000 104 112 123
276.000 592.000 275.000 104 111 122
276.000 593.000 274.000 104 112 124
276.000 594.000 272.000 96 104 116
272.000 592.000 280.000 92 99 109
272.000 593.000 280.000 92 98 108
272.000 601.000 273.000 108 114 125
273.000 600.000 272.000 93 99 108
273.000 600.000 273.000 96 102 112
273.000 601.000 272.000 95 102 112
273.000 601.000 273.000 102 108 119
272.000 600.000 274.000 93 99 110
272.000 600.000 275.000 91 98 108
272.000 601.000 274.000 101 108 119
272.000 601.000 275.000 93 100 111
273.000 600.000 274.000 95 101 112
272.000 602.000 273.000 110 117 128
272.000 603.000 272.000 101 107 118
272.000 603.000 273.000 109 116 127
273.000 602.000 272.000 99 105 115
273.000 602.000 273.000 109 115 126
273.000 603.000 272.000 96 102 113
272.000 602.000 274.000 105 112 123
272.000 603.000 274.000 109 115 126
274.000 600.000 272.000 89 95 105
274.000 601.000 272.000 89 95 106
274.000 602.000 272.000 90 96 106
272.000 600.000 276.000 90 97 107
272.000 604.000 272.000 98 104 115
272.000 604.000 273.000 100 106 117
272.000 605.000 272.000 96 102 113
272.000 605.000 273.000 97 104 115
273.000 604.000 272.000 95 101 111
273.000 605.000 272.000 95 101 111
272.000 606.000 272.000 97 104 115
262.000 609.000 281.000 102 106 114
263.000 608.000 281.000 103 108 118
263.000 609.000 281.000 100 105 116
262.000 608.000 282.000 103 106 115
262.000 609.000 282.000 104 107 115
263.000 608.000 282.000 105 109 118
265.000 608.000 279.000 124 131 146
265.000 609.000 278.000 120 127 139
265.000 609.000 279.000 127 133 146
267.000 608.000 277.000 126 132 144
267.000 609.000 276.000 93 99 110
267.000 609.000 277.000 109 115 128
266.000 608.000 278.000 136 143 156
266.000 608.000 279.000 124 132 146
266.000 609.000 278.000 121 127 140
267.000 608.000 278.000 131 138 150
268.000 608.000 275.000 93 98 108
268.000 609.000 275.000 90 97 107
269.000 608.000 274.000 94 101 113
269.000 608.000 275.000 92 98 109
269.000 609.000 274.000 92 98 108
269.000 609.000 275.000 93 98 109
270.000 608.000 273.000 107 115 127
270.000 608.000 274.000 100 107 120
268.000 608.000 276.000 99 104 114
268.000 608.000 277.000 124 129 139
268.000 609.000 276.000 90 96 107
264.000 608.000 280.000 109 116 127
264.000 608.000 281.000 100 106 118
264.000 609.000 280.000 117 120 131
265.000 608.000 280.000 129 134 149
