ply
format ascii 1.0
element vertex 832
property float x
property float y
property float z
property uchar red
property uchar green
property uchar blue
end_header
98.000 416.000 255.000 44 52 62
98.000 417.000 255.000 45 53 62
99.000 420.000 255.000 47 55 63
99.000 421.000 255.000 45 53 62
98.000 422.000 252.000 45 53 63
99.000 422.000 255.000 46 53 62
99.000 423.000 255.000 45 53 61
99.000 425.000 249.000 45 54 63
99.000 426.000 253.000 46 54 64
99.000 427.000 252.000 47 55 64
100.000 427.000 252.000 47 54 63
100.000 426.000 255.000 46 55 64
100.000 427.000 255.000 46 55 64
101.000 427.000 255.000 47 55 65
100.000 428.000 251.000 46 54 63
100.000 428.000 252.000 47 55 64
101.000 428.000 255.000 46 54 63
101.000 429.000 255.000 45 53 62
100.000 431.000 252.000 45 53 61
101.000 430.000 255.000 45 53 62
101.000 431.000 255.000 46 54 63
102.000 431.000 255.000 47 54 62
101.000 432.000 255.000 45 53 62
101.000 433.000 255.000 44 53 62
102.000 433.000 255.000 44 52 61
102.000 435.000 255.000 45 53 62
102.000 436.000 255.000 45 53 61
102.000 437.000 254.000 44 52 61
100.000 406.000 262.000 45 53 63
101.000 406.000 263.000 45 54 64
103.000 403.000 266.000 47 56 67
101.000 404.000 264.000 45 54 64
101.000 405.000 264.000 45 54 64
102.000 404.000 265.000 45 55 65
102.000 405.000 266.000 45 55 65
103.000 404.000 266.000 46 56 66
103.000 405.000 266.000 45 55 65
103.000 405.000 267.000 45 55 66
102.000 406.000 264.000 46 55 65
102.000 407.000 264.000 45 55 64
99.000 411.000 258.000 46 53 62
100.000 411.000 259.000 44 52 61
100.000 409.000 260.000 44 52 60
101.000 408.000 263.000 44 53 63
101.000 409.000 262.000 44 52 61
101.000 409.000 263.000 45 54 63
100.000 410.000 260.000 44 52 60
100.000 410.000 261.000 45 52 61
100.000 411.000 260.000 44 52 62
100.000 411.000 261.000 45 53 62
101.000 411.000 261.000 44 52 61
101.000 410.000 262.000 44 53 62
101.000 411.000 262.000 44 52 61
102.000 410.000 263.000 45 54 63
102.000 411.000 263.000 44 53 62
100.000 412.000 259.000 44 52 62
101.000 412.000 261.000 45 54 63
101.000 415.000 260.000 45 53 63
102.000 412.000 262.000 44 53 63
102.000 412.000 263.000 44 53 62
103.000 413.000 263.000 45 54 64
102.000 414.000 261.000 44 53 63
102.000 415.000 261.000 44 53 63
102.000 414.000 263.000 44 54 64
103.000 415.000 263.000 45 54 64
102.000 408.000 264.000 45 54 64
102.000 409.000 264.000 45 54 64
103.000 409.000 265.000 45 55 65
103.000 408.000 266.000 45 55 66
102.000 410.000 264.000 46 54 64
102.000 411.000 264.000 46 55 64
103.000 410.000 265.000 46 55 65
103.000 411.000 265.000 46 55 65
106.000 403.000 271.000 48 59 71
107.000 403.000 271.000 48 60 72
104.000 404.000 269.000 46 57 68
104.000 405.000 269.000 46 57 68
105.000 405.000 269.000 47 57 69
105.000 404.000 270.000 48 59 70
105.000 405.000 270.000 47 59 70
106.000 404.000 271.000 49 60 72
106.000 405.000 270.000 47 59 71
107.000 404.000 271.000 48 60 72
106.000 407.000 270.000 47 58 70
107.000 407.000 271.000 48 60 72
108.000 405.000 271.000 47 59 71
108.000 406.000 271.000 47 59 71
104.000 408.000 267.000 46 57 67
104.000 411.000 266.000 46 56 66
105.000 411.000 267.000 46 57 68
107.000 411.000 269.000 47 59 70
107.000 411.000 270.000 47 59 70
104.000 412.000 266.000 45 55 65
104.000 413.000 266.000 44 55 65
105.000 413.000 267.000 46 57 68
104.000 414.000 266.000 45 55 66
105.000 414.000 267.000 46 57 68
106.000 412.000 269.000 46 57 69
107.000 412.000 269.000 47 58 70
107.000 413.000 269.000 47 58 70
107.000 412.000 270.000 46 58 70
108.000 411.000 270.000 47 58 70
108.000 412.000 270.000 46 58 70
108.000 413.000 270.000 47 59 71
109.000 412.000 271.000 48 60 72
109.000 413.000 271.000 48 60 72
108.000 414.000 270.000 49 61 73
108.000 414.000 271.000 49 61 73
108.000 415.000 271.000 49 60 73
107.000 403.000 272.000 48 60 72
108.000 403.000 272.000 49 60 72
108.000 403.000 273.000 49 61 73
109.000 403.000 274.000 51 63 75
111.000 402.000 275.000 54 66 78
111.000 403.000 275.000 53 65 77
108.000 404.000 272.000 50 61 73
108.000 404.000 273.000 51 62 74
108.000 405.000 272.000 49 60 72
108.000 405.000 273.000 50 61 73
109.000 404.000 273.000 52 64 75
108.000 406.000 272.000 48 60 72
108.000 407.000 272.000 49 60 72
109.000 406.000 273.000 50 62 74
109.000 407.000 273.000 50 62 74
111.000 405.000 275.000 52 65 77
111.000 406.000 275.000 53 66 79
111.000 407.000 275.000 54 66 80
111.000 404.000 276.000 55 67 79
111.000 405.000 276.000 54 66 79
109.000 409.000 273.000 48 60 73
108.000 410.000 272.000 48 59 71
109.000 411.000 272.000 48 60 72
111.000 408.000 275.000 53 66 79
111.000 409.000 275.000 54 66 79
110.000 411.000 273.000 49 62 74
111.000 411.000 273.000 49 62 75
110.000 412.000 272.000 49 61 73
110.000 413.000 272.000 49 60 72
111.000 412.000 273.000 50 62 74
111.000 413.000 273.000 50 62 74
117.000 399.000 282.000 58 74 90
123.000 395.000 285.000 64 80 96
120.000 398.000 284.000 65 80 95
121.000 398.000 284.000 61 76 92
122.000 397.000 284.000 60 74 89
122.000 397.000 285.000 60 75 90
123.000 396.000 285.000 62 78 93
123.000 397.000 285.000 61 77 92
122.000 398.000 284.000 61 75 91
122.000 398.000 285.000 61 75 91
122.000 399.000 284.000 62 77 92
122.000 399.000 285.000 62 77 93
123.000 398.000 285.000 62 78 93
123.000 399.000 285.000 64 79 95
124.000 393.000 285.000 63 81 97
124.000 394.000 285.000 62 79 96
124.000 395.000 285.000 60 77 94
125.000 394.000 285.000 63 80 97
125.000 395.000 285.000 61 78 94
125.000 394.000 286.000 64 81 98
125.000 395.000 286.000 64 79 96
124.000 396.000 285.000 60 77 93
124.000 397.000 285.000 59 76 92
125.000 396.000 285.000 59 76 92
125.000 397.000 285.000 60 76 92
125.000 396.000 286.000 63 79 94
125.000 397.000 286.000 64 78 94
124.000 398.000 285.000 60 76 92
124.000 399.000 285.000 60 77 93
125.000 398.000 285.000 60 76 91
125.000 399.000 285.000 61 76 92
125.000 398.000 286.000 64 78 93
125.000 399.000 286.000 66 80 95
126.000 399.000 285.000 66 80 95
126.000 398.000 286.000 62 77 93
126.000 399.000 286.000 61 77 94
112.000 402.000 276.000 55 67 80
114.000 401.000 279.000 57 71 85
115.000 403.000 279.000 58 72 86
112.000 405.000 276.000 54 66 80
113.000 405.000 277.000 54 67 81
112.000 406.000 276.000 54 67 80
112.000 407.000 276.000 55 68 81
113.000 406.000 276.000 54 67 81
113.000 406.000 277.000 55 68 82
113.000 407.000 276.000 55 68 82
113.000 407.000 277.000 54 68 81
114.000 405.000 277.000 54 68 82
114.000 404.000 278.000 55 69 82
114.000 405.000 278.000 55 68 83
115.000 404.000 279.000 55 70 84
115.000 405.000 278.000 54 69 84
115.000 405.000 279.000 55 70 85
114.000 406.000 277.000 56 69 83
114.000 406.000 278.000 55 69 83
115.000 406.000 278.000 54 69 84
115.000 406.000 279.000 55 70 84
115.000 407.000 278.000 54 68 83
115.000 407.000 279.000 54 69 84
116.000 406.000 279.000 55 70 85
116.000 407.000 279.000 56 71 85
119.000 401.000 283.000 58 75 91
119.000 402.000 283.000 57 75 92
119.000 403.000 283.000 60 77 94
116.000 405.000 280.000 55 71 86
117.000 405.000 281.000 56 73 89
116.000 406.000 280.000 55 70 85
117.000 406.000 281.000 59 74 89
117.000 407.000 280.000 58 73 88
118.000 404.000 281.000 59 76 92
118.000 405.000 281.000 57 73 89
118.000 404.000 282.000 60 76 92
118.000 405.000 282.000 58 75 91
118.000 406.000 281.000 56 72 88
118.000 407.000 281.000 59 74 89
119.000 406.000 282.000 58 74 90
119.000 407.000 282.000 61 75 90
113.000 411.000 275.000 53 66 79
112.000 408.000 276.000 54 67 81
113.000 410.000 276.000 53 65 79
114.000 408.000 278.000 55 69 83
115.000 408.000 278.000 56 70 84
115.000 409.000 278.000 56 70 83
114.000 410.000 276.000 54 67 80
114.000 411.000 276.000 53 66 79
115.000 411.000 277.000 55 68 82
115.000 410.000 278.000 55 68 82
113.000 412.000 275.000 53 65 78
115.000 412.000 277.000 52 67 81
114.000 414.000 276.000 52 66 80
116.000 408.000 279.000 57 71 85
116.000 409.000 279.000 57 71 85
117.000 409.000 279.000 57 72 87
116.000 410.000 278.000 56 70 85
116.000 410.000 279.000 57 72 86
116.000 411.000 278.000 58 72 85
116.000 411.000 279.000 59 73 87
117.000 410.000 279.000 57 72 87
117.000 411.000 279.000 59 73 88
116.000 412.000 278.000 55 69 84
116.000 413.000 278.000 52 67 82
117.000 412.000 279.000 56 71 86
117.000 413.000 278.000 54 69 83
117.000 414.000 278.000 54 69 83
117.000 415.000 278.000 54 69 83
118.000 415.000 279.000 58 72 87
117.000 408.000 280.000 59 74 88
117.000 409.000 280.000 58 73 89
118.000 408.000 280.000 59 74 90
118.000 408.000 281.000 61 76 91
118.000 409.000 280.000 59 74 90
118.000 409.000 281.000 60 75 90
119.000 408.000 281.000 62 76 91
119.000 409.000 281.000 60 75 91
119.000 408.000 282.000 63 77 93
119.000 413.000 280.000 59 74 90
121.000 400.000 284.000 63 78 94
121.000 402.000 284.000 62 78 94
121.000 403.000 284.000 61 77 93
122.000 400.000 284.000 62 77 93
122.000 400.000 285.000 61 77 93
122.000 401.000 284.000 63 79 95
122.000 401.000 285.000 61 77 94
123.000 400.000 285.000 63 79 94
123.000 401.000 285.000 61 77 94
122.000 402.000 284.000 60 77 94
122.000 402.000 285.000 60 77 93
122.000 403.000 284.000 62 79 96
123.000 402.000 285.000 61 78 94
123.000 403.000 284.000 60 77 93
123.000 403.000 285.000 61 77 93
121.000 407.000 284.000 60 76 92
122.000 404.000 284.000 62 79 96
122.000 405.000 284.000 60 77 93
123.000 404.000 284.000 61 78 95
123.000 404.000 285.000 60 77 94
123.000 405.000 284.000 57 75 91
123.000 405.000 285.000 59 76 92
122.000 406.000 284.000 60 76 93
122.000 407.000 284.000 61 77 93
123.000 406.000 284.000 59 76 92
123.000 406.000 285.000 60 76 92
123.000 407.000 284.000 59 76 92
123.000 407.000 285.000 59 75 91
124.000 400.000 285.000 62 78 94
124.000 401.000 285.000 62 78 94
125.000 400.000 285.000 62 78 93
125.000 401.000 285.000 61 77 93
124.000 402.000 285.000 63 79 95
124.000 403.000 285.000 62 78 94
125.000 402.000 285.000 60 77 93
125.000 403.000 285.000 61 77 93
126.000 400.000 285.000 65 80 95
126.000 401.000 285.000 64 79 95
126.000 400.000 286.000 60 77 94
126.000 401.000 286.000 60 77 95
126.000 402.000 285.000 63 79 95
126.000 403.000 285.000 62 78 95
126.000 402.000 286.000 60 77 94
126.000 403.000 286.000 61 78 94
124.000 404.000 285.000 61 77 93
124.000 405.000 285.000 62 78 94
125.000 404.000 285.000 61 76 92
125.000 405.000 285.000 59 76 92
124.000 406.000 285.000 61 77 93
124.000 407.000 285.000 62 78 94
125.000 406.000 285.000 59 75 91
125.000 407.000 285.000 59 75 91
126.000 404.000 285.000 61 77 94
126.000 405.000 285.000 59 76 92
126.000 406.000 285.000 58 75 92
126.000 407.000 285.000 58 74 91
127.000 406.000 286.000 55 74 90
120.000 408.000 282.000 61 77 92
121.000 411.000 282.000 62 78 94
122.000 409.000 283.000 59 75 91
122.000 411.000 283.000 62 78 94
122.000 408.000 284.000 63 78 94
122.000 409.000 284.000 61 77 93
123.000 408.000 284.000 61 78 94
123.000 409.000 284.000 58 76 93
122.000 410.000 284.000 59 76 92
122.000 411.000 284.000 64 80 96
123.000 410.000 284.000 56 75 92
123.000 411.000 284.000 61 79 95
120.000 412.000 281.000 62 77 93
120.000 413.000 281.000 61 76 92
121.000 412.000 282.000 64 80 96
121.000 413.000 282.000 65 80 96
120.000 414.000 281.000 62 77 93
120.000 415.000 282.000 62 77 93
121.000 414.000 282.000 67 81 97
122.000 412.000 283.000 66 81 96
123.000 415.000 283.000 69 84 100
122.000 412.000 284.000 67 82 97
123.000 412.000 284.000 66 82 98
123.000 413.000 284.000 66 81 97
123.000 414.000 284.000 68 83 99
123.000 415.000 284.000 68 83 99
124.000 408.000 285.000 64 80 96
124.000 409.000 285.000 58 76 93
125.000 408.000 285.000 63 79 94
125.000 409.000 285.000 60 77 93
124.000 410.000 284.000 54 74 92
124.000 410.000 285.000 59 77 94
124.000 411.000 284.000 61 79 96
124.000 411.000 285.000 65 81 98
125.000 410.000 285.000 60 77 94
126.000 408.000 285.000 62 77 93
126.000 409.000 285.000 59 75 91
127.000 408.000 286.000 62 78 95
126.000 411.000 285.000 63 79 94
124.000 412.000 284.000 66 82 98
124.000 413.000 284.000 64 80 96
124.000 413.000 285.000 65 81 97
124.000 414.000 284.000 65 80 96
124.000 415.000 284.000 66 81 97
125.000 414.000 285.000 67 81 97
125.000 415.000 285.000 68 82 98
99.000 420.000 256.000 46 54 64
99.000 421.000 256.000 45 53 62
100.000 417.000 258.000 45 54 63
101.000 416.000 259.000 45 53 63
101.000 417.000 259.000 44 53 62
100.000 418.000 258.000 45 54 63
101.000 418.000 259.000 44 53 62
101.000 416.000 260.000 45 53 62
101.000 417.000 260.000 44 53 62
102.000 417.000 260.000 44 53 62
103.000 416.000 262.000 43 53 62
103.000 416.000 263.000 44 53 63
102.000 418.000 260.000 44 52 62
102.000 419.000 261.000 43 52 61
103.000 419.000 261.000 43 52 62
103.000 418.000 262.000 44 53 63
103.000 418.000 263.000 45 54 64
103.000 419.000 263.000 44 53 63
100.000 421.000 257.000 46 54 63
100.000 422.000 256.000 46 53 62
100.000 422.000 257.000 45 53 62
100.000 423.000 256.000 45 53 62
102.000 422.000 259.000 43 51 60
102.000 423.000 259.000 44 52 61
102.000 421.000 260.000 45 53 62
103.000 420.000 262.000 44 53 63
103.000 421.000 262.000 45 53 63
103.000 422.000 261.000 44 52 61
103.000 423.000 261.000 44 53 62
100.000 424.000 256.000 46 54 63
101.000 426.000 256.000 45 54 63
101.000 427.000 256.000 46 54 64
102.000 425.000 259.000 44 52 62
102.000 426.000 259.000 45 53 62
103.000 424.000 261.000 44 53 62
103.000 425.000 261.000 44 53 62
103.000 427.000 260.000 46 54 64
101.000 428.000 256.000 46 54 63
101.000 429.000 256.000 45 53 61
102.000 431.000 257.000 45 52 61
103.000 431.000 257.000 45 53 61
103.000 431.000 259.000 44 53 62
104.000 417.000 263.000 45 54 64
104.000 419.000 263.000 45 54 64
104.000 420.000 263.000 45 54 64
104.000 421.000 262.000 45 54 63
104.000 421.000 263.000 44 53 64
104.000 422.000 262.000 45 54 63
104.000 422.000 263.000 45 53 63
104.000 423.000 262.000 45 54 63
104.000 423.000 263.000 45 54 63
105.000 423.000 263.000 45 54 64
105.000 417.000 265.000 46 56 66
104.000 418.000 264.000 47 56 66
104.000 419.000 264.000 45 55 65
105.000 418.000 265.000 46 56 66
105.000 418.000 266.000 45 55 65
105.000 419.000 266.000 44 54 65
106.000 416.000 267.000 46 57 68
106.000 418.000 267.000 45 56 67
106.000 419.000 266.000 44 54 65
106.000 419.000 267.000 43 54 65
104.000 420.000 264.000 45 54 64
105.000 420.000 264.000 44 54 64
105.000 421.000 264.000 44 54 64
105.000 422.000 264.000 44 54 64
105.000 423.000 264.000 44 54 64
105.000 423.000 265.000 44 54 64
106.000 421.000 267.000 45 55 66
106.000 422.000 265.000 44 54 64
106.000 423.000 265.000 43 54 64
106.000 422.000 267.000 46 56 67
106.000 423.000 266.000 44 54 66
107.000 423.000 267.000 46 57 68
107.000 421.000 268.000 46 57 68
108.000 416.000 271.000 48 60 72
109.000 418.000 270.000 50 61 74
108.000 420.000 269.000 47 58 70
108.000 421.000 269.000 47 58 70
108.000 420.000 270.000 48 60 71
109.000 420.000 271.000 49 62 74
109.000 421.000 270.000 49 61 73
109.000 422.000 270.000 49 62 74
110.000 420.000 271.000 49 62 75
110.000 421.000 271.000 51 64 77
104.000 424.000 262.000 45 53 63
104.000 424.000 263.000 45 54 64
104.000 425.000 262.000 45 54 64
104.000 425.000 263.000 44 54 63
105.000 424.000 263.000 45 54 64
105.000 425.000 263.000 45 54 64
104.000 427.000 260.000 46 54 64
104.000 426.000 262.000 45 54 64
104.000 427.000 262.000 45 54 64
105.000 426.000 263.000 45 54 64
105.000 427.000 262.000 45 54 64
105.000 427.000 263.000 45 54 64
104.000 431.000 259.000 44 53 62
104.000 428.000 260.000 45 54 64
104.000 429.000 261.000 44 53 64
105.000 428.000 263.000 45 54 64
105.000 429.000 263.000 44 54 64
104.000 430.000 261.000 45 54 64
104.000 431.000 261.000 45 54 63
105.000 430.000 263.000 45 54 64
105.000 431.000 262.000 45 54 63
105.000 431.000 263.000 45 54 64
105.000 424.000 264.000 45 54 64
105.000 424.000 265.000 44 54 64
105.000 425.000 264.000 45 55 65
105.000 426.000 264.000 45 54 64
105.000 427.000 264.000 44 54 64
106.000 424.000 265.000 44 54 65
106.000 425.000 265.000 44 54 65
106.000 424.000 266.000 44 54 66
106.000 425.000 266.000 45 55 66
107.000 424.000 267.000 45 56 67
106.000 426.000 264.000 44 54 64
106.000 426.000 265.000 44 54 64
106.000 427.000 264.000 44 54 64
106.000 427.000 265.000 44 54 64
107.000 424.000 268.000 47 57 69
107.000 425.000 268.000 46 57 68
107.000 426.000 268.000 47 57 68
107.000 427.000 268.000 47 57 68
105.000 428.000 264.000 45 54 64
105.000 430.000 264.000 46 55 65
105.000 431.000 264.000 45 54 64
106.000 428.000 264.000 44 54 64
106.000 429.000 264.000 44 54 64
107.000 428.000 267.000 47 57 68
106.000 430.000 264.000 45 55 65
106.000 431.000 264.000 44 54 64
106.000 431.000 265.000 44 55 65
107.000 430.000 267.000 49 59 69
107.000 431.000 267.000 48 58 70
107.000 428.000 268.000 49 59 70
107.000 429.000 268.000 50 60 71
107.000 430.000 268.000 50 60 71
108.000 425.000 269.000 46 58 69
109.000 425.000 270.000 47 60 72
108.000 426.000 269.000 47 59 70
108.000 427.000 269.000 47 59 70
109.000 426.000 270.000 49 61 73
109.000 427.000 270.000 49 61 73
110.000 424.000 271.000 49 62 74
110.000 425.000 271.000 49 61 74
110.000 426.000 271.000 50 62 75
110.000 427.000 270.000 49 61 73
110.000 427.000 271.000 50 62 74
111.000 427.000 271.000 51 63 76
108.000 428.000 269.000 51 61 73
108.000 429.000 268.000 51 61 73
109.000 428.000 270.000 50 62 74
108.000 430.000 269.000 51 62 73
108.000 431.000 269.000 50 61 72
109.000 430.000 270.000 50 62 73
110.000 428.000 270.000 51 62 74
110.000 428.000 271.000 50 62 74
110.000 429.000 270.000 52 63 75
110.000 429.000 271.000 52 63 75
111.000 428.000 271.000 50 62 75
110.000 430.000 271.000 52 63 75
111.000 417.000 272.000 49 61 73
111.000 420.000 272.000 50 63 76
111.000 421.000 272.000 53 64 77
111.000 422.000 272.000 53 65 77
111.000 423.000 272.000 52 64 77
111.000 424.000 272.000 52 64 77
111.000 425.000 272.000 51 64 76
111.000 426.000 272.000 52 65 77
111.000 428.000 272.000 50 63 76
111.000 429.000 272.000 52 64 77
111.000 430.000 272.000 52 64 76
111.000 431.000 272.000 51 63 75
102.000 432.000 256.000 44 52 61
102.000 432.000 257.000 44 52 61
102.000 433.000 256.000 44 52 60
103.000 432.000 259.000 45 53 62
103.000 433.000 259.000 46 54 63
102.000 434.000 256.000 45 53 61
102.000 435.000 256.000 45 52 61
103.000 435.000 257.000 46 54 62
103.000 434.000 259.000 47 55 64
102.000 436.000 256.000 44 52 60
103.000 436.000 256.000 45 52 61
103.000 436.000 257.000 46 54 62
103.000 437.000 256.000 44 52 61
103.000 437.000 257.000 44 53 62
103.000 436.000 258.000 48 56 65
103.000 437.000 258.000 47 55 64
103.000 438.000 256.000 43 52 62
103.000 438.000 257.000 46 54 63
104.000 434.000 259.000 46 54 63
104.000 435.000 259.000 47 55 65
104.000 433.000 260.000 44 53 63
104.000 433.000 261.000 44 53 63
105.000 432.000 262.000 45 54 63
105.000 432.000 263.000 44 54 63
105.000 433.000 262.000 45 54 64
105.000 433.000 263.000 45 54 64
104.000 434.000 261.000 45 55 65
104.000 435.000 260.000 47 56 66
104.000 435.000 261.000 47 57 68
105.000 434.000 261.000 45 55 65
105.000 435.000 261.000 47 57 68
105.000 434.000 263.000 46 56 66
105.000 435.000 262.000 47 57 68
104.000 436.000 259.000 48 56 66
104.000 437.000 259.000 48 57 66
104.000 436.000 260.000 49 57 68
104.000 436.000 261.000 48 58 68
104.000 437.000 260.000 50 59 69
105.000 436.000 262.000 48 57 68
106.000 436.000 263.000 47 57 68
105.000 432.000 264.000 44 54 64
105.000 433.000 264.000 45 55 66
105.000 434.000 264.000 46 56 67
106.000 432.000 264.000 44 54 64
106.000 432.000 265.000 45 55 66
106.000 433.000 264.000 45 55 65
106.000 433.000 265.000 46 56 66
107.000 432.000 266.000 48 58 69
107.000 432.000 267.000 49 59 71
107.000 433.000 266.000 51 61 72
107.000 433.000 267.000 51 61 72
106.000 434.000 264.000 47 57 67
106.000 434.000 265.000 47 57 68
106.000 435.000 264.000 47 57 68
106.000 435.000 265.000 48 58 69
107.000 434.000 266.000 50 60 71
108.000 433.000 267.000 51 62 73
108.000 434.000 267.000 49 60 72
108.000 432.000 268.000 50 61 72
108.000 433.000 268.000 50 62 74
108.000 434.000 268.000 49 60 73
111.000 432.000 271.000 50 62 74
111.000 433.000 271.000 51 63 75
110.000 434.000 270.000 50 62 75
111.000 434.000 271.000 50 63 76
115.000 419.000 276.000 52 66 81
112.000 420.000 273.000 52 65 79
112.000 421.000 273.000 51 65 78
113.000 421.000 274.000 52 65 79
112.000 422.000 272.000 51 64 77
112.000 422.000 273.000 51 65 79
113.000 422.000 274.000 52 65 79
114.000 420.000 275.000 51 65 79
115.000 421.000 275.000 51 65 79
115.000 422.000 275.000 51 65 79
115.000 420.000 276.000 52 66 80
115.000 421.000 276.000 53 66 80
115.000 423.000 276.000 50 64 78
117.000 416.000 279.000 57 71 86
117.000 417.000 279.000 56 71 86
117.000 418.000 278.000 56 70 84
118.000 418.000 279.000 57 72 87
119.000 419.000 279.000 59 74 89
116.000 420.000 277.000 53 67 81
116.000 421.000 276.000 54 68 81
117.000 420.000 277.000 54 68 82
117.000 421.000 277.000 54 68 82
116.000 422.000 276.000 54 67 80
118.000 420.000 278.000 56 70 84
118.000 421.000 278.000 57 71 85
118.000 421.000 279.000 57 71 86
119.000 420.000 279.000 58 73 88
119.000 421.000 279.000 58 73 88
118.000 422.000 278.000 56 70 85
118.000 422.000 279.000 57 71 86
118.000 423.000 278.000 55 69 84
119.000 422.000 279.000 58 73 88
119.000 423.000 279.000 57 72 88
118.000 416.000 280.000 59 73 88
112.000 424.000 273.000 52 65 78
112.000 425.000 273.000 51 65 78
113.000 425.000 273.000 51 65 79
113.000 424.000 274.000 49 64 78
113.000 425.000 274.000 52 66 80
112.000 426.000 272.000 53 66 78
112.000 426.000 273.000 53 66 79
112.000 427.000 272.000 52 65 78
112.000 427.000 273.000 52 65 78
113.000 426.000 273.000 53 66 80
113.000 427.000 273.000 52 65 78
113.000 426.000 274.000 53 67 80
113.000 427.000 274.000 52 66 79
114.000 424.000 274.000 50 64 79
114.000 424.000 275.000 48 63 78
114.000 425.000 274.000 52 66 80
115.000 424.000 275.000 50 64 78
115.000 425.000 275.000 53 66 80
114.000 426.000 274.000 53 67 81
114.000 427.000 274.000 51 65 79
115.000 426.000 275.000 53 67 81
115.000 427.000 275.000 50 65 79
115.000 424.000 276.000 52 66 80
115.000 425.000 276.000 53 67 81
112.000 428.000 272.000 50 63 76
112.000 428.000 273.000 52 64 77
112.000 429.000 273.000 52 65 78
113.000 428.000 273.000 52 65 78
112.000 430.000 273.000 53 65 77
113.000 431.000 273.000 51 64 77
114.000 428.000 274.000 52 65 78
114.000 429.000 274.000 52 65 79
115.000 428.000 275.000 50 64 78
115.000 429.000 275.000 52 65 79
114.000 431.000 273.000 50 64 78
114.000 430.000 274.000 51 65 79
114.000 431.000 274.000 50 64 78
115.000 430.000 275.000 52 65 79
116.000 424.000 276.000 52 66 80
116.000 425.000 276.000 54 67 81
117.000 424.000 277.000 55 69 82
117.000 425.000 277.000 54 69 83
116.000 426.000 276.000 53 67 81
116.000 427.000 276.000 51 65 79
117.000 426.000 277.000 53 68 82
117.000 427.000 276.000 52 66 80
117.000 427.000 277.000 52 67 81
118.000 424.000 277.000 55 69 84
118.000 425.000 277.000 55 69 83
118.000 424.000 278.000 55 70 84
118.000 425.000 278.000 55 70 85
119.000 424.000 279.000 57 72 88
119.000 425.000 279.000 57 72 87
118.000 426.000 277.000 55 69 83
118.000 426.000 278.000 56 70 84
118.000 427.000 278.000 55 69 83
119.000 426.000 278.000 57 71 85
119.000 426.000 279.000 57 71 86
119.000 427.000 278.000 56 70 84
119.000 427.000 279.000 57 72 86
116.000 428.000 276.000 51 64 78
116.000 429.000 276.000 52 65 78
117.000 428.000 277.000 53 67 81
117.000 429.000 277.000 51 66 80
116.000 430.000 276.000 52 65 78
116.000 431.000 276.000 53 66 80
117.000 430.000 277.000 52 66 80
117.000 431.000 276.000 53 67 81
118.000 428.000 278.000 55 69 82
118.000 429.000 278.000 54 68 82
119.000 428.000 278.000 56 70 84
119.000 428.000 279.000 58 71 85
119.000 429.000 278.000 56 69 83
119.000 429.000 279.000 57 71 85
118.000 430.000 277.000 53 67 81
118.000 430.000 278.000 55 69 83
118.000 431.000 278.000 55 69 83
119.000 430.000 278.000 56 70 84
119.000 431.000 278.000 56 71 85
120.000 423.000 279.000 58 74 90
121.000 417.000 281.000 64 79 94
121.000 416.000 282.000 63 79 94
121.000 417.000 282.000 64 80 95
120.000 419.000 280.000 62 76 91
121.000 418.000 281.000 65 80 95
123.000 416.000 283.000 68 83 100
120.000 420.000 280.000 61 75 90
121.000 421.000 281.000 59 75 91
120.000 422.000 280.000 58 74 90
120.000 423.000 280.000 58 74 90
121.000 422.000 280.000 59 75 90
121.000 422.000 281.000 59 76 92
121.000 423.000 280.000 58 75 91
121.000 423.000 281.000 59 76 92
122.000 420.000 282.000 61 77 94
122.000 421.000 282.000 60 77 93
123.000 421.000 283.000 62 79 96
122.000 423.000 281.000 61 77 94
122.000 422.000 282.000 61 78 94
122.000 423.000 282.000 64 80 96
123.000 422.000 283.000 64 81 98
123.000 423.000 282.000 65 81 98
123.000 423.000 283.000 65 81 98
124.000 416.000 284.000 65 81 97
124.000 417.000 284.000 62 79 95
125.000 416.000 285.000 66 81 96
125.000 417.000 284.000 62 78 95
125.000 419.000 285.000 65 82 98
126.000 416.000 285.000 64 80 96
124.000 421.000 283.000 63 79 96
124.000 422.000 283.000 65 81 98
124.000 423.000 283.000 67 83 99
124.000 420.000 284.000 64 80 97
124.000 421.000 284.000 63 80 97
125.000 420.000 284.000 63 80 97
125.000 420.000 285.000 64 81 98
125.000 421.000 284.000 65 82 99
125.000 422.000 284.000 68 84 100
125.000 423.000 284.000 68 84 101
126.000 420.000 285.000 64 81 98
126.000 421.000 285.000 67 83 99
126.000 422.000 285.000 67 83 100
126.000 423.000 284.000 68 84 101
126.000 423.000 285.000 67 84 100
120.000 424.000 279.000 58 74 90
120.000 425.000 279.000 59 74 90
120.000 426.000 279.000 57 73 88
120.000 427.000 279.000 58 73 88
120.000 428.000 279.000 57 72 87
120.000 429.000 279.000 57 71 86
120.000 430.000 279.000 57 72 86
120.000 431.000 279.000 57 72 87
121.000 430.000 279.000 57 73 89
121.000 431.000 279.000 57 73 89
120.000 424.000 280.000 58 74 90
120.000 425.000 280.000 58 74 90
121.000 424.000 280.000 59 76 92
121.000 425.000 280.000 60 76 92
120.000 426.000 280.000 58 74 89
121.000 426.000 280.000 59 75 91
121.000 427.000 280.000 58 74 90
122.000 424.000 281.000 61 78 94
122.000 424.000 282.000 65 80 96
123.000 424.000 282.000 67 83 99
122.000 426.000 281.000 61 77 93
122.000 427.000 280.000 60 77 93
122.000 427.000 281.000 60 77 93
123.000 426.000 282.000 64 80 96
123.000 427.000 282.000 63 79 95
121.000 428.000 280.000 57 73 89
121.000 429.000 280.000 58 74 90
121.000 430.000 280.000 57 74 90
121.000 431.000 280.000 57 74 90
122.000 428.000 280.000 59 76 93
122.000 428.000 281.000 60 76 93
122.000 429.000 281.000 60 77 93
123.000 429.000 281.000 61 77 93
123.000 428.000 282.000 61 78 94
123.000 429.000 282.000 62 78 94
122.000 430.000 280.000 58 75 91
124.000 425.000 282.000 67 83 99
124.000 426.000 283.000 63 80 96
124.000 427.000 283.000 62 78 95
125.000 426.000 283.000 65 81 97
125.000 427.000 283.000 64 80 96
125.000 424.000 284.000 69 84 101
125.000 425.000 284.000 68 83 100
126.000 424.000 284.000 69 85 101
126.000 424.000 285.000 69 85 100
126.000 425.000 284.000 67 82 98
127.000 425.000 285.000 64 79 95
126.000 426.000 284.000 65 81 97
126.000 427.000 284.000 66 81 96
127.000 426.000 285.000 63 79 95
127.000 427.000 285.000 65 79 95
124.000 428.000 283.000 63 79 95
124.000 429.000 283.000 64 80 96
125.000 428.000 283.000 65 80 96
125.000 428.000 284.000 64 79 95
126.000 428.000 284.000 66 80 96
127.000 428.000 285.000 65 79 95
112.000 433.000 272.000 51 63 76
113.000 432.000 273.000 51 64 77
113.000 433.000 273.000 52 65 78
112.000 434.000 272.000 50 63 76
114.000 432.000 273.000 52 65 78
114.000 433.000 273.000 53 66 79
114.000 432.000 274.000 51 65 79
114.000 433.000 274.000 52 66 80
115.000 432.000 275.000 52 66 80
115.000 433.000 274.000 53 66 80
115.000 433.000 275.000 53 67 81
119.000 432.000 278.000 57 71 85
120.000 432.000 279.000 58 73 87
120.000 433.000 279.000 58 73 88
121.000 432.000 279.000 57 73 89
129.000 425.000 286.000 58 75 92
129.000 426.000 286.000 59 75 91
128.000 428.000 285.000 62 77 92
