ply
format ascii 1.0
element vertex 489
property float x
property float y
property float z
property uchar red
property uchar green
property uchar blue
end_header
166.000 619.000 269.000 71 75 82
164.000 622.000 264.000 74 79 88
164.000 623.000 264.000 71 77 84
165.000 621.000 268.000 78 84 91
165.000 622.000 268.000 81 86 93
167.000 622.000 272.000 71 75 82
167.000 622.000 273.000 69 74 80
167.000 623.000 272.000 71 76 83
168.000 618.000 272.000 74 78 84
169.000 618.000 273.000 73 77 83
169.000 619.000 273.000 77 80 86
169.000 619.000 274.000 78 82 89
170.000 618.000 276.000 73 78 85
170.000 619.000 276.000 81 86 93
171.000 618.000 276.000 71 76 83
171.000 618.000 277.000 70 75 81
171.000 619.000 277.000 72 77 85
171.000 618.000 278.000 70 75 82
171.000 619.000 278.000 72 77 84
169.000 620.000 274.000 84 88 95
169.000 621.000 275.000 85 90 99
168.000 622.000 273.000 69 74 81
168.000 623.000 275.000 76 81 89
170.000 620.000 275.000 86 91 99
170.000 621.000 275.000 84 90 99
169.000 622.000 276.000 84 89 97
169.000 623.000 276.000 79 84 92
169.000 623.000 277.000 83 88 96
170.000 620.000 276.000 86 91 99
170.000 620.000 277.000 84 89 97
170.000 621.000 276.000 87 92 101
171.000 620.000 277.000 78 83 91
171.000 621.000 277.000 84 89 97
171.000 620.000 278.000 75 80 87
171.000 620.000 279.000 77 81 88
171.000 621.000 278.000 81 85 92
171.000 621.000 279.000 79 83 90
170.000 622.000 276.000 88 93 100
170.000 622.000 277.000 87 92 100
170.000 623.000 277.000 83 87 95
170.000 622.000 278.000 87 91 97
170.000 623.000 278.000 83 87 94
171.000 622.000 278.000 84 87 94
172.000 616.000 278.000 74 78 85
172.000 617.000 278.000 73 78 85
172.000 617.000 279.000 74 79 86
172.000 618.000 278.000 71 76 83
172.000 618.000 279.000 73 77 84
172.000 619.000 279.000 73 77 84
172.000 620.000 279.000 77 81 88
171.000 623.000 280.000 83 86 93
173.000 617.000 280.000 82 86 93
172.000 619.000 280.000 79 83 90
173.000 618.000 280.000 83 88 95
173.000 618.000 281.000 87 92 100
173.000 619.000 280.000 86 90 97
173.000 619.000 281.000 90 94 102
174.000 617.000 281.000 88 93 102
175.000 617.000 282.000 92 98 108
172.000 620.000 280.000 79 83 90
172.000 621.000 280.000 81 84 91
173.000 620.000 281.000 85 89 97
173.000 621.000 281.000 81 86 93
172.000 622.000 280.000 82 85 91
173.000 622.000 281.000 80 84 91
174.000 620.000 282.000 85 90 99
174.000 621.000 282.000 82 87 95
175.000 620.000 283.000 89 93 102
175.000 621.000 283.000 84 89 97
174.000 622.000 282.000 80 85 94
175.000 622.000 283.000 85 89 97
163.000 628.000 263.000 68 72 79
163.000 629.000 263.000 68 73 80
162.000 630.000 265.000 75 77 81
162.000 631.000 265.000 77 79 84
162.000 631.000 266.000 77 80 86
162.000 631.000 267.000 78 81 86
163.000 630.000 267.000 76 79 85
163.000 630.000 268.000 77 80 86
163.000 630.000 269.000 75 79 85
163.000 631.000 268.000 76 80 85
163.000 631.000 269.000 75 79 86
163.000 631.000 270.000 74 78 86
164.000 624.000 264.000 69 73 80
164.000 625.000 264.000 71 74 80
164.000 626.000 264.000 69 72 79
165.000 624.000 269.000 71 76 83
165.000 627.000 271.000 72 75 81
164.000 628.000 265.000 68 72 79
164.000 628.000 269.000 75 78 83
165.000 628.000 271.000 77 79 85
164.000 630.000 271.000 75 79 86
164.000 631.000 271.000 75 79 86
161.000 632.000 265.000 78 82 89
161.000 633.000 265.000 79 84 91
161.000 633.000 266.000 79 84 92
161.000 634.000 265.000 77 82 90
160.000 635.000 266.000 74 79 87
161.000 634.000 266.000 77 82 90
161.000 634.000 267.000 77 82 90
161.000 635.000 266.000 75 80 88
161.000 635.000 267.000 76 80 88
162.000 632.000 266.000 81 84 90
162.000 632.000 267.000 80 83 90
162.000 633.000 266.000 81 86 94
161.000 635.000 268.000 77 81 88
162.000 632.000 268.000 78 82 90
162.000 633.000 268.000 77 83 91
162.000 633.000 269.000 77 83 91
163.000 632.000 269.000 75 80 88
163.000 632.000 270.000 74 79 87
163.000 632.000 271.000 74 79 86
163.000 633.000 270.000 76 81 89
163.000 633.000 271.000 76 81 88
162.000 634.000 268.000 76 81 88
162.000 634.000 269.000 76 81 89
162.000 635.000 268.000 76 81 88
162.000 634.000 270.000 77 83 90
162.000 635.000 270.000 78 83 91
163.000 634.000 271.000 79 84 91
163.000 635.000 271.000 81 86 93
160.000 636.000 266.000 76 81 87
160.000 636.000 267.000 77 82 88
160.000 637.000 266.000 76 80 87
160.000 637.000 267.000 77 81 88
161.000 636.000 267.000 78 83 90
161.000 636.000 268.000 78 82 90
161.000 636.000 269.000 78 83 90
161.000 637.000 268.000 79 83 90
161.000 637.000 269.000 80 84 91
160.000 639.000 269.000 83 87 93
161.000 638.000 269.000 82 86 93
161.000 638.000 270.000 83 87 94
165.000 627.000 272.000 73 76 81
166.000 624.000 272.000 70 74 81
166.000 625.000 272.000 68 73 80
166.000 626.000 272.000 69 72 78
166.000 627.000 272.000 71 73 78
167.000 626.000 274.000 78 80 86
167.000 627.000 275.000 78 83 89
167.000 627.000 276.000 79 83 91
165.000 628.000 272.000 78 81 86
165.000 629.000 272.000 81 85 91
165.000 629.000 273.000 82 85 93
164.000 630.000 272.000 75 79 86
164.000 631.000 272.000 75 80 87
165.000 630.000 273.000 76 81 89
165.000 631.000 273.000 76 81 88
165.000 631.000 274.000 77 82 90
166.000 629.000 274.000 80 84 91
167.000 628.000 275.000 78 82 89
167.000 629.000 275.000 79 83 90
166.000 630.000 274.000 78 83 91
166.000 631.000 275.000 79 84 92
167.000 628.000 276.000 80 84 92
167.000 629.000 276.000 79 84 91
166.000 630.000 276.000 81 85 92
166.000 631.000 276.000 84 88 95
167.000 630.000 276.000 81 86 93
167.000 631.000 276.000 86 89 96
167.000 631.000 277.000 87 91 98
163.000 633.000 272.000 78 82 89
163.000 634.000 272.000 82 86 93
163.000 635.000 272.000 83 87 95
162.000 637.000 272.000 82 87 95
163.000 636.000 272.000 82 87 95
163.000 637.000 272.000 84 89 97
163.000 637.000 273.000 85 90 97
162.000 638.000 272.000 84 89 96
162.000 639.000 272.000 83 88 96
163.000 638.000 272.000 86 91 98
164.000 632.000 272.000 74 79 87
164.000 632.000 273.000 75 80 87
164.000 633.000 272.000 76 81 88
164.000 633.000 273.000 76 81 88
165.000 632.000 273.000 76 81 88
165.000 633.000 273.000 75 80 87
165.000 632.000 274.000 78 83 90
165.000 632.000 275.000 80 85 92
165.000 633.000 274.000 78 83 90
165.000 633.000 275.000 82 86 93
164.000 634.000 273.000 80 85 92
164.000 635.000 273.000 82 87 94
165.000 634.000 274.000 77 83 91
165.000 634.000 275.000 78 84 92
165.000 635.000 275.000 78 83 92
166.000 632.000 275.000 80 85 93
166.000 633.000 275.000 83 88 95
165.000 635.000 276.000 79 84 92
166.000 632.000 276.000 86 90 98
166.000 633.000 276.000 85 89 97
167.000 632.000 277.000 87 91 99
167.000 633.000 277.000 85 89 97
167.000 632.000 278.000 83 89 97
167.000 633.000 278.000 84 89 97
166.000 634.000 276.000 81 85 93
166.000 635.000 276.000 81 86 93
167.000 634.000 277.000 84 88 95
167.000 634.000 278.000 84 88 96
167.000 635.000 278.000 84 88 96
164.000 636.000 273.000 83 88 95
164.000 636.000 275.000 81 86 94
164.000 637.000 275.000 83 88 96
165.000 636.000 275.000 80 85 93
164.000 638.000 274.000 85 89 97
164.000 638.000 275.000 83 88 96
164.000 639.000 275.000 84 88 96
165.000 636.000 276.000 80 86 94
165.000 639.000 277.000 87 93 102
166.000 636.000 276.000 79 85 93
166.000 637.000 277.000 89 94 103
166.000 636.000 278.000 82 87 95
166.000 637.000 278.000 89 94 103
167.000 636.000 278.000 82 86 94
167.000 637.000 278.000 90 96 104
166.000 638.000 277.000 95 100 109
166.000 639.000 277.000 99 104 113
166.000 638.000 278.000 103 108 118
167.000 638.000 278.000 102 108 117
168.000 624.000 275.000 74 78 85
168.000 625.000 275.000 74 77 84
168.000 626.000 275.000 76 80 86
168.000 624.000 276.000 75 79 86
168.000 625.000 276.000 76 80 87
169.000 624.000 276.000 76 81 88
169.000 624.000 277.000 81 85 93
169.000 625.000 277.000 80 84 91
169.000 625.000 278.000 82 87 95
168.000 626.000 276.000 79 83 89
168.000 627.000 276.000 79 84 92
168.000 627.000 277.000 80 85 92
169.000 627.000 277.000 79 84 92
169.000 626.000 278.000 81 86 95
169.000 627.000 278.000 82 87 95
170.000 624.000 278.000 81 86 93
170.000 624.000 279.000 80 85 92
170.000 625.000 278.000 84 89 97
170.000 625.000 279.000 85 89 97
170.000 626.000 279.000 88 92 100
170.000 627.000 279.000 92 97 105
168.000 628.000 277.000 82 86 94
168.000 629.000 277.000 84 88 96
169.000 628.000 278.000 83 88 95
168.000 630.000 277.000 86 90 98
168.000 631.000 277.000 89 93 100
168.000 630.000 278.000 91 95 103
168.000 631.000 278.000 93 97 105
169.000 630.000 278.000 88 92 99
169.000 630.000 279.000 93 97 105
169.000 631.000 279.000 100 103 112
171.000 624.000 280.000 81 85 92
171.000 625.000 280.000 86 91 99
171.000 626.000 280.000 93 97 105
170.000 628.000 280.000 89 93 100
170.000 629.000 280.000 88 92 100
170.000 630.000 280.000 89 93 100
170.000 631.000 280.000 91 95 104
170.000 631.000 281.000 88 93 101
171.000 630.000 281.000 87 92 100
171.000 631.000 281.000 88 93 101
172.000 625.000 281.000 87 91 98
173.000 624.000 282.000 88 92 99
173.000 625.000 282.000 88 93 101
173.000 626.000 282.000 88 93 101
174.000 626.000 283.000 88 94 103
174.000 627.000 283.000 88 93 102
175.000 627.000 284.000 92 98 108
172.000 629.000 282.000 88 92 100
172.000 630.000 282.000 89 94 102
173.000 630.000 283.000 91 96 105
173.000 631.000 283.000 91 97 106
174.000 628.000 283.000 88 94 102
175.000 630.000 284.000 95 101 110
168.000 632.000 278.000 85 91 99
168.000 633.000 278.000 83 88 96
169.000 632.000 279.000 92 97 106
168.000 634.000 279.000 83 88 96
168.000 635.000 279.000 86 90 98
168.000 636.000 279.000 84 89 97
169.000 632.000 280.000 92 97 105
169.000 633.000 280.000 88 93 102
169.000 634.000 280.000 86 91 99
169.000 635.000 280.000 87 92 101
170.000 632.000 281.000 88 93 102
170.000 633.000 281.000 89 94 103
171.000 632.000 281.000 87 92 101
171.000 633.000 282.000 95 101 110
170.000 634.000 281.000 88 94 104
170.000 635.000 281.000 87 93 103
171.000 634.000 282.000 100 105 115
171.000 635.000 282.000 95 101 111
171.000 636.000 282.000 98 104 113
171.000 637.000 282.000 103 108 118
173.000 632.000 283.000 95 101 111
174.000 633.000 284.000 103 111 122
174.000 634.000 284.000 116 124 137
175.000 637.000 285.000 118 129 144
175.000 638.000 285.000 127 136 150
176.000 617.000 283.000 94 100 109
177.000 617.000 284.000 92 97 106
177.000 618.000 284.000 94 99 107
177.000 619.000 284.000 92 97 105
179.000 616.000 285.000 91 95 103
178.000 619.000 285.000 90 95 104
176.000 621.000 284.000 92 96 103
176.000 622.000 284.000 90 94 102
176.000 623.000 284.000 92 97 105
178.000 620.000 285.000 93 97 106
178.000 621.000 285.000 94 98 106
178.000 622.000 285.000 94 98 106
181.000 617.000 287.000 98 105 116
180.000 618.000 286.000 96 101 111
181.000 618.000 287.000 96 104 116
181.000 619.000 287.000 99 107 118
182.000 616.000 287.000 99 107 119
182.000 617.000 287.000 113 121 135
182.000 618.000 287.000 111 121 136
180.000 620.000 287.000 101 107 118
180.000 621.000 287.000 103 109 119
181.000 620.000 287.000 104 112 123
181.000 621.000 287.000 104 111 123
181.000 622.000 287.000 108 114 125
182.000 623.000 287.000 110 117 129
183.000 622.000 287.000 108 115 126
183.000 623.000 287.000 107 114 125
177.000 624.000 285.000 92 97 106
177.000 625.000 285.000 92 97 107
177.000 626.000 285.000 92 98 108
177.000 627.000 285.000 94 101 111
179.000 624.000 286.000 113 119 129
179.000 625.000 286.000 111 117 128
179.000 626.000 286.000 111 117 128
176.000 629.000 285.000 98 104 114
176.000 630.000 285.000 100 105 116
176.000 631.000 285.000 103 109 120
178.000 628.000 286.000 99 104 114
178.000 629.000 286.000 100 106 116
178.000 630.000 286.000 106 111 121
178.000 631.000 286.000 107 112 122
181.000 624.000 287.000 135 142 155
181.000 625.000 287.000 145 150 162
181.000 626.000 287.000 121 127 138
181.000 627.000 287.000 107 114 126
182.000 624.000 287.000 119 125 138
182.000 625.000 287.000 124 129 140
182.000 626.000 287.000 114 119 129
182.000 627.000 287.000 108 114 126
180.000 629.000 287.000 104 113 127
181.000 628.000 287.000 107 115 128
181.000 629.000 287.000 118 127 140
180.000 630.000 287.000 119 128 142
180.000 631.000 287.000 134 143 157
181.000 630.000 287.000 146 154 168
183.000 630.000 287.000 139 145 157
183.000 631.000 287.000 142 148 160
178.000 632.000 286.000 109 114 125
179.000 638.000 286.000 110 116 127
179.000 639.000 286.000 111 116 127
182.000 632.000 287.000 138 144 157
182.000 633.000 287.000 113 121 133
183.000 632.000 287.000 124 131 143
182.000 634.000 287.000 111 117 129
183.000 638.000 287.000 114 123 137
184.000 636.000 287.000 118 127 140
183.000 617.000 288.000 123 132 146
183.000 618.000 288.000 133 142 157
184.000 618.000 288.000 137 147 162
184.000 619.000 288.000 138 148 164
159.000 640.000 268.000 82 87 94
158.000 645.000 267.000 77 82 90
159.000 644.000 268.000 78 83 91
159.000 645.000 269.000 79 84 92
158.000 646.000 268.000 79 84 91
158.000 647.000 268.000 79 84 91
159.000 646.000 269.000 80 85 93
159.000 648.000 270.000 85 90 98
159.000 648.000 271.000 86 91 98
159.000 649.000 270.000 85 89 96
159.000 649.000 271.000 84 88 95
160.000 640.000 269.000 83 87 94
160.000 641.000 269.000 83 88 95
161.000 641.000 270.000 81 86 94
160.000 642.000 269.000 81 86 94
161.000 642.000 271.000 80 86 94
161.000 643.000 271.000 80 86 95
160.000 644.000 270.000 79 85 93
160.000 644.000 271.000 80 86 95
160.000 645.000 270.000 82 87 95
160.000 645.000 271.000 83 89 97
160.000 646.000 271.000 84 89 97
160.000 647.000 271.000 86 90 98
161.000 641.000 272.000 81 86 95
161.000 642.000 272.000 80 86 95
161.000 643.000 272.000 81 87 96
162.000 640.000 272.000 83 88 96
162.000 641.000 272.000 82 87 95
163.000 640.000 273.000 85 90 98
163.000 640.000 274.000 84 89 97
163.000 640.000 275.000 83 88 96
163.000 641.000 274.000 82 87 95
163.000 641.000 275.000 83 88 96
162.000 643.000 273.000 83 88 96
163.000 642.000 274.000 82 87 96
163.000 642.000 275.000 83 88 97
163.000 643.000 274.000 86 90 98
161.000 644.000 272.000 83 88 97
161.000 645.000 272.000 84 90 98
161.000 647.000 274.000 87 91 99
162.000 644.000 273.000 86 91 99
162.000 645.000 273.000 89 94 102
162.000 644.000 274.000 89 94 102
162.000 645.000 274.000 90 94 102
163.000 644.000 274.000 89 93 101
163.000 644.000 275.000 89 94 102
163.000 645.000 275.000 88 93 102
162.000 646.000 274.000 88 93 101
162.000 647.000 274.000 87 91 100
163.000 646.000 275.000 87 92 101
164.000 640.000 275.000 84 89 97
164.000 641.000 275.000 83 88 96
164.000 642.000 275.000 83 88 96
165.000 640.000 276.000 83 88 97
165.000 640.000 277.000 93 98 107
165.000 641.000 277.000 92 97 106
164.000 643.000 277.000 88 92 100
165.000 642.000 277.000 86 91 100
165.000 643.000 277.000 89 94 102
166.000 640.000 277.000 103 108 117
166.000 641.000 278.000 100 105 114
167.000 640.000 279.000 113 118 129
167.000 641.000 279.000 104 109 118
166.000 642.000 278.000 90 95 104
166.000 643.000 278.000 90 95 104
167.000 642.000 279.000 92 98 106
164.000 644.000 276.000 90 95 103
164.000 644.000 277.000 94 98 106
164.000 645.000 276.000 95 100 109
164.000 645.000 277.000 96 101 109
165.000 644.000 277.000 93 97 105
164.000 646.000 277.000 93 97 106
164.000 647.000 277.000 89 94 103
165.000 646.000 279.000 91 96 104
165.000 647.000 279.000 93 97 105
166.000 645.000 279.000 90 95 104
166.000 643.000 280.000 92 96 104
166.000 644.000 280.000 93 97 105
166.000 645.000 280.000 92 97 106
167.000 645.000 280.000 92 97 106
160.000 649.000 272.000 86 90 97
161.000 648.000 274.000 86 91 98
161.000 649.000 274.000 88 92 99
162.000 648.000 274.000 87 92 100
162.000 649.000 274.000 87 92 100
163.000 648.000 277.000 88 93 102
163.000 649.000 277.000 94 100 109
164.000 648.000 277.000 89 94 104
164.000 649.000 277.000 95 101 110
165.000 648.000 279.000 90 95 103
165.000 649.000 279.000 94 98 107
165.000 648.000 280.000 90 95 104
168.000 640.000 280.000 94 100 110
168.000 641.000 280.000 92 98 107
169.000 641.000 281.000 89 94 103
168.000 642.000 280.000 91 96 106
168.000 643.000 280.000 89 95 104
168.000 645.000 281.000 91 98 108
169.000 647.000 283.000 108 112 122
171.000 644.000 283.000 101 106 115
170.000 647.000 283.000 104 109 118
175.000 640.000 285.000 135 140 153
175.000 641.000 285.000 108 115 127
172.000 644.000 285.000 97 101 111
174.000 647.000 285.000 109 113 124
169.000 648.000 283.000 105 110 121
175.000 648.000 286.000 110 116 127
175.000 649.000 286.000 110 116 127
178.000 641.000 286.000 109 116 127
179.000 643.000 287.000 115 122 134
177.000 645.000 286.000 119 125 137
178.000 644.000 286.000 120 126 138
178.000 645.000 286.000 119 125 136
180.000 645.000 287.000 122 130 142
181.000 644.000 287.000 141 147 159
181.000 645.000 287.000 131 137 150
180.000 646.000 287.000 121 128 140
182.000 647.000 287.000 118 124 136
177.000 648.000 286.000 114 120 131
179.000 648.000 287.000 113 119 132
184.000 648.000 287.000 125 130 142
