ply
format ascii 1.0
element vertex 1223
property float x
property float y
property float z
property uchar red
property uchar green
property uchar blue
end_header
167.000 447.000 159.000 47 52 57
168.000 447.000 159.000 47 52 57
171.000 447.000 159.000 43 49 55
172.000 447.000 159.000 44 49 56
173.000 447.000 159.000 43 49 56
161.000 447.000 160.000 46 53 60
162.000 447.000 160.000 46 52 59
163.000 447.000 160.000 47 52 59
164.000 447.000 160.000 45 51 58
165.000 447.000 160.000 43 49 55
166.000 447.000 160.000 44 49 55
167.000 446.000 160.000 47 52 57
167.000 447.000 160.000 48 52 57
168.000 445.000 160.000 45 51 57
169.000 444.000 160.000 41 48 56
169.000 444.000 161.000 42 49 56
169.000 445.000 160.000 41 48 55
168.000 446.000 160.000 46 52 58
168.000 447.000 160.000 49 53 59
169.000 446.000 160.000 42 48 55
169.000 447.000 160.000 42 48 55
170.000 447.000 160.000 43 49 55
151.000 455.000 159.000 46 52 59
147.000 459.000 159.000 46 53 60
145.000 461.000 159.000 48 54 61
144.000 462.000 159.000 43 51 58
144.000 463.000 159.000 44 52 60
145.000 462.000 159.000 47 53 61
145.000 463.000 159.000 45 52 60
146.000 460.000 159.000 47 53 60
146.000 461.000 159.000 47 54 61
147.000 460.000 158.000 46 53 60
147.000 460.000 159.000 46 53 60
147.000 461.000 158.000 46 53 60
147.000 461.000 159.000 46 52 60
147.000 463.000 157.000 45 52 60
146.000 462.000 158.000 49 55 63
146.000 462.000 159.000 50 56 63
146.000 463.000 158.000 49 55 63
147.000 462.000 158.000 46 53 60
147.000 463.000 158.000 46 53 61
149.000 457.000 159.000 45 51 59
148.000 458.000 159.000 45 52 59
148.000 459.000 158.000 46 53 60
148.000 459.000 159.000 46 52 60
149.000 458.000 159.000 45 52 59
149.000 459.000 158.000 46 53 60
149.000 459.000 159.000 46 52 59
150.000 456.000 159.000 45 52 59
150.000 457.000 159.000 45 52 59
151.000 456.000 159.000 46 52 60
151.000 457.000 159.000 46 53 60
151.000 459.000 157.000 46 53 60
150.000 458.000 158.000 46 52 60
150.000 458.000 159.000 45 52 59
150.000 459.000 158.000 45 52 60
150.000 459.000 159.000 45 52 59
151.000 458.000 158.000 46 53 60
151.000 459.000 158.000 46 52 60
151.000 463.000 155.000 45 52 60
149.000 461.000 157.000 46 53 60
148.000 460.000 158.000 46 53 60
148.000 461.000 158.000 47 54 61
149.000 460.000 158.000 47 53 60
149.000 461.000 158.000 47 53 60
148.000 462.000 157.000 46 53 60
148.000 463.000 157.000 46 53 60
149.000 462.000 157.000 46 53 60
149.000 463.000 156.000 45 52 60
149.000 463.000 157.000 46 53 60
148.000 462.000 158.000 47 53 61
150.000 460.000 157.000 46 52 59
150.000 461.000 157.000 46 52 60
151.000 460.000 157.000 46 53 60
151.000 461.000 156.000 46 52 59
151.000 461.000 157.000 46 53 60
150.000 460.000 158.000 46 52 60
150.000 462.000 156.000 46 52 60
150.000 462.000 157.000 46 53 60
150.000 463.000 156.000 45 52 60
151.000 462.000 156.000 46 53 60
151.000 463.000 156.000 46 52 60
152.000 455.000 159.000 46 52 59
153.000 455.000 159.000 45 51 58
154.000 454.000 159.000 45 51 58
154.000 455.000 159.000 45 52 59
155.000 454.000 159.000 44 51 58
155.000 455.000 158.000 44 52 59
155.000 455.000 159.000 45 52 59
158.000 451.000 159.000 44 51 58
159.000 451.000 159.000 45 51 58
156.000 453.000 159.000 43 50 58
157.000 452.000 159.000 44 50 58
157.000 453.000 159.000 44 51 58
156.000 454.000 159.000 43 51 58
156.000 455.000 158.000 43 50 58
156.000 455.000 159.000 43 51 58
157.000 454.000 158.000 43 50 58
157.000 454.000 159.000 43 51 58
157.000 455.000 158.000 43 51 58
158.000 452.000 159.000 45 52 59
158.000 453.000 159.000 45 52 60
159.000 452.000 159.000 46 53 60
159.000 453.000 158.000 46 53 60
159.000 453.000 159.000 46 53 60
159.000 455.000 157.000 46 53 61
158.000 454.000 158.000 44 51 59
158.000 454.000 159.000 44 51 58
158.000 455.000 158.000 44 52 60
159.000 454.000 158.000 45 53 60
159.000 455.000 158.000 45 52 60
152.000 456.000 159.000 46 52 60
152.000 457.000 158.000 46 52 60
152.000 457.000 159.000 46 52 60
153.000 456.000 158.000 44 51 59
153.000 456.000 159.000 45 51 59
153.000 457.000 158.000 44 51 59
152.000 459.000 157.000 46 53 60
153.000 458.000 157.000 45 52 59
153.000 459.000 157.000 46 53 60
152.000 458.000 158.000 46 53 60
152.000 459.000 158.000 46 53 60
153.000 458.000 158.000 45 52 60
155.000 457.000 157.000 46 52 60
154.000 456.000 158.000 45 52 59
154.000 457.000 158.000 45 52 59
155.000 456.000 158.000 45 52 60
155.000 457.000 158.000 45 52 60
154.000 458.000 157.000 46 53 60
154.000 459.000 156.000 46 52 60
154.000 459.000 157.000 46 52 60
155.000 458.000 157.000 47 53 60
155.000 459.000 156.000 46 53 59
155.000 459.000 157.000 47 53 60
152.000 462.000 155.000 47 54 61
152.000 463.000 155.000 46 53 61
153.000 462.000 155.000 46 53 60
153.000 463.000 154.000 45 52 60
153.000 463.000 155.000 46 53 61
154.000 461.000 155.000 46 52 60
155.000 460.000 155.000 47 53 60
155.000 461.000 155.000 46 53 60
154.000 462.000 154.000 45 52 60
154.000 462.000 155.000 45 52 60
154.000 463.000 154.000 45 53 60
154.000 463.000 155.000 44 52 60
155.000 462.000 154.000 46 53 61
155.000 462.000 155.000 45 52 60
155.000 463.000 154.000 47 54 62
152.000 460.000 157.000 47 53 61
152.000 461.000 156.000 47 53 61
152.000 461.000 157.000 47 53 60
153.000 460.000 156.000 46 53 60
153.000 460.000 157.000 46 53 60
153.000 461.000 156.000 46 53 60
152.000 462.000 156.000 47 53 61
153.000 462.000 156.000 47 53 61
154.000 460.000 156.000 46 53 60
154.000 461.000 156.000 46 52 60
155.000 460.000 156.000 47 53 60
157.000 459.000 155.000 46 52 59
158.000 459.000 155.000 45 51 59
159.000 459.000 155.000 45 51 59
156.000 457.000 157.000 45 52 59
157.000 456.000 157.000 44 51 59
157.000 457.000 157.000 44 51 59
156.000 456.000 158.000 44 51 59
157.000 456.000 158.000 43 51 58
156.000 458.000 157.000 46 53 60
156.000 459.000 156.000 46 53 60
157.000 458.000 156.000 45 52 59
157.000 458.000 157.000 45 52 59
157.000 459.000 156.000 46 52 59
158.000 456.000 157.000 44 51 59
158.000 457.000 156.000 44 51 59
158.000 457.000 157.000 44 51 59
159.000 456.000 157.000 45 53 61
159.000 457.000 156.000 45 53 60
159.000 457.000 157.000 44 52 60
158.000 456.000 158.000 44 51 59
158.000 458.000 156.000 45 51 59
158.000 459.000 156.000 45 52 59
159.000 458.000 156.000 45 52 60
159.000 459.000 156.000 44 51 59
156.000 460.000 155.000 47 53 60
156.000 461.000 155.000 46 52 59
157.000 460.000 155.000 46 52 59
157.000 461.000 154.000 46 52 59
157.000 461.000 155.000 46 52 59
156.000 463.000 153.000 47 54 61
157.000 462.000 153.000 46 52 60
157.000 463.000 153.000 46 53 61
156.000 462.000 154.000 46 53 60
156.000 463.000 154.000 46 53 61
157.000 462.000 154.000 46 52 59
158.000 460.000 155.000 45 52 59
158.000 461.000 154.000 46 52 59
159.000 460.000 154.000 45 52 59
159.000 460.000 155.000 45 52 59
159.000 461.000 154.000 45 51 59
158.000 462.000 153.000 45 51 59
158.000 463.000 153.000 45 52 60
159.000 462.000 153.000 44 51 58
159.000 463.000 152.000 45 52 59
159.000 463.000 153.000 45 51 59
158.000 462.000 154.000 46 52 59
159.000 462.000 154.000 44 51 58
156.000 460.000 156.000 47 53 60
144.000 464.000 159.000 46 53 61
144.000 465.000 159.000 48 55 63
145.000 464.000 159.000 45 53 61
145.000 465.000 158.000 47 54 62
145.000 465.000 159.000 46 53 62
144.000 466.000 159.000 50 57 64
144.000 467.000 159.000 50 56 64
145.000 466.000 158.000 49 56 64
145.000 466.000 159.000 49 56 64
145.000 467.000 158.000 51 57 65
145.000 467.000 159.000 51 57 65
147.000 464.000 157.000 45 53 61
147.000 465.000 157.000 47 54 62
146.000 464.000 158.000 49 55 63
146.000 465.000 158.000 49 56 64
147.000 464.000 158.000 49 55 63
147.000 465.000 158.000 51 57 65
147.000 466.000 157.000 48 55 63
147.000 467.000 157.000 48 55 63
146.000 466.000 158.000 50 57 65
146.000 467.000 158.000 50 57 64
147.000 466.000 158.000 51 57 65
147.000 467.000 158.000 50 56 64
144.000 468.000 159.000 50 56 64
144.000 469.000 159.000 50 56 64
145.000 468.000 158.000 50 57 65
145.000 468.000 159.000 51 57 65
145.000 469.000 158.000 48 55 63
145.000 469.000 159.000 50 56 64
144.000 470.000 159.000 48 55 63
144.000 471.000 159.000 49 56 64
145.000 470.000 158.000 49 55 63
145.000 470.000 159.000 49 55 63
145.000 471.000 158.000 50 56 64
145.000 471.000 159.000 49 56 64
147.000 468.000 157.000 48 55 62
147.000 469.000 156.000 46 53 61
147.000 469.000 157.000 47 54 62
146.000 468.000 158.000 49 56 64
146.000 469.000 158.000 47 54 62
146.000 470.000 157.000 48 55 63
146.000 471.000 157.000 48 55 63
147.000 470.000 156.000 49 56 63
147.000 470.000 157.000 48 55 63
147.000 471.000 156.000 50 56 63
147.000 471.000 157.000 49 56 63
146.000 470.000 158.000 48 55 63
146.000 471.000 158.000 48 55 63
150.000 464.000 155.000 45 52 60
150.000 465.000 155.000 45 52 61
151.000 464.000 155.000 45 53 60
151.000 465.000 154.000 45 53 61
151.000 465.000 155.000 45 53 61
150.000 466.000 155.000 45 52 61
150.000 467.000 155.000 45 52 61
151.000 466.000 154.000 46 53 61
151.000 466.000 155.000 45 53 61
151.000 467.000 154.000 44 52 61
148.000 464.000 157.000 44 51 59
148.000 465.000 157.000 44 51 59
149.000 464.000 156.000 43 51 59
149.000 464.000 157.000 43 51 59
149.000 465.000 156.000 44 51 59
148.000 466.000 157.000 44 51 59
148.000 467.000 156.000 45 52 60
148.000 467.000 157.000 46 53 61
149.000 466.000 156.000 44 51 59
149.000 467.000 156.000 45 52 60
150.000 464.000 156.000 45 52 60
150.000 465.000 156.000 44 52 60
150.000 466.000 156.000 44 52 60
149.000 468.000 155.000 45 52 60
149.000 469.000 155.000 46 53 61
148.000 471.000 155.000 49 55 62
149.000 470.000 155.000 47 54 62
149.000 471.000 155.000 47 54 62
150.000 468.000 154.000 44 52 60
150.000 468.000 155.000 45 52 60
150.000 469.000 154.000 45 53 61
150.000 469.000 155.000 45 52 60
151.000 468.000 154.000 45 53 61
151.000 469.000 154.000 45 52 60
151.000 471.000 153.000 48 54 62
150.000 470.000 154.000 48 55 62
150.000 470.000 155.000 47 54 62
150.000 471.000 154.000 47 54 62
150.000 471.000 155.000 47 54 62
151.000 470.000 154.000 47 54 62
151.000 471.000 154.000 47 54 61
148.000 468.000 156.000 45 52 60
148.000 468.000 157.000 46 53 61
148.000 469.000 156.000 46 53 61
149.000 468.000 156.000 45 52 60
149.000 469.000 156.000 45 52 60
148.000 470.000 156.000 48 55 62
148.000 471.000 156.000 49 55 63
144.000 472.000 159.000 49 56 65
145.000 472.000 158.000 48 55 63
145.000 472.000 159.000 49 56 64
145.000 473.000 158.000 48 56 64
145.000 473.000 159.000 49 56 65
146.000 472.000 157.000 47 54 62
147.000 472.000 156.000 48 54 62
147.000 472.000 157.000 47 54 61
146.000 472.000 158.000 47 55 63
147.000 475.000 157.000 44 52 61
147.000 479.000 155.000 46 54 62
147.000 479.000 156.000 47 54 62
149.000 475.000 155.000 47 54 62
151.000 473.000 154.000 46 53 60
151.000 474.000 153.000 46 53 61
151.000 475.000 153.000 45 52 60
150.000 474.000 154.000 46 53 61
150.000 475.000 154.000 46 53 61
151.000 474.000 154.000 46 53 61
148.000 472.000 156.000 48 54 62
148.000 475.000 156.000 45 53 61
148.000 476.000 155.000 45 53 61
148.000 477.000 155.000 46 53 61
149.000 476.000 155.000 46 54 62
149.000 477.000 154.000 47 54 62
148.000 478.000 155.000 47 54 62
148.000 479.000 154.000 47 54 61
148.000 479.000 155.000 47 54 62
149.000 478.000 154.000 47 54 62
149.000 479.000 154.000 46 53 61
150.000 477.000 153.000 48 55 63
151.000 476.000 153.000 45 53 61
151.000 477.000 153.000 46 53 61
150.000 476.000 154.000 46 53 61
150.000 477.000 154.000 47 54 62
150.000 478.000 153.000 47 54 62
150.000 479.000 153.000 46 53 61
151.000 478.000 152.000 45 52 60
151.000 478.000 153.000 46 53 61
151.000 479.000 152.000 46 53 60
151.000 479.000 153.000 46 53 61
150.000 478.000 154.000 47 54 62
148.000 476.000 156.000 44 52 61
155.000 468.000 151.000 46 54 63
155.000 469.000 151.000 47 54 62
155.000 470.000 151.000 47 54 62
156.000 467.000 151.000 46 53 62
157.000 466.000 151.000 47 54 62
157.000 467.000 151.000 46 54 62
158.000 466.000 151.000 46 54 62
158.000 467.000 151.000 47 54 62
159.000 466.000 151.000 45 52 60
159.000 467.000 150.000 44 52 60
159.000 467.000 151.000 44 52 60
156.000 468.000 151.000 46 54 62
156.000 469.000 151.000 46 54 62
157.000 468.000 151.000 46 53 61
157.000 469.000 150.000 47 54 62
157.000 469.000 151.000 47 54 62
156.000 470.000 151.000 48 54 62
157.000 470.000 150.000 47 54 62
158.000 468.000 150.000 46 54 62
158.000 468.000 151.000 46 54 62
158.000 469.000 150.000 47 54 62
159.000 468.000 150.000 45 52 60
159.000 469.000 150.000 46 54 61
158.000 470.000 149.000 47 53 61
158.000 470.000 150.000 47 54 62
153.000 465.000 153.000 46 53 62
152.000 464.000 154.000 46 54 61
152.000 464.000 155.000 46 53 61
152.000 465.000 154.000 47 54 62
153.000 464.000 154.000 45 53 61
153.000 465.000 154.000 46 54 62
152.000 466.000 153.000 46 53 62
152.000 467.000 153.000 45 53 61
153.000 466.000 153.000 46 54 62
153.000 467.000 153.000 45 53 62
152.000 466.000 154.000 46 53 62
152.000 467.000 154.000 44 52 61
153.000 466.000 154.000 46 54 62
154.000 464.000 153.000 46 54 61
154.000 465.000 153.000 46 54 62
155.000 464.000 153.000 47 54 62
155.000 465.000 153.000 48 55 63
154.000 464.000 154.000 45 53 61
154.000 465.000 154.000 46 53 61
154.000 466.000 152.000 47 55 63
154.000 466.000 153.000 47 54 62
154.000 467.000 152.000 46 54 62
154.000 467.000 153.000 46 54 63
155.000 466.000 152.000 48 55 63
155.000 466.000 153.000 47 55 63
155.000 467.000 152.000 47 55 63
152.000 468.000 153.000 45 53 61
152.000 469.000 153.000 45 53 61
153.000 468.000 153.000 44 52 60
153.000 469.000 152.000 44 52 60
153.000 469.000 153.000 44 52 60
152.000 470.000 153.000 48 55 62
153.000 470.000 152.000 46 53 61
153.000 470.000 153.000 46 53 61
153.000 471.000 153.000 48 54 62
154.000 468.000 152.000 45 53 62
154.000 469.000 152.000 45 53 61
155.000 468.000 152.000 46 54 63
154.000 470.000 152.000 46 53 62
156.000 464.000 153.000 46 54 62
156.000 465.000 152.000 47 55 63
156.000 465.000 153.000 48 55 63
157.000 464.000 152.000 46 54 62
157.000 464.000 153.000 46 54 61
157.000 465.000 152.000 46 54 62
156.000 466.000 152.000 47 55 63
156.000 467.000 152.000 47 55 63
157.000 466.000 152.000 46 54 62
158.000 464.000 152.000 45 52 60
158.000 464.000 153.000 46 53 61
158.000 465.000 152.000 46 53 61
159.000 464.000 152.000 45 52 59
159.000 465.000 152.000 45 52 60
158.000 466.000 152.000 46 54 62
154.000 473.000 151.000 47 53 61
155.000 473.000 151.000 46 53 61
154.000 474.000 151.000 46 53 60
154.000 475.000 151.000 44 52 60
155.000 474.000 150.000 46 53 61
155.000 474.000 151.000 45 53 61
155.000 475.000 150.000 46 53 61
155.000 475.000 151.000 45 53 61
153.000 477.000 151.000 45 53 60
154.000 476.000 151.000 45 52 60
154.000 477.000 151.000 45 53 61
155.000 476.000 151.000 44 52 60
155.000 477.000 150.000 45 53 61
159.000 475.000 147.000 46 54 62
157.000 473.000 150.000 46 53 60
157.000 474.000 149.000 45 52 60
157.000 475.000 149.000 45 53 61
156.000 474.000 150.000 45 52 61
156.000 475.000 150.000 45 53 61
158.000 473.000 149.000 47 53 61
159.000 472.000 149.000 47 53 61
158.000 474.000 149.000 45 52 60
158.000 475.000 148.000 45 53 61
159.000 474.000 148.000 47 54 62
157.000 476.000 149.000 46 53 62
156.000 476.000 150.000 46 54 62
156.000 477.000 150.000 46 54 62
156.000 479.000 149.000 45 53 62
157.000 478.000 149.000 46 54 62
158.000 479.000 148.000 47 55 63
152.000 473.000 153.000 47 54 61
153.000 472.000 153.000 47 54 61
153.000 473.000 152.000 46 53 61
153.000 473.000 153.000 47 53 61
152.000 474.000 153.000 46 53 61
152.000 475.000 153.000 44 52 60
153.000 474.000 152.000 45 52 60
153.000 475.000 152.000 44 52 60
154.000 472.000 152.000 46 53 61
154.000 473.000 152.000 47 53 61
154.000 474.000 152.000 45 52 60
154.000 475.000 152.000 44 52 60
152.000 476.000 152.000 45 52 60
152.000 476.000 153.000 45 52 60
152.000 477.000 152.000 45 52 60
152.000 477.000 153.000 45 52 60
153.000 476.000 152.000 45 52 60
153.000 477.000 152.000 45 52 60
152.000 478.000 152.000 45 52 60
153.000 478.000 152.000 46 52 60
154.000 476.000 152.000 44 52 60
143.000 462.000 160.000 46 54 62
147.000 453.000 162.000 44 51 59
147.000 455.000 161.000 43 50 58
147.000 454.000 162.000 42 50 58
147.000 455.000 162.000 43 50 57
148.000 451.000 162.000 46 53 62
148.000 451.000 163.000 46 54 62
149.000 450.000 162.000 46 54 63
149.000 451.000 162.000 46 53 62
150.000 449.000 162.000 45 53 61
150.000 449.000 163.000 45 53 61
151.000 449.000 162.000 46 53 60
150.000 451.000 161.000 45 53 61
151.000 450.000 161.000 45 52 60
151.000 451.000 161.000 45 52 60
150.000 450.000 162.000 45 53 61
150.000 451.000 162.000 45 53 61
151.000 450.000 162.000 46 53 60
149.000 453.000 161.000 44 51 59
148.000 452.000 162.000 45 52 60
148.000 453.000 162.000 43 51 59
149.000 452.000 162.000 45 53 61
149.000 453.000 162.000 43 51 59
148.000 454.000 161.000 43 50 58
148.000 455.000 161.000 43 51 58
149.000 454.000 161.000 44 51 59
149.000 455.000 160.000 44 51 58
149.000 455.000 161.000 44 51 58
148.000 454.000 162.000 43 50 58
150.000 452.000 161.000 45 52 60
150.000 453.000 161.000 45 52 60
151.000 452.000 161.000 45 52 60
151.000 453.000 160.000 45 52 59
151.000 453.000 161.000 45 52 60
150.000 452.000 162.000 45 53 61
150.000 454.000 160.000 45 52 60
150.000 454.000 161.000 45 52 59
150.000 455.000 160.000 44 51 59
151.000 454.000 160.000 46 52 60
151.000 455.000 160.000 46 52 59
145.000 457.000 162.000 44 51 58
144.000 458.000 161.000 47 53 60
145.000 459.000 160.000 47 53 60
146.000 457.000 161.000 45 52 59
147.000 456.000 160.000 44 51 58
147.000 456.000 161.000 44 51 58
147.000 457.000 160.000 44 51 58
147.000 457.000 161.000 45 51 58
146.000 458.000 160.000 46 52 59
146.000 458.000 161.000 46 52 59
146.000 459.000 160.000 47 53 60
147.000 458.000 160.000 45 52 59
147.000 459.000 160.000 46 52 59
144.000 460.000 160.000 47 54 61
144.000 461.000 160.000 46 52 60
145.000 460.000 160.000 48 54 61
145.000 461.000 160.000 48 54 61
144.000 462.000 160.000 44 51 59
144.000 463.000 160.000 46 53 61
146.000 460.000 160.000 47 53 60
148.000 456.000 160.000 44 51 59
148.000 456.000 161.000 44 51 58
148.000 457.000 160.000 45 52 59
149.000 456.000 160.000 45 51 59
149.000 457.000 160.000 45 51 59
148.000 458.000 160.000 45 52 59
150.000 456.000 160.000 44 51 59
152.000 449.000 161.000 45 52 59
153.000 448.000 161.000 41 49 57
153.000 449.000 161.000 42 50 58
152.000 449.000 162.000 45 52 60
152.000 450.000 161.000 45 52 60
152.000 451.000 161.000 45 52 59
153.000 450.000 161.000 44 51 59
153.000 451.000 161.000 45 51 59
154.000 448.000 161.000 42 50 58
154.000 449.000 161.000 42 49 58
155.000 448.000 161.000 44 52 60
155.000 449.000 161.000 43 51 58
155.000 448.000 162.000 44 52 60
154.000 450.000 161.000 42 50 58
154.000 451.000 160.000 44 51 58
154.000 451.000 161.000 43 50 58
155.000 450.000 160.000 43 51 58
155.000 450.000 161.000 43 50 58
155.000 451.000 160.000 44 51 59
152.000 452.000 161.000 46 52 59
152.000 453.000 160.000 46 52 59
153.000 452.000 160.000 45 51 58
153.000 452.000 161.000 45 51 59
153.000 453.000 160.000 45 51 58
152.000 454.000 160.000 46 53 60
152.000 455.000 160.000 46 52 59
153.000 454.000 160.000 45 51 58
153.000 455.000 160.000 45 51 58
154.000 452.000 160.000 44 51 58
154.000 453.000 160.000 45 52 59
155.000 452.000 160.000 44 51 58
155.000 453.000 160.000 45 51 59
154.000 454.000 160.000 45 51 58
156.000 448.000 161.000 43 51 60
156.000 449.000 160.000 40 48 57
156.000 449.000 161.000 41 49 57
157.000 448.000 160.000 42 50 58
157.000 448.000 161.000 43 51 59
157.000 449.000 160.000 41 49 57
157.000 449.000 161.000 41 49 57
156.000 450.000 160.000 42 49 57
156.000 451.000 160.000 43 50 58
157.000 450.000 160.000 41 49 56
157.000 451.000 160.000 43 50 57
158.000 448.000 160.000 43 50 58
158.000 448.000 161.000 44 52 61
158.000 449.000 160.000 42 49 57
159.000 448.000 160.000 43 50 58
159.000 448.000 161.000 45 52 60
159.000 449.000 160.000 41 49 57
158.000 450.000 160.000 42 50 57
158.000 451.000 160.000 44 50 58
159.000 450.000 160.000 42 49 56
156.000 452.000 160.000 44 51 58
156.000 453.000 160.000 44 51 58
157.000 452.000 160.000 43 50 57
147.000 480.000 155.000 46 54 62
147.000 481.000 155.000 46 54 62
147.000 482.000 155.000 47 54 62
147.000 483.000 154.000 46 54 62
147.000 483.000 155.000 46 54 62
146.000 480.000 156.000 45 53 61
146.000 481.000 156.000 45 53 62
147.000 480.000 156.000 46 53 61
147.000 484.000 154.000 46 54 63
149.000 480.000 153.000 47 54 62
149.000 481.000 153.000 48 55 62
148.000 480.000 154.000 46 54 61
148.000 481.000 154.000 46 53 61
149.000 480.000 154.000 47 54 62
149.000 482.000 153.000 47 54 62
149.000 483.000 152.000 47 55 63
148.000 482.000 154.000 47 54 62
148.000 483.000 154.000 46 54 62
150.000 480.000 152.000 47 53 61
150.000 480.000 153.000 47 54 61
150.000 481.000 152.000 46 53 61
150.000 481.000 153.000 48 54 62
151.000 480.000 152.000 46 53 61
150.000 482.000 153.000 48 54 62
152.000 480.000 151.000 47 54 61
159.000 480.000 147.000 46 54 62
156.000 480.000 149.000 46 54 62
160.000 450.000 159.000 41 48 56
160.000 451.000 159.000 43 50 57
161.000 450.000 159.000 42 49 56
161.000 451.000 159.000 42 49 57
162.000 449.000 159.000 44 50 57
163.000 449.000 159.000 46 51 57
162.000 450.000 159.000 43 49 56
162.000 451.000 159.000 42 49 55
163.000 450.000 159.000 45 50 56
163.000 451.000 159.000 45 50 56
160.000 452.000 159.000 45 52 59
160.000 453.000 158.000 46 53 60
161.000 452.000 158.000 43 50 58
161.000 452.000 159.000 43 50 58
161.000 453.000 158.000 44 51 59
160.000 455.000 157.000 46 54 61
161.000 455.000 157.000 45 52 60
160.000 454.000 158.000 45 53 61
160.000 455.000 158.000 46 53 61
161.000 454.000 158.000 44 52 60
162.000 452.000 158.000 44 50 57
162.000 452.000 159.000 43 50 57
162.000 453.000 158.000 44 51 58
163.000 452.000 158.000 44 50 56
163.000 452.000 159.000 44 50 56
163.000 453.000 158.000 44 50 57
162.000 454.000 157.000 43 50 58
162.000 455.000 157.000 44 51 59
163.000 454.000 157.000 44 50 57
163.000 455.000 157.000 45 51 58
162.000 454.000 158.000 44 51 58
163.000 454.000 158.000 44 50 57
164.000 449.000 159.000 46 51 56
165.000 448.000 159.000 42 48 55
165.000 449.000 159.000 42 48 54
164.000 450.000 159.000 46 51 56
164.000 451.000 158.000 47 51 57
164.000 451.000 159.000 47 52 57
165.000 450.000 159.000 43 48 55
165.000 451.000 158.000 44 49 56
166.000 448.000 159.000 43 49 55
166.000 449.000 159.000 42 48 54
167.000 448.000 159.000 46 51 56
167.000 449.000 159.000 46 50 56
166.000 450.000 158.000 42 48 54
166.000 450.000 159.000 42 48 54
166.000 451.000 158.000 43 48 55
167.000 450.000 158.000 45 50 56
167.000 450.000 159.000 44 49 55
167.000 451.000 158.000 44 49 56
164.000 453.000 157.000 48 53 59
165.000 453.000 157.000 44 50 56
164.000 452.000 158.000 47 52 58
164.000 453.000 158.000 48 52 58
165.000 452.000 158.000 44 49 56
165.000 453.000 158.000 45 50 56
164.000 454.000 157.000 47 52 58
164.000 455.000 156.000 47 52 59
164.000 455.000 157.000 47 52 59
165.000 454.000 157.000 44 50 56
165.000 455.000 156.000 43 49 56
165.000 455.000 157.000 45 50 56
166.000 452.000 157.000 42 48 55
166.000 453.000 157.000 43 49 56
167.000 452.000 157.000 44 49 56
167.000 453.000 156.000 43 49 55
167.000 453.000 157.000 43 48 55
166.000 452.000 158.000 43 48 55
167.000 452.000 158.000 43 48 55
166.000 454.000 156.000 42 48 55
166.000 454.000 157.000 43 49 56
166.000 455.000 156.000 43 49 56
167.000 454.000 156.000 43 48 55
167.000 455.000 156.000 43 48 55
164.000 463.000 151.000 47 53 60
165.000 462.000 151.000 46 53 60
165.000 463.000 151.000 47 53 60
166.000 462.000 151.000 46 52 60
166.000 463.000 151.000 45 52 59
167.000 462.000 151.000 46 52 60
167.000 463.000 151.000 45 51 58
160.000 458.000 155.000 49 55 63
160.000 459.000 155.000 48 54 62
161.000 458.000 155.000 46 53 61
161.000 459.000 154.000 47 53 60
161.000 459.000 155.000 47 53 61
162.000 457.000 155.000 45 52 59
163.000 457.000 155.000 45 51 58
162.000 458.000 155.000 45 52 59
162.000 459.000 154.000 46 52 59
162.000 459.000 155.000 46 52 59
163.000 458.000 155.000 45 51 58
163.000 459.000 154.000 46 52 59
160.000 456.000 157.000 46 54 62
160.000 457.000 156.000 48 55 62
161.000 456.000 156.000 45 52 60
161.000 456.000 157.000 45 52 60
161.000 457.000 156.000 46 53 61
160.000 458.000 156.000 48 55 62
161.000 458.000 156.000 48 55 62
162.000 456.000 156.000 44 51 59
162.000 456.000 157.000 44 51 59
162.000 457.000 156.000 45 52 59
163.000 456.000 156.000 45 51 58
163.000 456.000 157.000 45 51 59
163.000 457.000 156.000 45 51 58
161.000 461.000 153.000 48 54 61
160.000 460.000 154.000 48 54 62
160.000 461.000 154.000 48 54 61
161.000 460.000 154.000 47 53 60
161.000 461.000 154.000 48 54 62
160.000 462.000 153.000 47 53 60
160.000 463.000 152.000 47 53 60
160.000 463.000 153.000 47 53 60
161.000 462.000 152.000 46 53 60
161.000 462.000 153.000 48 54 61
161.000 463.000 152.000 47 53 60
162.000 460.000 153.000 47 53 60
162.000 461.000 153.000 47 53 60
163.000 460.000 153.000 47 53 59
163.000 461.000 153.000 46 52 59
162.000 460.000 154.000 46 53 60
163.000 460.000 154.000 47 53 59
162.000 462.000 152.000 46 52 59
162.000 462.000 153.000 46 52 60
162.000 463.000 152.000 45 52 59
163.000 462.000 152.000 46 52 59
163.000 462.000 153.000 46 52 59
163.000 463.000 152.000 46 52 59
164.000 457.000 155.000 48 53 59
165.000 456.000 155.000 46 51 57
165.000 457.000 155.000 46 52 59
164.000 459.000 153.000 50 55 61
165.000 459.000 153.000 47 53 60
164.000 458.000 154.000 47 53 59
164.000 458.000 155.000 47 53 59
164.000 459.000 154.000 49 54 60
165.000 458.000 154.000 46 52 59
165.000 459.000 154.000 48 53 60
166.000 456.000 155.000 44 50 57
166.000 457.000 154.000 45 52 59
166.000 457.000 155.000 45 51 58
167.000 456.000 155.000 44 49 56
167.000 457.000 154.000 45 51 58
166.000 459.000 153.000 45 52 60
167.000 458.000 153.000 45 51 59
167.000 459.000 153.000 45 52 59
166.000 458.000 154.000 45 52 59
166.000 459.000 154.000 45 52 59
167.000 458.000 154.000 45 51 59
164.000 456.000 156.000 47 52 59
165.000 456.000 156.000 45 50 57
166.000 456.000 156.000 44 50 57
164.000 460.000 153.000 50 55 61
164.000 461.000 152.000 50 55 61
164.000 461.000 153.000 49 54 60
165.000 460.000 153.000 47 54 60
165.000 461.000 152.000 48 54 60
165.000 461.000 153.000 49 55 61
164.000 462.000 152.000 48 54 60
164.000 463.000 152.000 47 53 60
165.000 462.000 152.000 48 54 61
166.000 460.000 152.000 46 52 60
166.000 460.000 153.000 46 52 60
166.000 461.000 152.000 46 53 60
167.000 460.000 152.000 45 52 60
167.000 460.000 153.000 46 52 60
167.000 461.000 152.000 46 53 60
166.000 462.000 152.000 46 53 60
167.000 462.000 152.000 46 53 60
168.000 451.000 157.000 47 53 59
168.000 450.000 158.000 48 53 59
168.000 451.000 158.000 47 52 58
170.000 448.000 159.000 44 49 56
171.000 449.000 158.000 43 49 55
171.000 450.000 157.000 44 49 56
168.000 455.000 155.000 47 51 57
169.000 454.000 155.000 50 55 62
169.000 455.000 155.000 49 55 61
171.000 453.000 155.000 42 49 56
170.000 454.000 155.000 44 51 58
170.000 455.000 155.000 45 51 58
168.000 452.000 157.000 47 52 58
168.000 453.000 156.000 46 52 58
168.000 453.000 157.000 45 50 56
169.000 452.000 156.000 49 54 61
169.000 453.000 156.000 49 54 61
168.000 454.000 156.000 46 51 58
168.000 455.000 156.000 44 49 55
169.000 454.000 156.000 50 55 62
170.000 452.000 156.000 42 49 56
170.000 452.000 157.000 44 50 57
171.000 452.000 156.000 42 49 56
171.000 452.000 157.000 43 49 56
172.000 448.000 159.000 43 49 56
172.000 449.000 158.000 43 49 56
173.000 449.000 158.000 43 49 56
172.000 450.000 157.000 42 49 56
172.000 451.000 157.000 43 50 57
173.000 450.000 157.000 42 49 56
173.000 451.000 157.000 43 49 56
173.000 450.000 158.000 43 49 56
174.000 449.000 159.000 43 50 57
175.000 448.000 159.000 45 51 58
175.000 449.000 159.000 45 51 58
174.000 451.000 156.000 42 49 56
174.000 451.000 157.000 42 49 56
175.000 451.000 156.000 44 49 56
175.000 451.000 157.000 44 50 57
174.000 450.000 158.000 43 49 56
175.000 450.000 158.000 44 50 57
172.000 453.000 155.000 43 49 57
173.000 453.000 155.000 44 50 57
173.000 454.000 155.000 43 50 57
173.000 455.000 154.000 44 51 58
174.000 453.000 155.000 44 50 57
175.000 453.000 155.000 44 50 57
174.000 454.000 155.000 45 51 58
174.000 455.000 154.000 45 51 58
175.000 454.000 154.000 44 50 57
175.000 455.000 154.000 44 50 57
172.000 452.000 156.000 42 49 56
173.000 452.000 156.000 43 49 56
173.000 453.000 156.000 44 50 57
174.000 452.000 156.000 43 49 56
175.000 452.000 156.000 44 50 56
175.000 453.000 156.000 43 49 56
168.000 461.000 151.000 45 51 58
169.000 461.000 151.000 49 53 60
168.000 462.000 151.000 45 52 59
168.000 463.000 150.000 44 50 57
168.000 463.000 151.000 44 51 57
169.000 462.000 151.000 48 53 59
169.000 463.000 150.000 47 52 58
169.000 463.000 151.000 46 52 58
170.000 460.000 151.000 51 56 62
170.000 461.000 151.000 52 56 62
171.000 460.000 151.000 45 51 59
171.000 461.000 151.000 45 52 59
171.000 463.000 149.000 48 54 61
170.000 462.000 150.000 51 56 62
170.000 462.000 151.000 51 55 61
170.000 463.000 150.000 50 54 60
171.000 462.000 150.000 47 53 60
171.000 462.000 151.000 52 57 63
171.000 463.000 150.000 49 54 61
174.000 459.000 151.000 45 51 58
175.000 459.000 151.000 44 51 58
172.000 460.000 151.000 42 49 57
172.000 461.000 150.000 42 49 56
172.000 461.000 151.000 41 48 56
173.000 461.000 151.000 42 49 56
172.000 463.000 149.000 41 49 57
173.000 463.000 149.000 40 48 56
172.000 462.000 150.000 41 48 56
172.000 463.000 150.000 40 48 56
173.000 462.000 150.000 41 49 56
173.000 463.000 150.000 40 48 56
174.000 460.000 151.000 45 51 58
175.000 460.000 151.000 44 50 57
175.000 461.000 150.000 44 50 57
174.000 463.000 148.000 42 49 57
174.000 463.000 149.000 43 50 57
175.000 462.000 149.000 43 50 57
175.000 463.000 149.000 43 50 57
175.000 462.000 150.000 44 50 57
169.000 457.000 153.000 49 55 61
168.000 456.000 154.000 45 51 57
168.000 456.000 155.000 46 51 57
168.000 457.000 154.000 46 51 58
169.000 456.000 154.000 49 54 61
169.000 456.000 155.000 50 54 61
169.000 457.000 154.000 49 54 60
168.000 458.000 153.000 46 51 58
168.000 459.000 153.000 45 51 58
169.000 458.000 153.000 49 54 61
169.000 459.000 152.000 48 54 60
169.000 459.000 153.000 47 53 60
168.000 458.000 154.000 45 51 58
170.000 457.000 153.000 47 53 60
170.000 456.000 154.000 46 52 59
170.000 457.000 154.000 47 53 60
171.000 456.000 154.000 41 49 56
171.000 457.000 154.000 41 48 56
170.000 458.000 153.000 49 55 62
170.000 459.000 152.000 50 55 62
171.000 458.000 152.000 42 50 57
171.000 458.000 153.000 42 50 57
171.000 459.000 152.000 43 50 57
168.000 460.000 152.000 45 51 58
168.000 460.000 153.000 45 52 59
168.000 461.000 152.000 45 52 59
169.000 460.000 152.000 48 53 60
169.000 461.000 152.000 46 52 59
170.000 460.000 152.000 51 56 62
171.000 460.000 152.000 44 51 58
172.000 456.000 153.000 43 50 57
173.000 457.000 152.000 45 51 58
173.000 457.000 153.000 45 51 58
173.000 456.000 154.000 45 51 58
172.000 458.000 153.000 42 49 57
172.000 459.000 152.000 43 49 57
174.000 456.000 153.000 45 51 58
174.000 457.000 153.000 44 51 58
175.000 456.000 153.000 44 51 58
175.000 457.000 152.000 44 51 58
175.000 457.000 153.000 44 51 58
174.000 456.000 154.000 45 51 58
175.000 456.000 154.000 44 50 57
174.000 458.000 152.000 44 51 58
175.000 458.000 152.000 44 51 58
167.000 477.000 143.000 46 52 58
167.000 478.000 143.000 46 51 58
168.000 477.000 143.000 46 51 58
169.000 477.000 143.000 44 50 57
168.000 478.000 143.000 48 53 60
170.000 476.000 143.000 42 49 56
172.000 475.000 143.000 44 50 56
173.000 475.000 143.000 47 53 59
175.000 473.000 143.000 43 50 57
174.000 474.000 143.000 50 56 63
174.000 475.000 143.000 52 57 64
175.000 474.000 143.000 43 50 58
175.000 475.000 143.000 46 52 60
160.000 465.000 151.000 46 52 60
161.000 465.000 151.000 46 53 61
160.000 466.000 151.000 46 53 60
160.000 467.000 150.000 45 53 60
160.000 467.000 151.000 45 52 60
161.000 466.000 150.000 47 54 62
161.000 466.000 151.000 47 54 61
161.000 467.000 150.000 47 54 62
162.000 464.000 151.000 45 52 59
162.000 465.000 151.000 46 52 60
163.000 464.000 151.000 46 52 59
163.000 465.000 151.000 46 52 59
163.000 467.000 149.000 47 53 60
162.000 466.000 150.000 47 53 61
162.000 466.000 151.000 46 53 61
162.000 467.000 150.000 46 53 61
163.000 466.000 150.000 46 52 59
163.000 467.000 150.000 47 53 60
160.000 469.000 149.000 46 53 60
161.000 468.000 149.000 47 54 61
161.000 469.000 149.000 47 54 62
160.000 468.000 150.000 45 53 60
160.000 469.000 150.000 46 53 61
161.000 468.000 150.000 47 54 61
160.000 470.000 149.000 46 53 60
160.000 471.000 149.000 47 53 61
161.000 470.000 149.000 46 53 61
161.000 471.000 148.000 47 53 60
162.000 468.000 149.000 46 53 61
162.000 469.000 149.000 47 54 61
163.000 468.000 149.000 46 53 60
163.000 469.000 149.000 47 53 60
164.000 464.000 151.000 48 53 60
164.000 465.000 150.000 48 53 59
164.000 465.000 151.000 48 53 59
165.000 464.000 150.000 46 52 59
165.000 464.000 151.000 47 53 60
165.000 465.000 150.000 48 53 60
164.000 467.000 149.000 48 53 60
165.000 466.000 149.000 49 54 60
165.000 467.000 149.000 49 54 60
164.000 466.000 150.000 48 53 60
165.000 466.000 150.000 49 54 60
166.000 464.000 150.000 45 51 58
166.000 464.000 151.000 45 51 58
166.000 465.000 150.000 44 51 58
167.000 464.000 150.000 44 50 57
167.000 465.000 150.000 43 50 57
166.000 466.000 149.000 46 52 59
166.000 467.000 149.000 48 53 60
167.000 466.000 149.000 45 51 58
167.000 467.000 148.000 47 53 60
167.000 467.000 149.000 47 53 60
166.000 466.000 150.000 46 52 58
166.000 470.000 147.000 48 53 59
167.000 470.000 147.000 46 52 58
164.000 468.000 149.000 48 54 60
164.000 469.000 149.000 48 54 60
165.000 468.000 148.000 51 55 61
165.000 468.000 149.000 50 55 61
165.000 470.000 148.000 50 55 61
166.000 468.000 148.000 48 54 60
167.000 468.000 148.000 47 53 60
167.000 469.000 148.000 47 53 60
160.000 464.000 152.000 46 52 60
160.000 465.000 152.000 45 52 59
161.000 464.000 152.000 46 53 60
161.000 465.000 152.000 45 52 60
162.000 464.000 152.000 45 52 59
160.000 474.000 147.000 48 54 62
160.000 473.000 148.000 48 55 62
161.000 472.000 148.000 46 52 60
160.000 478.000 147.000 47 54 63
161.000 479.000 146.000 47 55 63
167.000 477.000 144.000 46 52 58
166.000 478.000 144.000 43 50 57
170.000 467.000 147.000 46 52 58
171.000 467.000 147.000 50 55 62
168.000 465.000 149.000 44 50 57
169.000 464.000 149.000 46 51 57
169.000 465.000 149.000 45 51 57
168.000 464.000 150.000 43 49 56
168.000 465.000 150.000 43 50 57
169.000 464.000 150.000 45 50 56
168.000 466.000 148.000 46 52 58
168.000 466.000 149.000 44 51 58
168.000 467.000 148.000 47 53 60
169.000 466.000 148.000 45 51 58
169.000 466.000 149.000 45 51 57
169.000 467.000 148.000 46 51 58
170.000 464.000 149.000 49 53 59
170.000 465.000 149.000 48 53 59
171.000 464.000 149.000 50 55 62
171.000 465.000 148.000 51 56 63
171.000 465.000 149.000 50 55 61
170.000 464.000 150.000 47 52 58
170.000 466.000 148.000 48 53 59
170.000 466.000 149.000 47 52 58
170.000 467.000 148.000 46 52 58
171.000 466.000 148.000 50 55 62
171.000 467.000 148.000 50 55 61
168.000 469.000 147.000 46 52 59
169.000 469.000 147.000 45 51 58
170.000 468.000 147.000 45 51 57
170.000 469.000 147.000 45 50 57
171.000 468.000 147.000 49 54 60
171.000 469.000 147.000 48 53 59
170.000 471.000 145.000 45 51 57
168.000 468.000 148.000 46 53 60
169.000 468.000 148.000 46 52 58
172.000 467.000 147.000 49 54 61
173.000 466.000 147.000 42 49 57
173.000 467.000 147.000 43 50 58
174.000 465.000 147.000 43 49 56
175.000 465.000 147.000 43 50 57
174.000 466.000 147.000 43 50 57
174.000 467.000 146.000 43 50 57
174.000 467.000 147.000 42 49 57
175.000 466.000 147.000 43 50 57
175.000 467.000 146.000 43 50 57
175.000 467.000 147.000 43 50 57
172.000 464.000 149.000 43 50 58
172.000 465.000 148.000 44 51 58
173.000 464.000 148.000 41 48 56
173.000 464.000 149.000 41 49 57
173.000 465.000 148.000 42 49 57
172.000 466.000 148.000 47 53 60
172.000 467.000 148.000 50 55 62
173.000 466.000 148.000 43 50 57
174.000 464.000 148.000 43 50 57
174.000 465.000 148.000 43 50 57
175.000 464.000 148.000 44 50 58
175.000 465.000 148.000 44 50 57
172.000 468.000 147.000 50 56 62
173.000 468.000 147.000 46 52 59
173.000 469.000 146.000 47 52 59
173.000 471.000 145.000 53 57 64
172.000 470.000 146.000 52 57 63
172.000 471.000 146.000 52 56 62
173.000 470.000 146.000 49 54 61
175.000 469.000 145.000 43 50 57
174.000 468.000 146.000 43 49 57
174.000 469.000 146.000 44 50 57
175.000 468.000 146.000 43 50 57
175.000 469.000 146.000 43 50 57
174.000 470.000 145.000 43 50 57
174.000 471.000 145.000 44 51 58
175.000 470.000 145.000 42 50 57
175.000 471.000 145.000 42 50 57
168.000 472.000 146.000 48 53 59
169.000 472.000 146.000 47 52 59
168.000 474.000 145.000 45 51 58
168.000 475.000 144.000 44 50 57
169.000 474.000 144.000 44 50 57
169.000 474.000 145.000 44 51 58
170.000 473.000 144.000 44 50 57
170.000 474.000 144.000 44 50 57
168.000 476.000 144.000 44 50 57
172.000 472.000 145.000 49 54 61
172.000 473.000 144.000 46 51 58
172.000 473.000 145.000 47 52 58
173.000 472.000 145.000 51 56 62
173.000 473.000 144.000 52 57 63
173.000 474.000 144.000 50 55 62
174.000 472.000 144.000 46 52 59
174.000 473.000 144.000 47 53 61
175.000 472.000 144.000 42 49 57
175.000 473.000 144.000 43 50 57
174.000 474.000 144.000 50 56 62
176.000 451.000 157.000 45 51 58
177.000 451.000 157.000 46 52 59
176.000 450.000 158.000 45 51 58
178.000 451.000 157.000 46 52 59
176.000 453.000 155.000 45 51 57
176.000 455.000 154.000 45 51 58
177.000 455.000 154.000 44 51 58
178.000 455.000 154.000 47 53 60
176.000 452.000 156.000 45 51 58
176.000 453.000 156.000 46 51 58
177.000 452.000 156.000 46 52 58
177.000 452.000 157.000 46 52 59
177.000 453.000 156.000 46 52 58
178.000 452.000 156.000 46 52 59
176.000 458.000 151.000 45 51 59
176.000 459.000 151.000 45 52 59
177.000 458.000 151.000 44 51 58
177.000 459.000 151.000 44 51 59
178.000 457.000 151.000 45 51 59
178.000 458.000 151.000 46 53 60
178.000 459.000 150.000 46 53 60
179.000 458.000 151.000 47 54 62
179.000 459.000 150.000 47 54 61
176.000 460.000 150.000 46 52 59
176.000 461.000 150.000 46 53 60
177.000 460.000 150.000 44 51 58
177.000 461.000 150.000 44 51 59
176.000 462.000 149.000 45 52 59
176.000 463.000 148.000 44 50 58
176.000 463.000 149.000 44 51 59
177.000 462.000 149.000 45 52 59
177.000 463.000 148.000 45 51 59
177.000 463.000 149.000 45 52 59
178.000 462.000 149.000 44 52 59
178.000 463.000 148.000 45 52 60
176.000 456.000 153.000 45 51 58
176.000 457.000 152.000 43 50 58
176.000 457.000 153.000 44 51 58
177.000 456.000 153.000 44 51 58
177.000 457.000 152.000 44 51 58
176.000 458.000 152.000 45 51 58
178.000 456.000 153.000 46 53 60
176.000 473.000 143.000 42 49 57
177.000 473.000 143.000 43 50 57
176.000 474.000 143.000 42 49 57
176.000 475.000 143.000 41 49 56
177.000 474.000 143.000 42 49 56
178.000 473.000 143.000 45 52 59
179.000 473.000 143.000 45 52 59
178.000 475.000 142.000 44 50 58
178.000 475.000 143.000 43 50 58
176.000 476.000 142.000 41 48 56
177.000 476.000 142.000 42 49 56
176.000 465.000 147.000 45 51 58
177.000 465.000 147.000 46 52 59
176.000 466.000 147.000 45 51 58
176.000 467.000 146.000 45 51 58
177.000 467.000 146.000 46 52 58
178.000 465.000 147.000 46 52 59
178.000 466.000 146.000 46 52 60
178.000 466.000 147.000 46 52 59
178.000 467.000 146.000 45 51 59
179.000 466.000 146.000 46 53 60
179.000 467.000 146.000 46 53 60
176.000 464.000 148.000 44 50 57
177.000 464.000 148.000 46 52 59
178.000 464.000 148.000 46 53 60
179.000 465.000 148.000 46 53 60
176.000 468.000 145.000 45 52 59
176.000 469.000 145.000 45 51 58
177.000 469.000 145.000 46 52 59
176.000 468.000 146.000 44 51 58
176.000 470.000 145.000 43 50 57
176.000 471.000 144.000 43 50 57
177.000 470.000 145.000 45 51 58
177.000 471.000 144.000 44 51 58
179.000 468.000 145.000 47 53 60
179.000 469.000 145.000 47 53 61
178.000 468.000 146.000 45 51 59
178.000 470.000 145.000 46 52 59
178.000 471.000 144.000 45 52 59
179.000 470.000 144.000 46 53 60
179.000 470.000 145.000 46 53 60
179.000 471.000 144.000 46 52 60
176.000 472.000 144.000 43 50 57
176.000 473.000 144.000 42 50 57
177.000 472.000 144.000 43 50 57
177.000 473.000 144.000 42 49 56
178.000 472.000 144.000 45 51 59
179.000 472.000 144.000 46 52 60
160.000 448.000 160.000 44 51 59
160.000 448.000 161.000 46 53 61
160.000 449.000 160.000 42 49 57
161.000 448.000 160.000 45 52 60
161.000 449.000 160.000 43 50 58
160.000 450.000 160.000 41 48 56
162.000 448.000 160.000 46 52 59
162.000 449.000 160.000 46 52 58
163.000 448.000 160.000 47 52 58
164.000 448.000 160.000 46 51 58
164.000 449.000 160.000 48 52 58
165.000 448.000 160.000 43 49 55
165.000 449.000 160.000 44 49 55
