ply
format ascii 1.0
element vertex 709
property float x
property float y
property float z
property uchar red
property uchar green
property uchar blue
end_header
143.000 595.000 242.000 89 94 102
142.000 596.000 241.000 98 103 112
143.000 596.000 242.000 91 95 104
143.000 596.000 243.000 87 92 100
143.000 597.000 242.000 91 96 104
143.000 598.000 242.000 84 89 98
149.000 582.000 251.000 90 96 106
149.000 583.000 251.000 84 89 98
149.000 582.000 252.000 90 96 105
149.000 583.000 252.000 85 90 100
150.000 580.000 253.000 88 93 103
150.000 581.000 252.000 88 93 102
150.000 581.000 253.000 87 92 101
151.000 581.000 253.000 83 88 97
151.000 581.000 254.000 83 88 98
150.000 582.000 252.000 86 91 100
150.000 582.000 253.000 85 90 98
150.000 583.000 252.000 85 90 98
151.000 582.000 253.000 83 88 97
151.000 583.000 253.000 83 88 96
151.000 582.000 254.000 82 86 95
151.000 583.000 254.000 81 85 94
145.000 587.000 246.000 107 113 124
146.000 587.000 247.000 99 105 115
145.000 588.000 246.000 98 105 116
145.000 589.000 246.000 99 105 115
144.000 590.000 244.000 88 94 104
144.000 591.000 244.000 87 92 101
145.000 591.000 245.000 90 95 104
145.000 590.000 246.000 98 104 113
145.000 591.000 246.000 88 93 103
146.000 588.000 247.000 88 94 104
146.000 589.000 247.000 88 93 103
146.000 590.000 246.000 91 97 106
146.000 590.000 247.000 87 92 101
146.000 591.000 246.000 87 92 101
146.000 591.000 247.000 86 91 100
147.000 587.000 248.000 82 88 97
147.000 587.000 249.000 82 86 94
146.000 588.000 248.000 84 90 100
147.000 588.000 248.000 82 87 95
147.000 588.000 249.000 82 86 94
147.000 589.000 248.000 81 86 94
147.000 589.000 249.000 80 84 92
147.000 590.000 248.000 82 86 94
147.000 591.000 248.000 83 87 95
148.000 584.000 251.000 81 87 96
148.000 585.000 250.000 83 88 96
149.000 584.000 251.000 83 88 97
149.000 585.000 251.000 85 89 98
148.000 587.000 249.000 83 87 94
148.000 586.000 250.000 84 88 96
148.000 587.000 250.000 83 87 95
149.000 586.000 251.000 87 91 99
149.000 587.000 250.000 84 89 96
149.000 587.000 251.000 85 90 98
150.000 584.000 252.000 85 89 97
150.000 585.000 252.000 87 92 100
151.000 584.000 253.000 83 87 96
151.000 585.000 253.000 88 93 102
150.000 586.000 252.000 92 97 106
150.000 587.000 252.000 93 99 108
151.000 586.000 252.000 94 100 109
151.000 586.000 253.000 99 104 113
151.000 587.000 252.000 96 102 111
151.000 587.000 253.000 101 107 117
148.000 588.000 249.000 82 86 94
148.000 589.000 249.000 81 84 92
148.000 588.000 250.000 83 87 94
148.000 589.000 250.000 81 85 93
149.000 588.000 251.000 83 88 96
149.000 589.000 251.000 86 90 98
148.000 590.000 249.000 80 84 92
148.000 591.000 249.000 81 85 93
148.000 590.000 250.000 81 85 93
148.000 591.000 250.000 81 85 93
149.000 590.000 251.000 86 90 98
149.000 591.000 250.000 81 85 93
149.000 591.000 251.000 83 87 95
150.000 589.000 251.000 91 95 104
150.000 590.000 251.000 90 95 103
150.000 591.000 251.000 85 88 96
150.000 588.000 252.000 91 97 106
150.000 589.000 252.000 98 102 111
151.000 588.000 252.000 97 103 112
151.000 588.000 253.000 104 110 120
151.000 589.000 253.000 104 109 118
150.000 590.000 252.000 93 97 106
150.000 591.000 252.000 85 89 96
151.000 590.000 253.000 91 97 106
151.000 591.000 253.000 83 87 95
151.000 590.000 254.000 91 96 105
151.000 591.000 254.000 81 86 94
152.000 581.000 254.000 86 91 100
152.000 581.000 255.000 88 93 101
152.000 582.000 254.000 83 88 96
152.000 582.000 255.000 85 90 98
152.000 583.000 254.000 80 85 93
152.000 583.000 255.000 80 84 92
153.000 582.000 255.000 82 86 94
153.000 583.000 255.000 78 83 91
152.000 584.000 254.000 81 86 94
152.000 584.000 255.000 79 84 93
152.000 585.000 254.000 87 92 101
152.000 585.000 255.000 86 91 99
153.000 584.000 255.000 79 84 91
153.000 585.000 255.000 82 86 95
152.000 586.000 254.000 96 101 110
152.000 586.000 255.000 88 94 103
152.000 587.000 254.000 104 109 119
152.000 587.000 255.000 98 104 113
153.000 586.000 255.000 83 89 97
153.000 587.000 255.000 90 96 105
152.000 588.000 254.000 108 114 125
152.000 588.000 255.000 101 107 117
152.000 589.000 254.000 101 107 116
152.000 589.000 255.000 92 98 108
153.000 588.000 255.000 90 95 105
153.000 589.000 255.000 86 92 101
152.000 590.000 254.000 88 93 103
152.000 590.000 255.000 84 89 98
152.000 591.000 254.000 81 85 94
152.000 591.000 255.000 81 85 93
153.000 590.000 255.000 82 87 95
153.000 591.000 255.000 80 85 92
144.000 594.000 243.000 86 90 98
144.000 595.000 243.000 88 92 101
144.000 592.000 244.000 85 90 99
144.000 593.000 244.000 85 90 98
145.000 592.000 245.000 86 91 100
145.000 593.000 245.000 87 92 101
145.000 592.000 246.000 87 92 100
144.000 594.000 244.000 85 89 98
144.000 595.000 244.000 87 92 100
145.000 594.000 245.000 92 97 106
145.000 595.000 245.000 86 91 100
146.000 592.000 246.000 86 91 99
146.000 592.000 247.000 85 90 98
146.000 593.000 246.000 88 93 102
146.000 593.000 247.000 89 94 103
146.000 594.000 246.000 96 101 109
146.000 594.000 247.000 94 99 107
146.000 595.000 246.000 86 91 100
146.000 595.000 247.000 84 89 97
144.000 596.000 243.000 86 91 99
144.000 597.000 243.000 85 89 98
144.000 598.000 243.000 83 88 96
144.000 599.000 243.000 82 87 95
144.000 596.000 244.000 85 90 98
144.000 597.000 244.000 83 88 96
145.000 596.000 245.000 83 88 96
145.000 597.000 245.000 83 87 95
144.000 598.000 244.000 84 88 96
144.000 599.000 244.000 82 86 94
145.000 598.000 245.000 85 89 97
145.000 599.000 245.000 85 89 97
146.000 596.000 246.000 80 86 94
146.000 596.000 247.000 80 85 94
146.000 597.000 246.000 81 85 93
146.000 597.000 247.000 80 85 93
146.000 598.000 246.000 82 86 94
146.000 598.000 247.000 80 85 93
146.000 599.000 246.000 81 86 94
146.000 599.000 247.000 80 85 93
147.000 599.000 247.000 79 83 91
147.000 592.000 248.000 83 87 95
147.000 593.000 248.000 83 88 96
147.000 594.000 248.000 81 86 94
147.000 595.000 248.000 78 83 92
147.000 596.000 248.000 80 85 93
147.000 597.000 248.000 81 86 94
147.000 598.000 248.000 81 85 93
147.000 599.000 248.000 81 85 93
148.000 592.000 249.000 80 85 93
148.000 593.000 249.000 81 86 94
148.000 592.000 250.000 80 85 93
148.000 593.000 250.000 81 86 94
149.000 592.000 250.000 80 85 93
149.000 592.000 251.000 82 87 94
149.000 593.000 250.000 85 89 97
149.000 593.000 251.000 89 93 100
148.000 594.000 249.000 81 85 93
148.000 595.000 249.000 80 85 93
148.000 594.000 250.000 86 90 98
148.000 595.000 250.000 83 87 95
149.000 594.000 250.000 90 94 102
149.000 594.000 251.000 96 100 108
149.000 595.000 250.000 83 87 95
149.000 595.000 251.000 84 89 97
150.000 592.000 251.000 84 88 95
150.000 593.000 251.000 90 93 101
150.000 594.000 251.000 99 103 110
150.000 595.000 251.000 93 97 105
150.000 592.000 252.000 84 88 95
150.000 593.000 252.000 89 93 100
151.000 592.000 253.000 82 86 94
151.000 593.000 253.000 84 88 95
151.000 592.000 254.000 81 85 92
151.000 593.000 254.000 81 85 92
150.000 594.000 252.000 90 94 102
150.000 594.000 253.000 86 90 97
150.000 595.000 252.000 84 89 97
150.000 595.000 253.000 82 86 94
151.000 594.000 253.000 83 87 94
151.000 595.000 253.000 82 86 93
151.000 594.000 254.000 80 85 92
151.000 594.000 255.000 79 83 91
151.000 595.000 254.000 80 84 92
151.000 595.000 255.000 81 85 93
148.000 596.000 249.000 81 86 94
148.000 597.000 249.000 82 86 94
148.000 596.000 250.000 82 86 94
148.000 597.000 250.000 81 86 94
149.000 596.000 250.000 80 85 93
149.000 596.000 251.000 80 85 93
149.000 597.000 251.000 81 86 94
148.000 598.000 249.000 81 86 94
148.000 599.000 249.000 83 88 95
148.000 598.000 250.000 82 86 94
148.000 599.000 250.000 87 91 99
149.000 598.000 251.000 83 88 96
149.000 599.000 250.000 90 94 101
149.000 599.000 251.000 93 97 105
149.000 597.000 252.000 82 87 96
149.000 598.000 252.000 89 94 103
149.000 599.000 252.000 99 103 112
150.000 596.000 252.000 81 86 94
150.000 596.000 253.000 81 86 93
150.000 597.000 252.000 82 87 95
150.000 597.000 253.000 83 87 95
151.000 596.000 254.000 82 86 94
151.000 596.000 255.000 82 87 95
151.000 597.000 254.000 82 87 95
151.000 597.000 255.000 82 86 95
150.000 598.000 252.000 93 98 107
150.000 598.000 253.000 93 98 107
150.000 599.000 252.000 101 105 114
150.000 599.000 253.000 101 106 115
151.000 599.000 253.000 98 103 111
151.000 598.000 254.000 88 93 101
151.000 598.000 255.000 85 90 98
151.000 599.000 254.000 91 96 104
151.000 599.000 255.000 87 92 100
144.000 600.000 243.000 80 85 93
144.000 601.000 243.000 79 84 92
144.000 600.000 244.000 81 86 94
144.000 601.000 244.000 81 86 94
145.000 600.000 244.000 83 87 95
145.000 600.000 245.000 84 88 96
145.000 601.000 244.000 81 86 94
145.000 601.000 245.000 81 86 95
144.000 602.000 244.000 85 90 98
144.000 603.000 244.000 95 100 109
145.000 602.000 244.000 86 91 100
145.000 602.000 245.000 88 93 102
145.000 603.000 245.000 101 106 115
146.000 600.000 246.000 81 85 93
146.000 600.000 247.000 80 85 92
146.000 601.000 246.000 81 86 94
146.000 601.000 247.000 81 85 93
147.000 600.000 247.000 80 84 92
147.000 601.000 247.000 81 85 93
146.000 602.000 245.000 87 92 101
146.000 603.000 245.000 95 101 110
146.000 602.000 246.000 84 89 98
146.000 602.000 247.000 80 86 94
146.000 603.000 246.000 87 93 102
146.000 603.000 247.000 84 89 99
147.000 602.000 247.000 79 84 93
147.000 603.000 247.000 82 88 97
145.000 604.000 245.000 101 106 115
146.000 604.000 245.000 97 103 113
146.000 604.000 246.000 93 99 109
146.000 604.000 247.000 93 99 109
146.000 605.000 246.000 96 103 113
146.000 605.000 247.000 96 102 112
147.000 604.000 247.000 94 99 108
147.000 605.000 247.000 97 103 112
146.000 606.000 246.000 90 97 107
146.000 606.000 247.000 90 97 107
146.000 607.000 247.000 88 95 105
147.000 606.000 247.000 92 98 108
147.000 607.000 247.000 90 96 106
147.000 600.000 248.000 81 85 93
147.000 601.000 248.000 81 85 93
147.000 602.000 248.000 80 85 93
147.000 603.000 248.000 81 87 95
147.000 604.000 248.000 91 96 105
147.000 605.000 248.000 96 102 111
147.000 606.000 248.000 91 97 107
147.000 607.000 248.000 89 96 105
148.000 600.000 249.000 84 88 96
148.000 601.000 248.000 81 86 93
148.000 601.000 249.000 84 87 95
148.000 600.000 250.000 90 94 102
148.000 601.000 250.000 89 93 100
149.000 600.000 250.000 92 96 103
149.000 600.000 251.000 94 98 107
149.000 601.000 250.000 87 91 99
149.000 601.000 251.000 91 95 103
148.000 602.000 248.000 80 85 93
148.000 602.000 249.000 80 84 92
148.000 603.000 248.000 80 85 93
148.000 603.000 249.000 78 84 92
149.000 602.000 250.000 80 85 92
149.000 602.000 251.000 81 85 93
149.000 603.000 250.000 77 82 90
149.000 603.000 251.000 77 82 89
150.000 602.000 251.000 79 84 92
150.000 603.000 251.000 78 82 90
149.000 600.000 252.000 98 103 111
150.000 600.000 252.000 99 104 113
150.000 600.000 253.000 96 101 110
150.000 601.000 252.000 89 94 102
150.000 601.000 253.000 86 91 100
151.000 600.000 253.000 94 99 108
151.000 601.000 253.000 81 86 95
151.000 600.000 254.000 86 91 100
151.000 601.000 254.000 79 85 93
150.000 602.000 252.000 80 85 93
150.000 602.000 253.000 79 84 92
150.000 603.000 252.000 77 82 90
151.000 602.000 253.000 77 82 90
151.000 603.000 253.000 77 81 88
151.000 602.000 254.000 76 81 89
148.000 604.000 248.000 86 91 99
148.000 604.000 249.000 84 89 98
148.000 605.000 248.000 94 99 109
148.000 605.000 249.000 93 99 108
149.000 604.000 250.000 79 84 92
149.000 604.000 251.000 78 83 90
149.000 605.000 250.000 82 87 95
148.000 606.000 248.000 90 96 105
148.000 606.000 249.000 85 91 100
148.000 607.000 248.000 87 93 102
148.000 607.000 249.000 84 90 98
149.000 606.000 250.000 79 84 92
149.000 607.000 250.000 78 84 92
150.000 604.000 251.000 79 83 91
150.000 605.000 251.000 79 83 90
150.000 606.000 251.000 77 81 88
150.000 607.000 251.000 77 81 88
150.000 604.000 252.000 79 82 89
150.000 605.000 252.000 78 82 89
151.000 604.000 252.000 78 82 89
151.000 604.000 253.000 77 81 88
151.000 605.000 252.000 77 81 88
151.000 605.000 253.000 77 81 88
150.000 606.000 252.000 77 81 88
151.000 606.000 252.000 76 80 87
151.000 606.000 253.000 77 81 88
151.000 607.000 252.000 76 80 86
152.000 592.000 254.000 80 85 92
152.000 592.000 255.000 81 85 92
152.000 593.000 255.000 80 84 91
152.000 594.000 255.000 79 83 91
152.000 595.000 255.000 80 84 92
152.000 596.000 255.000 81 86 94
152.000 597.000 255.000 81 86 94
152.000 598.000 255.000 82 87 96
152.000 599.000 255.000 82 87 96
152.000 600.000 255.000 80 85 93
152.000 601.000 254.000 77 82 90
152.000 601.000 255.000 78 83 91
152.000 602.000 254.000 76 81 88
152.000 602.000 255.000 76 80 88
152.000 603.000 254.000 76 81 88
152.000 603.000 255.000 76 80 88
153.000 602.000 255.000 76 81 88
153.000 603.000 255.000 76 80 88
152.000 604.000 253.000 78 82 89
152.000 605.000 253.000 78 82 90
152.000 604.000 254.000 77 82 89
152.000 605.000 254.000 81 86 93
153.000 604.000 255.000 78 83 91
153.000 605.000 254.000 83 88 96
153.000 605.000 255.000 86 91 99
152.000 606.000 253.000 76 81 88
152.000 607.000 253.000 78 82 89
152.000 606.000 254.000 79 84 91
152.000 607.000 254.000 80 85 92
153.000 606.000 254.000 82 87 94
153.000 606.000 255.000 86 91 99
153.000 607.000 254.000 85 89 96
153.000 607.000 255.000 89 93 100
154.000 606.000 255.000 89 94 102
154.000 607.000 255.000 90 95 102
146.000 608.000 247.000 88 94 104
147.000 608.000 247.000 88 94 103
147.000 608.000 248.000 88 94 103
148.000 608.000 248.000 85 90 99
148.000 608.000 249.000 82 87 95
148.000 609.000 248.000 79 85 92
148.000 609.000 249.000 75 80 88
149.000 608.000 249.000 79 84 91
149.000 609.000 249.000 75 79 86
149.000 608.000 250.000 76 81 88
149.000 609.000 250.000 74 78 85
148.000 610.000 248.000 76 80 87
149.000 610.000 249.000 74 78 84
149.000 611.000 249.000 74 78 84
149.000 610.000 250.000 73 77 83
150.000 608.000 250.000 74 78 84
150.000 608.000 251.000 75 79 86
150.000 609.000 250.000 73 77 84
150.000 609.000 251.000 72 76 82
151.000 608.000 251.000 73 77 83
151.000 609.000 251.000 72 76 82
150.000 611.000 249.000 73 76 82
150.000 610.000 250.000 72 76 82
150.000 610.000 251.000 72 75 81
150.000 611.000 250.000 70 73 79
151.000 610.000 251.000 71 74 80
151.000 611.000 251.000 68 71 78
151.000 608.000 252.000 74 77 84
151.000 609.000 252.000 72 75 82
151.000 610.000 252.000 69 73 79
149.000 612.000 249.000 76 79 85
150.000 612.000 249.000 75 78 84
150.000 612.000 250.000 71 74 80
151.000 612.000 250.000 68 72 78
151.000 612.000 251.000 69 73 79
151.000 613.000 250.000 69 72 79
151.000 613.000 251.000 70 75 81
151.000 614.000 250.000 67 70 76
152.000 608.000 252.000 75 78 85
152.000 608.000 253.000 78 82 89
152.000 609.000 252.000 71 75 81
152.000 609.000 253.000 71 74 81
153.000 608.000 253.000 77 80 87
153.000 609.000 253.000 71 75 81
153.000 608.000 254.000 81 85 92
153.000 608.000 255.000 88 92 99
153.000 609.000 254.000 71 75 82
152.000 610.000 252.000 69 73 79
152.000 611.000 252.000 68 72 78
153.000 610.000 253.000 68 72 78
153.000 611.000 253.000 68 72 78
153.000 610.000 254.000 66 70 77
154.000 608.000 255.000 80 84 91
154.000 609.000 254.000 69 74 80
154.000 609.000 255.000 68 73 79
155.000 609.000 255.000 69 73 79
154.000 610.000 254.000 65 69 76
154.000 610.000 255.000 65 69 75
154.000 611.000 254.000 66 70 76
154.000 611.000 255.000 64 68 74
155.000 610.000 255.000 66 70 76
155.000 611.000 255.000 64 68 74
152.000 612.000 251.000 73 77 83
152.000 613.000 251.000 70 74 81
152.000 614.000 251.000 66 70 76
152.000 615.000 250.000 62 66 71
152.000 612.000 252.000 75 78 85
152.000 613.000 252.000 72 76 83
153.000 612.000 252.000 75 79 86
153.000 612.000 253.000 73 76 83
153.000 613.000 252.000 73 77 83
153.000 613.000 253.000 69 73 80
152.000 614.000 252.000 67 71 78
153.000 614.000 252.000 64 69 75
153.000 614.000 253.000 64 69 75
153.000 615.000 252.000 61 66 72
154.000 612.000 253.000 71 75 81
154.000 613.000 253.000 67 71 77
154.000 612.000 254.000 66 70 76
154.000 613.000 254.000 66 69 75
155.000 612.000 254.000 64 68 74
155.000 613.000 254.000 64 67 73
154.000 614.000 253.000 63 67 73
154.000 615.000 252.000 61 65 71
154.000 615.000 253.000 61 65 70
153.000 581.000 256.000 86 91 99
153.000 582.000 256.000 80 84 92
153.000 583.000 256.000 76 80 88
154.000 581.000 256.000 83 87 95
154.000 581.000 257.000 81 86 94
154.000 582.000 256.000 79 83 92
154.000 582.000 257.000 78 84 92
154.000 583.000 256.000 76 81 89
154.000 583.000 257.000 76 82 90
154.000 583.000 258.000 81 86 94
153.000 584.000 256.000 77 82 90
153.000 585.000 256.000 78 83 91
153.000 586.000 256.000 79 83 91
153.000 587.000 256.000 83 88 96
154.000 584.000 256.000 77 82 90
154.000 584.000 257.000 77 82 90
154.000 585.000 257.000 78 83 91
154.000 584.000 258.000 82 87 95
154.000 585.000 258.000 82 86 94
155.000 585.000 258.000 88 92 99
154.000 586.000 257.000 79 83 91
154.000 587.000 257.000 79 84 91
154.000 586.000 258.000 82 86 94
154.000 587.000 258.000 80 84 91
155.000 586.000 258.000 88 92 99
155.000 586.000 259.000 90 94 101
155.000 587.000 258.000 84 88 95
155.000 587.000 259.000 82 86 93
155.000 586.000 260.000 90 94 103
155.000 587.000 260.000 79 84 91
153.000 588.000 256.000 82 87 96
153.000 589.000 256.000 79 84 93
153.000 590.000 256.000 78 83 91
153.000 590.000 257.000 78 83 90
153.000 591.000 256.000 80 84 91
153.000 591.000 257.000 80 85 93
154.000 588.000 257.000 77 81 89
154.000 589.000 257.000 76 80 88
154.000 588.000 258.000 76 81 88
154.000 589.000 258.000 76 81 89
155.000 588.000 259.000 78 82 90
155.000 589.000 259.000 78 83 90
154.000 590.000 257.000 77 82 90
154.000 591.000 257.000 79 84 92
154.000 590.000 258.000 77 82 90
154.000 590.000 259.000 79 84 92
154.000 591.000 258.000 81 86 95
154.000 591.000 259.000 85 89 98
155.000 590.000 259.000 79 84 92
155.000 591.000 259.000 85 90 98
155.000 589.000 260.000 79 84 91
155.000 590.000 260.000 82 86 94
155.000 591.000 260.000 84 89 97
156.000 587.000 260.000 80 85 93
156.000 588.000 260.000 79 84 91
156.000 589.000 260.000 79 83 91
156.000 589.000 261.000 81 85 92
156.000 590.000 260.000 82 86 94
156.000 590.000 261.000 83 87 94
156.000 591.000 260.000 80 86 94
156.000 591.000 261.000 80 85 93
152.000 593.000 256.000 80 84 91
153.000 592.000 256.000 80 84 91
153.000 592.000 257.000 83 88 95
153.000 593.000 256.000 80 84 91
153.000 593.000 257.000 85 90 97
152.000 594.000 256.000 79 84 91
152.000 595.000 256.000 80 85 92
153.000 594.000 256.000 81 85 93
153.000 594.000 257.000 86 90 98
153.000 595.000 256.000 81 85 92
153.000 595.000 257.000 82 87 94
154.000 592.000 258.000 88 93 101
154.000 592.000 259.000 90 95 103
154.000 593.000 258.000 90 95 103
154.000 593.000 259.000 94 99 107
155.000 592.000 259.000 88 93 101
155.000 593.000 259.000 92 97 105
154.000 594.000 258.000 91 95 103
154.000 594.000 259.000 91 96 104
154.000 595.000 258.000 83 88 96
154.000 595.000 259.000 83 88 96
155.000 594.000 259.000 90 95 103
155.000 595.000 259.000 84 88 96
155.000 592.000 260.000 86 91 100
155.000 593.000 260.000 86 91 99
155.000 594.000 260.000 84 89 96
155.000 595.000 260.000 83 87 95
152.000 596.000 256.000 82 87 95
152.000 597.000 256.000 85 90 98
153.000 596.000 256.000 82 87 94
153.000 596.000 257.000 83 87 95
153.000 597.000 256.000 88 92 100
153.000 597.000 257.000 91 95 103
152.000 598.000 256.000 83 89 97
152.000 599.000 256.000 79 84 93
153.000 598.000 256.000 87 92 100
153.000 598.000 257.000 92 96 104
153.000 599.000 256.000 80 85 93
153.000 599.000 257.000 84 89 97
154.000 596.000 258.000 84 89 97
154.000 596.000 259.000 83 89 97
154.000 597.000 258.000 91 96 104
154.000 597.000 259.000 87 92 101
155.000 596.000 259.000 83 88 96
155.000 597.000 259.000 83 88 96
154.000 598.000 257.000 94 98 107
154.000 599.000 257.000 84 88 96
154.000 598.000 258.000 93 97 106
154.000 599.000 258.000 86 90 98
155.000 598.000 259.000 85 90 98
155.000 599.000 258.000 87 91 99
155.000 599.000 259.000 84 88 96
155.000 596.000 260.000 81 86 94
155.000 597.000 260.000 80 85 93
155.000 598.000 260.000 80 85 93
156.000 592.000 260.000 80 86 94
156.000 592.000 261.000 79 84 92
156.000 593.000 261.000 80 85 92
156.000 592.000 262.000 80 84 92
156.000 593.000 262.000 81 85 92
157.000 592.000 262.000 80 85 92
157.000 593.000 262.000 81 85 92
156.000 594.000 261.000 81 85 93
156.000 595.000 260.000 81 85 93
156.000 595.000 261.000 81 85 92
156.000 594.000 262.000 80 84 91
156.000 595.000 262.000 81 85 92
157.000 594.000 262.000 79 84 91
157.000 594.000 263.000 78 82 89
157.000 595.000 262.000 80 84 92
157.000 595.000 263.000 79 83 90
158.000 594.000 263.000 78 82 90
158.000 595.000 263.000 78 82 89
156.000 596.000 260.000 81 85 93
156.000 596.000 261.000 81 85 92
156.000 597.000 260.000 80 84 92
156.000 597.000 261.000 80 84 91
156.000 596.000 262.000 81 85 92
157.000 596.000 262.000 80 84 91
157.000 596.000 263.000 79 83 90
157.000 597.000 262.000 78 83 90
156.000 598.000 260.000 80 84 92
156.000 598.000 261.000 78 82 89
156.000 599.000 260.000 79 84 91
156.000 599.000 261.000 79 83 90
157.000 599.000 261.000 79 83 91
157.000 598.000 262.000 79 83 91
157.000 599.000 262.000 84 88 95
158.000 596.000 263.000 77 81 89
158.000 597.000 263.000 77 82 90
158.000 598.000 263.000 80 85 93
158.000 599.000 262.000 88 92 100
158.000 599.000 263.000 88 93 100
158.000 595.000 264.000 79 82 89
158.000 596.000 264.000 77 81 88
158.000 597.000 264.000 76 80 88
159.000 597.000 264.000 76 80 88
158.000 598.000 264.000 78 82 90
152.000 600.000 256.000 79 84 92
153.000 600.000 256.000 79 84 91
153.000 601.000 256.000 78 82 90
153.000 602.000 256.000 77 81 88
153.000 603.000 256.000 75 80 88
154.000 600.000 257.000 80 84 91
154.000 601.000 256.000 77 81 89
154.000 601.000 257.000 77 81 88
154.000 600.000 258.000 79 83 91
155.000 600.000 258.000 81 85 93
155.000 600.000 259.000 79 83 91
155.000 601.000 258.000 77 81 88
155.000 601.000 259.000 77 81 88
154.000 602.000 256.000 76 80 87
154.000 602.000 257.000 76 80 87
154.000 603.000 256.000 75 80 87
154.000 603.000 257.000 74 79 86
155.000 602.000 257.000 75 80 87
155.000 603.000 257.000 73 78 85
155.000 602.000 258.000 75 79 86
155.000 602.000 259.000 74 78 85
155.000 603.000 258.000 73 77 84
153.000 604.000 256.000 79 84 92
154.000 604.000 256.000 80 85 92
154.000 605.000 256.000 85 90 98
155.000 604.000 257.000 75 80 88
155.000 605.000 256.000 86 90 98
155.000 605.000 257.000 77 82 90
155.000 604.000 258.000 73 77 85
154.000 606.000 256.000 91 96 103
154.000 607.000 256.000 90 94 102
155.000 606.000 256.000 88 93 100
155.000 606.000 257.000 85 89 96
155.000 607.000 256.000 86 91 98
155.000 607.000 257.000 83 87 95
156.000 600.000 259.000 76 81 88
156.000 601.000 259.000 75 79 86
156.000 602.000 259.000 74 78 85
156.000 603.000 259.000 72 76 83
156.000 600.000 260.000 77 82 90
156.000 600.000 261.000 79 83 91
156.000 601.000 260.000 76 81 88
157.000 600.000 261.000 80 84 92
157.000 601.000 260.000 76 81 88
157.000 601.000 261.000 79 83 91
157.000 600.000 262.000 85 90 97
157.000 601.000 262.000 84 89 96
156.000 602.000 260.000 74 79 86
156.000 603.000 260.000 73 77 84
157.000 602.000 260.000 75 80 87
157.000 602.000 261.000 79 84 91
157.000 603.000 260.000 75 79 86
157.000 603.000 261.000 79 84 91
158.000 600.000 262.000 89 93 101
158.000 600.000 263.000 89 93 101
158.000 601.000 262.000 86 91 99
158.000 602.000 261.000 82 86 93
156.000 604.000 258.000 72 76 83
156.000 604.000 259.000 72 76 83
156.000 605.000 258.000 71 76 83
156.000 605.000 259.000 71 75 82
157.000 604.000 259.000 73 77 84
157.000 605.000 259.000 70 74 81
156.000 606.000 257.000 78 83 91
156.000 607.000 257.000 75 80 87
156.000 606.000 258.000 72 77 84
156.000 607.000 258.000 71 75 82
157.000 606.000 258.000 69 74 81
157.000 606.000 259.000 69 73 80
157.000 607.000 258.000 68 73 79
157.000 604.000 260.000 76 80 87
154.000 608.000 256.000 81 85 92
155.000 608.000 256.000 75 79 86
155.000 609.000 256.000 68 72 78
155.000 610.000 256.000 67 71 77
156.000 608.000 257.000 69 73 80
156.000 609.000 256.000 68 72 78
156.000 609.000 257.000 67 71 77
