ply
format ascii 1.0
element vertex 1260
property float x
property float y
property float z
property uchar red
property uchar green
property uchar blue
end_header
275.000 471.000 141.000 48 53 60
273.000 472.000 139.000 48 53 59
273.000 473.000 139.000 48 53 59
274.000 472.000 139.000 46 52 59
274.000 473.000 139.000 46 53 60
275.000 473.000 139.000 47 53 60
274.000 474.000 138.000 47 53 60
274.000 474.000 139.000 48 54 61
274.000 475.000 138.000 45 52 59
275.000 474.000 138.000 47 53 60
275.000 474.000 139.000 48 54 61
275.000 475.000 138.000 45 52 59
274.000 472.000 140.000 46 52 59
275.000 472.000 140.000 47 52 59
274.000 476.000 137.000 45 52 59
274.000 477.000 137.000 45 52 59
275.000 476.000 137.000 44 51 58
275.000 477.000 137.000 44 51 58
274.000 476.000 138.000 46 52 59
275.000 476.000 138.000 45 52 59
274.000 478.000 136.000 45 52 60
274.000 479.000 136.000 45 52 60
275.000 478.000 136.000 45 51 59
275.000 478.000 137.000 44 51 59
275.000 479.000 136.000 44 51 59
276.000 473.000 139.000 48 53 60
276.000 474.000 139.000 48 54 60
276.000 475.000 138.000 46 52 59
276.000 475.000 139.000 46 52 59
277.000 474.000 139.000 46 52 59
277.000 475.000 139.000 44 51 57
278.000 474.000 139.000 46 52 59
278.000 475.000 139.000 44 50 57
279.000 474.000 139.000 46 52 59
279.000 475.000 139.000 44 50 58
276.000 472.000 140.000 46 52 59
276.000 473.000 140.000 47 53 59
277.000 472.000 140.000 45 51 58
277.000 473.000 140.000 45 51 58
278.000 472.000 140.000 45 51 58
278.000 472.000 141.000 45 51 58
278.000 473.000 140.000 44 50 57
279.000 472.000 141.000 45 51 58
279.000 473.000 140.000 44 50 57
279.000 473.000 141.000 43 49 56
278.000 474.000 140.000 46 52 59
279.000 474.000 140.000 46 52 59
276.000 476.000 137.000 45 51 58
276.000 477.000 137.000 44 51 58
277.000 477.000 137.000 43 50 57
276.000 476.000 138.000 46 52 58
277.000 476.000 138.000 44 50 57
277.000 477.000 138.000 44 50 57
276.000 478.000 137.000 44 50 57
276.000 479.000 136.000 44 50 58
276.000 479.000 137.000 44 51 58
277.000 478.000 137.000 43 50 57
277.000 479.000 136.000 44 50 58
277.000 479.000 137.000 43 50 58
278.000 476.000 138.000 43 50 57
278.000 476.000 139.000 44 50 57
278.000 477.000 138.000 43 50 57
279.000 476.000 138.000 44 51 58
279.000 476.000 139.000 44 50 58
279.000 477.000 138.000 43 50 58
278.000 478.000 137.000 43 50 57
278.000 479.000 137.000 43 50 58
279.000 478.000 137.000 42 50 58
279.000 479.000 137.000 43 50 58
278.000 478.000 138.000 43 50 57
279.000 478.000 138.000 43 50 58
281.000 471.000 141.000 43 49 56
283.000 471.000 142.000 44 50 57
284.000 471.000 142.000 44 50 57
285.000 471.000 143.000 43 49 56
286.000 471.000 143.000 44 50 57
280.000 475.000 139.000 44 50 58
280.000 472.000 141.000 45 51 58
280.000 473.000 140.000 45 51 57
280.000 473.000 141.000 43 49 56
281.000 472.000 141.000 46 52 59
281.000 473.000 140.000 43 50 57
281.000 473.000 141.000 43 50 56
280.000 474.000 140.000 47 52 59
280.000 475.000 140.000 45 51 58
281.000 474.000 140.000 47 52 59
281.000 475.000 140.000 45 52 59
282.000 472.000 141.000 47 52 59
282.000 473.000 141.000 44 50 57
283.000 473.000 141.000 44 50 57
282.000 472.000 142.000 46 52 59
283.000 472.000 142.000 47 53 60
283.000 473.000 142.000 45 51 58
282.000 474.000 140.000 47 53 60
282.000 474.000 141.000 46 52 59
282.000 475.000 140.000 45 52 59
283.000 474.000 141.000 47 53 60
283.000 475.000 140.000 45 51 58
283.000 475.000 141.000 46 52 59
280.000 476.000 139.000 45 51 58
280.000 477.000 138.000 43 50 58
280.000 477.000 139.000 44 51 58
281.000 476.000 139.000 45 51 59
281.000 477.000 138.000 42 50 58
281.000 477.000 139.000 43 50 58
280.000 479.000 137.000 42 49 57
280.000 478.000 138.000 43 50 58
280.000 479.000 138.000 42 50 58
281.000 478.000 138.000 42 49 57
281.000 479.000 138.000 42 49 57
282.000 476.000 139.000 45 51 59
282.000 477.000 139.000 44 50 58
283.000 477.000 139.000 45 51 58
282.000 478.000 138.000 43 50 57
282.000 478.000 139.000 44 51 58
282.000 479.000 138.000 43 51 58
283.000 478.000 139.000 44 51 58
283.000 479.000 138.000 45 51 59
283.000 479.000 139.000 45 51 59
282.000 476.000 140.000 44 51 58
283.000 476.000 140.000 45 51 59
283.000 477.000 140.000 45 51 58
284.000 473.000 141.000 43 49 56
284.000 472.000 142.000 47 52 59
284.000 473.000 142.000 44 50 57
285.000 472.000 142.000 46 52 58
285.000 472.000 143.000 46 51 58
285.000 473.000 142.000 43 49 56
284.000 474.000 141.000 46 52 59
284.000 475.000 141.000 46 52 59
285.000 474.000 141.000 47 52 59
285.000 475.000 141.000 46 52 59
285.000 474.000 142.000 45 51 58
286.000 472.000 143.000 46 52 59
286.000 473.000 142.000 44 50 57
286.000 473.000 143.000 45 51 58
287.000 472.000 143.000 47 52 59
287.000 473.000 143.000 45 51 57
286.000 474.000 142.000 47 52 59
286.000 475.000 142.000 47 53 59
287.000 474.000 142.000 49 54 60
287.000 474.000 143.000 48 53 59
287.000 475.000 142.000 47 52 59
284.000 477.000 139.000 44 51 58
284.000 478.000 139.000 44 51 58
284.000 479.000 139.000 44 51 59
285.000 478.000 139.000 43 50 58
285.000 479.000 139.000 43 50 58
284.000 476.000 140.000 45 51 58
284.000 477.000 140.000 44 51 58
285.000 476.000 140.000 45 51 58
285.000 476.000 141.000 45 51 58
285.000 477.000 140.000 43 50 57
285.000 478.000 140.000 43 50 58
285.000 479.000 140.000 43 50 58
286.000 476.000 141.000 45 50 57
286.000 477.000 141.000 44 50 58
287.000 477.000 141.000 44 51 58
286.000 476.000 142.000 45 51 58
287.000 476.000 142.000 44 51 58
287.000 477.000 142.000 44 50 58
286.000 478.000 140.000 43 50 58
286.000 478.000 141.000 43 50 57
286.000 479.000 140.000 43 50 58
287.000 478.000 141.000 43 50 58
287.000 479.000 140.000 43 50 58
287.000 479.000 141.000 43 50 58
286.000 469.000 145.000 44 51 58
286.000 471.000 144.000 43 49 57
287.000 470.000 145.000 42 49 56
287.000 471.000 144.000 43 50 57
287.000 472.000 144.000 46 52 59
274.000 480.000 135.000 44 51 59
274.000 481.000 135.000 42 49 57
275.000 480.000 135.000 43 50 57
275.000 481.000 135.000 41 48 55
274.000 482.000 135.000 42 49 56
275.000 482.000 135.000 43 49 56
275.000 483.000 134.000 45 51 57
275.000 483.000 135.000 44 50 56
275.000 485.000 133.000 74 78 85
275.000 484.000 134.000 51 56 63
275.000 485.000 134.000 67 72 78
276.000 480.000 135.000 43 50 57
276.000 481.000 135.000 42 49 56
277.000 481.000 135.000 41 49 56
276.000 482.000 135.000 42 49 56
276.000 483.000 135.000 44 50 57
277.000 482.000 135.000 41 49 56
277.000 483.000 135.000 43 50 58
278.000 482.000 135.000 41 48 56
278.000 483.000 135.000 43 50 58
279.000 482.000 135.000 42 49 56
279.000 483.000 135.000 43 50 57
276.000 484.000 134.000 50 56 63
276.000 485.000 134.000 67 72 79
277.000 484.000 134.000 49 55 63
277.000 484.000 135.000 45 52 60
277.000 485.000 134.000 65 70 78
276.000 486.000 133.000 82 87 95
276.000 487.000 133.000 92 98 107
277.000 486.000 133.000 82 87 96
277.000 486.000 134.000 78 83 91
278.000 484.000 134.000 49 55 62
278.000 484.000 135.000 45 52 60
279.000 484.000 134.000 50 56 63
279.000 484.000 135.000 45 52 59
274.000 480.000 136.000 44 52 59
275.000 480.000 136.000 43 50 58
276.000 480.000 136.000 43 50 57
277.000 480.000 136.000 43 50 58
277.000 481.000 136.000 42 49 57
278.000 480.000 136.000 42 50 57
278.000 480.000 137.000 43 50 58
278.000 481.000 136.000 42 49 56
279.000 480.000 136.000 42 49 57
279.000 480.000 137.000 42 49 57
279.000 481.000 136.000 42 49 57
279.000 482.000 136.000 42 49 56
276.000 490.000 132.000 80 88 98
276.000 490.000 133.000 80 88 97
276.000 491.000 132.000 78 85 94
276.000 491.000 133.000 75 82 92
277.000 490.000 133.000 80 87 97
277.000 491.000 133.000 74 81 90
279.000 489.000 133.000 91 97 106
278.000 491.000 133.000 75 82 92
279.000 490.000 134.000 88 94 103
279.000 491.000 134.000 82 88 98
277.000 492.000 133.000 73 79 88
277.000 493.000 133.000 75 81 89
280.000 483.000 135.000 43 49 56
281.000 483.000 135.000 44 50 57
280.000 484.000 135.000 46 52 59
280.000 485.000 134.000 58 64 71
280.000 485.000 135.000 53 58 65
281.000 484.000 135.000 45 51 58
281.000 485.000 135.000 53 59 66
282.000 484.000 135.000 44 51 58
282.000 485.000 135.000 49 55 63
283.000 485.000 135.000 48 54 62
280.000 480.000 137.000 42 49 57
280.000 481.000 136.000 42 49 56
280.000 481.000 137.000 42 49 56
281.000 480.000 137.000 42 50 57
281.000 481.000 136.000 43 50 57
281.000 481.000 137.000 43 50 58
280.000 482.000 136.000 43 49 56
280.000 483.000 136.000 43 49 56
281.000 482.000 136.000 43 50 57
281.000 483.000 136.000 43 49 56
282.000 480.000 137.000 44 51 58
282.000 481.000 137.000 44 51 58
283.000 480.000 137.000 45 51 59
283.000 481.000 137.000 44 51 58
282.000 480.000 138.000 43 51 58
283.000 480.000 138.000 45 52 59
283.000 481.000 138.000 45 52 59
282.000 482.000 136.000 44 50 58
282.000 482.000 137.000 44 50 58
282.000 483.000 136.000 44 50 57
283.000 482.000 136.000 44 50 58
283.000 482.000 137.000 44 50 58
283.000 483.000 136.000 43 50 57
283.000 483.000 137.000 44 50 57
282.000 484.000 136.000 44 50 58
283.000 484.000 136.000 44 50 57
283.000 485.000 136.000 45 52 59
283.000 486.000 136.000 56 62 69
283.000 487.000 136.000 71 77 85
284.000 481.000 137.000 44 51 58
284.000 480.000 138.000 45 51 59
284.000 481.000 138.000 44 51 58
285.000 480.000 138.000 43 51 58
285.000 480.000 139.000 43 50 58
285.000 481.000 138.000 43 50 58
285.000 481.000 139.000 43 50 58
284.000 482.000 137.000 44 50 57
284.000 483.000 136.000 44 50 57
284.000 483.000 137.000 44 50 57
285.000 482.000 137.000 43 49 56
285.000 483.000 137.000 43 49 56
285.000 482.000 138.000 42 49 57
285.000 483.000 138.000 42 49 56
286.000 480.000 139.000 43 50 58
286.000 481.000 138.000 42 49 57
286.000 481.000 139.000 42 50 57
287.000 481.000 139.000 42 49 57
286.000 482.000 138.000 42 49 57
286.000 483.000 138.000 42 49 56
287.000 482.000 139.000 42 49 57
287.000 483.000 138.000 42 49 56
287.000 483.000 139.000 43 49 56
286.000 480.000 140.000 43 50 58
287.000 480.000 140.000 43 50 58
287.000 481.000 140.000 42 49 57
284.000 484.000 136.000 44 50 57
284.000 484.000 137.000 43 50 57
284.000 485.000 136.000 44 51 58
285.000 484.000 137.000 43 50 57
285.000 485.000 136.000 43 50 58
285.000 485.000 137.000 43 50 58
284.000 486.000 136.000 52 59 66
284.000 487.000 136.000 71 77 85
285.000 486.000 136.000 49 57 65
285.000 486.000 137.000 49 56 64
285.000 487.000 136.000 69 75 83
286.000 484.000 137.000 43 49 57
286.000 485.000 137.000 43 50 57
286.000 484.000 138.000 42 49 56
287.000 484.000 138.000 42 49 56
287.000 485.000 138.000 43 50 57
286.000 486.000 137.000 46 54 61
286.000 487.000 137.000 64 70 78
287.000 487.000 137.000 62 67 75
287.000 486.000 138.000 45 52 60
287.000 487.000 138.000 59 66 73
280.000 490.000 134.000 80 86 95
280.000 491.000 134.000 76 82 91
281.000 490.000 134.000 76 82 91
282.000 490.000 135.000 78 84 92
282.000 491.000 135.000 76 82 91
284.000 495.000 135.000 79 85 94
283.000 488.000 136.000 79 86 95
283.000 489.000 136.000 82 88 97
283.000 490.000 136.000 85 92 101
283.000 491.000 136.000 84 91 100
283.000 492.000 136.000 80 87 96
283.000 493.000 136.000 77 84 92
284.000 488.000 136.000 83 90 99
284.000 489.000 136.000 88 94 103
285.000 488.000 136.000 85 91 101
285.000 488.000 137.000 88 95 105
285.000 489.000 137.000 95 101 111
284.000 490.000 136.000 92 98 108
284.000 491.000 136.000 92 99 109
285.000 490.000 137.000 99 105 115
285.000 491.000 137.000 99 106 115
286.000 488.000 137.000 82 88 97
286.000 489.000 137.000 92 99 108
287.000 488.000 137.000 76 82 91
287.000 488.000 138.000 73 79 87
287.000 489.000 138.000 78 84 94
286.000 490.000 137.000 97 103 113
286.000 491.000 137.000 99 106 116
287.000 490.000 137.000 86 93 103
287.000 491.000 137.000 92 98 108
287.000 490.000 138.000 81 88 98
287.000 491.000 138.000 90 96 106
285.000 492.000 137.000 94 100 109
286.000 492.000 137.000 92 98 108
287.000 492.000 138.000 89 95 104
287.000 493.000 138.000 83 89 98
286.000 495.000 136.000 77 83 91
287.000 495.000 137.000 78 83 92
277.000 498.000 131.000 75 81 89
278.000 497.000 132.000 77 83 91
279.000 496.000 132.000 76 82 90
279.000 497.000 132.000 76 82 90
278.000 498.000 132.000 75 81 89
279.000 498.000 132.000 74 80 89
280.000 497.000 133.000 79 85 94
281.000 496.000 133.000 88 94 103
281.000 497.000 133.000 87 93 101
280.000 498.000 133.000 77 84 92
281.000 498.000 133.000 83 89 97
282.000 496.000 134.000 87 93 101
282.000 497.000 134.000 88 94 102
283.000 497.000 134.000 83 88 97
282.000 498.000 134.000 85 91 99
282.000 499.000 134.000 82 88 96
283.000 498.000 134.000 82 87 95
282.000 500.000 133.000 81 87 95
284.000 496.000 135.000 79 85 93
284.000 497.000 135.000 78 84 93
284.000 498.000 135.000 79 84 92
284.000 499.000 135.000 82 88 96
285.000 498.000 135.000 78 83 91
285.000 499.000 135.000 81 86 94
284.000 500.000 135.000 88 94 102
285.000 498.000 136.000 78 83 91
285.000 499.000 136.000 79 84 92
286.000 496.000 136.000 78 83 91
286.000 497.000 136.000 77 83 91
286.000 497.000 137.000 76 82 90
287.000 496.000 137.000 76 82 90
287.000 497.000 137.000 76 82 90
286.000 498.000 136.000 77 83 91
286.000 498.000 137.000 77 82 90
286.000 499.000 136.000 77 82 90
286.000 499.000 137.000 77 82 90
287.000 498.000 137.000 76 82 90
287.000 499.000 137.000 77 82 90
285.000 500.000 136.000 80 86 94
286.000 500.000 136.000 77 83 91
287.000 500.000 137.000 77 83 91
288.000 473.000 143.000 44 50 57
288.000 474.000 143.000 48 53 60
288.000 475.000 143.000 46 52 59
289.000 475.000 143.000 46 52 60
288.000 476.000 142.000 44 51 58
288.000 476.000 143.000 44 50 58
288.000 477.000 142.000 43 50 57
288.000 477.000 143.000 42 49 57
289.000 476.000 143.000 45 51 59
289.000 477.000 143.000 42 50 57
288.000 478.000 141.000 43 50 57
288.000 479.000 141.000 42 50 57
288.000 478.000 142.000 42 49 57
288.000 479.000 142.000 43 50 57
289.000 478.000 142.000 42 50 57
289.000 478.000 143.000 43 50 58
289.000 479.000 142.000 43 50 58
290.000 478.000 143.000 44 51 59
290.000 479.000 143.000 43 51 58
291.000 479.000 143.000 43 50 59
288.000 469.000 146.000 42 49 56
289.000 469.000 147.000 42 49 56
288.000 471.000 144.000 43 50 57
288.000 471.000 145.000 43 49 57
289.000 471.000 145.000 43 50 57
289.000 471.000 146.000 42 49 57
290.000 469.000 147.000 45 51 59
290.000 470.000 147.000 44 50 57
290.000 471.000 146.000 44 50 57
291.000 471.000 146.000 44 51 58
291.000 471.000 147.000 45 51 58
292.000 471.000 147.000 46 52 59
293.000 471.000 148.000 45 52 59
294.000 471.000 149.000 47 53 60
295.000 471.000 149.000 49 55 62
295.000 471.000 150.000 50 55 63
288.000 472.000 144.000 46 52 59
288.000 473.000 144.000 45 51 58
289.000 472.000 145.000 47 53 60
289.000 473.000 144.000 45 51 59
289.000 473.000 145.000 45 52 59
289.000 474.000 144.000 48 54 61
289.000 475.000 144.000 46 53 60
290.000 472.000 145.000 47 53 60
290.000 473.000 144.000 46 52 59
290.000 473.000 145.000 46 52 59
291.000 473.000 145.000 46 52 59
290.000 472.000 146.000 46 52 59
291.000 472.000 146.000 48 53 60
291.000 473.000 146.000 46 52 59
290.000 474.000 144.000 49 55 62
290.000 474.000 145.000 48 54 61
290.000 475.000 144.000 47 53 61
290.000 475.000 145.000 48 54 61
291.000 474.000 145.000 49 55 62
291.000 475.000 145.000 47 53 60
291.000 474.000 146.000 48 54 61
289.000 476.000 144.000 45 52 60
290.000 476.000 144.000 44 51 59
290.000 477.000 144.000 44 51 58
291.000 476.000 145.000 44 51 58
291.000 477.000 144.000 44 51 59
291.000 477.000 145.000 44 51 59
290.000 478.000 144.000 44 51 58
291.000 478.000 144.000 44 51 59
291.000 479.000 144.000 43 51 59
292.000 472.000 146.000 47 53 60
292.000 472.000 147.000 47 53 60
292.000 473.000 146.000 45 52 59
292.000 473.000 147.000 45 51 58
293.000 472.000 147.000 47 53 60
293.000 473.000 147.000 45 51 59
292.000 474.000 146.000 47 53 60
292.000 475.000 146.000 47 53 60
293.000 474.000 146.000 46 53 60
293.000 474.000 147.000 46 52 60
293.000 475.000 146.000 47 54 61
293.000 475.000 147.000 47 54 61
294.000 474.000 147.000 46 52 60
294.000 475.000 147.000 47 54 61
293.000 472.000 148.000 47 53 60
294.000 472.000 148.000 47 53 60
294.000 472.000 149.000 48 54 61
294.000 473.000 148.000 45 51 58
295.000 472.000 149.000 48 54 61
295.000 473.000 148.000 45 52 59
295.000 473.000 149.000 46 52 59
294.000 474.000 148.000 46 53 60
294.000 475.000 148.000 46 53 60
295.000 474.000 148.000 47 54 61
295.000 474.000 149.000 47 53 60
295.000 475.000 148.000 47 53 60
292.000 476.000 145.000 44 51 59
292.000 477.000 145.000 44 51 59
292.000 476.000 146.000 45 51 59
292.000 477.000 146.000 44 51 59
293.000 476.000 146.000 45 52 60
293.000 476.000 147.000 46 53 60
293.000 477.000 146.000 44 52 60
292.000 478.000 145.000 44 52 60
292.000 479.000 144.000 44 52 60
292.000 479.000 145.000 45 53 61
293.000 478.000 145.000 45 52 60
293.000 479.000 145.000 45 53 61
293.000 478.000 146.000 45 52 60
293.000 479.000 146.000 44 52 60
294.000 476.000 147.000 44 51 59
294.000 477.000 147.000 43 51 59
295.000 477.000 147.000 43 51 59
294.000 478.000 146.000 45 52 60
294.000 478.000 147.000 44 51 59
294.000 479.000 146.000 44 52 60
294.000 479.000 147.000 45 52 60
295.000 478.000 147.000 44 52 60
295.000 479.000 146.000 44 52 60
295.000 479.000 147.000 45 52 60
295.000 476.000 148.000 45 52 59
295.000 477.000 148.000 44 52 59
297.000 469.000 150.000 50 56 63
296.000 471.000 150.000 48 54 61
297.000 470.000 150.000 50 56 63
297.000 471.000 150.000 48 54 61
297.000 471.000 151.000 47 54 61
298.000 471.000 151.000 45 52 59
299.000 471.000 151.000 44 51 59
299.000 471.000 152.000 43 51 59
300.000 469.000 153.000 44 52 61
300.000 470.000 153.000 44 52 60
300.000 471.000 152.000 44 51 59
301.000 471.000 152.000 45 52 59
301.000 471.000 153.000 45 52 60
302.000 471.000 153.000 45 52 60
302.000 470.000 154.000 45 53 62
303.000 471.000 154.000 45 52 61
296.000 473.000 149.000 46 52 59
296.000 472.000 150.000 45 52 59
296.000 473.000 150.000 46 53 60
297.000 472.000 150.000 46 52 59
297.000 472.000 151.000 46 52 59
297.000 473.000 150.000 46 52 59
296.000 474.000 149.000 48 54 61
296.000 475.000 148.000 46 53 60
296.000 475.000 149.000 47 53 60
297.000 474.000 149.000 47 53 60
297.000 475.000 149.000 46 52 59
297.000 474.000 150.000 46 52 59
297.000 475.000 150.000 45 52 59
298.000 472.000 151.000 43 51 58
298.000 473.000 150.000 43 50 58
298.000 473.000 151.000 43 50 58
299.000 472.000 151.000 43 50 58
299.000 473.000 151.000 43 50 58
298.000 474.000 150.000 44 51 59
298.000 474.000 151.000 44 51 59
298.000 475.000 150.000 45 52 60
299.000 474.000 151.000 44 52 59
299.000 475.000 151.000 45 52 60
296.000 479.000 147.000 46 53 61
296.000 476.000 148.000 46 52 60
296.000 476.000 149.000 46 52 60
296.000 477.000 148.000 46 52 60
297.000 476.000 149.000 46 53 60
297.000 477.000 149.000 46 53 60
297.000 476.000 150.000 45 52 60
296.000 478.000 148.000 45 52 60
296.000 479.000 148.000 46 53 60
297.000 478.000 148.000 45 52 60
297.000 478.000 149.000 45 52 60
297.000 479.000 148.000 45 52 60
298.000 476.000 149.000 46 53 60
298.000 477.000 149.000 46 52 60
298.000 476.000 150.000 45 52 60
298.000 477.000 150.000 45 52 60
299.000 476.000 150.000 44 52 60
299.000 476.000 151.000 44 52 60
299.000 477.000 150.000 44 52 60
299.000 477.000 151.000 44 52 60
298.000 478.000 149.000 45 52 59
298.000 479.000 148.000 44 51 59
298.000 479.000 149.000 45 52 59
299.000 479.000 149.000 45 53 60
298.000 478.000 150.000 44 52 60
299.000 478.000 150.000 44 52 60
299.000 479.000 150.000 45 52 60
300.000 473.000 151.000 44 51 59
300.000 474.000 151.000 44 52 59
300.000 475.000 151.000 44 51 59
300.000 476.000 151.000 45 52 60
300.000 477.000 151.000 44 51 59
300.000 478.000 151.000 43 51 59
300.000 479.000 150.000 45 52 60
300.000 479.000 151.000 44 51 59
301.000 478.000 151.000 43 51 59
301.000 479.000 151.000 43 51 59
299.000 472.000 152.000 43 51 59
300.000 472.000 152.000 44 51 58
300.000 473.000 152.000 43 51 58
301.000 472.000 152.000 44 51 59
301.000 472.000 153.000 44 52 59
301.000 473.000 152.000 43 51 58
301.000 473.000 153.000 43 50 58
300.000 474.000 152.000 44 51 59
300.000 475.000 152.000 44 51 59
301.000 474.000 152.000 43 51 59
301.000 475.000 152.000 43 51 59
302.000 472.000 153.000 44 52 60
302.000 473.000 153.000 43 51 59
303.000 472.000 153.000 44 51 60
303.000 473.000 153.000 43 51 59
303.000 472.000 154.000 44 52 60
303.000 473.000 154.000 43 51 59
302.000 474.000 153.000 44 52 60
302.000 475.000 152.000 44 51 59
302.000 475.000 153.000 44 52 60
303.000 474.000 153.000 44 52 60
303.000 475.000 153.000 44 52 60
303.000 474.000 154.000 44 52 60
301.000 476.000 152.000 43 51 59
301.000 477.000 152.000 43 51 59
301.000 478.000 152.000 43 50 59
301.000 479.000 152.000 43 51 59
302.000 476.000 152.000 44 51 59
302.000 476.000 153.000 44 52 60
302.000 477.000 152.000 44 52 59
302.000 477.000 153.000 45 52 60
303.000 476.000 153.000 45 52 60
303.000 477.000 153.000 45 52 60
302.000 478.000 152.000 44 51 59
302.000 479.000 152.000 44 51 59
303.000 478.000 152.000 44 51 59
303.000 478.000 153.000 45 53 61
303.000 479.000 152.000 44 51 59
303.000 479.000 153.000 46 53 61
304.000 471.000 154.000 47 55 63
305.000 470.000 154.000 47 55 64
305.000 470.000 155.000 45 54 63
305.000 471.000 154.000 47 55 63
305.000 471.000 155.000 44 53 62
306.000 469.000 155.000 47 55 64
306.000 470.000 155.000 46 55 64
306.000 471.000 155.000 46 54 64
307.000 471.000 156.000 46 55 65
304.000 472.000 154.000 47 55 63
304.000 473.000 154.000 46 53 61
305.000 472.000 154.000 47 54 63
305.000 472.000 155.000 44 53 62
305.000 473.000 154.000 45 53 61
305.000 473.000 155.000 44 52 61
304.000 474.000 154.000 46 53 61
304.000 475.000 154.000 46 53 61
305.000 474.000 154.000 45 52 60
305.000 475.000 154.000 46 53 61
306.000 472.000 155.000 46 54 63
306.000 473.000 155.000 46 54 62
306.000 474.000 155.000 45 52 60
306.000 475.000 155.000 46 53 61
307.000 472.000 156.000 46 55 65
307.000 473.000 156.000 45 54 63
307.000 474.000 156.000 43 52 60
307.000 475.000 156.000 44 52 60
304.000 476.000 153.000 47 54 62
304.000 477.000 153.000 47 54 61
304.000 476.000 154.000 47 54 62
304.000 477.000 154.000 47 54 62
305.000 476.000 154.000 47 54 61
305.000 477.000 154.000 47 54 61
304.000 478.000 153.000 47 54 62
304.000 479.000 153.000 47 54 62
305.000 479.000 153.000 46 53 61
305.000 478.000 154.000 47 54 61
305.000 479.000 154.000 47 54 61
306.000 476.000 154.000 47 54 61
306.000 476.000 155.000 47 54 61
306.000 477.000 154.000 47 54 62
306.000 477.000 155.000 48 54 62
307.000 477.000 155.000 46 53 61
306.000 478.000 154.000 48 54 62
306.000 478.000 155.000 48 54 62
306.000 479.000 154.000 48 54 62
306.000 479.000 155.000 48 54 62
307.000 478.000 155.000 45 52 60
307.000 479.000 155.000 46 53 61
307.000 476.000 156.000 44 51 59
307.000 477.000 156.000 44 52 60
307.000 478.000 156.000 44 52 60
307.000 479.000 156.000 43 50 59
308.000 472.000 156.000 47 56 66
308.000 473.000 156.000 44 53 63
308.000 474.000 156.000 44 52 61
308.000 474.000 157.000 43 52 61
308.000 475.000 156.000 43 51 60
308.000 475.000 157.000 43 51 60
309.000 475.000 157.000 42 50 59
308.000 476.000 156.000 43 51 59
308.000 476.000 157.000 42 50 59
308.000 477.000 156.000 43 50 59
308.000 477.000 157.000 41 49 57
309.000 476.000 157.000 42 50 59
309.000 477.000 157.000 40 48 57
308.000 478.000 156.000 43 51 59
308.000 478.000 157.000 41 49 57
308.000 479.000 156.000 41 49 57
308.000 479.000 157.000 41 49 57
309.000 478.000 157.000 41 49 57
309.000 479.000 157.000 43 50 59
288.000 482.000 139.000 43 50 57
288.000 483.000 139.000 43 49 57
289.000 483.000 139.000 44 50 57
288.000 480.000 140.000 43 50 57
288.000 480.000 141.000 43 50 58
288.000 481.000 140.000 44 51 58
289.000 480.000 141.000 43 50 58
289.000 481.000 140.000 45 51 59
289.000 481.000 141.000 45 51 59
289.000 480.000 142.000 43 50 58
288.000 482.000 140.000 43 50 58
289.000 482.000 140.000 44 51 58
289.000 482.000 141.000 45 52 59
289.000 483.000 140.000 44 51 58
290.000 481.000 141.000 44 51 59
290.000 480.000 142.000 44 51 59
290.000 480.000 143.000 43 51 59
290.000 481.000 142.000 44 51 59
291.000 480.000 142.000 44 51 59
291.000 480.000 143.000 44 52 60
291.000 481.000 142.000 44 51 59
291.000 481.000 143.000 44 52 59
290.000 482.000 141.000 45 51 59
290.000 483.000 140.000 45 51 59
290.000 483.000 141.000 45 52 59
291.000 482.000 141.000 45 51 59
291.000 483.000 141.000 45 52 59
291.000 482.000 142.000 45 52 59
291.000 483.000 142.000 45 52 59
288.000 484.000 138.000 43 50 57
288.000 484.000 139.000 43 49 57
288.000 485.000 138.000 43 50 57
288.000 485.000 139.000 43 50 57
289.000 484.000 139.000 43 50 57
289.000 485.000 139.000 44 50 57
288.000 486.000 138.000 44 51 59
288.000 487.000 138.000 57 63 70
289.000 486.000 139.000 44 51 58
289.000 487.000 138.000 62 67 74
289.000 487.000 139.000 51 57 64
290.000 486.000 139.000 46 52 58
290.000 487.000 139.000 50 55 62
289.000 484.000 140.000 44 51 58
290.000 484.000 140.000 44 51 58
290.000 485.000 140.000 44 51 58
291.000 484.000 140.000 44 51 58
291.000 484.000 141.000 45 52 59
291.000 485.000 140.000 44 51 58
291.000 485.000 141.000 45 51 58
291.000 486.000 140.000 45 51 58
292.000 480.000 143.000 44 52 60
292.000 481.000 143.000 45 52 60
292.000 482.000 142.000 45 52 59
292.000 482.000 143.000 45 52 59
292.000 483.000 142.000 45 52 59
292.000 483.000 143.000 45 51 59
293.000 482.000 143.000 45 52 59
293.000 483.000 143.000 45 52 59
292.000 484.000 141.000 46 52 60
292.000 485.000 141.000 45 51 58
292.000 484.000 142.000 46 52 60
293.000 484.000 142.000 45 51 59
293.000 484.000 143.000 45 52 59
293.000 485.000 142.000 44 51 58
292.000 486.000 140.000 45 52 59
292.000 486.000 141.000 44 51 58
292.000 487.000 140.000 47 53 61
293.000 486.000 141.000 44 51 58
293.000 487.000 141.000 43 50 59
293.000 486.000 142.000 43 50 58
294.000 484.000 143.000 44 51 58
294.000 485.000 142.000 43 50 58
294.000 485.000 143.000 43 50 58
295.000 484.000 143.000 44 51 58
295.000 485.000 143.000 43 50 58
294.000 487.000 141.000 43 50 58
294.000 486.000 142.000 43 50 58
294.000 487.000 142.000 44 50 58
295.000 486.000 142.000 44 51 58
295.000 486.000 143.000 44 51 58
288.000 488.000 138.000 72 77 85
288.000 489.000 138.000 79 85 93
289.000 488.000 138.000 72 77 84
289.000 488.000 139.000 69 74 82
289.000 489.000 138.000 80 85 94
289.000 489.000 139.000 78 83 91
288.000 490.000 138.000 81 87 96
288.000 491.000 138.000 82 88 98
289.000 490.000 138.000 81 87 96
289.000 490.000 139.000 82 88 96
289.000 491.000 138.000 81 88 97
289.000 491.000 139.000 83 89 98
290.000 488.000 139.000 65 70 77
290.000 489.000 139.000 73 79 87
291.000 489.000 139.000 73 78 86
290.000 490.000 139.000 82 87 95
290.000 491.000 139.000 84 90 99
291.000 490.000 139.000 81 86 94
291.000 491.000 139.000 85 91 99
291.000 488.000 140.000 64 69 76
291.000 489.000 140.000 74 79 87
291.000 490.000 140.000 83 88 96
292.000 488.000 140.000 60 65 72
292.000 489.000 140.000 73 78 86
293.000 488.000 140.000 55 60 68
293.000 488.000 141.000 47 55 64
293.000 489.000 140.000 68 73 81
293.000 489.000 141.000 61 67 76
292.000 490.000 140.000 84 89 97
292.000 491.000 140.000 85 90 99
293.000 490.000 140.000 81 86 95
293.000 490.000 141.000 77 83 92
293.000 491.000 140.000 85 90 99
294.000 488.000 141.000 45 53 62
294.000 489.000 141.000 54 62 71
295.000 489.000 141.000 52 60 69
295.000 489.000 142.000 51 58 67
294.000 490.000 141.000 75 81 90
294.000 491.000 141.000 85 90 99
295.000 490.000 141.000 72 78 86
295.000 491.000 141.000 83 89 98
295.000 490.000 142.000 65 71 79
295.000 491.000 142.000 78 84 93
293.000 492.000 140.000 85 90 98
293.000 493.000 140.000 83 89 98
292.000 495.000 140.000 77 83 92
293.000 494.000 140.000 82 88 97
294.000 492.000 141.000 87 93 102
294.000 493.000 141.000 89 95 105
295.000 492.000 142.000 87 93 102
295.000 493.000 142.000 89 96 105
294.000 494.000 141.000 95 101 110
294.000 495.000 141.000 93 99 109
295.000 494.000 142.000 98 103 113
295.000 495.000 142.000 95 101 110
296.000 485.000 143.000 44 51 59
296.000 486.000 143.000 43 51 59
296.000 487.000 142.000 43 50 58
296.000 488.000 142.000 43 51 59
296.000 489.000 142.000 50 57 65
296.000 489.000 143.000 46 53 61
297.000 488.000 143.000 43 50 58
297.000 489.000 143.000 46 53 60
296.000 490.000 142.000 62 68 77
296.000 490.000 143.000 58 65 73
296.000 491.000 142.000 74 80 89
296.000 491.000 143.000 69 75 83
297.000 490.000 143.000 55 62 69
297.000 491.000 143.000 74 79 87
296.000 492.000 142.000 84 90 99
296.000 493.000 142.000 87 93 102
296.000 493.000 143.000 87 93 102
297.000 492.000 143.000 84 90 98
297.000 493.000 143.000 85 91 100
296.000 494.000 142.000 91 97 107
296.000 494.000 143.000 87 93 103
296.000 495.000 142.000 89 95 105
296.000 495.000 143.000 85 91 101
297.000 494.000 143.000 84 90 99
297.000 495.000 143.000 82 89 98
292.000 480.000 144.000 45 53 61
292.000 480.000 145.000 46 53 61
292.000 481.000 144.000 45 53 61
293.000 480.000 145.000 46 53 61
293.000 481.000 144.000 46 53 61
293.000 481.000 145.000 46 53 61
293.000 482.000 144.000 45 52 60
294.000 480.000 145.000 45 52 60
294.000 481.000 145.000 46 53 61
295.000 481.000 145.000 45 52 60
294.000 480.000 146.000 44 52 60
295.000 480.000 146.000 45 52 60
295.000 480.000 147.000 45 53 60
295.000 481.000 146.000 45 53 61
294.000 482.000 144.000 45 52 60
294.000 482.000 145.000 45 52 60
294.000 483.000 144.000 44 52 59
295.000 482.000 145.000 45 52 60
295.000 483.000 144.000 44 51 59
295.000 483.000 145.000 44 51 59
294.000 484.000 144.000 43 51 58
295.000 484.000 144.000 44 51 59
296.000 480.000 147.000 47 54 62
296.000 481.000 146.000 46 53 61
296.000 481.000 147.000 46 53 61
297.000 480.000 147.000 46 53 61
297.000 481.000 147.000 45 53 60
296.000 482.000 145.000 45 52 60
296.000 483.000 145.000 45 52 60
296.000 482.000 146.000 45 52 60
296.000 483.000 146.000 45 52 60
297.000 482.000 146.000 45 52 60
297.000 482.000 147.000 45 52 60
297.000 483.000 146.000 44 51 59
298.000 481.000 147.000 44 52 60
298.000 482.000 147.000 44 52 60
298.000 483.000 147.000 44 52 60
299.000 483.000 147.000 46 53 62
297.000 480.000 148.000 45 52 60
298.000 480.000 148.000 44 51 59
298.000 480.000 149.000 45 52 60
298.000 481.000 148.000 44 52 60
299.000 480.000 149.000 46 53 61
299.000 481.000 149.000 46 53 61
299.000 480.000 150.000 46 53 61
298.000 482.000 148.000 45 52 60
298.000 483.000 148.000 46 53 61
299.000 482.000 148.000 46 53 61
299.000 482.000 149.000 45 53 61
299.000 483.000 148.000 46 53 62
296.000 484.000 144.000 44 51 59
296.000 484.000 145.000 45 52 60
296.000 485.000 144.000 44 51 59
297.000 484.000 145.000 44 52 60
297.000 485.000 144.000 44 51 59
297.000 485.000 145.000 44 51 59
297.000 484.000 146.000 44 51 60
296.000 486.000 144.000 44 51 59
297.000 486.000 144.000 44 51 59
297.000 486.000 145.000 44 52 60
297.000 487.000 144.000 44 51 60
298.000 485.000 145.000 44 51 60
298.000 484.000 146.000 44 52 60
298.000 484.000 147.000 45 53 61
298.000 485.000 146.000 45 52 60
299.000 484.000 147.000 46 54 62
299.000 485.000 147.000 46 53 61
298.000 486.000 145.000 45 52 60
298.000 487.000 145.000 44 52 60
298.000 486.000 146.000 45 52 60
298.000 487.000 146.000 44 52 60
299.000 486.000 146.000 45 52 60
299.000 486.000 147.000 46 53 61
299.000 487.000 146.000 45 53 61
299.000 487.000 147.000 46 53 61
299.000 484.000 148.000 47 54 62
300.000 481.000 149.000 45 53 61
300.000 480.000 150.000 45 52 60
300.000 480.000 151.000 44 52 60
300.000 481.000 150.000 46 53 61
301.000 480.000 150.000 44 51 59
301.000 480.000 151.000 43 51 59
301.000 481.000 150.000 45 52 60
301.000 481.000 151.000 43 51 59
300.000 482.000 149.000 45 53 61
300.000 483.000 148.000 46 54 62
300.000 483.000 149.000 46 53 61
301.000 483.000 149.000 46 53 61
300.000 482.000 150.000 46 53 61
301.000 482.000 150.000 44 51 60
301.000 482.000 151.000 43 51 59
301.000 483.000 150.000 45 52 60
302.000 480.000 151.000 43 51 59
302.000 481.000 151.000 43 51 58
302.000 482.000 151.000 43 50 58
302.000 483.000 150.000 44 51 59
302.000 483.000 151.000 43 51 58
303.000 482.000 151.000 45 52 59
303.000 483.000 151.000 46 53 60
300.000 485.000 147.000 47 54 62
300.000 486.000 147.000 45 53 61
300.000 487.000 147.000 45 53 61
300.000 484.000 148.000 46 54 62
300.000 485.000 148.000 47 54 62
301.000 484.000 149.000 46 54 61
301.000 485.000 148.000 46 53 61
301.000 485.000 149.000 46 53 61
301.000 484.000 150.000 46 53 61
300.000 486.000 148.000 46 53 62
300.000 487.000 148.000 45 53 61
301.000 486.000 148.000 45 53 61
301.000 486.000 149.000 44 52 60
301.000 487.000 148.000 45 53 61
301.000 487.000 149.000 43 51 59
302.000 485.000 149.000 45 52 60
302.000 484.000 150.000 45 52 60
302.000 485.000 150.000 45 52 60
303.000 484.000 151.000 48 54 62
303.000 485.000 150.000 45 52 60
303.000 485.000 151.000 47 54 62
302.000 486.000 149.000 44 52 60
302.000 487.000 149.000 43 51 59
302.000 486.000 150.000 44 52 60
302.000 487.000 150.000 43 51 59
303.000 486.000 150.000 45 52 60
303.000 486.000 151.000 46 53 61
303.000 487.000 150.000 44 51 60
303.000 487.000 151.000 45 53 61
302.000 480.000 152.000 44 51 59
302.000 481.000 152.000 43 50 58
303.000 480.000 152.000 45 52 60
303.000 480.000 153.000 46 53 61
303.000 481.000 152.000 45 52 60
303.000 482.000 152.000 46 53 61
303.000 483.000 152.000 45 52 60
297.000 488.000 144.000 44 51 58
297.000 489.000 144.000 45 51 58
297.000 490.000 144.000 53 59 67
298.000 488.000 144.000 44 51 59
298.000 488.000 145.000 44 51 59
298.000 489.000 144.000 44 51 58
298.000 489.000 145.000 43 50 58
299.000 489.000 145.000 43 50 58
299.000 489.000 146.000 45 52 60
298.000 490.000 144.000 50 56 64
298.000 490.000 145.000 48 55 63
298.000 491.000 144.000 71 77 84
298.000 491.000 145.000 63 69 77
299.000 490.000 145.000 47 54 61
299.000 491.000 145.000 57 64 71
299.000 490.000 146.000 47 54 62
299.000 491.000 146.000 55 62 69
297.000 492.000 144.000 87 92 101
297.000 493.000 144.000 86 91 100
297.000 494.000 144.000 82 88 98
297.000 495.000 144.000 82 89 98
298.000 492.000 144.000 86 91 100
298.000 493.000 144.000 86 92 102
298.000 493.000 145.000 87 93 102
299.000 492.000 145.000 77 83 91
299.000 493.000 145.000 85 91 100
299.000 492.000 146.000 70 76 84
299.000 493.000 146.000 78 85 94
298.000 494.000 144.000 83 89 99
298.000 495.000 144.000 84 91 101
299.000 495.000 146.000 97 104 114
300.000 489.000 147.000 45 52 60
300.000 490.000 146.000 45 52 60
300.000 490.000 147.000 46 53 61
300.000 491.000 147.000 52 58 66
301.000 488.000 149.000 44 52 60
301.000 489.000 148.000 44 52 60
301.000 489.000 149.000 43 52 60
301.000 490.000 148.000 45 52 61
301.000 491.000 148.000 48 55 64
302.000 488.000 149.000 45 53 61
302.000 489.000 149.000 44 52 61
303.000 488.000 150.000 45 53 62
303.000 488.000 151.000 46 54 62
303.000 489.000 150.000 46 54 62
303.000 489.000 151.000 47 55 63
302.000 490.000 149.000 45 53 61
302.000 491.000 149.000 47 54 63
303.000 490.000 150.000 47 55 63
303.000 491.000 150.000 47 55 63
300.000 492.000 147.000 64 70 79
300.000 493.000 147.000 77 83 91
300.000 494.000 147.000 90 96 106
300.000 495.000 147.000 99 105 115
301.000 492.000 148.000 58 65 73
301.000 493.000 148.000 74 79 88
301.000 494.000 148.000 86 91 100
301.000 495.000 148.000 89 95 104
302.000 492.000 149.000 52 59 67
302.000 493.000 149.000 64 71 80
303.000 492.000 150.000 48 56 64
303.000 493.000 150.000 57 64 72
302.000 494.000 149.000 83 89 97
302.000 495.000 149.000 87 92 101
303.000 494.000 149.000 80 85 94
303.000 495.000 149.000 86 91 100
303.000 494.000 150.000 76 82 90
303.000 495.000 150.000 85 90 99
289.000 496.000 138.000 84 90 99
289.000 497.000 138.000 82 88 97
288.000 498.000 137.000 78 83 92
288.000 499.000 137.000 79 85 93
288.000 498.000 138.000 79 85 93
288.000 499.000 138.000 81 87 95
289.000 498.000 138.000 79 85 94
289.000 499.000 138.000 82 88 96
290.000 497.000 139.000 81 87 95
291.000 497.000 139.000 79 84 92
290.000 498.000 139.000 80 86 94
290.000 499.000 139.000 81 87 96
291.000 498.000 139.000 80 85 93
291.000 499.000 139.000 81 86 95
288.000 500.000 137.000 83 89 97
288.000 500.000 138.000 86 92 101
289.000 500.000 138.000 89 95 103
289.000 500.000 139.000 89 94 103
290.000 500.000 139.000 82 88 97
291.000 500.000 139.000 82 88 97
292.000 496.000 140.000 77 82 91
292.000 497.000 140.000 78 83 92
293.000 496.000 141.000 79 85 94
293.000 497.000 141.000 79 85 93
292.000 498.000 140.000 80 86 94
292.000 499.000 140.000 81 87 95
293.000 498.000 140.000 81 86 95
293.000 498.000 141.000 82 88 96
293.000 499.000 140.000 83 88 97
293.000 499.000 141.000 84 89 97
294.000 496.000 141.000 85 91 100
294.000 497.000 141.000 80 86 95
294.000 497.000 142.000 80 87 95
295.000 496.000 142.000 86 92 101
295.000 497.000 142.000 80 86 95
294.000 498.000 141.000 83 88 97
295.000 498.000 142.000 82 88 97
295.000 499.000 142.000 84 89 98
292.000 500.000 140.000 80 86 95
293.000 500.000 140.000 81 88 96
293.000 500.000 141.000 83 88 97
296.000 496.000 142.000 83 89 98
296.000 496.000 143.000 81 87 96
296.000 497.000 143.000 81 86 95
297.000 496.000 143.000 80 86 95
297.000 497.000 143.000 80 85 94
296.000 498.000 143.000 82 88 96
296.000 499.000 143.000 83 88 97
296.000 500.000 143.000 82 88 96
297.000 496.000 144.000 82 88 97
297.000 497.000 144.000 80 86 95
297.000 498.000 144.000 80 85 94
297.000 499.000 144.000 81 87 95
298.000 496.000 145.000 85 91 101
298.000 497.000 145.000 82 88 97
298.000 498.000 145.000 78 85 94
298.000 499.000 145.000 80 86 94
299.000 499.000 146.000 78 84 92
298.000 500.000 145.000 81 87 95
300.000 496.000 147.000 102 108 118
300.000 497.000 147.000 97 103 113
300.000 498.000 147.000 87 93 102
300.000 499.000 147.000 84 90 99
301.000 497.000 148.000 89 95 105
301.000 498.000 148.000 86 93 102
301.000 499.000 148.000 88 94 104
302.000 497.000 149.000 85 91 100
303.000 496.000 150.000 85 90 99
300.000 500.000 147.000 85 90 99
301.000 500.000 148.000 97 102 111
304.000 484.000 151.000 50 56 64
304.000 485.000 151.000 50 56 64
304.000 486.000 151.000 50 56 64
304.000 487.000 151.000 47 54 62
304.000 480.000 153.000 46 53 61
304.000 481.000 152.000 47 54 61
304.000 481.000 153.000 46 53 61
305.000 480.000 153.000 45 52 60
305.000 481.000 153.000 45 52 60
305.000 480.000 154.000 46 53 61
305.000 481.000 154.000 47 54 62
304.000 482.000 152.000 47 54 62
304.000 482.000 153.000 45 53 60
304.000 483.000 152.000 47 54 61
304.000 483.000 153.000 45 52 60
305.000 482.000 153.000 47 53 61
305.000 483.000 153.000 47 54 62
305.000 482.000 154.000 49 55 63
305.000 483.000 154.000 50 56 64
306.000 480.000 154.000 47 54 61
306.000 480.000 155.000 48 54 61
306.000 481.000 154.000 48 54 62
307.000 480.000 155.000 45 52 59
307.000 481.000 155.000 44 51 59
306.000 482.000 154.000 48 54 61
306.000 483.000 154.000 46 53 60
307.000 482.000 155.000 44 51 59
307.000 483.000 155.000 45 53 60
307.000 480.000 156.000 42 50 58
307.000 481.000 156.000 43 51 59
307.000 482.000 156.000 46 53 61
307.000 483.000 156.000 45 52 60
304.000 484.000 152.000 51 57 65
304.000 485.000 152.000 52 58 66
305.000 484.000 153.000 50 57 64
305.000 485.000 153.000 52 58 65
305.000 484.000 154.000 48 55 62
304.000 486.000 152.000 53 59 66
304.000 487.000 152.000 48 55 63
305.000 486.000 153.000 50 56 64
305.000 487.000 152.000 49 56 64
305.000 487.000 153.000 49 56 64
306.000 484.000 154.000 46 52 60
306.000 485.000 154.000 49 55 62
307.000 484.000 155.000 47 54 61
307.000 485.000 155.000 47 54 62
306.000 486.000 154.000 50 56 64
306.000 487.000 154.000 50 57 65
307.000 486.000 155.000 47 55 62
307.000 487.000 154.000 52 59 67
307.000 487.000 155.000 52 58 66
308.000 480.000 156.000 42 50 58
308.000 480.000 157.000 46 52 60
308.000 481.000 156.000 46 53 61
308.000 481.000 157.000 48 55 63
309.000 480.000 157.000 48 55 63
309.000 481.000 157.000 48 55 63
308.000 482.000 156.000 47 54 62
308.000 482.000 157.000 46 53 61
308.000 483.000 156.000 45 52 60
308.000 483.000 157.000 43 51 59
309.000 482.000 157.000 44 51 59
309.000 483.000 157.000 43 51 59
308.000 484.000 156.000 45 52 60
308.000 484.000 157.000 43 51 59
308.000 485.000 156.000 46 54 62
308.000 485.000 157.000 48 55 63
309.000 484.000 157.000 47 54 62
309.000 485.000 157.000 49 56 64
308.000 486.000 156.000 49 56 64
308.000 486.000 157.000 50 57 65
308.000 487.000 156.000 51 58 65
309.000 486.000 157.000 48 55 63
304.000 488.000 151.000 47 54 62
304.000 489.000 151.000 47 55 64
304.000 490.000 151.000 48 55 63
304.000 491.000 151.000 48 56 64
304.000 492.000 151.000 49 56 64
304.000 493.000 151.000 53 60 68
304.000 494.000 151.000 69 75 83
304.000 488.000 152.000 46 54 62
304.000 489.000 152.000 47 54 63
305.000 488.000 153.000 47 55 63
305.000 489.000 153.000 46 54 63
305.000 490.000 153.000 46 54 63
306.000 488.000 154.000 51 58 66
306.000 489.000 154.000 48 56 64
307.000 488.000 155.000 53 59 67
307.000 489.000 155.000 50 57 66
306.000 490.000 154.000 45 53 62
306.000 491.000 154.000 46 54 62
307.000 490.000 155.000 45 53 62
307.000 491.000 155.000 43 52 61
304.000 494.000 152.000 68 74 83
306.000 492.000 154.000 45 53 62
306.000 493.000 154.000 43 51 60
307.000 492.000 155.000 42 51 60
307.000 493.000 155.000 43 51 60
307.000 494.000 155.000 44 53 62
307.000 495.000 155.000 49 58 67
304.000 498.000 151.000 87 93 102
304.000 499.000 151.000 84 90 100
304.000 500.000 151.000 83 90 99
304.000 501.000 151.000 82 88 97
304.000 498.000 152.000 86 92 102
304.000 499.000 152.000 84 91 101
305.000 498.000 152.000 86 92 102
305.000 499.000 152.000 89 96 105
306.000 497.000 154.000 87 93 102
307.000 496.000 155.000 61 69 78
307.000 497.000 155.000 78 84 93
306.000 498.000 153.000 86 92 102
306.000 499.000 153.000 94 100 109
306.000 498.000 154.000 87 93 102
306.000 499.000 154.000 91 98 107
307.000 498.000 154.000 86 92 101
307.000 498.000 155.000 86 92 101
307.000 499.000 155.000 88 95 104
304.000 500.000 152.000 86 93 102
304.000 501.000 152.000 83 89 98
305.000 500.000 153.000 101 107 116
305.000 501.000 153.000 93 99 109
306.000 500.000 153.000 102 108 118
306.000 500.000 154.000 98 104 114
306.000 501.000 154.000 96 103 113
307.000 500.000 155.000 94 101 111
