ply
format ascii 1.0
element vertex 1016
property float x
property float y
property float z
property uchar red
property uchar green
property uchar blue
end_header
63.000 43.000 174.000 61 57 55
62.000 44.000 175.000 64 59 56
62.000 45.000 175.000 65 59 56
62.000 46.000 175.000 66 60 56
62.000 47.000 175.000 67 61 57
63.000 46.000 174.000 65 60 56
63.000 47.000 174.000 67 61 57
55.000 41.000 186.000 69 62 57
55.000 41.000 187.000 70 63 58
55.000 43.000 185.000 72 64 58
54.000 42.000 187.000 71 64 58
54.000 43.000 187.000 73 65 59
55.000 42.000 186.000 71 63 58
55.000 42.000 187.000 71 64 58
55.000 43.000 186.000 73 64 58
55.000 43.000 187.000 73 65 59
53.000 40.000 190.000 70 62 55
53.000 40.000 191.000 72 64 58
53.000 41.000 190.000 72 63 57
53.000 41.000 191.000 73 64 58
53.000 42.000 190.000 72 64 57
53.000 42.000 191.000 74 65 58
53.000 43.000 190.000 73 64 57
53.000 43.000 191.000 75 65 58
54.000 40.000 189.000 69 62 57
54.000 41.000 188.000 70 63 58
54.000 41.000 189.000 70 62 57
54.000 40.000 190.000 69 61 55
54.000 41.000 190.000 70 62 56
54.000 42.000 188.000 71 63 58
54.000 42.000 189.000 71 63 57
54.000 43.000 188.000 73 64 59
54.000 43.000 189.000 72 64 58
54.000 42.000 190.000 71 63 57
55.000 44.000 185.000 74 65 59
55.000 45.000 185.000 76 66 59
54.000 44.000 187.000 74 65 58
55.000 44.000 186.000 74 65 58
55.000 44.000 187.000 74 65 59
54.000 47.000 187.000 78 67 58
53.000 44.000 189.000 73 64 57
53.000 45.000 189.000 75 65 57
52.000 44.000 191.000 77 67 59
52.000 45.000 191.000 77 67 60
53.000 44.000 190.000 74 64 57
53.000 45.000 190.000 75 65 57
53.000 47.000 189.000 77 66 58
52.000 46.000 191.000 77 67 59
52.000 47.000 191.000 77 66 59
53.000 47.000 190.000 76 66 58
54.000 44.000 188.000 74 65 59
57.000 42.000 182.000 66 60 56
57.000 42.000 183.000 68 61 57
57.000 43.000 182.000 68 61 57
57.000 43.000 183.000 70 63 57
58.000 42.000 180.000 65 59 56
59.000 47.000 178.000 69 62 58
59.000 47.000 179.000 70 63 58
56.000 44.000 183.000 73 65 59
57.000 44.000 182.000 70 63 58
57.000 45.000 182.000 72 64 59
57.000 47.000 183.000 78 68 62
59.000 45.000 180.000 68 61 56
61.000 42.000 177.000 62 57 55
61.000 43.000 177.000 64 59 56
60.000 43.000 178.000 65 59 56
62.000 42.000 176.000 61 57 55
60.000 44.000 177.000 65 60 56
60.000 45.000 177.000 66 60 57
61.000 45.000 176.000 66 60 56
61.000 45.000 177.000 66 60 57
60.000 44.000 178.000 65 60 56
60.000 45.000 178.000 67 60 57
60.000 46.000 177.000 67 61 57
60.000 47.000 177.000 69 62 58
61.000 46.000 176.000 67 61 57
61.000 46.000 177.000 67 61 57
61.000 47.000 176.000 68 62 58
61.000 47.000 177.000 68 62 58
62.000 47.000 176.000 68 61 57
56.000 41.000 184.000 67 60 56
56.000 42.000 184.000 69 62 57
56.000 42.000 185.000 70 62 57
56.000 43.000 184.000 71 63 57
56.000 43.000 185.000 71 64 58
57.000 42.000 184.000 67 61 56
56.000 44.000 184.000 73 65 59
56.000 44.000 185.000 74 65 59
56.000 45.000 184.000 76 67 60
56.000 46.000 184.000 78 68 61
62.000 48.000 175.000 68 61 57
63.000 48.000 174.000 68 61 57
63.000 48.000 175.000 68 62 58
63.000 49.000 175.000 69 62 58
63.000 50.000 175.000 70 63 58
63.000 51.000 175.000 70 63 58
55.000 48.000 184.000 79 68 60
55.000 49.000 186.000 79 67 58
55.000 50.000 185.000 78 67 59
54.000 50.000 187.000 78 66 57
54.000 51.000 186.000 77 66 56
55.000 50.000 186.000 78 67 58
53.000 48.000 189.000 77 66 58
53.000 49.000 188.000 77 67 58
52.000 48.000 191.000 76 66 58
53.000 50.000 188.000 77 65 57
53.000 51.000 188.000 75 64 55
53.000 51.000 189.000 73 62 53
52.000 50.000 191.000 74 64 57
52.000 51.000 191.000 74 64 57
53.000 50.000 190.000 73 63 55
55.000 52.000 185.000 75 65 58
55.000 53.000 185.000 73 63 56
54.000 52.000 186.000 75 65 56
54.000 52.000 187.000 74 64 55
54.000 53.000 187.000 72 62 54
55.000 54.000 185.000 70 62 55
54.000 55.000 187.000 66 59 54
55.000 54.000 186.000 70 62 55
53.000 52.000 188.000 72 62 53
53.000 52.000 189.000 72 61 53
53.000 53.000 188.000 71 61 53
53.000 53.000 189.000 71 61 53
52.000 52.000 190.000 71 62 54
52.000 53.000 190.000 71 62 55
52.000 53.000 191.000 72 64 57
53.000 54.000 188.000 70 61 54
53.000 55.000 188.000 66 59 54
53.000 55.000 189.000 66 59 54
52.000 54.000 190.000 69 61 55
52.000 54.000 191.000 70 62 56
52.000 55.000 190.000 67 60 54
52.000 55.000 191.000 68 61 55
53.000 55.000 190.000 67 60 54
54.000 56.000 187.000 61 55 53
54.000 57.000 187.000 56 52 51
55.000 56.000 186.000 59 55 52
55.000 56.000 187.000 60 55 52
55.000 57.000 186.000 56 53 52
55.000 57.000 187.000 55 52 52
55.000 58.000 187.000 57 57 59
55.000 59.000 187.000 71 72 76
53.000 56.000 189.000 62 57 53
53.000 57.000 189.000 57 53 52
52.000 56.000 190.000 63 57 54
52.000 56.000 191.000 63 57 54
52.000 57.000 190.000 58 54 52
52.000 57.000 191.000 59 55 53
53.000 56.000 190.000 63 57 53
53.000 57.000 190.000 58 54 51
53.000 58.000 189.000 55 53 53
53.000 59.000 189.000 61 61 64
52.000 58.000 190.000 55 52 51
52.000 58.000 191.000 56 53 53
52.000 59.000 190.000 61 60 62
52.000 59.000 191.000 63 62 64
53.000 58.000 190.000 55 53 52
53.000 59.000 190.000 65 65 67
54.000 56.000 188.000 61 56 53
54.000 57.000 188.000 56 53 51
54.000 58.000 188.000 55 54 55
54.000 58.000 189.000 54 53 54
54.000 59.000 188.000 65 66 69
54.000 59.000 189.000 63 63 67
55.000 59.000 188.000 66 68 71
55.000 60.000 187.000 82 85 91
55.000 61.000 187.000 83 88 95
53.000 60.000 189.000 76 78 83
53.000 61.000 189.000 83 86 93
52.000 60.000 191.000 77 79 83
52.000 61.000 191.000 82 85 92
53.000 60.000 190.000 77 79 84
53.000 61.000 190.000 82 86 92
52.000 62.000 191.000 84 89 96
52.000 63.000 191.000 84 90 98
53.000 62.000 190.000 84 89 96
53.000 62.000 191.000 84 89 96
53.000 63.000 190.000 84 90 98
53.000 63.000 191.000 84 90 99
54.000 60.000 188.000 77 79 84
54.000 60.000 189.000 77 80 85
54.000 61.000 189.000 83 87 94
55.000 60.000 188.000 80 83 89
55.000 61.000 188.000 83 87 95
54.000 62.000 189.000 83 88 96
54.000 63.000 189.000 82 88 97
55.000 62.000 188.000 83 88 96
55.000 63.000 188.000 82 88 96
55.000 63.000 189.000 82 88 96
59.000 48.000 179.000 72 64 59
59.000 49.000 179.000 73 65 60
58.000 48.000 180.000 73 65 59
58.000 53.000 182.000 73 65 58
59.000 54.000 181.000 69 63 59
61.000 48.000 176.000 68 62 58
61.000 48.000 177.000 69 62 58
60.000 49.000 178.000 71 64 58
61.000 49.000 178.000 71 63 58
60.000 50.000 178.000 72 64 59
61.000 50.000 178.000 72 64 59
61.000 51.000 178.000 72 65 60
62.000 48.000 176.000 69 62 58
62.000 49.000 176.000 70 63 58
62.000 50.000 176.000 70 63 59
62.000 50.000 177.000 71 64 59
62.000 51.000 176.000 71 64 59
62.000 51.000 177.000 72 65 60
63.000 50.000 176.000 70 63 59
63.000 51.000 176.000 71 63 59
61.000 52.000 178.000 72 65 60
61.000 52.000 179.000 72 64 60
61.000 53.000 179.000 69 63 59
62.000 52.000 177.000 71 64 60
62.000 53.000 177.000 68 62 59
63.000 52.000 176.000 70 63 59
63.000 52.000 177.000 70 64 60
63.000 53.000 176.000 68 62 59
63.000 53.000 177.000 69 63 60
62.000 52.000 178.000 71 64 60
62.000 53.000 178.000 69 63 60
63.000 54.000 177.000 67 62 60
62.000 54.000 178.000 67 62 60
62.000 55.000 178.000 64 61 60
62.000 55.000 179.000 64 61 60
63.000 55.000 178.000 65 61 61
56.000 53.000 184.000 73 64 57
56.000 54.000 184.000 71 63 56
56.000 54.000 185.000 71 62 56
57.000 54.000 184.000 70 62 56
59.000 63.000 183.000 81 86 94
63.000 56.000 177.000 60 59 61
62.000 56.000 179.000 60 59 59
62.000 57.000 179.000 61 62 65
63.000 56.000 178.000 60 59 60
63.000 59.000 179.000 78 81 87
62.000 59.000 180.000 77 80 86
63.000 60.000 179.000 82 87 94
62.000 62.000 180.000 83 88 96
62.000 63.000 181.000 81 86 94
63.000 63.000 180.000 81 86 94
56.000 57.000 185.000 56 53 52
56.000 58.000 186.000 58 58 59
56.000 59.000 186.000 72 74 78
57.000 59.000 186.000 72 74 78
58.000 57.000 184.000 57 55 56
57.000 60.000 185.000 79 83 89
57.000 61.000 185.000 80 85 92
56.000 61.000 186.000 82 87 94
56.000 61.000 187.000 83 88 95
56.000 62.000 186.000 82 87 95
56.000 62.000 187.000 83 88 96
56.000 63.000 187.000 82 87 96
57.000 62.000 186.000 81 86 94
57.000 63.000 186.000 81 86 94
58.000 62.000 184.000 81 86 94
56.000 63.000 188.000 81 87 96
47.000 63.000 200.000 87 92 100
51.000 40.000 195.000 75 65 58
51.000 41.000 195.000 77 67 58
51.000 42.000 194.000 80 69 60
51.000 42.000 195.000 79 68 59
51.000 43.000 194.000 80 69 61
51.000 43.000 195.000 80 69 60
49.000 40.000 199.000 70 62 55
49.000 41.000 199.000 72 63 57
49.000 42.000 199.000 74 65 58
49.000 43.000 199.000 75 65 58
50.000 40.000 197.000 73 63 56
50.000 41.000 197.000 75 65 57
51.000 40.000 196.000 74 65 57
51.000 40.000 197.000 73 64 57
51.000 41.000 196.000 76 66 59
51.000 41.000 197.000 76 66 58
50.000 40.000 198.000 71 62 56
50.000 40.000 199.000 70 61 54
50.000 41.000 198.000 73 64 57
50.000 41.000 199.000 73 64 57
50.000 42.000 197.000 76 66 58
50.000 43.000 197.000 77 67 59
51.000 42.000 196.000 77 67 59
51.000 43.000 196.000 79 68 60
50.000 42.000 198.000 75 65 58
50.000 42.000 199.000 75 65 58
50.000 43.000 198.000 77 66 59
50.000 43.000 199.000 76 66 59
51.000 44.000 194.000 82 70 61
51.000 44.000 195.000 81 69 60
51.000 45.000 194.000 83 71 62
51.000 45.000 195.000 83 70 61
51.000 46.000 194.000 84 71 63
51.000 46.000 195.000 84 71 62
51.000 47.000 194.000 84 72 63
51.000 47.000 195.000 84 72 63
49.000 44.000 199.000 76 66 58
49.000 45.000 199.000 78 67 59
50.000 44.000 196.000 80 69 60
50.000 44.000 197.000 78 67 59
50.000 45.000 196.000 81 69 60
50.000 45.000 197.000 80 68 59
51.000 44.000 196.000 80 69 60
50.000 44.000 198.000 77 67 59
50.000 44.000 199.000 77 67 59
50.000 45.000 198.000 78 67 59
50.000 46.000 196.000 82 70 61
50.000 46.000 197.000 81 69 60
50.000 46.000 198.000 80 69 61
50.000 47.000 198.000 80 69 61
52.000 40.000 193.000 75 66 60
52.000 41.000 193.000 77 67 59
53.000 41.000 192.000 74 65 58
52.000 40.000 194.000 76 66 58
52.000 41.000 194.000 78 68 60
52.000 41.000 195.000 77 66 58
52.000 42.000 192.000 76 66 58
52.000 42.000 193.000 78 68 60
52.000 43.000 192.000 76 66 58
52.000 43.000 193.000 78 68 60
53.000 42.000 192.000 75 66 58
52.000 42.000 194.000 80 69 60
52.000 43.000 194.000 81 70 61
52.000 44.000 192.000 77 67 59
52.000 44.000 193.000 79 68 60
52.000 45.000 192.000 78 67 59
52.000 45.000 193.000 80 69 61
52.000 46.000 192.000 78 68 59
52.000 46.000 193.000 81 70 61
52.000 47.000 192.000 78 68 60
49.000 40.000 200.000 70 62 56
49.000 40.000 201.000 70 62 56
49.000 41.000 200.000 72 64 57
49.000 41.000 201.000 72 63 57
49.000 42.000 200.000 73 64 58
49.000 43.000 200.000 75 65 58
49.000 44.000 200.000 76 66 58
49.000 45.000 200.000 79 68 61
51.000 49.000 193.000 78 68 60
51.000 48.000 194.000 83 71 62
51.000 49.000 194.000 82 70 62
51.000 49.000 195.000 83 72 63
51.000 50.000 193.000 79 68 60
51.000 51.000 193.000 77 67 59
51.000 50.000 194.000 82 71 63
51.000 50.000 195.000 84 73 65
49.000 50.000 199.000 81 72 64
49.000 51.000 199.000 78 69 61
50.000 48.000 197.000 82 71 62
50.000 49.000 197.000 83 72 64
51.000 48.000 196.000 82 71 61
51.000 49.000 196.000 83 72 64
50.000 48.000 198.000 81 71 63
50.000 48.000 199.000 82 72 64
50.000 49.000 198.000 83 73 65
50.000 49.000 199.000 83 73 66
50.000 50.000 197.000 83 73 65
51.000 50.000 196.000 84 74 66
50.000 50.000 199.000 82 72 65
50.000 51.000 199.000 79 69 61
51.000 52.000 193.000 76 66 59
51.000 53.000 192.000 74 66 59
51.000 53.000 193.000 74 65 58
50.000 53.000 195.000 73 64 57
51.000 53.000 194.000 74 65 58
51.000 54.000 192.000 71 64 58
51.000 54.000 193.000 72 64 58
51.000 55.000 192.000 69 62 57
51.000 55.000 193.000 69 62 57
50.000 55.000 194.000 67 61 57
50.000 55.000 195.000 68 62 57
51.000 54.000 194.000 72 64 57
49.000 52.000 199.000 76 67 60
49.000 53.000 199.000 74 65 58
49.000 54.000 199.000 71 63 58
49.000 55.000 199.000 68 61 56
50.000 52.000 196.000 75 66 58
50.000 52.000 197.000 75 66 58
50.000 53.000 196.000 74 64 57
50.000 53.000 197.000 73 64 57
50.000 52.000 198.000 75 66 59
50.000 53.000 198.000 73 64 58
50.000 54.000 196.000 71 63 56
52.000 50.000 192.000 76 66 59
52.000 50.000 193.000 77 67 60
52.000 51.000 192.000 76 67 60
49.000 48.000 200.000 82 71 64
49.000 50.000 200.000 82 72 65
49.000 50.000 201.000 81 71 64
49.000 51.000 200.000 79 69 62
49.000 51.000 201.000 79 69 61
49.000 52.000 200.000 76 67 60
49.000 52.000 201.000 76 67 59
49.000 53.000 200.000 74 65 58
49.000 53.000 201.000 74 65 58
48.000 55.000 200.000 68 61 56
49.000 54.000 200.000 72 64 58
49.000 55.000 200.000 69 61 56
51.000 56.000 192.000 65 58 55
51.000 57.000 192.000 60 55 53
51.000 57.000 193.000 60 55 52
50.000 56.000 194.000 64 59 55
50.000 56.000 195.000 64 59 55
50.000 57.000 194.000 59 55 52
50.000 57.000 195.000 59 55 52
51.000 58.000 192.000 56 53 52
51.000 58.000 193.000 55 52 51
51.000 59.000 192.000 60 59 60
50.000 58.000 194.000 55 52 51
50.000 59.000 194.000 61 60 62
49.000 56.000 197.000 63 58 54
49.000 57.000 196.000 57 52 49
48.000 56.000 199.000 63 58 54
49.000 56.000 198.000 64 58 55
49.000 56.000 199.000 64 59 55
49.000 58.000 196.000 55 51 50
50.000 56.000 196.000 64 58 54
49.000 61.000 195.000 79 81 86
49.000 62.000 195.000 84 87 95
49.000 63.000 195.000 89 94 103
51.000 60.000 192.000 74 75 79
51.000 60.000 193.000 73 74 78
51.000 61.000 192.000 83 85 91
51.000 61.000 193.000 82 84 89
50.000 60.000 194.000 72 73 77
50.000 61.000 194.000 80 83 88
50.000 61.000 195.000 80 82 87
51.000 62.000 192.000 85 89 97
51.000 62.000 193.000 87 91 98
51.000 63.000 193.000 86 92 101
50.000 62.000 194.000 87 91 98
50.000 62.000 195.000 85 89 96
50.000 63.000 194.000 90 95 104
51.000 62.000 194.000 88 92 99
51.000 63.000 194.000 89 95 103
48.000 60.000 197.000 68 69 73
48.000 61.000 197.000 77 79 85
49.000 60.000 196.000 68 69 73
49.000 61.000 196.000 77 79 85
49.000 61.000 197.000 74 77 82
48.000 60.000 198.000 66 67 70
48.000 61.000 198.000 76 77 82
48.000 62.000 197.000 83 87 94
48.000 63.000 197.000 88 93 101
49.000 62.000 196.000 82 87 94
49.000 62.000 197.000 81 86 93
49.000 63.000 196.000 88 93 101
52.000 59.000 192.000 63 63 65
52.000 61.000 192.000 82 86 92
52.000 62.000 192.000 85 89 97
52.000 63.000 192.000 84 90 99
48.000 56.000 200.000 64 59 54
48.000 56.000 201.000 65 58 53
48.000 57.000 200.000 60 56 53
48.000 57.000 201.000 61 56 52
48.000 58.000 201.000 58 55 54
53.000 64.000 190.000 82 88 97
53.000 64.000 191.000 83 90 99
53.000 65.000 191.000 82 88 97
53.000 66.000 191.000 81 88 97
54.000 64.000 189.000 81 87 96
55.000 64.000 188.000 80 86 95
55.000 65.000 189.000 79 85 94
54.000 64.000 190.000 81 88 97
54.000 65.000 190.000 80 87 95
54.000 66.000 191.000 79 86 95
54.000 67.000 191.000 79 85 94
55.000 66.000 191.000 78 84 93
55.000 67.000 190.000 77 83 92
54.000 68.000 191.000 78 85 93
54.000 69.000 191.000 76 82 90
55.000 68.000 190.000 78 84 92
55.000 69.000 190.000 75 80 88
55.000 70.000 190.000 69 73 80
55.000 71.000 190.000 64 68 72
54.000 72.000 191.000 62 65 69
55.000 72.000 190.000 61 63 66
60.000 64.000 183.000 78 84 92
60.000 65.000 183.000 76 83 91
63.000 64.000 180.000 78 84 92
62.000 71.000 180.000 61 65 70
56.000 64.000 187.000 82 87 96
57.000 64.000 187.000 80 86 95
57.000 65.000 187.000 78 85 93
57.000 66.000 187.000 78 85 93
58.000 64.000 185.000 79 85 93
59.000 64.000 184.000 79 85 94
59.000 64.000 185.000 79 85 93
58.000 65.000 187.000 78 84 93
56.000 64.000 188.000 80 87 95
56.000 66.000 188.000 79 86 94
56.000 66.000 189.000 79 85 94
56.000 67.000 189.000 78 84 92
57.000 67.000 188.000 80 85 94
56.000 67.000 190.000 77 83 92
58.000 67.000 188.000 79 85 93
57.000 71.000 187.000 64 67 71
59.000 68.000 185.000 76 81 89
59.000 69.000 185.000 72 77 84
58.000 68.000 187.000 77 83 90
59.000 68.000 186.000 77 82 90
59.000 69.000 186.000 72 77 83
59.000 70.000 185.000 67 70 76
59.000 71.000 184.000 63 66 70
59.000 71.000 185.000 64 66 71
58.000 70.000 186.000 66 69 75
56.000 69.000 189.000 74 80 87
56.000 68.000 190.000 77 83 91
56.000 70.000 189.000 67 72 78
56.000 71.000 188.000 64 67 72
56.000 71.000 189.000 64 67 72
57.000 70.000 188.000 68 72 78
57.000 71.000 188.000 64 66 71
56.000 70.000 190.000 69 73 80
56.000 71.000 190.000 65 68 73
58.000 68.000 188.000 78 83 91
60.000 65.000 184.000 76 83 91
60.000 66.000 185.000 76 82 91
61.000 66.000 184.000 74 81 89
60.000 68.000 184.000 74 79 87
60.000 68.000 185.000 74 79 87
60.000 69.000 185.000 71 76 83
60.000 70.000 185.000 67 71 77
60.000 71.000 184.000 62 65 70
56.000 72.000 188.000 58 61 65
56.000 72.000 189.000 61 63 67
57.000 72.000 188.000 61 63 67
47.000 67.000 200.000 83 90 100
47.000 68.000 200.000 84 89 98
47.000 68.000 201.000 84 90 98
47.000 69.000 201.000 83 88 96
47.000 71.000 201.000 79 83 91
47.000 72.000 201.000 75 80 87
47.000 73.000 200.000 68 71 75
47.000 73.000 201.000 70 73 77
47.000 72.000 202.000 76 80 86
47.000 73.000 202.000 72 75 81
49.000 64.000 195.000 88 94 103
51.000 64.000 193.000 86 92 102
51.000 65.000 193.000 86 93 102
50.000 64.000 194.000 88 95 104
50.000 64.000 195.000 89 95 104
50.000 65.000 194.000 87 94 103
50.000 65.000 195.000 87 94 103
51.000 65.000 194.000 87 93 103
50.000 66.000 195.000 87 93 103
50.000 67.000 195.000 83 90 99
51.000 66.000 194.000 85 92 102
48.000 64.000 197.000 87 93 103
49.000 64.000 196.000 87 94 103
49.000 64.000 197.000 87 93 103
49.000 65.000 196.000 85 92 102
49.000 65.000 197.000 85 92 101
48.000 64.000 198.000 87 93 102
48.000 66.000 197.000 83 90 100
49.000 66.000 196.000 83 90 100
48.000 67.000 198.000 82 89 98
51.000 68.000 195.000 81 87 96
51.000 69.000 195.000 80 86 95
51.000 70.000 195.000 77 83 91
51.000 71.000 195.000 72 76 83
49.000 68.000 197.000 81 87 96
48.000 68.000 199.000 82 88 97
48.000 69.000 198.000 81 87 96
48.000 69.000 199.000 82 87 96
49.000 68.000 198.000 81 87 96
49.000 69.000 198.000 80 86 95
48.000 70.000 199.000 80 86 94
48.000 71.000 199.000 78 83 90
49.000 70.000 198.000 80 85 93
49.000 71.000 198.000 77 82 89
49.000 71.000 199.000 77 81 89
50.000 68.000 196.000 81 87 96
50.000 70.000 196.000 80 85 93
50.000 71.000 196.000 75 79 85
52.000 64.000 192.000 84 90 100
52.000 65.000 192.000 84 91 100
53.000 65.000 192.000 84 90 100
52.000 67.000 193.000 80 87 96
53.000 66.000 192.000 82 88 97
53.000 68.000 192.000 80 86 95
53.000 69.000 192.000 78 84 92
53.000 69.000 193.000 79 85 93
52.000 68.000 195.000 80 86 95
52.000 69.000 194.000 79 85 94
53.000 70.000 193.000 73 79 87
53.000 71.000 193.000 67 73 79
52.000 70.000 194.000 75 81 89
52.000 71.000 194.000 69 74 81
54.000 70.000 192.000 70 76 83
48.000 66.000 200.000 84 91 101
48.000 68.000 200.000 83 89 97
48.000 69.000 200.000 83 89 97
48.000 70.000 200.000 81 87 95
51.000 72.000 195.000 67 70 75
49.000 73.000 197.000 65 67 71
48.000 73.000 199.000 66 69 74
49.000 72.000 198.000 69 73 80
49.000 73.000 198.000 64 67 73
53.000 72.000 193.000 64 67 73
52.000 72.000 194.000 65 69 74
54.000 72.000 192.000 62 65 70
71.000 45.000 167.000 58 54 53
71.000 46.000 167.000 58 54 53
71.000 47.000 167.000 58 54 52
65.000 43.000 173.000 60 56 55
66.000 43.000 172.000 59 55 54
66.000 44.000 171.000 59 56 54
66.000 45.000 171.000 60 56 55
67.000 44.000 171.000 58 55 53
67.000 45.000 170.000 59 55 53
67.000 45.000 171.000 59 56 54
66.000 46.000 171.000 61 57 54
66.000 47.000 171.000 62 57 55
67.000 46.000 170.000 59 55 53
67.000 46.000 171.000 60 56 54
67.000 47.000 170.000 60 56 54
67.000 47.000 171.000 61 57 54
64.000 44.000 173.000 61 57 54
64.000 45.000 173.000 63 58 55
65.000 44.000 172.000 60 56 55
65.000 44.000 173.000 61 56 54
65.000 45.000 172.000 62 57 55
65.000 45.000 173.000 62 57 54
64.000 46.000 173.000 64 58 55
64.000 47.000 173.000 65 59 56
65.000 46.000 172.000 62 57 54
65.000 46.000 173.000 63 58 55
65.000 47.000 172.000 63 58 54
65.000 47.000 173.000 64 58 55
64.000 46.000 174.000 65 59 56
64.000 47.000 174.000 66 60 56
66.000 44.000 172.000 60 56 55
66.000 45.000 172.000 61 57 55
66.000 46.000 172.000 61 56 54
66.000 47.000 172.000 63 58 55
68.000 44.000 169.000 57 53 52
68.000 45.000 169.000 57 54 53
69.000 44.000 169.000 57 53 52
69.000 45.000 169.000 57 54 52
68.000 44.000 170.000 57 54 52
68.000 45.000 170.000 58 54 53
68.000 46.000 169.000 58 54 53
68.000 47.000 169.000 59 55 53
69.000 46.000 169.000 58 54 52
69.000 47.000 169.000 59 55 53
68.000 46.000 170.000 58 55 53
68.000 47.000 170.000 60 55 53
70.000 44.000 168.000 57 54 52
70.000 44.000 169.000 57 53 52
70.000 45.000 168.000 57 54 52
71.000 44.000 168.000 57 53 52
71.000 45.000 168.000 57 54 52
70.000 46.000 168.000 58 54 52
70.000 47.000 168.000 58 54 53
71.000 46.000 168.000 57 54 52
71.000 47.000 168.000 58 54 52
72.000 45.000 167.000 57 54 53
72.000 46.000 167.000 58 54 53
72.000 47.000 166.000 58 54 52
72.000 47.000 167.000 58 54 52
73.000 46.000 166.000 57 54 52
73.000 47.000 166.000 58 54 53
71.000 48.000 167.000 58 54 52
71.000 49.000 167.000 60 55 53
71.000 50.000 167.000 60 56 53
71.000 51.000 167.000 61 56 54
66.000 48.000 171.000 63 58 55
67.000 48.000 170.000 61 56 54
67.000 48.000 171.000 62 57 55
67.000 49.000 170.000 63 58 55
67.000 49.000 171.000 64 59 56
67.000 50.000 171.000 65 59 56
67.000 51.000 171.000 66 60 57
64.000 48.000 173.000 66 60 56
64.000 49.000 173.000 67 61 57
65.000 48.000 172.000 64 58 54
65.000 48.000 173.000 65 59 55
65.000 49.000 172.000 66 59 56
65.000 49.000 173.000 67 61 57
64.000 48.000 174.000 68 61 57
64.000 49.000 174.000 69 62 58
65.000 50.000 173.000 68 62 58
65.000 51.000 173.000 70 63 59
64.000 50.000 174.000 70 63 59
64.000 50.000 175.000 70 63 58
64.000 51.000 174.000 70 63 59
64.000 51.000 175.000 71 64 59
65.000 51.000 174.000 70 63 59
66.000 48.000 172.000 64 58 55
66.000 49.000 172.000 65 59 56
66.000 50.000 172.000 66 60 57
66.000 51.000 172.000 67 61 58
66.000 51.000 173.000 69 62 59
67.000 50.000 172.000 66 60 57
67.000 51.000 172.000 66 61 57
64.000 52.000 175.000 70 63 59
64.000 53.000 175.000 68 62 59
65.000 52.000 174.000 69 63 59
65.000 52.000 175.000 69 63 59
65.000 53.000 174.000 67 62 59
65.000 53.000 175.000 68 62 59
64.000 54.000 175.000 66 62 61
65.000 54.000 175.000 66 62 60
65.000 55.000 175.000 64 61 61
66.000 52.000 173.000 68 62 58
66.000 53.000 173.000 66 61 58
67.000 52.000 172.000 67 61 58
67.000 53.000 172.000 66 61 58
67.000 53.000 173.000 66 61 58
66.000 53.000 174.000 67 61 59
66.000 54.000 173.000 65 62 60
67.000 54.000 172.000 65 61 60
67.000 54.000 173.000 66 62 60
67.000 55.000 172.000 65 62 61
67.000 55.000 173.000 65 62 61
66.000 54.000 174.000 66 62 60
66.000 55.000 174.000 64 61 61
68.000 48.000 169.000 60 55 53
69.000 48.000 169.000 60 55 53
69.000 49.000 169.000 61 56 53
68.000 48.000 170.000 60 56 53
68.000 49.000 170.000 61 57 54
69.000 50.000 169.000 62 56 54
69.000 51.000 169.000 62 57 54
68.000 50.000 170.000 63 57 54
68.000 51.000 170.000 64 58 55
68.000 51.000 171.000 65 59 56
69.000 50.000 170.000 62 57 54
69.000 51.000 170.000 63 57 54
70.000 48.000 168.000 59 55 53
70.000 49.000 168.000 60 56 53
71.000 48.000 168.000 59 55 53
71.000 49.000 168.000 60 55 53
70.000 50.000 168.000 61 56 53
70.000 50.000 169.000 61 56 53
70.000 51.000 168.000 62 57 54
70.000 51.000 169.000 62 57 54
71.000 50.000 168.000 61 56 53
71.000 51.000 168.000 61 57 54
69.000 52.000 169.000 62 57 54
68.000 52.000 171.000 65 60 57
68.000 53.000 171.000 64 59 57
69.000 52.000 170.000 63 58 55
69.000 53.000 170.000 62 58 55
69.000 53.000 171.000 63 59 56
68.000 54.000 171.000 64 60 59
69.000 54.000 170.000 63 59 58
69.000 54.000 171.000 63 60 58
69.000 55.000 170.000 63 60 60
69.000 55.000 171.000 63 61 60
70.000 52.000 168.000 62 57 55
70.000 52.000 169.000 62 57 55
70.000 53.000 169.000 62 57 55
71.000 52.000 168.000 62 57 54
71.000 53.000 168.000 61 57 55
70.000 53.000 170.000 62 58 56
70.000 54.000 169.000 61 58 57
70.000 55.000 169.000 62 59 59
71.000 54.000 168.000 60 57 55
71.000 54.000 169.000 61 57 56
71.000 55.000 168.000 60 57 57
71.000 55.000 169.000 61 59 59
70.000 54.000 170.000 62 59 57
70.000 55.000 170.000 62 60 60
68.000 53.000 172.000 65 60 58
68.000 54.000 172.000 64 60 59
68.000 55.000 172.000 65 61 61
65.000 56.000 175.000 60 59 61
65.000 57.000 175.000 63 65 69
65.000 58.000 175.000 71 73 78
67.000 56.000 172.000 64 61 62
67.000 56.000 173.000 61 60 62
67.000 57.000 173.000 64 66 70
66.000 56.000 174.000 61 60 62
66.000 56.000 175.000 60 59 61
66.000 57.000 174.000 63 64 68
66.000 57.000 175.000 63 64 68
67.000 57.000 174.000 63 65 69
67.000 58.000 173.000 71 73 78
67.000 59.000 173.000 77 80 86
66.000 58.000 174.000 70 73 78
66.000 58.000 175.000 71 73 79
66.000 59.000 175.000 77 81 88
67.000 58.000 174.000 71 74 79
67.000 59.000 174.000 79 83 90
66.000 60.000 175.000 82 87 95
67.000 60.000 174.000 84 89 98
67.000 61.000 175.000 84 90 99
69.000 56.000 170.000 62 60 60
69.000 56.000 171.000 61 60 61
69.000 57.000 171.000 63 64 67
69.000 58.000 171.000 71 73 78
70.000 56.000 169.000 62 61 62
71.000 56.000 168.000 61 60 61
71.000 56.000 169.000 60 59 61
71.000 57.000 169.000 64 66 69
70.000 56.000 170.000 61 60 61
70.000 57.000 170.000 63 64 68
71.000 58.000 169.000 71 74 79
71.000 59.000 169.000 78 82 88
70.000 58.000 170.000 69 72 76
70.000 58.000 171.000 71 74 79
70.000 59.000 170.000 75 79 85
70.000 59.000 171.000 78 83 90
71.000 58.000 170.000 72 75 80
71.000 59.000 170.000 80 84 92
68.000 56.000 172.000 62 61 62
68.000 57.000 172.000 64 66 69
69.000 57.000 172.000 67 69 73
68.000 58.000 172.000 72 75 80
68.000 58.000 173.000 74 76 82
68.000 59.000 172.000 78 81 88
68.000 59.000 173.000 80 84 91
69.000 58.000 172.000 71 74 78
69.000 59.000 172.000 78 82 89
69.000 59.000 173.000 81 86 94
70.000 59.000 172.000 82 87 95
70.000 60.000 171.000 83 89 98
70.000 61.000 171.000 83 90 99
71.000 60.000 170.000 84 90 98
71.000 60.000 171.000 84 90 99
71.000 61.000 170.000 84 91 101
71.000 61.000 171.000 83 91 100
71.000 62.000 171.000 82 89 99
71.000 63.000 171.000 79 87 97
68.000 60.000 173.000 84 90 98
68.000 61.000 173.000 86 92 101
69.000 60.000 172.000 84 89 98
69.000 60.000 173.000 85 90 98
69.000 61.000 173.000 85 92 101
68.000 60.000 174.000 84 89 97
68.000 61.000 174.000 85 90 99
69.000 62.000 173.000 84 91 100
69.000 63.000 173.000 80 87 96
68.000 62.000 174.000 84 90 99
68.000 62.000 175.000 83 90 99
68.000 63.000 175.000 80 87 96
69.000 62.000 174.000 84 91 100
69.000 63.000 174.000 80 87 96
70.000 60.000 172.000 83 89 98
70.000 61.000 172.000 83 90 100
70.000 62.000 172.000 82 89 99
70.000 62.000 173.000 82 89 99
70.000 63.000 172.000 78 86 96
70.000 63.000 173.000 79 87 96
72.000 48.000 166.000 58 54 52
72.000 48.000 167.000 58 54 52
72.000 49.000 166.000 59 55 53
72.000 49.000 167.000 60 55 53
73.000 48.000 166.000 58 54 53
73.000 49.000 166.000 59 55 53
72.000 50.000 166.000 60 55 53
72.000 50.000 167.000 60 55 53
72.000 51.000 167.000 60 56 53
73.000 50.000 166.000 60 55 53
73.000 51.000 166.000 60 55 53
72.000 52.000 167.000 61 56 54
72.000 53.000 167.000 61 56 54
73.000 52.000 166.000 60 56 53
73.000 52.000 167.000 60 56 53
73.000 53.000 166.000 60 56 54
72.000 54.000 167.000 60 56 55
72.000 55.000 167.000 60 57 56
73.000 54.000 166.000 60 56 54
73.000 55.000 167.000 60 58 57
72.000 54.000 168.000 60 56 55
72.000 55.000 168.000 60 57 56
72.000 56.000 167.000 62 60 61
73.000 56.000 167.000 61 60 61
73.000 57.000 167.000 64 64 66
73.000 58.000 167.000 70 71 76
73.000 59.000 167.000 78 82 89
72.000 56.000 168.000 62 61 62
72.000 57.000 168.000 65 65 68
72.000 58.000 168.000 70 72 77
72.000 58.000 169.000 71 74 79
72.000 59.000 168.000 76 79 85
72.000 59.000 169.000 79 83 90
73.000 58.000 168.000 70 71 76
73.000 59.000 168.000 79 83 90
72.000 60.000 169.000 84 89 98
72.000 61.000 169.000 86 93 102
73.000 60.000 168.000 85 90 98
73.000 61.000 168.000 86 93 103
73.000 61.000 169.000 87 93 103
72.000 60.000 170.000 84 90 99
72.000 61.000 170.000 85 92 101
73.000 62.000 168.000 85 93 103
73.000 62.000 169.000 85 92 102
73.000 63.000 168.000 84 91 102
73.000 63.000 169.000 83 90 100
72.000 62.000 170.000 83 90 100
72.000 63.000 170.000 80 88 98
74.000 62.000 168.000 85 92 103
74.000 63.000 168.000 84 91 101
64.000 52.000 176.000 70 63 59
64.000 53.000 176.000 68 62 59
64.000 54.000 176.000 66 62 60
64.000 55.000 176.000 64 61 61
64.000 56.000 176.000 61 60 61
64.000 56.000 177.000 61 60 61
64.000 57.000 177.000 63 64 68
65.000 56.000 176.000 59 59 62
65.000 57.000 176.000 63 65 68
65.000 58.000 176.000 70 73 79
65.000 59.000 177.000 80 85 92
64.000 59.000 178.000 80 84 90
66.000 59.000 176.000 79 83 91
65.000 60.000 176.000 81 87 95
65.000 60.000 177.000 82 88 96
65.000 61.000 177.000 83 89 97
64.000 60.000 178.000 83 88 96
64.000 61.000 179.000 83 89 97
65.000 62.000 178.000 82 88 97
65.000 63.000 178.000 80 86 95
66.000 60.000 176.000 81 87 95
66.000 61.000 176.000 81 87 96
66.000 62.000 176.000 82 88 97
67.000 67.000 175.000 76 81 89
67.000 68.000 175.000 75 80 88
67.000 69.000 175.000 72 77 84
67.000 70.000 174.000 68 73 80
67.000 70.000 175.000 69 74 81
67.000 71.000 174.000 65 70 76
71.000 64.000 171.000 77 85 94
71.000 65.000 171.000 76 83 92
70.000 67.000 171.000 76 82 90
71.000 66.000 171.000 77 83 91
71.000 67.000 170.000 77 83 92
71.000 67.000 171.000 77 83 91
69.000 64.000 173.000 77 84 93
69.000 65.000 173.000 78 84 92
68.000 64.000 175.000 78 84 93
68.000 65.000 175.000 77 83 91
69.000 64.000 174.000 78 84 93
69.000 65.000 174.000 78 84 92
69.000 66.000 173.000 77 83 91
69.000 67.000 173.000 76 81 89
68.000 66.000 175.000 76 82 90
68.000 67.000 175.000 76 81 89
69.000 66.000 174.000 78 83 91
69.000 67.000 174.000 76 82 90
70.000 64.000 172.000 77 84 93
70.000 64.000 173.000 77 84 93
70.000 65.000 172.000 76 83 91
70.000 65.000 173.000 77 83 91
70.000 66.000 172.000 76 82 90
70.000 66.000 173.000 76 82 91
70.000 67.000 172.000 76 82 90
69.000 71.000 171.000 72 76 83
70.000 68.000 171.000 76 82 90
70.000 69.000 171.000 75 81 89
71.000 68.000 170.000 77 83 91
71.000 68.000 171.000 76 82 90
71.000 69.000 170.000 76 82 90
71.000 69.000 171.000 76 82 90
71.000 70.000 169.000 75 80 87
70.000 70.000 170.000 74 78 85
70.000 70.000 171.000 74 80 88
70.000 71.000 170.000 72 76 82
71.000 70.000 170.000 75 80 87
71.000 71.000 170.000 72 76 83
68.000 69.000 173.000 75 80 88
69.000 68.000 172.000 75 81 89
69.000 68.000 173.000 75 81 89
69.000 69.000 172.000 75 81 89
69.000 69.000 173.000 75 81 88
68.000 68.000 174.000 76 81 89
68.000 69.000 174.000 74 79 87
68.000 70.000 173.000 71 76 84
68.000 71.000 172.000 70 75 82
68.000 71.000 173.000 68 73 80
69.000 70.000 172.000 74 79 87
69.000 71.000 172.000 72 77 84
68.000 70.000 174.000 70 76 83
70.000 68.000 172.000 76 81 89
70.000 69.000 172.000 76 81 89
73.000 64.000 169.000 81 88 98
73.000 65.000 169.000 79 86 96
72.000 64.000 170.000 79 86 95
72.000 64.000 171.000 78 85 94
72.000 65.000 170.000 78 85 94
72.000 66.000 169.000 79 85 94
72.000 67.000 169.000 77 83 92
73.000 66.000 168.000 79 85 95
73.000 66.000 169.000 78 85 94
73.000 67.000 168.000 78 84 93
72.000 66.000 170.000 78 84 93
72.000 67.000 170.000 77 84 92
74.000 64.000 168.000 81 88 98
74.000 65.000 168.000 80 87 97
72.000 68.000 169.000 77 83 91
72.000 69.000 168.000 76 82 90
72.000 69.000 169.000 77 83 91
73.000 68.000 168.000 77 83 91
73.000 69.000 168.000 75 81 89
72.000 68.000 170.000 77 83 92
72.000 70.000 168.000 74 79 87
72.000 70.000 169.000 75 80 87
72.000 71.000 168.000 72 76 83
72.000 71.000 169.000 71 76 83
73.000 70.000 168.000 74 80 88
65.000 64.000 178.000 78 84 93
65.000 64.000 179.000 79 85 93
65.000 65.000 178.000 77 83 91
65.000 65.000 179.000 79 84 93
65.000 66.000 179.000 77 83 91
65.000 67.000 179.000 74 80 88
66.000 65.000 177.000 75 81 90
66.000 66.000 177.000 75 81 89
66.000 67.000 177.000 75 80 88
65.000 68.000 179.000 73 78 85
66.000 68.000 177.000 74 79 86
66.000 69.000 177.000 72 77 84
67.000 68.000 176.000 74 79 87
67.000 69.000 176.000 73 78 85
66.000 70.000 176.000 67 72 79
66.000 71.000 176.000 63 68 75
