ply
format ascii 1.0
element vertex 1055
property float x
property float y
property float z
property uchar red
property uchar green
property uchar blue
end_header
373.000 635.000 251.000 92 99 109
373.000 635.000 252.000 96 103 113
373.000 635.000 253.000 109 115 125
373.000 635.000 254.000 110 115 125
373.000 635.000 255.000 98 105 115
373.000 636.000 250.000 88 94 104
373.000 636.000 251.000 89 96 105
374.000 637.000 250.000 88 93 102
374.000 637.000 251.000 87 93 102
374.000 638.000 250.000 86 92 100
375.000 638.000 250.000 86 92 100
375.000 638.000 251.000 83 89 98
375.000 639.000 250.000 83 89 97
375.000 639.000 251.000 80 86 95
373.000 636.000 252.000 94 101 111
373.000 636.000 253.000 106 112 122
373.000 636.000 254.000 111 116 126
373.000 636.000 255.000 95 101 111
374.000 637.000 252.000 88 94 103
374.000 637.000 253.000 94 100 109
375.000 637.000 252.000 84 91 100
375.000 637.000 253.000 86 92 101
374.000 637.000 254.000 96 101 111
374.000 637.000 255.000 90 96 105
375.000 638.000 252.000 79 86 95
375.000 638.000 253.000 87 93 103
375.000 639.000 252.000 73 81 91
375.000 639.000 253.000 84 90 100
375.000 638.000 254.000 92 98 107
375.000 638.000 255.000 88 95 105
375.000 639.000 254.000 93 99 108
375.000 639.000 255.000 94 101 111
375.000 640.000 255.000 93 99 109
376.000 640.000 250.000 85 90 97
376.000 640.000 251.000 80 86 95
376.000 641.000 251.000 84 89 98
376.000 642.000 251.000 88 92 100
377.000 642.000 251.000 89 93 101
377.000 643.000 251.000 88 93 101
376.000 640.000 252.000 78 84 94
376.000 640.000 253.000 83 90 100
376.000 641.000 252.000 85 91 100
376.000 641.000 253.000 88 94 104
376.000 640.000 254.000 91 97 107
376.000 640.000 255.000 91 98 107
376.000 641.000 254.000 90 96 106
376.000 641.000 255.000 99 105 115
376.000 642.000 252.000 92 97 105
376.000 642.000 253.000 89 95 104
376.000 643.000 253.000 88 92 101
377.000 642.000 252.000 93 97 105
377.000 643.000 252.000 88 93 102
377.000 643.000 253.000 85 90 98
376.000 642.000 254.000 91 97 106
376.000 642.000 255.000 101 106 116
376.000 643.000 254.000 89 94 102
376.000 643.000 255.000 92 96 105
377.000 643.000 254.000 87 91 99
377.000 643.000 255.000 88 92 100
377.000 644.000 251.000 90 94 102
377.000 645.000 251.000 99 101 107
378.000 645.000 251.000 102 103 109
378.000 646.000 251.000 95 97 103
378.000 647.000 251.000 91 93 100
377.000 644.000 252.000 88 92 101
377.000 644.000 253.000 78 83 90
377.000 645.000 252.000 98 100 106
377.000 645.000 253.000 74 77 84
377.000 644.000 254.000 74 77 83
377.000 644.000 255.000 81 84 90
377.000 645.000 254.000 67 70 76
377.000 645.000 255.000 70 71 76
377.000 646.000 255.000 70 71 74
378.000 645.000 252.000 92 93 97
378.000 645.000 253.000 79 80 87
378.000 645.000 254.000 68 71 77
378.000 646.000 252.000 89 91 96
378.000 646.000 253.000 90 92 98
378.000 647.000 252.000 90 90 95
378.000 647.000 253.000 103 103 109
378.000 646.000 254.000 83 86 93
378.000 646.000 255.000 73 74 78
378.000 647.000 254.000 111 112 119
378.000 647.000 255.000 92 93 99
378.000 648.000 251.000 87 90 97
378.000 648.000 252.000 86 86 90
378.000 648.000 253.000 106 105 109
379.000 648.000 252.000 82 80 82
379.000 648.000 253.000 102 99 102
379.000 649.000 252.000 86 84 86
379.000 649.000 253.000 86 82 82
378.000 648.000 254.000 115 114 119
378.000 648.000 255.000 100 99 103
378.000 649.000 255.000 91 87 89
379.000 648.000 254.000 116 115 119
379.000 649.000 254.000 94 91 92
379.000 649.000 255.000 88 84 86
379.000 650.000 252.000 98 99 104
379.000 650.000 253.000 76 75 81
379.000 651.000 252.000 88 93 101
379.000 651.000 253.000 76 79 87
378.000 650.000 255.000 79 75 78
379.000 650.000 254.000 72 72 77
379.000 650.000 255.000 74 72 78
379.000 651.000 254.000 75 79 87
379.000 651.000 255.000 79 83 91
379.000 652.000 252.000 93 98 108
379.000 652.000 253.000 91 93 102
379.000 653.000 252.000 96 104 115
379.000 653.000 253.000 104 109 121
378.000 653.000 255.000 136 141 153
379.000 652.000 254.000 98 100 108
379.000 652.000 255.000 105 108 116
379.000 653.000 254.000 132 135 147
379.000 653.000 255.000 141 145 157
378.000 655.000 253.000 133 141 154
379.000 654.000 252.000 103 110 123
379.000 654.000 253.000 108 118 131
379.000 655.000 252.000 106 113 125
379.000 655.000 253.000 122 130 143
378.000 654.000 255.000 131 141 156
378.000 655.000 254.000 131 140 154
378.000 655.000 255.000 130 139 154
379.000 654.000 254.000 124 133 148
379.000 654.000 255.000 136 144 158
378.000 656.000 253.000 110 117 129
378.000 657.000 253.000 95 100 110
379.000 656.000 252.000 94 99 110
379.000 656.000 253.000 106 113 124
379.000 657.000 252.000 77 78 88
379.000 657.000 253.000 91 95 104
378.000 656.000 254.000 115 122 135
378.000 656.000 255.000 127 135 148
378.000 657.000 254.000 97 102 113
378.000 657.000 255.000 99 106 119
378.000 658.000 253.000 77 82 92
378.000 659.000 253.000 68 76 88
379.000 658.000 252.000 55 62 73
379.000 658.000 253.000 65 71 81
379.000 659.000 252.000 96 104 115
379.000 659.000 253.000 82 90 101
378.000 658.000 254.000 91 95 104
378.000 658.000 255.000 96 101 111
378.000 659.000 254.000 75 80 90
378.000 659.000 255.000 89 93 101
378.000 660.000 253.000 99 107 117
379.000 660.000 252.000 126 133 145
379.000 660.000 253.000 116 123 135
379.000 661.000 253.000 123 131 143
378.000 660.000 254.000 82 88 97
378.000 660.000 255.000 81 87 96
379.000 660.000 254.000 102 108 117
379.000 661.000 254.000 115 121 132
372.000 635.000 257.000 89 95 104
373.000 635.000 256.000 90 96 105
372.000 635.000 258.000 92 98 107
372.000 635.000 259.000 96 101 109
373.000 633.000 263.000 94 99 109
372.000 635.000 260.000 97 102 111
372.000 635.000 261.000 98 104 114
373.000 635.000 261.000 98 104 114
373.000 634.000 262.000 98 104 113
373.000 634.000 263.000 95 100 109
373.000 635.000 262.000 99 105 115
373.000 635.000 263.000 99 104 113
373.000 636.000 256.000 90 97 106
373.000 636.000 257.000 89 95 105
373.000 637.000 256.000 87 93 103
373.000 637.000 257.000 89 96 105
373.000 636.000 258.000 91 98 108
373.000 636.000 259.000 95 100 110
373.000 637.000 258.000 92 100 110
373.000 637.000 259.000 94 101 112
374.000 637.000 256.000 88 95 104
374.000 637.000 257.000 94 100 109
374.000 637.000 258.000 102 108 119
374.000 637.000 259.000 100 108 119
374.000 638.000 256.000 87 94 104
374.000 638.000 257.000 94 100 109
375.000 638.000 256.000 85 92 102
375.000 638.000 257.000 85 92 102
375.000 639.000 256.000 91 98 108
375.000 639.000 257.000 87 94 104
374.000 638.000 258.000 115 120 131
374.000 638.000 259.000 115 122 133
374.000 639.000 259.000 124 129 140
375.000 639.000 258.000 102 107 116
375.000 639.000 259.000 115 121 131
373.000 636.000 260.000 98 103 112
373.000 636.000 261.000 100 104 113
373.000 637.000 260.000 95 101 111
373.000 637.000 261.000 99 104 112
373.000 636.000 262.000 98 104 113
373.000 636.000 263.000 97 102 112
373.000 637.000 262.000 98 103 112
374.000 637.000 260.000 96 103 114
374.000 637.000 261.000 97 102 112
374.000 637.000 262.000 100 104 113
374.000 637.000 263.000 97 103 112
374.000 638.000 260.000 101 108 119
374.000 638.000 261.000 96 103 113
374.000 639.000 260.000 105 112 123
374.000 639.000 261.000 95 102 113
375.000 639.000 260.000 105 112 122
374.000 638.000 262.000 100 104 113
374.000 638.000 263.000 102 106 115
374.000 639.000 262.000 99 104 113
374.000 639.000 263.000 101 106 115
373.000 633.000 264.000 96 101 110
373.000 633.000 265.000 91 97 106
373.000 633.000 266.000 88 93 102
373.000 634.000 264.000 96 101 110
373.000 634.000 265.000 97 102 111
373.000 635.000 264.000 97 102 110
373.000 635.000 265.000 97 102 110
373.000 634.000 266.000 93 99 108
374.000 633.000 266.000 86 91 100
374.000 633.000 267.000 94 99 108
374.000 635.000 265.000 96 101 110
374.000 634.000 266.000 95 100 109
374.000 634.000 267.000 90 95 105
374.000 635.000 266.000 101 106 114
374.000 635.000 267.000 99 104 113
374.000 633.000 268.000 100 104 112
374.000 633.000 269.000 99 104 113
374.000 632.000 270.000 96 101 110
374.000 632.000 271.000 96 101 111
374.000 633.000 270.000 97 102 112
374.000 633.000 271.000 95 101 111
374.000 634.000 268.000 95 99 108
374.000 634.000 269.000 102 106 115
374.000 635.000 268.000 94 99 108
374.000 635.000 269.000 93 99 108
374.000 634.000 270.000 101 106 115
374.000 634.000 271.000 98 103 113
374.000 635.000 270.000 99 105 114
374.000 635.000 271.000 101 106 116
373.000 636.000 264.000 98 103 113
374.000 636.000 264.000 99 104 112
374.000 636.000 265.000 97 102 110
374.000 637.000 264.000 98 103 113
374.000 637.000 265.000 99 104 113
374.000 636.000 266.000 100 105 113
374.000 636.000 267.000 104 109 118
374.000 637.000 266.000 98 103 112
374.000 637.000 267.000 101 106 115
374.000 638.000 264.000 102 107 116
374.000 638.000 265.000 100 105 114
374.000 639.000 264.000 102 107 117
374.000 639.000 265.000 102 107 116
374.000 638.000 266.000 99 104 114
374.000 638.000 267.000 96 102 112
374.000 639.000 266.000 98 104 113
374.000 639.000 267.000 95 101 112
374.000 636.000 268.000 100 105 114
374.000 636.000 269.000 94 99 109
374.000 637.000 268.000 100 106 115
374.000 637.000 269.000 97 103 113
374.000 636.000 270.000 94 99 109
374.000 636.000 271.000 100 105 114
374.000 637.000 270.000 93 98 108
374.000 637.000 271.000 92 98 107
374.000 638.000 268.000 98 104 114
374.000 638.000 269.000 99 105 114
374.000 639.000 268.000 96 102 112
374.000 639.000 269.000 98 103 112
374.000 638.000 270.000 99 103 113
374.000 638.000 271.000 93 99 108
374.000 639.000 270.000 97 102 111
374.000 639.000 271.000 93 98 108
374.000 632.000 272.000 97 103 112
374.000 632.000 273.000 99 104 113
374.000 633.000 272.000 97 103 112
374.000 633.000 273.000 98 103 113
374.000 632.000 274.000 102 107 116
374.000 632.000 275.000 102 108 118
374.000 633.000 274.000 101 106 115
374.000 633.000 275.000 106 111 121
374.000 634.000 272.000 97 103 112
374.000 634.000 273.000 98 103 113
374.000 635.000 272.000 100 105 115
374.000 635.000 273.000 101 106 115
374.000 634.000 274.000 104 108 117
374.000 634.000 275.000 105 111 120
374.000 635.000 274.000 103 107 116
374.000 635.000 275.000 102 107 117
373.000 632.000 277.000 102 107 117
373.000 633.000 277.000 99 105 114
372.000 632.000 279.000 103 108 117
373.000 632.000 278.000 105 110 119
373.000 632.000 279.000 104 109 118
373.000 633.000 278.000 100 105 115
373.000 633.000 279.000 103 108 117
373.000 634.000 277.000 103 107 117
373.000 635.000 277.000 107 111 120
373.000 634.000 278.000 101 106 115
373.000 634.000 279.000 104 109 118
373.000 635.000 278.000 107 111 120
373.000 635.000 279.000 104 109 119
374.000 632.000 276.000 102 107 117
374.000 633.000 276.000 104 109 119
374.000 633.000 277.000 101 107 116
374.000 634.000 276.000 104 110 120
374.000 634.000 277.000 105 110 120
374.000 635.000 276.000 103 109 119
374.000 635.000 277.000 105 110 119
373.000 639.000 272.000 87 93 103
373.000 639.000 273.000 88 93 102
373.000 638.000 274.000 102 106 115
373.000 638.000 275.000 101 105 114
373.000 639.000 274.000 100 104 113
373.000 639.000 275.000 102 106 115
374.000 636.000 272.000 103 108 117
374.000 636.000 273.000 105 109 118
374.000 637.000 272.000 98 103 112
374.000 637.000 273.000 102 106 115
374.000 636.000 274.000 103 107 116
374.000 636.000 275.000 101 106 115
374.000 637.000 274.000 101 105 114
374.000 637.000 275.000 99 104 113
374.000 638.000 272.000 88 93 103
374.000 638.000 273.000 96 100 109
374.000 639.000 272.000 85 91 101
374.000 638.000 274.000 101 105 114
374.000 638.000 275.000 99 103 112
373.000 636.000 277.000 103 107 116
373.000 637.000 277.000 101 106 115
373.000 636.000 278.000 103 108 117
373.000 636.000 279.000 102 107 117
373.000 637.000 278.000 102 107 117
373.000 637.000 279.000 105 109 119
373.000 638.000 276.000 100 105 113
373.000 638.000 277.000 103 107 116
373.000 639.000 276.000 101 105 114
373.000 639.000 277.000 101 106 115
373.000 638.000 278.000 105 110 119
373.000 638.000 279.000 106 111 120
373.000 639.000 278.000 99 105 115
373.000 639.000 279.000 102 107 117
374.000 636.000 276.000 101 107 116
374.000 636.000 277.000 103 108 118
374.000 637.000 276.000 100 105 114
374.000 637.000 277.000 101 106 115
374.000 638.000 276.000 99 103 112
370.000 632.000 281.000 94 95 100
371.000 632.000 280.000 95 100 109
371.000 632.000 281.000 93 96 104
371.000 633.000 280.000 98 103 112
371.000 633.000 281.000 95 99 107
371.000 633.000 282.000 94 97 104
372.000 632.000 280.000 99 105 114
372.000 633.000 280.000 102 107 116
373.000 633.000 280.000 105 110 118
372.000 634.000 280.000 103 108 116
372.000 634.000 281.000 100 104 113
373.000 634.000 280.000 103 108 118
373.000 635.000 280.000 101 107 116
373.000 635.000 281.000 103 108 117
372.000 634.000 282.000 99 103 112
372.000 635.000 282.000 105 110 119
372.000 635.000 283.000 106 111 120
373.000 636.000 280.000 100 106 115
373.000 636.000 281.000 103 108 117
373.000 637.000 280.000 106 110 119
373.000 637.000 281.000 104 109 118
372.000 636.000 282.000 108 112 122
372.000 636.000 283.000 106 111 120
372.000 637.000 282.000 107 112 123
373.000 636.000 282.000 107 112 122
373.000 637.000 282.000 106 111 121
373.000 638.000 280.000 106 110 119
373.000 639.000 280.000 105 109 119
375.000 640.000 256.000 96 103 113
375.000 640.000 257.000 97 104 115
375.000 641.000 257.000 107 113 124
375.000 640.000 258.000 93 99 109
375.000 640.000 259.000 96 102 112
375.000 641.000 258.000 96 103 114
375.000 641.000 259.000 93 99 108
375.000 642.000 259.000 95 100 109
375.000 640.000 260.000 98 104 115
375.000 640.000 261.000 93 99 110
375.000 641.000 260.000 92 97 106
375.000 641.000 261.000 89 95 105
374.000 640.000 262.000 101 106 115
374.000 640.000 263.000 101 106 115
375.000 640.000 262.000 97 103 113
375.000 640.000 263.000 102 107 116
375.000 641.000 262.000 89 96 107
375.000 641.000 263.000 100 105 115
375.000 642.000 260.000 97 101 109
375.000 642.000 261.000 93 99 108
375.000 643.000 260.000 96 101 109
375.000 643.000 261.000 96 101 110
375.000 642.000 262.000 88 94 103
375.000 642.000 263.000 95 100 109
375.000 643.000 262.000 94 98 107
375.000 643.000 263.000 92 97 105
375.000 644.000 261.000 99 105 115
375.000 644.000 262.000 100 106 115
375.000 644.000 263.000 95 102 112
375.000 645.000 263.000 112 119 131
374.000 640.000 264.000 99 105 115
374.000 640.000 265.000 99 105 114
374.000 641.000 265.000 99 105 114
375.000 641.000 264.000 100 105 115
375.000 641.000 265.000 100 105 115
374.000 640.000 266.000 100 105 115
374.000 640.000 267.000 98 103 113
374.000 641.000 266.000 102 106 115
374.000 641.000 267.000 102 107 116
375.000 642.000 264.000 101 106 115
375.000 642.000 265.000 101 106 116
375.000 643.000 264.000 95 101 110
375.000 643.000 265.000 101 106 115
374.000 642.000 266.000 100 104 113
374.000 642.000 267.000 100 105 114
374.000 643.000 266.000 102 106 115
374.000 643.000 267.000 101 105 114
375.000 642.000 266.000 101 106 115
375.000 643.000 266.000 102 107 116
373.000 640.000 271.000 95 100 109
373.000 641.000 271.000 97 102 111
373.000 642.000 271.000 100 104 113
373.000 643.000 271.000 99 103 112
374.000 640.000 268.000 97 102 112
374.000 640.000 269.000 97 102 111
374.000 641.000 268.000 100 105 114
374.000 641.000 269.000 96 101 110
374.000 640.000 270.000 97 102 110
374.000 640.000 271.000 96 101 110
374.000 641.000 270.000 100 104 113
374.000 641.000 271.000 98 102 111
374.000 642.000 268.000 99 104 113
374.000 642.000 269.000 95 101 110
374.000 643.000 268.000 99 104 114
374.000 643.000 269.000 96 102 111
374.000 642.000 270.000 95 100 109
374.000 642.000 271.000 99 103 112
374.000 643.000 270.000 93 98 107
374.000 643.000 271.000 96 100 109
375.000 644.000 264.000 94 101 111
375.000 644.000 265.000 98 104 114
375.000 645.000 264.000 117 124 136
375.000 645.000 265.000 104 111 122
374.000 644.000 267.000 99 104 114
375.000 644.000 266.000 100 106 116
375.000 644.000 267.000 98 105 115
375.000 645.000 266.000 99 106 117
375.000 645.000 267.000 101 107 116
375.000 646.000 264.000 118 124 136
375.000 646.000 265.000 102 109 121
375.000 646.000 266.000 96 102 113
375.000 646.000 267.000 98 104 114
375.000 647.000 266.000 91 98 108
375.000 647.000 267.000 91 97 106
374.000 644.000 268.000 96 102 112
374.000 644.000 269.000 95 101 111
374.000 645.000 269.000 95 101 110
375.000 644.000 268.000 99 105 115
375.000 645.000 268.000 99 104 114
375.000 645.000 269.000 95 101 110
374.000 644.000 270.000 95 100 109
374.000 644.000 271.000 93 98 107
374.000 645.000 270.000 95 100 110
374.000 645.000 271.000 92 98 107
375.000 646.000 268.000 99 103 113
375.000 646.000 269.000 97 102 111
375.000 647.000 268.000 97 101 110
375.000 647.000 269.000 96 101 110
374.000 646.000 270.000 96 101 111
374.000 646.000 271.000 97 102 112
374.000 647.000 270.000 96 101 110
374.000 647.000 271.000 95 101 110
375.000 648.000 266.000 83 89 99
375.000 648.000 267.000 82 86 95
375.000 649.000 267.000 81 86 95
375.000 648.000 268.000 87 91 99
375.000 648.000 269.000 98 102 111
375.000 649.000 268.000 84 89 97
375.000 649.000 269.000 96 100 108
374.000 648.000 270.000 102 106 115
374.000 648.000 271.000 97 103 112
374.000 649.000 270.000 105 110 119
374.000 649.000 271.000 102 108 118
375.000 648.000 270.000 102 106 115
375.000 649.000 270.000 103 108 116
375.000 650.000 268.000 94 99 108
375.000 650.000 269.000 93 99 109
375.000 651.000 268.000 102 107 117
375.000 651.000 269.000 95 102 112
374.000 650.000 270.000 106 110 120
374.000 650.000 271.000 110 114 124
374.000 651.000 271.000 111 115 124
375.000 650.000 270.000 102 107 116
375.000 651.000 270.000 94 99 109
375.000 651.000 271.000 106 110 119
375.000 652.000 268.000 94 100 110
375.000 652.000 269.000 85 91 101
375.000 653.000 268.000 92 98 108
375.000 653.000 269.000 88 93 102
374.000 652.000 271.000 103 108 117
374.000 653.000 271.000 97 101 111
375.000 652.000 270.000 86 92 101
375.000 652.000 271.000 95 101 110
375.000 653.000 270.000 89 94 103
375.000 653.000 271.000 94 99 107
375.000 654.000 268.000 96 102 113
375.000 654.000 269.000 94 100 110
375.000 655.000 269.000 95 102 113
374.000 654.000 271.000 99 103 112
374.000 655.000 271.000 103 108 118
375.000 654.000 270.000 99 103 113
375.000 654.000 271.000 101 104 113
375.000 655.000 270.000 100 106 117
375.000 655.000 271.000 105 110 119
376.000 640.000 256.000 95 102 113
376.000 641.000 256.000 115 120 131
376.000 641.000 257.000 119 124 135
376.000 641.000 258.000 100 108 119
376.000 641.000 259.000 91 98 109
376.000 642.000 256.000 122 127 137
376.000 642.000 257.000 121 127 138
376.000 643.000 256.000 100 105 114
376.000 643.000 257.000 103 109 119
376.000 642.000 258.000 95 104 116
376.000 642.000 259.000 89 96 106
376.000 643.000 258.000 89 98 109
376.000 643.000 259.000 85 93 104
376.000 643.000 260.000 92 98 108
376.000 644.000 256.000 91 95 103
376.000 644.000 257.000 89 94 103
377.000 644.000 256.000 85 89 96
377.000 644.000 257.000 88 92 100
377.000 645.000 256.000 77 80 85
377.000 645.000 257.000 86 91 99
376.000 644.000 258.000 87 95 105
376.000 644.000 259.000 99 106 116
376.000 645.000 258.000 90 97 108
376.000 645.000 259.000 102 110 122
377.000 645.000 258.000 89 95 104
377.000 645.000 259.000 86 95 107
377.000 646.000 256.000 71 71 75
377.000 646.000 257.000 77 80 87
377.000 647.000 257.000 72 74 79
377.000 646.000 258.000 85 91 100
377.000 646.000 259.000 90 99 111
377.000 647.000 258.000 80 84 92
377.000 647.000 259.000 92 98 108
378.000 647.000 256.000 75 75 78
378.000 647.000 257.000 70 71 75
376.000 644.000 260.000 101 109 120
376.000 644.000 261.000 106 113 125
376.000 645.000 260.000 121 127 139
376.000 645.000 261.000 116 123 135
376.000 644.000 262.000 113 119 131
376.000 645.000 262.000 126 131 143
376.000 645.000 263.000 121 128 140
376.000 646.000 260.000 112 120 133
376.000 646.000 261.000 105 115 129
376.000 647.000 261.000 108 119 134
377.000 646.000 260.000 104 113 126
377.000 647.000 260.000 98 108 121
377.000 647.000 261.000 103 114 129
376.000 646.000 262.000 113 120 132
376.000 646.000 263.000 123 129 140
376.000 647.000 262.000 119 127 140
376.000 647.000 263.000 117 126 139
377.000 647.000 262.000 122 131 144
376.000 646.000 264.000 121 128 140
376.000 646.000 265.000 107 115 127
376.000 647.000 264.000 116 125 139
376.000 647.000 265.000 109 116 128
376.000 647.000 266.000 96 103 114
377.000 648.000 259.000 111 116 126
378.000 648.000 256.000 81 80 83
378.000 648.000 257.000 71 72 77
378.000 649.000 256.000 81 79 83
378.000 649.000 257.000 76 77 82
378.000 648.000 258.000 83 87 95
378.000 648.000 259.000 110 115 125
378.000 649.000 258.000 86 90 98
378.000 649.000 259.000 116 121 132
378.000 650.000 256.000 79 78 81
378.000 650.000 257.000 77 78 84
378.000 651.000 256.000 86 89 97
378.000 651.000 257.000 86 90 98
379.000 651.000 256.000 80 81 87
378.000 650.000 258.000 81 85 94
378.000 650.000 259.000 97 102 112
378.000 651.000 258.000 87 92 101
378.000 651.000 259.000 93 97 106
377.000 648.000 260.000 115 123 135
377.000 648.000 261.000 119 128 141
377.000 649.000 260.000 126 131 141
377.000 649.000 261.000 126 131 142
376.000 648.000 263.000 123 132 146
376.000 649.000 263.000 123 132 145
377.000 648.000 262.000 125 133 146
377.000 648.000 263.000 126 133 146
377.000 649.000 262.000 125 134 147
377.000 649.000 263.000 129 137 151
377.000 650.000 260.000 119 122 132
377.000 650.000 261.000 120 124 134
377.000 651.000 261.000 106 111 120
377.000 650.000 262.000 130 136 148
377.000 650.000 263.000 144 150 163
377.000 651.000 262.000 111 117 128
377.000 651.000 263.000 116 123 135
378.000 649.000 260.000 118 123 134
378.000 650.000 260.000 115 119 129
378.000 651.000 260.000 97 101 110
378.000 651.000 261.000 93 98 107
378.000 652.000 256.000 108 112 120
378.000 652.000 257.000 96 101 109
378.000 653.000 256.000 125 131 143
378.000 653.000 257.000 99 106 118
378.000 652.000 258.000 93 98 107
378.000 652.000 259.000 82 87 96
378.000 653.000 258.000 95 100 110
378.000 653.000 259.000 88 92 100
378.000 654.000 256.000 132 140 155
378.000 654.000 257.000 111 119 132
378.000 655.000 256.000 134 142 156
378.000 655.000 257.000 115 123 136
378.000 654.000 258.000 100 105 115
378.000 654.000 259.000 97 101 109
378.000 655.000 258.000 101 108 119
378.000 655.000 259.000 100 105 115
377.000 652.000 261.000 86 90 99
377.000 653.000 261.000 91 91 99
377.000 652.000 262.000 95 100 111
377.000 652.000 263.000 97 103 114
377.000 653.000 262.000 97 100 108
377.000 653.000 263.000 96 101 111
377.000 654.000 261.000 98 102 113
377.000 655.000 261.000 109 114 128
377.000 654.000 262.000 107 112 123
377.000 654.000 263.000 94 102 113
377.000 655.000 262.000 120 128 142
377.000 655.000 263.000 118 128 143
378.000 652.000 260.000 66 71 83
378.000 652.000 261.000 74 78 89
378.000 653.000 260.000 74 77 85
378.000 653.000 261.000 80 82 90
378.000 654.000 260.000 94 98 105
378.000 654.000 261.000 92 96 106
378.000 655.000 260.000 103 108 118
378.000 655.000 261.000 108 113 125
376.000 648.000 264.000 110 121 135
376.000 648.000 265.000 92 101 115
376.000 649.000 264.000 120 130 144
376.000 649.000 265.000 90 100 114
376.000 648.000 266.000 86 92 103
376.000 649.000 266.000 84 90 101
376.000 649.000 267.000 82 87 96
376.000 650.000 264.000 119 129 143
376.000 650.000 265.000 92 103 118
376.000 651.000 264.000 99 109 123
376.000 651.000 265.000 91 101 114
377.000 650.000 264.000 136 143 157
377.000 651.000 264.000 103 111 123
376.000 650.000 266.000 87 93 104
376.000 650.000 267.000 87 93 102
376.000 651.000 266.000 93 99 110
376.000 651.000 267.000 98 103 113
376.000 651.000 268.000 105 110 119
376.000 652.000 265.000 104 109 119
376.000 653.000 265.000 103 107 116
377.000 652.000 264.000 96 103 114
377.000 652.000 265.000 102 107 118
377.000 653.000 264.000 97 102 112
377.000 653.000 265.000 100 105 114
376.000 652.000 266.000 105 110 119
376.000 652.000 267.000 103 107 117
376.000 653.000 266.000 104 108 117
376.000 653.000 267.000 97 103 112
377.000 654.000 264.000 93 99 110
377.000 654.000 265.000 94 99 109
377.000 655.000 264.000 106 115 128
377.000 655.000 265.000 104 112 123
376.000 654.000 266.000 97 102 111
376.000 654.000 267.000 97 102 111
376.000 655.000 266.000 102 108 117
376.000 655.000 267.000 104 110 120
376.000 652.000 268.000 99 104 114
376.000 653.000 268.000 93 99 109
376.000 654.000 268.000 96 102 112
376.000 655.000 268.000 105 112 123
373.000 640.000 272.000 92 98 107
373.000 640.000 273.000 88 93 102
373.000 641.000 272.000 95 100 109
373.000 641.000 273.000 96 101 110
373.000 640.000 274.000 89 94 103
373.000 640.000 275.000 101 105 114
373.000 641.000 274.000 92 97 105
373.000 641.000 275.000 91 96 105
373.000 642.000 272.000 98 103 112
373.000 642.000 273.000 97 102 112
373.000 643.000 272.000 101 105 115
373.000 643.000 273.000 100 105 114
373.000 642.000 274.000 96 101 111
373.000 642.000 275.000 95 100 110
373.000 643.000 274.000 98 103 113
373.000 643.000 275.000 99 104 114
373.000 640.000 276.000 103 107 116
373.000 640.000 277.000 100 105 115
373.000 641.000 276.000 100 105 115
373.000 641.000 277.000 103 109 118
373.000 640.000 278.000 97 103 113
373.000 640.000 279.000 101 106 116
373.000 641.000 278.000 99 105 116
373.000 641.000 279.000 100 105 115
373.000 642.000 276.000 93 99 109
373.000 642.000 277.000 100 105 115
373.000 643.000 276.000 94 99 109
373.000 643.000 277.000 92 98 107
372.000 643.000 279.000 104 108 117
373.000 642.000 278.000 101 106 116
373.000 642.000 279.000 101 106 116
373.000 643.000 278.000 99 104 113
373.000 643.000 279.000 102 106 116
373.000 644.000 272.000 98 103 112
373.000 644.000 273.000 102 107 116
373.000 645.000 272.000 92 97 107
373.000 645.000 273.000 99 104 113
373.000 644.000 274.000 99 104 113
373.000 644.000 275.000 98 103 112
373.000 645.000 274.000 101 106 115
373.000 645.000 275.000 102 106 115
373.000 646.000 273.000 101 105 113
373.000 647.000 273.000 100 104 113
373.000 646.000 274.000 102 106 115
373.000 646.000 275.000 103 107 115
373.000 647.000 274.000 108 112 120
373.000 647.000 275.000 107 111 119
374.000 644.000 272.000 93 98 108
374.000 645.000 272.000 90 96 105
374.000 646.000 272.000 96 101 110
374.000 647.000 272.000 97 102 111
374.000 647.000 273.000 96 100 109
372.000 644.000 277.000 92 97 106
372.000 645.000 276.000 100 104 113
372.000 645.000 277.000 97 101 110
373.000 644.000 276.000 96 101 110
373.000 644.000 277.000 90 95 104
373.000 645.000 276.000 101 105 114
372.000 644.000 278.000 92 97 107
372.000 644.000 279.000 102 107 116
372.000 645.000 278.000 92 97 106
372.000 645.000 279.000 95 100 109
373.000 644.000 278.000 96 101 111
372.000 646.000 276.000 100 104 113
372.000 646.000 277.000 99 104 113
372.000 647.000 276.000 102 107 116
372.000 647.000 277.000 102 106 116
373.000 646.000 276.000 103 107 116
373.000 647.000 276.000 103 108 116
372.000 646.000 278.000 98 103 112
372.000 646.000 279.000 93 98 108
372.000 647.000 278.000 99 104 114
372.000 647.000 279.000 96 101 112
373.000 640.000 280.000 102 107 116
373.000 641.000 280.000 99 104 113
372.000 641.000 282.000 104 109 119
372.000 642.000 281.000 100 105 115
372.000 643.000 280.000 105 110 119
372.000 643.000 281.000 104 108 118
373.000 642.000 280.000 101 106 115
373.000 643.000 280.000 104 108 118
372.000 642.000 282.000 102 107 117
372.000 643.000 282.000 104 109 119
372.000 644.000 280.000 110 113 122
372.000 644.000 281.000 109 113 123
372.000 645.000 280.000 108 111 120
372.000 645.000 281.000 112 115 125
372.000 644.000 282.000 109 114 124
372.000 646.000 280.000 103 107 116
372.000 647.000 280.000 96 101 111
373.000 648.000 273.000 100 105 114
373.000 649.000 273.000 100 105 115
373.000 648.000 274.000 104 108 118
373.000 648.000 275.000 107 111 121
373.000 649.000 274.000 101 106 116
373.000 649.000 275.000 105 110 120
373.000 650.000 273.000 102 108 118
373.000 651.000 273.000 103 109 119
373.000 650.000 274.000 101 107 117
373.000 650.000 275.000 103 108 119
373.000 651.000 274.000 102 108 118
373.000 651.000 275.000 103 108 118
374.000 648.000 272.000 97 102 112
374.000 648.000 273.000 99 103 112
374.000 649.000 272.000 99 105 115
374.000 649.000 273.000 99 105 115
374.000 650.000 272.000 107 113 123
374.000 650.000 273.000 102 108 118
374.000 651.000 272.000 110 115 125
374.000 651.000 273.000 106 112 122
372.000 648.000 277.000 101 105 114
372.000 649.000 277.000 101 106 115
373.000 648.000 276.000 102 107 116
373.000 648.000 277.000 101 105 115
373.000 649.000 276.000 104 108 118
373.000 649.000 277.000 102 106 116
372.000 648.000 278.000 101 106 116
372.000 648.000 279.000 98 103 113
372.000 649.000 278.000 102 107 117
372.000 649.000 279.000 102 107 116
372.000 650.000 277.000 105 110 119
373.000 650.000 276.000 104 110 119
373.000 650.000 277.000 104 109 119
373.000 651.000 276.000 100 106 116
373.000 651.000 277.000 103 108 118
372.000 650.000 278.000 104 110 119
372.000 650.000 279.000 103 107 117
372.000 651.000 278.000 104 110 120
372.000 651.000 279.000 102 107 117
373.000 652.000 273.000 110 115 125
373.000 652.000 274.000 106 112 122
373.000 652.000 275.000 101 107 118
373.000 653.000 274.000 107 112 122
373.000 653.000 275.000 105 111 121
373.000 654.000 274.000 111 115 124
373.000 654.000 275.000 107 112 122
373.000 655.000 274.000 108 112 121
373.000 655.000 275.000 105 110 120
374.000 652.000 272.000 109 114 124
374.000 652.000 273.000 112 117 127
374.000 653.000 272.000 101 106 116
374.000 653.000 273.000 108 113 124
374.000 654.000 272.000 97 103 112
374.000 654.000 273.000 105 110 120
374.000 655.000 272.000 99 105 115
374.000 655.000 273.000 101 107 117
372.000 652.000 277.000 105 109 119
372.000 653.000 277.000 106 110 120
373.000 652.000 276.000 98 104 114
373.000 652.000 277.000 102 107 117
373.000 653.000 276.000 103 108 119
373.000 653.000 277.000 103 108 118
372.000 652.000 278.000 106 111 120
372.000 652.000 279.000 107 112 121
372.000 653.000 278.000 106 110 119
372.000 653.000 279.000 105 110 120
372.000 654.000 277.000 104 109 118
372.000 655.000 277.000 107 111 120
373.000 654.000 276.000 104 109 119
373.000 655.000 276.000 102 107 117
372.000 654.000 278.000 106 110 119
372.000 654.000 279.000 109 114 125
372.000 655.000 278.000 108 112 122
372.000 655.000 279.000 109 114 124
371.000 649.000 282.000 102 106 115
371.000 651.000 281.000 104 108 117
371.000 652.000 281.000 106 111 121
371.000 653.000 281.000 107 112 123
371.000 654.000 280.000 111 116 127
371.000 654.000 281.000 112 117 128
371.000 655.000 280.000 108 113 124
371.000 655.000 281.000 108 114 124
371.000 654.000 282.000 113 118 129
371.000 655.000 282.000 114 119 130
372.000 648.000 280.000 99 103 113
372.000 649.000 280.000 103 107 115
372.000 650.000 280.000 102 106 115
375.000 656.000 269.000 110 118 130
375.000 657.000 269.000 122 129 143
374.000 656.000 271.000 108 113 124
374.000 657.000 271.000 98 105 117
375.000 656.000 270.000 110 116 128
375.000 656.000 271.000 112 118 129
375.000 657.000 270.000 113 120 132
375.000 657.000 271.000 101 109 122
375.000 658.000 269.000 110 118 132
375.000 659.000 269.000 99 107 120
374.000 658.000 271.000 105 111 123
374.000 659.000 271.000 117 122 133
375.000 658.000 270.000 103 110 122
375.000 658.000 271.000 102 109 121
375.000 659.000 270.000 111 117 128
375.000 659.000 271.000 115 120 131
375.000 660.000 269.000 103 108 120
375.000 661.000 269.000 102 108 119
374.000 660.000 271.000 112 117 126
374.000 661.000 270.000 102 109 121
374.000 661.000 271.000 104 110 122
375.000 660.000 270.000 113 117 127
375.000 661.000 270.000 102 108 120
375.000 662.000 268.000 104 110 121
375.000 662.000 269.000 107 115 128
375.000 662.000 270.000 116 124 138
377.000 658.000 259.000 104 110 121
377.000 659.000 259.000 107 113 124
378.000 656.000 256.000 117 126 140
378.000 656.000 257.000 98 107 119
378.000 657.000 256.000 99 108 120
378.000 657.000 257.000 99 106 118
378.000 656.000 258.000 101 108 119
378.000 656.000 259.000 102 109 121
378.000 657.000 258.000 102 108 119
378.000 657.000 259.000 104 110 122
378.000 658.000 256.000 102 107 117
378.000 658.000 257.000 101 106 116
378.000 659.000 256.000 90 95 104
378.000 659.000 257.000 95 100 109
378.000 658.000 258.000 103 108 118
378.000 658.000 259.000 105 110 121
378.000 659.000 258.000 107 111 120
377.000 656.000 261.000 97 102 115
377.000 657.000 260.000 97 105 117
377.000 657.000 261.000 94 102 113
377.000 656.000 262.000 121 127 139
377.000 656.000 263.000 142 150 163
377.000 657.000 262.000 119 124 135
377.000 657.000 263.000 135 142 154
377.000 658.000 260.000 103 109 119
377.000 658.000 261.000 100 105 115
377.000 659.000 260.000 101 108 120
377.000 659.000 261.000 97 105 116
377.000 658.000 262.000 103 108 118
377.000 658.000 263.000 111 117 127
377.000 659.000 262.000 95 101 111
377.000 659.000 263.000 101 105 115
378.000 656.000 260.000 99 107 119
378.000 657.000 260.000 100 108 120
377.000 660.000 259.000 110 116 127
377.000 661.000 259.000 127 133 145
378.000 660.000 256.000 88 93 102
378.000 660.000 257.000 93 98 109
378.000 660.000 258.000 96 101 112
377.000 660.000 260.000 122 128 140
377.000 660.000 261.000 126 133 146
377.000 661.000 260.000 138 144 156
377.000 661.000 261.000 134 140 152
377.000 660.000 262.000 103 111 124
377.000 660.000 263.000 99 104 114
377.000 661.000 262.000 110 118 131
377.000 661.000 263.000 103 110 121
377.000 656.000 264.000 118 127 141
377.000 656.000 265.000 108 116 129
377.000 657.000 264.000 111 119 132
377.000 657.000 265.000 101 109 122
376.000 656.000 266.000 123 129 140
376.000 656.000 267.000 131 137 149
376.000 657.000 266.000 124 130 142
376.000 657.000 267.000 130 137 150
376.000 658.000 265.000 109 115 126
376.000 659.000 265.000 105 111 121
377.000 658.000 264.000 107 114 126
377.000 658.000 265.000 106 113 125
377.000 659.000 264.000 105 110 120
377.000 659.000 265.000 105 111 121
376.000 658.000 266.000 116 122 133
376.000 658.000 267.000 116 123 136
376.000 659.000 266.000 105 111 122
376.000 659.000 267.000 102 110 123
376.000 656.000 268.000 137 143 155
376.000 657.000 268.000 128 136 150
376.000 657.000 269.000 135 143 156
376.000 658.000 268.000 121 129 142
376.000 658.000 269.000 132 141 155
376.000 659.000 268.000 100 108 120
376.000 660.000 265.000 107 111 121
376.000 661.000 264.000 106 110 119
376.000 661.000 265.000 106 111 121
376.000 660.000 266.000 105 111 122
376.000 660.000 267.000 97 105 117
376.000 661.000 266.000 101 107 119
376.000 661.000 267.000 97 104 116
376.000 660.000 268.000 99 105 117
376.000 661.000 268.000 99 105 116
371.000 658.000 279.000 108 113 124
371.000 659.000 279.000 103 110 121
371.000 661.000 277.000 105 108 118
371.000 660.000 278.000 112 119 131
371.000 660.000 279.000 110 115 127
371.000 661.000 278.000 107 111 121
371.000 661.000 279.000 110 115 125
373.000 656.000 274.000 107 112 123
373.000 656.000 275.000 106 112 122
373.000 657.000 274.000 107 114 126
373.000 657.000 275.000 109 116 128
373.000 658.000 273.000 118 125 139
373.000 659.000 273.000 112 119 133
373.000 658.000 274.000 130 136 150
373.000 658.000 275.000 120 128 141
373.000 659.000 274.000 127 134 148
373.000 659.000 275.000 122 129 142
374.000 656.000 272.000 99 105 116
374.000 656.000 273.000 98 104 116
374.000 657.000 272.000 102 108 118
374.000 657.000 273.000 107 112 124
374.000 658.000 272.000 108 114 125
374.000 658.000 273.000 110 116 128
374.000 659.000 272.000 107 113 124
374.000 659.000 273.000 107 114 125
372.000 656.000 277.000 107 111 121
372.000 657.000 276.000 106 113 123
372.000 657.000 277.000 108 114 125
373.000 656.000 276.000 104 109 120
373.000 657.000 276.000 106 113 124
372.000 656.000 278.000 106 111 121
372.000 656.000 279.000 105 111 121
372.000 657.000 278.000 107 113 124
372.000 657.000 279.000 108 113 124
372.000 658.000 276.000 109 117 129
372.000 658.000 277.000 106 113 125
372.000 659.000 276.000 114 121 134
372.000 659.000 277.000 109 117 129
373.000 658.000 276.000 110 118 130
373.000 659.000 276.000 121 128 140
372.000 658.000 278.000 107 113 125
372.000 658.000 279.000 109 114 125
372.000 659.000 278.000 107 114 126
372.000 659.000 279.000 104 110 121
373.000 660.000 273.000 105 110 121
373.000 661.000 273.000 104 109 120
372.000 660.000 275.000 118 124 136
372.000 661.000 274.000 103 109 121
372.000 661.000 275.000 106 112 124
373.000 660.000 274.000 103 110 122
373.000 660.000 275.000 120 126 138
373.000 661.000 274.000 100 107 119
374.000 660.000 272.000 107 112 122
374.000 660.000 273.000 108 113 124
374.000 661.000 272.000 103 109 121
372.000 660.000 276.000 120 126 139
372.000 660.000 277.000 111 118 131
372.000 661.000 276.000 103 110 120
372.000 660.000 278.000 112 118 131
372.000 662.000 276.000 106 111 122
371.000 656.000 280.000 108 113 124
371.000 656.000 281.000 106 112 123
371.000 657.000 280.000 109 114 124
371.000 657.000 281.000 111 116 127
370.000 657.000 282.000 112 117 127
371.000 656.000 282.000 112 117 128
371.000 657.000 282.000 110 115 126
370.000 658.000 281.000 109 114 125
370.000 659.000 281.000 111 116 127
371.000 658.000 280.000 114 119 129
371.000 658.000 281.000 111 116 126
371.000 659.000 280.000 110 115 126
371.000 659.000 281.000 115 120 130
370.000 658.000 282.000 114 118 129
370.000 659.000 282.000 107 112 123
369.000 661.000 281.000 106 113 124
369.000 660.000 282.000 105 111 122
369.000 661.000 282.000 104 110 122
370.000 660.000 280.000 107 113 124
370.000 660.000 281.000 108 114 125
370.000 661.000 280.000 116 121 131
370.000 661.000 281.000 107 113 124
370.000 660.000 282.000 105 111 122
