ply
format ascii 1.0
element vertex 1386
property float x
property float y
property float z
property uchar red
property uchar green
property uchar blue
end_header
126.000 387.000 286.000 66 83 100
127.000 386.000 286.000 68 85 102
127.000 387.000 286.000 64 82 99
125.000 390.000 286.000 68 83 100
125.000 391.000 286.000 68 83 99
126.000 388.000 286.000 64 82 99
126.000 389.000 286.000 67 83 100
127.000 388.000 286.000 65 82 100
127.000 389.000 286.000 67 84 101
126.000 390.000 286.000 67 83 100
126.000 391.000 286.000 66 83 99
127.000 390.000 286.000 68 84 101
127.000 391.000 286.000 66 83 100
125.000 392.000 286.000 66 83 100
125.000 393.000 286.000 65 82 99
126.000 392.000 286.000 65 82 99
126.000 393.000 286.000 64 82 99
127.000 392.000 286.000 66 83 100
127.000 393.000 286.000 65 82 99
126.000 394.000 286.000 62 79 96
126.000 395.000 286.000 62 79 95
127.000 394.000 286.000 61 79 97
127.000 395.000 286.000 62 79 96
126.000 396.000 286.000 63 79 95
126.000 397.000 286.000 62 78 94
127.000 396.000 286.000 63 79 96
127.000 397.000 286.000 63 79 95
127.000 398.000 286.000 62 79 95
127.000 399.000 286.000 60 77 94
127.000 400.000 286.000 59 77 94
127.000 401.000 286.000 58 76 93
127.000 402.000 286.000 58 76 94
127.000 403.000 286.000 60 77 94
127.000 404.000 286.000 58 76 93
127.000 405.000 286.000 57 74 91
127.000 407.000 286.000 57 74 91
129.000 383.000 286.000 70 87 104
130.000 383.000 286.000 70 86 103
131.000 383.000 286.000 71 86 102
132.000 383.000 286.000 70 85 100
133.000 383.000 286.000 67 83 99
134.000 383.000 286.000 70 85 102
135.000 383.000 286.000 73 88 104
136.000 383.000 286.000 74 89 104
137.000 382.000 286.000 74 88 104
137.000 383.000 286.000 76 90 105
138.000 382.000 286.000 73 88 103
138.000 383.000 286.000 75 89 105
139.000 382.000 286.000 73 88 104
139.000 383.000 286.000 75 90 106
141.000 382.000 285.000 67 83 100
141.000 383.000 285.000 67 84 100
140.000 382.000 286.000 70 87 103
140.000 383.000 286.000 74 90 106
141.000 382.000 286.000 68 84 101
141.000 383.000 286.000 71 87 104
142.000 382.000 285.000 64 80 97
142.000 383.000 285.000 66 83 99
143.000 382.000 285.000 61 78 94
143.000 383.000 285.000 63 79 95
142.000 383.000 286.000 69 85 102
144.000 382.000 285.000 59 76 92
144.000 383.000 285.000 61 78 94
145.000 382.000 285.000 56 73 89
145.000 383.000 285.000 59 76 91
146.000 382.000 284.000 59 74 89
146.000 382.000 285.000 59 74 90
146.000 383.000 284.000 58 73 88
146.000 383.000 285.000 59 75 90
147.000 383.000 284.000 57 72 87
150.000 383.000 283.000 54 69 83
151.000 383.000 283.000 51 67 81
148.000 383.000 284.000 57 72 86
149.000 383.000 284.000 59 72 86
150.000 383.000 284.000 56 70 85
158.000 383.000 279.000 49 60 71
159.000 382.000 279.000 52 62 73
159.000 383.000 279.000 52 62 72
152.000 383.000 283.000 52 66 80
153.000 383.000 282.000 54 68 82
153.000 383.000 283.000 53 68 82
155.000 383.000 281.000 56 69 82
154.000 383.000 282.000 55 69 82
156.000 383.000 280.000 54 66 78
156.000 383.000 281.000 53 65 78
157.000 383.000 280.000 51 63 75
158.000 382.000 280.000 49 60 72
158.000 383.000 280.000 49 61 72
160.000 382.000 279.000 55 64 74
160.000 383.000 278.000 52 61 72
160.000 383.000 279.000 52 62 72
161.000 383.000 278.000 50 60 71
162.000 383.000 277.000 47 58 70
163.000 383.000 277.000 45 57 69
162.000 383.000 278.000 49 59 70
128.000 384.000 286.000 67 85 102
128.000 385.000 286.000 68 86 103
129.000 384.000 286.000 67 85 103
129.000 385.000 286.000 66 84 102
128.000 386.000 286.000 67 84 102
128.000 387.000 286.000 64 83 100
129.000 386.000 286.000 64 82 100
129.000 387.000 286.000 64 82 100
130.000 384.000 286.000 68 84 101
130.000 385.000 286.000 66 83 100
131.000 384.000 286.000 70 85 101
131.000 385.000 286.000 67 83 99
130.000 386.000 286.000 63 81 98
130.000 387.000 286.000 63 80 98
131.000 386.000 286.000 65 82 98
131.000 387.000 286.000 64 81 97
128.000 388.000 286.000 65 83 100
128.000 389.000 286.000 66 83 100
129.000 388.000 286.000 67 84 101
129.000 389.000 286.000 67 84 101
128.000 390.000 286.000 67 84 101
128.000 391.000 286.000 67 84 101
129.000 390.000 286.000 68 85 101
129.000 391.000 286.000 68 85 101
130.000 388.000 286.000 66 83 100
130.000 389.000 286.000 67 83 100
131.000 388.000 286.000 67 83 99
131.000 389.000 286.000 67 83 99
130.000 390.000 286.000 68 84 101
130.000 391.000 286.000 68 84 101
131.000 390.000 286.000 69 84 100
131.000 391.000 286.000 68 84 100
132.000 384.000 286.000 69 84 100
132.000 385.000 286.000 67 83 99
133.000 384.000 286.000 66 82 98
133.000 385.000 286.000 65 82 98
132.000 386.000 286.000 66 82 98
132.000 387.000 286.000 66 82 98
133.000 386.000 286.000 66 82 98
133.000 387.000 286.000 65 82 98
134.000 384.000 286.000 68 84 100
134.000 385.000 286.000 65 82 98
135.000 384.000 286.000 71 86 102
135.000 385.000 286.000 69 85 101
134.000 386.000 286.000 67 83 99
134.000 387.000 286.000 66 83 100
135.000 386.000 286.000 69 85 101
135.000 387.000 286.000 69 85 102
132.000 388.000 286.000 66 82 98
132.000 389.000 286.000 67 83 99
133.000 388.000 286.000 65 82 98
133.000 389.000 286.000 66 82 99
132.000 390.000 286.000 70 85 100
132.000 391.000 286.000 70 85 101
133.000 390.000 286.000 70 85 101
133.000 391.000 286.000 71 86 102
134.000 388.000 286.000 67 83 100
134.000 389.000 286.000 69 84 101
135.000 388.000 286.000 69 85 102
135.000 389.000 286.000 70 85 102
134.000 390.000 286.000 72 87 103
134.000 391.000 286.000 73 87 103
135.000 390.000 286.000 74 89 105
135.000 391.000 286.000 74 89 104
128.000 392.000 286.000 66 83 100
128.000 393.000 286.000 65 82 98
129.000 392.000 286.000 66 83 100
129.000 393.000 286.000 64 81 98
128.000 394.000 286.000 63 80 97
128.000 395.000 286.000 63 80 97
129.000 394.000 286.000 64 81 98
129.000 395.000 286.000 65 82 99
130.000 392.000 286.000 64 82 99
130.000 393.000 286.000 62 80 97
131.000 392.000 286.000 65 82 99
131.000 393.000 286.000 62 80 97
130.000 394.000 286.000 63 81 98
130.000 395.000 286.000 64 81 98
131.000 394.000 286.000 64 81 98
131.000 395.000 286.000 64 81 98
128.000 396.000 286.000 62 79 96
128.000 397.000 286.000 63 80 96
129.000 396.000 286.000 63 80 98
129.000 397.000 286.000 63 80 98
128.000 398.000 286.000 64 80 97
128.000 399.000 286.000 63 79 96
129.000 398.000 286.000 64 81 98
129.000 399.000 286.000 64 81 97
130.000 396.000 286.000 64 82 99
130.000 397.000 286.000 63 81 98
131.000 396.000 286.000 65 82 99
131.000 397.000 286.000 65 82 99
130.000 398.000 286.000 64 81 99
130.000 399.000 286.000 65 82 98
131.000 398.000 286.000 64 81 98
131.000 399.000 286.000 64 81 98
132.000 392.000 286.000 68 84 100
132.000 393.000 286.000 63 80 97
133.000 392.000 286.000 71 86 102
133.000 393.000 286.000 64 81 98
132.000 394.000 286.000 65 81 98
132.000 395.000 286.000 66 82 99
133.000 394.000 286.000 65 81 98
133.000 395.000 286.000 67 83 99
134.000 392.000 286.000 72 87 103
134.000 393.000 286.000 65 83 99
135.000 392.000 286.000 73 88 103
135.000 393.000 286.000 67 83 99
134.000 394.000 286.000 66 82 98
134.000 395.000 286.000 68 83 99
135.000 394.000 286.000 67 83 99
135.000 395.000 286.000 67 82 98
132.000 396.000 286.000 65 82 98
132.000 397.000 286.000 65 82 98
133.000 396.000 286.000 66 82 98
133.000 397.000 286.000 65 81 97
132.000 398.000 286.000 64 80 97
132.000 399.000 286.000 63 80 97
133.000 398.000 286.000 64 80 97
133.000 399.000 286.000 65 81 97
134.000 396.000 286.000 66 82 98
134.000 397.000 286.000 64 80 96
135.000 396.000 286.000 67 82 98
135.000 397.000 286.000 66 81 97
134.000 398.000 286.000 63 79 96
134.000 399.000 286.000 64 81 97
135.000 398.000 286.000 66 81 97
135.000 399.000 286.000 65 81 97
136.000 384.000 286.000 73 87 103
136.000 385.000 286.000 72 87 103
137.000 384.000 286.000 72 87 103
137.000 385.000 286.000 72 87 103
136.000 386.000 286.000 72 87 103
136.000 387.000 286.000 70 85 102
137.000 386.000 286.000 74 88 104
137.000 387.000 286.000 70 86 102
138.000 384.000 286.000 73 88 103
138.000 385.000 286.000 71 86 102
139.000 384.000 286.000 74 89 105
139.000 385.000 286.000 71 86 102
138.000 386.000 286.000 73 88 104
138.000 387.000 286.000 70 86 102
139.000 386.000 286.000 71 86 102
139.000 387.000 286.000 71 86 102
136.000 388.000 286.000 70 87 103
136.000 389.000 286.000 70 86 102
137.000 388.000 286.000 73 88 104
137.000 389.000 286.000 72 87 103
136.000 390.000 286.000 73 87 103
136.000 391.000 286.000 76 89 105
137.000 390.000 286.000 69 84 100
137.000 391.000 286.000 72 86 101
138.000 388.000 286.000 73 87 103
138.000 389.000 286.000 72 87 102
139.000 388.000 286.000 72 87 103
139.000 389.000 286.000 71 86 102
138.000 390.000 286.000 70 84 100
138.000 391.000 286.000 71 85 100
139.000 390.000 286.000 71 86 101
139.000 391.000 286.000 71 85 100
140.000 384.000 286.000 72 88 105
140.000 385.000 286.000 69 85 102
141.000 384.000 286.000 71 87 104
141.000 385.000 286.000 67 84 101
140.000 386.000 286.000 70 85 102
140.000 387.000 286.000 71 86 102
141.000 386.000 286.000 68 84 101
141.000 387.000 286.000 68 85 102
142.000 384.000 285.000 69 85 102
142.000 385.000 285.000 64 82 99
143.000 384.000 285.000 67 82 98
143.000 385.000 285.000 64 81 97
142.000 384.000 286.000 71 87 103
142.000 385.000 286.000 65 82 100
142.000 386.000 285.000 63 81 98
142.000 387.000 285.000 65 83 100
143.000 386.000 285.000 62 80 97
143.000 387.000 285.000 63 81 98
142.000 386.000 286.000 64 82 99
142.000 387.000 286.000 66 83 100
140.000 388.000 286.000 71 87 103
140.000 389.000 286.000 71 87 103
141.000 388.000 286.000 70 86 102
141.000 389.000 286.000 70 86 102
140.000 390.000 286.000 72 87 103
140.000 391.000 286.000 72 87 102
141.000 390.000 286.000 71 87 103
141.000 391.000 286.000 72 87 103
142.000 388.000 285.000 66 83 100
143.000 388.000 285.000 65 82 99
143.000 389.000 285.000 63 81 98
142.000 388.000 286.000 68 84 101
142.000 389.000 286.000 68 84 101
143.000 389.000 286.000 66 83 100
143.000 390.000 285.000 64 81 97
142.000 390.000 286.000 68 84 101
142.000 391.000 286.000 69 85 101
143.000 390.000 286.000 65 82 99
143.000 391.000 286.000 66 81 98
136.000 392.000 286.000 76 90 105
136.000 393.000 286.000 72 86 102
137.000 392.000 286.000 77 90 104
137.000 393.000 286.000 75 88 103
136.000 394.000 286.000 69 84 100
136.000 395.000 286.000 70 84 100
137.000 394.000 286.000 71 84 100
137.000 395.000 286.000 71 84 99
138.000 392.000 286.000 74 87 102
138.000 393.000 286.000 72 86 101
139.000 392.000 286.000 73 86 101
139.000 393.000 286.000 70 84 100
138.000 394.000 286.000 69 84 99
138.000 395.000 286.000 69 83 98
139.000 394.000 286.000 66 81 97
139.000 395.000 286.000 68 83 99
136.000 396.000 286.000 70 85 100
136.000 397.000 286.000 71 84 100
137.000 396.000 286.000 72 85 100
137.000 397.000 286.000 72 85 100
136.000 398.000 286.000 74 87 102
136.000 399.000 286.000 70 84 100
137.000 398.000 286.000 75 88 103
137.000 399.000 286.000 72 86 101
138.000 396.000 286.000 69 83 98
138.000 397.000 286.000 70 84 99
139.000 396.000 286.000 67 81 96
139.000 397.000 286.000 66 80 95
138.000 398.000 286.000 72 86 101
138.000 399.000 286.000 70 84 100
139.000 398.000 286.000 68 82 98
139.000 399.000 286.000 69 83 98
140.000 392.000 286.000 73 86 101
140.000 393.000 286.000 71 86 101
141.000 392.000 286.000 73 87 102
141.000 393.000 286.000 70 85 101
140.000 394.000 286.000 66 82 98
140.000 395.000 286.000 68 83 99
141.000 394.000 286.000 66 82 98
141.000 395.000 286.000 67 83 99
142.000 392.000 286.000 71 85 101
142.000 393.000 286.000 70 84 100
143.000 392.000 286.000 68 83 99
143.000 393.000 286.000 67 82 98
142.000 394.000 286.000 67 82 98
142.000 395.000 286.000 66 82 98
143.000 394.000 286.000 63 79 96
143.000 395.000 286.000 62 79 95
140.000 396.000 286.000 67 81 97
140.000 397.000 286.000 64 79 94
141.000 396.000 286.000 67 82 98
141.000 397.000 286.000 64 79 94
140.000 398.000 286.000 63 79 95
140.000 399.000 286.000 66 81 97
141.000 398.000 286.000 61 77 93
141.000 399.000 286.000 64 79 95
142.000 396.000 286.000 66 82 98
142.000 397.000 286.000 64 80 95
143.000 396.000 286.000 61 78 94
143.000 397.000 286.000 60 77 93
142.000 398.000 286.000 64 79 95
142.000 399.000 286.000 64 79 95
143.000 398.000 286.000 62 78 93
143.000 399.000 286.000 63 79 94
128.000 400.000 286.000 61 79 96
128.000 401.000 286.000 58 76 94
129.000 400.000 286.000 63 80 97
129.000 401.000 286.000 62 79 96
128.000 402.000 286.000 58 76 93
128.000 403.000 286.000 60 77 94
129.000 402.000 286.000 60 77 95
129.000 403.000 286.000 60 78 95
130.000 400.000 286.000 66 82 99
130.000 401.000 286.000 65 82 98
131.000 400.000 286.000 66 82 99
131.000 401.000 286.000 67 83 100
130.000 402.000 286.000 63 80 97
130.000 403.000 286.000 63 79 96
131.000 402.000 286.000 64 81 98
131.000 403.000 286.000 64 80 97
128.000 404.000 286.000 60 77 94
128.000 405.000 286.000 58 75 91
129.000 404.000 286.000 60 77 93
129.000 405.000 286.000 59 76 92
128.000 406.000 286.000 57 75 91
128.000 407.000 286.000 57 74 91
129.000 406.000 286.000 58 75 92
129.000 407.000 286.000 57 75 92
130.000 404.000 286.000 61 78 94
130.000 405.000 286.000 61 78 94
131.000 404.000 286.000 64 80 96
131.000 405.000 286.000 62 79 95
130.000 406.000 286.000 59 76 93
130.000 407.000 286.000 57 76 93
131.000 406.000 286.000 60 78 95
131.000 407.000 286.000 58 77 94
132.000 400.000 286.000 65 82 99
132.000 401.000 286.000 67 83 99
133.000 400.000 286.000 65 81 98
133.000 401.000 286.000 66 82 98
132.000 402.000 286.000 64 81 97
132.000 403.000 286.000 64 81 97
133.000 402.000 286.000 64 80 97
133.000 403.000 286.000 63 80 96
134.000 400.000 286.000 66 82 98
134.000 401.000 286.000 66 82 98
135.000 400.000 286.000 67 82 98
135.000 401.000 286.000 67 82 98
134.000 402.000 286.000 66 82 98
134.000 403.000 286.000 66 81 97
135.000 402.000 286.000 67 83 98
135.000 403.000 286.000 68 82 98
132.000 404.000 286.000 64 80 96
132.000 405.000 286.000 62 78 95
132.000 405.000 287.000 62 79 95
133.000 404.000 286.000 64 80 96
133.000 405.000 286.000 63 79 95
133.000 405.000 287.000 64 79 95
132.000 406.000 287.000 64 80 97
132.000 407.000 286.000 61 79 96
132.000 407.000 287.000 62 79 96
133.000 406.000 287.000 65 81 97
133.000 407.000 287.000 64 80 96
134.000 404.000 286.000 66 81 97
134.000 404.000 287.000 65 80 96
134.000 405.000 287.000 65 80 96
135.000 404.000 286.000 68 82 98
135.000 404.000 287.000 66 81 97
135.000 405.000 287.000 65 80 96
134.000 406.000 287.000 65 81 97
134.000 407.000 287.000 65 81 97
135.000 406.000 287.000 63 80 97
135.000 407.000 287.000 65 81 98
128.000 408.000 286.000 61 77 93
128.000 409.000 286.000 60 77 93
129.000 408.000 286.000 61 78 94
129.000 409.000 286.000 60 77 94
129.000 410.000 286.000 61 78 94
129.000 411.000 286.000 64 80 96
130.000 408.000 286.000 61 78 95
130.000 409.000 286.000 60 78 95
131.000 408.000 286.000 60 78 95
131.000 409.000 286.000 60 78 95
130.000 410.000 286.000 63 80 97
130.000 411.000 286.000 65 81 98
131.000 410.000 286.000 61 79 96
131.000 411.000 286.000 64 81 97
129.000 412.000 286.000 64 80 96
130.000 412.000 286.000 65 81 98
130.000 413.000 286.000 62 80 96
131.000 412.000 286.000 63 80 97
131.000 413.000 286.000 62 79 96
131.000 414.000 286.000 64 81 98
132.000 408.000 287.000 61 79 96
132.000 409.000 286.000 63 81 98
132.000 409.000 287.000 63 80 97
133.000 408.000 287.000 63 79 96
133.000 409.000 287.000 63 80 96
132.000 410.000 286.000 64 81 98
132.000 410.000 287.000 65 82 99
132.000 411.000 286.000 66 83 100
133.000 410.000 287.000 65 81 98
133.000 411.000 287.000 67 83 99
134.000 408.000 287.000 64 80 96
134.000 409.000 287.000 61 79 95
135.000 408.000 287.000 65 81 97
135.000 409.000 287.000 62 79 95
134.000 410.000 287.000 64 81 97
134.000 411.000 287.000 66 82 98
135.000 410.000 287.000 64 81 97
135.000 411.000 287.000 67 83 99
132.000 412.000 286.000 65 82 98
132.000 413.000 286.000 64 80 97
133.000 412.000 286.000 64 81 97
133.000 413.000 286.000 63 79 96
132.000 414.000 286.000 66 82 98
133.000 414.000 286.000 65 81 97
134.000 412.000 286.000 62 79 95
134.000 412.000 287.000 63 80 97
134.000 413.000 286.000 61 78 95
135.000 412.000 287.000 62 79 96
134.000 414.000 286.000 63 79 96
136.000 400.000 286.000 69 84 99
136.000 401.000 286.000 68 83 99
137.000 400.000 286.000 69 84 100
137.000 401.000 286.000 69 83 99
136.000 402.000 286.000 67 82 98
136.000 403.000 286.000 69 83 99
137.000 402.000 286.000 66 81 97
137.000 403.000 286.000 68 83 98
137.000 403.000 287.000 69 84 99
138.000 400.000 286.000 66 81 97
138.000 401.000 286.000 68 83 98
139.000 400.000 286.000 66 81 97
139.000 401.000 286.000 66 81 97
138.000 402.000 286.000 63 79 95
138.000 403.000 286.000 66 82 97
138.000 403.000 287.000 67 83 98
139.000 402.000 286.000 64 80 96
139.000 402.000 287.000 62 78 94
139.000 403.000 287.000 63 80 96
136.000 404.000 286.000 66 81 97
136.000 404.000 287.000 66 81 97
136.000 405.000 287.000 65 80 96
137.000 404.000 287.000 67 82 98
137.000 405.000 287.000 68 83 98
136.000 406.000 287.000 64 80 97
136.000 407.000 287.000 67 83 99
137.000 406.000 287.000 68 83 100
137.000 407.000 287.000 70 85 102
138.000 404.000 287.000 66 81 97
138.000 405.000 287.000 68 83 99
139.000 404.000 286.000 63 80 96
139.000 404.000 287.000 64 80 97
139.000 405.000 286.000 62 79 95
139.000 405.000 287.000 62 79 96
138.000 406.000 287.000 70 85 101
138.000 407.000 287.000 70 86 102
139.000 406.000 287.000 63 80 96
139.000 407.000 287.000 65 82 99
140.000 400.000 286.000 64 80 96
140.000 401.000 286.000 63 79 95
141.000 400.000 286.000 63 79 95
141.000 401.000 286.000 62 78 94
140.000 402.000 286.000 63 79 95
140.000 402.000 287.000 63 79 95
140.000 403.000 287.000 63 79 95
141.000 402.000 286.000 64 79 95
141.000 402.000 287.000 64 80 95
141.000 403.000 287.000 64 80 95
142.000 400.000 286.000 62 78 94
142.000 401.000 286.000 62 78 94
143.000 400.000 286.000 63 79 94
143.000 401.000 286.000 64 79 94
142.000 402.000 286.000 64 79 94
142.000 403.000 286.000 65 80 95
142.000 403.000 287.000 65 80 95
143.000 402.000 286.000 65 79 95
143.000 403.000 286.000 66 80 95
140.000 404.000 287.000 62 78 95
140.000 405.000 287.000 61 78 95
141.000 404.000 287.000 63 79 95
141.000 405.000 286.000 60 77 93
141.000 405.000 287.000 62 78 94
140.000 406.000 287.000 62 78 95
140.000 407.000 286.000 64 81 98
140.000 407.000 287.000 65 82 99
141.000 406.000 286.000 61 78 94
141.000 407.000 286.000 63 80 96
142.000 404.000 287.000 64 79 95
142.000 405.000 286.000 63 78 94
142.000 405.000 287.000 63 79 94
143.000 404.000 286.000 66 81 96
143.000 405.000 286.000 65 80 95
142.000 406.000 286.000 64 79 95
142.000 407.000 286.000 65 81 97
143.000 406.000 286.000 65 80 95
143.000 406.000 287.000 65 80 95
143.000 407.000 286.000 66 81 96
143.000 407.000 287.000 65 80 95
136.000 408.000 287.000 64 81 97
136.000 409.000 287.000 61 78 95
137.000 408.000 287.000 67 83 100
137.000 409.000 287.000 64 81 97
136.000 410.000 287.000 65 81 98
136.000 411.000 287.000 69 84 100
137.000 410.000 287.000 68 83 99
137.000 411.000 287.000 70 85 100
138.000 408.000 287.000 66 83 100
138.000 409.000 287.000 64 81 98
139.000 408.000 286.000 64 82 99
139.000 408.000 287.000 63 81 98
139.000 409.000 286.000 61 79 97
139.000 409.000 287.000 60 79 97
138.000 410.000 287.000 70 85 100
138.000 411.000 287.000 73 86 102
139.000 410.000 287.000 65 81 97
139.000 411.000 287.000 67 82 98
136.000 412.000 287.000 63 79 96
136.000 413.000 287.000 61 78 95
137.000 412.000 287.000 66 81 97
137.000 413.000 287.000 65 81 97
138.000 412.000 287.000 69 84 99
138.000 413.000 287.000 68 83 99
139.000 412.000 287.000 69 84 99
139.000 413.000 287.000 70 84 100
138.000 414.000 287.000 67 83 99
139.000 414.000 287.000 69 84 99
140.000 408.000 286.000 66 83 100
140.000 409.000 286.000 64 82 99
141.000 408.000 286.000 63 81 98
141.000 409.000 286.000 63 81 99
140.000 410.000 286.000 68 83 100
140.000 411.000 287.000 67 82 98
141.000 410.000 286.000 67 83 99
142.000 408.000 286.000 66 82 99
142.000 409.000 286.000 67 83 100
143.000 408.000 286.000 66 81 97
143.000 408.000 287.000 64 79 94
143.000 409.000 286.000 66 81 96
142.000 410.000 286.000 67 84 100
143.000 410.000 286.000 68 82 97
140.000 412.000 287.000 66 82 97
140.000 413.000 287.000 67 82 97
141.000 412.000 287.000 66 82 97
141.000 413.000 287.000 67 82 98
140.000 414.000 287.000 66 81 97
142.000 412.000 287.000 65 81 97
142.000 413.000 287.000 65 80 96
143.000 412.000 287.000 67 82 97
143.000 413.000 287.000 66 80 96
144.000 384.000 285.000 64 80 96
144.000 385.000 285.000 63 79 95
145.000 384.000 285.000 61 77 93
145.000 385.000 285.000 61 77 93
144.000 386.000 285.000 61 78 95
144.000 387.000 285.000 59 77 95
145.000 386.000 285.000 60 77 94
145.000 387.000 285.000 59 77 94
146.000 384.000 285.000 60 75 91
146.000 385.000 285.000 60 75 91
147.000 384.000 284.000 56 71 86
147.000 384.000 285.000 57 72 87
147.000 385.000 285.000 58 73 89
146.000 386.000 285.000 61 77 93
146.000 387.000 285.000 62 77 93
147.000 386.000 285.000 60 75 90
147.000 387.000 285.000 61 76 91
144.000 388.000 285.000 61 79 97
144.000 389.000 285.000 62 79 96
145.000 388.000 285.000 62 79 96
145.000 389.000 285.000 63 80 96
144.000 390.000 285.000 62 79 96
144.000 391.000 285.000 64 80 97
145.000 390.000 285.000 61 78 94
145.000 391.000 285.000 62 78 95
144.000 391.000 286.000 64 80 96
146.000 388.000 285.000 61 78 94
146.000 389.000 285.000 63 79 94
147.000 388.000 285.000 60 76 91
147.000 389.000 285.000 61 77 92
146.000 390.000 285.000 62 78 94
146.000 391.000 285.000 61 77 93
147.000 390.000 285.000 60 76 92
147.000 391.000 285.000 57 74 91
151.000 384.000 283.000 56 70 83
151.000 385.000 283.000 55 69 83
148.000 384.000 284.000 56 71 85
148.000 385.000 284.000 55 70 85
148.000 385.000 285.000 56 71 86
149.000 384.000 284.000 58 72 86
149.000 385.000 284.000 57 72 86
148.000 386.000 285.000 58 73 88
148.000 387.000 285.000 58 74 89
149.000 386.000 284.000 59 73 87
149.000 386.000 285.000 58 73 87
149.000 387.000 284.000 58 73 87
149.000 387.000 285.000 56 72 87
150.000 384.000 284.000 58 72 86
150.000 385.000 284.000 58 72 86
151.000 384.000 284.000 57 71 84
151.000 385.000 284.000 56 70 84
150.000 386.000 284.000 59 73 87
150.000 387.000 284.000 58 72 87
151.000 386.000 284.000 57 71 85
151.000 387.000 284.000 56 71 85
148.000 388.000 285.000 58 74 90
148.000 389.000 285.000 58 74 90
149.000 388.000 284.000 56 72 87
149.000 388.000 285.000 56 72 88
149.000 389.000 284.000 59 74 90
149.000 389.000 285.000 58 74 90
148.000 390.000 285.000 57 74 90
148.000 391.000 285.000 53 71 88
149.000 390.000 284.000 62 77 92
149.000 390.000 285.000 60 76 91
149.000 391.000 285.000 56 74 90
150.000 388.000 284.000 56 71 86
150.000 389.000 284.000 59 74 89
151.000 388.000 284.000 53 69 85
151.000 389.000 284.000 54 70 85
150.000 390.000 284.000 62 77 92
150.000 391.000 284.000 61 76 92
151.000 390.000 284.000 59 74 89
151.000 391.000 284.000 59 74 89
145.000 392.000 285.000 63 79 96
145.000 393.000 285.000 64 80 96
144.000 392.000 286.000 66 82 98
144.000 393.000 286.000 66 81 97
145.000 392.000 286.000 67 82 97
145.000 393.000 286.000 65 81 97
144.000 394.000 286.000 62 78 94
144.000 395.000 286.000 61 78 94
145.000 394.000 286.000 61 77 94
145.000 395.000 286.000 60 77 94
146.000 392.000 285.000 64 79 95
146.000 393.000 285.000 64 80 95
147.000 392.000 285.000 60 76 92
147.000 393.000 285.000 61 77 93
146.000 394.000 285.000 63 79 95
146.000 395.000 285.000 63 79 95
147.000 394.000 285.000 60 77 93
147.000 395.000 285.000 61 78 94
146.000 394.000 286.000 62 78 95
146.000 395.000 286.000 61 77 94
144.000 396.000 286.000 61 78 94
144.000 397.000 286.000 59 76 92
145.000 396.000 286.000 58 76 93
145.000 397.000 286.000 57 75 92
144.000 398.000 286.000 59 75 91
144.000 399.000 286.000 59 75 91
145.000 398.000 286.000 57 73 89
145.000 399.000 286.000 57 73 89
147.000 396.000 285.000 57 75 91
147.000 397.000 285.000 55 73 89
146.000 396.000 286.000 59 76 93
146.000 397.000 286.000 57 74 91
147.000 397.000 286.000 56 74 90
147.000 398.000 285.000 56 72 88
147.000 399.000 285.000 60 75 90
146.000 398.000 286.000 59 74 89
146.000 399.000 286.000 58 74 89
147.000 398.000 286.000 59 74 89
147.000 399.000 286.000 61 75 90
148.000 392.000 285.000 58 75 92
148.000 393.000 285.000 58 75 92
149.000 392.000 284.000 61 77 93
149.000 392.000 285.000 59 76 92
149.000 393.000 284.000 60 77 93
149.000 393.000 285.000 58 75 92
148.000 394.000 285.000 56 74 91
148.000 395.000 285.000 57 75 91
149.000 394.000 285.000 57 75 92
149.000 395.000 285.000 58 75 91
150.000 392.000 284.000 62 77 92
150.000 393.000 284.000 61 76 92
151.000 392.000 284.000 62 76 91
151.000 393.000 284.000 59 74 89
150.000 394.000 284.000 59 75 91
150.000 394.000 285.000 59 75 92
150.000 395.000 284.000 60 75 91
150.000 395.000 285.000 59 75 91
151.000 394.000 284.000 59 74 88
151.000 395.000 284.000 58 72 87
151.000 395.000 285.000 58 73 88
148.000 396.000 285.000 52 71 88
148.000 397.000 285.000 53 71 88
149.000 396.000 285.000 51 71 88
149.000 397.000 285.000 50 69 86
148.000 398.000 285.000 54 71 87
148.000 399.000 285.000 58 73 88
149.000 398.000 285.000 51 69 86
149.000 399.000 285.000 54 71 86
150.000 396.000 285.000 53 71 87
150.000 397.000 285.000 49 68 85
151.000 396.000 284.000 55 70 85
151.000 396.000 285.000 55 70 86
151.000 397.000 285.000 53 69 84
150.000 398.000 285.000 51 68 85
150.000 399.000 285.000 53 69 84
151.000 398.000 285.000 52 68 83
151.000 399.000 285.000 51 67 81
159.000 384.000 279.000 55 64 74
159.000 385.000 279.000 53 63 73
159.000 386.000 279.000 53 62 73
152.000 384.000 283.000 53 67 81
152.000 385.000 283.000 54 68 82
153.000 384.000 282.000 55 69 83
153.000 384.000 283.000 54 68 82
153.000 385.000 282.000 57 70 84
153.000 385.000 283.000 55 69 82
152.000 386.000 283.000 55 70 84
152.000 387.000 283.000 55 69 83
153.000 386.000 282.000 56 69 83
153.000 386.000 283.000 56 69 83
153.000 387.000 283.000 55 69 83
155.000 384.000 281.000 54 67 80
154.000 384.000 282.000 55 69 82
154.000 385.000 282.000 56 70 83
155.000 384.000 282.000 53 67 81
155.000 385.000 282.000 55 68 81
154.000 386.000 282.000 56 69 83
154.000 387.000 282.000 56 70 83
155.000 386.000 282.000 54 68 82
155.000 387.000 282.000 54 68 82
152.000 388.000 283.000 52 68 83
152.000 389.000 283.000 51 68 84
153.000 388.000 283.000 53 68 83
153.000 389.000 283.000 51 68 83
152.000 390.000 283.000 55 70 86
152.000 391.000 283.000 55 71 86
153.000 390.000 283.000 54 70 85
153.000 391.000 283.000 53 69 84
154.000 388.000 282.000 54 69 82
154.000 388.000 283.000 55 69 84
154.000 389.000 282.000 52 67 82
154.000 389.000 283.000 53 68 83
155.000 388.000 282.000 51 66 80
155.000 389.000 282.000 52 67 82
154.000 390.000 283.000 54 69 84
154.000 391.000 283.000 52 68 83
155.000 390.000 282.000 55 70 84
155.000 391.000 282.000 52 68 83
152.000 388.000 284.000 52 68 84
152.000 389.000 284.000 50 68 84
152.000 390.000 284.000 56 72 87
152.000 391.000 284.000 57 72 87
156.000 384.000 281.000 52 65 78
156.000 385.000 281.000 56 68 81
157.000 384.000 280.000 50 62 74
157.000 384.000 281.000 52 64 77
157.000 385.000 280.000 54 65 77
157.000 385.000 281.000 53 66 79
156.000 386.000 281.000 56 68 81
156.000 387.000 281.000 56 68 81
157.000 386.000 280.000 54 66 78
157.000 386.000 281.000 53 66 79
157.000 387.000 281.000 54 67 80
156.000 387.000 282.000 55 68 81
158.000 384.000 280.000 50 60 72
158.000 385.000 280.000 51 62 73
159.000 385.000 280.000 52 62 72
158.000 386.000 280.000 52 64 75
158.000 387.000 280.000 52 65 77
159.000 386.000 280.000 52 62 73
159.000 387.000 280.000 53 64 76
156.000 388.000 281.000 53 66 79
157.000 388.000 281.000 54 67 80
157.000 389.000 281.000 55 67 80
156.000 388.000 282.000 52 66 79
156.000 389.000 282.000 54 68 82
156.000 390.000 281.000 57 69 82
157.000 390.000 281.000 56 68 80
157.000 391.000 281.000 53 66 79
156.000 390.000 282.000 56 70 84
156.000 391.000 282.000 53 67 82
157.000 390.000 282.000 56 68 82
157.000 391.000 282.000 55 68 81
158.000 388.000 280.000 55 67 80
158.000 388.000 281.000 56 68 80
158.000 389.000 280.000 53 66 78
158.000 389.000 281.000 55 67 80
159.000 388.000 280.000 54 67 79
159.000 389.000 280.000 51 64 78
158.000 390.000 280.000 52 65 78
158.000 390.000 281.000 54 66 79
158.000 391.000 281.000 53 66 79
159.000 390.000 280.000 50 65 79
159.000 391.000 280.000 48 63 77
152.000 392.000 283.000 56 71 86
153.000 392.000 283.000 56 71 86
153.000 393.000 283.000 54 70 85
153.000 394.000 283.000 52 68 84
154.000 392.000 283.000 55 70 86
154.000 393.000 283.000 56 71 86
155.000 392.000 282.000 53 69 84
155.000 392.000 283.000 53 69 85
155.000 393.000 282.000 55 70 85
155.000 393.000 283.000 54 70 85
154.000 394.000 283.000 52 68 84
154.000 395.000 283.000 51 67 83
155.000 394.000 282.000 51 68 83
155.000 394.000 283.000 51 67 83
155.000 395.000 283.000 52 68 83
152.000 392.000 284.000 59 73 88
152.000 393.000 284.000 57 72 86
152.000 394.000 284.000 56 70 85
152.000 395.000 284.000 55 69 84
153.000 394.000 284.000 54 69 84
153.000 395.000 284.000 54 69 84
154.000 396.000 283.000 50 66 81
155.000 396.000 283.000 51 67 82
155.000 397.000 283.000 51 67 82
155.000 398.000 283.000 54 69 83
155.000 399.000 283.000 53 68 81
152.000 396.000 284.000 54 69 83
152.000 397.000 284.000 53 68 82
152.000 397.000 285.000 53 68 82
153.000 396.000 284.000 54 69 83
153.000 397.000 284.000 54 69 83
152.000 398.000 284.000 52 67 81
152.000 398.000 285.000 52 67 81
152.000 399.000 285.000 53 67 81
153.000 398.000 284.000 54 68 83
153.000 399.000 284.000 55 69 83
154.000 396.000 284.000 50 67 82
154.000 397.000 284.000 54 69 84
154.000 398.000 284.000 57 71 85
154.000 399.000 284.000 56 69 83
155.000 399.000 284.000 54 69 83
157.000 392.000 281.000 53 67 80
157.000 393.000 281.000 55 68 81
156.000 392.000 282.000 53 68 83
156.000 393.000 282.000 56 71 86
157.000 392.000 282.000 55 68 82
157.000 393.000 282.000 55 68 82
156.000 394.000 282.000 51 67 82
156.000 395.000 282.000 52 68 82
157.000 394.000 282.000 53 67 80
157.000 395.000 282.000 52 67 81
158.000 392.000 281.000 54 67 80
158.000 393.000 281.000 57 69 82
159.000 392.000 280.000 49 64 78
159.000 392.000 281.000 51 65 79
159.000 393.000 280.000 51 65 79
159.000 393.000 281.000 53 66 80
158.000 394.000 281.000 54 67 80
158.000 395.000 281.000 54 67 80
159.000 394.000 281.000 53 66 79
159.000 395.000 281.000 55 67 80
158.000 395.000 282.000 50 64 77
156.000 396.000 282.000 55 69 83
156.000 396.000 283.000 52 67 82
156.000 397.000 282.000 53 67 81
156.000 397.000 283.000 50 65 80
157.000 396.000 282.000 54 68 82
157.000 397.000 282.000 54 67 81
156.000 398.000 283.000 52 66 80
156.000 399.000 283.000 54 68 81
157.000 398.000 282.000 53 67 81
157.000 399.000 282.000 55 68 81
158.000 396.000 281.000 53 66 78
159.000 396.000 281.000 52 65 77
159.000 397.000 281.000 52 64 77
158.000 396.000 282.000 51 64 78
158.000 397.000 282.000 51 65 78
159.000 398.000 281.000 52 64 77
159.000 399.000 281.000 52 64 76
158.000 398.000 282.000 50 65 79
158.000 399.000 282.000 50 64 78
159.000 398.000 282.000 53 66 79
159.000 399.000 282.000 52 65 78
144.000 400.000 286.000 60 76 91
144.000 401.000 286.000 62 76 91
145.000 400.000 286.000 60 75 90
145.000 401.000 286.000 63 76 89
144.000 402.000 286.000 64 78 92
144.000 403.000 286.000 64 78 92
145.000 402.000 286.000 64 77 90
145.000 403.000 286.000 63 76 89
147.000 400.000 285.000 60 74 89
146.000 400.000 286.000 61 75 90
146.000 401.000 286.000 63 76 89
147.000 400.000 286.000 62 76 91
147.000 401.000 286.000 63 76 90
146.000 402.000 286.000 65 77 90
146.000 403.000 286.000 64 75 88
147.000 402.000 286.000 64 77 90
147.000 403.000 286.000 63 76 89
144.000 404.000 286.000 64 78 92
144.000 405.000 286.000 63 78 93
145.000 404.000 286.000 62 75 89
145.000 405.000 286.000 60 75 89
144.000 406.000 286.000 62 78 93
144.000 406.000 287.000 64 79 94
144.000 407.000 286.000 61 77 92
144.000 407.000 287.000 63 78 93
145.000 406.000 286.000 59 75 90
145.000 407.000 286.000 60 75 91
146.000 404.000 286.000 62 74 86
146.000 405.000 286.000 61 74 87
147.000 404.000 286.000 61 74 87
147.000 405.000 286.000 60 73 86
146.000 406.000 286.000 60 74 88
146.000 407.000 286.000 59 74 89
147.000 406.000 286.000 58 72 86
147.000 407.000 286.000 57 71 86
148.000 400.000 285.000 56 72 87
148.000 401.000 285.000 59 73 88
149.000 400.000 285.000 53 70 85
149.000 401.000 285.000 58 74 89
148.000 402.000 285.000 58 73 88
149.000 402.000 285.000 60 74 89
149.000 403.000 285.000 59 73 88
148.000 402.000 286.000 61 75 89
148.000 403.000 286.000 61 75 89
149.000 403.000 286.000 60 74 88
150.000 400.000 285.000 52 69 84
150.000 401.000 285.000 55 71 86
151.000 400.000 285.000 50 66 81
151.000 401.000 285.000 52 68 83
150.000 402.000 285.000 58 72 87
150.000 403.000 285.000 58 73 87
151.000 402.000 285.000 56 70 85
151.000 403.000 285.000 58 73 87
148.000 404.000 286.000 61 74 88
148.000 405.000 286.000 62 74 88
149.000 404.000 286.000 58 72 87
149.000 405.000 286.000 60 73 87
148.000 406.000 286.000 58 72 86
148.000 407.000 286.000 57 71 85
149.000 406.000 286.000 55 70 84
149.000 407.000 286.000 55 70 84
150.000 404.000 285.000 60 75 89
150.000 405.000 285.000 63 76 90
151.000 404.000 285.000 61 75 89
151.000 405.000 285.000 59 73 88
150.000 404.000 286.000 59 74 88
150.000 405.000 286.000 60 73 87
151.000 406.000 285.000 56 71 86
151.000 407.000 285.000 56 71 86
150.000 406.000 286.000 54 69 83
150.000 407.000 286.000 53 68 83
151.000 407.000 286.000 56 71 85
144.000 408.000 286.000 60 76 91
144.000 408.000 287.000 61 76 92
144.000 409.000 286.000 63 77 92
145.000 408.000 286.000 59 75 90
145.000 409.000 286.000 62 76 90
144.000 410.000 286.000 65 78 93
145.000 410.000 286.000 63 76 90
146.000 408.000 286.000 58 74 89
146.000 409.000 286.000 60 74 88
147.000 408.000 286.000 54 70 85
147.000 409.000 286.000 56 71 85
146.000 410.000 286.000 62 75 89
147.000 410.000 286.000 60 73 87
144.000 413.000 287.000 64 78 92
145.000 414.000 286.000 61 75 90
146.000 414.000 286.000 60 75 89
146.000 415.000 286.000 59 74 89
147.000 415.000 286.000 57 73 88
148.000 408.000 286.000 56 70 85
148.000 409.000 286.000 53 69 84
149.000 408.000 286.000 55 69 84
149.000 409.000 286.000 52 68 82
148.000 410.000 286.000 57 72 86
149.000 410.000 286.000 56 71 85
150.000 408.000 286.000 53 68 83
150.000 409.000 286.000 51 67 81
151.000 408.000 286.000 56 71 85
151.000 409.000 286.000 53 69 84
150.000 410.000 286.000 54 69 84
150.000 411.000 286.000 56 71 85
151.000 410.000 286.000 56 71 85
151.000 411.000 286.000 56 70 85
148.000 415.000 286.000 59 74 90
149.000 415.000 286.000 56 73 88
151.000 413.000 285.000 53 68 83
151.000 414.000 285.000 57 71 86
150.000 415.000 286.000 54 71 86
155.000 400.000 283.000 55 69 82
152.000 400.000 285.000 52 67 81
152.000 401.000 285.000 52 67 81
153.000 400.000 284.000 55 70 84
153.000 401.000 284.000 55 70 84
153.000 401.000 285.000 53 68 83
152.000 402.000 285.000 53 68 83
152.000 403.000 285.000 52 69 84
153.000 402.000 284.000 56 70 85
153.000 402.000 285.000 56 71 86
153.000 403.000 285.000 54 70 86
154.000 400.000 284.000 57 70 84
154.000 401.000 284.000 58 71 85
155.000 400.000 284.000 56 69 82
155.000 401.000 284.000 55 68 82
154.000 402.000 284.000 58 72 86
154.000 403.000 284.000 58 73 87
155.000 402.000 284.000 57 71 85
155.000 403.000 284.000 59 73 87
152.000 404.000 285.000 53 70 85
152.000 405.000 285.000 52 69 85
153.000 404.000 285.000 54 70 85
153.000 405.000 285.000 52 69 84
152.000 406.000 285.000 52 69 85
152.000 407.000 285.000 54 70 85
153.000 406.000 285.000 51 69 84
153.000 407.000 285.000 52 68 84
154.000 404.000 284.000 56 71 86
154.000 404.000 285.000 55 71 86
154.000 405.000 284.000 57 71 85
154.000 405.000 285.000 56 71 86
155.000 404.000 284.000 59 72 86
155.000 405.000 284.000 58 71 85
154.000 406.000 284.000 56 70 84
154.000 406.000 285.000 54 70 85
154.000 407.000 284.000 57 70 84
154.000 407.000 285.000 54 69 84
155.000 406.000 284.000 57 70 83
155.000 407.000 284.000 58 70 83
156.000 400.000 283.000 54 67 80
156.000 401.000 283.000 52 66 79
157.000 400.000 282.000 54 67 80
157.000 400.000 283.000 55 68 81
157.000 401.000 282.000 54 68 81
157.000 401.000 283.000 52 66 80
156.000 402.000 283.000 54 68 81
156.000 403.000 283.000 56 70 84
157.000 402.000 283.000 54 68 81
157.000 403.000 283.000 54 69 83
158.000 400.000 282.000 51 64 77
158.000 401.000 282.000 52 65 79
159.000 400.000 282.000 52 65 78
159.000 401.000 282.000 54 66 79
158.000 402.000 282.000 53 67 81
158.000 403.000 282.000 53 67 82
158.000 403.000 283.000 55 69 84
159.000 402.000 282.000 54 67 80
159.000 403.000 282.000 52 67 81
156.000 402.000 284.000 56 70 84
156.000 403.000 284.000 59 72 85
156.000 404.000 283.000 57 71 84
156.000 405.000 283.000 55 69 82
157.000 404.000 283.000 55 70 84
157.000 405.000 283.000 56 69 84
156.000 406.000 283.000 50 65 79
156.000 407.000 283.000 52 65 78
157.000 406.000 283.000 56 69 83
157.000 407.000 283.000 56 68 82
158.000 404.000 282.000 52 68 83
158.000 404.000 283.000 55 70 84
158.000 405.000 282.000 53 68 83
158.000 405.000 283.000 56 70 84
159.000 404.000 282.000 51 67 81
159.000 405.000 282.000 51 66 80
158.000 406.000 282.000 54 68 83
158.000 406.000 283.000 57 71 85
158.000 407.000 282.000 56 70 83
158.000 407.000 283.000 59 71 85
159.000 406.000 282.000 52 66 80
159.000 407.000 282.000 54 68 81
156.000 404.000 284.000 58 71 85
156.000 405.000 284.000 56 69 83
156.000 406.000 284.000 53 67 80
156.000 407.000 284.000 55 68 81
152.000 408.000 285.000 55 71 86
152.000 409.000 285.000 52 68 84
153.000 408.000 285.000 53 69 84
153.000 409.000 285.000 50 67 83
152.000 410.000 285.000 52 69 84
152.000 411.000 285.000 54 70 85
153.000 410.000 285.000 50 67 83
154.000 408.000 284.000 58 71 85
154.000 408.000 285.000 54 69 84
154.000 409.000 284.000 56 70 84
154.000 409.000 285.000 51 67 82
155.000 408.000 284.000 60 72 85
155.000 409.000 284.000 59 72 85
154.000 410.000 284.000 57 71 85
154.000 410.000 285.000 51 68 82
154.000 411.000 284.000 58 72 86
155.000 410.000 284.000 60 73 86
155.000 411.000 284.000 61 74 88
154.000 412.000 284.000 54 69 84
156.000 408.000 283.000 56 68 81
157.000 408.000 283.000 57 69 82
157.000 409.000 283.000 54 67 80
157.000 410.000 283.000 54 67 81
157.000 411.000 283.000 57 70 84
158.000 408.000 282.000 55 68 81
158.000 408.000 283.000 56 69 82
158.000 409.000 282.000 52 65 79
158.000 409.000 283.000 53 67 80
159.000 408.000 282.000 53 66 79
159.000 409.000 282.000 51 64 78
158.000 410.000 283.000 55 68 82
158.000 411.000 283.000 58 71 84
159.000 410.000 282.000 53 66 80
159.000 411.000 283.000 55 68 82
156.000 408.000 284.000 58 69 82
156.000 409.000 284.000 57 69 82
156.000 410.000 284.000 57 70 83
156.000 411.000 284.000 57 72 86
157.000 411.000 284.000 56 70 84
158.000 413.000 284.000 55 69 83
158.000 415.000 284.000 54 68 82
128.000 416.000 286.000 62 79 97
128.000 417.000 286.000 62 80 97
129.000 417.000 286.000 61 78 95
130.000 417.000 286.000 62 79 96
130.000 418.000 286.000 63 80 96
130.000 419.000 286.000 59 77 94
131.000 418.000 286.000 64 80 97
131.000 419.000 286.000 60 77 94
128.000 422.000 286.000 62 79 96
128.000 423.000 286.000 62 79 96
130.000 423.000 286.000 62 78 95
132.000 416.000 287.000 62 79 96
133.000 416.000 287.000 61 78 95
133.000 417.000 287.000 63 80 96
132.000 418.000 286.000 65 81 98
132.000 419.000 286.000 60 78 95
133.000 418.000 287.000 64 80 97
133.000 419.000 286.000 61 78 95
134.000 416.000 287.000 61 78 95
134.000 417.000 287.000 62 79 96
135.000 416.000 287.000 61 78 95
135.000 417.000 287.000 63 79 96
134.000 418.000 287.000 62 79 96
135.000 418.000 287.000 63 80 97
135.000 419.000 287.000 61 79 96
132.000 420.000 286.000 60 78 95
133.000 423.000 287.000 64 81 98
134.000 423.000 287.000 63 81 98
135.000 423.000 287.000 64 81 98
136.000 416.000 287.000 60 77 94
136.000 417.000 287.000 63 80 96
137.000 416.000 287.000 60 77 94
137.000 417.000 287.000 62 79 95
136.000 418.000 287.000 63 80 97
136.000 419.000 287.000 63 80 96
137.000 418.000 287.000 61 78 95
137.000 419.000 287.000 60 78 95
138.000 416.000 287.000 64 80 96
138.000 417.000 287.000 63 79 95
139.000 417.000 287.000 64 80 96
138.000 418.000 287.000 63 79 96
138.000 419.000 287.000 60 77 94
139.000 418.000 287.000 65 80 96
139.000 419.000 287.000 63 80 96
136.000 420.000 287.000 64 81 98
137.000 420.000 287.000 61 79 96
136.000 422.000 287.000 64 81 99
136.000 423.000 287.000 64 81 99
137.000 422.000 287.000 63 81 98
137.000 423.000 287.000 65 82 99
138.000 420.000 287.000 60 78 95
138.000 421.000 287.000 62 80 97
139.000 420.000 287.000 63 80 96
139.000 421.000 287.000 65 81 98
138.000 423.000 287.000 63 81 98
140.000 417.000 287.000 62 79 95
140.000 418.000 287.000 63 79 95
140.000 419.000 287.000 63 79 95
141.000 418.000 287.000 63 79 95
141.000 419.000 287.000 63 79 95
142.000 419.000 287.000 65 80 96
140.000 420.000 287.000 62 79 95
140.000 421.000 287.000 64 80 97
141.000 420.000 287.000 62 79 95
141.000 421.000 287.000 63 79 96
142.000 420.000 287.000 64 80 96
142.000 421.000 287.000 66 81 97
143.000 420.000 287.000 64 79 95
143.000 421.000 287.000 65 81 96
147.000 416.000 286.000 59 74 89
147.000 417.000 286.000 59 74 90
144.000 420.000 287.000 60 76 92
144.000 421.000 287.000 62 78 94
145.000 420.000 287.000 58 75 91
145.000 421.000 287.000 60 77 93
145.000 422.000 287.000 62 78 94
146.000 420.000 287.000 59 75 90
146.000 421.000 287.000 62 77 93
147.000 420.000 287.000 60 76 91
147.000 421.000 287.000 61 77 92
146.000 422.000 287.000 62 77 93
147.000 422.000 287.000 61 77 93
147.000 423.000 287.000 62 77 93
148.000 416.000 286.000 60 75 90
148.000 417.000 286.000 60 75 90
149.000 416.000 286.000 57 73 89
149.000 417.000 286.000 59 75 90
148.000 418.000 286.000 58 74 89
148.000 419.000 286.000 56 72 88
149.000 418.000 286.000 61 76 91
149.000 419.000 286.000 59 74 90
150.000 416.000 286.000 55 71 87
150.000 417.000 286.000 56 72 87
151.000 416.000 286.000 52 69 84
151.000 417.000 286.000 53 69 84
150.000 418.000 286.000 56 72 87
148.000 420.000 287.000 55 72 88
148.000 421.000 287.000 56 72 88
149.000 420.000 287.000 58 74 89
155.000 421.000 285.000 57 72 87
155.000 422.000 285.000 57 72 87
156.000 417.000 285.000 62 74 87
156.000 419.000 285.000 58 72 85
157.000 419.000 285.000 61 73 86
158.000 416.000 284.000 54 67 81
159.000 419.000 284.000 58 71 84
156.000 420.000 285.000 57 71 86
156.000 421.000 285.000 56 72 87
157.000 420.000 285.000 59 72 85
157.000 421.000 285.000 60 73 86
156.000 422.000 285.000 57 71 87
156.000 423.000 285.000 57 72 86
157.000 422.000 285.000 60 73 87
158.000 420.000 284.000 57 70 83
158.000 421.000 284.000 60 72 84
158.000 421.000 285.000 60 72 85
159.000 420.000 284.000 58 71 84
159.000 421.000 284.000 60 72 85
158.000 422.000 284.000 60 71 84
158.000 422.000 285.000 60 72 85
158.000 423.000 285.000 56 70 84
159.000 422.000 284.000 59 72 85
152.000 425.000 286.000 59 73 88
153.000 425.000 286.000 59 73 88
153.000 426.000 286.000 59 73 88
156.000 424.000 285.000 57 72 87
157.000 424.000 285.000 58 73 87
160.000 384.000 278.000 50 60 71
160.000 384.000 279.000 53 62 73
160.000 385.000 279.000 53 62 73
161.000 384.000 278.000 49 59 70
161.000 385.000 278.000 49 60 71
161.000 385.000 279.000 51 61 72
160.000 386.000 279.000 54 63 74
160.000 387.000 279.000 54 64 76
161.000 386.000 278.000 50 61 73
161.000 386.000 279.000 50 61 72
161.000 387.000 279.000 51 62 74
163.000 384.000 277.000 47 58 70
163.000 385.000 277.000 46 58 70
162.000 384.000 278.000 48 59 71
162.000 385.000 278.000 48 59 71
163.000 384.000 278.000 48 59 71
163.000 385.000 278.000 46 58 70
162.000 386.000 278.000 50 62 73
162.000 387.000 278.000 51 63 75
163.000 386.000 278.000 46 59 71
163.000 387.000 278.000 48 61 73
160.000 388.000 279.000 55 66 78
160.000 389.000 279.000 55 66 79
161.000 388.000 279.000 52 64 76
161.000 389.000 279.000 53 64 76
160.000 391.000 279.000 51 63 76
161.000 390.000 279.000 50 63 75
161.000 391.000 279.000 51 63 75
162.000 388.000 278.000 51 63 75
162.000 388.000 279.000 50 62 75
162.000 389.000 278.000 50 62 75
162.000 389.000 279.000 50 62 74
163.000 388.000 278.000 51 63 75
163.000 389.000 278.000 51 63 76
162.000 390.000 278.000 49 61 74
162.000 390.000 279.000 49 62 74
162.000 391.000 279.000 50 62 74
163.000 390.000 278.000 51 63 75
163.000 391.000 278.000 51 63 76
164.000 384.000 277.000 47 59 70
164.000 385.000 277.000 49 60 73
164.000 387.000 278.000 45 59 71
164.000 388.000 278.000 48 60 73
160.000 388.000 280.000 56 67 79
160.000 389.000 280.000 53 66 79
160.000 390.000 280.000 53 66 79
160.000 391.000 280.000 51 65 78
161.000 391.000 280.000 52 64 77
161.000 392.000 279.000 53 64 77
161.000 393.000 279.000 54 65 78
161.000 394.000 279.000 53 65 78
162.000 392.000 279.000 51 64 76
162.000 393.000 279.000 52 65 77
163.000 392.000 278.000 51 64 77
163.000 393.000 279.000 52 65 77
162.000 394.000 279.000 51 64 77
162.000 395.000 279.000 50 63 76
160.000 392.000 280.000 50 64 77
160.000 393.000 280.000 51 65 78
161.000 392.000 280.000 52 64 77
161.000 393.000 280.000 54 66 79
160.000 394.000 280.000 51 65 78
160.000 394.000 281.000 50 64 78
160.000 395.000 280.000 51 65 78
160.000 395.000 281.000 50 64 77
161.000 394.000 280.000 54 66 78
161.000 395.000 280.000 51 64 77
162.000 395.000 280.000 52 65 77
160.000 396.000 280.000 51 65 78
160.000 396.000 281.000 49 63 76
160.000 397.000 281.000 49 62 75
161.000 396.000 280.000 52 64 77
161.000 397.000 281.000 48 62 76
160.000 398.000 281.000 49 62 75
160.000 399.000 281.000 50 62 74
161.000 398.000 281.000 48 62 75
161.000 399.000 280.000 48 62 74
161.000 399.000 281.000 48 61 74
160.000 400.000 281.000 52 63 75
160.000 401.000 281.000 51 63 75
161.000 400.000 281.000 49 62 75
161.000 401.000 281.000 52 63 75
160.000 402.000 281.000 53 64 76
160.000 403.000 281.000 53 65 77
161.000 402.000 281.000 55 67 79
160.000 402.000 282.000 53 65 78
160.000 403.000 282.000 52 66 80
160.000 404.000 281.000 51 64 76
160.000 405.000 281.000 49 63 75
160.000 404.000 282.000 51 66 80
160.000 405.000 282.000 49 64 78
160.000 406.000 281.000 48 62 75
160.000 406.000 282.000 50 65 78
160.000 407.000 282.000 53 66 78
160.000 408.000 282.000 52 64 77
160.000 410.000 282.000 52 65 78
160.000 411.000 282.000 54 67 80
160.000 414.000 283.000 53 66 80
160.000 415.000 283.000 52 66 80
