ply
format ascii 1.0
element vertex 1335
property float x
property float y
property float z
property uchar red
property uchar green
property uchar blue
end_header
111.000 132.000 251.000 39 46 53
109.000 132.000 255.000 39 46 53
109.000 133.000 255.000 39 46 54
110.000 132.000 253.000 40 46 54
111.000 132.000 252.000 38 45 52
111.000 132.000 253.000 38 45 52
111.000 133.000 252.000 37 44 51
111.000 133.000 253.000 38 45 52
110.000 132.000 254.000 40 47 54
110.000 133.000 254.000 39 46 53
110.000 133.000 255.000 38 45 53
111.000 133.000 254.000 39 45 53
111.000 134.000 253.000 39 45 52
111.000 135.000 253.000 40 45 52
110.000 134.000 255.000 38 45 53
110.000 135.000 255.000 39 46 53
111.000 134.000 254.000 39 46 53
111.000 135.000 254.000 40 46 53
111.000 135.000 255.000 39 46 53
110.000 136.000 255.000 40 47 54
110.000 137.000 255.000 39 46 54
111.000 136.000 254.000 40 46 53
111.000 136.000 255.000 40 46 54
111.000 137.000 254.000 40 46 53
111.000 137.000 255.000 39 46 53
110.000 138.000 255.000 39 46 53
111.000 138.000 254.000 39 45 53
111.000 138.000 255.000 39 45 53
111.000 139.000 254.000 38 45 52
111.000 139.000 255.000 39 45 53
111.000 140.000 255.000 38 45 52
111.000 141.000 255.000 39 45 53
115.000 130.000 245.000 41 47 54
114.000 130.000 247.000 40 47 54
114.000 131.000 247.000 40 46 54
115.000 130.000 246.000 40 47 54
115.000 130.000 247.000 40 47 54
115.000 131.000 246.000 41 47 54
115.000 131.000 247.000 40 47 54
115.000 132.000 246.000 41 47 54
115.000 132.000 247.000 40 47 54
115.000 133.000 247.000 39 46 53
115.000 134.000 247.000 39 45 52
118.000 130.000 241.000 38 44 51
118.000 131.000 241.000 37 43 50
118.000 130.000 242.000 36 44 51
116.000 130.000 244.000 38 44 52
116.000 130.000 245.000 40 46 53
116.000 131.000 244.000 37 44 52
116.000 131.000 245.000 40 46 53
118.000 132.000 242.000 37 43 51
118.000 133.000 242.000 37 44 51
118.000 133.000 243.000 38 44 51
118.000 134.000 242.000 38 45 52
118.000 134.000 243.000 38 45 52
118.000 135.000 243.000 38 44 52
119.000 134.000 242.000 38 44 51
119.000 135.000 242.000 37 44 51
116.000 132.000 244.000 37 44 52
116.000 132.000 245.000 37 44 52
116.000 133.000 245.000 36 43 52
117.000 132.000 244.000 36 44 52
117.000 133.000 244.000 36 43 51
117.000 133.000 245.000 36 43 51
116.000 132.000 246.000 39 46 53
116.000 133.000 246.000 37 44 52
116.000 133.000 247.000 38 45 52
116.000 134.000 245.000 35 44 52
117.000 134.000 244.000 36 44 51
117.000 134.000 245.000 36 43 51
117.000 135.000 244.000 37 44 51
117.000 135.000 245.000 36 44 52
116.000 134.000 246.000 37 44 52
116.000 134.000 247.000 39 45 52
116.000 135.000 246.000 39 46 54
116.000 135.000 247.000 40 47 54
117.000 134.000 246.000 36 44 52
117.000 135.000 246.000 36 44 53
118.000 135.000 244.000 38 44 52
113.000 131.000 249.000 38 46 53
113.000 131.000 250.000 39 46 53
114.000 131.000 248.000 39 46 54
113.000 132.000 249.000 37 45 53
113.000 133.000 249.000 37 44 52
112.000 132.000 250.000 39 46 53
112.000 132.000 251.000 39 45 53
112.000 133.000 251.000 38 45 52
113.000 132.000 250.000 39 45 53
113.000 133.000 250.000 38 45 52
113.000 133.000 251.000 38 45 52
113.000 134.000 250.000 36 43 50
113.000 134.000 251.000 38 45 52
113.000 135.000 250.000 36 43 51
113.000 135.000 251.000 39 45 52
114.000 132.000 248.000 39 46 54
114.000 132.000 249.000 37 45 53
114.000 133.000 248.000 39 46 54
114.000 133.000 249.000 37 45 53
115.000 132.000 248.000 40 46 54
115.000 133.000 248.000 40 46 53
114.000 134.000 249.000 38 45 52
114.000 135.000 249.000 38 45 52
115.000 134.000 248.000 39 45 53
115.000 134.000 249.000 38 45 52
115.000 135.000 248.000 39 46 53
115.000 135.000 249.000 39 45 53
114.000 134.000 250.000 37 44 52
114.000 135.000 250.000 37 44 52
112.000 133.000 252.000 37 44 51
112.000 134.000 252.000 40 46 52
112.000 134.000 253.000 40 45 52
112.000 135.000 252.000 40 46 52
112.000 135.000 253.000 40 46 52
113.000 135.000 252.000 40 46 53
118.000 136.000 243.000 38 44 52
119.000 136.000 242.000 37 44 51
119.000 136.000 243.000 38 44 52
119.000 137.000 242.000 37 44 51
119.000 137.000 243.000 38 44 52
119.000 138.000 242.000 38 44 52
119.000 138.000 243.000 38 45 52
119.000 139.000 242.000 37 44 51
119.000 139.000 243.000 37 44 51
117.000 136.000 245.000 35 44 52
117.000 137.000 245.000 34 43 52
116.000 136.000 246.000 37 45 54
116.000 136.000 247.000 40 46 54
116.000 137.000 246.000 38 45 53
116.000 137.000 247.000 39 46 53
117.000 137.000 246.000 36 44 52
117.000 138.000 245.000 35 43 52
117.000 139.000 245.000 36 44 53
116.000 138.000 246.000 38 45 53
116.000 138.000 247.000 38 45 53
116.000 139.000 246.000 38 46 54
116.000 139.000 247.000 39 46 53
117.000 138.000 246.000 37 45 53
117.000 139.000 246.000 37 45 53
118.000 136.000 244.000 38 44 52
118.000 137.000 244.000 37 45 52
118.000 137.000 245.000 37 44 52
118.000 138.000 244.000 38 44 52
118.000 138.000 245.000 36 44 52
118.000 139.000 245.000 38 45 52
119.000 138.000 244.000 38 44 52
119.000 142.000 243.000 37 45 53
119.000 143.000 243.000 37 45 53
117.000 140.000 245.000 36 44 52
116.000 140.000 247.000 38 45 53
116.000 141.000 247.000 38 45 53
117.000 140.000 246.000 37 45 53
117.000 140.000 247.000 38 45 53
117.000 141.000 246.000 37 45 53
117.000 141.000 247.000 37 45 53
117.000 142.000 246.000 37 45 53
117.000 142.000 247.000 38 45 53
117.000 143.000 247.000 38 45 53
118.000 140.000 245.000 37 45 52
118.000 141.000 244.000 38 45 53
118.000 141.000 245.000 38 45 53
118.000 141.000 246.000 37 45 53
118.000 142.000 245.000 36 44 52
118.000 143.000 245.000 36 44 52
119.000 142.000 245.000 36 44 52
119.000 143.000 244.000 37 45 53
119.000 143.000 245.000 37 45 53
118.000 142.000 246.000 36 44 52
118.000 143.000 246.000 36 44 52
118.000 143.000 247.000 37 45 53
113.000 136.000 251.000 39 46 53
113.000 137.000 251.000 39 45 53
113.000 138.000 251.000 38 44 52
115.000 136.000 248.000 39 46 53
115.000 136.000 249.000 39 46 53
115.000 137.000 248.000 39 46 53
115.000 137.000 249.000 39 46 54
114.000 136.000 250.000 38 45 53
114.000 136.000 251.000 39 46 53
114.000 137.000 250.000 40 46 54
114.000 137.000 251.000 39 45 53
115.000 137.000 250.000 40 47 54
115.000 138.000 248.000 38 45 53
115.000 138.000 249.000 39 46 53
115.000 139.000 249.000 38 45 53
114.000 138.000 250.000 38 45 53
114.000 138.000 251.000 37 44 52
114.000 139.000 250.000 37 44 52
114.000 139.000 251.000 37 45 52
115.000 138.000 250.000 39 45 53
115.000 139.000 250.000 38 45 53
112.000 136.000 252.000 40 46 53
112.000 136.000 253.000 41 46 53
112.000 137.000 252.000 40 46 53
112.000 137.000 253.000 39 46 53
113.000 136.000 252.000 40 46 53
113.000 137.000 252.000 39 46 53
112.000 137.000 254.000 39 45 52
112.000 138.000 253.000 37 44 52
112.000 139.000 253.000 37 45 52
113.000 138.000 252.000 39 46 53
113.000 138.000 253.000 38 45 53
113.000 139.000 252.000 38 45 53
113.000 139.000 253.000 38 45 53
112.000 138.000 254.000 38 45 52
112.000 139.000 254.000 37 44 52
114.000 139.000 252.000 38 45 53
115.000 140.000 249.000 38 45 53
114.000 140.000 251.000 36 44 52
114.000 141.000 251.000 36 44 52
115.000 140.000 250.000 38 46 53
115.000 140.000 251.000 37 44 52
115.000 141.000 250.000 38 46 53
115.000 141.000 251.000 36 44 52
115.000 142.000 251.000 38 45 53
115.000 143.000 251.000 39 46 54
112.000 140.000 253.000 37 44 52
113.000 140.000 252.000 37 44 52
113.000 140.000 253.000 38 45 52
113.000 141.000 253.000 38 45 53
112.000 140.000 254.000 37 44 52
112.000 141.000 254.000 37 44 52
112.000 141.000 255.000 38 45 52
113.000 141.000 254.000 38 45 53
113.000 142.000 253.000 40 47 54
112.000 142.000 254.000 40 47 54
112.000 142.000 255.000 40 47 54
112.000 143.000 255.000 40 47 54
113.000 142.000 254.000 41 48 55
113.000 143.000 254.000 39 46 54
113.000 143.000 255.000 40 47 55
114.000 140.000 252.000 37 44 52
114.000 141.000 252.000 36 44 52
114.000 141.000 253.000 38 45 53
114.000 142.000 252.000 36 43 51
114.000 142.000 253.000 37 45 53
114.000 143.000 253.000 38 45 52
115.000 142.000 252.000 36 44 52
115.000 143.000 252.000 38 45 53
116.000 136.000 248.000 39 46 53
116.000 137.000 248.000 39 46 54
116.000 138.000 248.000 38 45 53
116.000 139.000 248.000 38 45 53
116.000 140.000 248.000 38 45 53
116.000 140.000 249.000 39 46 54
116.000 141.000 248.000 38 45 53
116.000 141.000 249.000 39 46 54
116.000 141.000 250.000 39 46 54
116.000 142.000 248.000 38 45 53
116.000 142.000 249.000 40 46 54
117.000 142.000 248.000 38 46 53
117.000 142.000 249.000 40 46 54
117.000 143.000 248.000 39 46 54
117.000 143.000 249.000 39 46 53
116.000 142.000 250.000 40 47 55
116.000 143.000 250.000 40 47 54
116.000 143.000 251.000 40 47 55
117.000 143.000 250.000 39 46 53
120.000 138.000 242.000 36 43 51
120.000 139.000 242.000 36 43 51
120.000 142.000 241.000 38 45 53
120.000 143.000 242.000 36 44 52
118.000 144.000 245.000 37 44 52
119.000 144.000 244.000 37 44 52
119.000 144.000 245.000 38 45 53
119.000 145.000 244.000 36 44 53
119.000 145.000 245.000 38 45 53
118.000 144.000 246.000 37 44 52
118.000 144.000 247.000 37 45 52
118.000 145.000 246.000 37 44 52
118.000 145.000 247.000 37 44 52
119.000 145.000 246.000 38 45 52
119.000 146.000 244.000 36 45 53
119.000 146.000 245.000 36 44 52
119.000 147.000 245.000 38 45 52
118.000 146.000 247.000 39 45 53
118.000 147.000 247.000 39 46 53
119.000 146.000 246.000 38 45 52
119.000 146.000 247.000 38 45 52
119.000 147.000 246.000 38 45 52
119.000 147.000 247.000 38 45 52
119.000 148.000 246.000 39 45 52
119.000 148.000 247.000 39 45 52
119.000 149.000 247.000 40 46 52
112.000 144.000 255.000 40 46 53
112.000 145.000 255.000 39 45 52
113.000 144.000 254.000 39 46 54
113.000 144.000 255.000 39 46 54
113.000 145.000 254.000 38 45 53
113.000 145.000 255.000 39 46 54
113.000 146.000 255.000 39 46 53
113.000 147.000 255.000 38 45 53
114.000 144.000 253.000 38 45 52
114.000 145.000 253.000 38 45 52
115.000 144.000 252.000 38 45 52
115.000 144.000 253.000 38 45 53
115.000 145.000 252.000 38 45 53
115.000 145.000 253.000 38 45 53
114.000 145.000 254.000 38 44 52
115.000 146.000 252.000 37 44 52
115.000 146.000 253.000 38 45 53
115.000 147.000 253.000 38 45 53
114.000 146.000 254.000 37 44 52
114.000 147.000 254.000 36 44 53
114.000 147.000 255.000 37 45 53
115.000 146.000 254.000 38 45 53
115.000 147.000 254.000 37 45 53
113.000 148.000 255.000 36 44 52
115.000 148.000 253.000 38 45 53
115.000 149.000 253.000 39 46 54
114.000 148.000 254.000 37 45 53
114.000 148.000 255.000 35 44 52
114.000 149.000 254.000 38 46 55
114.000 149.000 255.000 37 45 52
115.000 148.000 254.000 38 45 53
115.000 149.000 254.000 39 47 54
115.000 150.000 253.000 39 46 53
114.000 150.000 255.000 38 45 53
114.000 151.000 255.000 39 46 54
115.000 150.000 254.000 39 46 54
115.000 151.000 254.000 38 45 53
115.000 151.000 255.000 39 46 54
117.000 144.000 248.000 39 46 53
117.000 144.000 249.000 39 46 53
117.000 145.000 249.000 38 45 52
116.000 144.000 250.000 39 46 53
116.000 144.000 251.000 39 46 53
116.000 145.000 250.000 38 45 53
116.000 145.000 251.000 39 46 53
117.000 144.000 250.000 38 45 53
117.000 145.000 250.000 38 45 52
116.000 146.000 251.000 37 44 52
116.000 147.000 251.000 38 45 52
117.000 146.000 250.000 38 44 52
117.000 146.000 251.000 38 44 52
117.000 147.000 250.000 39 45 52
117.000 147.000 251.000 39 46 53
118.000 144.000 248.000 39 45 53
118.000 145.000 248.000 39 45 53
118.000 145.000 249.000 39 45 52
118.000 146.000 248.000 39 46 53
118.000 146.000 249.000 39 45 53
118.000 147.000 248.000 40 46 53
118.000 147.000 249.000 39 46 53
118.000 147.000 250.000 39 45 52
116.000 145.000 252.000 38 45 52
116.000 146.000 252.000 36 43 51
116.000 147.000 252.000 38 45 52
116.000 148.000 251.000 41 47 54
117.000 148.000 250.000 40 46 53
117.000 148.000 251.000 40 46 53
117.000 149.000 250.000 38 45 53
117.000 149.000 251.000 38 45 53
117.000 150.000 251.000 37 44 52
117.000 151.000 251.000 38 45 52
118.000 148.000 248.000 40 46 53
118.000 148.000 249.000 40 46 53
118.000 149.000 249.000 41 47 54
119.000 148.000 248.000 40 46 52
119.000 149.000 248.000 40 46 52
119.000 149.000 249.000 41 47 54
118.000 148.000 250.000 40 46 53
118.000 149.000 250.000 40 46 53
119.000 150.000 248.000 39 45 52
119.000 150.000 249.000 40 46 53
119.000 151.000 248.000 39 45 52
119.000 151.000 249.000 39 45 52
118.000 150.000 250.000 40 46 52
118.000 151.000 250.000 41 46 53
119.000 151.000 250.000 41 46 53
116.000 148.000 252.000 40 47 54
116.000 148.000 253.000 39 46 53
116.000 149.000 252.000 38 45 53
116.000 149.000 253.000 38 45 53
116.000 150.000 252.000 38 45 52
116.000 150.000 253.000 38 45 53
116.000 151.000 252.000 38 45 52
116.000 151.000 253.000 38 45 53
117.000 150.000 252.000 38 44 52
117.000 151.000 252.000 38 45 52
114.000 152.000 255.000 39 46 53
114.000 153.000 255.000 38 46 53
115.000 152.000 254.000 38 45 53
115.000 152.000 255.000 39 46 54
115.000 153.000 254.000 40 47 54
115.000 153.000 255.000 39 46 54
115.000 154.000 254.000 39 45 53
115.000 154.000 255.000 38 45 52
115.000 155.000 255.000 37 45 52
117.000 152.000 251.000 38 44 52
117.000 153.000 251.000 39 45 53
119.000 152.000 249.000 39 46 53
119.000 153.000 249.000 39 46 53
118.000 152.000 250.000 41 47 54
118.000 152.000 251.000 41 47 53
118.000 153.000 251.000 41 47 54
119.000 152.000 250.000 40 46 53
119.000 153.000 250.000 39 45 52
119.000 153.000 251.000 39 45 53
118.000 154.000 251.000 38 46 53
118.000 155.000 251.000 37 45 53
119.000 154.000 250.000 38 45 52
119.000 154.000 251.000 38 45 52
119.000 155.000 250.000 40 47 54
119.000 155.000 251.000 38 46 54
116.000 152.000 252.000 38 45 52
116.000 152.000 253.000 38 45 52
116.000 153.000 253.000 39 46 53
117.000 152.000 252.000 37 44 51
117.000 153.000 252.000 40 46 53
116.000 152.000 254.000 38 45 53
116.000 153.000 254.000 39 46 53
116.000 154.000 253.000 38 45 52
117.000 154.000 252.000 39 46 53
117.000 154.000 253.000 38 45 53
117.000 155.000 253.000 38 45 53
116.000 154.000 254.000 37 44 52
116.000 155.000 254.000 38 45 53
116.000 155.000 255.000 38 45 53
117.000 155.000 254.000 38 45 53
118.000 154.000 252.000 40 46 54
118.000 155.000 252.000 39 46 54
118.000 155.000 253.000 39 45 53
119.000 156.000 251.000 38 46 54
119.000 157.000 251.000 39 47 56
117.000 156.000 253.000 38 45 53
116.000 156.000 254.000 39 46 53
116.000 156.000 255.000 37 44 52
116.000 157.000 255.000 37 45 52
117.000 156.000 254.000 37 44 52
117.000 157.000 254.000 37 44 52
117.000 157.000 255.000 38 45 52
116.000 158.000 255.000 40 47 54
117.000 158.000 254.000 39 46 53
117.000 158.000 255.000 39 46 54
117.000 159.000 254.000 39 46 53
117.000 159.000 255.000 41 47 54
118.000 156.000 252.000 37 45 53
118.000 156.000 253.000 37 44 52
118.000 157.000 253.000 37 45 53
119.000 156.000 252.000 37 45 53
119.000 157.000 252.000 38 46 54
118.000 157.000 254.000 38 45 53
118.000 158.000 253.000 39 47 54
118.000 159.000 253.000 40 47 54
119.000 158.000 252.000 38 46 54
119.000 158.000 253.000 37 45 52
119.000 159.000 252.000 38 46 55
119.000 159.000 253.000 38 45 52
118.000 158.000 254.000 40 47 54
118.000 159.000 254.000 38 45 53
120.000 144.000 242.000 36 44 52
122.000 146.000 242.000 35 44 52
122.000 147.000 242.000 36 44 52
122.000 148.000 242.000 37 44 52
122.000 148.000 243.000 37 45 52
122.000 149.000 243.000 38 46 54
122.000 150.000 243.000 40 47 55
123.000 151.000 242.000 38 46 53
120.000 148.000 244.000 37 45 53
120.000 148.000 246.000 39 46 53
120.000 149.000 246.000 40 46 54
120.000 149.000 247.000 41 46 53
121.000 149.000 246.000 39 46 54
120.000 150.000 247.000 39 46 54
120.000 151.000 247.000 38 45 53
121.000 150.000 246.000 38 45 53
121.000 151.000 246.000 39 46 53
121.000 151.000 247.000 38 45 53
122.000 149.000 244.000 39 46 54
122.000 150.000 244.000 40 48 55
122.000 150.000 245.000 41 48 55
122.000 151.000 244.000 40 47 55
122.000 151.000 245.000 41 48 55
120.000 150.000 248.000 39 46 53
120.000 151.000 248.000 38 45 52
123.000 152.000 241.000 36 44 52
123.000 152.000 242.000 36 44 52
123.000 152.000 243.000 37 45 52
123.000 153.000 242.000 36 43 51
123.000 153.000 243.000 37 45 53
123.000 154.000 242.000 37 43 51
123.000 154.000 243.000 37 44 52
123.000 155.000 242.000 37 43 51
123.000 155.000 243.000 36 44 51
120.000 152.000 247.000 38 45 52
121.000 152.000 246.000 39 46 53
121.000 152.000 247.000 39 46 53
121.000 153.000 247.000 40 47 54
121.000 154.000 247.000 42 48 55
121.000 155.000 247.000 41 48 55
122.000 152.000 245.000 39 46 54
123.000 152.000 244.000 38 45 53
123.000 153.000 244.000 38 45 53
122.000 152.000 246.000 39 46 53
122.000 153.000 246.000 38 45 53
123.000 154.000 244.000 38 46 54
123.000 155.000 244.000 37 44 52
123.000 155.000 245.000 38 45 53
122.000 154.000 246.000 39 46 54
122.000 154.000 247.000 39 46 54
122.000 155.000 246.000 39 46 54
122.000 155.000 247.000 39 46 54
123.000 156.000 243.000 38 44 52
123.000 156.000 244.000 38 45 53
123.000 156.000 245.000 39 47 55
123.000 157.000 244.000 39 46 54
123.000 157.000 245.000 40 48 56
122.000 156.000 246.000 40 47 55
122.000 156.000 247.000 39 46 54
122.000 157.000 246.000 41 48 56
122.000 157.000 247.000 41 47 55
123.000 157.000 246.000 41 48 56
123.000 158.000 245.000 39 47 55
122.000 158.000 246.000 41 48 56
122.000 158.000 247.000 41 48 56
122.000 159.000 247.000 42 49 56
123.000 158.000 246.000 41 48 56
123.000 159.000 246.000 41 48 56
120.000 152.000 248.000 39 46 53
120.000 152.000 249.000 40 46 53
120.000 153.000 248.000 40 47 54
120.000 153.000 249.000 40 46 53
121.000 153.000 248.000 41 47 54
120.000 154.000 248.000 42 48 55
120.000 154.000 249.000 41 47 54
120.000 155.000 248.000 41 47 54
120.000 155.000 249.000 41 47 54
121.000 154.000 248.000 42 47 54
121.000 155.000 248.000 41 47 54
120.000 154.000 250.000 40 47 54
120.000 155.000 250.000 41 47 54
120.000 156.000 249.000 40 47 54
120.000 157.000 249.000 42 48 55
121.000 156.000 248.000 40 46 53
121.000 156.000 249.000 42 48 55
121.000 157.000 248.000 43 49 55
121.000 157.000 249.000 42 48 55
120.000 156.000 250.000 39 46 54
120.000 156.000 251.000 39 47 55
120.000 157.000 250.000 40 47 55
120.000 157.000 251.000 40 48 56
121.000 158.000 248.000 42 48 55
121.000 158.000 249.000 40 46 53
121.000 159.000 248.000 42 48 55
121.000 159.000 249.000 41 47 54
120.000 158.000 250.000 38 46 54
120.000 158.000 251.000 40 47 55
120.000 159.000 250.000 38 45 53
120.000 159.000 251.000 39 46 55
121.000 158.000 250.000 38 45 53
121.000 159.000 250.000 38 46 53
122.000 157.000 248.000 42 48 55
122.000 158.000 248.000 42 48 55
122.000 159.000 248.000 42 48 55
117.000 160.000 255.000 40 46 53
117.000 161.000 255.000 41 48 55
117.000 163.000 255.000 39 46 53
119.000 160.000 253.000 38 45 52
119.000 161.000 253.000 38 45 52
118.000 160.000 254.000 36 44 51
118.000 160.000 255.000 36 44 51
118.000 161.000 254.000 38 44 52
118.000 161.000 255.000 41 47 54
119.000 161.000 254.000 38 45 52
119.000 162.000 252.000 39 46 53
119.000 162.000 253.000 39 45 52
119.000 163.000 253.000 42 47 54
118.000 162.000 255.000 38 45 52
118.000 163.000 254.000 39 45 52
118.000 163.000 255.000 39 46 53
119.000 162.000 254.000 38 44 51
119.000 163.000 254.000 40 46 53
119.000 164.000 253.000 40 46 52
118.000 164.000 254.000 39 45 53
119.000 164.000 254.000 40 45 52
122.000 161.000 247.000 40 47 55
123.000 160.000 246.000 41 48 56
122.000 162.000 247.000 40 47 54
122.000 163.000 247.000 38 45 53
123.000 162.000 247.000 40 47 54
123.000 163.000 246.000 37 45 52
123.000 163.000 247.000 37 44 52
122.000 164.000 247.000 38 46 54
123.000 164.000 246.000 39 46 54
123.000 164.000 247.000 38 46 54
121.000 160.000 249.000 40 47 54
121.000 161.000 249.000 40 47 54
120.000 160.000 251.000 38 46 54
120.000 161.000 251.000 39 46 54
121.000 160.000 250.000 38 45 53
121.000 161.000 250.000 39 46 54
121.000 162.000 249.000 39 46 54
121.000 163.000 249.000 36 45 53
120.000 162.000 251.000 39 46 54
120.000 163.000 251.000 37 45 53
121.000 162.000 250.000 40 47 55
121.000 163.000 250.000 37 45 53
121.000 163.000 251.000 37 45 53
122.000 160.000 248.000 41 47 54
122.000 161.000 248.000 40 46 54
122.000 162.000 248.000 36 44 53
122.000 163.000 248.000 36 44 53
120.000 160.000 252.000 39 47 55
120.000 161.000 252.000 39 47 55
120.000 162.000 252.000 38 46 53
120.000 163.000 252.000 40 46 54
121.000 164.000 249.000 38 46 55
120.000 164.000 251.000 38 45 53
121.000 164.000 250.000 38 46 55
121.000 164.000 251.000 38 46 54
122.000 164.000 248.000 37 46 55
122.000 164.000 249.000 37 46 54
120.000 164.000 252.000 40 47 55
95.000 139.000 266.000 43 52 62
95.000 140.000 266.000 42 51 60
95.000 141.000 266.000 42 51 61
95.000 142.000 266.000 42 52 61
95.000 143.000 266.000 43 52 62
95.000 144.000 266.000 43 52 62
95.000 145.000 266.000 43 53 63
95.000 146.000 266.000 44 54 64
95.000 147.000 266.000 44 54 64
95.000 148.000 266.000 44 54 64
95.000 149.000 266.000 44 54 63
95.000 150.000 266.000 44 54 64
95.000 151.000 266.000 45 54 64
95.000 152.000 266.000 43 53 63
95.000 153.000 266.000 42 52 63
95.000 156.000 266.000 42 53 63
95.000 157.000 266.000 42 53 63
95.000 158.000 266.000 43 53 64
95.000 162.000 267.000 43 53 63
95.000 163.000 267.000 43 53 63
93.000 166.000 267.000 44 53 63
94.000 164.000 267.000 45 55 65
94.000 165.000 267.000 44 54 64
95.000 164.000 267.000 42 52 63
95.000 165.000 267.000 42 53 63
94.000 166.000 267.000 44 54 64
103.000 135.000 261.000 40 46 53
102.000 135.000 262.000 42 48 56
103.000 135.000 262.000 41 47 54
101.000 136.000 263.000 41 48 57
101.000 137.000 263.000 41 48 56
102.000 136.000 262.000 42 48 56
102.000 136.000 263.000 41 48 56
102.000 137.000 263.000 41 49 57
103.000 136.000 262.000 41 48 55
103.000 137.000 262.000 41 47 55
103.000 137.000 263.000 41 48 55
102.000 138.000 263.000 42 49 57
102.000 139.000 263.000 42 49 57
103.000 138.000 262.000 40 47 55
103.000 138.000 263.000 40 47 55
103.000 139.000 263.000 41 49 57
103.000 140.000 263.000 42 49 57
103.000 141.000 263.000 42 49 57
103.000 142.000 263.000 42 49 57
103.000 143.000 263.000 42 49 57
96.000 138.000 266.000 46 54 63
96.000 139.000 266.000 45 54 63
97.000 138.000 266.000 44 52 62
97.000 139.000 266.000 45 53 62
98.000 137.000 265.000 41 50 59
99.000 137.000 265.000 40 49 58
98.000 138.000 265.000 42 50 60
98.000 139.000 265.000 44 52 61
99.000 138.000 265.000 42 51 60
99.000 139.000 265.000 44 52 61
98.000 139.000 266.000 45 53 62
96.000 140.000 266.000 43 52 61
96.000 141.000 266.000 42 51 61
97.000 140.000 266.000 44 53 62
97.000 141.000 266.000 43 52 61
96.000 142.000 266.000 44 53 63
96.000 143.000 266.000 45 54 63
97.000 142.000 266.000 45 54 63
97.000 143.000 266.000 45 53 63
98.000 140.000 265.000 44 53 62
99.000 140.000 265.000 43 52 61
99.000 141.000 265.000 43 52 61
98.000 140.000 266.000 44 53 62
98.000 141.000 266.000 44 53 62
99.000 142.000 265.000 43 51 61
99.000 143.000 265.000 44 52 61
98.000 142.000 266.000 44 53 63
98.000 143.000 266.000 45 53 63
99.000 142.000 266.000 44 53 62
99.000 143.000 266.000 45 54 63
100.000 136.000 264.000 42 49 58
100.000 136.000 265.000 41 49 57
100.000 137.000 264.000 42 49 57
100.000 137.000 265.000 40 49 57
101.000 136.000 264.000 41 48 57
101.000 137.000 264.000 42 50 58
100.000 138.000 264.000 43 50 58
100.000 138.000 265.000 43 50 59
100.000 139.000 265.000 44 51 60
101.000 138.000 264.000 43 51 59
101.000 139.000 264.000 44 51 59
102.000 138.000 264.000 42 50 58
102.000 139.000 264.000 42 49 57
100.000 140.000 265.000 43 51 60
100.000 141.000 265.000 44 51 60
101.000 140.000 264.000 43 50 59
101.000 140.000 265.000 43 51 59
101.000 141.000 264.000 42 50 58
101.000 141.000 265.000 43 50 59
100.000 142.000 265.000 43 51 60
100.000 143.000 265.000 43 50 59
101.000 142.000 265.000 42 50 59
101.000 143.000 265.000 42 50 58
102.000 140.000 264.000 42 49 57
102.000 141.000 264.000 40 48 56
103.000 141.000 264.000 42 49 57
102.000 142.000 264.000 41 48 57
102.000 143.000 264.000 41 49 57
103.000 142.000 264.000 42 49 57
103.000 143.000 264.000 41 48 56
105.000 134.000 259.000 39 45 52
107.000 133.000 257.000 41 48 55
107.000 133.000 258.000 40 47 55
106.000 134.000 259.000 38 44 51
106.000 135.000 259.000 38 44 51
107.000 134.000 258.000 40 46 54
107.000 135.000 258.000 39 45 52
107.000 135.000 259.000 39 44 51
104.000 135.000 260.000 42 47 53
104.000 135.000 261.000 41 47 54
105.000 134.000 260.000 40 46 52
105.000 135.000 260.000 40 46 52
108.000 133.000 256.000 40 47 54
108.000 133.000 257.000 40 47 55
109.000 133.000 256.000 40 47 54
108.000 134.000 257.000 41 48 56
108.000 135.000 257.000 41 48 55
109.000 134.000 256.000 41 48 55
109.000 135.000 256.000 41 47 55
108.000 134.000 258.000 41 48 55
108.000 135.000 258.000 40 47 54
110.000 134.000 256.000 40 47 54
110.000 135.000 256.000 40 47 54
106.000 136.000 259.000 39 45 52
106.000 137.000 259.000 38 45 52
107.000 136.000 258.000 40 46 53
107.000 136.000 259.000 40 46 52
107.000 137.000 259.000 42 47 53
107.000 138.000 259.000 41 47 54
107.000 139.000 259.000 42 48 54
104.000 136.000 261.000 40 47 54
104.000 137.000 261.000 40 46 54
105.000 136.000 260.000 40 46 53
105.000 137.000 260.000 39 46 53
105.000 137.000 261.000 40 47 54
104.000 136.000 262.000 40 47 54
104.000 137.000 262.000 40 47 54
104.000 138.000 261.000 41 47 55
105.000 138.000 261.000 40 47 54
105.000 139.000 261.000 40 46 54
104.000 138.000 262.000 40 47 55
104.000 139.000 262.000 41 48 55
106.000 136.000 260.000 39 45 52
106.000 137.000 260.000 38 45 52
106.000 138.000 260.000 39 46 54
106.000 139.000 260.000 39 46 54
107.000 139.000 260.000 40 46 53
107.000 140.000 259.000 41 47 54
105.000 140.000 261.000 40 47 54
105.000 141.000 261.000 39 47 55
104.000 140.000 262.000 42 48 56
104.000 140.000 263.000 42 49 56
104.000 141.000 262.000 42 49 56
104.000 141.000 263.000 42 48 56
105.000 141.000 262.000 40 47 55
104.000 142.000 262.000 41 48 55
104.000 142.000 263.000 41 48 56
104.000 143.000 262.000 41 48 55
104.000 143.000 263.000 41 48 56
105.000 142.000 262.000 40 47 55
105.000 143.000 262.000 40 47 55
106.000 140.000 260.000 39 46 54
106.000 140.000 261.000 39 46 54
106.000 141.000 260.000 40 47 55
106.000 141.000 261.000 40 47 55
107.000 140.000 260.000 40 46 54
107.000 141.000 260.000 41 48 55
106.000 142.000 261.000 41 48 55
106.000 143.000 261.000 40 47 55
107.000 142.000 260.000 41 48 55
107.000 143.000 260.000 41 48 56
108.000 136.000 257.000 42 48 55
108.000 137.000 257.000 42 48 56
109.000 136.000 256.000 40 47 55
109.000 136.000 257.000 42 48 56
109.000 137.000 256.000 40 47 54
109.000 137.000 257.000 41 47 55
108.000 136.000 258.000 41 47 54
108.000 137.000 258.000 43 49 55
109.000 138.000 257.000 39 45 53
109.000 139.000 257.000 39 45 52
108.000 138.000 258.000 41 46 53
108.000 138.000 259.000 43 49 55
108.000 139.000 258.000 41 46 53
108.000 139.000 259.000 42 48 54
109.000 139.000 258.000 38 45 52
110.000 136.000 256.000 40 46 54
110.000 137.000 256.000 40 46 54
110.000 138.000 256.000 40 46 54
110.000 139.000 256.000 40 46 53
110.000 139.000 257.000 40 46 53
109.000 140.000 257.000 39 45 52
108.000 140.000 258.000 41 46 53
108.000 140.000 259.000 42 48 55
108.000 141.000 258.000 42 48 54
108.000 141.000 259.000 43 49 56
109.000 140.000 258.000 40 45 52
109.000 141.000 258.000 41 47 53
108.000 142.000 259.000 42 48 55
108.000 143.000 259.000 43 49 56
109.000 142.000 258.000 41 46 53
109.000 143.000 258.000 41 46 53
110.000 140.000 256.000 40 46 53
110.000 140.000 257.000 40 45 52
110.000 141.000 256.000 40 45 52
110.000 141.000 257.000 41 46 52
111.000 140.000 256.000 40 46 53
111.000 141.000 256.000 40 46 53
110.000 142.000 256.000 40 45 52
110.000 142.000 257.000 40 45 52
110.000 143.000 257.000 41 46 52
111.000 142.000 256.000 40 46 53
111.000 143.000 256.000 41 47 53
110.000 143.000 258.000 40 45 51
108.000 143.000 260.000 42 49 56
96.000 144.000 266.000 44 54 63
96.000 145.000 266.000 45 54 64
97.000 144.000 266.000 44 53 63
97.000 145.000 266.000 45 54 63
96.000 146.000 266.000 46 55 64
96.000 147.000 266.000 47 55 65
97.000 146.000 266.000 47 55 64
97.000 147.000 266.000 48 56 65
99.000 144.000 265.000 42 51 60
99.000 145.000 265.000 42 51 60
98.000 144.000 266.000 44 53 62
98.000 145.000 266.000 43 52 62
99.000 144.000 266.000 43 52 61
99.000 145.000 266.000 43 52 61
99.000 146.000 265.000 45 53 62
98.000 146.000 266.000 46 54 64
98.000 147.000 266.000 48 56 65
99.000 146.000 266.000 45 53 63
99.000 147.000 266.000 47 55 63
96.000 148.000 266.000 45 55 64
96.000 149.000 266.000 45 54 64
97.000 148.000 266.000 46 55 64
97.000 149.000 266.000 45 54 64
96.000 150.000 266.000 46 55 65
96.000 151.000 266.000 47 56 65
97.000 150.000 266.000 45 54 64
97.000 151.000 266.000 47 56 65
98.000 148.000 266.000 47 55 64
98.000 149.000 266.000 44 53 63
99.000 148.000 266.000 46 54 63
99.000 149.000 266.000 43 52 62
98.000 150.000 266.000 43 52 62
98.000 151.000 266.000 45 55 64
99.000 150.000 266.000 41 51 60
99.000 151.000 266.000 43 52 62
100.000 144.000 265.000 42 51 59
100.000 145.000 265.000 43 51 60
101.000 144.000 265.000 43 50 59
101.000 145.000 265.000 44 52 60
100.000 146.000 265.000 45 53 61
100.000 147.000 265.000 44 52 61
101.000 146.000 265.000 46 53 61
101.000 147.000 265.000 45 52 61
102.000 144.000 264.000 41 49 57
102.000 144.000 265.000 42 49 58
102.000 145.000 264.000 42 50 58
102.000 145.000 265.000 43 50 59
103.000 144.000 264.000 40 48 56
103.000 145.000 264.000 42 49 57
102.000 146.000 265.000 44 52 60
102.000 147.000 265.000 44 51 59
103.000 146.000 264.000 43 50 58
103.000 147.000 264.000 43 50 58
103.000 147.000 265.000 43 50 58
100.000 148.000 265.000 45 53 61
100.000 149.000 265.000 43 51 61
101.000 148.000 265.000 43 51 60
101.000 149.000 265.000 43 51 60
100.000 148.000 266.000 45 53 62
100.000 149.000 266.000 42 51 60
100.000 150.000 265.000 42 50 60
101.000 150.000 265.000 42 51 60
101.000 151.000 265.000 42 50 60
100.000 150.000 266.000 42 50 60
100.000 151.000 266.000 42 51 60
101.000 151.000 266.000 42 51 60
102.000 148.000 265.000 42 50 59
102.000 149.000 265.000 41 50 59
103.000 148.000 264.000 42 50 58
103.000 148.000 265.000 42 50 59
103.000 149.000 265.000 42 51 60
102.000 150.000 265.000 42 51 60
102.000 151.000 265.000 42 50 60
103.000 150.000 265.000 42 50 60
103.000 151.000 265.000 42 50 59
96.000 152.000 266.000 45 54 64
96.000 153.000 266.000 43 53 63
97.000 152.000 266.000 46 55 64
97.000 153.000 266.000 45 54 64
96.000 154.000 266.000 44 53 63
96.000 155.000 266.000 45 54 64
97.000 154.000 266.000 44 53 63
97.000 155.000 266.000 44 53 63
98.000 152.000 266.000 46 55 64
98.000 153.000 266.000 45 54 64
99.000 152.000 266.000 46 54 64
99.000 153.000 266.000 46 54 64
98.000 154.000 266.000 44 53 62
98.000 155.000 266.000 43 52 62
99.000 154.000 266.000 44 53 62
99.000 155.000 266.000 42 51 61
96.000 156.000 266.000 44 54 64
96.000 157.000 266.000 43 53 63
97.000 156.000 266.000 44 53 63
97.000 157.000 266.000 44 53 63
96.000 158.000 266.000 42 53 63
96.000 159.000 266.000 42 52 62
97.000 158.000 266.000 44 53 63
98.000 156.000 266.000 43 52 62
98.000 157.000 266.000 44 53 62
99.000 156.000 266.000 42 51 61
99.000 157.000 266.000 44 52 61
98.000 158.000 266.000 44 53 62
99.000 158.000 266.000 45 53 62
101.000 152.000 265.000 42 51 61
101.000 153.000 265.000 43 52 61
100.000 152.000 266.000 43 52 61
100.000 153.000 266.000 44 53 62
101.000 152.000 266.000 42 51 61
101.000 153.000 266.000 43 52 61
101.000 154.000 265.000 44 52 62
101.000 155.000 265.000 44 53 62
100.000 154.000 266.000 45 53 62
100.000 155.000 266.000 42 51 60
101.000 154.000 266.000 45 53 63
101.000 155.000 266.000 43 52 61
102.000 152.000 265.000 43 51 60
102.000 153.000 265.000 43 51 61
103.000 152.000 265.000 42 50 59
103.000 153.000 265.000 43 51 60
102.000 154.000 265.000 44 52 61
102.000 155.000 265.000 44 52 61
103.000 154.000 265.000 44 52 60
103.000 155.000 265.000 45 53 61
100.000 156.000 266.000 41 50 60
100.000 157.000 266.000 42 50 59
101.000 156.000 266.000 42 51 60
101.000 157.000 266.000 41 50 59
100.000 158.000 266.000 43 52 60
101.000 158.000 266.000 43 51 60
102.000 156.000 265.000 44 52 61
102.000 157.000 265.000 42 50 60
103.000 156.000 265.000 45 52 60
103.000 157.000 265.000 44 51 60
102.000 157.000 266.000 42 50 59
102.000 158.000 265.000 42 50 59
103.000 158.000 265.000 43 51 59
103.000 159.000 265.000 43 51 59
102.000 158.000 266.000 42 51 59
104.000 144.000 263.000 40 47 55
104.000 145.000 263.000 42 48 56
105.000 144.000 262.000 40 47 55
105.000 145.000 262.000 43 49 56
105.000 145.000 263.000 42 48 56
104.000 146.000 263.000 43 49 57
104.000 147.000 263.000 42 49 56
105.000 146.000 262.000 43 49 56
105.000 146.000 263.000 43 49 56
105.000 147.000 263.000 42 48 55
106.000 144.000 261.000 41 47 55
106.000 145.000 261.000 42 48 55
107.000 144.000 260.000 41 48 55
107.000 144.000 261.000 40 47 55
107.000 145.000 260.000 41 48 56
107.000 145.000 261.000 41 48 55
106.000 144.000 262.000 41 48 55
106.000 145.000 262.000 42 49 56
107.000 146.000 261.000 41 47 55
107.000 147.000 261.000 39 46 54
106.000 146.000 262.000 42 48 56
106.000 147.000 262.000 41 47 55
107.000 147.000 262.000 40 47 54
105.000 148.000 263.000 43 49 56
105.000 149.000 263.000 43 50 57
105.000 150.000 263.000 44 51 59
105.000 151.000 263.000 43 52 61
107.000 148.000 261.000 41 47 55
107.000 149.000 261.000 42 48 55
106.000 148.000 262.000 42 48 55
106.000 149.000 262.000 42 48 56
106.000 149.000 263.000 42 49 56
107.000 148.000 262.000 41 48 55
107.000 149.000 262.000 41 48 56
106.000 150.000 262.000 41 48 56
106.000 150.000 263.000 42 49 58
106.000 151.000 263.000 42 50 58
107.000 150.000 262.000 41 48 56
107.000 151.000 262.000 41 48 56
108.000 144.000 259.000 42 48 55
108.000 145.000 259.000 42 49 56
109.000 144.000 258.000 41 47 53
109.000 144.000 259.000 42 48 55
109.000 145.000 258.000 41 47 54
109.000 145.000 259.000 42 48 55
108.000 146.000 259.000 43 49 56
109.000 146.000 259.000 42 48 54
109.000 147.000 259.000 42 48 55
110.000 144.000 257.000 41 46 53
110.000 145.000 257.000 41 46 52
111.000 144.000 256.000 41 46 53
111.000 144.000 257.000 40 45 52
111.000 145.000 256.000 38 44 51
111.000 145.000 257.000 40 45 52
110.000 144.000 258.000 41 46 53
110.000 145.000 258.000 40 46 52
110.000 146.000 257.000 40 45 52
111.000 146.000 257.000 40 46 52
111.000 147.000 257.000 41 47 53
110.000 146.000 258.000 40 46 53
110.000 147.000 258.000 41 47 54
110.000 147.000 259.000 41 47 54
111.000 147.000 258.000 41 47 53
108.000 144.000 260.000 42 48 56
108.000 145.000 260.000 42 49 56
108.000 146.000 260.000 42 49 56
108.000 147.000 260.000 41 47 55
108.000 147.000 261.000 40 46 54
109.000 148.000 259.000 43 48 54
111.000 148.000 257.000 42 47 54
110.000 148.000 258.000 42 48 54
110.000 148.000 259.000 42 48 54
110.000 149.000 259.000 42 47 54
111.000 148.000 258.000 42 47 54
111.000 149.000 258.000 41 47 54
110.000 150.000 259.000 40 47 54
110.000 151.000 259.000 42 48 55
111.000 150.000 258.000 39 46 54
111.000 150.000 259.000 39 46 54
111.000 151.000 258.000 39 47 54
111.000 151.000 259.000 40 47 55
108.000 148.000 260.000 41 47 53
108.000 148.000 261.000 41 47 54
108.000 149.000 260.000 39 45 52
108.000 149.000 261.000 40 46 53
109.000 148.000 260.000 42 47 54
109.000 149.000 260.000 42 47 53
108.000 150.000 261.000 39 45 53
108.000 151.000 261.000 42 47 55
109.000 150.000 260.000 41 47 54
109.000 150.000 261.000 40 46 53
109.000 151.000 260.000 42 47 53
109.000 151.000 261.000 41 47 53
108.000 151.000 262.000 41 48 55
110.000 149.000 260.000 43 48 54
110.000 150.000 260.000 43 48 55
110.000 151.000 260.000 44 49 55
111.000 151.000 260.000 41 48 56
104.000 144.000 264.000 40 47 55
104.000 145.000 264.000 42 49 57
104.000 146.000 264.000 44 50 58
104.000 147.000 264.000 43 50 58
104.000 148.000 264.000 43 50 58
104.000 149.000 264.000 44 51 59
104.000 150.000 264.000 43 51 60
104.000 151.000 264.000 42 50 59
104.000 151.000 265.000 42 50 59
105.000 151.000 264.000 43 51 60
106.000 152.000 263.000 39 48 57
106.000 153.000 263.000 38 48 58
107.000 152.000 262.000 39 47 55
107.000 152.000 263.000 40 48 56
107.000 153.000 262.000 38 46 55
107.000 153.000 263.000 38 47 56
106.000 154.000 263.000 41 50 59
107.000 154.000 263.000 40 49 58
107.000 155.000 263.000 42 50 59
107.000 156.000 263.000 42 50 59
107.000 157.000 263.000 43 52 60
107.000 158.000 263.000 45 53 61
111.000 152.000 259.000 40 47 54
111.000 153.000 259.000 38 45 53
111.000 154.000 259.000 37 45 53
111.000 155.000 259.000 38 45 53
108.000 152.000 261.000 41 47 54
109.000 152.000 261.000 42 47 54
109.000 153.000 261.000 42 48 55
108.000 152.000 262.000 40 47 55
108.000 153.000 262.000 41 48 56
109.000 153.000 262.000 43 49 56
109.000 154.000 261.000 43 49 56
108.000 154.000 262.000 41 48 57
108.000 155.000 262.000 42 50 58
108.000 155.000 263.000 42 50 58
109.000 154.000 262.000 43 49 57
109.000 155.000 262.000 42 49 57
110.000 152.000 260.000 45 49 55
110.000 152.000 261.000 43 48 54
110.000 153.000 260.000 41 46 52
110.000 153.000 261.000 42 47 54
111.000 152.000 260.000 42 48 56
111.000 153.000 260.000 39 46 53
110.000 154.000 261.000 41 47 54
110.000 155.000 261.000 41 48 55
111.000 154.000 260.000 37 44 52
111.000 155.000 260.000 38 45 53
111.000 155.000 261.000 39 45 53
108.000 156.000 263.000 41 49 58
108.000 157.000 263.000 44 52 60
109.000 156.000 262.000 40 48 56
109.000 157.000 262.000 42 50 58
108.000 158.000 263.000 45 52 61
108.000 159.000 263.000 42 50 59
109.000 158.000 262.000 42 50 58
109.000 158.000 263.000 42 50 58
109.000 159.000 262.000 42 49 57
110.000 156.000 261.000 40 47 55
110.000 157.000 261.000 43 50 58
111.000 156.000 260.000 40 47 55
111.000 156.000 261.000 41 48 55
111.000 157.000 260.000 41 48 55
111.000 157.000 261.000 43 50 57
110.000 157.000 262.000 42 50 58
110.000 158.000 261.000 45 52 59
110.000 159.000 261.000 45 52 60
111.000 158.000 260.000 41 48 56
111.000 158.000 261.000 44 50 58
111.000 159.000 260.000 42 49 57
111.000 159.000 261.000 44 51 59
110.000 158.000 262.000 44 51 59
104.000 152.000 264.000 43 51 60
104.000 152.000 265.000 43 51 59
104.000 153.000 264.000 44 51 60
104.000 153.000 265.000 43 51 59
105.000 152.000 264.000 42 51 60
105.000 153.000 264.000 43 51 60
104.000 154.000 264.000 43 51 60
104.000 154.000 265.000 43 51 60
104.000 155.000 265.000 46 53 61
105.000 154.000 264.000 43 51 61
105.000 155.000 264.000 44 52 61
105.000 155.000 265.000 47 54 63
106.000 153.000 264.000 41 50 60
106.000 154.000 264.000 42 51 60
106.000 155.000 264.000 42 51 60
107.000 155.000 264.000 41 50 59
104.000 156.000 265.000 47 53 61
104.000 157.000 265.000 45 53 61
105.000 156.000 264.000 46 54 62
105.000 156.000 265.000 47 54 63
105.000 157.000 264.000 45 53 61
105.000 157.000 265.000 45 53 61
104.000 158.000 265.000 43 50 58
104.000 159.000 265.000 45 51 59
105.000 158.000 265.000 43 51 59
105.000 159.000 265.000 44 51 60
106.000 156.000 264.000 43 52 61
106.000 157.000 264.000 44 51 61
107.000 156.000 264.000 42 51 60
107.000 157.000 264.000 42 51 60
106.000 158.000 264.000 44 52 61
106.000 158.000 265.000 44 52 60
106.000 159.000 264.000 45 52 61
107.000 158.000 264.000 44 52 61
112.000 143.000 256.000 41 47 54
112.000 144.000 256.000 40 46 53
112.000 145.000 256.000 38 44 52
112.000 146.000 256.000 39 45 52
112.000 147.000 256.000 40 46 53
112.000 147.000 257.000 40 46 53
113.000 146.000 256.000 40 46 53
113.000 147.000 256.000 40 46 54
112.000 148.000 256.000 39 46 53
112.000 148.000 257.000 41 47 54
112.000 149.000 257.000 41 47 54
113.000 148.000 256.000 39 45 52
113.000 149.000 256.000 37 44 51
113.000 149.000 257.000 39 46 53
112.000 149.000 258.000 42 48 55
112.000 150.000 257.000 40 47 54
113.000 150.000 256.000 38 45 52
113.000 150.000 257.000 39 46 53
113.000 151.000 256.000 41 47 55
113.000 151.000 257.000 40 46 54
112.000 150.000 258.000 41 48 55
112.000 151.000 258.000 40 47 55
112.000 151.000 259.000 39 46 54
114.000 150.000 256.000 38 45 52
114.000 151.000 256.000 39 46 54
113.000 152.000 257.000 38 46 53
113.000 153.000 257.000 37 45 53
112.000 152.000 258.000 39 46 54
112.000 152.000 259.000 38 46 54
112.000 153.000 258.000 40 47 55
112.000 153.000 259.000 38 46 54
113.000 152.000 258.000 38 46 54
113.000 153.000 258.000 39 46 54
113.000 154.000 257.000 39 46 54
112.000 154.000 259.000 40 47 55
112.000 155.000 259.000 40 47 55
113.000 154.000 258.000 40 47 55
113.000 155.000 258.000 40 47 54
114.000 152.000 256.000 40 47 54
114.000 153.000 256.000 38 45 53
114.000 153.000 257.000 37 45 52
114.000 154.000 256.000 36 44 52
114.000 154.000 257.000 38 45 53
114.000 155.000 256.000 36 44 52
114.000 155.000 257.000 38 45 53
115.000 154.000 256.000 36 43 51
115.000 155.000 256.000 36 44 51
114.000 155.000 258.000 39 46 54
112.000 156.000 259.000 41 47 55
112.000 157.000 259.000 38 46 54
113.000 156.000 258.000 37 45 53
113.000 156.000 259.000 40 47 55
113.000 157.000 258.000 38 45 53
113.000 157.000 259.000 39 46 54
112.000 158.000 259.000 39 46 54
113.000 158.000 259.000 39 46 54
114.000 156.000 257.000 38 45 53
114.000 157.000 257.000 37 44 52
115.000 156.000 256.000 36 43 51
115.000 156.000 257.000 37 44 52
115.000 157.000 256.000 37 45 52
115.000 157.000 257.000 35 43 51
114.000 156.000 258.000 38 45 53
114.000 157.000 258.000 39 46 53
114.000 158.000 257.000 37 44 52
115.000 158.000 256.000 38 45 52
115.000 158.000 257.000 37 44 52
115.000 159.000 257.000 39 46 53
114.000 158.000 258.000 39 46 54
114.000 159.000 258.000 39 46 54
112.000 157.000 260.000 38 46 53
112.000 158.000 260.000 40 47 54
116.000 157.000 256.000 38 45 53
116.000 158.000 256.000 40 46 54
116.000 159.000 256.000 40 47 54
96.000 160.000 267.000 42 52 62
96.000 161.000 266.000 43 53 63
96.000 161.000 267.000 41 52 62
96.000 162.000 267.000 41 51 61
96.000 163.000 267.000 41 52 62
97.000 162.000 266.000 43 53 63
98.000 162.000 266.000 44 53 63
98.000 163.000 266.000 43 53 63
99.000 163.000 266.000 45 54 63
96.000 164.000 267.000 41 52 62
98.000 164.000 266.000 44 53 63
99.000 164.000 266.000 44 53 63
99.000 165.000 266.000 45 54 64
99.000 166.000 266.000 44 54 64
100.000 163.000 266.000 45 53 63
101.000 162.000 266.000 43 52 62
101.000 163.000 266.000 43 53 62
103.000 160.000 265.000 44 51 59
103.000 161.000 265.000 46 52 60
103.000 162.000 265.000 46 53 60
102.000 162.000 266.000 45 53 61
102.000 163.000 266.000 45 53 63
100.000 164.000 266.000 43 52 62
100.000 165.000 266.000 44 53 63
101.000 164.000 266.000 42 52 62
101.000 165.000 266.000 42 52 62
100.000 166.000 266.000 44 54 64
101.000 166.000 266.000 44 54 64
102.000 164.000 266.000 44 52 62
102.000 165.000 266.000 43 52 62
103.000 164.000 266.000 45 53 62
103.000 165.000 266.000 43 52 61
102.000 166.000 266.000 44 53 63
103.000 166.000 266.000 43 52 62
108.000 160.000 263.000 42 50 58
108.000 161.000 263.000 44 51 59
109.000 160.000 262.000 43 50 58
108.000 162.000 263.000 44 51 58
109.000 163.000 263.000 44 50 58
111.000 160.000 261.000 45 51 58
110.000 160.000 262.000 42 49 57
110.000 161.000 262.000 41 48 56
110.000 164.000 262.000 43 50 57
104.000 161.000 265.000 45 51 59
105.000 161.000 265.000 44 51 59
104.000 162.000 265.000 46 53 61
104.000 163.000 265.000 46 53 62
105.000 162.000 265.000 45 52 60
105.000 163.000 265.000 45 53 61
107.000 160.000 264.000 43 51 59
107.000 161.000 264.000 43 51 59
106.000 162.000 265.000 45 53 61
106.000 163.000 265.000 45 53 61
107.000 162.000 264.000 46 53 60
107.000 163.000 264.000 45 52 60
104.000 164.000 265.000 45 53 62
104.000 165.000 265.000 45 53 62
105.000 164.000 265.000 45 53 61
105.000 165.000 265.000 46 53 62
104.000 165.000 266.000 44 52 61
105.000 166.000 265.000 45 53 61
104.000 166.000 266.000 42 51 60
106.000 164.000 265.000 45 53 61
106.000 165.000 265.000 46 53 62
107.000 164.000 264.000 44 52 60
107.000 164.000 265.000 45 53 61
107.000 165.000 265.000 45 53 61
106.000 166.000 265.000 46 53 62
108.000 161.000 264.000 44 51 59
108.000 162.000 264.000 44 50 58
108.000 163.000 264.000 43 50 58
108.000 164.000 264.000 46 53 61
108.000 165.000 264.000 45 53 62
109.000 164.000 264.000 46 53 61
109.000 165.000 264.000 45 53 61
113.000 162.000 259.000 40 46 54
115.000 161.000 257.000 36 44 51
114.000 162.000 258.000 39 46 54
113.000 165.000 260.000 41 47 54
116.000 160.000 256.000 39 45 53
116.000 161.000 256.000 39 46 53
117.000 160.000 256.000 40 47 54
116.000 162.000 256.000 39 45 53
