ply
format ascii 1.0
element vertex 1356
property float x
property float y
property float z
property uchar red
property uchar green
property uchar blue
end_header
109.000 806.000 206.000 115 121 133
109.000 806.000 207.000 115 121 133
110.000 807.000 205.000 114 120 132
110.000 806.000 206.000 115 122 133
110.000 807.000 206.000 113 120 132
110.000 807.000 207.000 113 120 133
110.000 808.000 206.000 115 123 136
110.000 808.000 207.000 118 125 138
110.000 809.000 206.000 120 128 142
110.000 809.000 207.000 128 136 149
110.000 810.000 207.000 135 142 157
111.000 810.000 207.000 135 143 157
111.000 811.000 207.000 135 143 158
111.000 812.000 206.000 136 144 159
111.000 812.000 207.000 133 142 158
103.000 805.000 222.000 117 123 135
103.000 805.000 223.000 117 123 135
103.000 806.000 223.000 115 121 134
106.000 805.000 215.000 128 134 146
107.000 806.000 213.000 119 126 138
108.000 806.000 211.000 120 127 139
108.000 807.000 212.000 117 124 137
105.000 805.000 217.000 121 128 141
105.000 805.000 218.000 118 125 138
105.000 805.000 219.000 114 120 133
105.000 806.000 219.000 114 121 133
106.000 805.000 216.000 131 137 150
106.000 806.000 216.000 120 128 141
106.000 806.000 217.000 117 124 138
106.000 807.000 217.000 116 123 136
106.000 807.000 218.000 115 122 134
104.000 804.000 220.000 117 125 139
104.000 805.000 220.000 116 124 136
104.000 805.000 221.000 116 123 135
104.000 805.000 222.000 116 123 135
104.000 806.000 220.000 116 122 135
104.000 806.000 221.000 116 122 134
104.000 807.000 221.000 113 120 133
105.000 807.000 220.000 114 121 133
104.000 806.000 222.000 114 121 133
104.000 806.000 223.000 112 119 131
104.000 807.000 222.000 113 120 134
104.000 807.000 223.000 115 123 137
107.000 808.000 215.000 117 125 139
109.000 808.000 208.000 120 127 140
109.000 811.000 211.000 127 134 147
110.000 808.000 208.000 122 129 142
110.000 809.000 208.000 126 134 147
110.000 810.000 208.000 131 139 152
110.000 811.000 208.000 132 140 154
110.000 811.000 209.000 130 138 151
111.000 811.000 208.000 132 140 155
110.000 810.000 210.000 127 134 147
110.000 811.000 210.000 128 135 148
108.000 808.000 213.000 116 123 136
108.000 809.000 214.000 119 127 140
108.000 811.000 213.000 128 136 151
109.000 811.000 212.000 130 137 150
109.000 811.000 213.000 129 138 152
108.000 810.000 214.000 126 134 148
108.000 810.000 215.000 133 141 155
108.000 811.000 214.000 129 138 153
108.000 811.000 215.000 132 139 153
109.000 812.000 211.000 125 132 146
110.000 812.000 209.000 129 138 153
111.000 812.000 208.000 133 143 159
111.000 812.000 209.000 130 140 155
111.000 813.000 208.000 131 141 158
111.000 813.000 209.000 134 144 159
110.000 812.000 210.000 126 134 148
110.000 812.000 211.000 125 133 146
110.000 813.000 210.000 127 135 150
110.000 813.000 211.000 125 132 146
111.000 813.000 210.000 131 140 155
111.000 814.000 208.000 133 142 158
111.000 814.000 209.000 134 143 157
111.000 815.000 209.000 129 137 151
110.000 814.000 211.000 123 130 143
111.000 814.000 210.000 130 138 152
111.000 814.000 211.000 124 131 144
111.000 815.000 210.000 125 132 145
111.000 815.000 211.000 121 128 141
109.000 812.000 212.000 124 132 147
109.000 812.000 213.000 123 133 149
109.000 813.000 212.000 117 126 140
109.000 813.000 213.000 117 125 140
108.000 812.000 214.000 125 135 150
108.000 812.000 215.000 124 131 145
108.000 813.000 215.000 115 123 137
109.000 812.000 214.000 118 128 144
109.000 813.000 214.000 116 125 139
109.000 813.000 215.000 117 125 139
109.000 814.000 213.000 117 124 138
109.000 814.000 214.000 117 125 138
109.000 814.000 215.000 119 126 140
109.000 815.000 215.000 118 126 139
110.000 812.000 212.000 124 132 146
110.000 813.000 212.000 119 127 140
110.000 814.000 212.000 119 126 139
110.000 814.000 213.000 117 125 138
110.000 815.000 212.000 118 125 138
110.000 815.000 213.000 118 125 138
111.000 815.000 212.000 119 126 139
110.000 815.000 214.000 117 124 138
110.000 815.000 215.000 117 125 138
107.000 808.000 216.000 119 127 141
107.000 809.000 216.000 122 130 144
107.000 809.000 217.000 119 127 141
106.000 808.000 218.000 120 126 139
106.000 808.000 219.000 121 127 139
106.000 809.000 219.000 121 128 140
107.000 810.000 216.000 132 138 152
107.000 810.000 217.000 122 130 145
107.000 811.000 216.000 136 143 156
107.000 811.000 217.000 124 133 147
106.000 810.000 219.000 118 125 138
106.000 811.000 219.000 118 125 139
107.000 810.000 218.000 120 128 141
107.000 811.000 218.000 121 128 142
107.000 811.000 219.000 119 127 141
105.000 808.000 221.000 117 125 138
105.000 809.000 221.000 121 129 143
104.000 808.000 222.000 119 127 141
105.000 808.000 222.000 122 130 144
105.000 809.000 222.000 125 134 148
105.000 809.000 223.000 127 135 149
105.000 810.000 222.000 121 130 144
105.000 810.000 223.000 123 131 145
105.000 811.000 222.000 123 132 146
105.000 811.000 223.000 125 133 147
106.000 809.000 220.000 120 127 140
106.000 810.000 220.000 119 126 139
106.000 810.000 221.000 122 130 144
106.000 811.000 220.000 122 130 143
106.000 811.000 221.000 126 135 149
106.000 811.000 222.000 127 135 150
107.000 812.000 216.000 130 137 151
107.000 812.000 217.000 119 127 142
107.000 812.000 218.000 120 127 142
107.000 812.000 219.000 122 130 144
107.000 813.000 218.000 120 128 142
107.000 813.000 219.000 122 129 142
107.000 814.000 219.000 123 129 142
105.000 812.000 223.000 125 133 148
106.000 812.000 220.000 130 137 150
106.000 812.000 221.000 134 142 156
106.000 813.000 221.000 135 143 158
107.000 812.000 220.000 126 133 147
107.000 813.000 220.000 126 133 146
107.000 813.000 221.000 131 139 153
106.000 812.000 222.000 133 141 156
106.000 812.000 223.000 128 136 151
106.000 813.000 222.000 134 143 158
106.000 813.000 223.000 129 137 152
107.000 814.000 220.000 129 135 148
107.000 814.000 221.000 129 137 152
107.000 815.000 220.000 128 135 149
107.000 815.000 221.000 125 132 148
106.000 814.000 223.000 126 134 149
107.000 814.000 222.000 128 137 153
107.000 814.000 223.000 124 132 149
107.000 815.000 222.000 125 133 149
107.000 815.000 223.000 124 132 148
108.000 811.000 216.000 135 141 153
108.000 812.000 216.000 124 132 145
108.000 812.000 217.000 115 123 138
108.000 813.000 216.000 117 125 139
108.000 813.000 217.000 118 126 140
108.000 813.000 218.000 120 127 140
108.000 814.000 216.000 119 126 139
108.000 814.000 217.000 119 126 140
108.000 815.000 217.000 120 127 140
109.000 814.000 216.000 119 126 139
109.000 815.000 216.000 119 127 140
109.000 815.000 217.000 121 128 142
108.000 814.000 218.000 119 125 139
108.000 814.000 219.000 122 129 141
108.000 815.000 218.000 123 129 143
108.000 815.000 219.000 126 132 145
108.000 815.000 220.000 129 135 149
108.000 815.000 221.000 126 133 149
111.000 816.000 210.000 122 129 142
111.000 816.000 211.000 121 128 141
110.000 816.000 213.000 118 125 138
111.000 816.000 212.000 119 126 139
111.000 816.000 213.000 121 127 141
111.000 817.000 212.000 123 130 144
111.000 817.000 213.000 123 130 144
110.000 816.000 214.000 118 126 139
110.000 816.000 215.000 121 129 142
110.000 817.000 214.000 124 131 145
110.000 817.000 215.000 126 134 149
111.000 817.000 214.000 125 132 146
111.000 818.000 212.000 123 131 145
111.000 818.000 213.000 124 132 146
111.000 819.000 213.000 122 130 145
110.000 818.000 215.000 126 136 152
111.000 818.000 214.000 125 134 148
111.000 818.000 215.000 125 136 151
111.000 819.000 214.000 125 135 151
111.000 819.000 215.000 135 145 161
111.000 820.000 215.000 136 145 161
111.000 821.000 215.000 132 140 156
107.000 816.000 222.000 127 135 149
107.000 816.000 223.000 125 134 148
109.000 816.000 216.000 123 131 145
109.000 816.000 217.000 125 134 148
109.000 817.000 217.000 139 148 164
108.000 816.000 218.000 126 133 148
108.000 816.000 219.000 130 137 152
109.000 816.000 218.000 128 136 152
109.000 816.000 219.000 130 139 155
109.000 817.000 218.000 141 151 167
109.000 817.000 219.000 136 145 161
109.000 818.000 218.000 144 154 170
109.000 818.000 219.000 137 147 163
109.000 819.000 219.000 135 145 162
110.000 816.000 216.000 126 134 149
110.000 817.000 216.000 134 143 159
110.000 817.000 217.000 143 152 168
110.000 818.000 216.000 136 147 164
110.000 818.000 217.000 141 152 169
110.000 819.000 216.000 140 152 170
110.000 819.000 217.000 145 156 173
111.000 819.000 216.000 145 155 172
110.000 818.000 218.000 145 155 172
110.000 819.000 218.000 146 156 172
110.000 819.000 219.000 138 148 164
108.000 816.000 220.000 131 138 152
108.000 816.000 221.000 129 137 152
108.000 817.000 220.000 131 138 152
108.000 817.000 221.000 129 137 151
109.000 817.000 220.000 130 138 153
108.000 816.000 222.000 129 137 151
108.000 816.000 223.000 127 136 151
108.000 817.000 222.000 128 136 150
108.000 817.000 223.000 127 136 152
109.000 818.000 220.000 129 137 153
109.000 818.000 221.000 131 139 153
109.000 819.000 220.000 128 136 152
109.000 819.000 221.000 129 137 152
108.000 818.000 222.000 130 137 151
108.000 818.000 223.000 129 137 153
109.000 818.000 222.000 130 138 152
109.000 819.000 222.000 127 135 150
109.000 819.000 223.000 130 139 153
110.000 820.000 217.000 150 159 175
111.000 820.000 216.000 141 151 167
111.000 820.000 217.000 144 153 169
111.000 821.000 216.000 132 139 155
111.000 821.000 217.000 132 140 155
110.000 820.000 218.000 144 153 168
110.000 820.000 219.000 138 146 161
110.000 821.000 219.000 132 140 155
111.000 820.000 218.000 143 152 167
111.000 821.000 218.000 133 141 155
111.000 821.000 219.000 132 140 155
111.000 822.000 217.000 130 136 151
111.000 822.000 218.000 131 138 152
111.000 822.000 219.000 130 138 152
111.000 823.000 218.000 131 138 152
111.000 823.000 219.000 128 135 150
109.000 820.000 220.000 128 136 151
109.000 820.000 221.000 125 133 148
109.000 820.000 222.000 126 135 149
109.000 820.000 223.000 133 141 155
110.000 820.000 220.000 129 136 152
110.000 820.000 221.000 126 134 148
110.000 821.000 220.000 129 137 152
110.000 821.000 221.000 129 137 151
111.000 821.000 220.000 131 139 153
110.000 820.000 222.000 130 137 151
110.000 821.000 222.000 129 136 151
110.000 821.000 223.000 124 131 146
110.000 822.000 221.000 128 135 150
111.000 822.000 220.000 128 135 150
111.000 822.000 221.000 125 133 149
111.000 823.000 220.000 127 135 151
111.000 823.000 221.000 127 136 152
110.000 822.000 222.000 126 133 149
110.000 822.000 223.000 122 129 145
110.000 823.000 223.000 126 134 149
111.000 823.000 222.000 128 136 151
111.000 823.000 223.000 128 136 151
111.000 824.000 221.000 134 143 159
111.000 824.000 222.000 135 142 157
111.000 824.000 223.000 128 135 150
111.000 825.000 223.000 123 130 144
112.000 813.000 205.000 129 138 153
113.000 813.000 205.000 127 136 151
112.000 812.000 206.000 133 142 157
112.000 812.000 207.000 134 143 159
112.000 813.000 206.000 130 139 154
112.000 813.000 207.000 130 138 155
113.000 814.000 205.000 125 132 147
113.000 815.000 204.000 118 125 139
113.000 815.000 205.000 126 133 146
112.000 814.000 206.000 128 135 150
112.000 814.000 207.000 126 135 150
112.000 815.000 207.000 130 138 154
113.000 814.000 206.000 127 134 148
113.000 815.000 206.000 128 135 150
113.000 815.000 207.000 132 139 155
114.000 815.000 204.000 118 125 138
112.000 813.000 208.000 127 136 153
112.000 814.000 208.000 131 140 155
112.000 815.000 208.000 132 140 155
112.000 815.000 209.000 129 136 150
113.000 816.000 205.000 131 138 151
112.000 816.000 207.000 134 142 156
113.000 816.000 206.000 133 140 154
113.000 816.000 207.000 136 143 157
113.000 817.000 206.000 133 139 153
113.000 817.000 207.000 130 136 151
113.000 818.000 207.000 130 137 151
114.000 816.000 204.000 122 129 143
114.000 816.000 205.000 128 135 149
114.000 817.000 205.000 130 136 150
114.000 817.000 206.000 133 139 153
114.000 818.000 205.000 130 137 150
114.000 819.000 205.000 133 140 153
115.000 818.000 205.000 130 136 149
115.000 819.000 205.000 134 141 155
114.000 818.000 206.000 132 139 153
114.000 818.000 207.000 132 139 154
114.000 819.000 206.000 139 146 160
114.000 819.000 207.000 139 146 160
114.000 820.000 206.000 141 149 163
114.000 820.000 207.000 141 148 163
114.000 821.000 207.000 134 141 156
115.000 820.000 206.000 138 146 160
115.000 821.000 206.000 135 143 158
115.000 821.000 207.000 134 141 156
115.000 822.000 206.000 137 144 159
115.000 822.000 207.000 134 142 156
115.000 823.000 207.000 133 140 154
116.000 822.000 206.000 136 143 157
116.000 823.000 206.000 136 143 156
116.000 823.000 207.000 133 139 153
116.000 824.000 206.000 134 141 156
116.000 824.000 207.000 131 138 151
116.000 825.000 207.000 132 139 152
117.000 825.000 207.000 132 139 153
117.000 826.000 207.000 131 138 152
112.000 816.000 208.000 130 138 152
112.000 816.000 209.000 126 133 147
112.000 817.000 209.000 125 132 145
113.000 816.000 208.000 132 139 153
113.000 817.000 208.000 128 134 148
113.000 817.000 209.000 126 133 147
112.000 816.000 210.000 123 131 144
112.000 816.000 211.000 122 129 143
112.000 817.000 210.000 121 128 142
112.000 817.000 211.000 121 129 143
113.000 818.000 208.000 128 135 149
113.000 818.000 209.000 127 134 147
113.000 819.000 208.000 130 137 151
113.000 819.000 209.000 127 134 148
112.000 818.000 210.000 123 131 145
112.000 818.000 211.000 122 130 144
112.000 819.000 211.000 124 132 145
113.000 818.000 210.000 126 133 146
113.000 819.000 210.000 124 131 145
113.000 819.000 211.000 123 130 144
114.000 819.000 208.000 134 142 156
112.000 817.000 212.000 121 129 142
112.000 818.000 212.000 122 129 143
112.000 819.000 212.000 123 130 144
112.000 819.000 213.000 122 130 145
112.000 819.000 214.000 125 135 150
113.000 820.000 209.000 124 131 144
113.000 820.000 210.000 121 128 141
113.000 820.000 211.000 120 127 139
113.000 821.000 210.000 121 128 141
113.000 821.000 211.000 121 127 141
113.000 822.000 211.000 129 136 149
114.000 820.000 208.000 134 141 155
114.000 820.000 209.000 125 132 145
114.000 821.000 208.000 129 136 150
114.000 821.000 209.000 124 131 145
115.000 821.000 208.000 130 138 152
114.000 821.000 210.000 121 129 142
114.000 822.000 208.000 128 135 149
114.000 822.000 209.000 125 133 146
114.000 823.000 209.000 127 134 148
115.000 822.000 208.000 130 137 151
115.000 823.000 208.000 129 136 150
115.000 823.000 209.000 125 132 146
114.000 822.000 210.000 124 131 145
114.000 822.000 211.000 127 134 147
114.000 823.000 210.000 127 133 147
114.000 823.000 211.000 126 133 146
115.000 823.000 210.000 125 131 145
112.000 820.000 212.000 120 127 141
112.000 820.000 213.000 120 128 143
112.000 821.000 213.000 123 131 144
113.000 820.000 212.000 119 126 139
113.000 821.000 212.000 121 128 141
113.000 821.000 213.000 123 131 144
112.000 820.000 214.000 127 135 151
112.000 820.000 215.000 130 138 154
112.000 821.000 214.000 125 133 148
112.000 821.000 215.000 129 137 152
113.000 822.000 212.000 130 136 150
113.000 822.000 213.000 129 136 150
113.000 823.000 212.000 133 140 154
113.000 823.000 213.000 132 139 153
112.000 822.000 214.000 126 134 148
112.000 822.000 215.000 128 135 149
112.000 823.000 215.000 129 136 150
113.000 822.000 214.000 129 136 150
113.000 823.000 214.000 130 137 150
113.000 823.000 215.000 129 136 150
114.000 823.000 212.000 126 133 147
114.000 823.000 213.000 128 135 148
112.000 822.000 216.000 129 135 150
112.000 822.000 217.000 131 137 151
112.000 823.000 216.000 129 136 150
112.000 823.000 217.000 129 136 150
113.000 823.000 216.000 128 135 149
112.000 823.000 218.000 130 136 151
112.000 823.000 219.000 128 136 151
112.000 823.000 220.000 129 138 153
115.000 824.000 208.000 125 132 146
115.000 824.000 209.000 123 130 144
115.000 825.000 209.000 125 132 146
114.000 824.000 211.000 120 128 142
115.000 824.000 210.000 122 129 143
115.000 824.000 211.000 121 129 143
115.000 825.000 210.000 123 130 144
115.000 825.000 211.000 122 130 144
115.000 826.000 210.000 123 132 146
115.000 826.000 211.000 124 133 149
113.000 824.000 214.000 126 133 146
113.000 824.000 215.000 126 133 147
113.000 825.000 215.000 126 134 149
114.000 824.000 212.000 122 130 144
114.000 824.000 213.000 126 133 146
114.000 825.000 212.000 123 131 145
114.000 825.000 213.000 125 132 145
115.000 825.000 212.000 123 132 147
114.000 824.000 214.000 125 132 145
114.000 825.000 214.000 126 133 148
114.000 825.000 215.000 127 135 149
114.000 826.000 213.000 127 135 149
115.000 826.000 212.000 130 140 156
115.000 826.000 213.000 130 140 155
115.000 827.000 212.000 140 150 166
115.000 827.000 213.000 140 149 165
114.000 826.000 214.000 129 138 152
114.000 826.000 215.000 133 141 156
114.000 827.000 215.000 134 143 158
115.000 826.000 214.000 131 139 155
115.000 827.000 214.000 134 143 159
115.000 827.000 215.000 133 141 157
115.000 828.000 214.000 136 144 159
115.000 828.000 215.000 131 138 154
115.000 829.000 215.000 134 141 155
116.000 824.000 208.000 127 134 147
116.000 825.000 208.000 128 135 148
116.000 825.000 209.000 125 132 146
116.000 826.000 208.000 126 134 147
116.000 826.000 209.000 124 133 148
116.000 827.000 209.000 130 140 156
117.000 826.000 208.000 126 134 148
117.000 827.000 208.000 126 136 151
117.000 827.000 209.000 128 138 154
116.000 826.000 210.000 126 135 150
116.000 826.000 211.000 131 140 156
116.000 827.000 210.000 133 143 159
116.000 827.000 211.000 135 145 161
117.000 827.000 210.000 133 143 159
118.000 827.000 208.000 130 139 154
116.000 827.000 212.000 139 149 166
117.000 828.000 208.000 129 139 154
117.000 828.000 209.000 129 138 153
117.000 829.000 209.000 127 134 149
116.000 828.000 211.000 134 143 159
117.000 828.000 210.000 130 139 154
117.000 828.000 211.000 131 140 155
117.000 829.000 210.000 126 134 148
117.000 829.000 211.000 125 134 149
117.000 830.000 211.000 120 128 144
118.000 830.000 211.000 122 130 146
116.000 828.000 212.000 136 146 163
116.000 828.000 213.000 140 149 164
116.000 829.000 212.000 126 136 153
116.000 829.000 213.000 125 134 150
117.000 829.000 212.000 122 132 148
116.000 828.000 214.000 134 142 156
116.000 829.000 214.000 129 137 151
116.000 829.000 215.000 132 139 152
117.000 830.000 212.000 123 132 147
117.000 830.000 213.000 129 137 152
117.000 831.000 213.000 129 137 151
116.000 830.000 214.000 130 138 152
116.000 830.000 215.000 130 138 152
117.000 830.000 214.000 131 138 153
117.000 830.000 215.000 129 137 151
117.000 831.000 214.000 130 138 153
117.000 831.000 215.000 129 136 152
118.000 830.000 212.000 125 133 147
118.000 831.000 212.000 127 135 149
118.000 831.000 213.000 131 139 153
112.000 824.000 217.000 129 136 150
113.000 824.000 216.000 127 135 149
113.000 824.000 217.000 128 136 150
113.000 825.000 216.000 129 136 151
113.000 825.000 217.000 129 137 151
112.000 824.000 218.000 131 138 152
112.000 824.000 219.000 132 139 155
112.000 825.000 219.000 136 144 159
113.000 825.000 218.000 130 138 152
113.000 825.000 219.000 137 144 160
113.000 826.000 216.000 134 142 156
113.000 826.000 217.000 134 142 157
113.000 826.000 218.000 136 143 160
113.000 826.000 219.000 144 152 167
113.000 827.000 219.000 139 148 164
114.000 826.000 216.000 136 144 159
114.000 826.000 217.000 137 145 160
114.000 827.000 216.000 134 142 158
114.000 827.000 217.000 135 145 161
115.000 827.000 216.000 132 141 157
114.000 826.000 218.000 136 144 161
114.000 827.000 218.000 137 147 162
114.000 827.000 219.000 139 148 164
112.000 824.000 220.000 137 145 161
112.000 824.000 221.000 136 146 161
112.000 825.000 220.000 142 150 166
112.000 825.000 221.000 140 149 165
112.000 824.000 222.000 132 140 156
112.000 825.000 222.000 135 144 159
112.000 825.000 223.000 127 134 148
112.000 826.000 221.000 150 158 172
113.000 826.000 220.000 152 160 176
113.000 826.000 221.000 150 157 172
113.000 827.000 220.000 142 150 165
113.000 827.000 221.000 136 144 159
112.000 826.000 222.000 138 145 159
112.000 826.000 223.000 126 133 147
112.000 827.000 223.000 122 129 143
113.000 826.000 222.000 141 148 162
113.000 827.000 222.000 131 139 153
113.000 827.000 223.000 123 131 145
114.000 827.000 220.000 140 148 164
114.000 828.000 217.000 147 156 171
115.000 828.000 216.000 134 143 159
115.000 828.000 217.000 145 153 169
115.000 829.000 216.000 136 144 159
115.000 829.000 217.000 143 151 166
114.000 828.000 218.000 148 157 173
114.000 828.000 219.000 143 152 167
114.000 829.000 219.000 136 143 159
115.000 828.000 218.000 151 159 175
115.000 829.000 218.000 145 153 168
115.000 829.000 219.000 139 146 162
115.000 830.000 218.000 140 147 162
115.000 830.000 219.000 136 143 158
113.000 828.000 222.000 129 137 152
113.000 828.000 223.000 122 131 145
114.000 828.000 220.000 135 144 159
114.000 828.000 221.000 132 140 155
114.000 829.000 220.000 131 139 155
114.000 829.000 221.000 131 139 152
115.000 829.000 220.000 132 140 155
114.000 828.000 222.000 128 135 150
114.000 829.000 222.000 129 137 150
114.000 829.000 223.000 123 131 146
115.000 830.000 220.000 132 140 155
115.000 830.000 221.000 132 139 153
115.000 831.000 221.000 130 138 153
114.000 830.000 222.000 130 137 151
114.000 830.000 223.000 125 133 147
115.000 830.000 222.000 129 137 151
115.000 830.000 223.000 125 134 148
115.000 831.000 222.000 128 137 153
115.000 831.000 223.000 127 137 153
116.000 829.000 216.000 135 142 156
116.000 830.000 216.000 131 138 153
116.000 830.000 217.000 135 142 156
116.000 831.000 217.000 131 138 153
117.000 831.000 216.000 129 136 152
117.000 831.000 217.000 128 135 150
116.000 830.000 218.000 137 143 158
116.000 830.000 219.000 133 141 156
116.000 831.000 218.000 129 136 151
116.000 831.000 219.000 129 137 152
116.000 830.000 220.000 132 139 154
116.000 831.000 220.000 132 139 155
116.000 831.000 221.000 131 139 155
116.000 831.000 222.000 130 139 155
101.000 803.000 228.000 117 125 140
102.000 804.000 225.000 112 119 132
103.000 805.000 224.000 113 120 133
103.000 805.000 225.000 113 120 133
102.000 804.000 226.000 112 119 132
102.000 804.000 227.000 110 118 132
102.000 805.000 226.000 113 120 133
102.000 805.000 227.000 113 121 134
103.000 806.000 225.000 115 123 135
102.000 806.000 227.000 115 122 135
103.000 806.000 226.000 117 124 137
103.000 806.000 227.000 117 124 137
103.000 807.000 226.000 119 126 139
103.000 807.000 227.000 116 122 135
101.000 804.000 228.000 106 115 130
101.000 804.000 229.000 106 116 130
101.000 804.000 230.000 115 124 139
101.000 804.000 231.000 124 133 148
102.000 804.000 228.000 108 117 131
102.000 805.000 228.000 114 122 135
102.000 805.000 229.000 117 124 137
102.000 806.000 228.000 115 122 135
102.000 807.000 229.000 112 119 131
103.000 807.000 228.000 115 121 133
103.000 807.000 229.000 113 120 132
100.000 802.000 235.000 132 140 154
101.000 803.000 234.000 129 138 153
100.000 802.000 236.000 129 136 151
100.000 802.000 237.000 126 134 148
101.000 803.000 236.000 130 138 152
102.000 805.000 233.000 127 135 149
102.000 807.000 236.000 124 132 146
103.000 808.000 227.000 115 121 134
103.000 808.000 228.000 114 121 133
103.000 808.000 229.000 116 122 135
103.000 809.000 228.000 118 125 138
103.000 809.000 229.000 120 128 141
103.000 808.000 230.000 120 127 140
103.000 808.000 231.000 125 133 147
103.000 809.000 230.000 127 135 148
103.000 809.000 231.000 133 141 155
103.000 810.000 231.000 126 134 149
102.000 808.000 232.000 121 129 143
102.000 808.000 233.000 122 130 145
103.000 808.000 232.000 127 135 150
103.000 809.000 232.000 133 141 156
103.000 809.000 233.000 130 138 152
102.000 808.000 234.000 124 132 146
102.000 808.000 235.000 126 134 148
103.000 808.000 234.000 128 135 149
103.000 809.000 234.000 128 136 150
103.000 809.000 235.000 127 135 150
103.000 810.000 232.000 126 135 149
103.000 810.000 233.000 126 134 149
103.000 810.000 234.000 126 134 149
103.000 810.000 235.000 129 137 152
103.000 811.000 234.000 128 136 152
103.000 811.000 235.000 132 141 156
102.000 808.000 236.000 125 133 147
103.000 809.000 236.000 127 134 149
102.000 808.000 238.000 126 134 148
102.000 808.000 239.000 129 136 151
103.000 809.000 238.000 125 132 146
103.000 809.000 239.000 123 130 145
103.000 810.000 236.000 131 140 156
103.000 810.000 237.000 133 142 156
103.000 811.000 236.000 136 145 161
103.000 811.000 237.000 138 147 162
103.000 810.000 238.000 130 137 152
103.000 810.000 239.000 124 132 146
104.000 808.000 226.000 117 125 138
104.000 808.000 227.000 115 122 135
104.000 809.000 226.000 117 125 139
104.000 809.000 227.000 116 123 136
104.000 810.000 224.000 124 132 147
104.000 810.000 225.000 121 130 144
105.000 810.000 224.000 124 133 147
105.000 810.000 225.000 123 131 146
105.000 811.000 224.000 125 134 148
105.000 811.000 225.000 126 134 149
104.000 810.000 226.000 120 128 142
104.000 810.000 227.000 121 128 141
104.000 811.000 227.000 126 133 147
105.000 811.000 226.000 124 132 147
105.000 811.000 227.000 125 132 147
104.000 809.000 228.000 118 125 137
104.000 809.000 229.000 120 126 139
104.000 810.000 228.000 120 126 139
104.000 810.000 229.000 118 126 140
104.000 811.000 228.000 123 130 143
104.000 811.000 229.000 119 127 142
105.000 811.000 228.000 122 130 144
104.000 810.000 230.000 120 129 143
104.000 810.000 231.000 123 132 146
104.000 811.000 230.000 120 129 144
104.000 811.000 231.000 125 134 148
105.000 812.000 224.000 125 133 147
105.000 812.000 225.000 125 133 147
105.000 812.000 226.000 126 134 148
105.000 812.000 227.000 125 133 147
105.000 813.000 226.000 126 133 147
105.000 813.000 227.000 124 131 144
106.000 812.000 224.000 125 132 147
106.000 813.000 224.000 125 132 147
106.000 813.000 225.000 125 132 146
106.000 813.000 226.000 125 132 145
106.000 813.000 227.000 123 130 143
106.000 814.000 224.000 123 130 144
106.000 814.000 225.000 121 129 142
106.000 815.000 224.000 122 130 145
106.000 815.000 225.000 121 129 144
107.000 815.000 224.000 122 130 146
107.000 815.000 225.000 122 131 147
106.000 814.000 226.000 122 129 142
106.000 814.000 227.000 120 127 140
106.000 815.000 226.000 124 132 146
106.000 815.000 227.000 124 131 144
105.000 812.000 228.000 121 129 143
105.000 812.000 229.000 119 127 142
105.000 813.000 228.000 120 128 142
105.000 813.000 229.000 120 129 143
104.000 812.000 230.000 123 131 146
104.000 812.000 231.000 125 133 148
105.000 812.000 230.000 123 131 146
105.000 812.000 231.000 126 134 148
105.000 813.000 230.000 125 133 147
105.000 813.000 231.000 128 135 149
105.000 814.000 229.000 122 130 145
105.000 814.000 230.000 126 133 147
105.000 814.000 231.000 126 133 148
106.000 814.000 228.000 119 127 142
106.000 814.000 229.000 121 129 144
106.000 815.000 228.000 122 129 143
106.000 815.000 229.000 121 129 143
106.000 814.000 230.000 124 132 146
106.000 815.000 230.000 123 131 146
106.000 815.000 231.000 126 133 148
104.000 810.000 232.000 125 134 148
104.000 811.000 232.000 127 136 151
104.000 811.000 233.000 129 137 151
104.000 811.000 234.000 128 136 150
104.000 811.000 235.000 129 138 153
104.000 811.000 236.000 129 139 155
104.000 812.000 232.000 127 134 149
104.000 812.000 233.000 126 134 149
105.000 812.000 232.000 127 134 148
105.000 813.000 232.000 127 134 148
105.000 813.000 233.000 126 133 146
104.000 812.000 234.000 126 134 148
104.000 812.000 235.000 126 135 149
104.000 813.000 234.000 126 133 147
104.000 813.000 235.000 125 134 148
105.000 813.000 234.000 125 133 147
105.000 813.000 235.000 126 134 148
105.000 814.000 232.000 126 133 147
105.000 814.000 233.000 126 133 147
105.000 815.000 232.000 127 134 148
105.000 815.000 233.000 129 137 151
105.000 814.000 234.000 127 135 149
105.000 814.000 235.000 125 134 150
105.000 815.000 234.000 135 143 158
105.000 815.000 235.000 134 144 159
106.000 815.000 232.000 129 136 150
104.000 812.000 236.000 125 134 149
104.000 813.000 236.000 124 132 147
104.000 813.000 237.000 122 130 145
104.000 812.000 238.000 119 127 141
104.000 812.000 239.000 117 124 138
104.000 813.000 238.000 120 127 141
104.000 813.000 239.000 119 126 139
105.000 813.000 239.000 120 128 140
105.000 814.000 236.000 125 133 149
105.000 814.000 237.000 126 134 148
105.000 815.000 236.000 141 149 164
105.000 815.000 237.000 138 146 160
105.000 814.000 238.000 123 131 145
105.000 814.000 239.000 121 128 141
105.000 815.000 238.000 128 135 149
105.000 815.000 239.000 122 128 142
101.000 801.000 242.000 125 132 146
101.000 801.000 243.000 124 131 146
101.000 802.000 241.000 128 135 149
102.000 803.000 242.000 132 141 156
102.000 803.000 243.000 129 137 153
102.000 802.000 244.000 123 131 145
103.000 805.000 243.000 139 150 166
103.000 807.000 242.000 141 150 167
103.000 804.000 245.000 120 128 143
103.000 809.000 240.000 121 128 143
103.000 808.000 242.000 128 136 152
104.000 807.000 244.000 121 128 142
104.000 807.000 245.000 119 127 140
104.000 806.000 246.000 117 123 137
104.000 808.000 241.000 120 127 143
104.000 809.000 241.000 120 126 140
104.000 808.000 242.000 121 127 143
104.000 808.000 243.000 121 128 142
104.000 809.000 242.000 119 126 139
104.000 809.000 243.000 119 125 138
104.000 810.000 241.000 122 128 141
104.000 811.000 241.000 121 127 140
104.000 810.000 242.000 121 127 140
105.000 811.000 242.000 113 120 133
105.000 811.000 243.000 111 119 132
104.000 808.000 244.000 121 127 140
104.000 809.000 244.000 121 127 140
105.000 809.000 245.000 116 123 136
105.000 810.000 244.000 114 122 136
105.000 810.000 247.000 114 122 137
105.000 811.000 246.000 118 127 141
105.000 811.000 247.000 115 124 139
105.000 812.000 241.000 115 121 134
105.000 813.000 240.000 119 126 138
105.000 813.000 241.000 115 121 133
105.000 812.000 243.000 107 114 126
105.000 814.000 240.000 119 125 137
105.000 814.000 241.000 112 118 130
105.000 815.000 240.000 115 121 134
105.000 814.000 243.000 108 116 129
105.000 815.000 243.000 112 121 135
105.000 812.000 245.000 124 132 146
105.000 813.000 245.000 123 130 145
105.000 812.000 246.000 122 131 146
106.000 812.000 246.000 124 133 147
106.000 812.000 247.000 124 132 147
106.000 813.000 246.000 125 133 147
106.000 813.000 247.000 128 135 149
107.000 813.000 247.000 132 140 153
106.000 814.000 245.000 122 131 145
106.000 815.000 244.000 123 132 146
106.000 815.000 245.000 127 135 150
107.000 815.000 245.000 134 142 157
106.000 814.000 246.000 126 134 149
107.000 814.000 246.000 130 138 153
107.000 814.000 247.000 132 140 154
107.000 815.000 246.000 133 141 156
108.000 814.000 247.000 127 134 149
105.000 810.000 248.000 113 121 135
106.000 811.000 248.000 118 127 141
106.000 812.000 248.000 120 129 144
107.000 812.000 248.000 131 139 153
107.000 816.000 224.000 128 137 152
107.000 816.000 225.000 136 145 161
107.000 817.000 225.000 138 148 164
106.000 816.000 227.000 133 140 154
107.000 816.000 226.000 138 147 162
107.000 816.000 227.000 136 144 159
107.000 817.000 226.000 133 144 161
107.000 817.000 227.000 129 139 156
107.000 818.000 226.000 131 142 159
107.000 818.000 227.000 134 144 160
106.000 816.000 228.000 127 135 148
106.000 816.000 229.000 125 133 147
107.000 816.000 228.000 126 135 150
107.000 816.000 229.000 124 133 148
107.000 817.000 228.000 125 134 151
107.000 817.000 229.000 124 134 151
106.000 816.000 230.000 127 135 149
106.000 816.000 231.000 129 136 149
106.000 817.000 231.000 127 134 148
107.000 816.000 230.000 126 134 149
107.000 817.000 230.000 127 135 151
107.000 817.000 231.000 126 134 148
107.000 818.000 228.000 135 143 159
107.000 818.000 229.000 136 145 162
107.000 819.000 229.000 138 148 165
107.000 818.000 230.000 132 141 157
107.000 818.000 231.000 126 134 149
107.000 819.000 230.000 135 144 161
107.000 819.000 231.000 133 141 157
108.000 817.000 224.000 134 143 159
108.000 817.000 225.000 136 146 163
108.000 818.000 224.000 130 140 156
108.000 818.000 225.000 133 144 161
108.000 819.000 224.000 132 141 156
108.000 819.000 225.000 136 146 162
109.000 819.000 224.000 140 149 164
109.000 819.000 225.000 135 143 158
108.000 818.000 226.000 135 145 162
108.000 818.000 227.000 136 146 163
108.000 819.000 226.000 131 142 159
108.000 819.000 227.000 130 141 159
108.000 819.000 228.000 133 144 161
108.000 819.000 229.000 136 147 164
108.000 819.000 230.000 140 151 168
108.000 819.000 231.000 134 143 159
109.000 820.000 224.000 134 141 156
109.000 820.000 225.000 127 135 149
109.000 821.000 224.000 120 128 143
109.000 821.000 225.000 121 130 144
108.000 820.000 227.000 123 134 152
109.000 820.000 226.000 124 132 148
109.000 820.000 227.000 123 133 149
109.000 821.000 226.000 122 131 146
109.000 821.000 227.000 127 136 152
109.000 822.000 226.000 128 136 152
109.000 822.000 227.000 131 140 156
110.000 821.000 224.000 120 128 143
110.000 821.000 225.000 120 129 143
110.000 822.000 224.000 122 130 146
110.000 822.000 225.000 126 134 149
110.000 823.000 224.000 126 134 148
110.000 823.000 225.000 127 134 149
111.000 823.000 224.000 127 135 149
110.000 822.000 226.000 129 137 152
110.000 822.000 227.000 129 137 153
110.000 823.000 226.000 126 134 149
110.000 823.000 227.000 125 133 149
108.000 820.000 228.000 130 142 159
108.000 820.000 229.000 139 151 169
108.000 821.000 229.000 135 147 166
109.000 821.000 228.000 135 145 161
109.000 821.000 229.000 136 147 166
108.000 820.000 230.000 135 147 166
108.000 820.000 231.000 128 139 156
108.000 821.000 230.000 125 136 157
108.000 821.000 231.000 125 134 152
109.000 821.000 230.000 127 139 159
109.000 822.000 228.000 137 147 163
109.000 822.000 229.000 134 145 161
109.000 823.000 228.000 129 138 154
109.000 823.000 229.000 128 136 152
109.000 822.000 230.000 126 134 152
109.000 822.000 231.000 125 133 148
109.000 823.000 230.000 125 133 149
109.000 823.000 231.000 125 133 147
110.000 823.000 228.000 127 136 151
110.000 823.000 229.000 127 135 151
110.000 823.000 230.000 126 134 149
106.000 816.000 232.000 130 136 150
106.000 816.000 233.000 133 141 155
106.000 817.000 232.000 129 135 149
106.000 817.000 233.000 128 135 149
107.000 817.000 232.000 127 134 147
106.000 816.000 234.000 137 145 159
106.000 816.000 235.000 137 145 160
106.000 817.000 234.000 130 138 152
106.000 817.000 235.000 132 140 154
106.000 818.000 233.000 126 133 147
107.000 818.000 232.000 125 132 145
107.000 818.000 233.000 125 132 145
107.000 819.000 232.000 125 133 147
107.000 819.000 233.000 122 129 144
106.000 818.000 234.000 125 133 147
106.000 818.000 235.000 117 125 139
107.000 818.000 234.000 120 128 142
107.000 819.000 234.000 118 126 140
107.000 819.000 235.000 115 123 137
105.000 816.000 236.000 145 153 168
106.000 816.000 236.000 143 151 166
106.000 816.000 237.000 139 146 160
106.000 817.000 236.000 130 138 153
106.000 817.000 237.000 124 132 147
106.000 816.000 238.000 122 130 144
106.000 816.000 239.000 113 121 133
106.000 817.000 238.000 112 121 134
106.000 817.000 239.000 110 117 130
106.000 818.000 236.000 114 122 136
107.000 819.000 236.000 114 122 136
107.000 819.000 238.000 115 123 136
107.000 819.000 239.000 117 123 136
107.000 820.000 233.000 121 129 143
107.000 820.000 234.000 118 127 141
107.000 820.000 235.000 118 126 140
107.000 820.000 236.000 118 126 139
107.000 821.000 236.000 122 129 143
108.000 819.000 232.000 128 136 152
108.000 820.000 232.000 124 134 149
108.000 820.000 233.000 121 130 145
108.000 821.000 232.000 123 132 148
108.000 821.000 233.000 121 130 144
108.000 820.000 234.000 119 128 142
108.000 821.000 234.000 121 129 143
108.000 821.000 235.000 122 130 144
108.000 822.000 233.000 123 131 145
109.000 822.000 232.000 124 133 147
109.000 822.000 233.000 124 132 146
109.000 823.000 232.000 123 131 145
109.000 823.000 233.000 123 130 145
108.000 822.000 234.000 124 132 145
108.000 822.000 235.000 125 133 147
109.000 822.000 234.000 123 131 145
109.000 823.000 234.000 123 131 145
109.000 823.000 235.000 127 135 150
108.000 821.000 236.000 123 131 144
108.000 820.000 239.000 126 133 147
108.000 821.000 239.000 132 140 155
108.000 822.000 236.000 126 135 150
109.000 823.000 236.000 132 141 158
108.000 822.000 238.000 142 151 168
109.000 822.000 239.000 140 151 167
111.000 824.000 224.000 122 130 144
111.000 824.000 225.000 121 128 141
111.000 825.000 224.000 120 128 141
111.000 825.000 225.000 123 130 143
110.000 824.000 226.000 119 128 142
110.000 824.000 227.000 123 132 146
111.000 824.000 226.000 119 128 143
111.000 824.000 227.000 124 134 149
111.000 825.000 226.000 124 132 146
111.000 825.000 227.000 133 141 156
111.000 826.000 226.000 127 134 149
111.000 826.000 227.000 137 145 159
110.000 824.000 228.000 130 140 155
110.000 824.000 229.000 131 140 155
110.000 825.000 229.000 131 139 154
111.000 825.000 228.000 135 144 159
111.000 825.000 229.000 132 141 156
110.000 824.000 230.000 129 136 151
110.000 824.000 231.000 127 134 148
110.000 825.000 230.000 128 136 151
110.000 825.000 231.000 128 136 151
111.000 825.000 230.000 130 138 152
111.000 826.000 228.000 138 146 162
111.000 826.000 229.000 134 142 157
111.000 827.000 228.000 131 140 155
111.000 827.000 229.000 133 141 156
111.000 826.000 230.000 131 139 154
111.000 826.000 231.000 131 139 154
111.000 827.000 230.000 133 141 156
111.000 827.000 231.000 135 143 159
109.000 824.000 233.000 124 131 146
109.000 824.000 234.000 126 134 148
109.000 824.000 235.000 130 139 154
110.000 824.000 232.000 126 133 148
110.000 824.000 233.000 125 133 147
110.000 825.000 232.000 128 135 150
110.000 825.000 233.000 129 137 152
110.000 824.000 234.000 129 138 152
110.000 824.000 235.000 135 144 159
110.000 825.000 234.000 133 142 157
110.000 825.000 235.000 137 145 161
110.000 826.000 232.000 129 138 153
110.000 826.000 233.000 130 139 154
111.000 826.000 232.000 132 141 156
111.000 826.000 233.000 131 140 156
111.000 827.000 232.000 139 147 162
111.000 827.000 233.000 140 148 163
110.000 826.000 234.000 131 140 155
110.000 826.000 235.000 133 141 157
111.000 826.000 234.000 132 141 157
111.000 826.000 235.000 135 143 158
111.000 827.000 234.000 138 147 162
111.000 827.000 235.000 137 146 161
109.000 824.000 236.000 138 148 164
109.000 824.000 237.000 148 158 175
110.000 824.000 236.000 142 152 168
110.000 825.000 236.000 141 150 166
110.000 825.000 237.000 145 155 171
110.000 826.000 236.000 135 144 159
110.000 826.000 237.000 139 148 164
111.000 826.000 236.000 137 145 160
111.000 826.000 237.000 138 146 162
111.000 827.000 236.000 136 144 159
111.000 827.000 237.000 137 144 160
110.000 826.000 238.000 142 149 165
111.000 826.000 239.000 139 146 162
111.000 827.000 238.000 137 146 161
111.000 827.000 239.000 137 145 160
111.000 828.000 233.000 146 154 170
111.000 828.000 234.000 143 152 168
111.000 828.000 235.000 139 148 163
111.000 828.000 236.000 137 145 160
106.000 816.000 240.000 112 120 133
106.000 817.000 240.000 112 119 132
107.000 819.000 240.000 122 128 141
107.000 819.000 242.000 130 137 152
106.000 816.000 244.000 131 140 156
107.000 816.000 244.000 137 146 162
107.000 816.000 245.000 137 146 161
107.000 817.000 244.000 140 148 164
108.000 817.000 245.000 134 144 161
108.000 816.000 246.000 130 139 155
108.000 818.000 244.000 138 146 161
111.000 817.000 245.000 142 153 171
110.000 816.000 246.000 133 142 159
111.000 817.000 246.000 137 148 165
111.000 819.000 245.000 133 144 162
108.000 820.000 240.000 127 134 148
108.000 820.000 241.000 130 137 152
108.000 821.000 240.000 131 139 154
109.000 821.000 240.000 130 138 153
109.000 821.000 241.000 129 137 152
108.000 820.000 242.000 134 142 157
109.000 821.000 242.000 127 135 150
109.000 822.000 240.000 132 141 157
109.000 822.000 241.000 128 136 151
109.000 822.000 242.000 125 133 148
110.000 821.000 242.000 124 132 146
110.000 821.000 243.000 128 136 151
110.000 822.000 241.000 126 134 150
110.000 823.000 240.000 136 145 162
110.000 823.000 241.000 126 134 149
110.000 822.000 242.000 124 132 146
111.000 822.000 243.000 123 131 145
111.000 823.000 242.000 120 127 142
110.000 820.000 244.000 135 144 161
111.000 820.000 244.000 135 145 162
111.000 820.000 245.000 133 144 161
111.000 821.000 244.000 136 144 159
110.000 824.000 241.000 125 133 149
110.000 825.000 240.000 139 147 163
111.000 825.000 242.000 127 135 150
111.000 826.000 240.000 137 144 159
112.000 825.000 224.000 119 127 141
112.000 826.000 224.000 120 127 142
112.000 826.000 225.000 124 131 145
112.000 827.000 224.000 119 127 141
112.000 827.000 225.000 119 127 142
113.000 827.000 224.000 119 127 141
112.000 826.000 226.000 126 134 149
112.000 826.000 227.000 131 139 155
112.000 827.000 226.000 120 129 144
112.000 827.000 227.000 126 135 150
112.000 827.000 228.000 129 137 153
112.000 827.000 229.000 131 139 154
112.000 827.000 230.000 132 141 156
112.000 827.000 231.000 136 144 160
113.000 828.000 224.000 121 129 143
113.000 828.000 225.000 119 128 142
113.000 829.000 224.000 123 131 145
113.000 829.000 225.000 122 130 145
112.000 828.000 226.000 121 131 146
112.000 828.000 227.000 126 135 150
113.000 828.000 226.000 120 129 144
113.000 828.000 227.000 126 134 150
113.000 829.000 226.000 123 132 147
113.000 829.000 227.000 127 136 152
113.000 830.000 226.000 125 134 149
113.000 830.000 227.000 129 137 153
114.000 829.000 224.000 123 131 145
114.000 830.000 224.000 124 132 146
114.000 830.000 225.000 123 132 147
114.000 831.000 225.000 126 134 150
115.000 830.000 224.000 126 134 148
115.000 831.000 224.000 127 137 152
115.000 831.000 225.000 126 135 151
114.000 830.000 226.000 125 134 149
114.000 830.000 227.000 130 138 154
114.000 831.000 226.000 127 136 151
114.000 831.000 227.000 132 141 156
115.000 831.000 226.000 127 136 152
112.000 828.000 228.000 130 138 154
112.000 828.000 229.000 131 139 155
112.000 829.000 229.000 133 140 156
113.000 829.000 228.000 132 140 155
113.000 829.000 229.000 133 141 156
112.000 828.000 230.000 135 143 158
112.000 828.000 231.000 141 149 164
112.000 829.000 230.000 135 142 157
112.000 829.000 231.000 137 144 159
113.000 829.000 230.000 134 142 157
113.000 830.000 228.000 131 140 156
113.000 830.000 229.000 133 142 157
113.000 830.000 230.000 135 143 159
113.000 830.000 231.000 138 146 162
113.000 831.000 230.000 137 147 164
113.000 831.000 231.000 141 150 167
114.000 830.000 228.000 133 142 158
114.000 831.000 228.000 135 144 160
114.000 831.000 229.000 136 145 161
114.000 831.000 230.000 139 148 165
114.000 831.000 231.000 142 151 168
112.000 828.000 232.000 144 153 168
112.000 828.000 233.000 142 151 167
112.000 829.000 232.000 139 146 162
112.000 829.000 233.000 137 146 162
112.000 828.000 234.000 140 149 166
112.000 828.000 235.000 139 147 163
112.000 829.000 234.000 135 144 160
112.000 829.000 235.000 135 143 159
112.000 830.000 233.000 138 146 161
113.000 830.000 232.000 139 147 163
113.000 830.000 233.000 140 148 164
113.000 831.000 232.000 142 152 169
113.000 831.000 233.000 144 153 172
112.000 830.000 234.000 134 142 159
112.000 830.000 235.000 133 141 157
113.000 830.000 234.000 136 144 161
113.000 830.000 235.000 136 143 159
113.000 831.000 234.000 143 152 169
113.000 831.000 235.000 138 146 161
114.000 831.000 232.000 143 153 170
114.000 831.000 235.000 140 147 162
112.000 828.000 236.000 138 146 161
112.000 828.000 237.000 138 146 161
112.000 829.000 236.000 136 143 159
112.000 829.000 237.000 137 144 160
112.000 829.000 238.000 138 146 160
113.000 830.000 236.000 135 143 159
113.000 831.000 236.000 138 145 160
113.000 830.000 239.000 132 140 155
114.000 831.000 236.000 138 145 159
112.000 817.000 246.000 129 140 156
112.000 819.000 245.000 132 141 158
112.000 818.000 246.000 134 143 160
112.000 819.000 246.000 134 142 159
113.000 819.000 246.000 132 141 157
113.000 819.000 247.000 130 139 156
112.000 820.000 245.000 129 138 154
112.000 821.000 244.000 132 140 154
112.000 821.000 245.000 129 137 152
113.000 821.000 245.000 118 126 140
112.000 820.000 246.000 130 138 154
113.000 820.000 246.000 124 133 150
113.000 820.000 247.000 127 136 153
112.000 822.000 244.000 125 131 145
112.000 822.000 245.000 125 131 145
113.000 822.000 245.000 118 125 138
113.000 823.000 244.000 120 127 140
113.000 823.000 245.000 120 126 139
113.000 822.000 246.000 117 124 139
113.000 823.000 246.000 118 124 138
114.000 820.000 247.000 131 140 157
114.000 822.000 246.000 118 124 140
114.000 823.000 246.000 117 123 138
114.000 823.000 247.000 117 123 138
112.000 826.000 242.000 133 140 157
114.000 827.000 243.000 133 140 155
114.000 824.000 245.000 121 128 141
114.000 824.000 246.000 119 126 139
114.000 824.000 247.000 117 124 137
114.000 825.000 246.000 118 124 138
115.000 827.000 244.000 115 122 135
115.000 826.000 246.000 117 123 136
115.000 826.000 247.000 121 128 141
115.000 827.000 246.000 114 121 134
115.000 829.000 243.000 117 124 139
115.000 828.000 244.000 114 121 134
115.000 829.000 244.000 112 120 133
116.000 827.000 246.000 116 123 135
116.000 827.000 247.000 116 123 136
116.000 829.000 244.000 114 121 134
115.000 824.000 248.000 118 125 138
115.000 825.000 248.000 126 133 146
116.000 826.000 248.000 123 130 144
117.000 832.000 215.000 129 137 152
118.000 832.000 214.000 133 140 155
118.000 832.000 215.000 131 139 154
115.000 832.000 223.000 140 150 166
117.000 832.000 216.000 129 136 151
117.000 832.000 217.000 129 136 151
117.000 833.000 217.000 132 140 154
116.000 832.000 219.000 129 138 153
117.000 832.000 218.000 129 137 152
117.000 832.000 219.000 130 139 153
117.000 833.000 218.000 134 141 156
117.000 833.000 219.000 135 143 157
117.000 834.000 219.000 136 144 159
118.000 832.000 216.000 130 137 152
118.000 833.000 217.000 135 143 157
116.000 832.000 220.000 133 141 156
116.000 832.000 221.000 136 144 160
116.000 833.000 221.000 142 151 167
117.000 832.000 220.000 133 141 156
117.000 833.000 220.000 138 146 160
117.000 833.000 221.000 140 149 164
116.000 832.000 222.000 140 150 166
116.000 832.000 223.000 147 157 173
116.000 833.000 222.000 145 154 171
116.000 833.000 223.000 145 155 172
117.000 833.000 222.000 141 151 167
117.000 834.000 220.000 138 146 161
117.000 834.000 221.000 141 150 165
116.000 834.000 223.000 137 148 165
117.000 834.000 222.000 142 151 166
117.000 834.000 223.000 142 152 169
117.000 835.000 223.000 145 155 172
118.000 834.000 220.000 137 146 161
118.000 834.000 221.000 140 149 164
118.000 835.000 223.000 141 150 167
115.000 832.000 224.000 137 147 163
115.000 832.000 225.000 133 143 158
115.000 832.000 226.000 131 140 156
115.000 832.000 227.000 134 143 158
115.000 833.000 226.000 134 142 158
115.000 833.000 227.000 134 143 159
114.000 832.000 228.000 137 146 162
114.000 832.000 229.000 139 148 164
115.000 832.000 228.000 138 147 163
115.000 833.000 228.000 139 147 163
115.000 833.000 229.000 143 151 166
114.000 832.000 230.000 144 152 168
114.000 832.000 231.000 150 160 176
114.000 833.000 230.000 150 158 174
114.000 833.000 231.000 155 165 181
115.000 833.000 230.000 149 157 174
115.000 833.000 231.000 154 164 181
115.000 834.000 229.000 141 149 165
115.000 834.000 230.000 143 151 169
115.000 834.000 231.000 145 155 173
116.000 832.000 224.000 145 155 171
116.000 833.000 224.000 141 150 167
116.000 833.000 225.000 136 145 160
116.000 833.000 226.000 136 144 159
116.000 833.000 227.000 137 146 161
116.000 834.000 224.000 138 148 165
116.000 834.000 225.000 138 147 163
117.000 834.000 224.000 143 154 172
117.000 834.000 225.000 145 155 173
117.000 835.000 224.000 145 156 174
117.000 835.000 225.000 146 157 176
116.000 834.000 226.000 140 150 166
116.000 834.000 227.000 142 151 168
116.000 835.000 227.000 147 157 175
117.000 834.000 226.000 147 157 174
117.000 835.000 226.000 150 161 179
117.000 835.000 227.000 152 161 179
116.000 834.000 228.000 140 149 165
116.000 834.000 229.000 141 150 167
116.000 835.000 228.000 145 154 171
116.000 835.000 229.000 142 151 167
117.000 835.000 228.000 149 158 175
116.000 834.000 230.000 142 151 167
116.000 835.000 230.000 141 150 166
116.000 835.000 231.000 140 149 166
117.000 836.000 225.000 146 157 176
117.000 836.000 226.000 150 162 180
117.000 836.000 227.000 151 161 178
118.000 836.000 225.000 144 155 174
118.000 836.000 226.000 149 161 179
116.000 836.000 229.000 143 151 167
117.000 836.000 228.000 149 157 173
117.000 836.000 229.000 144 152 168
116.000 836.000 230.000 143 151 166
116.000 836.000 231.000 142 151 167
117.000 836.000 230.000 144 151 167
114.000 832.000 232.000 154 163 181
114.000 832.000 233.000 155 165 184
114.000 833.000 232.000 157 167 184
114.000 833.000 233.000 160 169 187
114.000 832.000 234.000 149 159 176
114.000 832.000 235.000 143 151 166
114.000 833.000 234.000 153 162 180
114.000 833.000 235.000 143 151 167
115.000 833.000 234.000 148 157 175
115.000 833.000 235.000 141 150 166
115.000 834.000 232.000 147 157 174
115.000 834.000 233.000 146 156 174
115.000 834.000 234.000 142 152 169
115.000 834.000 235.000 137 146 163
114.000 832.000 236.000 136 144 159
114.000 832.000 237.000 135 142 158
115.000 832.000 237.000 136 144 160
115.000 833.000 236.000 134 142 158
115.000 833.000 237.000 132 140 157
114.000 832.000 238.000 138 145 161
115.000 832.000 238.000 141 150 166
115.000 833.000 238.000 135 144 160
115.000 834.000 236.000 133 142 158
116.000 835.000 232.000 139 148 165
116.000 835.000 233.000 140 149 167
116.000 834.000 235.000 137 146 162
116.000 835.000 234.000 141 150 166
116.000 835.000 235.000 139 148 164
116.000 833.000 238.000 130 139 155
116.000 834.000 236.000 133 141 157
116.000 834.000 237.000 129 136 153
116.000 835.000 236.000 134 142 158
116.000 834.000 238.000 128 136 152
116.000 836.000 232.000 142 151 168
116.000 836.000 233.000 143 152 170
116.000 836.000 234.000 142 152 169
116.000 836.000 235.000 140 149 166
