ply
format ascii 1.0
element vertex 1499
property float x
property float y
property float z
property uchar red
property uchar green
property uchar blue
end_header
106.000 312.000 213.000 38 45 53
107.000 312.000 213.000 39 46 53
107.000 313.000 214.000 37 44 52
107.000 314.000 214.000 36 43 51
107.000 315.000 214.000 36 43 50
107.000 316.000 215.000 35 42 49
108.000 312.000 213.000 38 45 53
108.000 313.000 213.000 37 45 53
109.000 312.000 213.000 38 45 53
109.000 313.000 213.000 38 45 53
108.000 313.000 214.000 37 44 52
109.000 313.000 214.000 37 44 52
108.000 314.000 214.000 36 43 51
108.000 315.000 214.000 36 43 50
110.000 312.000 213.000 37 44 52
111.000 312.000 213.000 37 43 51
110.000 313.000 214.000 37 44 52
111.000 313.000 214.000 38 44 52
108.000 316.000 215.000 35 42 49
109.000 316.000 214.000 36 43 50
109.000 316.000 215.000 36 42 49
111.000 317.000 213.000 36 42 49
110.000 316.000 214.000 36 42 50
110.000 316.000 215.000 35 42 49
110.000 317.000 214.000 36 43 50
110.000 317.000 215.000 36 42 49
111.000 316.000 214.000 35 42 50
111.000 317.000 214.000 36 42 49
110.000 319.000 213.000 35 42 48
111.000 318.000 213.000 35 42 49
111.000 319.000 212.000 36 42 48
111.000 319.000 213.000 35 42 48
110.000 318.000 214.000 36 42 49
112.000 311.000 212.000 37 44 51
113.000 311.000 212.000 37 43 51
112.000 312.000 213.000 37 44 51
112.000 313.000 213.000 37 43 50
113.000 312.000 213.000 37 44 51
113.000 313.000 213.000 36 43 50
113.000 314.000 213.000 37 43 50
112.000 314.000 214.000 36 43 50
112.000 315.000 214.000 36 43 50
114.000 312.000 212.000 36 43 50
114.000 313.000 213.000 36 43 50
115.000 312.000 212.000 35 42 50
115.000 313.000 212.000 36 43 50
114.000 314.000 213.000 37 43 50
114.000 315.000 213.000 36 43 50
115.000 315.000 212.000 36 43 50
112.000 319.000 211.000 36 41 47
113.000 318.000 211.000 36 41 48
113.000 319.000 210.000 35 41 47
113.000 319.000 211.000 36 41 47
114.000 317.000 211.000 35 42 49
115.000 317.000 211.000 35 42 49
115.000 319.000 209.000 37 42 48
114.000 318.000 211.000 35 41 48
114.000 319.000 210.000 36 42 48
114.000 319.000 211.000 36 42 48
115.000 318.000 210.000 37 43 49
115.000 318.000 211.000 36 42 49
115.000 319.000 210.000 37 42 49
112.000 316.000 213.000 35 42 50
112.000 317.000 213.000 35 42 49
113.000 316.000 213.000 36 42 49
113.000 317.000 212.000 34 41 48
113.000 317.000 213.000 35 42 49
112.000 316.000 214.000 35 43 50
112.000 318.000 212.000 36 42 48
112.000 319.000 212.000 35 42 48
113.000 318.000 212.000 35 41 48
114.000 316.000 212.000 36 42 49
114.000 316.000 213.000 36 42 49
114.000 317.000 212.000 35 42 49
115.000 316.000 212.000 35 42 49
116.000 312.000 212.000 36 43 50
116.000 313.000 212.000 36 43 50
117.000 313.000 212.000 35 42 49
116.000 315.000 212.000 35 42 49
117.000 314.000 212.000 35 42 49
117.000 315.000 212.000 36 42 49
118.000 313.000 212.000 35 42 49
118.000 314.000 212.000 35 42 49
118.000 315.000 212.000 36 42 49
116.000 316.000 211.000 36 42 49
116.000 317.000 211.000 36 42 49
117.000 316.000 211.000 36 42 49
117.000 317.000 211.000 37 42 49
116.000 319.000 209.000 36 41 48
117.000 319.000 209.000 35 41 47
116.000 318.000 210.000 37 43 49
116.000 318.000 211.000 37 43 49
116.000 319.000 210.000 37 42 49
117.000 318.000 210.000 37 42 48
117.000 318.000 211.000 37 43 49
117.000 319.000 210.000 36 42 48
118.000 316.000 211.000 36 42 48
118.000 317.000 211.000 37 42 49
119.000 316.000 211.000 36 42 48
119.000 317.000 211.000 38 43 50
118.000 318.000 211.000 36 42 49
118.000 319.000 210.000 34 41 47
119.000 318.000 211.000 37 42 49
119.000 319.000 210.000 35 41 48
116.000 316.000 212.000 35 41 48
117.000 316.000 212.000 36 42 49
118.000 316.000 212.000 36 42 49
120.000 314.000 211.000 36 42 49
120.000 315.000 211.000 36 42 49
121.000 314.000 211.000 35 42 49
121.000 315.000 211.000 36 42 49
123.000 314.000 210.000 35 41 48
120.000 316.000 211.000 36 42 49
120.000 317.000 211.000 37 43 49
121.000 316.000 211.000 36 42 49
121.000 317.000 211.000 35 42 49
121.000 319.000 209.000 34 41 48
120.000 318.000 211.000 36 42 48
120.000 319.000 210.000 36 42 49
121.000 318.000 210.000 34 41 48
121.000 318.000 211.000 35 41 48
121.000 319.000 210.000 35 41 48
122.000 317.000 211.000 34 41 48
123.000 317.000 211.000 33 41 48
122.000 319.000 209.000 33 41 48
123.000 319.000 209.000 33 41 48
122.000 318.000 210.000 35 42 49
122.000 319.000 210.000 34 41 49
123.000 318.000 210.000 33 41 48
123.000 319.000 210.000 32 40 48
124.000 313.000 209.000 35 41 48
124.000 313.000 210.000 34 41 48
125.000 313.000 210.000 34 41 48
125.000 313.000 211.000 34 41 47
126.000 313.000 211.000 33 40 47
124.000 317.000 211.000 34 41 48
125.000 317.000 211.000 35 42 49
124.000 319.000 209.000 34 41 49
125.000 319.000 209.000 35 41 48
124.000 318.000 210.000 34 41 49
125.000 318.000 210.000 34 41 48
125.000 318.000 211.000 35 41 48
125.000 319.000 210.000 34 41 48
126.000 317.000 211.000 35 41 48
126.000 319.000 209.000 36 42 48
126.000 318.000 210.000 35 41 48
126.000 318.000 211.000 35 41 48
126.000 319.000 210.000 35 41 47
127.000 318.000 211.000 36 41 47
127.000 319.000 210.000 37 42 48
111.000 329.000 207.000 39 45 52
110.000 330.000 207.000 41 47 54
110.000 331.000 207.000 41 48 55
111.000 330.000 207.000 40 47 53
111.000 331.000 207.000 41 48 55
109.000 332.000 207.000 41 48 55
109.000 333.000 207.000 40 48 55
109.000 334.000 207.000 41 48 57
110.000 332.000 207.000 41 48 55
110.000 333.000 207.000 40 47 54
111.000 332.000 206.000 39 47 54
111.000 333.000 206.000 41 47 55
111.000 334.000 206.000 41 48 56
111.000 335.000 206.000 42 49 57
106.000 323.000 213.000 35 41 48
107.000 325.000 211.000 36 42 48
106.000 326.000 211.000 37 43 50
106.000 327.000 210.000 36 43 49
106.000 327.000 211.000 37 43 50
107.000 326.000 210.000 36 42 49
107.000 326.000 211.000 36 42 49
107.000 327.000 210.000 36 42 49
107.000 327.000 211.000 36 42 49
106.000 325.000 212.000 35 42 49
106.000 326.000 212.000 35 42 49
111.000 321.000 211.000 36 41 48
110.000 322.000 211.000 36 42 48
111.000 322.000 210.000 35 41 47
111.000 322.000 211.000 35 41 47
111.000 323.000 210.000 36 42 48
110.000 320.000 212.000 35 41 48
110.000 321.000 212.000 36 42 48
111.000 320.000 212.000 36 42 48
108.000 325.000 211.000 36 42 49
109.000 325.000 210.000 37 43 49
109.000 327.000 209.000 37 43 50
108.000 326.000 210.000 37 43 50
108.000 326.000 211.000 37 43 49
108.000 327.000 210.000 37 43 50
109.000 326.000 210.000 37 43 50
111.000 324.000 209.000 37 42 48
111.000 325.000 209.000 37 43 49
110.000 324.000 210.000 37 43 49
111.000 326.000 208.000 38 43 49
111.000 327.000 208.000 38 44 50
105.000 328.000 211.000 37 44 51
105.000 331.000 209.000 40 48 56
105.000 330.000 210.000 39 46 54
107.000 328.000 209.000 38 44 50
107.000 329.000 209.000 38 44 51
106.000 329.000 210.000 37 44 51
107.000 328.000 210.000 37 43 50
107.000 329.000 210.000 37 43 50
106.000 331.000 209.000 41 48 56
107.000 330.000 209.000 38 45 52
107.000 331.000 209.000 42 48 55
105.000 332.000 209.000 40 49 57
106.000 332.000 209.000 41 49 57
106.000 333.000 209.000 41 49 57
107.000 332.000 208.000 42 49 56
107.000 332.000 209.000 42 49 56
107.000 333.000 208.000 41 49 57
106.000 334.000 209.000 42 50 59
106.000 335.000 209.000 42 52 61
107.000 334.000 208.000 42 50 58
107.000 335.000 208.000 42 51 60
108.000 328.000 209.000 38 44 50
110.000 329.000 208.000 39 45 52
108.000 332.000 208.000 41 48 56
108.000 333.000 208.000 41 48 56
109.000 337.000 207.000 41 51 61
111.000 336.000 206.000 43 50 58
110.000 338.000 207.000 42 52 62
110.000 339.000 207.000 43 52 62
111.000 338.000 206.000 41 50 59
111.000 339.000 206.000 42 51 60
111.000 339.000 207.000 42 51 61
110.000 340.000 207.000 43 53 63
111.000 340.000 207.000 43 52 62
111.000 341.000 207.000 44 54 64
111.000 342.000 207.000 45 54 64
107.000 336.000 208.000 44 53 62
106.000 336.000 210.000 43 54 64
107.000 338.000 210.000 45 56 67
107.000 343.000 213.000 41 51 60
108.000 336.000 208.000 42 52 61
108.000 337.000 208.000 43 53 63
108.000 338.000 208.000 43 53 64
108.000 338.000 209.000 42 53 64
108.000 339.000 209.000 44 55 66
109.000 338.000 208.000 43 53 64
109.000 339.000 208.000 44 54 65
110.000 339.000 208.000 43 53 63
109.000 340.000 208.000 44 55 66
109.000 340.000 209.000 44 55 67
109.000 342.000 210.000 45 56 66
110.000 340.000 208.000 44 54 64
110.000 341.000 208.000 46 56 66
110.000 342.000 209.000 44 54 65
110.000 343.000 209.000 43 54 64
111.000 343.000 208.000 45 55 65
111.000 343.000 209.000 44 54 64
108.000 343.000 212.000 43 53 62
109.000 344.000 211.000 42 51 60
110.000 344.000 209.000 44 53 63
111.000 344.000 208.000 45 55 65
110.000 344.000 210.000 43 52 62
110.000 345.000 211.000 41 50 59
111.000 345.000 210.000 41 51 60
108.000 344.000 212.000 41 50 60
115.000 324.000 207.000 35 41 47
115.000 325.000 207.000 35 42 48
114.000 326.000 207.000 37 43 49
114.000 327.000 207.000 37 43 50
115.000 326.000 207.000 37 43 49
115.000 327.000 207.000 38 44 50
116.000 324.000 207.000 36 41 48
116.000 325.000 207.000 36 42 48
117.000 324.000 207.000 36 41 48
117.000 325.000 207.000 35 41 48
116.000 326.000 207.000 37 43 49
116.000 327.000 207.000 38 44 50
117.000 326.000 207.000 36 42 48
117.000 327.000 206.000 37 43 50
117.000 327.000 207.000 37 43 50
118.000 324.000 207.000 35 41 47
118.000 325.000 207.000 35 42 48
119.000 324.000 207.000 35 41 47
119.000 325.000 207.000 36 42 48
118.000 326.000 207.000 35 42 49
118.000 327.000 206.000 36 43 50
118.000 327.000 207.000 37 43 49
119.000 326.000 206.000 37 43 50
119.000 326.000 207.000 37 43 49
119.000 327.000 206.000 36 43 50
112.000 329.000 207.000 39 46 52
112.000 331.000 206.000 40 46 53
113.000 330.000 206.000 39 46 53
113.000 331.000 206.000 39 46 53
114.000 329.000 206.000 37 44 51
115.000 328.000 207.000 39 45 52
115.000 329.000 206.000 38 45 52
114.000 331.000 205.000 38 45 52
115.000 330.000 205.000 39 46 53
115.000 331.000 205.000 39 46 53
114.000 330.000 206.000 38 45 52
114.000 331.000 206.000 39 45 52
115.000 330.000 206.000 39 45 53
113.000 333.000 205.000 40 47 54
112.000 332.000 206.000 39 46 54
112.000 334.000 205.000 41 48 56
112.000 335.000 205.000 41 48 56
114.000 332.000 205.000 39 46 53
114.000 333.000 205.000 39 46 53
115.000 332.000 205.000 40 47 54
115.000 333.000 205.000 39 46 54
114.000 332.000 206.000 39 46 53
114.000 334.000 205.000 40 47 54
114.000 335.000 205.000 41 48 55
115.000 334.000 204.000 40 47 55
115.000 334.000 205.000 40 47 54
115.000 335.000 204.000 40 47 55
115.000 335.000 205.000 40 47 55
116.000 328.000 206.000 38 44 51
116.000 328.000 207.000 38 44 51
116.000 329.000 206.000 39 45 52
117.000 328.000 206.000 37 43 50
117.000 329.000 206.000 38 44 51
116.000 330.000 205.000 39 46 53
116.000 331.000 205.000 39 47 54
117.000 330.000 205.000 38 45 52
117.000 331.000 204.000 39 46 54
117.000 331.000 205.000 39 46 53
116.000 330.000 206.000 38 45 52
118.000 329.000 205.000 37 44 51
119.000 329.000 205.000 37 44 51
118.000 328.000 206.000 37 43 50
118.000 329.000 206.000 37 44 51
119.000 328.000 206.000 36 43 50
118.000 330.000 204.000 37 45 52
118.000 330.000 205.000 38 44 52
118.000 331.000 204.000 39 46 53
119.000 330.000 204.000 38 44 52
119.000 330.000 205.000 37 44 51
119.000 331.000 204.000 38 45 52
119.000 333.000 203.000 40 47 54
118.000 334.000 203.000 42 49 56
118.000 335.000 203.000 41 48 56
119.000 334.000 203.000 41 48 55
119.000 335.000 203.000 40 48 55
116.000 332.000 204.000 40 47 55
116.000 332.000 205.000 40 48 55
116.000 333.000 204.000 40 47 55
117.000 332.000 204.000 40 47 55
117.000 333.000 204.000 40 47 55
116.000 334.000 204.000 40 47 55
116.000 335.000 204.000 40 48 55
117.000 334.000 204.000 41 48 55
117.000 335.000 204.000 41 48 56
118.000 332.000 204.000 39 46 54
118.000 333.000 204.000 40 47 54
119.000 332.000 204.000 38 45 53
119.000 333.000 204.000 40 47 54
118.000 334.000 204.000 41 48 56
118.000 335.000 204.000 41 48 56
122.000 323.000 207.000 35 41 48
123.000 323.000 207.000 35 41 48
120.000 324.000 207.000 35 41 47
120.000 325.000 207.000 35 42 48
121.000 324.000 207.000 35 41 47
121.000 325.000 207.000 36 42 48
120.000 326.000 206.000 36 42 49
120.000 326.000 207.000 36 42 49
120.000 327.000 206.000 37 43 50
121.000 326.000 206.000 36 42 49
121.000 326.000 207.000 36 42 49
121.000 327.000 206.000 37 43 50
122.000 324.000 207.000 35 42 48
122.000 325.000 207.000 37 42 49
123.000 324.000 207.000 35 41 48
123.000 325.000 206.000 37 42 49
123.000 325.000 207.000 36 41 48
122.000 326.000 206.000 37 43 49
122.000 327.000 206.000 38 44 50
123.000 326.000 206.000 38 43 50
123.000 327.000 206.000 38 44 50
124.000 322.000 207.000 36 41 48
124.000 323.000 207.000 35 41 47
125.000 322.000 207.000 36 41 47
125.000 323.000 207.000 36 42 48
126.000 323.000 207.000 37 42 49
127.000 323.000 207.000 36 43 49
124.000 324.000 207.000 36 42 48
124.000 325.000 206.000 37 43 49
124.000 325.000 207.000 37 43 49
125.000 324.000 207.000 37 43 49
125.000 325.000 206.000 37 43 49
125.000 325.000 207.000 36 43 50
124.000 326.000 206.000 38 43 50
124.000 327.000 206.000 38 44 50
125.000 326.000 206.000 37 43 50
125.000 327.000 206.000 38 45 52
126.000 324.000 207.000 37 44 51
126.000 325.000 206.000 37 43 50
126.000 325.000 207.000 37 44 51
127.000 324.000 207.000 36 43 50
127.000 325.000 207.000 37 44 51
126.000 326.000 206.000 37 44 51
126.000 327.000 206.000 38 45 52
127.000 326.000 206.000 38 45 52
127.000 326.000 207.000 38 45 52
127.000 327.000 206.000 39 46 53
120.000 328.000 205.000 37 44 51
120.000 329.000 205.000 37 44 51
121.000 328.000 205.000 38 44 51
121.000 329.000 205.000 38 44 51
120.000 328.000 206.000 38 44 51
120.000 330.000 204.000 38 45 52
120.000 330.000 205.000 38 44 52
120.000 331.000 204.000 39 45 52
121.000 330.000 204.000 38 45 51
121.000 330.000 205.000 38 45 52
121.000 331.000 204.000 39 45 52
122.000 328.000 205.000 38 44 50
122.000 329.000 205.000 38 44 51
123.000 328.000 205.000 39 44 50
123.000 329.000 205.000 40 45 51
122.000 330.000 204.000 38 44 51
122.000 330.000 205.000 38 44 51
122.000 331.000 204.000 38 44 52
123.000 330.000 204.000 39 45 51
123.000 330.000 205.000 41 46 52
123.000 331.000 204.000 39 45 51
120.000 333.000 203.000 40 47 54
121.000 332.000 203.000 38 45 52
121.000 333.000 203.000 39 45 53
120.000 334.000 203.000 41 47 55
120.000 335.000 203.000 40 47 55
121.000 334.000 203.000 40 46 54
121.000 335.000 203.000 40 47 54
122.000 332.000 203.000 38 45 52
122.000 333.000 203.000 38 45 52
123.000 332.000 203.000 38 45 52
123.000 333.000 203.000 38 45 52
122.000 334.000 203.000 39 46 53
122.000 335.000 202.000 40 47 54
122.000 335.000 203.000 40 47 54
123.000 334.000 203.000 39 45 52
123.000 335.000 202.000 39 46 53
123.000 335.000 203.000 39 46 53
120.000 332.000 204.000 39 45 53
121.000 332.000 204.000 39 45 52
122.000 332.000 204.000 38 45 52
123.000 332.000 204.000 38 45 52
124.000 328.000 205.000 39 45 51
124.000 329.000 205.000 40 46 52
125.000 328.000 205.000 39 45 52
125.000 329.000 205.000 40 46 53
124.000 330.000 204.000 39 45 51
124.000 330.000 205.000 40 46 52
124.000 331.000 204.000 39 45 51
125.000 330.000 204.000 39 45 52
125.000 330.000 205.000 39 46 53
125.000 331.000 204.000 38 45 52
126.000 328.000 205.000 39 46 53
126.000 329.000 205.000 39 46 54
127.000 328.000 205.000 39 46 54
127.000 329.000 205.000 39 46 54
126.000 328.000 206.000 39 46 53
127.000 328.000 206.000 39 46 54
126.000 330.000 204.000 39 46 53
126.000 330.000 205.000 39 46 53
126.000 331.000 204.000 38 45 52
127.000 330.000 205.000 39 46 54
127.000 331.000 204.000 38 45 52
124.000 332.000 203.000 38 44 51
124.000 333.000 203.000 37 44 51
125.000 333.000 203.000 37 44 51
124.000 334.000 203.000 38 44 51
124.000 335.000 202.000 38 45 52
125.000 334.000 203.000 37 44 51
125.000 335.000 202.000 38 44 51
126.000 333.000 203.000 37 44 51
127.000 333.000 203.000 38 45 52
126.000 334.000 203.000 37 44 52
126.000 335.000 202.000 38 45 52
127.000 334.000 203.000 38 45 52
127.000 335.000 202.000 38 45 53
127.000 335.000 203.000 39 45 53
124.000 332.000 204.000 38 45 51
125.000 332.000 204.000 38 45 52
126.000 332.000 204.000 37 45 52
126.000 333.000 204.000 37 44 51
127.000 332.000 204.000 38 45 52
127.000 333.000 204.000 38 45 52
113.000 321.000 209.000 35 40 46
112.000 320.000 210.000 36 41 47
112.000 320.000 211.000 36 42 48
112.000 321.000 210.000 36 41 47
112.000 321.000 211.000 36 41 47
113.000 320.000 210.000 36 41 47
113.000 321.000 210.000 35 40 46
112.000 322.000 209.000 35 40 47
112.000 323.000 209.000 36 41 47
113.000 322.000 209.000 35 41 47
113.000 323.000 208.000 35 41 47
113.000 323.000 209.000 35 41 47
112.000 322.000 210.000 35 41 47
112.000 323.000 210.000 35 41 47
114.000 320.000 209.000 36 41 47
114.000 321.000 208.000 35 41 47
114.000 321.000 209.000 35 41 47
115.000 320.000 209.000 36 41 47
115.000 321.000 208.000 36 41 47
115.000 321.000 209.000 36 41 47
114.000 320.000 210.000 36 41 47
114.000 322.000 208.000 35 41 47
114.000 322.000 209.000 35 40 46
114.000 323.000 208.000 35 41 47
115.000 322.000 208.000 35 41 47
115.000 323.000 208.000 36 42 48
112.000 324.000 209.000 36 42 48
112.000 325.000 208.000 35 41 48
112.000 325.000 209.000 36 42 48
113.000 324.000 208.000 36 42 48
113.000 324.000 209.000 36 42 48
113.000 325.000 208.000 36 41 48
112.000 326.000 208.000 37 42 49
112.000 327.000 208.000 39 44 51
113.000 326.000 208.000 37 42 49
114.000 324.000 208.000 35 41 48
114.000 325.000 208.000 36 41 48
115.000 324.000 208.000 36 41 47
115.000 325.000 208.000 35 41 47
116.000 320.000 209.000 36 41 47
116.000 321.000 208.000 36 41 47
117.000 320.000 209.000 35 41 47
117.000 321.000 208.000 36 42 48
117.000 321.000 209.000 36 41 47
116.000 322.000 208.000 36 42 48
116.000 323.000 208.000 36 41 47
117.000 322.000 208.000 36 41 48
117.000 323.000 208.000 35 41 47
118.000 320.000 209.000 35 41 48
118.000 321.000 208.000 35 40 47
118.000 321.000 209.000 34 40 47
119.000 320.000 209.000 35 42 48
119.000 321.000 209.000 35 41 48
118.000 322.000 208.000 34 40 47
118.000 323.000 208.000 34 40 47
119.000 322.000 208.000 34 40 46
119.000 322.000 209.000 34 40 47
119.000 323.000 208.000 34 40 47
119.000 324.000 208.000 35 41 47
120.000 320.000 209.000 35 42 49
120.000 321.000 209.000 35 41 48
121.000 320.000 209.000 34 41 48
121.000 321.000 208.000 33 41 48
121.000 321.000 209.000 34 41 48
120.000 322.000 208.000 34 40 47
120.000 322.000 209.000 34 41 48
120.000 323.000 208.000 33 40 47
121.000 322.000 208.000 33 40 47
121.000 322.000 209.000 34 41 47
121.000 323.000 208.000 33 40 47
122.000 320.000 209.000 34 41 48
122.000 321.000 208.000 33 41 48
123.000 320.000 208.000 33 40 48
123.000 320.000 209.000 33 41 48
123.000 321.000 208.000 34 41 48
122.000 322.000 208.000 33 41 48
122.000 323.000 208.000 34 41 48
123.000 322.000 208.000 34 41 48
123.000 323.000 208.000 35 41 48
120.000 324.000 208.000 34 40 47
121.000 324.000 208.000 34 40 47
124.000 320.000 208.000 35 41 48
124.000 320.000 209.000 34 42 48
124.000 321.000 208.000 35 41 48
125.000 320.000 208.000 35 41 47
125.000 320.000 209.000 36 41 47
125.000 321.000 208.000 36 42 48
124.000 322.000 208.000 35 41 48
125.000 322.000 208.000 36 41 47
126.000 320.000 209.000 36 41 47
126.000 321.000 208.000 36 41 48
126.000 321.000 209.000 35 41 47
127.000 320.000 209.000 36 42 48
127.000 321.000 208.000 35 42 48
127.000 321.000 209.000 35 42 48
126.000 322.000 208.000 36 42 48
126.000 323.000 208.000 36 42 48
127.000 322.000 208.000 36 42 49
127.000 322.000 209.000 36 42 49
127.000 323.000 208.000 36 43 50
112.000 336.000 205.000 41 49 57
112.000 337.000 205.000 40 48 57
113.000 336.000 205.000 41 48 57
113.000 337.000 205.000 41 49 57
113.000 338.000 205.000 42 50 59
113.000 339.000 205.000 42 51 59
113.000 339.000 206.000 41 50 59
114.000 336.000 205.000 40 48 55
114.000 337.000 205.000 41 49 57
115.000 336.000 204.000 40 47 55
115.000 336.000 205.000 40 47 55
115.000 337.000 204.000 42 49 57
115.000 337.000 205.000 41 48 56
114.000 338.000 205.000 42 50 59
114.000 339.000 205.000 43 51 59
115.000 338.000 204.000 42 49 58
115.000 338.000 205.000 42 50 58
115.000 339.000 204.000 42 50 59
115.000 339.000 205.000 43 51 60
112.000 341.000 206.000 44 53 62
112.000 341.000 207.000 44 53 63
113.000 341.000 206.000 43 52 61
112.000 342.000 207.000 44 54 64
112.000 343.000 207.000 45 55 65
113.000 342.000 206.000 43 52 61
113.000 343.000 206.000 43 52 62
114.000 340.000 205.000 42 51 59
114.000 341.000 205.000 42 51 60
115.000 340.000 204.000 43 51 60
115.000 340.000 205.000 43 51 60
115.000 341.000 204.000 43 51 60
115.000 341.000 205.000 43 51 60
114.000 342.000 205.000 43 51 60
114.000 343.000 205.000 42 51 60
115.000 342.000 204.000 43 51 60
115.000 342.000 205.000 43 51 60
115.000 343.000 204.000 42 51 60
115.000 343.000 205.000 42 51 60
117.000 339.000 203.000 42 50 58
118.000 336.000 203.000 41 48 56
118.000 337.000 203.000 41 49 56
119.000 336.000 203.000 40 47 55
119.000 337.000 203.000 41 48 56
118.000 338.000 203.000 41 49 57
118.000 339.000 203.000 41 49 57
119.000 338.000 203.000 41 48 56
119.000 339.000 202.000 40 48 56
119.000 339.000 203.000 40 48 56
116.000 336.000 204.000 41 48 56
116.000 337.000 204.000 42 49 56
117.000 336.000 204.000 41 49 57
117.000 337.000 204.000 42 49 57
116.000 338.000 204.000 41 49 57
116.000 339.000 204.000 42 50 58
117.000 338.000 204.000 42 49 57
117.000 339.000 204.000 42 50 58
118.000 336.000 204.000 41 48 56
118.000 337.000 204.000 41 49 57
118.000 338.000 204.000 42 49 57
117.000 340.000 203.000 42 50 58
117.000 341.000 203.000 42 50 58
117.000 342.000 203.000 41 50 59
117.000 343.000 203.000 42 51 60
118.000 340.000 203.000 41 49 58
118.000 341.000 202.000 42 50 58
118.000 341.000 203.000 42 50 58
119.000 340.000 202.000 41 49 57
119.000 341.000 202.000 42 49 57
119.000 342.000 201.000 42 50 59
119.000 343.000 201.000 43 51 59
118.000 342.000 202.000 42 51 59
118.000 342.000 203.000 42 51 59
118.000 343.000 202.000 43 51 60
118.000 343.000 203.000 43 51 60
119.000 342.000 202.000 43 51 59
119.000 343.000 202.000 44 52 60
116.000 340.000 204.000 43 51 59
116.000 341.000 204.000 42 50 59
117.000 340.000 204.000 43 51 59
117.000 341.000 204.000 42 51 59
116.000 342.000 204.000 42 50 59
116.000 343.000 204.000 42 51 60
113.000 344.000 207.000 43 53 63
113.000 345.000 207.000 42 52 62
113.000 347.000 207.000 43 53 62
114.000 344.000 205.000 41 51 60
115.000 344.000 205.000 42 51 60
115.000 345.000 205.000 43 52 61
114.000 345.000 206.000 42 52 61
115.000 346.000 205.000 43 52 61
115.000 347.000 205.000 42 51 61
114.000 346.000 206.000 42 52 62
115.000 346.000 206.000 42 52 61
115.000 347.000 206.000 41 51 60
117.000 344.000 203.000 44 52 61
117.000 345.000 203.000 44 52 62
117.000 346.000 203.000 43 52 62
117.000 347.000 203.000 44 53 62
119.000 344.000 201.000 44 52 61
119.000 345.000 201.000 44 52 61
118.000 344.000 202.000 43 52 61
118.000 344.000 203.000 44 53 62
118.000 345.000 202.000 44 53 62
118.000 345.000 203.000 44 53 62
119.000 344.000 202.000 43 51 60
119.000 345.000 202.000 44 53 62
119.000 346.000 201.000 44 53 62
118.000 346.000 202.000 43 53 63
118.000 346.000 203.000 43 53 62
118.000 347.000 202.000 44 53 63
118.000 347.000 203.000 43 53 62
119.000 346.000 202.000 44 53 63
119.000 347.000 202.000 44 53 63
116.000 344.000 204.000 43 52 61
116.000 344.000 205.000 42 51 60
116.000 345.000 204.000 43 52 61
116.000 345.000 205.000 43 52 61
117.000 344.000 204.000 43 52 61
117.000 345.000 204.000 43 52 61
116.000 346.000 204.000 43 52 61
116.000 346.000 205.000 43 52 61
116.000 347.000 204.000 44 53 62
116.000 347.000 205.000 43 52 61
117.000 346.000 204.000 43 52 62
117.000 347.000 204.000 44 53 62
125.000 343.000 199.000 41 48 56
126.000 343.000 199.000 42 48 55
127.000 343.000 199.000 41 48 55
120.000 336.000 203.000 40 47 55
120.000 337.000 203.000 40 47 55
121.000 336.000 202.000 41 47 55
121.000 336.000 203.000 41 48 55
121.000 337.000 202.000 41 48 55
121.000 337.000 203.000 41 48 55
120.000 338.000 202.000 40 47 55
120.000 338.000 203.000 39 47 55
120.000 339.000 202.000 40 48 56
121.000 338.000 202.000 41 48 55
121.000 339.000 202.000 41 48 56
122.000 336.000 202.000 40 47 54
122.000 337.000 202.000 41 48 55
123.000 336.000 202.000 39 46 53
123.000 337.000 202.000 41 47 54
122.000 339.000 201.000 42 48 56
123.000 339.000 201.000 41 48 55
122.000 338.000 202.000 41 48 55
122.000 339.000 202.000 41 48 55
123.000 338.000 202.000 40 48 55
123.000 339.000 202.000 41 48 55
120.000 341.000 201.000 41 49 57
121.000 340.000 201.000 43 50 57
121.000 341.000 201.000 42 49 57
120.000 340.000 202.000 40 48 56
120.000 341.000 202.000 40 48 56
121.000 340.000 202.000 41 49 56
120.000 342.000 201.000 42 50 58
120.000 343.000 201.000 43 51 59
121.000 342.000 200.000 43 50 58
121.000 342.000 201.000 42 50 58
121.000 343.000 200.000 42 49 57
121.000 343.000 201.000 42 50 58
122.000 340.000 201.000 43 49 57
122.000 341.000 201.000 42 50 57
123.000 340.000 201.000 42 49 56
123.000 341.000 200.000 41 49 57
123.000 341.000 201.000 41 48 56
122.000 342.000 200.000 43 50 58
122.000 343.000 200.000 42 50 58
123.000 342.000 200.000 42 49 57
123.000 343.000 200.000 42 50 58
124.000 336.000 202.000 38 45 52
124.000 337.000 202.000 40 47 54
125.000 336.000 202.000 38 44 52
125.000 337.000 202.000 39 46 53
124.000 338.000 201.000 41 48 55
124.000 339.000 201.000 41 48 56
125.000 338.000 201.000 40 46 54
125.000 339.000 201.000 41 48 55
124.000 338.000 202.000 41 47 55
125.000 338.000 202.000 40 47 54
126.000 337.000 201.000 40 46 53
127.000 337.000 201.000 39 46 53
126.000 336.000 202.000 38 45 52
126.000 337.000 202.000 39 46 53
127.000 336.000 202.000 38 45 53
127.000 337.000 202.000 39 46 53
126.000 338.000 201.000 40 46 53
126.000 339.000 201.000 40 47 54
127.000 338.000 201.000 40 46 53
127.000 339.000 201.000 40 46 53
124.000 340.000 201.000 41 48 55
124.000 341.000 200.000 40 48 56
124.000 341.000 201.000 40 48 56
125.000 340.000 201.000 41 48 55
125.000 341.000 200.000 41 48 55
125.000 341.000 201.000 41 48 55
124.000 342.000 200.000 41 48 56
124.000 343.000 200.000 41 48 56
125.000 342.000 200.000 41 48 55
125.000 343.000 200.000 41 48 55
126.000 340.000 201.000 40 46 53
126.000 341.000 200.000 41 47 54
127.000 340.000 200.000 40 46 53
127.000 340.000 201.000 40 46 53
127.000 341.000 200.000 41 47 54
126.000 342.000 200.000 41 47 54
127.000 342.000 200.000 41 47 54
122.000 344.000 199.000 41 49 57
122.000 345.000 199.000 41 49 58
123.000 344.000 199.000 41 48 57
123.000 345.000 199.000 41 49 57
122.000 346.000 199.000 42 50 59
123.000 346.000 199.000 42 50 58
124.000 344.000 199.000 42 49 57
124.000 345.000 199.000 42 49 56
125.000 344.000 199.000 42 49 56
125.000 345.000 199.000 42 49 57
124.000 346.000 199.000 42 50 58
125.000 346.000 199.000 42 49 57
126.000 344.000 199.000 43 49 57
126.000 345.000 198.000 43 50 57
126.000 345.000 199.000 43 50 57
127.000 344.000 199.000 42 49 56
127.000 345.000 198.000 42 49 56
127.000 345.000 199.000 42 49 56
126.000 346.000 198.000 42 49 57
127.000 346.000 198.000 43 50 57
120.000 344.000 201.000 43 51 60
120.000 345.000 200.000 42 51 60
120.000 345.000 201.000 43 52 61
121.000 344.000 200.000 41 50 58
121.000 345.000 200.000 42 50 59
120.000 346.000 200.000 43 52 61
120.000 346.000 201.000 43 52 61
121.000 346.000 200.000 41 50 60
122.000 344.000 200.000 41 49 57
122.000 345.000 200.000 41 49 58
123.000 344.000 200.000 41 49 57
112.000 343.000 208.000 46 55 65
112.000 344.000 208.000 45 55 65
112.000 345.000 209.000 41 51 61
131.000 315.000 212.000 34 40 46
131.000 315.000 213.000 34 40 47
128.000 318.000 211.000 34 41 48
128.000 319.000 210.000 35 42 49
128.000 319.000 211.000 35 41 48
129.000 319.000 210.000 34 42 49
129.000 319.000 211.000 35 42 49
130.000 319.000 211.000 35 42 49
131.000 319.000 211.000 36 42 49
129.000 318.000 212.000 35 42 48
130.000 316.000 213.000 35 41 48
131.000 316.000 212.000 34 40 47
131.000 316.000 213.000 34 40 47
131.000 317.000 212.000 35 41 47
130.000 318.000 212.000 35 41 48
131.000 318.000 212.000 36 42 48
131.000 319.000 212.000 36 42 49
132.000 315.000 212.000 34 40 46
132.000 315.000 213.000 34 40 46
133.000 315.000 212.000 33 39 46
132.000 316.000 213.000 34 40 47
132.000 317.000 213.000 35 41 47
133.000 316.000 212.000 33 39 46
133.000 316.000 213.000 34 40 47
133.000 317.000 213.000 35 41 47
132.000 318.000 212.000 36 41 48
132.000 318.000 213.000 36 41 47
132.000 319.000 212.000 36 42 49
133.000 318.000 213.000 35 41 47
133.000 319.000 212.000 35 41 48
134.000 316.000 213.000 33 40 46
134.000 317.000 213.000 34 40 47
135.000 316.000 213.000 34 40 46
135.000 317.000 213.000 34 40 46
134.000 318.000 213.000 35 41 47
134.000 319.000 212.000 36 42 48
134.000 319.000 213.000 35 41 47
135.000 318.000 213.000 34 40 47
135.000 319.000 212.000 36 42 48
135.000 319.000 213.000 35 41 48
138.000 315.000 212.000 35 42 50
136.000 316.000 213.000 35 41 47
136.000 317.000 213.000 35 41 48
137.000 316.000 213.000 35 41 48
137.000 317.000 213.000 35 41 48
136.000 318.000 213.000 35 41 47
136.000 319.000 212.000 35 41 47
136.000 319.000 213.000 36 42 48
137.000 318.000 213.000 35 41 48
137.000 319.000 213.000 35 41 47
138.000 316.000 212.000 34 42 49
138.000 316.000 213.000 35 42 49
138.000 317.000 213.000 35 41 48
139.000 316.000 213.000 35 42 49
139.000 317.000 213.000 34 42 49
138.000 318.000 213.000 34 41 48
138.000 319.000 213.000 35 41 48
139.000 318.000 213.000 34 41 49
139.000 319.000 213.000 34 41 48
128.000 324.000 207.000 36 43 51
128.000 325.000 207.000 37 44 52
129.000 325.000 207.000 37 45 52
128.000 326.000 206.000 39 46 53
128.000 326.000 207.000 39 46 53
128.000 327.000 206.000 39 46 53
129.000 326.000 207.000 39 46 53
129.000 327.000 206.000 39 46 53
129.000 327.000 207.000 39 46 53
130.000 326.000 207.000 36 44 52
130.000 327.000 206.000 38 45 53
130.000 327.000 207.000 37 45 53
131.000 326.000 207.000 36 43 51
131.000 327.000 206.000 38 45 52
131.000 327.000 207.000 37 44 52
132.000 326.000 207.000 36 43 50
132.000 327.000 206.000 38 44 51
132.000 327.000 207.000 37 43 51
133.000 326.000 207.000 36 43 50
133.000 327.000 206.000 38 44 51
134.000 326.000 207.000 37 44 51
134.000 327.000 206.000 36 43 50
134.000 327.000 207.000 36 43 50
135.000 326.000 207.000 37 43 51
135.000 327.000 207.000 36 43 50
128.000 329.000 205.000 38 46 53
129.000 329.000 205.000 38 45 53
128.000 328.000 206.000 39 46 53
128.000 329.000 206.000 38 45 53
129.000 328.000 206.000 40 46 53
129.000 329.000 206.000 39 46 53
128.000 330.000 205.000 38 45 53
128.000 331.000 204.000 37 45 52
128.000 331.000 205.000 38 45 52
129.000 330.000 205.000 38 45 52
129.000 331.000 204.000 38 45 52
129.000 331.000 205.000 38 45 52
130.000 329.000 205.000 37 44 52
131.000 329.000 205.000 38 45 52
130.000 328.000 206.000 39 45 53
130.000 329.000 206.000 37 44 52
131.000 328.000 206.000 37 45 52
131.000 329.000 206.000 38 45 52
130.000 330.000 205.000 38 44 52
130.000 331.000 204.000 37 44 51
130.000 331.000 205.000 37 44 51
131.000 330.000 205.000 37 44 52
131.000 331.000 204.000 37 44 51
131.000 331.000 205.000 38 44 51
128.000 334.000 203.000 39 45 53
128.000 335.000 202.000 38 45 52
128.000 335.000 203.000 38 45 52
129.000 334.000 203.000 37 44 52
129.000 335.000 202.000 38 45 52
129.000 335.000 203.000 38 44 52
131.000 333.000 203.000 36 44 51
130.000 334.000 203.000 36 43 50
130.000 335.000 202.000 38 45 52
130.000 335.000 203.000 37 44 51
131.000 334.000 203.000 37 44 51
131.000 335.000 202.000 39 46 52
131.000 335.000 203.000 38 45 52
128.000 332.000 204.000 38 45 52
128.000 333.000 204.000 39 45 52
129.000 332.000 204.000 37 44 51
129.000 333.000 204.000 37 45 52
129.000 334.000 204.000 37 44 52
130.000 332.000 204.000 37 44 52
130.000 333.000 204.000 38 45 53
131.000 332.000 204.000 36 44 51
131.000 333.000 204.000 37 44 52
130.000 334.000 204.000 36 44 51
132.000 328.000 205.000 38 44 51
132.000 329.000 205.000 38 44 51
133.000 328.000 205.000 38 44 52
133.000 329.000 205.000 38 45 52
132.000 328.000 206.000 38 45 52
133.000 328.000 206.000 38 45 52
132.000 330.000 204.000 36 43 50
132.000 330.000 205.000 37 44 51
132.000 331.000 204.000 37 44 51
133.000 330.000 204.000 37 44 51
133.000 330.000 205.000 38 44 52
133.000 331.000 204.000 37 44 51
134.000 328.000 205.000 38 44 51
134.000 329.000 205.000 38 44 51
135.000 329.000 205.000 38 44 51
134.000 328.000 206.000 37 43 50
135.000 328.000 206.000 37 44 51
135.000 328.000 207.000 37 44 51
135.000 329.000 206.000 38 44 51
134.000 330.000 204.000 39 45 52
134.000 330.000 205.000 38 44 51
134.000 331.000 204.000 36 43 50
134.000 331.000 205.000 37 44 51
135.000 330.000 205.000 38 44 51
135.000 331.000 205.000 38 44 51
135.000 330.000 206.000 38 44 51
132.000 333.000 203.000 36 43 51
133.000 333.000 203.000 36 43 50
132.000 334.000 203.000 37 44 51
132.000 335.000 202.000 38 44 52
132.000 335.000 203.000 38 45 52
133.000 334.000 203.000 37 44 51
133.000 335.000 202.000 37 44 51
133.000 335.000 203.000 37 43 50
134.000 333.000 203.000 37 43 50
134.000 334.000 203.000 38 44 50
134.000 335.000 202.000 37 43 50
134.000 335.000 203.000 37 43 50
135.000 334.000 203.000 37 43 50
135.000 335.000 203.000 36 43 50
132.000 332.000 204.000 36 43 51
132.000 333.000 204.000 36 43 51
133.000 332.000 204.000 36 43 50
134.000 332.000 204.000 37 44 51
134.000 333.000 204.000 37 44 50
135.000 332.000 204.000 38 44 51
135.000 332.000 205.000 38 44 51
135.000 333.000 204.000 38 44 51
135.000 333.000 205.000 38 44 51
135.000 334.000 204.000 38 44 51
135.000 335.000 204.000 37 43 51
136.000 327.000 207.000 37 44 51
136.000 328.000 207.000 38 44 51
136.000 329.000 207.000 38 44 51
137.000 329.000 207.000 37 44 51
136.000 330.000 206.000 39 45 51
136.000 330.000 207.000 38 44 51
136.000 331.000 206.000 38 45 51
136.000 331.000 207.000 37 44 51
137.000 330.000 207.000 38 44 51
137.000 331.000 207.000 37 44 51
138.000 330.000 207.000 39 45 51
138.000 331.000 207.000 38 45 51
139.000 330.000 207.000 38 44 51
139.000 331.000 207.000 37 44 51
136.000 332.000 205.000 38 44 51
136.000 333.000 205.000 37 44 51
136.000 332.000 206.000 37 44 51
136.000 333.000 206.000 36 43 50
137.000 332.000 207.000 36 43 51
137.000 333.000 206.000 37 43 50
137.000 333.000 207.000 37 44 51
136.000 334.000 204.000 37 44 51
136.000 334.000 205.000 38 44 51
136.000 335.000 204.000 37 44 51
136.000 335.000 205.000 37 44 52
137.000 334.000 205.000 38 44 51
137.000 335.000 205.000 38 45 52
137.000 334.000 206.000 38 45 51
137.000 335.000 206.000 39 45 51
138.000 332.000 207.000 37 44 51
138.000 333.000 207.000 37 44 51
139.000 332.000 207.000 37 44 51
139.000 333.000 207.000 37 44 51
138.000 335.000 205.000 39 46 53
138.000 334.000 206.000 39 45 52
138.000 334.000 207.000 38 45 52
138.000 335.000 206.000 39 45 52
139.000 334.000 206.000 38 45 52
139.000 334.000 207.000 37 44 52
139.000 335.000 206.000 38 45 52
141.000 329.000 207.000 36 43 50
140.000 330.000 207.000 37 44 51
140.000 331.000 207.000 37 44 51
141.000 330.000 207.000 36 43 50
141.000 331.000 206.000 36 43 50
141.000 331.000 207.000 36 43 50
142.000 329.000 207.000 36 42 49
143.000 329.000 207.000 36 41 48
142.000 330.000 207.000 36 42 49
142.000 331.000 206.000 36 42 48
143.000 330.000 206.000 36 42 49
143.000 330.000 207.000 36 42 48
143.000 331.000 206.000 36 42 49
140.000 332.000 207.000 37 44 51
140.000 333.000 206.000 37 44 51
140.000 333.000 207.000 38 44 51
141.000 332.000 206.000 37 44 51
141.000 332.000 207.000 37 44 51
141.000 333.000 206.000 36 43 50
140.000 335.000 205.000 37 44 51
141.000 335.000 205.000 37 44 51
140.000 334.000 206.000 38 44 51
140.000 335.000 206.000 38 45 52
141.000 334.000 206.000 37 43 50
141.000 335.000 206.000 38 44 51
142.000 333.000 205.000 38 44 50
143.000 332.000 205.000 36 42 48
143.000 333.000 205.000 38 44 50
142.000 332.000 206.000 37 43 50
142.000 333.000 206.000 37 43 50
143.000 332.000 206.000 36 42 48
142.000 334.000 205.000 38 44 50
142.000 335.000 205.000 38 44 50
143.000 334.000 204.000 38 43 49
143.000 334.000 205.000 38 44 50
143.000 335.000 204.000 38 44 50
142.000 334.000 206.000 38 44 50
128.000 320.000 209.000 35 42 49
128.000 321.000 209.000 35 42 49
129.000 321.000 209.000 36 43 49
128.000 320.000 210.000 35 42 49
129.000 320.000 210.000 35 42 49
129.000 321.000 210.000 36 43 50
128.000 322.000 209.000 35 42 49
128.000 323.000 208.000 37 43 51
128.000 323.000 209.000 37 43 50
129.000 322.000 209.000 36 43 50
129.000 323.000 209.000 37 44 51
129.000 322.000 210.000 37 43 51
130.000 320.000 210.000 35 42 50
130.000 320.000 211.000 35 42 49
130.000 321.000 210.000 36 43 50
131.000 320.000 211.000 36 42 49
131.000 321.000 210.000 36 43 51
131.000 321.000 211.000 36 43 50
130.000 323.000 209.000 36 44 52
131.000 323.000 209.000 35 43 52
130.000 322.000 210.000 36 43 51
130.000 323.000 210.000 37 44 51
131.000 322.000 210.000 36 43 50
131.000 323.000 210.000 35 43 51
128.000 324.000 208.000 37 44 51
128.000 325.000 208.000 37 44 51
129.000 324.000 208.000 36 44 51
129.000 324.000 209.000 36 43 51
129.000 325.000 208.000 36 44 52
129.000 326.000 208.000 37 45 52
130.000 324.000 209.000 36 44 52
130.000 325.000 208.000 36 44 53
131.000 324.000 209.000 36 44 52
131.000 325.000 208.000 36 44 52
130.000 326.000 208.000 37 45 52
131.000 326.000 208.000 36 43 51
132.000 320.000 211.000 36 42 49
132.000 321.000 211.000 36 42 49
133.000 321.000 211.000 36 43 49
132.000 323.000 209.000 36 44 51
133.000 323.000 209.000 37 44 51
132.000 322.000 210.000 36 43 50
132.000 323.000 210.000 36 43 51
133.000 322.000 210.000 38 44 50
133.000 323.000 210.000 37 43 50
134.000 321.000 211.000 36 42 48
135.000 321.000 211.000 36 42 48
134.000 323.000 209.000 37 43 50
134.000 322.000 210.000 37 43 49
134.000 323.000 210.000 37 43 49
135.000 322.000 210.000 37 43 49
135.000 323.000 210.000 37 42 49
132.000 320.000 212.000 35 42 49
133.000 320.000 212.000 35 42 48
134.000 320.000 212.000 36 42 48
135.000 320.000 212.000 36 41 48
132.000 324.000 208.000 36 44 51
132.000 324.000 209.000 36 44 51
132.000 325.000 208.000 36 43 51
133.000 324.000 208.000 37 43 51
133.000 324.000 209.000 37 43 51
133.000 325.000 208.000 37 44 51
132.000 326.000 208.000 35 43 50
134.000 324.000 208.000 37 43 50
134.000 324.000 209.000 37 43 50
134.000 325.000 208.000 37 43 50
135.000 324.000 208.000 37 43 50
135.000 324.000 209.000 37 43 50
135.000 325.000 208.000 37 43 50
135.000 326.000 208.000 37 43 50
136.000 321.000 211.000 37 43 49
137.000 321.000 211.000 37 43 49
136.000 323.000 209.000 37 43 49
137.000 323.000 209.000 37 43 49
136.000 322.000 210.000 37 43 49
137.000 322.000 210.000 37 43 49
138.000 323.000 209.000 36 42 49
138.000 322.000 210.000 35 42 48
138.000 323.000 210.000 35 42 49
139.000 322.000 211.000 35 42 49
139.000 323.000 210.000 34 41 48
136.000 320.000 212.000 36 41 48
136.000 321.000 212.000 37 42 49
137.000 320.000 212.000 36 41 48
137.000 320.000 213.000 35 41 48
137.000 321.000 212.000 36 42 48
138.000 320.000 213.000 36 42 48
139.000 321.000 212.000 35 42 49
139.000 321.000 213.000 36 42 49
136.000 324.000 208.000 37 43 50
136.000 324.000 209.000 37 43 49
136.000 325.000 208.000 37 43 50
137.000 324.000 209.000 37 43 50
137.000 325.000 208.000 36 43 50
136.000 326.000 208.000 37 44 50
136.000 327.000 208.000 38 44 51
137.000 326.000 208.000 36 43 51
137.000 327.000 208.000 37 44 51
138.000 324.000 209.000 36 43 50
138.000 325.000 208.000 35 42 49
138.000 325.000 209.000 37 43 50
139.000 324.000 209.000 35 42 49
139.000 325.000 209.000 35 42 49
138.000 326.000 208.000 36 43 50
138.000 327.000 208.000 37 44 51
139.000 326.000 208.000 36 42 49
139.000 326.000 209.000 35 42 49
139.000 327.000 208.000 36 43 50
140.000 324.000 209.000 35 42 49
140.000 325.000 209.000 35 42 48
141.000 325.000 209.000 35 41 48
140.000 326.000 208.000 35 42 49
140.000 326.000 209.000 35 42 49
140.000 327.000 208.000 35 42 49
141.000 326.000 208.000 35 42 49
141.000 326.000 209.000 35 41 49
141.000 327.000 208.000 36 42 49
142.000 326.000 208.000 36 42 49
142.000 327.000 208.000 36 42 49
136.000 328.000 208.000 38 45 52
137.000 328.000 208.000 37 44 51
137.000 329.000 208.000 37 44 51
137.000 330.000 208.000 37 44 51
138.000 328.000 208.000 37 44 51
138.000 329.000 208.000 36 44 51
139.000 328.000 208.000 36 43 50
139.000 329.000 208.000 36 43 51
138.000 330.000 208.000 38 45 52
139.000 330.000 208.000 38 44 51
140.000 328.000 208.000 36 43 50
140.000 329.000 208.000 36 43 50
141.000 328.000 208.000 36 43 50
141.000 329.000 208.000 36 43 50
140.000 330.000 208.000 37 43 50
142.000 328.000 208.000 36 43 49
143.000 328.000 208.000 36 42 48
143.000 329.000 208.000 36 42 48
128.000 342.000 199.000 41 48 55
128.000 343.000 199.000 41 48 55
129.000 342.000 199.000 40 46 53
129.000 343.000 199.000 41 47 54
130.000 341.000 199.000 39 46 53
131.000 341.000 199.000 40 46 53
130.000 342.000 199.000 39 46 53
130.000 343.000 199.000 40 46 53
131.000 342.000 199.000 40 46 53
131.000 343.000 198.000 40 47 54
131.000 343.000 199.000 40 47 54
132.000 341.000 199.000 39 45 52
133.000 341.000 199.000 39 45 52
132.000 342.000 199.000 40 46 53
132.000 343.000 198.000 41 47 54
132.000 343.000 199.000 41 47 54
133.000 342.000 199.000 40 46 52
133.000 343.000 198.000 41 47 54
133.000 343.000 199.000 41 47 53
134.000 341.000 199.000 39 45 52
134.000 342.000 199.000 38 45 52
134.000 343.000 199.000 40 46 53
135.000 343.000 199.000 39 46 53
129.000 337.000 201.000 40 46 53
128.000 336.000 202.000 38 45 52
128.000 337.000 202.000 39 46 53
129.000 336.000 202.000 39 46 53
129.000 337.000 202.000 40 46 53
128.000 338.000 201.000 40 46 53
128.000 339.000 201.000 40 46 53
129.000 338.000 201.000 39 46 53
129.000 339.000 201.000 38 45 52
130.000 337.000 201.000 39 45 52
131.000 337.000 201.000 38 44 51
130.000 336.000 202.000 39 45 52
130.000 337.000 202.000 39 45 52
131.000 336.000 202.000 39 45 52
131.000 337.000 202.000 38 45 51
130.000 338.000 201.000 39 45 52
130.000 339.000 201.000 38 45 52
131.000 338.000 201.000 38 44 51
131.000 339.000 200.000 38 45 52
131.000 339.000 201.000 37 44 52
128.000 340.000 200.000 40 46 53
128.000 340.000 201.000 40 46 53
128.000 341.000 200.000 40 46 53
129.000 340.000 200.000 39 45 52
129.000 340.000 201.000 38 45 52
129.000 341.000 200.000 39 46 52
128.000 342.000 200.000 41 48 55
129.000 342.000 200.000 41 47 54
130.000 340.000 200.000 38 45 52
130.000 341.000 200.000 39 45 52
131.000 340.000 200.000 38 44 52
131.000 341.000 200.000 39 46 53
132.000 337.000 201.000 38 44 50
133.000 337.000 201.000 38 44 51
132.000 336.000 202.000 39 45 51
132.000 337.000 202.000 38 44 51
133.000 336.000 202.000 38 44 51
133.000 337.000 202.000 39 45 51
132.000 338.000 201.000 38 44 51
132.000 339.000 200.000 39 45 52
132.000 339.000 201.000 38 44 51
133.000 338.000 201.000 38 44 50
133.000 339.000 200.000 38 44 51
133.000 339.000 201.000 38 44 51
134.000 337.000 201.000 38 44 50
134.000 336.000 202.000 39 45 51
134.000 337.000 202.000 38 44 51
135.000 336.000 202.000 37 43 50
135.000 336.000 203.000 37 43 50
135.000 337.000 202.000 37 44 51
135.000 337.000 203.000 37 44 50
134.000 338.000 201.000 37 43 50
134.000 339.000 201.000 38 44 51
135.000 338.000 201.000 38 44 51
135.000 339.000 201.000 38 44 51
135.000 338.000 202.000 37 44 51
132.000 340.000 200.000 39 45 52
132.000 341.000 200.000 39 45 52
133.000 340.000 200.000 39 45 52
133.000 341.000 200.000 39 45 52
134.000 340.000 200.000 39 45 52
134.000 341.000 200.000 39 45 52
135.000 340.000 200.000 38 45 52
135.000 340.000 201.000 38 44 51
135.000 341.000 200.000 38 45 52
135.000 341.000 201.000 38 45 52
134.000 342.000 200.000 38 44 51
135.000 342.000 200.000 39 45 53
135.000 343.000 200.000 39 46 53
128.000 344.000 198.000 40 47 55
128.000 344.000 199.000 41 48 55
128.000 345.000 198.000 40 47 55
129.000 344.000 198.000 41 48 55
129.000 344.000 199.000 42 48 55
129.000 345.000 198.000 40 47 54
129.000 346.000 197.000 40 47 54
128.000 346.000 198.000 42 48 56
129.000 346.000 198.000 41 47 55
130.000 344.000 198.000 40 47 54
130.000 345.000 198.000 40 47 54
131.000 344.000 198.000 40 47 54
131.000 345.000 198.000 40 47 54
130.000 346.000 197.000 39 46 53
130.000 346.000 198.000 39 46 53
132.000 344.000 198.000 40 47 54
132.000 345.000 198.000 40 46 54
133.000 344.000 198.000 41 48 54
133.000 345.000 198.000 41 47 54
133.000 346.000 198.000 41 47 54
134.000 344.000 198.000 41 48 55
134.000 344.000 199.000 41 47 54
134.000 345.000 198.000 40 47 54
135.000 344.000 199.000 40 47 54
135.000 345.000 198.000 39 46 53
135.000 345.000 199.000 39 46 53
134.000 346.000 198.000 40 47 54
135.000 346.000 198.000 39 46 53
135.000 344.000 200.000 40 47 54
136.000 336.000 203.000 37 44 51
136.000 337.000 202.000 36 44 51
136.000 337.000 203.000 36 44 51
137.000 337.000 203.000 37 44 52
136.000 339.000 201.000 37 44 51
136.000 338.000 202.000 37 44 51
136.000 338.000 203.000 37 44 52
136.000 339.000 202.000 37 44 52
137.000 338.000 203.000 37 44 52
137.000 339.000 202.000 37 44 52
137.000 339.000 203.000 37 44 52
138.000 338.000 203.000 39 45 53
138.000 339.000 203.000 39 45 52
139.000 339.000 203.000 39 45 52
136.000 336.000 204.000 37 44 52
136.000 337.000 204.000 36 44 52
137.000 336.000 204.000 37 44 52
137.000 336.000 205.000 38 45 52
137.000 337.000 204.000 37 44 52
137.000 338.000 204.000 38 45 52
138.000 336.000 205.000 39 46 53
138.000 337.000 204.000 38 45 52
138.000 337.000 205.000 38 45 52
139.000 336.000 205.000 38 45 52
139.000 337.000 204.000 39 45 52
139.000 337.000 205.000 38 45 52
138.000 338.000 204.000 40 46 53
139.000 338.000 204.000 39 46 53
139.000 339.000 204.000 40 46 53
136.000 340.000 201.000 37 44 51
136.000 341.000 201.000 38 45 52
137.000 341.000 201.000 39 45 51
136.000 340.000 202.000 38 45 52
136.000 341.000 202.000 38 45 51
137.000 340.000 202.000 39 45 52
137.000 341.000 202.000 40 46 52
136.000 342.000 200.000 40 46 53
136.000 342.000 201.000 39 45 52
136.000 343.000 200.000 39 46 53
136.000 343.000 201.000 39 46 53
137.000 342.000 201.000 39 45 51
137.000 343.000 201.000 39 45 52
137.000 342.000 202.000 39 45 51
138.000 340.000 202.000 39 46 53
138.000 340.000 203.000 39 46 52
138.000 341.000 202.000 40 46 52
139.000 340.000 203.000 38 45 52
139.000 341.000 202.000 39 45 52
139.000 341.000 203.000 39 45 52
138.000 343.000 201.000 40 45 52
139.000 343.000 201.000 40 46 53
138.000 342.000 202.000 39 45 52
139.000 342.000 202.000 39 45 52
139.000 343.000 202.000 40 46 53
143.000 338.000 203.000 37 44 52
143.000 339.000 203.000 37 45 52
140.000 336.000 205.000 38 44 52
140.000 337.000 204.000 39 45 52
140.000 337.000 205.000 38 45 52
141.000 336.000 205.000 37 44 51
141.000 337.000 204.000 39 45 51
141.000 337.000 205.000 38 44 51
140.000 338.000 204.000 39 45 52
140.000 339.000 204.000 40 46 53
141.000 338.000 204.000 38 45 52
141.000 339.000 204.000 39 46 53
142.000 336.000 204.000 38 44 51
142.000 336.000 205.000 38 44 51
142.000 337.000 204.000 38 44 51
143.000 336.000 204.000 38 44 51
143.000 337.000 204.000 37 44 51
142.000 338.000 204.000 38 45 52
142.000 339.000 204.000 38 45 52
143.000 338.000 204.000 37 45 52
140.000 341.000 203.000 39 45 52
140.000 342.000 202.000 39 46 53
140.000 343.000 202.000 40 46 53
141.000 343.000 202.000 39 46 53
142.000 340.000 203.000 38 45 53
143.000 340.000 203.000 37 45 52
143.000 341.000 203.000 37 44 51
136.000 345.000 199.000 39 46 53
136.000 346.000 198.000 40 46 54
136.000 346.000 199.000 40 46 53
136.000 344.000 200.000 39 46 53
136.000 344.000 201.000 39 46 53
136.000 345.000 200.000 40 46 53
137.000 344.000 201.000 40 46 53
137.000 345.000 200.000 40 46 53
137.000 345.000 201.000 38 44 51
138.000 344.000 201.000 39 45 52
138.000 345.000 200.000 39 45 52
138.000 345.000 201.000 39 45 52
141.000 344.000 201.000 40 46 53
142.000 344.000 201.000 40 46 53
143.000 344.000 201.000 40 46 53
144.000 329.000 207.000 36 42 48
144.000 330.000 206.000 35 42 48
144.000 330.000 207.000 36 42 48
144.000 331.000 206.000 36 42 48
145.000 330.000 207.000 35 41 47
145.000 331.000 206.000 36 42 48
146.000 330.000 207.000 37 42 48
146.000 331.000 206.000 36 41 47
146.000 331.000 207.000 36 41 47
144.000 332.000 205.000 36 42 48
144.000 333.000 204.000 35 41 48
144.000 333.000 205.000 36 41 48
145.000 332.000 205.000 36 42 48
145.000 333.000 204.000 35 41 48
145.000 333.000 205.000 35 41 48
145.000 332.000 206.000 36 42 48
144.000 334.000 204.000 37 44 50
144.000 335.000 204.000 38 44 51
145.000 334.000 204.000 36 42 49
145.000 335.000 204.000 37 43 50
146.000 332.000 205.000 35 41 47
146.000 333.000 205.000 36 42 48
146.000 332.000 206.000 35 41 47
146.000 333.000 206.000 36 41 48
147.000 332.000 206.000 36 41 48
147.000 332.000 207.000 36 41 47
147.000 333.000 206.000 36 41 48
146.000 334.000 204.000 36 42 48
146.000 334.000 205.000 35 41 48
146.000 335.000 204.000 37 43 50
147.000 334.000 205.000 36 42 48
147.000 335.000 205.000 37 43 49
147.000 334.000 206.000 35 41 47
148.000 333.000 207.000 35 41 47
148.000 335.000 205.000 36 43 49
148.000 334.000 206.000 36 42 48
148.000 334.000 207.000 36 42 48
148.000 335.000 206.000 36 42 49
149.000 334.000 207.000 35 42 48
144.000 329.000 208.000 38 43 49
144.000 336.000 203.000 37 44 52
144.000 337.000 203.000 37 44 51
145.000 337.000 203.000 37 44 51
144.000 338.000 203.000 37 44 52
144.000 339.000 203.000 37 44 52
145.000 338.000 203.000 37 44 51
145.000 339.000 203.000 38 44 51
144.000 336.000 204.000 38 44 51
145.000 336.000 204.000 37 44 51
146.000 336.000 204.000 38 44 51
146.000 337.000 204.000 38 44 51
147.000 336.000 204.000 38 43 50
147.000 336.000 205.000 38 44 51
144.000 340.000 203.000 37 44 51
144.000 341.000 203.000 37 44 51
144.000 342.000 202.000 38 45 52
144.000 342.000 203.000 38 45 52
144.000 343.000 202.000 38 45 52
145.000 342.000 202.000 38 45 52
145.000 342.000 203.000 38 45 52
