ply
format ascii 1.0
element vertex 1428
property float x
property float y
property float z
property uchar red
property uchar green
property uchar blue
end_header
79.000 660.000 247.000 72 78 86
79.000 661.000 247.000 73 79 87
78.000 662.000 247.000 75 81 89
78.000 663.000 247.000 76 82 91
79.000 662.000 246.000 75 82 90
79.000 662.000 247.000 73 80 88
79.000 663.000 246.000 75 81 90
79.000 663.000 247.000 76 82 90
75.000 656.000 255.000 83 89 97
75.000 657.000 254.000 76 81 89
75.000 657.000 255.000 81 86 94
75.000 658.000 253.000 75 80 89
75.000 659.000 252.000 73 80 88
75.000 659.000 253.000 74 80 89
74.000 658.000 255.000 80 85 93
74.000 659.000 254.000 75 81 90
74.000 659.000 255.000 76 82 90
75.000 658.000 254.000 75 81 89
75.000 658.000 255.000 78 84 93
75.000 659.000 254.000 74 81 90
75.000 661.000 251.000 84 90 98
75.000 662.000 251.000 88 93 101
75.000 663.000 250.000 79 84 92
75.000 663.000 251.000 87 92 100
73.000 662.000 255.000 78 84 92
73.000 663.000 255.000 79 84 92
74.000 661.000 253.000 85 91 100
75.000 660.000 252.000 81 86 95
75.000 660.000 253.000 79 85 94
75.000 661.000 252.000 88 94 103
75.000 661.000 253.000 89 95 104
74.000 660.000 254.000 77 83 92
74.000 660.000 255.000 76 81 89
74.000 661.000 254.000 80 86 95
74.000 661.000 255.000 76 82 90
75.000 660.000 254.000 76 82 91
74.000 662.000 252.000 93 98 107
74.000 662.000 253.000 87 93 101
74.000 663.000 252.000 86 91 100
74.000 663.000 253.000 81 87 96
75.000 662.000 252.000 93 98 107
75.000 663.000 252.000 91 96 105
74.000 662.000 254.000 79 85 93
74.000 662.000 255.000 77 83 91
74.000 663.000 254.000 79 85 93
74.000 663.000 255.000 78 84 92
77.000 657.000 251.000 71 77 85
77.000 659.000 249.000 72 78 85
76.000 658.000 251.000 71 77 84
76.000 659.000 251.000 73 78 85
77.000 658.000 250.000 70 76 83
77.000 658.000 251.000 70 76 83
77.000 659.000 250.000 72 77 85
77.000 659.000 251.000 72 77 85
78.000 657.000 250.000 70 76 83
78.000 657.000 251.000 70 76 84
78.000 658.000 249.000 70 76 84
78.000 659.000 248.000 69 76 84
78.000 659.000 249.000 70 76 83
79.000 658.000 248.000 72 78 86
79.000 658.000 249.000 71 77 85
79.000 659.000 248.000 70 76 84
79.000 659.000 249.000 69 75 83
78.000 658.000 250.000 69 75 83
76.000 656.000 253.000 76 82 89
76.000 657.000 252.000 71 77 84
76.000 657.000 253.000 73 79 86
77.000 656.000 252.000 76 82 89
77.000 656.000 253.000 77 83 90
77.000 657.000 252.000 72 78 85
76.000 656.000 254.000 78 84 91
76.000 656.000 255.000 80 86 94
76.000 657.000 254.000 76 81 89
76.000 658.000 252.000 72 77 85
76.000 658.000 253.000 73 78 86
76.000 659.000 252.000 73 78 86
77.000 660.000 249.000 74 80 87
77.000 661.000 248.000 76 82 90
77.000 661.000 249.000 74 80 88
76.000 660.000 250.000 74 80 88
76.000 660.000 251.000 75 81 89
76.000 661.000 250.000 76 81 90
76.000 661.000 251.000 79 84 92
77.000 660.000 250.000 74 80 88
76.000 662.000 249.000 74 80 88
76.000 663.000 249.000 77 83 91
77.000 662.000 248.000 77 83 91
77.000 662.000 249.000 74 81 89
77.000 663.000 248.000 79 85 94
76.000 662.000 250.000 78 84 92
76.000 662.000 251.000 83 88 96
76.000 663.000 250.000 76 82 91
78.000 660.000 248.000 71 78 86
78.000 660.000 249.000 73 78 86
78.000 661.000 248.000 73 80 88
79.000 660.000 248.000 71 77 86
79.000 661.000 248.000 72 78 87
78.000 662.000 248.000 76 82 90
77.000 664.000 247.000 81 87 96
77.000 665.000 247.000 81 87 96
76.000 667.000 247.000 81 87 97
77.000 666.000 246.000 80 87 95
77.000 666.000 247.000 81 87 96
77.000 667.000 246.000 82 88 96
77.000 667.000 247.000 82 88 97
79.000 665.000 245.000 74 80 88
78.000 664.000 246.000 75 82 90
78.000 664.000 247.000 78 84 93
78.000 665.000 246.000 77 83 91
78.000 665.000 247.000 77 84 92
79.000 664.000 246.000 73 80 89
79.000 665.000 246.000 74 80 88
78.000 666.000 245.000 80 86 94
78.000 667.000 245.000 81 87 95
79.000 666.000 244.000 77 83 91
79.000 666.000 245.000 77 83 91
79.000 667.000 244.000 77 83 92
79.000 667.000 245.000 80 86 94
78.000 666.000 246.000 79 85 93
78.000 667.000 246.000 81 87 95
79.000 670.000 243.000 92 99 109
79.000 671.000 243.000 95 102 112
76.000 668.000 247.000 80 87 96
76.000 669.000 247.000 80 87 96
77.000 668.000 246.000 81 87 96
77.000 668.000 247.000 81 87 96
77.000 669.000 246.000 80 86 95
77.000 669.000 247.000 80 86 95
76.000 670.000 247.000 82 88 98
76.000 671.000 247.000 85 92 102
77.000 670.000 246.000 80 87 96
77.000 670.000 247.000 81 87 96
77.000 671.000 246.000 83 90 99
77.000 671.000 247.000 84 91 100
78.000 668.000 245.000 81 87 96
78.000 669.000 245.000 82 88 98
79.000 668.000 244.000 80 86 95
79.000 668.000 245.000 80 87 95
79.000 669.000 244.000 86 93 102
79.000 669.000 245.000 82 89 98
78.000 670.000 245.000 84 91 100
78.000 671.000 245.000 85 92 102
79.000 670.000 244.000 91 98 107
79.000 671.000 244.000 94 100 110
75.000 665.000 249.000 84 90 98
74.000 664.000 251.000 79 85 93
74.000 665.000 251.000 80 85 93
75.000 664.000 250.000 80 86 94
75.000 664.000 251.000 81 87 95
75.000 665.000 250.000 80 86 94
75.000 665.000 251.000 80 85 93
75.000 666.000 249.000 82 87 96
75.000 667.000 248.000 80 86 95
75.000 667.000 249.000 80 86 95
74.000 666.000 251.000 79 83 91
74.000 667.000 251.000 78 83 90
75.000 666.000 250.000 79 84 92
75.000 666.000 251.000 79 84 92
75.000 667.000 250.000 79 84 93
73.000 664.000 254.000 78 83 90
73.000 664.000 255.000 79 84 92
73.000 665.000 254.000 76 82 89
73.000 665.000 255.000 77 83 90
73.000 666.000 253.000 76 81 88
73.000 667.000 253.000 76 81 89
72.000 666.000 255.000 76 82 89
72.000 667.000 255.000 76 82 90
73.000 666.000 254.000 76 81 89
73.000 666.000 255.000 76 81 89
73.000 667.000 254.000 76 81 89
73.000 667.000 255.000 76 81 89
74.000 664.000 252.000 80 85 94
74.000 664.000 253.000 79 85 93
74.000 665.000 252.000 77 82 90
74.000 665.000 253.000 77 82 90
74.000 664.000 254.000 79 84 92
74.000 666.000 252.000 75 80 88
74.000 666.000 253.000 76 81 88
74.000 667.000 252.000 75 80 88
75.000 668.000 248.000 80 86 95
75.000 668.000 249.000 79 85 94
75.000 669.000 248.000 81 87 96
75.000 669.000 249.000 81 87 96
74.000 668.000 250.000 79 85 95
74.000 668.000 251.000 79 84 93
74.000 669.000 250.000 83 90 100
74.000 669.000 251.000 85 92 101
75.000 668.000 250.000 79 85 94
75.000 669.000 250.000 81 88 98
75.000 670.000 248.000 87 94 103
75.000 670.000 249.000 90 96 106
75.000 671.000 248.000 93 100 110
75.000 671.000 249.000 96 103 113
74.000 670.000 251.000 97 103 113
74.000 671.000 251.000 96 104 114
75.000 670.000 250.000 94 100 110
75.000 671.000 250.000 98 104 115
73.000 668.000 252.000 75 80 88
73.000 668.000 253.000 75 80 88
73.000 669.000 252.000 76 82 91
73.000 669.000 253.000 74 80 88
72.000 668.000 254.000 76 81 89
72.000 668.000 255.000 80 85 92
72.000 669.000 254.000 75 80 88
72.000 669.000 255.000 80 84 92
73.000 668.000 254.000 75 80 88
73.000 669.000 254.000 74 79 87
73.000 670.000 252.000 79 87 97
73.000 670.000 253.000 74 81 90
73.000 671.000 252.000 84 91 101
73.000 671.000 253.000 77 84 94
72.000 670.000 254.000 75 81 89
72.000 670.000 255.000 77 82 90
72.000 671.000 254.000 75 82 90
72.000 671.000 255.000 77 83 92
73.000 670.000 254.000 74 80 88
73.000 671.000 254.000 75 82 92
74.000 668.000 252.000 76 82 90
74.000 669.000 252.000 80 87 97
74.000 670.000 252.000 90 98 109
74.000 671.000 252.000 91 99 110
76.000 664.000 248.000 86 91 100
76.000 664.000 249.000 82 88 97
76.000 665.000 248.000 89 95 104
76.000 665.000 249.000 87 93 101
77.000 664.000 248.000 85 91 100
77.000 665.000 248.000 86 92 101
76.000 666.000 248.000 86 92 101
76.000 666.000 249.000 87 92 101
76.000 667.000 248.000 81 88 97
76.000 668.000 248.000 80 87 96
76.000 669.000 248.000 80 87 96
76.000 670.000 248.000 84 91 100
76.000 671.000 248.000 89 96 106
83.000 671.000 239.000 76 82 90
84.000 669.000 239.000 72 78 86
84.000 670.000 239.000 73 79 86
84.000 671.000 239.000 75 80 88
80.000 659.000 247.000 70 77 85
81.000 659.000 246.000 69 76 84
81.000 659.000 247.000 71 77 85
82.000 663.000 243.000 75 81 89
83.000 663.000 243.000 73 79 87
80.000 660.000 247.000 70 77 85
80.000 661.000 246.000 74 80 88
80.000 661.000 247.000 73 79 87
81.000 660.000 246.000 70 76 84
81.000 661.000 246.000 75 81 89
80.000 663.000 245.000 83 88 97
81.000 662.000 245.000 85 90 98
81.000 663.000 244.000 82 88 96
81.000 663.000 245.000 85 90 98
80.000 662.000 246.000 80 85 93
80.000 663.000 246.000 81 86 94
81.000 662.000 246.000 82 87 95
82.000 660.000 245.000 70 76 84
82.000 661.000 245.000 75 81 89
83.000 660.000 245.000 69 76 84
83.000 661.000 244.000 75 81 88
83.000 661.000 245.000 73 80 88
82.000 660.000 246.000 70 76 84
82.000 661.000 246.000 73 79 87
82.000 662.000 245.000 80 86 94
82.000 663.000 244.000 79 85 93
82.000 663.000 245.000 83 89 97
83.000 662.000 244.000 77 83 91
83.000 663.000 244.000 77 83 91
84.000 661.000 243.000 71 76 84
84.000 662.000 243.000 72 78 85
84.000 663.000 242.000 71 77 84
84.000 663.000 243.000 72 78 85
85.000 662.000 242.000 69 74 81
85.000 662.000 243.000 69 75 82
85.000 663.000 242.000 70 76 83
86.000 663.000 242.000 70 75 83
84.000 662.000 244.000 75 81 88
80.000 658.000 248.000 75 81 89
80.000 659.000 248.000 72 78 86
81.000 665.000 243.000 71 77 85
80.000 666.000 243.000 73 79 87
80.000 667.000 243.000 75 81 90
81.000 666.000 242.000 70 76 84
81.000 666.000 243.000 71 77 85
81.000 667.000 242.000 72 78 86
81.000 667.000 243.000 74 80 89
82.000 664.000 243.000 73 79 87
82.000 665.000 242.000 72 78 86
82.000 665.000 243.000 71 78 86
83.000 664.000 242.000 71 78 85
83.000 664.000 243.000 73 79 87
83.000 665.000 242.000 73 79 86
82.000 667.000 241.000 71 77 85
83.000 666.000 241.000 74 79 86
83.000 667.000 241.000 72 78 85
82.000 666.000 242.000 71 77 85
82.000 666.000 243.000 71 77 85
82.000 667.000 242.000 71 77 85
83.000 666.000 242.000 73 79 86
80.000 664.000 245.000 76 83 91
80.000 665.000 244.000 73 79 87
80.000 665.000 245.000 74 80 88
81.000 664.000 244.000 76 83 91
81.000 665.000 244.000 72 78 86
80.000 664.000 246.000 75 81 89
80.000 666.000 244.000 73 79 87
80.000 667.000 244.000 74 81 89
82.000 664.000 244.000 75 82 90
81.000 669.000 241.000 78 84 93
80.000 668.000 243.000 79 85 94
80.000 669.000 242.000 87 94 102
80.000 669.000 243.000 87 94 103
81.000 668.000 242.000 75 81 90
81.000 669.000 242.000 80 87 95
81.000 670.000 241.000 84 90 98
81.000 671.000 241.000 88 95 104
80.000 670.000 242.000 92 98 108
80.000 670.000 243.000 92 99 108
80.000 671.000 242.000 94 100 110
80.000 671.000 243.000 95 101 111
81.000 670.000 242.000 90 96 105
81.000 671.000 242.000 93 99 109
82.000 668.000 241.000 72 78 86
82.000 669.000 241.000 74 80 88
83.000 668.000 241.000 72 78 86
83.000 669.000 240.000 73 79 86
83.000 669.000 241.000 73 79 86
82.000 668.000 242.000 71 78 86
82.000 670.000 240.000 77 83 91
82.000 670.000 241.000 78 85 93
82.000 671.000 240.000 79 85 94
82.000 671.000 241.000 83 89 98
83.000 670.000 240.000 74 80 88
80.000 668.000 244.000 81 87 96
84.000 665.000 241.000 72 78 85
85.000 664.000 241.000 73 78 85
85.000 665.000 241.000 74 79 86
84.000 664.000 242.000 72 78 86
84.000 665.000 242.000 73 78 86
85.000 664.000 242.000 72 78 85
84.000 666.000 241.000 73 78 86
84.000 667.000 240.000 71 77 84
84.000 667.000 241.000 72 77 85
85.000 667.000 240.000 71 76 84
86.000 664.000 241.000 74 80 87
86.000 665.000 241.000 77 82 89
87.000 664.000 241.000 77 82 90
86.000 666.000 240.000 72 78 86
84.000 668.000 240.000 71 77 85
84.000 668.000 241.000 71 77 85
84.000 669.000 240.000 72 77 85
79.000 672.000 243.000 97 103 113
79.000 673.000 243.000 91 98 108
79.000 674.000 243.000 92 98 109
79.000 675.000 243.000 95 102 113
76.000 672.000 247.000 93 100 110
76.000 673.000 247.000 100 107 117
77.000 672.000 246.000 87 94 104
77.000 672.000 247.000 90 97 107
77.000 673.000 246.000 91 98 108
77.000 673.000 247.000 94 101 112
76.000 674.000 247.000 100 107 118
76.000 675.000 247.000 100 106 117
77.000 674.000 246.000 96 102 113
77.000 674.000 247.000 97 104 115
77.000 675.000 246.000 100 106 117
77.000 675.000 247.000 100 106 117
78.000 672.000 245.000 86 93 103
78.000 673.000 245.000 88 95 105
79.000 672.000 244.000 93 100 110
79.000 673.000 244.000 90 96 106
78.000 674.000 245.000 93 99 110
78.000 675.000 245.000 97 104 114
79.000 674.000 244.000 92 98 108
79.000 675.000 244.000 96 103 114
79.000 675.000 245.000 98 105 116
78.000 674.000 246.000 97 103 114
78.000 675.000 246.000 100 106 117
79.000 676.000 243.000 100 106 117
77.000 676.000 247.000 104 110 120
77.000 677.000 247.000 105 111 121
78.000 676.000 245.000 104 110 121
78.000 677.000 245.000 111 117 129
79.000 676.000 244.000 103 110 121
79.000 676.000 245.000 106 112 123
79.000 677.000 244.000 111 118 130
79.000 677.000 245.000 114 120 132
78.000 676.000 246.000 104 111 121
78.000 677.000 246.000 110 117 128
78.000 677.000 247.000 108 114 125
79.000 678.000 244.000 123 130 142
79.000 678.000 245.000 119 126 138
79.000 679.000 245.000 122 128 140
78.000 678.000 246.000 109 116 127
78.000 678.000 247.000 108 114 124
78.000 679.000 247.000 109 114 125
79.000 678.000 246.000 112 119 131
79.000 679.000 246.000 112 118 130
79.000 679.000 247.000 110 116 127
75.000 672.000 248.000 94 101 112
75.000 672.000 249.000 98 105 116
75.000 673.000 249.000 105 112 124
74.000 672.000 251.000 97 105 117
74.000 673.000 251.000 99 107 120
75.000 672.000 250.000 100 107 118
75.000 673.000 250.000 101 109 121
75.000 674.000 249.000 102 109 121
75.000 675.000 249.000 97 105 116
74.000 674.000 251.000 97 106 118
74.000 675.000 251.000 98 107 120
75.000 674.000 250.000 100 108 120
75.000 674.000 251.000 98 107 119
75.000 675.000 250.000 97 105 117
75.000 675.000 251.000 99 107 120
73.000 672.000 252.000 89 97 108
73.000 672.000 253.000 82 89 100
73.000 673.000 252.000 98 106 118
73.000 673.000 253.000 96 103 114
72.000 672.000 254.000 78 85 95
72.000 672.000 255.000 80 86 95
72.000 673.000 254.000 83 90 100
72.000 673.000 255.000 82 88 97
73.000 672.000 254.000 79 86 95
73.000 673.000 254.000 89 96 107
73.000 674.000 252.000 97 106 119
73.000 674.000 253.000 99 107 119
73.000 675.000 252.000 102 111 123
73.000 675.000 253.000 105 113 125
72.000 674.000 254.000 93 100 111
72.000 674.000 255.000 87 93 103
72.000 675.000 254.000 100 106 117
72.000 675.000 255.000 92 98 108
73.000 674.000 254.000 97 104 115
73.000 675.000 254.000 107 114 124
74.000 672.000 252.000 93 101 113
74.000 673.000 252.000 99 107 120
74.000 674.000 252.000 97 106 119
74.000 675.000 252.000 101 110 123
75.000 676.000 250.000 97 105 117
75.000 676.000 251.000 108 116 128
75.000 677.000 251.000 113 119 131
75.000 678.000 251.000 110 117 128
73.000 676.000 253.000 103 111 123
73.000 677.000 253.000 102 108 119
72.000 676.000 254.000 102 108 119
72.000 676.000 255.000 91 97 107
72.000 677.000 255.000 92 98 109
73.000 676.000 254.000 98 105 116
73.000 677.000 254.000 97 103 114
73.000 677.000 255.000 94 100 111
72.000 678.000 255.000 96 102 113
73.000 678.000 254.000 99 105 115
73.000 678.000 255.000 98 104 114
73.000 679.000 255.000 100 107 117
74.000 676.000 252.000 109 117 129
74.000 677.000 252.000 113 120 131
74.000 677.000 253.000 106 113 124
75.000 677.000 252.000 116 123 135
74.000 678.000 252.000 112 118 129
74.000 678.000 253.000 107 113 124
74.000 679.000 253.000 108 113 124
75.000 678.000 252.000 112 119 130
75.000 679.000 252.000 112 118 129
75.000 679.000 253.000 111 116 127
74.000 678.000 254.000 102 108 118
74.000 679.000 254.000 106 111 121
74.000 679.000 255.000 104 110 120
75.000 679.000 254.000 109 114 124
76.000 672.000 248.000 95 102 112
76.000 673.000 248.000 106 113 124
76.000 674.000 248.000 103 109 121
76.000 674.000 249.000 105 111 123
76.000 675.000 248.000 100 106 117
76.000 675.000 249.000 97 104 116
76.000 676.000 248.000 102 108 118
76.000 676.000 249.000 98 105 116
76.000 677.000 249.000 101 107 118
77.000 676.000 248.000 104 109 119
77.000 677.000 248.000 104 109 119
77.000 677.000 249.000 102 108 119
76.000 676.000 250.000 97 105 116
76.000 677.000 250.000 103 110 121
77.000 678.000 248.000 107 112 123
77.000 678.000 249.000 104 111 122
77.000 679.000 248.000 107 112 123
77.000 679.000 249.000 108 114 125
76.000 678.000 250.000 102 109 121
76.000 678.000 251.000 105 112 124
76.000 679.000 250.000 107 114 126
76.000 679.000 251.000 109 115 127
77.000 679.000 250.000 109 116 128
78.000 678.000 248.000 107 112 123
78.000 679.000 248.000 108 114 125
76.000 679.000 252.000 111 117 129
79.000 680.000 245.000 114 121 133
78.000 680.000 247.000 109 114 125
79.000 680.000 246.000 110 117 128
79.000 680.000 247.000 109 114 125
79.000 681.000 246.000 106 112 123
79.000 681.000 247.000 105 110 121
79.000 682.000 247.000 103 108 119
79.000 683.000 247.000 99 105 116
79.000 684.000 247.000 95 100 111
75.000 680.000 252.000 113 119 130
75.000 680.000 253.000 112 117 128
74.000 680.000 254.000 108 114 124
74.000 680.000 255.000 106 112 123
74.000 681.000 255.000 109 114 125
75.000 680.000 254.000 111 116 127
75.000 681.000 254.000 110 115 126
75.000 681.000 255.000 110 115 126
75.000 682.000 255.000 108 114 125
75.000 683.000 255.000 108 114 125
77.000 680.000 249.000 111 118 130
76.000 680.000 251.000 116 123 135
77.000 680.000 250.000 120 126 138
77.000 680.000 251.000 123 129 141
77.000 681.000 250.000 111 117 129
77.000 681.000 251.000 119 125 137
77.000 682.000 251.000 106 113 124
77.000 683.000 251.000 101 107 118
78.000 680.000 248.000 110 115 126
78.000 680.000 249.000 109 115 126
78.000 681.000 248.000 106 112 123
78.000 681.000 249.000 105 112 123
79.000 680.000 248.000 109 114 125
79.000 681.000 248.000 107 113 123
78.000 681.000 250.000 108 115 127
78.000 682.000 248.000 104 110 121
78.000 682.000 249.000 103 109 120
78.000 683.000 249.000 102 107 118
79.000 682.000 248.000 103 109 120
79.000 683.000 248.000 101 107 118
79.000 683.000 249.000 102 107 117
78.000 682.000 250.000 102 109 120
78.000 683.000 250.000 99 105 116
78.000 683.000 251.000 101 107 118
76.000 680.000 252.000 113 119 131
76.000 680.000 253.000 110 116 127
76.000 681.000 252.000 112 118 130
76.000 681.000 253.000 109 115 126
77.000 681.000 252.000 113 119 131
76.000 681.000 254.000 109 115 125
76.000 682.000 252.000 108 114 125
76.000 682.000 253.000 108 113 124
76.000 683.000 253.000 104 110 120
77.000 682.000 252.000 107 113 124
77.000 683.000 252.000 101 107 118
77.000 683.000 253.000 102 108 119
76.000 682.000 254.000 108 113 124
76.000 683.000 254.000 106 112 123
76.000 683.000 255.000 113 118 130
77.000 684.000 251.000 99 105 115
78.000 684.000 249.000 99 105 115
79.000 684.000 248.000 95 101 112
79.000 684.000 249.000 97 103 113
79.000 685.000 248.000 95 100 110
79.000 685.000 249.000 94 99 109
78.000 684.000 250.000 98 104 114
78.000 684.000 251.000 99 104 114
78.000 685.000 250.000 96 101 111
78.000 685.000 251.000 95 100 110
79.000 685.000 250.000 95 100 110
79.000 686.000 248.000 95 101 111
79.000 686.000 249.000 94 99 109
79.000 687.000 248.000 97 103 113
79.000 687.000 249.000 96 102 111
78.000 686.000 250.000 94 99 108
78.000 686.000 251.000 93 99 108
78.000 687.000 251.000 95 101 111
79.000 686.000 250.000 93 98 108
79.000 687.000 250.000 91 96 106
77.000 684.000 252.000 99 104 115
77.000 684.000 253.000 99 105 116
77.000 685.000 252.000 98 104 114
77.000 685.000 253.000 98 103 113
76.000 684.000 254.000 105 111 123
76.000 684.000 255.000 114 120 131
76.000 685.000 255.000 103 109 121
77.000 684.000 254.000 103 110 121
77.000 685.000 254.000 99 105 116
77.000 685.000 255.000 101 107 118
77.000 686.000 253.000 98 103 113
77.000 687.000 253.000 96 101 111
76.000 686.000 255.000 99 105 114
77.000 686.000 254.000 97 102 112
77.000 686.000 255.000 97 102 112
77.000 687.000 254.000 94 99 109
77.000 687.000 255.000 97 102 111
78.000 684.000 252.000 98 103 113
78.000 685.000 252.000 95 101 110
78.000 686.000 252.000 95 101 111
78.000 687.000 252.000 93 99 109
78.000 687.000 253.000 96 102 112
79.000 688.000 248.000 101 107 117
79.000 688.000 249.000 101 106 116
79.000 689.000 248.000 105 110 121
79.000 689.000 249.000 101 106 116
78.000 688.000 251.000 100 105 115
78.000 689.000 251.000 102 108 118
79.000 688.000 250.000 93 99 108
79.000 688.000 251.000 96 102 112
79.000 689.000 250.000 95 100 110
79.000 689.000 251.000 99 104 114
79.000 690.000 248.000 103 109 119
79.000 690.000 249.000 99 105 114
79.000 691.000 249.000 101 107 116
78.000 690.000 251.000 100 106 116
79.000 690.000 250.000 92 98 107
79.000 690.000 251.000 96 102 112
79.000 691.000 250.000 96 101 110
79.000 691.000 251.000 96 102 112
77.000 688.000 254.000 101 107 117
77.000 688.000 255.000 104 109 119
77.000 689.000 254.000 108 114 125
77.000 689.000 255.000 107 113 124
77.000 690.000 254.000 107 114 124
77.000 690.000 255.000 106 112 122
78.000 688.000 252.000 100 106 116
78.000 688.000 253.000 101 107 117
78.000 689.000 252.000 105 111 121
78.000 689.000 253.000 103 109 120
78.000 689.000 254.000 105 112 123
78.000 690.000 252.000 102 108 118
78.000 690.000 253.000 103 110 121
78.000 691.000 255.000 93 99 110
83.000 672.000 239.000 77 83 92
83.000 673.000 239.000 80 87 96
83.000 675.000 238.000 86 92 102
83.000 676.000 238.000 88 95 105
83.000 677.000 238.000 92 99 110
83.000 678.000 238.000 97 105 116
83.000 679.000 238.000 105 112 123
83.000 679.000 239.000 105 112 124
83.000 680.000 238.000 108 115 126
83.000 680.000 239.000 107 114 126
83.000 681.000 239.000 106 113 124
83.000 682.000 239.000 106 112 123
81.000 672.000 241.000 87 93 103
81.000 673.000 241.000 83 89 99
80.000 672.000 242.000 93 100 109
80.000 672.000 243.000 96 102 112
80.000 673.000 242.000 89 96 106
80.000 673.000 243.000 92 99 108
81.000 672.000 242.000 87 94 103
81.000 673.000 242.000 85 92 101
81.000 674.000 241.000 86 92 102
81.000 675.000 241.000 90 96 106
80.000 674.000 242.000 90 97 106
80.000 674.000 243.000 92 98 108
80.000 675.000 242.000 94 100 110
80.000 675.000 243.000 95 102 112
81.000 674.000 242.000 87 94 103
81.000 675.000 242.000 93 99 109
82.000 672.000 240.000 79 86 95
82.000 672.000 241.000 82 89 98
82.000 673.000 240.000 80 87 96
82.000 673.000 241.000 81 88 97
83.000 672.000 240.000 77 83 92
82.000 674.000 240.000 84 90 100
82.000 674.000 241.000 83 90 99
82.000 675.000 240.000 88 95 105
81.000 676.000 241.000 95 101 112
81.000 677.000 241.000 104 110 121
80.000 676.000 242.000 99 105 115
80.000 676.000 243.000 101 108 118
80.000 677.000 242.000 104 110 121
80.000 677.000 243.000 106 112 124
81.000 676.000 242.000 98 104 115
81.000 677.000 242.000 103 110 120
81.000 678.000 241.000 108 114 125
81.000 679.000 241.000 110 117 128
80.000 678.000 243.000 115 122 134
80.000 679.000 243.000 121 128 140
81.000 678.000 242.000 110 116 127
81.000 679.000 242.000 114 120 132
81.000 679.000 243.000 118 124 137
82.000 676.000 240.000 91 98 109
82.000 676.000 241.000 95 102 112
82.000 677.000 240.000 98 105 116
82.000 677.000 241.000 101 107 118
82.000 678.000 240.000 103 110 122
82.000 678.000 241.000 109 115 126
82.000 679.000 240.000 108 115 127
82.000 679.000 241.000 110 117 129
83.000 679.000 240.000 108 115 126
80.000 677.000 244.000 111 118 130
80.000 678.000 244.000 119 126 138
80.000 679.000 244.000 123 130 143
80.000 679.000 245.000 124 130 142
81.000 680.000 242.000 112 119 131
81.000 680.000 243.000 114 121 133
81.000 681.000 243.000 111 117 128
81.000 682.000 243.000 105 111 122
82.000 680.000 240.000 112 119 131
82.000 680.000 241.000 113 120 132
82.000 681.000 240.000 115 121 133
82.000 681.000 241.000 120 125 137
83.000 680.000 240.000 111 117 129
83.000 681.000 240.000 110 117 128
82.000 680.000 242.000 116 122 134
82.000 681.000 242.000 117 123 134
82.000 682.000 241.000 116 121 132
82.000 683.000 241.000 107 112 122
83.000 682.000 240.000 110 115 126
83.000 683.000 240.000 104 110 120
82.000 682.000 242.000 114 120 130
82.000 682.000 243.000 109 115 126
82.000 683.000 242.000 106 111 122
82.000 683.000 243.000 101 106 117
80.000 680.000 244.000 116 122 135
80.000 680.000 245.000 111 118 129
80.000 681.000 244.000 107 113 124
80.000 681.000 245.000 106 112 123
81.000 680.000 244.000 115 121 132
81.000 681.000 244.000 109 115 125
80.000 680.000 246.000 107 114 125
80.000 681.000 246.000 105 111 122
80.000 682.000 245.000 103 109 120
80.000 683.000 245.000 98 104 115
81.000 682.000 244.000 102 108 119
81.000 682.000 245.000 101 107 118
81.000 683.000 244.000 97 102 112
81.000 683.000 245.000 98 103 114
80.000 682.000 246.000 104 110 121
80.000 682.000 247.000 103 108 119
80.000 683.000 246.000 98 104 114
80.000 683.000 247.000 100 106 117
82.000 684.000 241.000 97 102 111
82.000 685.000 241.000 92 98 108
83.000 684.000 240.000 97 103 112
83.000 684.000 241.000 98 103 112
83.000 685.000 240.000 91 97 106
83.000 685.000 241.000 92 98 107
82.000 684.000 242.000 96 102 112
82.000 684.000 243.000 93 99 109
82.000 685.000 242.000 91 97 107
82.000 685.000 243.000 87 93 103
82.000 686.000 241.000 90 95 105
82.000 687.000 240.000 87 92 101
82.000 687.000 241.000 89 95 104
83.000 686.000 240.000 89 94 104
83.000 687.000 240.000 90 96 105
82.000 686.000 242.000 88 94 103
82.000 686.000 243.000 86 92 102
82.000 687.000 242.000 85 91 100
82.000 687.000 243.000 88 94 103
81.000 684.000 244.000 91 96 105
81.000 684.000 245.000 91 96 106
81.000 685.000 244.000 87 94 103
81.000 685.000 245.000 88 95 105
80.000 684.000 246.000 91 97 107
80.000 684.000 247.000 95 101 111
80.000 685.000 246.000 90 96 106
80.000 685.000 247.000 92 98 108
81.000 686.000 244.000 89 95 105
81.000 686.000 245.000 97 104 114
81.000 687.000 244.000 95 100 110
81.000 687.000 245.000 101 107 118
80.000 686.000 246.000 96 103 113
80.000 686.000 247.000 93 100 109
80.000 687.000 246.000 99 106 117
80.000 687.000 247.000 95 102 113
80.000 686.000 248.000 96 102 112
80.000 687.000 248.000 96 102 112
81.000 688.000 243.000 93 99 108
81.000 689.000 243.000 99 105 115
81.000 690.000 243.000 97 104 114
81.000 691.000 243.000 88 95 105
82.000 688.000 240.000 87 92 102
82.000 688.000 241.000 88 94 103
82.000 689.000 240.000 87 93 102
82.000 689.000 241.000 88 94 102
83.000 688.000 240.000 88 94 103
83.000 689.000 240.000 86 92 100
82.000 688.000 242.000 87 93 102
82.000 688.000 243.000 89 96 105
82.000 689.000 242.000 93 98 107
82.000 689.000 243.000 95 101 111
82.000 690.000 240.000 89 94 103
82.000 690.000 241.000 89 95 104
82.000 690.000 242.000 96 102 112
82.000 691.000 242.000 89 95 105
81.000 688.000 244.000 96 102 111
81.000 688.000 245.000 98 105 115
81.000 689.000 244.000 99 105 115
81.000 689.000 245.000 101 108 119
80.000 688.000 246.000 97 105 116
80.000 688.000 247.000 96 103 113
80.000 689.000 246.000 100 107 118
80.000 689.000 247.000 102 108 118
81.000 690.000 244.000 96 103 113
81.000 690.000 245.000 98 105 116
81.000 691.000 244.000 93 100 110
81.000 691.000 245.000 90 98 108
80.000 690.000 246.000 99 107 118
80.000 690.000 247.000 105 111 122
80.000 691.000 246.000 94 102 113
80.000 691.000 247.000 101 108 119
82.000 692.000 242.000 85 92 101
81.000 692.000 245.000 96 102 112
80.000 688.000 248.000 97 104 114
80.000 689.000 248.000 103 109 119
80.000 690.000 248.000 104 111 121
80.000 691.000 248.000 106 112 123
75.000 655.000 257.000 96 102 111
75.000 655.000 258.000 98 104 114
75.000 655.000 259.000 104 111 121
75.000 655.000 260.000 110 116 125
75.000 655.000 261.000 111 117 128
75.000 655.000 262.000 105 112 123
76.000 655.000 257.000 89 95 104
76.000 655.000 258.000 92 98 108
76.000 655.000 260.000 113 118 127
71.000 666.000 259.000 89 94 103
71.000 667.000 258.000 87 92 100
71.000 667.000 259.000 89 94 103
71.000 665.000 260.000 87 93 102
71.000 665.000 261.000 87 93 103
71.000 665.000 262.000 90 95 104
71.000 665.000 263.000 92 97 106
71.000 666.000 260.000 88 94 103
71.000 666.000 261.000 87 93 103
71.000 667.000 260.000 89 95 104
71.000 667.000 261.000 89 95 104
71.000 666.000 262.000 90 95 105
71.000 666.000 263.000 91 97 106
71.000 667.000 262.000 93 99 108
71.000 667.000 263.000 93 98 108
71.000 669.000 257.000 82 87 96
71.000 668.000 258.000 86 91 99
71.000 668.000 259.000 88 93 101
71.000 669.000 258.000 84 89 97
71.000 669.000 259.000 85 91 99
71.000 670.000 256.000 77 83 92
71.000 670.000 257.000 81 86 94
71.000 671.000 256.000 78 84 93
71.000 671.000 257.000 81 87 97
70.000 671.000 259.000 87 93 102
71.000 670.000 258.000 85 90 98
71.000 670.000 259.000 86 91 99
71.000 671.000 258.000 88 94 103
71.000 671.000 259.000 88 93 102
70.000 669.000 261.000 88 94 103
71.000 668.000 260.000 90 95 104
71.000 668.000 261.000 92 98 107
71.000 669.000 260.000 87 93 101
71.000 669.000 261.000 88 94 103
70.000 669.000 262.000 96 102 111
70.000 669.000 263.000 100 106 115
71.000 668.000 262.000 101 106 115
71.000 668.000 263.000 102 107 117
71.000 669.000 262.000 94 100 110
70.000 670.000 260.000 86 91 100
70.000 670.000 261.000 87 92 101
70.000 671.000 260.000 86 92 100
70.000 671.000 261.000 87 93 102
71.000 670.000 260.000 86 91 99
70.000 670.000 262.000 90 96 105
70.000 670.000 263.000 93 99 108
70.000 671.000 262.000 88 94 104
70.000 671.000 263.000 90 96 105
71.000 665.000 264.000 93 98 106
71.000 665.000 265.000 93 99 108
71.000 665.000 266.000 93 98 108
71.000 665.000 267.000 91 97 107
71.000 666.000 264.000 92 97 106
71.000 666.000 265.000 94 100 109
71.000 667.000 264.000 91 97 107
71.000 667.000 265.000 93 99 109
71.000 666.000 266.000 100 105 114
71.000 666.000 267.000 102 108 117
71.000 667.000 266.000 101 106 115
71.000 667.000 267.000 105 109 118
71.000 666.000 268.000 98 103 112
71.000 667.000 268.000 100 105 115
71.000 667.000 269.000 90 97 107
69.000 671.000 264.000 91 97 106
69.000 671.000 265.000 91 97 105
69.000 671.000 266.000 91 96 104
69.000 671.000 267.000 90 95 103
70.000 668.000 264.000 97 103 112
70.000 668.000 265.000 94 100 110
70.000 669.000 264.000 96 102 112
70.000 669.000 265.000 93 99 108
71.000 668.000 264.000 93 100 110
71.000 668.000 265.000 93 99 109
70.000 668.000 266.000 90 96 106
70.000 668.000 267.000 90 95 104
70.000 669.000 266.000 88 94 103
70.000 669.000 267.000 84 90 99
71.000 668.000 266.000 95 101 110
71.000 668.000 267.000 97 102 111
70.000 670.000 264.000 92 97 106
70.000 670.000 265.000 90 95 104
70.000 671.000 264.000 90 96 104
70.000 670.000 266.000 88 93 102
70.000 670.000 267.000 85 90 98
70.000 671.000 267.000 87 92 101
70.000 668.000 268.000 90 95 105
70.000 668.000 269.000 84 90 100
70.000 669.000 268.000 83 89 98
70.000 669.000 269.000 79 85 95
71.000 668.000 268.000 95 100 109
70.000 670.000 268.000 81 87 95
70.000 670.000 269.000 76 82 91
70.000 671.000 268.000 83 88 96
70.000 671.000 269.000 78 83 91
73.000 659.000 259.000 86 94 106
75.000 656.000 256.000 88 94 103
75.000 656.000 257.000 98 104 113
75.000 657.000 256.000 88 94 102
75.000 657.000 257.000 97 103 112
74.000 657.000 258.000 97 103 114
74.000 657.000 259.000 95 102 113
75.000 656.000 258.000 102 109 120
75.000 656.000 259.000 102 110 121
75.000 657.000 258.000 100 106 116
75.000 657.000 259.000 98 106 117
74.000 658.000 256.000 82 88 96
74.000 658.000 257.000 86 92 100
74.000 659.000 256.000 80 85 93
74.000 659.000 257.000 82 88 96
75.000 658.000 256.000 84 90 98
74.000 658.000 258.000 86 92 102
74.000 658.000 259.000 88 95 106
74.000 659.000 258.000 83 89 98
74.000 659.000 259.000 83 92 102
73.000 658.000 260.000 93 101 112
73.000 658.000 261.000 95 103 114
73.000 659.000 260.000 95 103 114
73.000 659.000 261.000 96 104 115
73.000 658.000 262.000 104 112 122
73.000 658.000 263.000 111 117 128
73.000 659.000 262.000 105 112 123
73.000 659.000 263.000 113 119 129
74.000 656.000 261.000 109 116 128
74.000 657.000 260.000 99 107 118
74.000 657.000 261.000 107 115 126
75.000 656.000 260.000 105 112 123
75.000 656.000 261.000 109 116 127
74.000 656.000 262.000 105 112 124
74.000 656.000 263.000 100 107 118
74.000 657.000 262.000 106 114 126
74.000 657.000 263.000 105 112 123
75.000 656.000 262.000 103 111 122
75.000 656.000 263.000 95 102 113
74.000 658.000 260.000 93 100 111
74.000 658.000 261.000 98 105 116
74.000 658.000 262.000 106 113 124
74.000 658.000 263.000 111 117 128
73.000 660.000 257.000 82 87 95
73.000 661.000 256.000 80 85 93
73.000 661.000 257.000 82 87 96
73.000 660.000 258.000 83 89 98
73.000 660.000 259.000 89 96 107
73.000 661.000 258.000 83 89 97
73.000 661.000 259.000 88 95 104
73.000 662.000 256.000 79 85 93
73.000 662.000 257.000 81 87 96
73.000 663.000 256.000 81 86 95
73.000 663.000 257.000 86 92 101
72.000 662.000 259.000 87 93 101
72.000 663.000 258.000 91 97 106
72.000 663.000 259.000 89 95 103
73.000 662.000 258.000 84 90 98
73.000 662.000 259.000 87 92 101
73.000 663.000 258.000 91 97 106
74.000 660.000 256.000 78 83 91
74.000 660.000 257.000 80 86 94
74.000 661.000 256.000 78 83 91
74.000 660.000 258.000 83 88 97
74.000 662.000 256.000 77 83 91
72.000 661.000 261.000 92 98 108
73.000 660.000 260.000 99 106 116
73.000 660.000 261.000 98 105 116
73.000 661.000 260.000 92 98 108
73.000 661.000 261.000 95 101 112
72.000 661.000 262.000 92 99 108
72.000 661.000 263.000 93 99 108
73.000 660.000 262.000 98 105 116
73.000 660.000 263.000 101 107 117
73.000 661.000 262.000 94 100 111
73.000 661.000 263.000 94 100 109
72.000 662.000 260.000 89 95 104
72.000 662.000 261.000 91 97 107
72.000 663.000 260.000 90 95 104
72.000 663.000 261.000 91 97 106
72.000 662.000 262.000 93 99 108
72.000 662.000 263.000 93 99 108
72.000 663.000 262.000 93 98 107
72.000 663.000 263.000 95 100 108
76.000 656.000 256.000 84 90 99
73.000 659.000 264.000 110 116 126
73.000 659.000 265.000 102 108 118
73.000 659.000 266.000 98 104 114
74.000 657.000 264.000 100 107 117
74.000 657.000 265.000 99 105 116
75.000 656.000 264.000 95 101 111
75.000 656.000 265.000 97 102 111
75.000 657.000 265.000 98 104 114
75.000 656.000 266.000 98 103 112
75.000 656.000 267.000 97 102 112
75.000 657.000 266.000 99 105 115
75.000 657.000 267.000 99 105 115
74.000 658.000 264.000 106 112 123
74.000 658.000 265.000 99 106 116
74.000 659.000 265.000 99 106 116
74.000 658.000 266.000 99 105 115
74.000 658.000 267.000 107 112 122
74.000 659.000 266.000 99 104 114
74.000 659.000 267.000 104 109 119
75.000 658.000 267.000 104 109 119
75.000 657.000 268.000 101 107 117
75.000 657.000 269.000 101 107 118
74.000 658.000 268.000 108 114 125
74.000 659.000 268.000 108 113 123
74.000 659.000 269.000 111 116 127
75.000 658.000 268.000 109 116 126
75.000 658.000 269.000 108 115 126
73.000 660.000 264.000 100 106 116
73.000 660.000 265.000 99 105 115
73.000 661.000 264.000 95 101 110
73.000 661.000 265.000 96 102 111
73.000 660.000 266.000 99 104 113
73.000 660.000 267.000 98 103 113
73.000 661.000 266.000 96 101 110
73.000 661.000 267.000 92 97 106
72.000 662.000 264.000 94 99 108
72.000 662.000 265.000 94 99 108
72.000 663.000 264.000 96 101 109
72.000 663.000 265.000 95 99 107
73.000 662.000 265.000 95 100 109
72.000 662.000 266.000 93 98 106
72.000 663.000 266.000 91 95 104
72.000 663.000 267.000 85 90 99
73.000 662.000 266.000 93 98 107
73.000 662.000 267.000 88 93 102
73.000 663.000 267.000 85 89 98
74.000 660.000 267.000 102 107 116
73.000 660.000 268.000 98 103 113
73.000 661.000 268.000 90 95 104
73.000 661.000 269.000 89 94 103
72.000 663.000 268.000 81 86 94
72.000 663.000 269.000 78 83 91
73.000 662.000 268.000 83 88 97
73.000 662.000 269.000 79 85 94
73.000 663.000 268.000 81 86 94
73.000 663.000 269.000 76 81 90
74.000 660.000 268.000 101 106 115
74.000 660.000 269.000 102 107 116
74.000 661.000 269.000 96 100 108
72.000 664.000 257.000 92 98 107
72.000 665.000 256.000 79 85 94
72.000 665.000 257.000 83 89 98
73.000 664.000 256.000 82 88 97
73.000 664.000 257.000 89 95 104
73.000 665.000 256.000 79 84 93
72.000 664.000 258.000 98 103 112
72.000 664.000 259.000 92 97 106
72.000 665.000 258.000 92 97 106
72.000 665.000 259.000 89 95 104
72.000 666.000 256.000 78 83 92
72.000 666.000 257.000 79 85 94
72.000 667.000 256.000 78 83 91
72.000 667.000 257.000 80 85 94
72.000 666.000 258.000 84 90 99
72.000 666.000 259.000 87 93 102
72.000 667.000 258.000 85 90 98
72.000 667.000 259.000 88 93 102
72.000 664.000 260.000 90 95 104
72.000 664.000 261.000 90 96 106
72.000 665.000 260.000 89 95 104
72.000 665.000 261.000 89 95 104
72.000 664.000 262.000 91 97 106
72.000 664.000 263.000 94 98 107
72.000 665.000 262.000 90 96 105
72.000 665.000 263.000 93 98 106
72.000 666.000 260.000 87 93 102
72.000 668.000 256.000 81 85 93
72.000 668.000 257.000 81 86 95
72.000 669.000 256.000 81 86 94
72.000 669.000 257.000 82 87 95
72.000 668.000 258.000 83 88 96
72.000 670.000 256.000 78 84 92
72.000 670.000 257.000 81 86 94
72.000 671.000 256.000 77 83 92
72.000 664.000 264.000 95 99 108
72.000 664.000 265.000 94 98 107
72.000 665.000 264.000 93 98 106
72.000 665.000 265.000 92 97 106
72.000 664.000 266.000 89 94 103
72.000 664.000 267.000 85 91 100
72.000 665.000 266.000 90 96 105
72.000 665.000 267.000 86 92 102
72.000 664.000 268.000 81 87 96
72.000 664.000 269.000 76 82 91
72.000 665.000 268.000 85 91 100
72.000 666.000 269.000 85 92 102
71.000 672.000 256.000 82 88 97
71.000 672.000 257.000 86 92 101
71.000 673.000 256.000 81 88 97
71.000 673.000 257.000 87 94 103
70.000 672.000 259.000 94 100 110
70.000 673.000 258.000 94 101 111
70.000 673.000 259.000 99 105 115
71.000 672.000 258.000 92 98 108
71.000 672.000 259.000 91 97 107
71.000 673.000 258.000 93 100 110
71.000 674.000 256.000 84 90 100
71.000 674.000 257.000 86 93 104
71.000 675.000 256.000 87 93 103
71.000 675.000 257.000 84 91 101
70.000 674.000 258.000 93 100 110
70.000 674.000 259.000 94 101 112
70.000 675.000 259.000 86 94 104
71.000 674.000 258.000 89 97 107
71.000 675.000 258.000 83 91 101
69.000 672.000 263.000 92 98 107
69.000 673.000 262.000 91 98 108
69.000 673.000 263.000 90 96 105
69.000 674.000 262.000 89 95 105
69.000 674.000 263.000 90 96 106
69.000 675.000 262.000 87 94 104
69.000 675.000 263.000 91 97 107
70.000 672.000 260.000 96 102 111
70.000 672.000 261.000 93 99 109
70.000 673.000 260.000 100 106 116
70.000 673.000 261.000 99 105 116
70.000 672.000 262.000 92 98 107
70.000 672.000 263.000 91 97 106
70.000 673.000 262.000 94 100 110
70.000 674.000 260.000 98 104 115
70.000 674.000 261.000 95 102 112
70.000 675.000 260.000 90 97 107
70.000 675.000 261.000 88 95 105
70.000 674.000 262.000 91 98 109
71.000 676.000 256.000 90 95 105
71.000 676.000 257.000 86 93 102
71.000 677.000 256.000 93 98 108
71.000 677.000 257.000 91 97 107
70.000 676.000 259.000 88 95 105
70.000 677.000 259.000 94 99 109
71.000 676.000 258.000 86 92 102
71.000 677.000 258.000 92 98 108
71.000 677.000 259.000 95 101 112
71.000 678.000 257.000 93 100 110
70.000 678.000 259.000 96 103 113
71.000 678.000 258.000 95 102 113
71.000 678.000 259.000 98 105 116
71.000 679.000 258.000 99 106 118
71.000 679.000 259.000 103 110 121
69.000 676.000 262.000 88 94 104
69.000 676.000 263.000 91 97 107
69.000 677.000 262.000 89 95 104
69.000 677.000 263.000 92 98 108
69.000 678.000 263.000 94 100 110
69.000 679.000 263.000 94 100 110
70.000 676.000 260.000 89 95 105
70.000 676.000 261.000 87 94 103
70.000 677.000 260.000 92 98 107
70.000 677.000 261.000 90 95 105
70.000 677.000 262.000 89 95 105
70.000 678.000 260.000 94 100 110
70.000 678.000 261.000 91 97 107
70.000 679.000 260.000 98 105 116
70.000 679.000 261.000 93 100 111
70.000 678.000 262.000 91 97 107
70.000 679.000 262.000 93 99 109
70.000 679.000 263.000 92 98 108
69.000 672.000 264.000 92 98 107
69.000 672.000 265.000 94 99 108
69.000 673.000 264.000 92 98 107
69.000 673.000 265.000 93 99 108
69.000 672.000 266.000 95 99 108
69.000 672.000 267.000 91 96 105
69.000 673.000 266.000 94 99 108
69.000 673.000 267.000 94 99 108
69.000 674.000 264.000 93 99 109
69.000 674.000 265.000 94 100 110
69.000 675.000 264.000 98 104 114
69.000 675.000 265.000 100 106 116
69.000 674.000 266.000 93 100 110
69.000 674.000 267.000 95 102 112
69.000 675.000 266.000 96 103 113
69.000 675.000 267.000 95 102 112
69.000 672.000 268.000 86 92 100
69.000 673.000 268.000 92 98 107
69.000 674.000 268.000 98 104 114
69.000 674.000 269.000 97 103 113
69.000 675.000 268.000 97 104 115
69.000 675.000 269.000 97 104 114
70.000 672.000 268.000 82 87 96
70.000 672.000 269.000 82 87 95
70.000 673.000 269.000 90 95 104
70.000 674.000 269.000 96 101 111
70.000 675.000 269.000 98 104 114
69.000 676.000 264.000 98 105 116
69.000 676.000 265.000 103 110 121
69.000 677.000 264.000 98 106 118
69.000 677.000 265.000 106 114 126
69.000 676.000 266.000 101 108 120
69.000 676.000 267.000 98 105 116
69.000 677.000 266.000 107 114 126
69.000 677.000 267.000 106 112 123
69.000 678.000 264.000 100 107 118
69.000 678.000 265.000 109 115 127
69.000 679.000 264.000 100 106 117
69.000 679.000 265.000 106 111 122
69.000 678.000 266.000 111 117 128
69.000 678.000 267.000 110 116 127
69.000 679.000 266.000 107 111 122
69.000 679.000 267.000 105 111 121
69.000 676.000 268.000 99 106 117
69.000 676.000 269.000 96 104 115
69.000 677.000 268.000 107 113 124
69.000 677.000 269.000 106 113 124
69.000 678.000 268.000 109 115 126
69.000 678.000 269.000 109 115 126
69.000 679.000 268.000 103 109 120
70.000 676.000 269.000 95 102 114
70.000 677.000 269.000 105 112 124
70.000 678.000 269.000 108 114 125
70.000 679.000 269.000 103 109 120
71.000 680.000 258.000 103 110 122
71.000 680.000 259.000 114 120 132
69.000 680.000 263.000 96 102 112
70.000 680.000 260.000 106 113 124
70.000 680.000 261.000 105 112 123
71.000 680.000 260.000 116 123 134
71.000 680.000 261.000 114 121 133
71.000 681.000 260.000 119 127 140
71.000 681.000 261.000 115 123 136
70.000 680.000 262.000 100 106 116
70.000 680.000 263.000 95 101 112
70.000 681.000 262.000 104 111 123
70.000 681.000 263.000 99 106 117
71.000 681.000 262.000 109 117 129
71.000 682.000 260.000 126 134 148
71.000 682.000 261.000 125 133 146
71.000 683.000 261.000 126 134 147
70.000 682.000 263.000 104 112 124
70.000 683.000 263.000 107 114 126
71.000 682.000 262.000 115 122 135
71.000 682.000 263.000 109 116 129
71.000 683.000 262.000 118 125 138
71.000 683.000 263.000 112 119 131
71.000 684.000 262.000 111 118 130
71.000 684.000 263.000 112 118 130
71.000 685.000 263.000 108 116 128
71.000 686.000 263.000 110 118 131
69.000 680.000 264.000 99 105 116
69.000 680.000 265.000 101 107 118
69.000 680.000 266.000 108 113 123
69.000 680.000 267.000 110 115 126
69.000 681.000 266.000 114 119 131
69.000 681.000 267.000 123 128 139
70.000 680.000 264.000 97 104 115
70.000 681.000 264.000 98 104 117
70.000 681.000 265.000 99 106 119
70.000 681.000 266.000 115 120 132
70.000 681.000 267.000 124 129 141
70.000 682.000 264.000 104 111 123
70.000 682.000 265.000 105 113 125
70.000 683.000 264.000 108 115 127
70.000 683.000 265.000 111 118 131
71.000 683.000 264.000 111 117 130
70.000 682.000 266.000 113 120 132
70.000 682.000 267.000 117 123 135
70.000 683.000 266.000 113 120 133
70.000 683.000 267.000 112 119 131
69.000 680.000 268.000 102 108 120
70.000 680.000 268.000 107 113 125
70.000 680.000 269.000 100 106 118
70.000 681.000 268.000 116 122 134
70.000 681.000 269.000 107 114 125
70.000 682.000 268.000 114 121 133
70.000 682.000 269.000 113 118 130
70.000 683.000 268.000 107 113 125
70.000 683.000 269.000 104 109 121
70.000 684.000 265.000 115 124 137
71.000 684.000 264.000 113 120 133
71.000 684.000 265.000 113 121 135
71.000 685.000 264.000 112 120 133
71.000 685.000 265.000 110 119 132
70.000 684.000 266.000 114 121 134
70.000 684.000 267.000 109 116 129
70.000 685.000 266.000 107 115 128
70.000 685.000 267.000 103 110 123
71.000 686.000 264.000 112 120 134
71.000 686.000 265.000 111 119 132
71.000 687.000 264.000 114 122 135
71.000 687.000 265.000 114 122 136
70.000 686.000 266.000 104 112 125
70.000 686.000 267.000 103 110 123
70.000 687.000 267.000 106 114 127
71.000 686.000 266.000 107 115 128
71.000 687.000 266.000 112 120 133
71.000 687.000 267.000 110 117 130
70.000 684.000 268.000 109 116 128
70.000 684.000 269.000 106 113 125
70.000 685.000 268.000 102 110 122
70.000 685.000 269.000 102 109 122
70.000 686.000 268.000 102 110 122
70.000 686.000 269.000 103 110 123
70.000 687.000 268.000 108 115 128
70.000 687.000 269.000 105 112 125
71.000 687.000 268.000 110 117 130
71.000 687.000 269.000 105 113 126
72.000 676.000 256.000 92 97 107
72.000 677.000 256.000 94 100 110
72.000 678.000 256.000 97 103 113
72.000 678.000 257.000 97 103 113
72.000 679.000 256.000 99 105 116
72.000 679.000 257.000 98 104 115
73.000 679.000 256.000 100 106 117
72.000 680.000 257.000 98 105 117
73.000 680.000 256.000 99 105 117
73.000 680.000 257.000 97 104 116
73.000 681.000 256.000 100 107 119
73.000 681.000 257.000 103 111 123
72.000 680.000 258.000 103 110 122
72.000 680.000 259.000 115 122 134
72.000 681.000 258.000 113 120 132
72.000 681.000 259.000 121 128 141
73.000 682.000 257.000 108 115 126
72.000 682.000 259.000 121 129 142
72.000 683.000 259.000 110 119 133
73.000 682.000 258.000 116 122 135
73.000 683.000 258.000 107 114 126
73.000 683.000 259.000 106 113 126
74.000 680.000 256.000 103 109 120
74.000 681.000 256.000 105 111 122
74.000 682.000 256.000 106 113 124
74.000 682.000 257.000 106 113 124
74.000 683.000 257.000 107 113 124
75.000 682.000 256.000 107 113 124
75.000 683.000 256.000 111 117 128
75.000 683.000 257.000 111 117 127
74.000 683.000 258.000 107 113 124
72.000 681.000 260.000 121 129 143
72.000 682.000 260.000 123 132 146
72.000 683.000 260.000 119 127 140
72.000 683.000 261.000 119 126 139
73.000 683.000 260.000 105 113 126
73.000 684.000 259.000 100 107 120
73.000 685.000 259.000 99 105 116
75.000 684.000 256.000 121 126 137
75.000 684.000 257.000 112 117 128
75.000 685.000 257.000 106 111 122
74.000 684.000 258.000 106 111 122
74.000 684.000 259.000 103 109 121
74.000 685.000 258.000 100 106 117
74.000 685.000 259.000 97 103 114
75.000 685.000 258.000 100 106 117
75.000 686.000 257.000 99 105 116
74.000 686.000 259.000 95 101 112
74.000 687.000 259.000 97 103 114
75.000 686.000 258.000 95 101 112
75.000 686.000 259.000 94 100 111
75.000 687.000 258.000 95 101 112
75.000 687.000 259.000 96 102 113
72.000 684.000 260.000 109 115 128
72.000 684.000 261.000 110 117 130
72.000 685.000 261.000 104 111 123
73.000 684.000 260.000 102 109 121
73.000 685.000 260.000 101 108 120
73.000 685.000 261.000 103 110 122
72.000 684.000 262.000 109 116 128
72.000 685.000 262.000 102 110 123
72.000 685.000 263.000 105 112 125
73.000 686.000 260.000 99 106 117
73.000 686.000 261.000 102 109 121
73.000 687.000 261.000 100 107 119
72.000 686.000 262.000 104 112 124
72.000 686.000 263.000 109 116 129
72.000 687.000 262.000 108 115 127
72.000 687.000 263.000 116 124 136
73.000 686.000 262.000 105 112 124
73.000 687.000 262.000 107 114 126
73.000 687.000 263.000 115 123 135
74.000 686.000 260.000 97 104 115
74.000 687.000 260.000 97 103 114
74.000 687.000 261.000 99 106 117
76.000 684.000 256.000 121 126 137
76.000 685.000 256.000 110 116 127
76.000 686.000 256.000 101 106 116
76.000 686.000 257.000 99 104 115
76.000 687.000 256.000 96 101 111
76.000 687.000 257.000 94 100 109
77.000 687.000 256.000 95 100 110
76.000 687.000 258.000 94 100 110
72.000 687.000 264.000 116 124 138
72.000 687.000 265.000 116 124 138
71.000 688.000 266.000 118 125 138
71.000 688.000 267.000 117 124 137
71.000 689.000 266.000 119 126 138
71.000 689.000 267.000 120 127 140
71.000 688.000 268.000 114 122 135
71.000 688.000 269.000 106 115 128
75.000 688.000 259.000 96 102 112
75.000 689.000 259.000 94 101 112
72.000 688.000 263.000 121 129 142
73.000 688.000 262.000 109 117 129
73.000 688.000 263.000 117 125 138
73.000 689.000 262.000 114 120 132
73.000 689.000 263.000 117 124 136
74.000 688.000 260.000 98 105 115
74.000 688.000 261.000 100 108 120
74.000 689.000 260.000 97 103 114
74.000 689.000 261.000 101 108 120
75.000 688.000 260.000 95 101 111
75.000 689.000 260.000 94 101 111
74.000 689.000 262.000 106 113 125
76.000 688.000 256.000 90 96 106
76.000 688.000 257.000 91 97 107
76.000 689.000 257.000 93 99 110
77.000 688.000 256.000 94 100 110
77.000 689.000 256.000 100 106 117
76.000 688.000 258.000 95 101 111
76.000 689.000 258.000 97 102 112
76.000 689.000 259.000 97 103 113
72.000 688.000 264.000 115 123 137
72.000 688.000 265.000 114 122 136
72.000 689.000 264.000 109 117 130
72.000 689.000 265.000 107 115 128
73.000 689.000 264.000 111 118 131
72.000 688.000 266.000 118 125 138
72.000 689.000 266.000 115 121 134
