ply
format ascii 1.0
element vertex 907
property float x
property float y
property float z
property uchar red
property uchar green
property uchar blue
end_header
159.000 744.000 156.000 86 92 102
159.000 745.000 156.000 86 93 103
159.000 746.000 156.000 87 93 103
159.000 747.000 156.000 88 94 105
159.000 748.000 156.000 89 96 106
159.000 748.000 157.000 92 99 109
159.000 749.000 156.000 85 92 102
159.000 749.000 157.000 87 94 104
159.000 750.000 156.000 82 89 99
159.000 750.000 157.000 82 90 100
159.000 751.000 156.000 82 89 99
159.000 751.000 157.000 85 92 102
157.000 762.000 158.000 82 88 98
159.000 763.000 157.000 84 91 101
156.000 765.000 160.000 94 102 112
156.000 766.000 160.000 100 107 118
156.000 767.000 160.000 99 106 118
163.000 733.000 154.000 81 87 96
162.000 734.000 154.000 83 89 99
162.000 735.000 154.000 84 90 99
163.000 734.000 154.000 83 88 97
163.000 735.000 154.000 83 89 98
165.000 730.000 153.000 74 82 91
165.000 731.000 153.000 77 84 93
165.000 731.000 154.000 77 84 93
167.000 729.000 153.000 75 81 91
166.000 730.000 153.000 77 84 93
166.000 731.000 153.000 76 83 92
167.000 730.000 153.000 74 80 89
167.000 731.000 153.000 74 81 90
165.000 732.000 153.000 86 93 102
165.000 733.000 153.000 94 100 109
164.000 732.000 154.000 84 89 98
164.000 733.000 154.000 89 95 104
165.000 732.000 154.000 87 93 102
165.000 733.000 154.000 94 100 109
165.000 734.000 153.000 81 87 97
165.000 735.000 153.000 80 86 96
164.000 734.000 154.000 83 89 98
164.000 735.000 154.000 81 87 96
165.000 734.000 154.000 82 88 98
165.000 735.000 154.000 79 86 95
166.000 732.000 153.000 85 91 101
166.000 733.000 153.000 90 96 106
167.000 732.000 153.000 79 85 95
167.000 733.000 153.000 80 86 96
166.000 734.000 153.000 80 87 96
166.000 735.000 153.000 78 85 94
167.000 734.000 153.000 77 84 93
167.000 735.000 153.000 77 83 92
169.000 727.000 153.000 87 93 102
170.000 727.000 153.000 92 98 107
173.000 733.000 151.000 83 88 97
174.000 735.000 151.000 88 94 104
168.000 728.000 153.000 74 81 90
168.000 729.000 153.000 73 79 88
169.000 728.000 153.000 78 85 94
169.000 729.000 153.000 74 80 90
168.000 730.000 153.000 72 78 87
168.000 731.000 153.000 75 81 89
169.000 730.000 153.000 74 80 89
169.000 731.000 152.000 79 84 93
169.000 731.000 153.000 76 82 91
170.000 728.000 153.000 81 87 96
170.000 729.000 153.000 73 80 89
171.000 728.000 152.000 78 84 93
171.000 729.000 152.000 71 78 87
171.000 729.000 153.000 72 79 88
170.000 730.000 152.000 73 79 87
170.000 730.000 153.000 74 80 88
170.000 731.000 152.000 76 82 91
171.000 730.000 152.000 72 78 87
171.000 731.000 152.000 73 79 88
168.000 732.000 153.000 79 85 94
168.000 733.000 153.000 80 85 94
169.000 732.000 152.000 80 86 94
169.000 732.000 153.000 80 86 94
169.000 733.000 152.000 79 85 94
169.000 733.000 153.000 79 85 94
168.000 734.000 153.000 77 84 93
168.000 735.000 153.000 77 82 91
169.000 734.000 152.000 77 83 91
169.000 734.000 153.000 77 83 92
169.000 735.000 152.000 76 82 90
169.000 735.000 153.000 76 82 90
170.000 732.000 152.000 80 86 95
170.000 733.000 152.000 79 85 94
171.000 732.000 152.000 81 87 96
171.000 733.000 152.000 84 90 99
170.000 734.000 152.000 78 83 92
170.000 735.000 152.000 77 82 90
171.000 734.000 152.000 88 93 102
171.000 735.000 152.000 85 91 99
172.000 731.000 152.000 73 79 88
172.000 732.000 152.000 79 85 94
172.000 733.000 152.000 90 95 104
173.000 732.000 152.000 79 85 94
173.000 733.000 152.000 89 94 103
172.000 734.000 152.000 92 98 107
172.000 735.000 152.000 93 98 107
173.000 734.000 152.000 91 97 106
173.000 735.000 152.000 93 99 108
161.000 736.000 155.000 83 89 99
161.000 737.000 155.000 83 89 99
161.000 738.000 155.000 85 93 103
161.000 739.000 155.000 93 100 111
162.000 736.000 154.000 83 89 98
162.000 737.000 154.000 82 88 97
163.000 736.000 154.000 82 88 97
163.000 737.000 154.000 83 89 98
162.000 738.000 154.000 85 91 101
162.000 739.000 154.000 87 94 105
163.000 738.000 154.000 85 91 100
163.000 739.000 154.000 84 91 100
160.000 740.000 155.000 99 106 116
160.000 741.000 155.000 93 100 110
161.000 740.000 155.000 97 104 114
161.000 741.000 155.000 92 98 108
160.000 742.000 155.000 86 93 103
160.000 743.000 155.000 83 90 100
161.000 742.000 155.000 84 91 101
161.000 743.000 155.000 83 89 99
162.000 740.000 154.000 88 96 106
162.000 741.000 154.000 86 93 103
163.000 740.000 154.000 83 90 100
163.000 741.000 154.000 83 90 100
162.000 742.000 154.000 81 88 98
162.000 743.000 154.000 81 87 97
162.000 743.000 155.000 82 88 98
163.000 742.000 154.000 80 87 97
163.000 743.000 154.000 81 88 98
160.000 741.000 156.000 92 98 109
160.000 742.000 156.000 85 92 102
160.000 743.000 156.000 84 91 101
165.000 736.000 153.000 78 85 94
165.000 737.000 153.000 78 84 93
164.000 736.000 154.000 80 86 95
164.000 737.000 154.000 81 87 96
165.000 737.000 154.000 80 86 95
164.000 739.000 153.000 79 86 95
165.000 738.000 153.000 80 86 95
165.000 739.000 153.000 82 87 96
164.000 738.000 154.000 82 89 98
164.000 739.000 154.000 81 88 97
165.000 738.000 154.000 80 86 96
166.000 736.000 153.000 77 84 93
166.000 737.000 153.000 77 83 92
167.000 736.000 153.000 77 83 91
167.000 737.000 153.000 77 83 92
166.000 738.000 153.000 79 85 94
166.000 739.000 153.000 82 88 97
167.000 738.000 153.000 79 85 94
167.000 739.000 153.000 81 87 96
164.000 741.000 153.000 83 89 99
165.000 740.000 153.000 80 86 96
165.000 741.000 153.000 83 89 99
164.000 740.000 154.000 80 87 97
164.000 741.000 154.000 81 88 98
164.000 742.000 153.000 83 89 99
164.000 743.000 153.000 86 94 104
165.000 742.000 153.000 85 91 101
165.000 743.000 153.000 92 99 109
164.000 742.000 154.000 79 86 96
164.000 743.000 154.000 82 89 99
166.000 740.000 153.000 80 87 96
166.000 741.000 153.000 83 89 99
167.000 740.000 153.000 79 86 95
167.000 741.000 153.000 85 92 102
166.000 742.000 153.000 84 91 101
166.000 743.000 153.000 88 96 107
167.000 742.000 153.000 89 96 107
167.000 743.000 153.000 90 98 109
160.000 744.000 155.000 84 91 101
160.000 745.000 155.000 85 92 101
161.000 744.000 155.000 85 90 100
161.000 745.000 155.000 86 91 101
161.000 746.000 155.000 85 91 101
161.000 747.000 155.000 86 92 101
162.000 744.000 154.000 83 90 99
162.000 744.000 155.000 84 89 99
162.000 745.000 154.000 84 90 99
162.000 745.000 155.000 85 90 100
163.000 744.000 154.000 86 93 103
163.000 745.000 154.000 85 92 102
162.000 746.000 155.000 86 91 100
162.000 747.000 155.000 86 91 100
163.000 746.000 154.000 85 91 101
163.000 747.000 154.000 84 90 100
160.000 744.000 156.000 84 91 101
160.000 745.000 156.000 85 91 101
160.000 746.000 156.000 84 91 101
160.000 747.000 156.000 85 91 101
161.000 748.000 155.000 85 91 100
161.000 749.000 155.000 85 91 100
161.000 750.000 155.000 85 91 100
161.000 751.000 155.000 84 90 100
162.000 748.000 155.000 84 89 99
162.000 749.000 155.000 84 90 100
163.000 748.000 154.000 81 87 97
163.000 748.000 155.000 82 88 98
163.000 749.000 154.000 81 87 97
163.000 749.000 155.000 83 89 99
162.000 750.000 155.000 84 90 99
162.000 751.000 155.000 84 90 99
163.000 750.000 155.000 82 88 97
163.000 751.000 155.000 82 88 97
160.000 748.000 156.000 86 92 102
160.000 749.000 156.000 84 90 100
161.000 748.000 156.000 85 91 100
161.000 749.000 156.000 84 90 99
160.000 750.000 156.000 83 89 99
160.000 751.000 156.000 85 92 102
161.000 750.000 156.000 84 90 99
161.000 751.000 156.000 85 92 102
165.000 744.000 153.000 95 102 113
165.000 745.000 153.000 95 102 113
164.000 744.000 154.000 94 101 112
164.000 745.000 154.000 89 97 107
165.000 746.000 153.000 95 102 113
165.000 747.000 153.000 94 101 112
164.000 746.000 154.000 87 94 104
164.000 747.000 154.000 86 92 102
165.000 746.000 154.000 94 101 112
165.000 747.000 154.000 92 98 109
166.000 744.000 153.000 92 100 112
166.000 745.000 153.000 89 98 110
167.000 744.000 153.000 94 102 113
167.000 745.000 153.000 87 96 108
166.000 746.000 153.000 89 97 109
166.000 747.000 153.000 94 101 111
167.000 746.000 153.000 85 94 106
167.000 747.000 153.000 84 93 103
165.000 748.000 153.000 88 94 104
165.000 749.000 153.000 84 90 100
164.000 748.000 154.000 81 87 97
164.000 749.000 154.000 80 86 96
165.000 748.000 154.000 83 90 99
165.000 749.000 154.000 81 88 98
164.000 750.000 154.000 81 88 97
164.000 751.000 154.000 85 91 101
165.000 750.000 154.000 85 91 101
165.000 751.000 154.000 92 98 108
166.000 748.000 153.000 90 96 106
166.000 749.000 153.000 81 88 98
167.000 748.000 153.000 81 88 98
167.000 749.000 153.000 78 85 95
166.000 750.000 153.000 84 91 100
166.000 751.000 153.000 93 99 109
167.000 750.000 153.000 81 88 98
167.000 751.000 153.000 88 95 105
174.000 736.000 151.000 84 91 101
174.000 737.000 151.000 88 94 104
175.000 736.000 151.000 82 88 98
175.000 737.000 151.000 86 93 103
174.000 738.000 151.000 101 106 115
174.000 739.000 151.000 100 105 115
175.000 738.000 151.000 96 102 112
175.000 739.000 151.000 96 102 111
174.000 740.000 151.000 90 96 105
174.000 741.000 151.000 80 87 96
175.000 740.000 151.000 86 92 102
175.000 741.000 151.000 82 88 98
174.000 742.000 151.000 76 82 92
174.000 743.000 151.000 76 82 91
175.000 742.000 151.000 79 86 95
175.000 743.000 151.000 78 84 93
168.000 736.000 153.000 78 84 92
168.000 737.000 153.000 78 84 93
169.000 736.000 152.000 75 81 89
169.000 736.000 153.000 76 81 90
169.000 737.000 152.000 77 82 90
168.000 738.000 152.000 79 84 93
168.000 738.000 153.000 80 86 94
168.000 739.000 152.000 80 86 95
168.000 739.000 153.000 81 87 96
169.000 738.000 152.000 77 83 92
169.000 739.000 152.000 77 83 93
170.000 736.000 152.000 76 81 90
170.000 737.000 152.000 75 81 89
171.000 736.000 152.000 79 85 94
171.000 737.000 152.000 76 81 90
170.000 738.000 152.000 77 82 91
170.000 739.000 152.000 76 83 92
171.000 738.000 152.000 76 82 91
171.000 739.000 152.000 76 83 92
168.000 740.000 152.000 80 87 96
168.000 740.000 153.000 80 86 96
168.000 741.000 152.000 92 99 109
169.000 740.000 152.000 78 85 95
169.000 741.000 152.000 91 98 108
168.000 742.000 152.000 97 104 115
168.000 743.000 152.000 92 100 111
168.000 743.000 153.000 92 100 110
169.000 742.000 152.000 97 103 114
169.000 743.000 152.000 91 98 109
170.000 740.000 152.000 75 82 92
170.000 741.000 152.000 82 89 100
171.000 740.000 152.000 75 82 91
171.000 741.000 152.000 75 83 93
170.000 742.000 152.000 86 94 104
170.000 743.000 152.000 86 94 104
171.000 742.000 152.000 77 85 95
171.000 743.000 152.000 79 86 96
172.000 736.000 152.000 86 92 101
172.000 737.000 152.000 79 85 94
173.000 736.000 152.000 86 93 102
173.000 737.000 152.000 83 90 99
172.000 738.000 152.000 76 83 92
172.000 739.000 152.000 77 84 93
173.000 738.000 152.000 88 94 103
173.000 739.000 152.000 89 95 104
174.000 739.000 152.000 100 105 114
172.000 740.000 152.000 77 84 93
172.000 741.000 152.000 77 83 93
173.000 740.000 152.000 87 93 102
173.000 741.000 152.000 79 86 95
172.000 742.000 152.000 75 83 92
172.000 743.000 152.000 76 83 92
173.000 742.000 152.000 75 82 90
173.000 743.000 152.000 75 81 90
174.000 740.000 152.000 95 100 109
174.000 742.000 152.000 76 82 91
174.000 743.000 152.000 76 82 91
173.000 745.000 151.000 74 80 89
173.000 746.000 151.000 75 81 90
173.000 747.000 151.000 76 82 91
174.000 744.000 151.000 76 82 91
174.000 745.000 151.000 77 83 92
175.000 744.000 151.000 79 86 95
175.000 745.000 151.000 85 91 101
174.000 746.000 151.000 76 83 92
174.000 747.000 151.000 76 82 92
175.000 746.000 151.000 85 92 102
175.000 747.000 151.000 87 94 104
173.000 748.000 151.000 76 82 91
173.000 749.000 151.000 78 84 93
173.000 750.000 151.000 80 86 95
173.000 751.000 151.000 83 89 99
174.000 748.000 151.000 74 81 91
174.000 749.000 151.000 76 82 92
175.000 748.000 151.000 82 89 99
175.000 749.000 151.000 79 86 95
174.000 750.000 151.000 77 83 93
174.000 751.000 151.000 79 85 95
175.000 750.000 151.000 78 84 93
175.000 751.000 151.000 78 84 93
168.000 744.000 152.000 91 98 109
168.000 744.000 153.000 93 101 112
168.000 745.000 152.000 86 94 105
168.000 745.000 153.000 85 93 105
169.000 744.000 152.000 90 97 108
169.000 745.000 152.000 91 98 109
168.000 746.000 152.000 85 93 103
168.000 746.000 153.000 83 91 103
168.000 747.000 152.000 78 86 97
168.000 747.000 153.000 78 87 97
169.000 746.000 152.000 90 96 106
169.000 747.000 152.000 82 88 98
170.000 744.000 152.000 88 95 105
170.000 745.000 152.000 91 97 107
171.000 744.000 152.000 81 88 98
171.000 745.000 152.000 83 89 99
170.000 746.000 152.000 94 100 110
170.000 747.000 152.000 85 91 100
171.000 746.000 152.000 85 91 101
171.000 747.000 152.000 83 89 98
168.000 748.000 152.000 76 83 93
168.000 748.000 153.000 78 85 95
168.000 749.000 152.000 80 86 95
168.000 749.000 153.000 79 86 95
169.000 748.000 152.000 78 84 93
169.000 749.000 152.000 80 86 94
168.000 750.000 152.000 81 87 97
168.000 750.000 153.000 81 88 97
168.000 751.000 152.000 83 89 99
168.000 751.000 153.000 85 92 101
169.000 750.000 152.000 80 86 96
169.000 751.000 152.000 80 86 96
170.000 748.000 152.000 78 84 93
170.000 749.000 152.000 81 86 95
171.000 748.000 152.000 78 85 94
171.000 749.000 152.000 81 87 96
170.000 750.000 152.000 82 88 97
170.000 751.000 152.000 79 86 95
171.000 750.000 152.000 83 89 98
171.000 751.000 152.000 81 88 97
172.000 744.000 152.000 76 82 91
172.000 745.000 152.000 76 82 91
173.000 744.000 152.000 74 81 89
173.000 745.000 152.000 74 80 89
172.000 746.000 152.000 78 84 93
172.000 747.000 152.000 79 85 94
173.000 746.000 152.000 76 82 91
173.000 747.000 152.000 78 84 92
174.000 744.000 152.000 75 81 90
172.000 748.000 152.000 78 84 93
172.000 749.000 152.000 80 86 94
173.000 748.000 152.000 77 83 92
173.000 749.000 152.000 79 85 94
172.000 750.000 152.000 83 89 98
172.000 751.000 152.000 85 91 100
173.000 750.000 152.000 82 88 97
173.000 751.000 152.000 85 91 101
162.000 752.000 155.000 85 92 101
163.000 752.000 155.000 84 90 99
163.000 753.000 155.000 85 91 101
162.000 754.000 155.000 87 93 103
163.000 754.000 155.000 86 92 101
163.000 755.000 155.000 83 89 99
160.000 752.000 156.000 96 102 112
160.000 753.000 156.000 101 107 117
161.000 752.000 156.000 92 98 108
161.000 753.000 156.000 93 100 110
160.000 754.000 156.000 93 99 109
160.000 754.000 157.000 90 97 107
161.000 754.000 156.000 85 92 102
162.000 758.000 155.000 93 99 110
162.000 759.000 155.000 98 104 115
164.000 752.000 154.000 87 93 103
165.000 752.000 154.000 96 102 112
164.000 754.000 154.000 84 90 100
165.000 754.000 154.000 85 91 101
165.000 755.000 154.000 85 91 100
166.000 752.000 153.000 95 101 111
166.000 753.000 153.000 85 92 102
167.000 752.000 153.000 88 95 105
167.000 753.000 153.000 82 89 100
166.000 754.000 153.000 85 92 102
166.000 755.000 153.000 86 93 103
164.000 758.000 154.000 85 92 101
166.000 756.000 153.000 85 92 102
166.000 757.000 153.000 83 89 99
166.000 758.000 153.000 86 92 101
166.000 759.000 153.000 88 94 104
167.000 758.000 153.000 85 91 100
167.000 759.000 153.000 86 93 103
163.000 763.000 155.000 85 92 102
160.000 760.000 157.000 93 100 110
162.000 761.000 156.000 88 95 105
163.000 764.000 155.000 85 92 102
163.000 765.000 155.000 86 92 102
161.000 765.000 156.000 86 92 102
161.000 766.000 156.000 87 94 103
161.000 767.000 156.000 87 93 103
164.000 760.000 154.000 87 93 103
164.000 761.000 154.000 88 94 104
165.000 761.000 154.000 88 95 105
164.000 762.000 154.000 88 94 104
165.000 762.000 154.000 94 100 110
165.000 763.000 154.000 99 106 117
166.000 760.000 153.000 88 95 105
167.000 760.000 153.000 89 96 107
167.000 761.000 153.000 91 98 109
167.000 762.000 153.000 99 106 118
165.000 764.000 154.000 97 104 114
165.000 765.000 154.000 92 99 110
166.000 766.000 154.000 91 99 110
166.000 767.000 154.000 87 94 105
173.000 752.000 151.000 89 95 105
173.000 753.000 151.000 90 97 106
173.000 754.000 151.000 92 98 107
173.000 755.000 151.000 82 89 98
174.000 752.000 151.000 83 90 99
174.000 753.000 151.000 85 92 101
175.000 752.000 151.000 79 85 94
174.000 754.000 151.000 85 92 102
175.000 754.000 151.000 82 88 98
173.000 756.000 151.000 82 89 99
173.000 757.000 151.000 85 91 101
173.000 758.000 151.000 87 94 103
174.000 757.000 151.000 93 99 109
175.000 757.000 151.000 97 103 112
174.000 758.000 151.000 94 100 110
174.000 759.000 151.000 88 95 105
168.000 752.000 152.000 83 89 99
168.000 752.000 153.000 85 92 102
168.000 753.000 152.000 82 88 98
168.000 753.000 153.000 82 89 98
169.000 752.000 152.000 80 86 95
169.000 753.000 152.000 81 87 96
168.000 754.000 152.000 82 88 98
168.000 755.000 152.000 84 90 99
168.000 755.000 153.000 85 91 100
169.000 754.000 152.000 81 87 96
169.000 755.000 152.000 82 88 97
170.000 752.000 152.000 77 84 93
170.000 753.000 152.000 79 86 95
171.000 752.000 152.000 78 85 95
171.000 753.000 152.000 81 88 97
171.000 754.000 152.000 82 89 98
169.000 756.000 152.000 81 88 97
169.000 757.000 152.000 80 87 96
168.000 759.000 153.000 87 94 104
169.000 758.000 152.000 80 87 97
169.000 759.000 152.000 88 95 106
170.000 758.000 152.000 79 86 96
170.000 759.000 152.000 84 91 102
171.000 759.000 152.000 79 86 97
172.000 752.000 152.000 89 95 104
172.000 753.000 152.000 92 98 108
174.000 760.000 151.000 79 87 97
174.000 761.000 151.000 79 86 96
174.000 762.000 151.000 81 87 97
174.000 763.000 151.000 84 90 100
174.000 764.000 151.000 84 90 100
175.000 766.000 151.000 86 94 104
169.000 760.000 152.000 103 110 122
169.000 761.000 152.000 105 112 124
168.000 762.000 153.000 100 108 120
168.000 763.000 153.000 102 109 121
170.000 760.000 152.000 94 102 112
170.000 761.000 152.000 99 107 118
171.000 760.000 152.000 82 90 100
170.000 762.000 152.000 98 106 118
170.000 763.000 152.000 97 105 117
168.000 764.000 153.000 93 102 113
168.000 765.000 153.000 89 97 108
169.000 765.000 153.000 90 98 110
168.000 766.000 153.000 85 93 104
169.000 766.000 153.000 83 92 103
169.000 767.000 153.000 83 91 101
170.000 764.000 152.000 99 108 120
170.000 765.000 152.000 97 105 117
171.000 764.000 152.000 96 103 114
171.000 765.000 152.000 99 106 117
170.000 766.000 153.000 87 95 105
171.000 766.000 152.000 92 99 110
172.000 766.000 152.000 89 96 106
173.000 766.000 152.000 84 91 101
173.000 767.000 152.000 84 91 101
176.000 738.000 150.000 84 91 101
176.000 738.000 151.000 91 97 107
176.000 739.000 150.000 84 91 101
176.000 739.000 151.000 89 95 105
177.000 739.000 150.000 85 92 102
176.000 740.000 150.000 82 89 98
176.000 740.000 151.000 82 89 99
176.000 741.000 150.000 84 90 99
176.000 741.000 151.000 83 89 98
177.000 740.000 150.000 85 92 101
177.000 741.000 150.000 87 93 102
176.000 742.000 150.000 84 90 99
176.000 742.000 151.000 82 88 98
176.000 743.000 150.000 81 88 97
176.000 743.000 151.000 81 87 97
177.000 742.000 150.000 87 93 102
177.000 743.000 150.000 84 90 100
178.000 741.000 149.000 88 95 105
178.000 741.000 150.000 88 94 104
178.000 742.000 149.000 89 95 105
178.000 743.000 149.000 85 92 102
179.000 742.000 149.000 88 95 104
179.000 743.000 149.000 87 93 102
178.000 742.000 150.000 88 94 104
178.000 743.000 150.000 85 92 102
180.000 743.000 148.000 89 95 104
176.000 744.000 150.000 85 92 101
176.000 744.000 151.000 83 89 99
176.000 745.000 150.000 96 102 112
176.000 745.000 151.000 93 100 110
177.000 744.000 150.000 86 93 103
177.000 745.000 150.000 96 103 113
176.000 746.000 150.000 96 103 114
176.000 746.000 151.000 95 102 112
176.000 747.000 150.000 98 105 116
176.000 747.000 151.000 97 104 114
177.000 746.000 150.000 96 104 115
177.000 747.000 150.000 97 105 116
178.000 744.000 149.000 85 92 102
178.000 745.000 149.000 94 101 112
179.000 744.000 149.000 88 94 104
179.000 745.000 149.000 89 96 106
178.000 744.000 150.000 84 91 102
178.000 745.000 150.000 96 103 114
179.000 746.000 149.000 85 94 105
179.000 747.000 149.000 88 96 107
178.000 746.000 150.000 96 104 116
178.000 747.000 150.000 97 105 117
176.000 748.000 150.000 94 101 112
176.000 748.000 151.000 91 98 108
176.000 749.000 150.000 88 94 104
176.000 749.000 151.000 85 92 101
177.000 748.000 150.000 95 102 113
177.000 749.000 150.000 85 92 102
176.000 750.000 150.000 82 88 97
176.000 750.000 151.000 81 87 96
176.000 751.000 150.000 80 85 94
176.000 751.000 151.000 80 85 94
177.000 750.000 150.000 82 88 97
177.000 751.000 150.000 79 85 94
179.000 748.000 149.000 91 99 109
179.000 749.000 149.000 87 94 104
178.000 748.000 150.000 95 103 114
178.000 749.000 150.000 84 92 102
179.000 748.000 150.000 95 103 114
179.000 749.000 150.000 87 94 105
179.000 750.000 149.000 85 92 101
179.000 751.000 149.000 84 91 100
178.000 750.000 150.000 82 88 98
178.000 751.000 150.000 80 86 96
179.000 750.000 150.000 84 91 101
179.000 751.000 150.000 82 88 98
183.000 746.000 147.000 87 93 102
183.000 747.000 147.000 87 93 102
180.000 744.000 148.000 86 92 102
180.000 744.000 149.000 86 92 102
180.000 745.000 148.000 86 92 102
180.000 745.000 149.000 86 92 102
181.000 745.000 148.000 87 93 102
180.000 746.000 149.000 83 90 100
180.000 747.000 149.000 82 90 100
181.000 746.000 148.000 84 90 100
181.000 747.000 148.000 83 89 99
182.000 746.000 148.000 86 92 101
182.000 747.000 148.000 86 92 101
183.000 748.000 147.000 84 90 99
180.000 748.000 149.000 86 92 103
180.000 749.000 149.000 86 93 103
181.000 748.000 148.000 84 90 100
181.000 748.000 149.000 84 91 101
181.000 749.000 148.000 87 93 103
181.000 749.000 149.000 86 92 102
180.000 750.000 149.000 87 93 103
180.000 751.000 149.000 89 96 106
181.000 750.000 148.000 86 93 102
181.000 750.000 149.000 87 94 103
181.000 751.000 148.000 89 96 106
181.000 751.000 149.000 91 98 107
182.000 748.000 148.000 87 93 102
182.000 749.000 148.000 88 94 104
183.000 749.000 148.000 88 94 103
182.000 750.000 148.000 86 92 102
182.000 751.000 148.000 88 95 105
183.000 750.000 148.000 89 94 104
184.000 747.000 147.000 85 92 101
184.000 749.000 147.000 84 90 100
186.000 748.000 146.000 85 92 102
187.000 750.000 147.000 99 105 116
187.000 751.000 147.000 102 109 119
189.000 750.000 146.000 87 93 103
189.000 751.000 146.000 86 92 102
190.000 749.000 146.000 85 91 101
191.000 749.000 146.000 86 93 103
190.000 750.000 146.000 86 92 102
190.000 751.000 146.000 85 92 102
191.000 750.000 146.000 86 92 103
191.000 751.000 146.000 84 91 101
176.000 752.000 150.000 80 86 95
176.000 753.000 150.000 83 88 97
177.000 752.000 150.000 80 86 95
177.000 753.000 150.000 83 89 98
176.000 754.000 150.000 86 91 100
176.000 755.000 150.000 83 89 98
177.000 754.000 150.000 86 91 100
177.000 755.000 150.000 84 89 98
179.000 752.000 149.000 84 91 100
178.000 752.000 150.000 78 84 94
178.000 753.000 150.000 81 87 96
179.000 752.000 150.000 80 86 96
179.000 754.000 149.000 85 92 102
179.000 755.000 149.000 85 92 102
178.000 754.000 150.000 83 89 99
178.000 755.000 150.000 84 90 99
176.000 756.000 150.000 84 90 99
176.000 757.000 151.000 87 93 103
177.000 757.000 150.000 84 89 99
176.000 758.000 151.000 85 93 103
177.000 758.000 150.000 82 89 99
177.000 758.000 151.000 81 88 98
177.000 759.000 151.000 82 89 98
179.000 756.000 149.000 90 97 107
178.000 757.000 150.000 83 89 98
179.000 757.000 150.000 91 98 107
178.000 758.000 150.000 81 88 98
179.000 758.000 150.000 91 98 108
179.000 759.000 150.000 84 91 101
180.000 752.000 149.000 96 102 113
180.000 753.000 149.000 91 97 108
181.000 752.000 149.000 100 106 116
181.000 753.000 149.000 90 98 108
180.000 754.000 149.000 84 92 103
180.000 755.000 149.000 83 91 102
181.000 755.000 149.000 85 92 102
182.000 752.000 148.000 92 98 109
182.000 753.000 148.000 88 95 105
183.000 752.000 148.000 84 91 101
183.000 753.000 148.000 88 94 104
182.000 754.000 148.000 86 93 104
182.000 755.000 148.000 86 93 103
180.000 757.000 149.000 103 109 119
181.000 756.000 149.000 93 99 110
180.000 758.000 149.000 101 108 118
180.000 759.000 149.000 90 97 108
181.000 758.000 149.000 105 111 122
182.000 756.000 148.000 87 94 104
182.000 756.000 149.000 88 95 106
182.000 758.000 149.000 99 106 117
182.000 759.000 149.000 92 100 111
176.000 760.000 151.000 81 88 97
176.000 761.000 151.000 80 87 97
177.000 761.000 151.000 83 89 99
178.000 761.000 150.000 84 91 100
179.000 760.000 150.000 83 90 99
179.000 761.000 150.000 85 91 100
179.000 762.000 150.000 85 91 101
176.000 764.000 151.000 89 96 107
176.000 766.000 151.000 99 106 117
176.000 767.000 151.000 93 101 111
177.000 767.000 151.000 100 107 119
179.000 764.000 150.000 94 101 112
179.000 766.000 150.000 101 109 120
179.000 767.000 150.000 99 107 118
180.000 760.000 149.000 84 91 100
180.000 761.000 149.000 87 93 102
181.000 761.000 149.000 85 92 101
180.000 762.000 150.000 87 93 103
182.000 761.000 149.000 84 91 101
183.000 761.000 148.000 85 92 102
182.000 762.000 149.000 83 89 99
183.000 762.000 148.000 84 90 100
180.000 764.000 150.000 90 97 108
180.000 765.000 150.000 87 95 106
180.000 767.000 150.000 96 103 114
181.000 766.000 150.000 84 92 103
181.000 767.000 150.000 87 94 104
182.000 764.000 149.000 85 91 101
183.000 765.000 149.000 85 92 102
182.000 767.000 149.000 82 89 98
184.000 755.000 147.000 87 93 103
187.000 752.000 147.000 90 97 107
187.000 753.000 147.000 84 91 102
184.000 756.000 147.000 86 92 102
185.000 757.000 148.000 87 93 103
184.000 759.000 148.000 88 95 106
185.000 758.000 148.000 89 95 105
185.000 759.000 148.000 87 94 104
186.000 759.000 148.000 88 94 105
188.000 752.000 147.000 89 96 107
188.000 753.000 147.000 85 92 102
188.000 754.000 147.000 85 92 102
189.000 754.000 147.000 83 90 99
189.000 755.000 147.000 85 91 101
190.000 752.000 146.000 86 92 102
191.000 753.000 146.000 89 95 105
190.000 754.000 147.000 84 90 100
190.000 755.000 147.000 87 93 103
191.000 754.000 146.000 87 93 103
191.000 754.000 147.000 87 93 103
191.000 755.000 147.000 87 94 104
188.000 756.000 147.000 87 94 104
188.000 757.000 147.000 86 93 104
189.000 756.000 147.000 88 95 105
189.000 757.000 147.000 86 93 104
188.000 758.000 147.000 89 96 107
188.000 759.000 147.000 86 94 105
189.000 759.000 147.000 91 100 112
190.000 756.000 147.000 89 96 106
191.000 756.000 147.000 88 95 105
191.000 757.000 147.000 88 96 107
191.000 758.000 147.000 94 102 113
185.000 760.000 148.000 85 92 102
186.000 760.000 148.000 88 95 106
184.000 765.000 149.000 85 92 102
185.000 765.000 149.000 87 93 103
184.000 766.000 149.000 87 94 103
184.000 767.000 149.000 88 93 103
185.000 766.000 149.000 89 95 105
185.000 767.000 149.000 88 95 104
187.000 766.000 148.000 85 93 104
188.000 760.000 147.000 87 96 108
188.000 763.000 148.000 101 110 122
188.000 764.000 148.000 99 107 119
188.000 765.000 148.000 95 103 115
192.000 749.000 146.000 87 94 104
193.000 749.000 146.000 89 96 107
192.000 750.000 146.000 87 94 105
192.000 751.000 146.000 85 93 104
193.000 750.000 146.000 93 101 111
193.000 751.000 146.000 98 105 116
194.000 749.000 146.000 89 96 107
194.000 750.000 146.000 96 104 115
192.000 752.000 146.000 88 95 106
192.000 753.000 146.000 87 94 104
192.000 753.000 147.000 87 94 104
193.000 752.000 146.000 96 103 114
193.000 753.000 147.000 88 96 107
192.000 754.000 147.000 87 94 104
192.000 755.000 147.000 87 94 104
193.000 754.000 147.000 86 93 104
193.000 755.000 147.000 86 93 103
192.000 756.000 147.000 87 94 105
158.000 769.000 158.000 87 94 104
161.000 768.000 156.000 86 93 102
162.000 771.000 156.000 85 92 102
164.000 768.000 155.000 87 94 103
166.000 768.000 154.000 87 93 103
166.000 769.000 154.000 85 92 102
167.000 768.000 154.000 87 94 104
167.000 769.000 154.000 86 93 103
166.000 770.000 154.000 91 97 108
166.000 771.000 154.000 98 104 114
166.000 772.000 154.000 88 94 104
175.000 768.000 151.000 82 89 100
175.000 769.000 151.000 83 90 100
175.000 770.000 151.000 85 92 102
169.000 768.000 153.000 84 91 101
169.000 769.000 153.000 83 90 100
169.000 770.000 153.000 80 87 97
169.000 771.000 153.000 79 86 97
170.000 768.000 153.000 84 91 101
170.000 769.000 153.000 85 91 101
169.000 772.000 153.000 82 89 99
172.000 768.000 152.000 86 93 103
172.000 769.000 152.000 85 91 101
173.000 769.000 152.000 84 91 101
172.000 770.000 152.000 90 96 105
172.000 771.000 152.000 91 97 107
173.000 770.000 152.000 90 96 106
172.000 772.000 152.000 93 99 109
172.000 773.000 153.000 84 91 101
172.000 774.000 153.000 83 91 101
173.000 775.000 152.000 88 95 105
174.000 773.000 152.000 99 106 116
175.000 772.000 152.000 97 103 114
175.000 773.000 152.000 96 103 114
174.000 774.000 152.000 93 100 111
174.000 775.000 152.000 92 99 110
175.000 774.000 152.000 91 98 109
175.000 775.000 152.000 92 100 111
176.000 768.000 151.000 84 91 102
176.000 769.000 151.000 83 90 100
176.000 770.000 151.000 85 91 101
177.000 770.000 151.000 85 91 101
178.000 768.000 151.000 95 102 113
178.000 769.000 150.000 82 90 100
179.000 768.000 150.000 90 97 108
179.000 769.000 150.000 83 90 100
178.000 770.000 150.000 85 92 102
178.000 771.000 150.000 88 95 105
178.000 771.000 151.000 87 93 103
179.000 770.000 150.000 85 92 102
177.000 773.000 151.000 85 91 101
177.000 774.000 151.000 86 93 103
177.000 775.000 151.000 91 98 108
178.000 772.000 151.000 86 93 103
178.000 773.000 151.000 83 90 100
179.000 773.000 150.000 84 90 100
178.000 774.000 151.000 84 91 101
178.000 775.000 151.000 87 94 104
180.000 768.000 150.000 87 94 105
180.000 769.000 150.000 82 89 100
181.000 768.000 150.000 84 90 100
181.000 769.000 150.000 81 88 98
180.000 770.000 150.000 84 91 101
180.000 771.000 150.000 86 93 104
181.000 771.000 150.000 93 100 110
182.000 768.000 149.000 81 87 97
182.000 769.000 149.000 80 87 97
183.000 768.000 149.000 86 91 101
183.000 769.000 149.000 83 90 100
183.000 770.000 149.000 88 95 106
183.000 771.000 149.000 98 105 115
182.000 771.000 150.000 100 107 117
180.000 772.000 150.000 87 93 104
180.000 773.000 150.000 85 92 102
181.000 772.000 150.000 93 99 109
181.000 773.000 150.000 87 93 103
180.000 774.000 150.000 85 91 101
180.000 775.000 150.000 85 92 102
181.000 774.000 150.000 86 93 103
181.000 775.000 150.000 86 93 104
182.000 772.000 150.000 98 104 114
183.000 773.000 150.000 86 93 103
182.000 774.000 150.000 87 94 104
182.000 775.000 150.000 89 96 107
176.000 776.000 151.000 101 107 118
177.000 776.000 151.000 96 102 113
178.000 776.000 151.000 88 95 105
179.000 776.000 150.000 86 93 103
179.000 776.000 151.000 86 92 102
179.000 777.000 151.000 86 92 103
180.000 776.000 150.000 89 96 106
180.000 777.000 150.000 92 99 110
180.000 777.000 151.000 87 94 105
181.000 776.000 150.000 96 103 114
181.000 777.000 150.000 102 109 120
182.000 776.000 150.000 103 110 121
183.000 778.000 150.000 100 108 120
176.000 776.000 152.000 103 109 120
184.000 768.000 149.000 85 91 101
184.000 769.000 149.000 83 90 100
184.000 771.000 149.000 92 99 109
186.000 771.000 149.000 86 93 103
187.000 770.000 149.000 92 98 109
184.000 772.000 149.000 92 98 109
184.000 773.000 149.000 86 93 103
185.000 772.000 149.000 88 95 106
185.000 773.000 149.000 86 92 103
184.000 774.000 149.000 87 94 104
184.000 775.000 149.000 88 95 106
185.000 775.000 149.000 86 93 104
186.000 772.000 149.000 88 94 105
186.000 773.000 149.000 86 92 103
186.000 774.000 149.000 82 89 100
185.000 776.000 149.000 90 97 108
185.000 779.000 150.000 90 97 107
186.000 777.000 150.000 89 96 106
