ply
format ascii 1.0
element vertex 1438
property float x
property float y
property float z
property uchar red
property uchar green
property uchar blue
end_header
333.000 638.000 233.000 72 75 82
333.000 639.000 232.000 65 68 74
333.000 639.000 233.000 72 74 80
334.000 639.000 233.000 55 60 68
335.000 639.000 233.000 48 55 62
334.000 638.000 234.000 60 65 72
334.000 639.000 234.000 52 58 66
335.000 639.000 234.000 51 57 64
335.000 639.000 235.000 52 58 65
341.000 631.000 239.000 63 69 76
342.000 631.000 239.000 61 68 75
343.000 631.000 239.000 62 68 76
341.000 639.000 229.000 59 65 72
340.000 639.000 231.000 49 56 63
341.000 638.000 231.000 53 58 66
341.000 639.000 230.000 58 64 71
341.000 639.000 231.000 54 60 67
343.000 637.000 230.000 53 59 66
343.000 637.000 231.000 53 58 65
342.000 639.000 229.000 59 65 72
343.000 638.000 229.000 55 61 68
343.000 639.000 228.000 57 63 71
343.000 639.000 229.000 55 61 68
342.000 638.000 230.000 57 62 69
342.000 638.000 231.000 53 59 66
342.000 639.000 230.000 59 64 71
343.000 638.000 230.000 55 60 68
338.000 633.000 239.000 62 67 74
339.000 633.000 238.000 60 66 73
339.000 634.000 237.000 55 61 69
339.000 635.000 237.000 56 62 69
338.000 635.000 238.000 54 60 67
339.000 634.000 238.000 56 62 70
339.000 635.000 238.000 55 61 68
336.000 639.000 234.000 50 56 64
336.000 639.000 235.000 51 57 64
337.000 639.000 235.000 51 57 64
339.000 639.000 233.000 50 57 65
338.000 639.000 234.000 54 60 67
339.000 638.000 235.000 49 55 63
336.000 637.000 237.000 55 61 69
336.000 637.000 238.000 54 60 67
337.000 636.000 238.000 54 60 67
337.000 637.000 238.000 56 61 68
336.000 638.000 237.000 58 63 71
336.000 639.000 236.000 53 59 66
337.000 638.000 237.000 57 62 69
337.000 639.000 236.000 52 58 65
339.000 636.000 237.000 58 63 70
338.000 636.000 238.000 55 61 68
338.000 637.000 238.000 56 62 68
339.000 637.000 238.000 55 61 67
338.000 638.000 238.000 58 62 69
342.000 635.000 235.000 52 58 66
343.000 634.000 235.000 56 63 71
343.000 635.000 234.000 52 59 67
343.000 635.000 235.000 52 59 66
340.000 633.000 237.000 57 64 72
341.000 633.000 237.000 58 65 72
340.000 632.000 239.000 62 68 75
340.000 633.000 238.000 58 64 72
341.000 632.000 238.000 60 66 74
341.000 632.000 239.000 62 68 76
341.000 633.000 238.000 60 66 73
340.000 634.000 237.000 56 62 69
340.000 635.000 237.000 57 62 70
341.000 634.000 236.000 55 61 68
341.000 634.000 237.000 54 60 68
341.000 635.000 236.000 54 60 68
341.000 635.000 237.000 56 62 70
342.000 633.000 237.000 61 67 74
343.000 632.000 237.000 65 71 78
343.000 633.000 237.000 65 71 78
342.000 632.000 238.000 59 66 73
342.000 632.000 239.000 59 66 73
342.000 633.000 238.000 61 67 75
343.000 632.000 238.000 61 67 75
343.000 632.000 239.000 60 67 74
343.000 633.000 238.000 62 68 75
342.000 634.000 236.000 58 64 71
342.000 634.000 237.000 60 65 73
342.000 635.000 236.000 55 61 68
343.000 634.000 236.000 60 66 74
341.000 637.000 233.000 50 56 64
341.000 636.000 235.000 51 57 65
341.000 637.000 234.000 49 56 63
340.000 638.000 233.000 49 55 63
341.000 638.000 232.000 52 57 64
342.000 637.000 232.000 52 58 65
343.000 636.000 232.000 56 61 68
343.000 636.000 233.000 57 62 69
343.000 637.000 232.000 55 60 67
343.000 637.000 233.000 55 60 67
342.000 636.000 234.000 53 59 66
342.000 636.000 235.000 51 57 65
342.000 637.000 234.000 51 57 64
343.000 636.000 234.000 56 61 69
342.000 638.000 232.000 52 58 64
340.000 636.000 237.000 58 63 70
340.000 637.000 237.000 56 61 68
341.000 636.000 236.000 54 60 67
341.000 637.000 236.000 52 58 65
344.000 631.000 239.000 64 70 78
345.000 631.000 239.000 64 71 78
346.000 631.000 238.000 65 71 78
346.000 631.000 239.000 65 72 79
347.000 631.000 238.000 64 71 79
347.000 631.000 239.000 65 71 79
349.000 631.000 237.000 62 68 76
348.000 631.000 238.000 65 72 79
348.000 631.000 239.000 66 72 79
349.000 631.000 238.000 65 71 79
349.000 631.000 239.000 67 72 80
350.000 631.000 237.000 60 67 74
351.000 631.000 236.000 58 65 73
351.000 631.000 237.000 59 65 73
350.000 631.000 238.000 61 68 76
350.000 631.000 239.000 63 70 78
351.000 630.000 239.000 60 67 75
351.000 631.000 238.000 59 66 74
351.000 631.000 239.000 62 68 76
345.000 635.000 231.000 59 65 72
347.000 635.000 229.000 61 67 74
346.000 635.000 230.000 64 69 76
346.000 635.000 231.000 62 67 75
347.000 635.000 230.000 62 67 74
347.000 635.000 231.000 63 68 76
344.000 639.000 227.000 60 66 73
345.000 638.000 227.000 65 70 77
345.000 639.000 227.000 62 67 74
347.000 637.000 227.000 64 69 76
346.000 638.000 227.000 62 68 75
346.000 639.000 227.000 61 66 74
347.000 638.000 227.000 62 68 75
347.000 639.000 226.000 64 69 76
347.000 639.000 227.000 63 68 75
344.000 637.000 229.000 58 63 71
345.000 636.000 229.000 61 67 74
345.000 637.000 228.000 60 66 73
345.000 637.000 229.000 60 65 73
344.000 636.000 230.000 57 63 70
344.000 636.000 231.000 56 62 69
344.000 637.000 230.000 55 61 68
344.000 637.000 231.000 55 60 67
345.000 636.000 230.000 60 66 73
345.000 636.000 231.000 59 65 72
344.000 638.000 228.000 58 64 72
344.000 638.000 229.000 56 62 70
344.000 639.000 228.000 60 66 74
345.000 638.000 228.000 64 69 76
346.000 636.000 229.000 62 67 74
346.000 637.000 228.000 63 69 76
346.000 637.000 229.000 60 66 73
347.000 636.000 228.000 64 70 77
347.000 636.000 229.000 61 67 74
347.000 637.000 228.000 63 68 75
346.000 636.000 230.000 63 68 75
346.000 638.000 228.000 65 70 77
348.000 635.000 229.000 65 71 78
349.000 635.000 228.000 65 71 78
349.000 635.000 229.000 65 71 78
348.000 634.000 231.000 59 66 74
348.000 635.000 230.000 61 67 75
348.000 635.000 231.000 59 66 73
349.000 634.000 230.000 63 69 76
349.000 634.000 231.000 62 68 75
349.000 635.000 230.000 64 70 77
350.000 635.000 228.000 67 72 80
350.000 635.000 229.000 67 73 80
351.000 635.000 228.000 70 76 84
351.000 635.000 229.000 70 76 84
350.000 634.000 230.000 66 72 79
350.000 634.000 231.000 65 71 78
350.000 635.000 230.000 65 71 78
351.000 634.000 230.000 70 76 84
351.000 634.000 231.000 67 74 82
348.000 637.000 227.000 65 70 77
349.000 636.000 227.000 65 70 77
349.000 637.000 227.000 63 69 76
348.000 638.000 227.000 64 69 76
348.000 639.000 226.000 61 67 74
348.000 639.000 227.000 63 68 75
349.000 638.000 227.000 62 68 75
349.000 639.000 226.000 61 66 74
350.000 636.000 227.000 63 69 76
350.000 637.000 227.000 62 68 75
351.000 636.000 227.000 62 69 77
351.000 637.000 227.000 61 67 75
350.000 638.000 226.000 60 66 73
350.000 638.000 227.000 61 67 74
350.000 639.000 226.000 60 66 73
351.000 638.000 226.000 60 66 73
351.000 638.000 227.000 60 65 73
351.000 639.000 226.000 61 66 73
348.000 636.000 228.000 66 71 78
348.000 636.000 229.000 65 70 77
349.000 636.000 228.000 65 70 77
350.000 636.000 228.000 64 70 77
351.000 636.000 228.000 65 72 80
345.000 633.000 235.000 66 72 80
344.000 635.000 232.000 57 63 71
344.000 635.000 233.000 56 62 71
345.000 635.000 232.000 58 64 72
345.000 635.000 233.000 57 64 72
344.000 634.000 234.000 54 62 70
344.000 634.000 235.000 57 64 72
344.000 635.000 234.000 53 60 68
344.000 635.000 235.000 54 61 69
345.000 634.000 234.000 58 65 73
345.000 634.000 235.000 62 69 77
346.000 633.000 235.000 68 74 82
347.000 633.000 234.000 65 71 79
347.000 633.000 235.000 68 74 81
346.000 634.000 232.000 60 66 73
346.000 634.000 233.000 59 66 73
346.000 635.000 232.000 60 66 74
346.000 635.000 233.000 58 65 73
347.000 634.000 232.000 61 68 75
347.000 634.000 233.000 61 67 75
347.000 635.000 232.000 63 69 76
346.000 634.000 234.000 62 68 76
346.000 634.000 235.000 66 72 80
347.000 634.000 234.000 63 69 77
344.000 632.000 237.000 67 72 80
344.000 633.000 236.000 63 69 77
344.000 633.000 237.000 67 73 80
345.000 632.000 236.000 68 74 81
345.000 632.000 237.000 65 71 79
345.000 633.000 236.000 67 73 81
344.000 632.000 238.000 64 70 78
344.000 632.000 239.000 63 70 77
345.000 632.000 238.000 64 71 78
345.000 632.000 239.000 64 70 78
344.000 634.000 236.000 61 67 75
346.000 632.000 236.000 68 73 81
346.000 632.000 237.000 65 71 79
346.000 633.000 236.000 70 75 83
347.000 632.000 236.000 68 74 82
347.000 632.000 237.000 65 71 79
346.000 632.000 238.000 65 71 79
347.000 632.000 238.000 65 71 78
344.000 636.000 232.000 56 62 69
344.000 636.000 233.000 57 63 71
349.000 633.000 233.000 62 68 75
348.000 633.000 234.000 64 70 78
348.000 633.000 235.000 67 73 81
349.000 632.000 235.000 62 68 76
349.000 633.000 234.000 63 68 76
349.000 633.000 235.000 64 70 77
348.000 634.000 232.000 61 67 75
348.000 634.000 233.000 61 68 76
349.000 634.000 232.000 61 68 75
349.000 634.000 233.000 61 67 75
348.000 634.000 234.000 63 70 78
350.000 633.000 232.000 64 70 77
350.000 633.000 233.000 62 68 75
351.000 632.000 233.000 63 70 78
351.000 633.000 232.000 65 72 80
351.000 633.000 233.000 63 69 77
350.000 632.000 234.000 60 67 74
350.000 632.000 235.000 60 66 74
350.000 633.000 234.000 61 67 75
351.000 632.000 234.000 60 67 76
351.000 632.000 235.000 58 66 74
350.000 634.000 232.000 64 70 77
348.000 632.000 236.000 66 72 80
348.000 632.000 237.000 65 71 79
349.000 632.000 236.000 64 70 77
349.000 632.000 237.000 64 70 78
348.000 632.000 238.000 64 70 78
350.000 632.000 236.000 59 66 73
351.000 632.000 236.000 58 65 73
339.000 631.000 242.000 60 66 73
340.000 631.000 240.000 62 67 75
340.000 631.000 241.000 61 67 75
341.000 631.000 240.000 64 70 78
341.000 631.000 241.000 65 71 79
342.000 630.000 241.000 65 71 78
342.000 631.000 240.000 64 70 78
343.000 630.000 240.000 65 71 79
343.000 630.000 241.000 66 72 80
343.000 631.000 240.000 65 70 78
339.000 632.000 240.000 60 66 73
340.000 632.000 240.000 58 64 71
344.000 629.000 242.000 65 71 79
345.000 628.000 242.000 65 71 78
345.000 629.000 242.000 66 72 79
344.000 630.000 240.000 67 73 80
344.000 630.000 241.000 67 72 80
344.000 631.000 240.000 64 70 78
345.000 630.000 240.000 66 72 80
345.000 630.000 241.000 65 72 80
345.000 631.000 240.000 65 72 80
346.000 629.000 241.000 66 72 80
346.000 628.000 242.000 68 73 80
346.000 629.000 242.000 67 73 81
346.000 630.000 241.000 66 73 81
346.000 631.000 240.000 66 72 80
347.000 630.000 241.000 67 73 81
347.000 631.000 240.000 67 73 81
347.000 631.000 241.000 67 73 81
348.000 630.000 241.000 66 72 79
348.000 631.000 240.000 66 72 80
348.000 631.000 241.000 66 72 80
349.000 630.000 240.000 66 73 81
349.000 630.000 241.000 66 73 81
349.000 631.000 240.000 66 73 81
350.000 630.000 240.000 65 72 80
350.000 631.000 240.000 65 71 79
351.000 630.000 240.000 61 68 76
357.000 631.000 231.000 69 74 81
358.000 631.000 231.000 70 75 83
353.000 631.000 233.000 69 75 83
352.000 631.000 234.000 63 70 79
352.000 631.000 235.000 61 68 77
353.000 631.000 234.000 67 74 83
353.000 631.000 235.000 66 73 81
355.000 629.000 235.000 75 81 89
354.000 631.000 233.000 71 78 86
355.000 631.000 232.000 68 74 83
355.000 631.000 233.000 70 77 85
354.000 630.000 234.000 73 80 88
354.000 630.000 235.000 71 77 85
354.000 631.000 234.000 72 78 86
354.000 631.000 235.000 70 76 84
355.000 630.000 234.000 74 80 89
355.000 630.000 235.000 74 80 88
355.000 631.000 234.000 73 80 88
353.000 629.000 239.000 58 66 74
352.000 630.000 237.000 58 65 74
352.000 631.000 236.000 59 67 76
352.000 631.000 237.000 57 65 74
353.000 630.000 236.000 64 70 78
353.000 630.000 237.000 60 67 76
353.000 631.000 236.000 63 70 79
352.000 630.000 238.000 57 65 73
352.000 630.000 239.000 58 65 74
352.000 631.000 238.000 57 64 73
353.000 630.000 238.000 59 66 75
353.000 630.000 239.000 58 65 73
354.000 629.000 236.000 68 75 83
354.000 629.000 237.000 65 71 79
355.000 629.000 236.000 72 78 86
355.000 629.000 237.000 66 72 80
354.000 628.000 239.000 61 67 75
354.000 629.000 238.000 62 69 77
354.000 629.000 239.000 60 67 75
355.000 628.000 238.000 63 70 78
354.000 630.000 236.000 68 74 83
354.000 630.000 237.000 64 70 78
356.000 629.000 235.000 75 82 90
357.000 629.000 234.000 76 82 89
357.000 629.000 235.000 73 80 88
356.000 630.000 233.000 70 77 85
356.000 631.000 232.000 68 74 82
356.000 631.000 233.000 69 76 84
357.000 630.000 233.000 70 76 84
357.000 631.000 232.000 68 74 81
357.000 631.000 233.000 68 74 82
356.000 630.000 234.000 75 81 89
357.000 630.000 234.000 74 80 88
358.000 630.000 233.000 70 76 83
358.000 631.000 232.000 70 76 83
356.000 628.000 236.000 72 78 86
356.000 628.000 237.000 69 75 84
356.000 629.000 236.000 73 80 88
357.000 628.000 236.000 71 78 86
352.000 633.000 231.000 68 75 83
353.000 633.000 231.000 68 75 83
352.000 635.000 228.000 70 76 85
352.000 635.000 229.000 70 76 85
353.000 635.000 228.000 69 75 84
353.000 635.000 229.000 71 77 86
352.000 634.000 230.000 70 76 85
352.000 634.000 231.000 68 75 83
353.000 634.000 230.000 70 77 85
354.000 633.000 230.000 67 73 82
354.000 633.000 231.000 68 74 82
355.000 632.000 231.000 67 74 82
355.000 633.000 230.000 65 72 80
355.000 633.000 231.000 66 73 81
354.000 634.000 229.000 66 72 81
354.000 635.000 228.000 66 73 81
354.000 635.000 229.000 68 75 83
355.000 634.000 229.000 66 72 80
355.000 635.000 228.000 65 71 79
355.000 635.000 229.000 66 72 80
354.000 634.000 230.000 67 74 82
355.000 634.000 230.000 65 71 79
352.000 636.000 227.000 63 70 78
352.000 637.000 227.000 62 69 76
353.000 636.000 227.000 63 70 78
353.000 637.000 227.000 65 71 78
352.000 638.000 226.000 61 67 74
352.000 639.000 226.000 61 67 74
353.000 638.000 226.000 63 69 76
353.000 639.000 226.000 64 69 77
354.000 636.000 227.000 64 71 79
354.000 637.000 226.000 72 77 85
354.000 637.000 227.000 68 74 82
355.000 636.000 227.000 66 72 80
355.000 637.000 227.000 71 76 84
354.000 639.000 225.000 68 74 81
355.000 639.000 225.000 68 73 80
354.000 638.000 226.000 69 75 82
354.000 639.000 226.000 68 74 82
355.000 638.000 226.000 71 76 83
355.000 639.000 226.000 69 75 82
352.000 636.000 228.000 64 71 80
353.000 636.000 228.000 63 70 78
354.000 636.000 228.000 64 71 79
355.000 636.000 228.000 65 71 79
356.000 632.000 231.000 67 73 81
356.000 633.000 230.000 66 72 80
357.000 632.000 230.000 67 73 80
357.000 632.000 231.000 68 73 81
357.000 633.000 230.000 67 72 80
356.000 634.000 229.000 65 70 78
356.000 635.000 228.000 63 69 76
356.000 635.000 229.000 64 70 77
357.000 634.000 229.000 65 71 78
357.000 635.000 228.000 62 68 75
357.000 635.000 229.000 63 69 76
356.000 634.000 230.000 65 71 78
358.000 633.000 229.000 67 73 81
358.000 632.000 230.000 68 74 81
358.000 632.000 231.000 69 75 82
358.000 634.000 229.000 65 70 78
358.000 635.000 228.000 63 69 76
359.000 634.000 228.000 64 70 78
356.000 636.000 227.000 67 72 79
356.000 637.000 227.000 69 74 81
357.000 636.000 227.000 63 68 75
357.000 637.000 227.000 64 69 76
356.000 639.000 225.000 66 71 78
357.000 638.000 225.000 63 69 76
357.000 639.000 225.000 64 69 76
356.000 638.000 226.000 68 73 80
356.000 639.000 226.000 66 71 78
357.000 638.000 226.000 64 69 76
357.000 639.000 226.000 65 70 77
358.000 636.000 227.000 63 68 75
358.000 637.000 226.000 63 68 75
358.000 637.000 227.000 63 68 75
359.000 637.000 226.000 68 73 80
358.000 638.000 225.000 62 68 75
358.000 639.000 225.000 64 69 77
359.000 638.000 225.000 63 68 76
359.000 639.000 225.000 64 69 77
358.000 638.000 226.000 62 67 74
359.000 638.000 226.000 64 69 76
356.000 636.000 228.000 64 70 77
357.000 636.000 228.000 62 68 75
352.000 632.000 233.000 65 72 81
352.000 633.000 232.000 66 73 81
352.000 633.000 233.000 65 72 80
353.000 632.000 232.000 69 75 83
353.000 632.000 233.000 68 74 83
353.000 633.000 232.000 68 75 83
352.000 632.000 234.000 62 69 78
354.000 632.000 232.000 69 75 84
354.000 632.000 233.000 69 76 84
354.000 633.000 232.000 68 74 83
355.000 632.000 232.000 68 74 82
356.000 632.000 232.000 67 74 82
352.000 629.000 240.000 60 67 75
352.000 630.000 240.000 59 66 74
353.000 630.000 240.000 57 65 73
331.000 655.000 218.000 57 62 68
333.000 650.000 223.000 44 50 58
333.000 651.000 222.000 44 51 59
333.000 651.000 223.000 43 51 58
334.000 651.000 222.000 45 52 60
334.000 651.000 223.000 44 51 59
335.000 651.000 222.000 49 55 62
335.000 651.000 223.000 49 55 62
332.000 653.000 219.000 46 52 58
333.000 653.000 219.000 46 52 59
332.000 655.000 217.000 59 64 71
332.000 654.000 218.000 52 57 63
332.000 655.000 218.000 57 62 69
333.000 654.000 218.000 54 59 65
335.000 653.000 217.000 55 60 67
334.000 653.000 219.000 47 53 60
335.000 654.000 217.000 61 66 72
335.000 655.000 216.000 58 64 70
335.000 655.000 217.000 59 64 71
334.000 654.000 218.000 55 60 66
332.000 652.000 220.000 46 51 58
333.000 652.000 220.000 44 50 57
333.000 652.000 221.000 44 51 58
333.000 653.000 220.000 43 50 57
334.000 652.000 220.000 46 52 59
334.000 652.000 221.000 45 52 59
334.000 653.000 220.000 46 52 59
335.000 652.000 220.000 46 52 60
335.000 652.000 221.000 48 54 61
334.000 652.000 222.000 45 52 59
335.000 652.000 222.000 49 55 62
335.000 662.000 215.000 56 61 68
333.000 656.000 217.000 58 63 69
333.000 657.000 216.000 56 61 68
333.000 658.000 216.000 57 62 68
333.000 659.000 216.000 54 59 66
334.000 656.000 216.000 56 61 68
334.000 657.000 216.000 57 62 69
335.000 656.000 216.000 57 62 69
335.000 657.000 216.000 58 63 70
334.000 658.000 216.000 58 63 70
334.000 659.000 216.000 56 61 68
335.000 658.000 216.000 59 63 70
335.000 659.000 216.000 57 62 68
334.000 660.000 216.000 52 57 63
335.000 660.000 216.000 52 58 64
335.000 661.000 216.000 52 57 64
343.000 647.000 223.000 50 56 64
337.000 654.000 215.000 64 70 77
337.000 655.000 215.000 62 67 75
338.000 653.000 215.000 63 69 76
339.000 653.000 215.000 64 70 77
338.000 654.000 215.000 64 70 77
338.000 655.000 215.000 63 69 76
339.000 654.000 215.000 64 70 77
339.000 655.000 215.000 63 69 76
340.000 652.000 215.000 66 71 78
340.000 653.000 215.000 67 72 79
341.000 652.000 215.000 63 69 76
341.000 653.000 215.000 67 72 80
340.000 654.000 214.000 67 73 81
340.000 654.000 215.000 66 72 80
340.000 655.000 214.000 64 70 78
340.000 655.000 215.000 65 70 78
341.000 654.000 214.000 70 76 84
341.000 654.000 215.000 71 77 85
341.000 655.000 214.000 67 73 81
342.000 652.000 215.000 60 66 73
342.000 653.000 214.000 69 75 83
342.000 653.000 215.000 68 73 81
343.000 652.000 215.000 60 66 73
343.000 653.000 214.000 69 75 83
343.000 653.000 215.000 68 74 82
342.000 654.000 214.000 75 80 88
342.000 655.000 214.000 71 77 85
343.000 654.000 214.000 74 80 88
343.000 655.000 214.000 73 78 87
339.000 651.000 217.000 53 59 66
338.000 651.000 219.000 49 56 63
339.000 651.000 218.000 51 57 65
339.000 651.000 219.000 51 57 65
336.000 651.000 221.000 49 55 63
337.000 651.000 220.000 47 53 61
337.000 651.000 221.000 48 54 62
336.000 651.000 222.000 51 56 64
336.000 651.000 223.000 52 58 65
337.000 651.000 222.000 49 55 63
337.000 651.000 223.000 49 55 62
338.000 651.000 220.000 48 55 62
339.000 651.000 221.000 52 58 66
338.000 650.000 223.000 49 56 64
338.000 651.000 222.000 51 58 65
338.000 651.000 223.000 50 56 64
339.000 650.000 222.000 54 59 67
339.000 650.000 223.000 52 57 65
339.000 651.000 222.000 53 59 67
336.000 653.000 216.000 61 66 73
336.000 653.000 217.000 56 61 68
337.000 652.000 217.000 51 58 65
337.000 653.000 216.000 60 66 73
337.000 653.000 217.000 54 59 66
336.000 652.000 218.000 51 57 64
336.000 652.000 219.000 49 55 61
337.000 652.000 218.000 50 56 63
336.000 654.000 216.000 63 68 75
336.000 654.000 217.000 62 67 74
336.000 655.000 216.000 59 65 72
337.000 654.000 216.000 64 70 77
337.000 655.000 216.000 60 66 73
338.000 652.000 216.000 55 61 68
338.000 652.000 217.000 52 58 65
338.000 653.000 216.000 61 66 74
339.000 652.000 216.000 57 63 70
339.000 652.000 217.000 53 59 66
339.000 653.000 216.000 62 67 74
338.000 652.000 218.000 49 56 63
336.000 652.000 220.000 47 53 60
336.000 652.000 221.000 47 53 60
340.000 651.000 217.000 54 60 67
341.000 651.000 216.000 54 60 68
341.000 651.000 217.000 53 59 67
340.000 651.000 218.000 53 59 67
341.000 651.000 218.000 53 60 67
341.000 651.000 219.000 53 59 67
342.000 651.000 216.000 54 60 68
342.000 651.000 217.000 52 59 66
343.000 651.000 216.000 52 58 66
343.000 651.000 217.000 50 57 64
342.000 650.000 218.000 51 58 66
342.000 650.000 219.000 51 58 66
342.000 651.000 218.000 52 59 66
342.000 651.000 219.000 52 59 68
343.000 650.000 218.000 50 57 65
343.000 650.000 219.000 50 58 66
343.000 651.000 218.000 51 57 64
341.000 649.000 223.000 48 55 63
340.000 651.000 220.000 51 57 65
340.000 651.000 221.000 51 57 65
341.000 650.000 220.000 52 59 67
341.000 650.000 221.000 52 59 67
341.000 651.000 220.000 51 57 65
341.000 651.000 221.000 52 58 66
340.000 650.000 222.000 51 57 65
340.000 650.000 223.000 51 57 65
340.000 651.000 222.000 51 57 65
341.000 650.000 222.000 51 58 66
341.000 650.000 223.000 49 56 64
343.000 649.000 221.000 51 57 66
342.000 649.000 222.000 48 55 64
342.000 649.000 223.000 47 54 62
343.000 648.000 223.000 48 55 63
343.000 649.000 222.000 49 57 65
343.000 649.000 223.000 48 55 63
342.000 650.000 220.000 49 57 66
342.000 650.000 221.000 48 57 65
343.000 650.000 220.000 50 57 65
343.000 650.000 221.000 50 58 66
342.000 650.000 222.000 49 57 66
342.000 650.000 223.000 50 57 66
340.000 652.000 216.000 60 66 73
340.000 652.000 217.000 54 60 67
341.000 652.000 216.000 58 63 70
346.000 643.000 223.000 61 67 74
347.000 643.000 223.000 63 69 76
344.000 645.000 223.000 54 61 68
345.000 644.000 223.000 56 62 69
345.000 645.000 223.000 55 61 68
344.000 646.000 223.000 52 58 65
344.000 647.000 223.000 49 55 63
345.000 646.000 223.000 54 60 67
345.000 647.000 223.000 50 56 63
346.000 644.000 223.000 59 64 71
346.000 645.000 223.000 58 64 71
347.000 644.000 223.000 63 68 75
347.000 645.000 223.000 63 67 74
346.000 646.000 222.000 54 60 66
346.000 646.000 223.000 58 63 70
346.000 647.000 222.000 51 57 64
346.000 647.000 223.000 51 57 64
347.000 646.000 222.000 60 65 71
347.000 646.000 223.000 63 67 74
347.000 647.000 222.000 53 58 65
348.000 643.000 223.000 64 70 77
349.000 643.000 223.000 66 72 80
350.000 643.000 223.000 67 73 81
351.000 643.000 223.000 68 74 81
348.000 644.000 223.000 64 70 78
348.000 645.000 222.000 63 68 75
348.000 645.000 223.000 62 68 75
349.000 644.000 222.000 64 70 78
349.000 644.000 223.000 65 71 79
349.000 645.000 222.000 62 68 75
349.000 647.000 221.000 55 61 68
348.000 646.000 222.000 61 66 72
348.000 647.000 222.000 55 60 67
349.000 646.000 222.000 59 65 72
349.000 647.000 222.000 56 62 69
350.000 644.000 222.000 64 70 78
350.000 644.000 223.000 67 73 81
350.000 645.000 222.000 59 66 74
351.000 644.000 222.000 64 70 78
351.000 645.000 222.000 59 66 74
350.000 646.000 221.000 58 64 72
350.000 647.000 221.000 55 61 69
351.000 646.000 221.000 56 63 71
351.000 647.000 221.000 52 59 66
350.000 646.000 222.000 58 65 72
350.000 647.000 222.000 57 63 70
345.000 651.000 215.000 60 67 75
344.000 652.000 215.000 63 69 76
344.000 653.000 214.000 70 76 85
345.000 652.000 215.000 66 73 81
345.000 653.000 214.000 73 79 88
344.000 654.000 214.000 76 82 91
344.000 655.000 214.000 73 79 88
345.000 655.000 214.000 74 80 89
346.000 652.000 215.000 67 73 82
347.000 652.000 215.000 70 76 84
347.000 653.000 215.000 79 83 91
346.000 654.000 215.000 79 84 93
346.000 655.000 215.000 72 78 87
347.000 654.000 215.000 80 84 92
347.000 655.000 215.000 72 78 86
348.000 652.000 215.000 72 78 86
348.000 653.000 215.000 79 85 93
349.000 652.000 215.000 76 82 91
349.000 653.000 215.000 80 86 95
348.000 654.000 215.000 80 85 93
345.000 649.000 219.000 52 58 65
344.000 650.000 217.000 51 57 65
344.000 651.000 216.000 53 59 67
345.000 651.000 216.000 54 60 68
344.000 650.000 218.000 51 57 65
344.000 650.000 219.000 52 58 65
345.000 650.000 218.000 52 58 65
345.000 650.000 219.000 52 58 65
346.000 649.000 219.000 52 58 65
347.000 649.000 219.000 52 58 65
346.000 651.000 216.000 55 61 69
347.000 650.000 216.000 55 61 68
347.000 651.000 216.000 57 63 71
346.000 650.000 218.000 52 58 65
346.000 650.000 219.000 52 58 65
344.000 649.000 220.000 52 57 64
344.000 649.000 221.000 50 57 64
345.000 649.000 220.000 52 58 65
345.000 649.000 221.000 51 56 64
344.000 648.000 222.000 48 54 62
344.000 648.000 223.000 48 55 62
344.000 649.000 222.000 48 55 63
345.000 648.000 222.000 50 56 63
345.000 649.000 222.000 50 56 63
344.000 650.000 220.000 51 57 64
345.000 650.000 220.000 52 58 65
346.000 649.000 220.000 51 57 64
346.000 649.000 221.000 51 57 64
347.000 648.000 221.000 51 57 63
347.000 649.000 220.000 52 57 64
347.000 649.000 221.000 52 57 64
346.000 648.000 222.000 51 56 63
347.000 648.000 222.000 52 57 63
348.000 649.000 218.000 51 58 66
348.000 649.000 219.000 51 57 65
349.000 649.000 218.000 50 57 64
349.000 649.000 219.000 50 56 64
348.000 650.000 216.000 56 62 70
348.000 650.000 217.000 53 59 66
348.000 651.000 216.000 62 68 76
349.000 650.000 216.000 59 65 73
349.000 650.000 217.000 53 59 66
349.000 651.000 216.000 69 75 83
348.000 650.000 218.000 51 57 65
349.000 650.000 218.000 51 57 65
350.000 649.000 217.000 54 61 68
351.000 649.000 217.000 55 62 69
350.000 649.000 218.000 51 57 65
350.000 649.000 219.000 50 57 64
351.000 649.000 218.000 50 56 64
351.000 649.000 219.000 49 56 64
350.000 650.000 216.000 64 70 78
350.000 650.000 217.000 56 62 70
350.000 651.000 216.000 75 81 89
351.000 650.000 216.000 68 75 83
351.000 650.000 217.000 59 66 73
351.000 651.000 216.000 77 83 91
348.000 648.000 221.000 51 57 64
348.000 649.000 220.000 51 57 65
349.000 648.000 220.000 51 57 64
349.000 648.000 221.000 53 59 66
349.000 649.000 220.000 51 57 65
348.000 648.000 222.000 53 58 65
350.000 648.000 220.000 51 57 65
350.000 648.000 221.000 53 59 66
350.000 649.000 220.000 50 56 64
351.000 648.000 220.000 50 56 64
351.000 649.000 220.000 48 55 64
349.000 652.000 216.000 79 85 94
349.000 653.000 216.000 82 88 97
350.000 652.000 216.000 82 88 97
350.000 653.000 216.000 84 90 99
351.000 652.000 216.000 84 90 99
351.000 653.000 216.000 85 90 99
351.000 653.000 217.000 83 88 97
350.000 655.000 217.000 61 66 74
337.000 656.000 215.000 60 66 73
337.000 657.000 215.000 61 66 74
337.000 658.000 215.000 62 67 74
338.000 656.000 215.000 62 67 75
338.000 657.000 215.000 62 67 74
339.000 656.000 215.000 61 67 74
339.000 657.000 215.000 60 66 73
338.000 658.000 215.000 60 65 72
339.000 658.000 215.000 60 65 73
336.000 662.000 215.000 55 60 67
336.000 663.000 215.000 56 61 68
337.000 663.000 215.000 55 60 67
338.000 663.000 215.000 56 61 68
340.000 656.000 214.000 63 68 76
340.000 656.000 215.000 62 67 75
340.000 657.000 215.000 61 67 75
341.000 656.000 214.000 65 70 78
341.000 657.000 214.000 65 70 78
341.000 657.000 215.000 63 68 76
340.000 658.000 215.000 60 65 73
340.000 659.000 215.000 58 63 70
341.000 658.000 215.000 61 66 74
342.000 656.000 214.000 66 72 80
342.000 657.000 214.000 66 71 79
343.000 656.000 214.000 68 74 82
336.000 656.000 216.000 59 64 71
336.000 657.000 216.000 59 65 72
337.000 656.000 216.000 60 65 73
336.000 658.000 216.000 59 64 70
336.000 659.000 216.000 57 62 68
337.000 658.000 216.000 61 65 72
337.000 659.000 216.000 57 62 69
338.000 659.000 216.000 56 61 68
339.000 659.000 216.000 58 63 70
336.000 660.000 216.000 52 57 64
336.000 661.000 216.000 50 56 63
337.000 660.000 216.000 51 57 63
337.000 661.000 216.000 49 55 61
336.000 662.000 216.000 52 58 65
337.000 662.000 216.000 52 57 64
337.000 662.000 217.000 50 56 62
338.000 660.000 216.000 50 56 62
338.000 661.000 216.000 48 53 60
339.000 660.000 216.000 51 56 63
339.000 661.000 216.000 47 53 59
338.000 662.000 216.000 51 56 63
338.000 663.000 216.000 53 59 65
339.000 662.000 216.000 50 55 62
339.000 663.000 217.000 53 59 65
340.000 659.000 216.000 56 61 68
341.000 659.000 216.000 58 63 70
342.000 659.000 216.000 59 63 70
343.000 659.000 216.000 59 64 70
340.000 660.000 216.000 51 56 63
340.000 661.000 216.000 47 53 59
341.000 660.000 216.000 51 56 63
342.000 660.000 216.000 51 56 62
342.000 661.000 216.000 49 54 60
343.000 660.000 216.000 53 58 64
343.000 661.000 216.000 49 54 61
342.000 662.000 216.000 54 59 66
342.000 662.000 217.000 52 57 63
342.000 663.000 216.000 57 63 69
343.000 662.000 216.000 53 58 65
343.000 663.000 216.000 57 63 70
338.000 664.000 214.000 58 63 70
338.000 664.000 215.000 56 62 69
339.000 664.000 215.000 57 63 70
342.000 665.000 215.000 57 64 71
339.000 664.000 216.000 57 62 70
340.000 664.000 216.000 56 62 70
341.000 664.000 216.000 57 63 71
342.000 664.000 216.000 58 64 71
343.000 664.000 216.000 58 64 71
344.000 657.000 215.000 67 73 81
345.000 657.000 215.000 67 72 80
344.000 658.000 215.000 67 72 79
345.000 658.000 215.000 67 72 80
346.000 656.000 215.000 66 72 80
346.000 657.000 215.000 65 71 79
347.000 656.000 215.000 64 70 77
347.000 657.000 215.000 64 70 78
346.000 658.000 215.000 67 72 80
347.000 658.000 215.000 66 72 80
344.000 659.000 216.000 61 66 73
345.000 659.000 216.000 62 67 74
347.000 657.000 216.000 65 70 78
346.000 658.000 216.000 67 72 80
346.000 659.000 216.000 65 69 76
347.000 658.000 216.000 68 73 80
347.000 659.000 216.000 67 72 79
344.000 660.000 216.000 54 59 65
344.000 661.000 216.000 49 54 61
345.000 660.000 216.000 55 60 66
345.000 661.000 216.000 49 55 61
344.000 662.000 216.000 53 58 65
344.000 663.000 216.000 55 61 68
345.000 662.000 216.000 51 56 63
345.000 663.000 216.000 53 58 65
346.000 660.000 216.000 56 62 69
346.000 661.000 216.000 49 55 61
347.000 660.000 216.000 59 65 72
347.000 661.000 216.000 49 55 62
346.000 662.000 216.000 48 54 61
346.000 663.000 216.000 51 56 63
347.000 662.000 216.000 46 52 59
347.000 663.000 216.000 49 54 60
348.000 656.000 216.000 62 67 75
348.000 657.000 216.000 63 69 76
349.000 656.000 216.000 59 64 72
349.000 657.000 216.000 63 68 75
348.000 658.000 216.000 68 73 81
348.000 659.000 216.000 70 75 82
349.000 658.000 216.000 68 73 80
349.000 659.000 216.000 72 77 84
350.000 656.000 216.000 56 62 69
350.000 656.000 217.000 53 59 66
350.000 657.000 216.000 60 65 72
350.000 657.000 217.000 56 62 69
351.000 656.000 217.000 52 59 66
351.000 657.000 217.000 55 62 69
350.000 658.000 216.000 66 71 78
350.000 658.000 217.000 64 70 77
350.000 659.000 216.000 71 77 84
350.000 659.000 217.000 73 78 85
351.000 658.000 217.000 64 70 78
351.000 659.000 217.000 72 77 84
348.000 660.000 216.000 64 69 76
348.000 661.000 216.000 51 57 64
349.000 660.000 216.000 68 72 80
349.000 661.000 216.000 57 62 69
349.000 661.000 217.000 55 61 68
348.000 662.000 217.000 46 52 59
348.000 663.000 217.000 48 52 58
349.000 662.000 217.000 47 52 59
349.000 663.000 217.000 47 51 57
350.000 660.000 216.000 71 75 82
350.000 660.000 217.000 72 77 84
350.000 661.000 217.000 62 67 74
351.000 660.000 217.000 74 79 86
351.000 661.000 217.000 65 70 78
350.000 662.000 217.000 49 54 61
350.000 663.000 217.000 47 52 57
351.000 662.000 217.000 48 55 62
350.000 663.000 218.000 47 52 58
351.000 662.000 218.000 44 50 57
351.000 663.000 218.000 46 51 57
344.000 664.000 216.000 56 62 69
345.000 664.000 216.000 55 60 67
346.000 664.000 216.000 54 59 66
348.000 664.000 217.000 50 55 60
350.000 664.000 218.000 49 54 60
351.000 664.000 218.000 49 54 60
333.000 640.000 231.000 77 77 83
333.000 641.000 231.000 71 72 78
334.000 641.000 231.000 52 56 63
335.000 641.000 231.000 49 56 63
334.000 642.000 231.000 49 54 61
335.000 642.000 231.000 49 55 63
335.000 643.000 230.000 50 56 62
335.000 643.000 231.000 48 54 61
335.000 647.000 227.000 51 56 63
335.000 644.000 230.000 54 59 66
335.000 645.000 230.000 55 60 67
334.000 647.000 228.000 53 58 64
334.000 647.000 229.000 53 57 63
335.000 646.000 229.000 53 58 65
335.000 647.000 228.000 53 58 65
335.000 647.000 229.000 54 60 67
334.000 646.000 230.000 56 59 65
333.000 640.000 232.000 71 72 78
334.000 640.000 232.000 53 58 65
334.000 641.000 232.000 52 56 63
335.000 640.000 232.000 49 55 62
335.000 640.000 233.000 49 56 63
335.000 641.000 232.000 49 55 63
333.000 650.000 225.000 46 53 60
334.000 649.000 225.000 48 54 61
335.000 649.000 225.000 47 53 61
334.000 648.000 227.000 50 56 62
334.000 649.000 226.000 51 56 64
335.000 648.000 227.000 51 56 63
335.000 649.000 226.000 48 54 61
334.000 650.000 224.000 44 51 58
334.000 650.000 225.000 44 51 59
335.000 650.000 224.000 45 52 59
335.000 650.000 225.000 45 52 59
339.000 643.000 227.000 60 65 72
336.000 641.000 231.000 50 57 64
337.000 641.000 231.000 53 59 67
337.000 643.000 229.000 58 62 69
336.000 642.000 231.000 49 56 63
336.000 643.000 230.000 53 58 65
336.000 643.000 231.000 51 57 63
337.000 642.000 231.000 52 58 66
337.000 643.000 230.000 55 60 66
339.000 641.000 229.000 52 59 67
338.000 641.000 230.000 52 58 66
338.000 641.000 231.000 52 59 67
339.000 640.000 231.000 50 57 65
339.000 641.000 230.000 51 58 66
338.000 642.000 229.000 55 61 68
338.000 643.000 228.000 59 63 70
338.000 643.000 229.000 59 64 71
339.000 642.000 228.000 61 67 74
339.000 642.000 229.000 56 62 69
338.000 642.000 230.000 52 59 66
337.000 645.000 227.000 57 62 69
337.000 647.000 225.000 51 57 64
336.000 646.000 227.000 51 56 63
336.000 647.000 227.000 49 55 63
337.000 646.000 226.000 51 57 64
337.000 646.000 227.000 53 58 66
337.000 647.000 226.000 49 55 62
337.000 647.000 227.000 50 55 62
339.000 645.000 225.000 59 64 71
338.000 644.000 227.000 62 67 73
338.000 645.000 226.000 60 65 72
338.000 645.000 227.000 58 64 71
339.000 644.000 226.000 65 69 76
339.000 644.000 227.000 63 68 75
339.000 645.000 226.000 63 67 74
338.000 647.000 225.000 52 57 64
339.000 646.000 225.000 52 58 65
339.000 647.000 225.000 52 57 64
338.000 646.000 226.000 55 60 67
336.000 644.000 229.000 57 62 69
336.000 645.000 229.000 55 61 68
337.000 644.000 228.000 57 62 69
337.000 645.000 228.000 58 63 70
337.000 645.000 229.000 55 60 67
336.000 646.000 228.000 55 60 67
336.000 646.000 229.000 55 60 68
336.000 647.000 228.000 53 59 67
337.000 646.000 228.000 55 61 68
341.000 641.000 227.000 61 67 74
341.000 643.000 225.000 64 69 76
340.000 642.000 226.000 59 65 72
340.000 642.000 227.000 60 66 73
340.000 643.000 226.000 64 69 76
340.000 643.000 227.000 59 65 72
341.000 642.000 226.000 60 66 74
341.000 642.000 227.000 60 66 74
341.000 643.000 226.000 65 71 78
342.000 641.000 226.000 59 65 72
342.000 641.000 227.000 61 67 74
343.000 640.000 227.000 59 64 72
343.000 641.000 226.000 56 63 70
343.000 641.000 227.000 59 65 72
342.000 643.000 225.000 65 70 78
343.000 642.000 225.000 63 69 76
343.000 643.000 224.000 61 67 74
343.000 643.000 225.000 63 68 75
342.000 642.000 226.000 62 68 76
343.000 642.000 226.000 61 67 74
340.000 641.000 228.000 59 65 72
340.000 641.000 229.000 54 60 68
341.000 640.000 228.000 61 67 75
341.000 640.000 229.000 57 63 71
341.000 641.000 228.000 60 67 74
340.000 640.000 230.000 50 57 66
340.000 642.000 228.000 61 67 74
342.000 640.000 228.000 61 67 74
342.000 641.000 228.000 62 67 75
343.000 640.000 228.000 59 65 72
340.000 644.000 225.000 63 68 75
340.000 645.000 225.000 58 64 71
341.000 644.000 225.000 62 67 74
341.000 645.000 225.000 56 62 69
340.000 644.000 226.000 65 70 77
340.000 646.000 225.000 52 58 65
340.000 647.000 224.000 51 57 64
340.000 647.000 225.000 51 57 64
341.000 646.000 224.000 51 57 65
341.000 647.000 224.000 51 57 64
342.000 644.000 225.000 62 68 75
342.000 645.000 224.000 57 63 70
342.000 645.000 225.000 59 64 72
343.000 644.000 224.000 60 65 72
343.000 644.000 225.000 64 69 76
343.000 645.000 224.000 57 62 69
342.000 646.000 224.000 52 58 65
342.000 647.000 224.000 49 56 63
343.000 646.000 224.000 52 58 65
343.000 647.000 224.000 50 56 63
336.000 640.000 233.000 51 57 64
336.000 641.000 232.000 50 56 64
337.000 640.000 232.000 54 60 67
337.000 640.000 233.000 54 60 67
337.000 641.000 232.000 53 59 67
336.000 640.000 234.000 52 58 65
337.000 640.000 234.000 53 59 66
338.000 640.000 232.000 53 59 67
338.000 640.000 233.000 55 61 68
336.000 649.000 225.000 45 52 60
337.000 648.000 225.000 49 55 63
337.000 649.000 225.000 45 52 59
336.000 648.000 226.000 48 55 62
336.000 648.000 227.000 48 54 61
336.000 649.000 226.000 47 54 61
337.000 648.000 226.000 48 55 62
336.000 650.000 224.000 45 52 60
336.000 650.000 225.000 44 51 59
336.000 651.000 224.000 48 54 62
337.000 650.000 224.000 45 52 60
338.000 648.000 225.000 49 55 62
338.000 649.000 225.000 46 52 60
339.000 648.000 225.000 48 54 61
339.000 649.000 225.000 46 52 59
338.000 650.000 224.000 46 54 61
339.000 650.000 224.000 48 55 62
340.000 648.000 224.000 50 56 63
340.000 648.000 225.000 48 54 61
340.000 649.000 224.000 47 53 60
340.000 649.000 225.000 46 52 59
341.000 648.000 224.000 49 55 62
341.000 649.000 224.000 47 54 61
340.000 650.000 224.000 47 54 61
342.000 648.000 224.000 47 54 61
342.000 649.000 224.000 46 53 61
343.000 648.000 224.000 48 55 62
345.000 641.000 225.000 62 68 75
344.000 640.000 226.000 55 62 69
344.000 640.000 227.000 57 63 70
344.000 641.000 226.000 58 65 73
345.000 640.000 226.000 60 66 73
345.000 640.000 227.000 58 64 72
345.000 641.000 226.000 62 68 75
344.000 642.000 225.000 61 68 75
344.000 643.000 224.000 59 65 73
344.000 643.000 225.000 60 66 74
345.000 642.000 225.000 61 67 74
345.000 643.000 224.000 61 67 74
346.000 641.000 225.000 60 66 73
347.000 641.000 225.000 60 66 73
346.000 640.000 226.000 61 67 74
346.000 640.000 227.000 60 66 73
346.000 641.000 226.000 61 68 75
347.000 640.000 226.000 61 66 73
346.000 642.000 224.000 61 67 74
346.000 642.000 225.000 60 66 74
346.000 643.000 224.000 61 66 74
347.000 642.000 224.000 63 69 76
347.000 642.000 225.000 61 67 75
347.000 643.000 224.000 62 68 75
344.000 644.000 224.000 57 64 71
344.000 645.000 224.000 55 61 68
345.000 644.000 224.000 58 64 72
348.000 640.000 225.000 60 66 74
348.000 641.000 224.000 63 69 77
348.000 641.000 225.000 61 67 75
349.000 640.000 225.000 60 66 74
349.000 641.000 224.000 66 73 80
349.000 641.000 225.000 63 70 77
348.000 640.000 226.000 61 67 74
349.000 640.000 226.000 60 66 73
348.000 642.000 224.000 62 69 77
349.000 642.000 224.000 69 74 82
350.000 640.000 225.000 62 68 75
350.000 641.000 225.000 67 72 79
351.000 640.000 225.000 64 69 76
351.000 641.000 225.000 67 73 80
350.000 640.000 226.000 61 67 74
351.000 640.000 226.000 61 67 74
350.000 642.000 224.000 71 77 84
350.000 642.000 225.000 72 77 84
350.000 643.000 224.000 68 74 82
351.000 642.000 224.000 70 76 83
351.000 642.000 225.000 71 76 83
351.000 643.000 224.000 68 74 82
352.000 643.000 222.000 67 73 80
352.000 643.000 223.000 68 74 82
353.000 642.000 223.000 66 72 80
353.000 643.000 222.000 66 72 80
353.000 643.000 223.000 67 73 81
354.000 642.000 223.000 64 70 78
354.000 643.000 222.000 62 68 76
355.000 642.000 223.000 64 69 77
355.000 643.000 222.000 61 67 75
354.000 647.000 219.000 51 56 63
355.000 647.000 219.000 53 59 66
352.000 645.000 221.000 58 65 73
353.000 645.000 221.000 61 68 75
352.000 644.000 222.000 66 72 79
352.000 645.000 222.000 63 69 77
353.000 644.000 222.000 66 73 80
352.000 646.000 221.000 55 61 69
352.000 647.000 220.000 48 55 63
352.000 647.000 221.000 51 58 66
353.000 646.000 221.000 56 62 70
353.000 647.000 220.000 52 58 65
353.000 647.000 221.000 53 59 67
354.000 644.000 221.000 61 68 76
354.000 645.000 221.000 59 65 73
355.000 644.000 221.000 59 65 73
355.000 645.000 221.000 56 62 70
354.000 644.000 222.000 63 69 77
355.000 644.000 222.000 60 66 74
354.000 646.000 220.000 54 60 68
354.000 646.000 221.000 56 62 70
354.000 647.000 220.000 52 58 65
355.000 646.000 220.000 54 60 67
355.000 647.000 220.000 53 59 66
356.000 641.000 223.000 67 72 78
357.000 641.000 223.000 68 73 80
357.000 643.000 221.000 63 69 76
356.000 642.000 223.000 65 70 77
356.000 643.000 222.000 62 68 76
357.000 642.000 222.000 66 71 79
357.000 642.000 223.000 67 72 79
357.000 643.000 222.000 65 70 77
358.000 641.000 223.000 70 76 83
359.000 640.000 223.000 71 76 83
359.000 641.000 222.000 77 82 89
359.000 641.000 223.000 74 79 86
358.000 643.000 221.000 74 79 86
359.000 643.000 221.000 78 83 90
358.000 642.000 222.000 73 79 86
358.000 642.000 223.000 71 77 85
358.000 643.000 222.000 72 78 85
359.000 642.000 222.000 79 84 92
359.000 643.000 222.000 79 84 91
356.000 647.000 219.000 53 59 66
357.000 646.000 219.000 52 58 65
357.000 647.000 219.000 53 59 66
358.000 646.000 219.000 52 58 65
358.000 647.000 218.000 55 60 67
358.000 647.000 219.000 52 58 64
359.000 646.000 219.000 52 58 65
359.000 647.000 218.000 54 59 66
359.000 647.000 219.000 52 57 64
356.000 644.000 221.000 58 64 72
356.000 645.000 220.000 53 60 68
356.000 645.000 221.000 55 61 69
357.000 644.000 221.000 60 66 73
357.000 645.000 220.000 54 61 68
357.000 645.000 221.000 56 63 70
356.000 646.000 220.000 52 59 66
357.000 646.000 220.000 53 59 67
358.000 644.000 221.000 67 72 79
358.000 645.000 220.000 57 63 70
359.000 644.000 220.000 69 75 82
359.000 644.000 221.000 71 77 85
359.000 645.000 220.000 59 66 73
358.000 646.000 220.000 53 59 66
352.000 649.000 217.000 55 62 70
353.000 649.000 217.000 56 63 72
352.000 648.000 219.000 48 55 63
352.000 649.000 218.000 52 59 67
352.000 649.000 219.000 47 55 63
353.000 648.000 219.000 49 55 63
353.000 649.000 218.000 50 57 65
353.000 649.000 219.000 48 55 63
352.000 650.000 216.000 69 76 84
352.000 650.000 217.000 59 66 74
352.000 651.000 216.000 78 84 93
353.000 650.000 217.000 67 73 82
353.000 651.000 217.000 77 83 92
354.000 649.000 217.000 56 63 71
355.000 649.000 217.000 61 67 74
354.000 648.000 219.000 51 57 64
354.000 649.000 218.000 54 60 68
355.000 648.000 218.000 52 59 66
355.000 648.000 219.000 52 58 65
355.000 649.000 218.000 57 64 71
354.000 650.000 217.000 67 73 81
354.000 651.000 217.000 78 83 92
355.000 650.000 217.000 70 75 83
355.000 651.000 217.000 79 84 93
352.000 648.000 220.000 48 55 63
353.000 648.000 220.000 50 55 63
352.000 652.000 216.000 82 88 97
352.000 652.000 217.000 83 88 98
352.000 653.000 217.000 84 89 98
353.000 652.000 217.000 82 87 96
353.000 653.000 217.000 86 91 100
352.000 654.000 217.000 81 86 94
352.000 655.000 217.000 62 67 75
353.000 654.000 217.000 86 90 98
352.000 655.000 218.000 62 68 76
353.000 654.000 218.000 83 88 96
353.000 655.000 218.000 64 70 78
354.000 652.000 217.000 83 88 97
354.000 653.000 217.000 88 93 102
355.000 652.000 217.000 84 89 98
354.000 652.000 218.000 89 93 102
354.000 653.000 218.000 89 93 101
355.000 652.000 218.000 88 93 101
355.000 653.000 218.000 85 90 98
355.000 653.000 219.000 78 82 91
354.000 654.000 218.000 78 83 91
354.000 655.000 218.000 59 66 74
355.000 654.000 219.000 66 72 79
355.000 655.000 219.000 53 60 68
356.000 648.000 218.000 56 62 69
356.000 648.000 219.000 53 59 66
356.000 649.000 218.000 63 68 76
357.000 648.000 218.000 59 65 72
357.000 649.000 218.000 67 72 80
356.000 650.000 217.000 73 78 86
356.000 651.000 217.000 80 85 94
357.000 650.000 217.000 77 82 90
356.000 651.000 218.000 84 89 97
357.000 650.000 218.000 75 80 89
357.000 651.000 218.000 83 88 96
358.000 648.000 218.000 59 65 72
358.000 649.000 218.000 70 76 84
359.000 648.000 218.000 59 66 73
359.000 649.000 218.000 72 78 87
358.000 650.000 218.000 79 84 93
358.000 651.000 218.000 84 89 98
358.000 651.000 219.000 86 91 99
359.000 650.000 218.000 80 87 96
359.000 650.000 219.000 86 92 101
359.000 651.000 219.000 85 90 99
356.000 652.000 218.000 87 91 100
356.000 653.000 218.000 83 87 95
356.000 653.000 219.000 74 79 87
357.000 652.000 218.000 85 90 98
357.000 652.000 219.000 82 87 95
357.000 653.000 219.000 70 75 83
356.000 654.000 219.000 58 64 72
356.000 655.000 219.000 51 58 65
357.000 654.000 219.000 55 61 68
357.000 655.000 219.000 49 56 63
358.000 652.000 219.000 80 84 92
357.000 653.000 220.000 62 67 75
357.000 654.000 220.000 52 58 66
357.000 655.000 220.000 49 55 62
358.000 653.000 220.000 65 70 78
359.000 652.000 220.000 76 81 90
359.000 653.000 220.000 62 68 76
358.000 654.000 220.000 52 58 65
358.000 655.000 220.000 49 55 62
359.000 654.000 220.000 52 58 65
359.000 654.000 221.000 50 56 64
359.000 655.000 220.000 50 56 63
360.000 640.000 223.000 71 77 84
360.000 641.000 222.000 78 83 91
360.000 641.000 223.000 74 80 87
360.000 643.000 221.000 76 82 90
360.000 642.000 222.000 79 84 92
360.000 645.000 219.000 55 61 69
361.000 645.000 219.000 57 63 71
360.000 646.000 219.000 52 58 65
360.000 647.000 218.000 54 60 67
360.000 647.000 219.000 51 57 64
361.000 646.000 219.000 54 60 68
361.000 647.000 218.000 56 63 71
360.000 644.000 220.000 70 76 83
360.000 644.000 221.000 73 79 87
360.000 645.000 220.000 63 69 76
360.000 648.000 218.000 62 68 77
360.000 649.000 218.000 74 81 91
361.000 648.000 218.000 66 73 82
361.000 649.000 218.000 78 86 96
360.000 650.000 218.000 85 92 102
360.000 650.000 219.000 92 98 108
360.000 651.000 219.000 90 96 105
360.000 652.000 220.000 74 80 89
360.000 653.000 220.000 63 69 77
352.000 656.000 217.000 53 59 67
352.000 657.000 217.000 55 61 69
353.000 657.000 217.000 56 62 70
353.000 656.000 218.000 53 60 68
353.000 657.000 218.000 54 61 68
352.000 658.000 217.000 63 69 77
352.000 659.000 217.000 71 76 85
353.000 658.000 217.000 64 69 77
353.000 659.000 217.000 71 76 84
354.000 656.000 218.000 52 59 66
354.000 657.000 218.000 56 63 70
355.000 656.000 218.000 51 58 65
355.000 656.000 219.000 51 57 65
355.000 657.000 218.000 57 63 70
355.000 657.000 219.000 54 60 67
354.000 658.000 217.000 66 72 79
354.000 659.000 217.000 70 75 83
354.000 658.000 218.000 64 70 78
354.000 659.000 218.000 71 77 84
355.000 658.000 218.000 66 71 78
355.000 659.000 218.000 71 77 85
352.000 660.000 217.000 74 79 87
352.000 661.000 217.000 64 70 77
353.000 660.000 217.000 73 78 86
353.000 661.000 217.000 65 70 78
353.000 661.000 218.000 64 69 77
352.000 662.000 217.000 52 58 66
352.000 662.000 218.000 47 53 60
352.000 663.000 218.000 46 51 57
353.000 662.000 218.000 49 55 62
353.000 663.000 218.000 46 51 57
354.000 660.000 218.000 74 79 87
354.000 661.000 218.000 69 74 82
355.000 660.000 218.000 75 80 88
355.000 661.000 218.000 74 79 87
355.000 661.000 219.000 74 79 87
354.000 662.000 218.000 56 61 69
354.000 662.000 219.000 48 53 60
354.000 663.000 219.000 46 51 58
355.000 662.000 219.000 55 61 68
355.000 663.000 219.000 46 51 58
356.000 656.000 219.000 51 57 64
356.000 657.000 218.000 59 64 71
356.000 657.000 219.000 56 62 69
357.000 656.000 219.000 51 57 64
357.000 657.000 219.000 58 63 69
356.000 658.000 218.000 66 71 79
356.000 658.000 219.000 64 69 76
356.000 659.000 218.000 72 78 86
357.000 658.000 219.000 66 72 79
357.000 659.000 218.000 71 76 84
357.000 659.000 219.000 73 79 87
358.000 656.000 219.000 51 57 64
358.000 657.000 219.000 60 65 71
358.000 658.000 219.000 67 72 80
358.000 659.000 219.000 74 80 88
359.000 658.000 219.000 68 74 81
359.000 659.000 219.000 74 79 87
358.000 656.000 220.000 51 56 63
358.000 657.000 220.000 56 62 68
359.000 656.000 220.000 52 58 64
359.000 657.000 220.000 59 64 71
359.000 658.000 220.000 65 70 77
356.000 660.000 218.000 78 84 92
356.000 660.000 219.000 80 85 93
356.000 661.000 219.000 81 85 93
357.000 660.000 219.000 79 85 94
357.000 661.000 219.000 83 87 95
356.000 662.000 219.000 60 66 73
356.000 663.000 219.000 48 54 60
357.000 662.000 219.000 68 73 81
358.000 660.000 219.000 79 85 93
358.000 661.000 219.000 81 86 94
359.000 660.000 219.000 79 84 93
358.000 662.000 219.000 70 75 83
357.000 662.000 220.000 62 67 74
352.000 664.000 218.000 50 55 61
353.000 664.000 218.000 50 54 60
352.000 640.000 225.000 65 70 77
352.000 641.000 225.000 67 72 79
353.000 640.000 225.000 64 70 77
353.000 641.000 224.000 65 71 78
353.000 641.000 225.000 65 71 78
352.000 640.000 226.000 63 68 75
353.000 640.000 226.000 63 68 76
352.000 642.000 224.000 67 73 81
352.000 642.000 225.000 69 74 81
352.000 643.000 224.000 68 74 81
353.000 642.000 224.000 66 72 79
354.000 640.000 225.000 65 71 78
354.000 641.000 224.000 65 70 78
354.000 641.000 225.000 64 70 78
355.000 640.000 224.000 65 71 78
355.000 640.000 225.000 66 71 78
355.000 641.000 224.000 66 71 78
354.000 642.000 224.000 65 71 78
356.000 640.000 224.000 65 71 78
356.000 640.000 225.000 65 70 77
356.000 641.000 224.000 67 72 79
357.000 640.000 224.000 66 71 78
357.000 640.000 225.000 65 70 77
357.000 641.000 224.000 67 72 79
358.000 640.000 224.000 65 71 79
358.000 640.000 225.000 64 70 77
359.000 640.000 224.000 68 73 80
