ply
format ascii 1.0
element vertex 666
property float x
property float y
property float z
property uchar red
property uchar green
property uchar blue
end_header
54.000 45.000 187.000 76 66 58
55.000 45.000 186.000 76 66 59
54.000 46.000 187.000 77 67 58
53.000 46.000 189.000 76 66 58
53.000 46.000 190.000 75 65 58
54.000 46.000 188.000 76 66 58
54.000 47.000 188.000 77 66 58
57.000 45.000 183.000 74 66 60
57.000 46.000 183.000 76 68 61
59.000 47.000 180.000 71 63 58
60.000 46.000 178.000 67 61 57
60.000 47.000 178.000 69 62 58
56.000 45.000 185.000 75 66 59
56.000 47.000 184.000 79 69 61
55.000 48.000 185.000 79 67 58
55.000 49.000 185.000 78 67 58
55.000 48.000 186.000 78 67 58
55.000 51.000 185.000 77 67 58
54.000 51.000 187.000 77 66 56
55.000 51.000 186.000 77 66 57
53.000 49.000 189.000 76 66 57
52.000 49.000 191.000 74 64 57
53.000 51.000 190.000 71 61 53
54.000 48.000 188.000 78 67 58
54.000 49.000 188.000 78 67 58
54.000 50.000 188.000 77 66 57
54.000 51.000 188.000 76 65 56
55.000 52.000 186.000 75 65 57
55.000 53.000 186.000 73 63 55
54.000 54.000 187.000 70 61 54
55.000 55.000 186.000 65 59 53
55.000 55.000 187.000 65 58 53
52.000 52.000 191.000 74 64 57
53.000 52.000 190.000 71 62 54
53.000 53.000 190.000 71 62 54
53.000 54.000 189.000 70 61 54
53.000 54.000 190.000 70 61 54
54.000 52.000 188.000 74 63 54
54.000 54.000 188.000 69 60 54
54.000 55.000 188.000 66 59 54
54.000 63.000 190.000 82 88 97
59.000 50.000 179.000 74 66 60
57.000 48.000 181.000 75 65 58
57.000 49.000 181.000 77 68 61
57.000 49.000 182.000 78 68 61
57.000 50.000 182.000 78 68 61
57.000 50.000 183.000 78 68 61
58.000 49.000 180.000 75 66 60
58.000 49.000 181.000 76 67 60
58.000 50.000 180.000 76 67 61
58.000 50.000 181.000 77 68 61
58.000 51.000 180.000 76 67 61
58.000 51.000 181.000 77 68 61
59.000 51.000 180.000 75 66 60
57.000 52.000 182.000 76 67 60
57.000 52.000 183.000 75 66 59
57.000 53.000 183.000 73 64 58
57.000 54.000 183.000 71 63 57
57.000 55.000 183.000 67 61 56
58.000 52.000 181.000 75 66 60
58.000 53.000 181.000 72 65 59
59.000 52.000 180.000 73 65 59
59.000 53.000 180.000 71 64 59
59.000 55.000 181.000 66 61 59
58.000 54.000 182.000 70 63 58
58.000 55.000 182.000 67 61 58
60.000 48.000 177.000 69 62 58
61.000 49.000 176.000 70 63 58
61.000 49.000 177.000 70 63 58
60.000 48.000 178.000 70 63 58
60.000 49.000 179.000 72 65 59
61.000 50.000 177.000 71 63 59
61.000 51.000 177.000 72 65 60
60.000 51.000 178.000 72 65 59
60.000 51.000 179.000 73 65 59
60.000 52.000 179.000 72 64 59
60.000 53.000 179.000 70 63 58
61.000 53.000 178.000 70 64 60
61.000 54.000 179.000 67 62 60
61.000 55.000 179.000 65 61 60
63.000 54.000 176.000 67 62 60
63.000 55.000 177.000 65 62 61
60.000 54.000 180.000 68 62 59
60.000 55.000 180.000 66 61 60
56.000 48.000 184.000 79 69 61
56.000 49.000 184.000 79 68 60
56.000 50.000 184.000 78 68 60
56.000 51.000 184.000 77 67 59
56.000 52.000 184.000 76 66 58
56.000 53.000 185.000 72 63 56
57.000 53.000 184.000 74 65 58
56.000 55.000 184.000 68 61 55
56.000 55.000 185.000 66 59 54
57.000 55.000 184.000 66 59 55
57.000 56.000 183.000 64 58 55
58.000 56.000 182.000 64 59 57
58.000 58.000 183.000 63 64 67
58.000 59.000 183.000 71 73 78
59.000 58.000 182.000 64 65 70
59.000 59.000 183.000 74 77 83
59.000 60.000 183.000 79 83 90
59.000 61.000 183.000 80 85 93
59.000 62.000 183.000 81 86 94
61.000 56.000 179.000 60 58 59
62.000 56.000 178.000 61 59 60
63.000 57.000 178.000 62 63 67
62.000 58.000 179.000 69 71 76
62.000 59.000 179.000 77 81 87
63.000 58.000 178.000 70 72 78
63.000 59.000 178.000 77 81 87
60.000 56.000 180.000 62 60 60
60.000 56.000 181.000 60 58 59
61.000 57.000 180.000 60 61 64
60.000 58.000 181.000 66 68 72
60.000 59.000 181.000 74 77 82
61.000 58.000 180.000 68 70 74
61.000 59.000 180.000 76 79 85
62.000 60.000 179.000 82 87 94
63.000 60.000 178.000 82 87 94
63.000 61.000 179.000 83 88 96
63.000 62.000 179.000 83 88 96
61.000 60.000 180.000 80 84 91
61.000 61.000 181.000 82 87 95
60.000 60.000 182.000 80 83 90
60.000 61.000 182.000 80 85 93
61.000 61.000 182.000 81 86 94
61.000 62.000 181.000 83 88 96
60.000 62.000 182.000 81 86 95
60.000 63.000 182.000 80 85 94
60.000 63.000 183.000 80 85 94
61.000 63.000 182.000 80 85 93
62.000 60.000 180.000 82 86 93
62.000 61.000 180.000 83 88 96
62.000 62.000 181.000 82 88 96
63.000 62.000 180.000 82 88 96
56.000 56.000 185.000 60 55 53
57.000 56.000 184.000 60 55 53
57.000 56.000 185.000 59 55 53
57.000 57.000 184.000 56 54 54
57.000 57.000 185.000 55 54 53
56.000 56.000 186.000 60 56 53
56.000 57.000 186.000 56 53 52
57.000 58.000 184.000 59 59 61
57.000 58.000 185.000 60 60 62
57.000 59.000 185.000 72 74 79
56.000 59.000 187.000 78 80 85
58.000 58.000 184.000 63 64 66
58.000 59.000 184.000 73 75 80
56.000 60.000 186.000 81 84 90
56.000 60.000 187.000 83 86 92
57.000 60.000 186.000 80 83 90
57.000 61.000 186.000 81 86 93
57.000 63.000 187.000 81 87 95
58.000 60.000 184.000 78 83 89
58.000 60.000 185.000 79 82 89
58.000 61.000 184.000 80 85 92
58.000 61.000 185.000 80 85 92
58.000 62.000 185.000 81 86 94
58.000 63.000 185.000 81 86 94
59.000 62.000 184.000 81 86 94
59.000 63.000 184.000 80 86 94
59.000 63.000 185.000 80 85 94
58.000 63.000 186.000 81 87 95
47.000 51.000 204.000 78 67 59
47.000 51.000 205.000 78 68 59
47.000 53.000 203.000 75 65 58
47.000 55.000 202.000 70 62 57
45.000 55.000 207.000 72 64 59
47.000 52.000 204.000 76 66 59
47.000 52.000 205.000 77 67 60
46.000 52.000 206.000 78 68 60
46.000 52.000 207.000 78 68 60
46.000 54.000 205.000 75 66 59
46.000 55.000 205.000 72 64 58
46.000 54.000 206.000 76 66 60
46.000 54.000 207.000 76 67 60
46.000 55.000 207.000 74 65 59
47.000 56.000 202.000 66 59 54
47.000 57.000 202.000 63 57 53
47.000 58.000 201.000 59 55 54
47.000 59.000 200.000 63 63 65
47.000 59.000 201.000 61 60 61
47.000 58.000 202.000 60 56 54
45.000 56.000 207.000 69 62 57
45.000 57.000 207.000 65 59 56
45.000 58.000 207.000 60 56 55
45.000 59.000 207.000 62 61 63
46.000 56.000 204.000 67 61 56
46.000 56.000 205.000 68 61 57
46.000 57.000 204.000 63 58 54
47.000 60.000 200.000 72 73 76
47.000 60.000 201.000 71 72 75
47.000 61.000 200.000 80 83 88
47.000 61.000 201.000 79 81 86
46.000 60.000 203.000 70 70 73
46.000 61.000 203.000 80 81 87
47.000 62.000 200.000 84 87 94
47.000 62.000 201.000 83 86 93
47.000 63.000 201.000 87 92 100
46.000 62.000 203.000 84 87 94
47.000 62.000 202.000 83 86 93
47.000 63.000 202.000 86 91 99
45.000 53.000 210.000 77 68 60
45.000 54.000 208.000 76 67 61
45.000 54.000 209.000 77 67 61
45.000 55.000 208.000 74 65 60
45.000 55.000 209.000 73 65 59
45.000 54.000 210.000 76 67 61
45.000 55.000 210.000 73 65 59
45.000 55.000 211.000 72 65 59
46.000 52.000 208.000 78 68 60
46.000 52.000 209.000 78 68 60
46.000 53.000 208.000 77 68 60
46.000 54.000 208.000 76 67 60
45.000 55.000 213.000 71 64 58
45.000 55.000 214.000 71 63 58
45.000 55.000 217.000 68 61 55
43.000 63.000 213.000 92 97 105
43.000 62.000 214.000 89 93 101
43.000 62.000 215.000 85 88 94
43.000 63.000 214.000 89 94 102
45.000 56.000 208.000 69 62 57
45.000 57.000 208.000 65 59 55
45.000 57.000 210.000 63 57 54
45.000 56.000 213.000 66 59 55
44.000 59.000 212.000 72 72 75
44.000 59.000 213.000 70 70 73
45.000 58.000 215.000 62 59 59
44.000 60.000 211.000 77 79 84
44.000 61.000 210.000 83 86 93
44.000 61.000 211.000 85 88 94
44.000 62.000 209.000 87 91 98
44.000 63.000 209.000 90 95 104
44.000 62.000 210.000 87 91 98
44.000 62.000 211.000 90 94 101
44.000 63.000 210.000 91 96 105
44.000 60.000 212.000 77 79 84
44.000 60.000 213.000 77 79 83
44.000 61.000 212.000 85 88 94
43.000 61.000 216.000 82 82 86
43.000 61.000 217.000 79 79 82
43.000 60.000 219.000 75 71 69
42.000 63.000 216.000 81 84 89
43.000 62.000 216.000 83 85 90
43.000 62.000 221.000 71 66 63
43.000 62.000 223.000 50 50 52
45.000 56.000 216.000 64 58 54
45.000 56.000 217.000 64 58 53
45.000 57.000 216.000 62 57 55
45.000 57.000 217.000 62 57 54
45.000 56.000 218.000 65 59 54
45.000 57.000 218.000 62 57 54
45.000 57.000 219.000 64 58 54
44.000 59.000 219.000 69 65 63
45.000 57.000 220.000 67 60 54
45.000 57.000 221.000 68 60 54
44.000 57.000 222.000 69 61 54
45.000 56.000 222.000 69 60 52
45.000 57.000 222.000 69 60 54
44.000 59.000 221.000 69 63 60
44.000 58.000 222.000 67 60 54
44.000 59.000 222.000 64 59 55
44.000 60.000 222.000 59 55 53
44.000 60.000 223.000 52 48 46
51.000 48.000 193.000 80 69 61
51.000 48.000 195.000 83 72 62
51.000 51.000 194.000 80 70 62
51.000 51.000 195.000 81 71 63
50.000 51.000 196.000 78 68 60
50.000 51.000 197.000 80 70 62
51.000 51.000 196.000 81 70 62
50.000 50.000 198.000 82 73 65
50.000 51.000 198.000 79 69 61
51.000 52.000 194.000 77 67 59
51.000 52.000 195.000 77 67 60
51.000 53.000 195.000 74 65 58
50.000 54.000 195.000 72 63 57
51.000 54.000 195.000 73 64 58
51.000 55.000 194.000 69 61 57
49.000 53.000 198.000 73 65 58
49.000 55.000 197.000 67 61 56
49.000 54.000 198.000 71 63 58
49.000 55.000 198.000 68 61 56
51.000 52.000 196.000 76 66 58
50.000 54.000 197.000 71 63 57
50.000 55.000 196.000 68 61 56
50.000 55.000 197.000 69 62 57
50.000 54.000 198.000 72 64 58
52.000 48.000 192.000 78 67 60
52.000 48.000 193.000 79 68 60
52.000 49.000 192.000 76 66 59
52.000 49.000 193.000 78 67 59
52.000 51.000 193.000 77 67 60
52.000 52.000 192.000 76 66 60
52.000 53.000 192.000 74 65 59
52.000 54.000 192.000 72 64 58
49.000 49.000 200.000 83 73 66
48.000 52.000 201.000 75 66 59
48.000 53.000 201.000 74 65 58
48.000 54.000 201.000 72 64 58
48.000 55.000 201.000 69 62 56
51.000 56.000 193.000 64 58 55
51.000 56.000 194.000 64 58 55
51.000 59.000 193.000 61 61 62
50.000 58.000 195.000 55 52 51
50.000 59.000 195.000 61 60 61
49.000 57.000 197.000 59 54 51
48.000 57.000 199.000 60 55 52
49.000 57.000 198.000 60 55 52
49.000 57.000 199.000 61 56 53
49.000 58.000 197.000 55 52 50
49.000 59.000 196.000 58 58 59
49.000 59.000 197.000 57 56 57
48.000 58.000 198.000 55 53 53
48.000 58.000 199.000 56 53 53
48.000 59.000 198.000 57 56 57
48.000 59.000 199.000 57 57 59
49.000 58.000 198.000 56 53 52
49.000 59.000 198.000 55 55 55
50.000 56.000 197.000 65 59 55
50.000 57.000 196.000 59 54 51
50.000 58.000 196.000 55 51 49
50.000 60.000 195.000 71 71 75
50.000 63.000 195.000 90 95 104
49.000 60.000 197.000 65 66 69
48.000 60.000 199.000 68 69 73
48.000 61.000 199.000 78 81 86
49.000 63.000 197.000 87 92 101
48.000 62.000 198.000 83 87 94
48.000 62.000 199.000 84 87 94
48.000 63.000 198.000 87 92 101
48.000 63.000 199.000 87 92 100
52.000 60.000 192.000 75 76 81
48.000 58.000 200.000 57 54 53
48.000 59.000 200.000 60 59 60
48.000 60.000 200.000 70 71 75
48.000 61.000 200.000 79 80 85
43.000 61.000 224.000 45 45 47
43.000 62.000 224.000 45 46 49
43.000 63.000 224.000 47 49 53
45.000 57.000 225.000 73 64 56
44.000 58.000 224.000 64 57 52
44.000 59.000 224.000 58 53 49
45.000 58.000 225.000 69 61 55
45.000 58.000 226.000 69 61 54
45.000 58.000 227.000 70 62 56
45.000 59.000 226.000 64 58 54
45.000 59.000 229.000 71 62 56
45.000 59.000 230.000 72 63 58
44.000 60.000 224.000 51 47 46
44.000 61.000 225.000 49 47 47
44.000 60.000 226.000 57 53 50
44.000 60.000 227.000 59 55 52
44.000 61.000 226.000 53 50 49
44.000 61.000 227.000 58 54 52
44.000 62.000 226.000 56 53 53
44.000 62.000 227.000 60 56 55
44.000 61.000 228.000 67 61 58
45.000 60.000 229.000 72 65 61
45.000 61.000 228.000 65 59 55
45.000 61.000 229.000 77 69 65
45.000 60.000 231.000 72 65 62
44.000 62.000 228.000 69 63 61
44.000 63.000 228.000 74 68 65
44.000 63.000 229.000 81 73 68
45.000 62.000 231.000 82 77 76
45.000 63.000 233.000 90 91 96
46.000 61.000 232.000 70 66 65
46.000 62.000 233.000 68 67 68
46.000 61.000 236.000 70 66 65
46.000 61.000 237.000 70 64 62
47.000 61.000 237.000 69 63 61
47.000 62.000 237.000 68 64 64
47.000 63.000 238.000 84 86 91
55.000 64.000 189.000 80 86 95
54.000 65.000 191.000 81 87 96
55.000 65.000 190.000 80 86 95
55.000 66.000 190.000 78 85 94
55.000 67.000 191.000 77 83 92
55.000 68.000 191.000 78 84 92
55.000 69.000 191.000 76 82 90
54.000 71.000 191.000 64 67 72
55.000 70.000 191.000 70 75 82
55.000 71.000 191.000 65 68 74
54.000 73.000 191.000 55 56 59
55.000 72.000 191.000 61 64 68
55.000 73.000 190.000 54 55 58
54.000 74.000 191.000 51 53 56
54.000 75.000 191.000 48 51 56
55.000 74.000 190.000 51 53 56
55.000 76.000 189.000 45 50 56
61.000 67.000 183.000 76 81 89
62.000 64.000 181.000 78 84 91
62.000 65.000 181.000 77 82 90
63.000 65.000 180.000 78 83 91
62.000 67.000 181.000 73 79 86
63.000 70.000 179.000 62 67 73
60.000 71.000 183.000 62 66 71
61.000 70.000 182.000 64 68 75
61.000 71.000 182.000 62 65 70
63.000 68.000 180.000 72 76 83
63.000 69.000 180.000 69 73 80
62.000 68.000 182.000 73 78 85
62.000 69.000 182.000 68 73 80
63.000 70.000 180.000 64 68 74
59.000 65.000 185.000 77 84 92
58.000 64.000 186.000 80 86 94
58.000 65.000 186.000 78 84 92
59.000 66.000 185.000 77 84 92
59.000 67.000 185.000 77 83 91
58.000 66.000 186.000 77 83 92
58.000 66.000 187.000 78 84 93
58.000 67.000 187.000 78 85 93
59.000 66.000 186.000 78 84 93
59.000 67.000 186.000 78 84 92
56.000 65.000 188.000 79 86 95
56.000 65.000 189.000 79 86 95
57.000 66.000 188.000 79 86 94
57.000 67.000 189.000 78 84 93
58.000 69.000 187.000 72 77 84
58.000 70.000 187.000 65 70 75
58.000 71.000 186.000 63 66 70
58.000 71.000 187.000 63 66 70
59.000 70.000 186.000 67 71 76
59.000 71.000 186.000 65 68 72
56.000 68.000 189.000 77 83 91
57.000 68.000 188.000 78 83 92
57.000 69.000 188.000 73 78 85
56.000 69.000 190.000 75 81 89
58.000 69.000 188.000 74 79 87
60.000 64.000 184.000 78 84 93
60.000 66.000 184.000 75 81 90
60.000 67.000 184.000 74 80 89
60.000 67.000 185.000 75 81 89
60.000 69.000 184.000 70 75 82
60.000 70.000 184.000 65 69 75
63.000 73.000 178.000 54 57 60
63.000 73.000 179.000 55 57 61
63.000 74.000 178.000 51 53 56
61.000 72.000 181.000 57 60 64
60.000 72.000 183.000 59 61 65
61.000 72.000 182.000 59 61 65
61.000 73.000 182.000 52 54 58
62.000 72.000 180.000 58 61 66
62.000 73.000 181.000 55 57 61
57.000 72.000 187.000 58 61 65
57.000 73.000 187.000 52 54 58
59.000 72.000 185.000 59 61 65
59.000 73.000 185.000 54 56 60
58.000 72.000 186.000 59 61 65
58.000 72.000 187.000 61 64 68
58.000 73.000 186.000 51 54 57
56.000 73.000 189.000 56 58 61
57.000 73.000 188.000 54 57 61
56.000 76.000 188.000 43 48 55
60.000 72.000 184.000 60 62 65
47.000 64.000 200.000 87 93 102
47.000 64.000 201.000 88 95 104
47.000 65.000 200.000 85 92 102
47.000 65.000 201.000 87 94 104
46.000 64.000 203.000 87 93 103
46.000 65.000 203.000 88 94 104
47.000 64.000 202.000 89 94 104
47.000 65.000 202.000 89 95 105
47.000 66.000 200.000 85 92 102
47.000 66.000 201.000 86 93 103
47.000 67.000 201.000 85 91 100
46.000 66.000 203.000 83 91 101
47.000 67.000 202.000 84 90 100
45.000 64.000 206.000 89 94 103
45.000 65.000 206.000 89 95 104
47.000 69.000 200.000 83 89 97
46.000 69.000 202.000 81 86 94
46.000 69.000 203.000 80 85 93
47.000 68.000 202.000 81 87 96
47.000 70.000 200.000 82 87 95
47.000 70.000 201.000 83 87 95
47.000 71.000 200.000 78 83 91
46.000 70.000 202.000 80 85 92
46.000 70.000 203.000 78 83 91
46.000 71.000 202.000 77 82 89
47.000 71.000 202.000 79 83 90
45.000 68.000 205.000 81 88 97
45.000 69.000 205.000 79 85 93
44.000 71.000 207.000 77 82 90
47.000 75.000 199.000 56 59 64
47.000 78.000 199.000 58 67 76
45.000 73.000 203.000 68 71 77
45.000 74.000 203.000 66 68 72
47.000 72.000 200.000 75 80 87
46.000 72.000 202.000 75 79 86
46.000 74.000 201.000 67 68 71
47.000 74.000 200.000 66 68 71
47.000 75.000 200.000 58 60 64
45.000 72.000 204.000 73 77 84
45.000 73.000 204.000 69 73 79
44.000 72.000 207.000 78 82 89
44.000 73.000 206.000 75 79 85
44.000 73.000 207.000 77 81 87
45.000 74.000 204.000 65 68 73
46.000 78.000 201.000 51 58 66
46.000 79.000 201.000 62 69 78
47.000 78.000 200.000 60 68 78
47.000 79.000 200.000 71 78 88
46.000 79.000 202.000 62 69 78
45.000 78.000 204.000 43 47 52
45.000 79.000 204.000 45 51 59
43.000 64.000 213.000 92 97 106
43.000 65.000 212.000 90 97 106
42.000 64.000 215.000 85 90 97
42.000 65.000 215.000 84 89 97
43.000 66.000 212.000 89 95 105
42.000 66.000 214.000 82 88 96
42.000 67.000 214.000 80 86 95
43.000 67.000 214.000 83 89 98
43.000 68.000 211.000 88 94 103
43.000 69.000 211.000 87 93 102
43.000 71.000 210.000 81 88 96
42.000 68.000 214.000 81 87 95
42.000 69.000 214.000 81 87 95
42.000 70.000 213.000 80 86 94
42.000 71.000 213.000 79 85 93
44.000 64.000 209.000 91 96 105
44.000 65.000 209.000 89 96 105
44.000 66.000 209.000 88 95 104
44.000 67.000 209.000 86 92 102
44.000 68.000 208.000 82 89 98
44.000 69.000 208.000 79 86 95
44.000 70.000 208.000 76 83 91
42.000 64.000 216.000 82 85 92
42.000 65.000 216.000 80 84 91
42.000 67.000 220.000 86 78 72
42.000 67.000 221.000 81 73 68
42.000 66.000 223.000 52 54 57
42.000 70.000 217.000 77 78 82
42.000 70.000 219.000 87 82 80
42.000 68.000 220.000 86 78 72
42.000 68.000 221.000 81 74 69
42.000 68.000 222.000 65 62 61
43.000 73.000 209.000 80 85 92
43.000 72.000 210.000 80 86 94
43.000 73.000 210.000 80 85 93
42.000 73.000 213.000 78 83 91
43.000 72.000 213.000 79 84 93
47.000 80.000 198.000 69 77 88
46.000 80.000 201.000 62 70 79
51.000 64.000 194.000 87 93 103
51.000 66.000 195.000 85 92 101
51.000 67.000 195.000 82 89 98
48.000 64.000 199.000 86 92 101
48.000 65.000 198.000 85 92 101
48.000 65.000 199.000 84 91 101
49.000 66.000 197.000 83 90 100
49.000 67.000 197.000 82 89 98
48.000 66.000 198.000 83 91 100
48.000 66.000 199.000 84 91 100
48.000 67.000 199.000 83 89 98
49.000 66.000 198.000 82 89 99
49.000 67.000 198.000 82 89 98
50.000 66.000 196.000 85 92 101
50.000 67.000 196.000 82 89 98
49.000 69.000 197.000 80 86 94
48.000 68.000 198.000 81 87 96
50.000 68.000 197.000 81 87 96
50.000 69.000 196.000 81 86 94
50.000 69.000 197.000 81 87 95
51.000 68.000 196.000 82 88 97
51.000 69.000 196.000 81 86 95
50.000 70.000 197.000 80 86 93
50.000 71.000 197.000 75 80 86
51.000 70.000 196.000 79 85 92
51.000 71.000 196.000 73 78 84
52.000 64.000 193.000 85 91 101
52.000 65.000 193.000 85 92 101
52.000 66.000 193.000 83 90 99
53.000 66.000 193.000 81 88 97
53.000 67.000 192.000 80 86 95
53.000 67.000 193.000 80 86 95
52.000 66.000 194.000 83 90 99
52.000 67.000 194.000 80 87 96
54.000 67.000 192.000 79 86 94
53.000 68.000 193.000 80 86 95
52.000 68.000 194.000 79 85 94
52.000 69.000 195.000 79 86 94
53.000 70.000 192.000 74 79 88
53.000 71.000 192.000 66 71 78
52.000 70.000 195.000 76 82 90
52.000 71.000 195.000 71 76 83
54.000 68.000 192.000 79 85 94
54.000 69.000 192.000 76 83 91
54.000 71.000 192.000 66 70 76
48.000 67.000 200.000 83 90 99
48.000 71.000 200.000 78 83 91
51.000 73.000 195.000 60 63 68
51.000 74.000 195.000 53 56 60
51.000 75.000 195.000 48 53 59
48.000 72.000 199.000 72 77 84
49.000 72.000 199.000 71 75 82
49.000 73.000 199.000 65 70 75
48.000 75.000 198.000 55 57 62
48.000 75.000 199.000 55 58 62
50.000 72.000 196.000 69 72 77
50.000 72.000 197.000 70 73 78
50.000 73.000 196.000 64 66 71
50.000 73.000 197.000 67 69 74
51.000 72.000 196.000 68 71 76
51.000 73.000 196.000 64 66 71
51.000 74.000 196.000 55 57 62
50.000 76.000 195.000 45 51 59
50.000 77.000 195.000 52 59 67
51.000 76.000 195.000 46 52 60
51.000 77.000 194.000 54 60 69
50.000 79.000 195.000 64 71 81
49.000 77.000 197.000 52 58 66
48.000 76.000 198.000 54 58 64
48.000 76.000 199.000 51 55 60
48.000 77.000 198.000 57 63 70
49.000 76.000 198.000 54 57 63
48.000 78.000 198.000 70 77 85
48.000 79.000 198.000 76 83 92
50.000 76.000 196.000 45 51 59
52.000 73.000 193.000 55 57 61
53.000 73.000 192.000 52 54 57
52.000 72.000 195.000 66 70 74
52.000 73.000 194.000 59 62 66
53.000 74.000 192.000 51 53 56
53.000 74.000 193.000 51 52 56
53.000 75.000 192.000 48 51 55
52.000 74.000 194.000 52 54 59
52.000 75.000 194.000 50 53 58
52.000 76.000 193.000 46 52 60
52.000 77.000 193.000 52 60 68
53.000 76.000 192.000 45 50 57
48.000 72.000 200.000 75 79 86
48.000 73.000 200.000 68 72 77
48.000 81.000 198.000 34 44 55
43.000 66.000 228.000 69 63 59
42.000 69.000 225.000 42 45 50
44.000 64.000 230.000 83 76 71
44.000 65.000 231.000 86 81 80
44.000 66.000 231.000 86 81 81
44.000 67.000 231.000 86 81 80
45.000 65.000 234.000 94 98 107
45.000 66.000 234.000 91 97 107
46.000 65.000 236.000 96 100 109
65.000 59.000 175.000 74 78 84
64.000 57.000 176.000 63 65 68
64.000 58.000 176.000 69 71 76
64.000 58.000 177.000 71 73 78
64.000 59.000 177.000 77 81 88
65.000 59.000 176.000 77 81 88
64.000 60.000 177.000 83 87 95
64.000 61.000 178.000 84 90 98
65.000 62.000 177.000 81 88 97
64.000 62.000 178.000 83 89 98
65.000 72.000 175.000 60 63 68
65.000 73.000 175.000 56 58 63
64.000 67.000 179.000 75 80 88
64.000 69.000 178.000 70 74 81
64.000 69.000 179.000 69 74 81
64.000 71.000 177.000 63 67 73
65.000 71.000 176.000 64 68 74
64.000 70.000 178.000 65 70 76
64.000 70.000 179.000 65 69 75
64.000 71.000 178.000 63 67 72
64.000 71.000 179.000 62 66 71
