ply
format ascii 1.0
element vertex 554
property float x
property float y
property float z
property uchar red
property uchar green
property uchar blue
end_header
123.000 309.000 205.000 37 45 54
123.000 310.000 205.000 36 44 52
124.000 309.000 205.000 36 45 53
125.000 311.000 206.000 35 44 52
126.000 310.000 205.000 36 45 53
127.000 310.000 205.000 35 44 53
126.000 310.000 206.000 35 44 52
132.000 287.000 209.000 38 43 50
128.000 299.000 203.000 37 42 48
129.000 298.000 204.000 36 41 46
130.000 299.000 204.000 37 42 47
131.000 299.000 205.000 37 41 47
131.000 298.000 206.000 35 40 45
130.000 301.000 204.000 38 43 49
131.000 300.000 204.000 37 42 48
132.000 298.000 206.000 35 40 46
132.000 301.000 204.000 39 44 50
133.000 301.000 205.000 39 44 50
133.000 300.000 206.000 38 43 48
134.000 301.000 206.000 39 44 49
134.000 302.000 205.000 40 44 50
134.000 302.000 206.000 39 44 49
136.000 302.000 207.000 39 44 50
136.000 303.000 207.000 39 45 51
130.000 289.000 208.000 37 43 49
130.000 290.000 208.000 37 43 49
131.000 290.000 208.000 37 42 49
131.000 292.000 208.000 35 41 47
131.000 293.000 208.000 33 39 45
132.000 289.000 209.000 37 43 49
133.000 289.000 210.000 37 43 49
132.000 290.000 209.000 37 43 50
133.000 290.000 210.000 36 43 49
133.000 291.000 210.000 35 41 48
134.000 291.000 210.000 35 41 48
132.000 292.000 208.000 35 41 47
133.000 293.000 209.000 31 38 45
134.000 293.000 210.000 30 37 44
135.000 292.000 211.000 33 40 47
135.000 293.000 211.000 32 38 45
135.000 294.000 211.000 31 37 43
136.000 293.000 211.000 32 39 45
136.000 294.000 211.000 32 37 43
136.000 292.000 212.000 32 39 46
136.000 293.000 212.000 31 38 44
137.000 293.000 213.000 31 38 44
136.000 294.000 212.000 32 37 43
137.000 294.000 212.000 32 38 43
137.000 294.000 213.000 33 38 43
138.000 293.000 214.000 31 38 45
139.000 292.000 215.000 32 39 46
139.000 293.000 215.000 31 38 45
138.000 294.000 213.000 32 38 43
138.000 295.000 213.000 33 39 44
138.000 295.000 214.000 33 39 45
139.000 294.000 215.000 33 39 45
139.000 295.000 215.000 33 39 44
139.000 294.000 216.000 33 39 45
139.000 295.000 216.000 34 39 45
140.000 292.000 216.000 32 39 46
140.000 293.000 216.000 32 38 44
141.000 292.000 217.000 33 39 45
141.000 293.000 217.000 33 39 45
141.000 292.000 218.000 33 39 45
141.000 293.000 218.000 33 39 44
140.000 294.000 216.000 33 38 44
140.000 294.000 217.000 33 38 44
140.000 295.000 216.000 34 39 43
140.000 295.000 217.000 35 39 43
141.000 294.000 217.000 33 38 44
141.000 294.000 218.000 33 38 43
141.000 295.000 218.000 34 39 43
142.000 293.000 218.000 33 38 44
142.000 293.000 219.000 32 38 43
143.000 293.000 219.000 33 38 44
142.000 294.000 219.000 33 38 43
142.000 295.000 218.000 34 39 44
142.000 295.000 219.000 34 38 43
143.000 295.000 219.000 34 39 44
143.000 292.000 220.000 33 38 44
143.000 293.000 220.000 33 38 44
143.000 294.000 220.000 34 38 44
143.000 295.000 220.000 35 39 45
137.000 301.000 209.000 37 42 47
137.000 302.000 209.000 37 43 49
138.000 303.000 209.000 39 44 51
139.000 302.000 211.000 37 43 49
139.000 303.000 210.000 38 44 50
140.000 302.000 212.000 37 42 48
141.000 302.000 213.000 36 42 48
141.000 303.000 212.000 37 43 49
140.000 296.000 216.000 35 39 43
140.000 297.000 216.000 35 39 45
141.000 296.000 217.000 35 39 44
141.000 296.000 218.000 35 39 44
142.000 296.000 219.000 35 39 44
143.000 296.000 219.000 35 39 45
143.000 297.000 218.000 34 39 44
129.000 309.000 204.000 38 46 55
128.000 310.000 205.000 35 43 52
129.000 310.000 205.000 36 44 52
129.000 311.000 207.000 35 43 50
130.000 310.000 206.000 35 43 51
130.000 311.000 206.000 35 42 50
131.000 311.000 206.000 34 42 50
132.000 311.000 206.000 34 42 50
134.000 311.000 207.000 34 42 50
133.000 312.000 207.000 33 42 50
134.000 312.000 207.000 34 42 50
132.000 312.000 208.000 34 41 49
133.000 312.000 208.000 34 41 49
133.000 313.000 209.000 35 42 49
134.000 313.000 209.000 35 42 49
135.000 312.000 208.000 34 42 50
135.000 312.000 209.000 35 42 49
135.000 313.000 209.000 36 42 50
139.000 304.000 210.000 40 45 51
140.000 304.000 211.000 39 45 51
140.000 305.000 210.000 40 46 53
141.000 305.000 211.000 40 46 52
141.000 306.000 210.000 42 47 52
142.000 306.000 211.000 42 47 53
143.000 306.000 211.000 41 47 53
143.000 307.000 211.000 42 47 53
142.000 305.000 212.000 40 45 51
142.000 306.000 212.000 41 46 52
143.000 307.000 212.000 40 45 51
136.000 312.000 208.000 35 42 50
136.000 313.000 209.000 36 43 50
137.000 312.000 208.000 35 43 50
137.000 313.000 209.000 36 43 51
136.000 314.000 210.000 37 43 50
137.000 314.000 210.000 36 43 50
138.000 312.000 208.000 34 42 50
139.000 313.000 208.000 35 42 50
139.000 313.000 210.000 34 42 49
141.000 313.000 209.000 36 43 50
140.000 314.000 211.000 36 42 49
141.000 314.000 210.000 36 43 50
141.000 315.000 211.000 36 43 50
142.000 315.000 210.000 36 43 50
142.000 315.000 211.000 36 43 50
143.000 315.000 210.000 34 41 49
143.000 315.000 211.000 36 43 50
141.000 315.000 212.000 36 43 50
143.000 316.000 211.000 36 43 50
142.000 316.000 212.000 36 43 50
142.000 316.000 213.000 36 43 50
143.000 316.000 212.000 36 43 50
143.000 317.000 212.000 36 43 50
144.000 294.000 220.000 34 39 45
144.000 295.000 220.000 34 39 45
145.000 294.000 221.000 34 39 45
145.000 295.000 221.000 35 39 44
144.000 296.000 220.000 35 40 45
145.000 296.000 220.000 36 41 46
145.000 296.000 221.000 35 40 45
145.000 297.000 220.000 36 40 46
145.000 298.000 220.000 35 40 46
146.000 297.000 221.000 35 40 45
146.000 298.000 221.000 35 40 46
146.000 299.000 220.000 34 40 47
147.000 298.000 221.000 35 40 45
147.000 299.000 221.000 36 40 46
144.000 301.000 217.000 36 40 45
145.000 301.000 218.000 36 41 46
146.000 303.000 218.000 36 41 47
146.000 300.000 220.000 36 41 46
147.000 300.000 221.000 36 41 46
147.000 302.000 220.000 35 40 46
148.000 297.000 223.000 35 39 44
148.000 298.000 222.000 35 40 45
148.000 299.000 222.000 35 40 45
149.000 298.000 223.000 35 39 44
149.000 299.000 223.000 35 40 45
148.000 301.000 221.000 35 40 45
148.000 300.000 222.000 36 41 46
149.000 300.000 223.000 36 41 46
149.000 301.000 222.000 36 40 45
148.000 302.000 221.000 35 40 45
150.000 301.000 223.000 35 39 45
150.000 302.000 223.000 35 40 45
150.000 303.000 223.000 35 40 45
144.000 307.000 213.000 39 45 52
145.000 308.000 212.000 42 46 52
146.000 309.000 213.000 40 46 52
147.000 309.000 213.000 40 46 52
146.000 308.000 214.000 40 45 52
146.000 308.000 215.000 39 44 50
146.000 309.000 214.000 40 46 53
147.000 309.000 214.000 41 46 52
147.000 309.000 215.000 39 45 51
147.000 310.000 213.000 41 46 53
147.000 310.000 214.000 41 46 52
147.000 310.000 215.000 39 44 50
148.000 310.000 214.000 41 46 52
148.000 310.000 215.000 41 45 51
148.000 311.000 214.000 42 47 53
149.000 310.000 215.000 42 46 51
149.000 311.000 215.000 41 47 52
147.000 306.000 217.000 36 41 47
148.000 305.000 219.000 37 42 48
148.000 304.000 220.000 37 42 48
149.000 304.000 221.000 36 41 47
150.000 305.000 221.000 36 41 47
151.000 305.000 223.000 36 41 46
150.000 306.000 221.000 37 42 48
151.000 306.000 222.000 37 42 48
148.000 309.000 216.000 39 44 50
149.000 310.000 216.000 39 44 49
149.000 311.000 216.000 40 46 52
150.000 310.000 217.000 38 43 49
150.000 311.000 217.000 37 43 49
150.000 310.000 218.000 37 42 48
150.000 311.000 218.000 37 43 49
150.000 311.000 219.000 37 43 49
151.000 310.000 219.000 38 43 49
151.000 311.000 219.000 36 43 50
151.000 309.000 220.000 37 42 48
151.000 310.000 220.000 37 42 48
151.000 311.000 220.000 37 42 47
144.000 316.000 211.000 36 43 50
144.000 316.000 212.000 36 43 50
144.000 317.000 212.000 36 43 50
144.000 317.000 213.000 36 43 50
145.000 316.000 212.000 36 43 50
145.000 317.000 212.000 36 43 50
145.000 317.000 213.000 36 43 50
145.000 318.000 213.000 37 43 50
146.000 317.000 212.000 36 42 49
146.000 317.000 213.000 36 43 50
147.000 317.000 212.000 37 43 50
146.000 318.000 213.000 36 43 50
147.000 318.000 213.000 35 42 49
150.000 312.000 215.000 41 46 52
151.000 314.000 215.000 43 48 54
148.000 318.000 212.000 36 43 50
148.000 319.000 213.000 36 43 51
149.000 319.000 213.000 36 43 51
150.000 312.000 216.000 41 46 53
151.000 312.000 216.000 40 45 52
151.000 312.000 217.000 38 45 52
151.000 313.000 216.000 41 46 52
151.000 312.000 218.000 39 44 49
151.000 312.000 219.000 38 43 49
152.000 305.000 223.000 35 41 47
152.000 306.000 223.000 36 42 48
152.000 313.000 217.000 38 44 52
152.000 312.000 218.000 36 43 50
152.000 312.000 219.000 35 43 50
153.000 312.000 219.000 38 44 50
153.000 313.000 218.000 38 43 50
153.000 313.000 219.000 39 44 49
152.000 314.000 216.000 40 45 51
153.000 314.000 217.000 40 44 50
153.000 315.000 216.000 41 45 51
153.000 314.000 218.000 38 43 49
154.000 313.000 219.000 38 43 48
154.000 314.000 219.000 38 44 49
154.000 315.000 218.000 41 45 51
155.000 315.000 219.000 39 44 50
152.000 312.000 220.000 34 42 49
153.000 312.000 220.000 36 43 50
153.000 312.000 221.000 37 43 49
153.000 313.000 220.000 38 43 50
154.000 313.000 220.000 36 42 48
154.000 313.000 221.000 37 43 49
154.000 314.000 220.000 35 41 48
154.000 314.000 221.000 34 41 48
155.000 314.000 220.000 37 43 49
155.000 315.000 220.000 36 42 49
154.000 314.000 222.000 35 41 47
155.000 314.000 222.000 37 42 48
153.000 316.000 216.000 42 47 52
155.000 316.000 218.000 39 44 49
156.000 316.000 219.000 38 43 49
157.000 317.000 218.000 37 44 50
149.000 296.000 224.000 34 39 44
149.000 297.000 224.000 34 39 44
149.000 298.000 224.000 34 39 44
150.000 298.000 224.000 34 39 45
150.000 299.000 224.000 34 39 45
151.000 298.000 225.000 35 40 45
151.000 299.000 225.000 35 40 46
151.000 298.000 226.000 35 40 45
150.000 300.000 224.000 36 40 46
152.000 299.000 226.000 35 40 46
152.000 301.000 225.000 36 40 45
152.000 300.000 226.000 35 40 45
153.000 300.000 226.000 35 40 46
153.000 301.000 226.000 35 39 45
152.000 302.000 225.000 35 40 45
153.000 303.000 225.000 36 41 46
153.000 302.000 226.000 34 39 45
154.000 300.000 227.000 36 40 45
154.000 301.000 226.000 34 39 44
154.000 301.000 227.000 35 40 45
155.000 301.000 227.000 36 41 46
154.000 302.000 226.000 33 39 44
154.000 302.000 227.000 34 39 45
154.000 303.000 226.000 35 40 46
155.000 302.000 227.000 35 40 45
155.000 303.000 227.000 34 40 46
156.000 303.000 227.000 34 39 45
152.000 304.000 224.000 35 40 46
152.000 305.000 224.000 34 40 47
153.000 304.000 225.000 35 40 47
153.000 305.000 224.000 35 41 47
153.000 306.000 224.000 36 42 48
154.000 304.000 225.000 34 40 47
154.000 305.000 225.000 35 41 47
154.000 304.000 226.000 34 40 46
154.000 305.000 226.000 35 41 47
155.000 304.000 226.000 34 40 46
155.000 304.000 227.000 33 39 46
155.000 305.000 226.000 34 40 47
155.000 305.000 227.000 34 40 47
154.000 306.000 225.000 35 41 48
154.000 307.000 224.000 36 42 49
155.000 306.000 226.000 34 41 48
155.000 307.000 226.000 36 42 49
154.000 308.000 224.000 37 42 49
155.000 308.000 225.000 37 42 49
155.000 308.000 226.000 36 42 48
156.000 304.000 227.000 34 40 46
156.000 305.000 227.000 35 40 46
156.000 306.000 227.000 35 41 47
156.000 307.000 226.000 36 41 47
156.000 307.000 227.000 36 41 48
157.000 306.000 227.000 36 41 47
157.000 307.000 227.000 36 41 47
156.000 308.000 226.000 36 41 47
156.000 309.000 226.000 37 42 48
157.000 308.000 227.000 36 41 47
157.000 309.000 227.000 36 42 48
156.000 310.000 226.000 38 43 48
157.000 311.000 226.000 36 42 48
135.000 323.000 209.000 37 43 49
136.000 322.000 211.000 37 43 49
136.000 323.000 210.000 37 43 49
137.000 322.000 211.000 36 42 49
137.000 323.000 210.000 37 42 49
138.000 322.000 211.000 35 41 48
139.000 323.000 211.000 33 41 48
138.000 321.000 212.000 36 42 48
138.000 322.000 212.000 36 42 49
139.000 322.000 212.000 36 43 49
140.000 323.000 210.000 35 41 48
140.000 323.000 211.000 33 40 47
141.000 323.000 211.000 34 41 48
142.000 323.000 211.000 34 41 48
143.000 323.000 211.000 35 42 49
140.000 322.000 212.000 35 42 48
141.000 322.000 212.000 34 41 48
142.000 322.000 212.000 35 42 49
142.000 323.000 212.000 35 42 49
143.000 322.000 212.000 35 42 50
143.000 322.000 213.000 36 43 50
143.000 323.000 212.000 35 42 50
140.000 324.000 210.000 35 41 48
141.000 324.000 210.000 34 41 48
142.000 325.000 209.000 35 41 48
143.000 325.000 209.000 35 41 48
142.000 324.000 210.000 35 42 48
142.000 325.000 210.000 36 42 49
143.000 324.000 210.000 35 42 49
143.000 324.000 211.000 35 42 49
143.000 325.000 210.000 35 41 48
142.000 326.000 209.000 35 42 49
143.000 326.000 209.000 36 42 49
143.000 327.000 208.000 36 42 48
143.000 327.000 209.000 36 42 48
147.000 331.000 207.000 36 41 47
148.000 332.000 207.000 36 41 47
144.000 323.000 211.000 35 42 49
145.000 323.000 211.000 34 41 49
146.000 323.000 211.000 34 42 49
147.000 323.000 211.000 37 43 50
145.000 321.000 213.000 36 43 50
144.000 322.000 212.000 34 42 49
144.000 322.000 213.000 35 42 49
144.000 323.000 212.000 35 42 49
145.000 322.000 212.000 35 42 49
145.000 322.000 213.000 35 42 50
145.000 323.000 212.000 34 42 49
146.000 320.000 213.000 36 43 50
146.000 321.000 213.000 36 43 50
147.000 321.000 213.000 36 43 50
146.000 322.000 212.000 35 42 49
146.000 322.000 213.000 35 42 50
146.000 323.000 212.000 35 42 50
147.000 322.000 212.000 36 43 50
147.000 323.000 212.000 36 42 50
144.000 324.000 210.000 35 42 49
144.000 324.000 211.000 35 42 49
144.000 325.000 210.000 35 42 49
145.000 324.000 210.000 35 42 49
145.000 324.000 211.000 35 42 49
145.000 325.000 210.000 36 42 49
144.000 326.000 209.000 36 42 48
144.000 327.000 208.000 36 42 48
144.000 327.000 209.000 36 42 48
145.000 326.000 209.000 36 42 49
145.000 327.000 209.000 36 42 49
144.000 326.000 210.000 35 42 48
145.000 326.000 210.000 36 42 49
146.000 324.000 211.000 35 42 49
146.000 325.000 210.000 34 42 49
146.000 325.000 211.000 34 42 49
147.000 324.000 211.000 36 42 50
147.000 325.000 210.000 35 42 49
147.000 325.000 211.000 35 42 49
146.000 326.000 209.000 37 43 49
146.000 327.000 209.000 35 41 48
147.000 327.000 209.000 35 42 49
146.000 326.000 210.000 35 42 49
147.000 326.000 210.000 35 41 49
147.000 327.000 210.000 35 41 48
148.000 323.000 211.000 35 43 50
148.000 320.000 213.000 36 43 50
148.000 321.000 213.000 36 43 50
148.000 322.000 212.000 36 43 50
148.000 323.000 212.000 36 43 50
149.000 323.000 212.000 35 42 50
150.000 323.000 212.000 36 43 51
151.000 323.000 212.000 36 43 51
148.000 324.000 211.000 35 42 50
148.000 325.000 211.000 36 43 50
149.000 324.000 211.000 36 43 50
149.000 325.000 211.000 37 44 51
148.000 326.000 210.000 35 42 49
148.000 326.000 211.000 35 42 49
148.000 327.000 210.000 36 42 49
149.000 326.000 210.000 36 42 50
149.000 326.000 211.000 36 43 50
149.000 327.000 210.000 35 42 49
150.000 324.000 211.000 36 43 50
150.000 325.000 211.000 37 43 50
150.000 326.000 211.000 36 43 50
150.000 327.000 210.000 36 42 49
150.000 327.000 211.000 36 43 49
151.000 326.000 211.000 36 43 50
151.000 327.000 211.000 36 43 50
150.000 324.000 212.000 36 43 50
150.000 325.000 212.000 37 44 51
151.000 324.000 212.000 37 44 51
151.000 325.000 212.000 37 44 51
151.000 326.000 212.000 37 43 51
151.000 327.000 212.000 36 43 50
144.000 328.000 208.000 36 42 48
145.000 328.000 208.000 36 41 48
145.000 328.000 209.000 35 41 47
145.000 329.000 208.000 36 42 48
146.000 328.000 209.000 35 41 47
146.000 329.000 208.000 36 41 47
146.000 329.000 209.000 35 41 47
147.000 328.000 209.000 35 41 48
147.000 329.000 209.000 35 41 48
146.000 330.000 208.000 36 41 47
147.000 330.000 208.000 36 42 48
147.000 330.000 209.000 34 41 47
147.000 331.000 208.000 36 42 47
148.000 328.000 209.000 34 41 48
148.000 329.000 209.000 34 41 48
149.000 329.000 209.000 35 41 48
148.000 328.000 210.000 35 41 48
149.000 328.000 210.000 34 41 48
149.000 329.000 210.000 34 41 48
148.000 330.000 208.000 35 41 48
148.000 330.000 209.000 35 41 48
148.000 331.000 208.000 36 42 48
149.000 330.000 209.000 35 41 48
149.000 331.000 209.000 35 41 48
150.000 328.000 210.000 35 41 48
150.000 328.000 211.000 36 42 49
150.000 329.000 210.000 35 42 49
151.000 328.000 211.000 35 42 49
151.000 329.000 211.000 35 42 49
150.000 330.000 209.000 35 41 48
150.000 331.000 209.000 35 42 48
150.000 330.000 210.000 36 42 48
150.000 331.000 210.000 36 42 48
151.000 330.000 210.000 36 42 48
151.000 330.000 211.000 36 42 49
151.000 331.000 210.000 35 42 48
151.000 331.000 211.000 36 42 48
148.000 332.000 208.000 36 41 48
148.000 333.000 208.000 35 41 47
149.000 332.000 208.000 35 41 48
149.000 332.000 209.000 35 42 48
149.000 333.000 208.000 35 41 48
149.000 334.000 208.000 35 42 48
150.000 332.000 209.000 36 42 48
150.000 333.000 209.000 36 42 48
150.000 332.000 210.000 35 41 48
151.000 332.000 210.000 35 41 48
151.000 333.000 210.000 36 41 48
150.000 334.000 209.000 36 42 48
151.000 334.000 209.000 36 42 48
151.000 334.000 210.000 35 41 48
152.000 323.000 212.000 36 43 50
152.000 324.000 212.000 36 43 50
152.000 325.000 212.000 37 43 51
153.000 324.000 212.000 36 43 50
153.000 325.000 212.000 35 42 49
153.000 325.000 213.000 34 42 49
152.000 326.000 212.000 36 43 50
152.000 327.000 212.000 36 43 50
153.000 326.000 212.000 34 42 49
153.000 326.000 213.000 34 41 49
153.000 327.000 212.000 34 42 49
153.000 327.000 213.000 34 42 49
154.000 324.000 212.000 36 43 50
154.000 325.000 212.000 35 43 50
154.000 325.000 213.000 36 43 50
155.000 324.000 213.000 38 44 51
155.000 325.000 213.000 38 44 51
154.000 326.000 213.000 34 42 50
154.000 327.000 213.000 34 42 50
155.000 326.000 213.000 36 43 50
155.000 327.000 213.000 36 43 50
156.000 323.000 213.000 39 46 53
156.000 324.000 213.000 39 46 53
156.000 325.000 213.000 39 45 52
157.000 324.000 213.000 39 45 53
157.000 325.000 213.000 39 45 52
156.000 326.000 213.000 37 44 51
152.000 328.000 211.000 35 42 49
152.000 329.000 211.000 35 41 48
152.000 330.000 211.000 36 42 48
152.000 331.000 211.000 36 42 48
152.000 328.000 212.000 35 41 49
152.000 329.000 212.000 35 41 48
153.000 328.000 212.000 34 41 49
153.000 329.000 212.000 35 41 48
153.000 330.000 212.000 35 41 48
153.000 331.000 212.000 35 41 48
154.000 328.000 213.000 35 42 49
152.000 332.000 211.000 35 41 48
152.000 333.000 211.000 35 41 48
152.000 334.000 210.000 35 41 47
152.000 334.000 211.000 35 41 47
160.000 321.000 217.000 41 47 54
161.000 321.000 217.000 43 49 55
160.000 320.000 218.000 39 45 52
160.000 320.000 219.000 38 44 50
160.000 321.000 219.000 38 45 52
161.000 321.000 218.000 40 46 53
161.000 321.000 219.000 37 44 52
160.000 322.000 216.000 42 48 54
160.000 323.000 216.000 42 48 55
161.000 322.000 217.000 44 50 56
161.000 322.000 218.000 42 47 54
161.000 322.000 219.000 39 45 52
