ply
format ascii 1.0
element vertex 1390
property float x
property float y
property float z
property uchar red
property uchar green
property uchar blue
end_header
106.000 231.000 190.000 41 48 55
107.000 230.000 190.000 41 47 55
107.000 230.000 191.000 41 47 54
107.000 231.000 190.000 42 48 55
107.000 231.000 191.000 41 47 54
109.000 227.000 191.000 40 46 53
110.000 226.000 191.000 39 46 53
110.000 227.000 191.000 40 47 53
108.000 228.000 191.000 40 46 53
108.000 229.000 191.000 40 46 53
109.000 228.000 191.000 40 47 53
109.000 229.000 191.000 40 46 53
108.000 230.000 191.000 40 47 54
108.000 231.000 191.000 40 46 54
109.000 230.000 191.000 40 46 53
109.000 231.000 191.000 41 47 54
110.000 228.000 191.000 41 47 54
110.000 229.000 191.000 40 47 54
106.000 232.000 189.000 41 48 55
106.000 233.000 189.000 42 48 55
106.000 232.000 190.000 41 48 55
106.000 233.000 190.000 42 48 56
107.000 232.000 190.000 42 48 55
107.000 232.000 191.000 41 48 55
107.000 233.000 190.000 42 48 56
107.000 233.000 191.000 41 47 54
106.000 234.000 190.000 42 48 55
106.000 235.000 190.000 42 48 55
107.000 234.000 190.000 41 48 55
107.000 234.000 191.000 40 47 54
107.000 235.000 190.000 41 47 55
107.000 235.000 191.000 41 47 55
106.000 236.000 190.000 42 48 55
106.000 237.000 190.000 42 48 54
107.000 236.000 190.000 41 48 55
107.000 236.000 191.000 41 47 55
107.000 237.000 190.000 41 47 54
107.000 238.000 190.000 42 48 55
107.000 239.000 190.000 43 49 55
108.000 232.000 191.000 41 47 54
108.000 233.000 191.000 40 47 54
109.000 232.000 191.000 41 47 54
109.000 233.000 191.000 41 47 54
108.000 234.000 191.000 40 47 54
108.000 235.000 191.000 41 47 55
109.000 234.000 191.000 40 47 54
109.000 235.000 191.000 40 47 54
110.000 235.000 191.000 40 47 54
108.000 236.000 191.000 41 47 55
108.000 237.000 190.000 40 47 54
108.000 237.000 191.000 41 47 54
109.000 236.000 191.000 40 47 54
109.000 237.000 191.000 40 47 54
108.000 238.000 190.000 40 47 54
108.000 239.000 190.000 41 47 54
109.000 238.000 190.000 40 47 54
109.000 238.000 191.000 40 47 54
109.000 239.000 190.000 40 47 54
109.000 239.000 191.000 41 47 54
110.000 236.000 191.000 40 47 54
110.000 237.000 191.000 40 47 54
111.000 237.000 191.000 39 46 53
110.000 238.000 191.000 40 47 54
110.000 239.000 191.000 40 47 54
111.000 238.000 191.000 40 46 54
111.000 239.000 191.000 40 46 54
107.000 240.000 190.000 42 48 55
107.000 241.000 190.000 43 48 55
107.000 242.000 190.000 42 48 55
107.000 243.000 190.000 41 47 54
107.000 244.000 190.000 41 47 54
107.000 245.000 190.000 41 47 54
107.000 246.000 190.000 41 47 55
107.000 247.000 190.000 41 48 55
108.000 240.000 190.000 41 47 54
108.000 241.000 190.000 41 47 54
109.000 240.000 190.000 41 47 54
109.000 241.000 190.000 41 48 55
108.000 242.000 190.000 41 47 54
108.000 243.000 190.000 41 47 54
109.000 242.000 190.000 40 47 54
109.000 242.000 191.000 40 46 53
109.000 243.000 190.000 40 46 53
109.000 243.000 191.000 39 46 53
110.000 240.000 191.000 41 48 55
110.000 241.000 191.000 41 48 55
111.000 240.000 191.000 41 47 55
111.000 241.000 191.000 42 48 55
110.000 242.000 191.000 40 47 54
110.000 243.000 191.000 39 46 53
111.000 242.000 191.000 41 48 55
111.000 243.000 191.000 41 47 55
108.000 244.000 190.000 41 47 54
108.000 244.000 191.000 40 47 54
108.000 245.000 190.000 41 47 54
108.000 245.000 191.000 41 47 54
109.000 244.000 191.000 40 46 53
109.000 245.000 191.000 40 47 54
108.000 246.000 190.000 41 47 54
108.000 246.000 191.000 40 47 54
108.000 247.000 191.000 41 47 54
109.000 246.000 191.000 40 47 54
109.000 247.000 191.000 40 47 54
110.000 244.000 191.000 39 46 53
110.000 245.000 191.000 39 46 53
111.000 244.000 191.000 41 47 54
111.000 245.000 191.000 40 47 54
110.000 246.000 191.000 39 46 53
110.000 247.000 191.000 40 47 54
111.000 246.000 191.000 39 45 52
111.000 247.000 191.000 40 46 53
107.000 248.000 190.000 42 48 56
107.000 248.000 191.000 41 48 55
107.000 249.000 191.000 42 49 57
107.000 250.000 191.000 44 50 58
107.000 251.000 191.000 44 51 58
107.000 252.000 191.000 44 51 58
107.000 253.000 191.000 43 50 58
107.000 254.000 191.000 43 50 57
107.000 255.000 191.000 42 49 57
108.000 248.000 191.000 41 48 55
108.000 249.000 191.000 43 49 56
109.000 248.000 191.000 42 48 55
109.000 249.000 191.000 43 49 56
108.000 250.000 191.000 43 50 57
108.000 251.000 191.000 43 50 57
109.000 250.000 191.000 43 49 56
109.000 251.000 191.000 43 49 56
110.000 248.000 191.000 41 47 54
110.000 249.000 191.000 42 48 55
111.000 248.000 191.000 41 46 53
111.000 249.000 191.000 41 46 53
110.000 250.000 191.000 43 49 55
110.000 251.000 191.000 42 48 55
111.000 250.000 191.000 41 46 53
111.000 251.000 191.000 42 47 54
108.000 252.000 191.000 44 50 58
108.000 253.000 191.000 44 50 58
109.000 252.000 191.000 43 50 57
109.000 253.000 191.000 43 49 57
108.000 254.000 191.000 44 51 58
108.000 255.000 191.000 44 51 58
109.000 254.000 191.000 43 50 57
110.000 252.000 191.000 41 48 55
110.000 253.000 191.000 42 48 56
111.000 252.000 191.000 41 47 54
112.000 238.000 191.000 40 46 54
112.000 239.000 191.000 40 46 53
112.000 240.000 191.000 40 47 54
112.000 241.000 191.000 42 48 55
113.000 240.000 191.000 41 47 55
113.000 241.000 191.000 41 48 55
112.000 242.000 191.000 42 48 55
112.000 243.000 191.000 42 48 55
113.000 242.000 191.000 41 48 55
113.000 243.000 191.000 42 48 55
112.000 244.000 191.000 41 47 54
112.000 245.000 191.000 40 47 54
112.000 246.000 191.000 40 46 53
112.000 247.000 191.000 40 46 53
112.000 248.000 191.000 40 46 53
112.000 249.000 191.000 40 46 53
112.000 250.000 191.000 39 46 52
112.000 251.000 191.000 40 47 54
110.000 227.000 192.000 41 47 54
111.000 227.000 192.000 40 46 53
110.000 228.000 192.000 40 47 53
110.000 229.000 192.000 40 47 53
111.000 228.000 192.000 40 46 53
111.000 229.000 192.000 39 46 53
110.000 230.000 192.000 40 46 54
110.000 231.000 192.000 41 47 54
111.000 230.000 192.000 40 46 53
111.000 231.000 192.000 40 46 53
109.000 233.000 192.000 41 47 54
109.000 234.000 192.000 40 47 54
110.000 232.000 192.000 41 47 54
110.000 233.000 192.000 40 47 54
111.000 232.000 192.000 40 47 54
111.000 233.000 192.000 40 46 54
110.000 234.000 192.000 40 47 54
110.000 235.000 192.000 40 47 54
111.000 234.000 192.000 40 46 54
111.000 235.000 192.000 40 46 53
110.000 236.000 192.000 40 47 54
111.000 236.000 192.000 39 46 53
111.000 237.000 192.000 39 46 53
107.000 255.000 192.000 42 49 57
108.000 255.000 192.000 43 50 58
109.000 254.000 192.000 43 49 57
109.000 255.000 192.000 43 49 57
110.000 253.000 192.000 42 49 56
111.000 252.000 192.000 41 47 54
111.000 253.000 192.000 41 48 55
110.000 254.000 192.000 42 49 57
110.000 255.000 192.000 43 50 57
111.000 254.000 192.000 42 49 56
111.000 255.000 192.000 43 50 57
112.000 228.000 192.000 38 45 52
112.000 229.000 192.000 39 45 52
113.000 229.000 192.000 39 45 51
112.000 230.000 192.000 39 45 52
112.000 231.000 192.000 40 46 53
113.000 230.000 192.000 38 44 51
113.000 231.000 192.000 40 46 52
113.000 231.000 193.000 40 45 52
114.000 229.000 192.000 39 44 51
114.000 230.000 193.000 38 44 51
114.000 231.000 193.000 40 45 51
115.000 230.000 193.000 39 45 51
115.000 231.000 193.000 40 45 51
115.000 230.000 194.000 40 45 51
115.000 231.000 194.000 40 45 51
116.000 231.000 194.000 39 45 51
117.000 231.000 195.000 39 45 51
119.000 231.000 197.000 37 44 52
112.000 232.000 192.000 40 46 53
112.000 233.000 192.000 40 46 53
113.000 232.000 192.000 41 46 52
113.000 232.000 193.000 41 46 53
113.000 233.000 192.000 41 47 53
113.000 233.000 193.000 41 47 53
112.000 234.000 192.000 40 46 53
112.000 235.000 192.000 40 46 54
113.000 234.000 192.000 41 47 53
113.000 234.000 193.000 41 47 53
113.000 235.000 192.000 41 47 54
114.000 232.000 193.000 41 46 52
114.000 233.000 193.000 41 46 52
115.000 232.000 193.000 41 46 52
115.000 232.000 194.000 41 46 52
114.000 234.000 193.000 41 46 53
114.000 235.000 192.000 41 47 53
114.000 235.000 193.000 41 47 53
115.000 235.000 193.000 41 46 52
112.000 236.000 192.000 41 47 54
112.000 237.000 192.000 41 47 54
113.000 236.000 192.000 41 47 54
113.000 237.000 192.000 41 47 54
112.000 238.000 192.000 40 47 54
113.000 238.000 192.000 40 46 53
113.000 239.000 192.000 40 46 54
114.000 236.000 192.000 41 47 53
114.000 236.000 193.000 41 46 52
114.000 237.000 192.000 40 46 53
115.000 236.000 193.000 40 46 52
115.000 237.000 192.000 41 47 53
115.000 237.000 193.000 42 47 53
114.000 238.000 192.000 40 47 53
114.000 239.000 192.000 40 47 55
115.000 238.000 192.000 41 47 54
115.000 238.000 193.000 41 47 54
115.000 239.000 192.000 40 47 54
115.000 239.000 193.000 40 47 54
116.000 232.000 194.000 40 45 51
117.000 232.000 195.000 39 45 51
117.000 233.000 195.000 40 45 51
116.000 235.000 193.000 41 46 52
116.000 234.000 194.000 40 45 51
116.000 235.000 194.000 40 45 51
117.000 234.000 194.000 39 45 51
117.000 235.000 194.000 40 45 52
118.000 233.000 195.000 39 45 51
118.000 234.000 195.000 40 45 52
118.000 235.000 194.000 40 46 52
118.000 232.000 196.000 38 44 51
118.000 233.000 196.000 39 45 52
119.000 232.000 196.000 39 45 52
119.000 232.000 197.000 38 45 52
119.000 233.000 196.000 39 45 52
119.000 233.000 197.000 39 45 52
118.000 234.000 196.000 40 45 52
119.000 234.000 196.000 39 45 52
116.000 236.000 193.000 41 46 52
117.000 236.000 194.000 40 46 53
116.000 239.000 193.000 40 46 53
117.000 239.000 193.000 40 46 53
117.000 238.000 194.000 40 46 53
118.000 236.000 195.000 39 45 52
118.000 237.000 195.000 39 45 52
119.000 239.000 195.000 39 45 51
119.000 238.000 196.000 39 45 52
120.000 230.000 198.000 36 44 52
120.000 231.000 198.000 38 45 52
120.000 234.000 196.000 39 45 53
120.000 235.000 196.000 40 46 53
120.000 235.000 197.000 39 46 53
120.000 236.000 196.000 40 46 53
121.000 236.000 197.000 38 45 52
121.000 237.000 197.000 38 45 52
121.000 239.000 197.000 39 45 53
113.000 240.000 192.000 41 47 55
113.000 241.000 192.000 41 48 55
113.000 242.000 192.000 41 47 54
113.000 243.000 192.000 41 48 54
114.000 240.000 192.000 40 47 54
114.000 241.000 192.000 40 47 54
115.000 240.000 192.000 40 47 54
115.000 240.000 193.000 41 47 54
115.000 241.000 192.000 40 47 54
115.000 241.000 193.000 41 47 54
114.000 242.000 192.000 41 47 54
114.000 243.000 192.000 41 47 54
115.000 242.000 192.000 41 47 54
115.000 242.000 193.000 40 46 53
115.000 243.000 192.000 41 47 53
115.000 243.000 193.000 40 46 53
113.000 244.000 192.000 41 47 54
113.000 245.000 192.000 41 47 54
113.000 246.000 192.000 41 47 53
113.000 247.000 192.000 39 45 52
114.000 244.000 192.000 41 47 54
114.000 245.000 192.000 41 47 53
115.000 244.000 192.000 40 46 52
115.000 244.000 193.000 40 46 53
115.000 245.000 193.000 40 46 53
114.000 246.000 192.000 41 47 53
114.000 246.000 193.000 41 47 53
114.000 247.000 192.000 40 46 52
114.000 247.000 193.000 40 46 53
115.000 246.000 193.000 40 46 52
115.000 247.000 193.000 39 45 52
116.000 240.000 193.000 40 47 54
116.000 241.000 193.000 40 46 53
117.000 240.000 193.000 40 46 53
117.000 241.000 193.000 39 46 53
117.000 241.000 194.000 39 45 52
116.000 242.000 193.000 39 46 53
116.000 243.000 193.000 39 46 53
117.000 242.000 194.000 38 45 52
117.000 243.000 194.000 40 46 53
118.000 240.000 195.000 39 45 51
118.000 241.000 195.000 39 45 52
119.000 240.000 195.000 39 45 52
119.000 241.000 195.000 40 46 52
118.000 242.000 195.000 39 46 53
118.000 243.000 194.000 40 46 53
118.000 243.000 195.000 40 46 53
119.000 242.000 195.000 40 46 53
119.000 240.000 196.000 39 45 52
119.000 241.000 196.000 39 45 52
119.000 242.000 196.000 39 45 52
116.000 244.000 193.000 40 46 53
116.000 245.000 193.000 40 46 53
116.000 244.000 194.000 40 47 54
116.000 245.000 194.000 40 46 54
117.000 244.000 194.000 40 47 54
117.000 245.000 194.000 40 46 53
116.000 246.000 194.000 40 46 52
116.000 247.000 194.000 40 46 52
117.000 246.000 194.000 40 46 53
117.000 246.000 195.000 40 46 52
117.000 247.000 194.000 40 46 53
117.000 247.000 195.000 39 45 52
118.000 244.000 195.000 40 46 52
118.000 245.000 195.000 40 46 52
118.000 246.000 195.000 41 46 52
118.000 247.000 195.000 40 46 52
118.000 245.000 196.000 40 46 52
119.000 244.000 196.000 39 45 52
119.000 245.000 196.000 39 45 52
118.000 246.000 196.000 41 46 53
118.000 247.000 196.000 40 46 52
119.000 246.000 196.000 40 46 52
119.000 247.000 196.000 39 45 52
112.000 248.000 192.000 40 46 53
112.000 249.000 192.000 40 46 52
113.000 248.000 192.000 39 45 52
113.000 249.000 192.000 39 46 52
112.000 250.000 192.000 39 45 52
112.000 251.000 192.000 41 47 54
113.000 250.000 192.000 39 45 53
113.000 251.000 192.000 40 47 54
114.000 248.000 192.000 39 45 52
114.000 248.000 193.000 39 45 52
114.000 249.000 192.000 39 45 52
114.000 249.000 193.000 38 45 52
115.000 248.000 193.000 39 45 52
115.000 249.000 193.000 38 45 52
114.000 250.000 192.000 38 45 52
114.000 251.000 192.000 38 45 53
115.000 250.000 193.000 37 44 51
115.000 251.000 193.000 38 45 52
112.000 252.000 192.000 41 47 54
112.000 253.000 192.000 42 48 56
113.000 252.000 192.000 39 46 53
113.000 253.000 192.000 40 47 54
112.000 254.000 192.000 43 49 57
112.000 255.000 192.000 42 49 57
113.000 254.000 192.000 42 48 56
113.000 255.000 192.000 41 48 56
114.000 252.000 192.000 38 45 53
114.000 253.000 192.000 39 46 53
115.000 252.000 193.000 38 45 52
115.000 253.000 193.000 38 45 52
114.000 254.000 192.000 40 47 55
114.000 254.000 193.000 40 47 54
114.000 255.000 192.000 40 47 55
114.000 255.000 193.000 40 47 54
115.000 254.000 193.000 40 46 53
115.000 255.000 193.000 40 47 54
116.000 248.000 194.000 39 45 52
116.000 249.000 194.000 38 44 51
117.000 248.000 194.000 38 45 52
117.000 248.000 195.000 38 44 51
117.000 249.000 194.000 38 45 51
117.000 249.000 195.000 38 45 52
116.000 250.000 193.000 38 44 51
116.000 251.000 193.000 38 44 51
116.000 250.000 194.000 38 44 51
116.000 251.000 194.000 38 44 51
117.000 250.000 194.000 37 44 51
117.000 250.000 195.000 38 44 51
117.000 251.000 194.000 37 44 51
117.000 251.000 195.000 37 44 51
118.000 248.000 195.000 39 45 52
118.000 249.000 195.000 39 45 52
118.000 250.000 195.000 39 46 53
118.000 251.000 195.000 38 44 51
118.000 248.000 196.000 39 45 52
118.000 249.000 196.000 39 45 52
119.000 248.000 196.000 39 45 52
119.000 248.000 197.000 39 45 52
119.000 249.000 196.000 39 45 53
119.000 249.000 197.000 39 45 52
118.000 250.000 196.000 38 45 52
118.000 251.000 196.000 38 45 52
119.000 250.000 196.000 37 44 52
119.000 250.000 197.000 37 44 52
119.000 251.000 196.000 38 45 52
119.000 251.000 197.000 37 45 52
116.000 252.000 193.000 37 44 51
116.000 253.000 193.000 38 45 52
116.000 252.000 194.000 37 44 51
116.000 253.000 194.000 38 44 52
117.000 252.000 194.000 37 44 51
117.000 252.000 195.000 38 44 51
117.000 253.000 194.000 37 44 51
117.000 253.000 195.000 37 44 51
116.000 254.000 194.000 39 45 53
116.000 255.000 194.000 40 46 53
117.000 254.000 194.000 38 45 52
117.000 254.000 195.000 38 44 51
117.000 255.000 194.000 39 45 52
117.000 255.000 195.000 38 45 51
118.000 252.000 195.000 38 45 52
118.000 253.000 195.000 39 45 52
118.000 254.000 195.000 37 44 50
118.000 255.000 195.000 38 44 51
118.000 252.000 196.000 38 45 52
118.000 253.000 196.000 38 45 52
119.000 252.000 196.000 38 45 52
119.000 252.000 197.000 38 45 52
119.000 253.000 196.000 38 44 52
119.000 253.000 197.000 37 44 52
118.000 254.000 196.000 38 45 51
118.000 255.000 196.000 38 44 51
119.000 254.000 196.000 38 45 52
119.000 254.000 197.000 37 44 52
119.000 255.000 196.000 37 44 51
119.000 255.000 197.000 37 43 50
120.000 240.000 196.000 39 45 52
120.000 241.000 197.000 38 45 52
121.000 242.000 198.000 38 45 52
122.000 242.000 199.000 38 45 52
122.000 243.000 199.000 39 45 52
120.000 244.000 197.000 39 45 52
120.000 245.000 197.000 38 45 51
121.000 245.000 198.000 38 44 51
120.000 246.000 197.000 38 45 51
120.000 247.000 197.000 39 45 52
121.000 246.000 198.000 39 45 52
121.000 247.000 198.000 39 45 52
122.000 244.000 199.000 38 45 52
122.000 245.000 199.000 38 45 52
123.000 244.000 199.000 38 45 52
123.000 245.000 199.000 39 45 53
122.000 246.000 199.000 39 46 53
122.000 247.000 199.000 40 46 53
123.000 246.000 199.000 39 46 53
123.000 247.000 199.000 39 46 53
123.000 243.000 200.000 38 45 52
123.000 244.000 200.000 38 45 52
123.000 245.000 200.000 39 45 53
123.000 246.000 200.000 39 45 53
123.000 247.000 200.000 39 46 53
124.000 242.000 200.000 39 46 54
124.000 243.000 200.000 37 45 52
126.000 241.000 202.000 37 45 52
127.000 241.000 203.000 38 45 53
126.000 242.000 202.000 37 45 52
126.000 243.000 202.000 38 45 52
127.000 243.000 203.000 38 45 53
124.000 244.000 200.000 38 45 53
124.000 245.000 200.000 38 45 53
125.000 244.000 201.000 38 45 52
125.000 245.000 201.000 38 45 52
125.000 244.000 202.000 39 45 53
125.000 245.000 202.000 37 45 52
124.000 246.000 200.000 38 45 52
124.000 246.000 201.000 38 45 53
124.000 247.000 200.000 39 45 53
124.000 247.000 201.000 39 46 53
125.000 246.000 201.000 39 46 53
125.000 247.000 201.000 39 46 53
125.000 246.000 202.000 39 46 54
125.000 247.000 202.000 39 46 54
126.000 244.000 202.000 38 45 52
126.000 245.000 202.000 38 45 53
127.000 244.000 203.000 38 45 53
127.000 245.000 203.000 39 46 53
126.000 246.000 202.000 39 46 54
126.000 246.000 203.000 39 46 54
126.000 247.000 202.000 39 46 54
126.000 247.000 203.000 39 46 54
127.000 246.000 203.000 39 46 53
127.000 247.000 203.000 39 46 54
120.000 248.000 197.000 39 45 52
120.000 249.000 197.000 38 45 52
121.000 248.000 198.000 39 46 53
121.000 249.000 198.000 39 45 52
120.000 250.000 197.000 38 44 51
120.000 251.000 197.000 37 44 51
121.000 250.000 198.000 38 44 51
121.000 251.000 198.000 37 44 51
122.000 248.000 199.000 39 46 53
122.000 249.000 199.000 38 45 52
123.000 248.000 199.000 38 45 52
123.000 249.000 199.000 38 44 52
122.000 250.000 199.000 38 44 51
122.000 251.000 199.000 38 44 51
123.000 250.000 199.000 38 44 52
123.000 251.000 199.000 38 44 52
120.000 252.000 197.000 38 45 52
120.000 253.000 197.000 36 44 51
121.000 252.000 198.000 37 44 51
121.000 253.000 198.000 36 43 50
120.000 254.000 197.000 36 43 51
120.000 255.000 197.000 37 43 50
121.000 254.000 198.000 36 43 50
121.000 255.000 198.000 37 43 50
122.000 252.000 199.000 37 44 51
122.000 253.000 199.000 36 43 50
123.000 252.000 199.000 37 44 51
123.000 253.000 199.000 37 44 51
122.000 254.000 199.000 36 43 50
122.000 255.000 199.000 38 44 50
123.000 254.000 199.000 36 43 51
123.000 255.000 199.000 37 44 51
123.000 248.000 200.000 38 45 52
123.000 249.000 200.000 38 45 52
123.000 250.000 200.000 38 45 52
123.000 251.000 200.000 38 44 52
123.000 252.000 200.000 37 44 51
123.000 253.000 200.000 37 44 51
123.000 254.000 200.000 37 44 51
123.000 255.000 200.000 37 44 51
124.000 248.000 200.000 38 45 52
124.000 248.000 201.000 38 45 53
124.000 249.000 200.000 39 45 52
124.000 249.000 201.000 38 45 53
125.000 248.000 201.000 38 45 53
125.000 249.000 201.000 38 45 53
125.000 248.000 202.000 38 45 53
125.000 249.000 202.000 38 46 54
124.000 250.000 200.000 38 45 52
124.000 250.000 201.000 38 45 53
124.000 251.000 200.000 38 44 52
124.000 251.000 201.000 37 44 52
125.000 250.000 201.000 38 45 53
125.000 251.000 201.000 37 45 52
125.000 250.000 202.000 37 45 53
125.000 251.000 202.000 36 44 53
126.000 248.000 202.000 38 45 53
126.000 248.000 203.000 38 45 53
126.000 249.000 202.000 38 46 54
126.000 249.000 203.000 37 45 53
127.000 248.000 203.000 38 45 53
127.000 249.000 203.000 38 45 53
126.000 250.000 202.000 36 44 52
126.000 250.000 203.000 36 44 52
126.000 251.000 202.000 36 44 53
127.000 250.000 203.000 38 45 53
127.000 251.000 203.000 37 45 53
124.000 252.000 200.000 37 44 51
124.000 252.000 201.000 37 44 52
124.000 253.000 200.000 37 44 52
124.000 253.000 201.000 37 44 52
125.000 252.000 201.000 37 44 52
125.000 253.000 201.000 37 44 52
125.000 252.000 202.000 37 45 53
125.000 253.000 202.000 37 45 52
124.000 254.000 200.000 37 44 52
124.000 254.000 201.000 37 44 52
124.000 255.000 200.000 37 44 52
124.000 255.000 201.000 38 45 52
125.000 254.000 201.000 37 45 52
125.000 255.000 201.000 39 46 53
125.000 254.000 202.000 39 45 53
125.000 255.000 202.000 39 45 52
126.000 252.000 202.000 37 45 53
126.000 253.000 202.000 37 45 52
127.000 252.000 203.000 38 45 53
127.000 253.000 203.000 39 46 53
126.000 254.000 202.000 39 45 52
126.000 255.000 202.000 38 44 51
127.000 254.000 203.000 39 45 52
127.000 255.000 202.000 38 44 51
127.000 255.000 203.000 39 45 51
135.000 223.000 223.000 41 48 55
134.000 222.000 225.000 44 50 58
135.000 222.000 226.000 48 52 58
135.000 223.000 226.000 49 53 59
135.000 223.000 227.000 50 54 60
128.000 226.000 208.000 46 52 59
128.000 227.000 208.000 44 50 57
129.000 226.000 209.000 47 53 60
129.000 226.000 210.000 46 52 59
129.000 226.000 211.000 45 52 59
129.000 227.000 210.000 45 52 59
129.000 227.000 211.000 45 52 59
129.000 227.000 212.000 45 52 60
130.000 225.000 212.000 43 49 57
131.000 225.000 212.000 42 48 55
131.000 225.000 213.000 42 48 54
130.000 226.000 212.000 45 51 58
130.000 227.000 212.000 44 51 58
130.000 227.000 213.000 43 50 57
131.000 226.000 213.000 42 48 55
131.000 227.000 213.000 43 49 56
131.000 226.000 214.000 41 47 54
131.000 227.000 214.000 44 50 57
129.000 228.000 210.000 45 51 59
129.000 228.000 211.000 46 52 60
129.000 229.000 210.000 46 52 59
129.000 229.000 211.000 45 52 59
129.000 230.000 210.000 42 48 55
129.000 230.000 211.000 44 50 58
129.000 231.000 210.000 42 48 55
129.000 231.000 211.000 43 49 57
130.000 231.000 211.000 43 50 57
129.000 228.000 212.000 45 51 59
129.000 229.000 212.000 45 52 59
129.000 230.000 212.000 46 52 60
130.000 228.000 212.000 44 51 58
130.000 228.000 213.000 44 51 58
130.000 229.000 212.000 45 52 60
130.000 229.000 213.000 45 51 59
131.000 228.000 213.000 44 51 58
131.000 229.000 213.000 45 51 59
131.000 228.000 214.000 44 50 58
131.000 229.000 214.000 45 51 59
130.000 230.000 212.000 45 52 60
130.000 230.000 213.000 45 52 60
130.000 231.000 212.000 45 51 59
130.000 231.000 213.000 45 52 60
131.000 230.000 213.000 44 51 59
131.000 231.000 213.000 43 50 58
131.000 230.000 214.000 43 49 57
131.000 231.000 214.000 43 49 57
132.000 225.000 215.000 40 46 53
132.000 226.000 214.000 41 47 54
132.000 226.000 215.000 40 46 53
132.000 227.000 215.000 41 47 53
133.000 226.000 215.000 40 46 53
133.000 227.000 215.000 40 46 53
132.000 228.000 215.000 41 47 54
132.000 229.000 214.000 46 52 59
132.000 229.000 215.000 43 49 56
132.000 230.000 214.000 44 50 57
132.000 230.000 215.000 43 49 56
132.000 231.000 214.000 42 49 56
132.000 231.000 215.000 41 48 56
133.000 230.000 215.000 42 48 55
133.000 231.000 215.000 42 48 55
133.000 224.000 216.000 40 46 53
133.000 225.000 216.000 40 46 53
133.000 226.000 216.000 40 46 53
133.000 226.000 217.000 41 48 55
133.000 227.000 216.000 40 46 53
133.000 227.000 217.000 42 48 55
134.000 224.000 217.000 41 48 55
134.000 225.000 217.000 43 49 57
134.000 226.000 217.000 42 48 56
134.000 227.000 217.000 44 50 58
135.000 224.000 222.000 42 48 55
135.000 224.000 223.000 42 48 55
133.000 228.000 216.000 41 47 54
133.000 229.000 216.000 41 47 54
133.000 230.000 216.000 41 47 54
133.000 231.000 216.000 41 47 54
134.000 228.000 217.000 44 50 57
134.000 229.000 217.000 41 47 54
134.000 230.000 217.000 41 46 53
135.000 231.000 217.000 39 46 52
129.000 232.000 209.000 42 48 55
129.000 233.000 209.000 44 50 56
129.000 232.000 210.000 43 48 55
129.000 232.000 211.000 42 48 55
129.000 233.000 210.000 44 50 57
129.000 234.000 209.000 44 51 58
130.000 232.000 211.000 42 48 55
130.000 233.000 210.000 43 49 57
130.000 233.000 211.000 44 50 57
130.000 234.000 210.000 43 49 57
130.000 234.000 211.000 45 51 59
130.000 232.000 212.000 43 50 57
130.000 233.000 212.000 44 50 58
131.000 232.000 213.000 44 50 58
131.000 233.000 212.000 44 50 58
131.000 233.000 213.000 46 52 59
131.000 234.000 212.000 46 52 59
132.000 232.000 214.000 46 52 60
132.000 232.000 215.000 46 52 60
132.000 233.000 214.000 46 53 60
133.000 232.000 215.000 43 50 57
133.000 233.000 214.000 44 50 58
132.000 234.000 212.000 45 52 59
132.000 234.000 213.000 46 52 60
132.000 235.000 212.000 44 50 57
133.000 235.000 213.000 42 49 56
132.000 234.000 214.000 46 53 60
133.000 234.000 214.000 43 50 57
134.000 233.000 215.000 41 47 54
134.000 234.000 215.000 41 47 54
134.000 235.000 214.000 40 47 54
132.000 237.000 210.000 45 50 57
133.000 237.000 210.000 42 48 55
133.000 237.000 211.000 42 48 55
133.000 238.000 209.000 44 50 57
133.000 239.000 209.000 45 51 58
133.000 238.000 210.000 42 48 55
133.000 238.000 211.000 43 50 57
133.000 239.000 210.000 44 50 57
134.000 238.000 211.000 46 52 59
134.000 239.000 211.000 43 49 56
132.000 236.000 212.000 44 50 58
133.000 236.000 212.000 43 50 57
133.000 236.000 213.000 41 48 55
133.000 237.000 212.000 43 50 57
134.000 236.000 213.000 41 47 54
134.000 237.000 212.000 43 49 56
134.000 237.000 213.000 42 48 55
135.000 236.000 215.000 40 46 53
135.000 237.000 214.000 42 47 54
134.000 238.000 212.000 43 50 57
134.000 239.000 212.000 41 47 55
135.000 238.000 213.000 41 47 54
135.000 239.000 212.000 41 47 54
135.000 239.000 213.000 41 47 53
135.000 238.000 214.000 41 47 53
135.000 233.000 216.000 41 46 52
135.000 234.000 216.000 40 45 51
136.000 238.000 215.000 41 46 52
136.000 239.000 214.000 41 46 52
136.000 239.000 215.000 41 46 52
136.000 232.000 219.000 42 47 53
136.000 236.000 217.000 42 46 51
136.000 237.000 217.000 41 45 51
137.000 239.000 217.000 41 45 51
128.000 243.000 204.000 38 46 53
131.000 243.000 206.000 39 46 54
128.000 244.000 203.000 38 45 53
128.000 244.000 204.000 39 46 53
128.000 245.000 204.000 39 46 54
129.000 244.000 204.000 39 46 53
129.000 244.000 205.000 39 46 53
129.000 245.000 204.000 41 47 54
129.000 245.000 205.000 40 46 53
128.000 246.000 204.000 39 45 53
128.000 247.000 204.000 38 45 53
129.000 246.000 204.000 40 46 53
129.000 246.000 205.000 39 46 53
129.000 247.000 204.000 40 46 53
129.000 247.000 205.000 39 45 53
130.000 244.000 205.000 39 46 53
130.000 245.000 205.000 39 45 53
130.000 244.000 206.000 39 46 53
130.000 245.000 206.000 39 45 53
131.000 244.000 206.000 39 46 53
131.000 245.000 206.000 38 45 53
131.000 245.000 207.000 37 45 52
130.000 246.000 205.000 39 45 52
130.000 246.000 206.000 38 45 52
130.000 247.000 206.000 39 45 53
131.000 246.000 206.000 38 45 52
131.000 246.000 207.000 38 45 52
131.000 247.000 206.000 38 45 53
131.000 247.000 207.000 38 45 52
132.000 244.000 207.000 39 46 54
132.000 245.000 207.000 38 46 53
132.000 246.000 207.000 38 45 53
132.000 247.000 207.000 38 45 52
128.000 248.000 204.000 38 45 53
128.000 248.000 205.000 39 45 52
128.000 249.000 204.000 39 45 53
128.000 249.000 205.000 39 45 52
129.000 248.000 205.000 38 45 52
129.000 249.000 205.000 40 46 53
129.000 248.000 206.000 38 45 52
129.000 249.000 206.000 39 45 52
128.000 250.000 204.000 39 45 53
128.000 250.000 205.000 40 46 53
128.000 251.000 204.000 39 45 53
128.000 251.000 205.000 40 46 53
129.000 250.000 205.000 40 46 53
129.000 251.000 205.000 39 46 53
130.000 248.000 206.000 38 45 52
130.000 249.000 206.000 38 45 52
131.000 248.000 207.000 37 44 52
131.000 249.000 207.000 38 45 52
130.000 250.000 206.000 39 45 52
130.000 251.000 206.000 38 45 52
128.000 255.000 203.000 40 45 51
128.000 252.000 204.000 39 45 52
128.000 252.000 205.000 39 45 52
128.000 253.000 204.000 39 45 52
129.000 252.000 205.000 39 46 53
129.000 253.000 205.000 40 46 53
128.000 254.000 204.000 40 46 52
128.000 255.000 204.000 40 45 52
129.000 254.000 205.000 39 46 53
129.000 255.000 205.000 40 46 52
133.000 240.000 209.000 45 51 58
133.000 241.000 208.000 46 52 59
133.000 241.000 209.000 45 51 58
133.000 242.000 208.000 45 51 57
133.000 242.000 209.000 46 51 58
133.000 243.000 208.000 43 49 57
133.000 243.000 209.000 43 50 57
134.000 241.000 209.000 44 50 57
134.000 240.000 210.000 42 48 56
134.000 240.000 211.000 41 48 55
134.000 241.000 210.000 42 48 55
134.000 241.000 211.000 41 48 55
135.000 241.000 211.000 42 49 56
134.000 242.000 209.000 43 50 57
134.000 243.000 209.000 42 48 55
134.000 242.000 210.000 42 48 56
134.000 243.000 210.000 41 48 55
135.000 242.000 211.000 44 50 57
135.000 243.000 210.000 40 47 54
135.000 243.000 211.000 42 48 55
134.000 240.000 212.000 40 47 54
135.000 240.000 212.000 41 47 54
135.000 240.000 213.000 41 47 53
135.000 241.000 212.000 42 48 54
135.000 242.000 212.000 42 49 56
135.000 243.000 212.000 42 48 55
132.000 244.000 208.000 40 47 55
132.000 245.000 208.000 38 46 53
133.000 244.000 208.000 40 47 54
133.000 244.000 209.000 42 48 55
133.000 245.000 208.000 39 46 53
133.000 245.000 209.000 40 47 54
132.000 246.000 208.000 39 46 53
132.000 247.000 208.000 39 45 53
133.000 246.000 208.000 40 46 53
133.000 246.000 209.000 41 47 54
133.000 247.000 209.000 40 46 53
134.000 244.000 209.000 41 47 55
134.000 245.000 209.000 41 47 55
134.000 244.000 210.000 40 47 55
135.000 244.000 210.000 40 47 54
135.000 246.000 211.000 40 46 54
136.000 240.000 213.000 41 46 53
136.000 241.000 212.000 42 48 54
136.000 241.000 213.000 41 47 53
136.000 240.000 214.000 41 46 52
136.000 240.000 215.000 42 46 52
136.000 241.000 214.000 41 46 52
137.000 241.000 214.000 41 46 52
137.000 241.000 215.000 42 46 52
136.000 242.000 212.000 43 49 56
136.000 242.000 213.000 41 47 54
136.000 243.000 212.000 42 48 55
136.000 243.000 213.000 41 47 53
136.000 242.000 214.000 41 46 52
137.000 242.000 215.000 41 46 52
137.000 243.000 215.000 42 47 52
137.000 244.000 214.000 42 47 53
137.000 244.000 215.000 42 46 52
137.000 245.000 214.000 42 47 53
137.000 246.000 212.000 39 46 53
137.000 246.000 213.000 40 46 53
138.000 244.000 215.000 42 47 52
138.000 245.000 215.000 43 47 53
137.000 240.000 216.000 41 46 51
137.000 240.000 217.000 41 45 51
137.000 241.000 217.000 40 45 51
137.000 241.000 218.000 41 45 51
137.000 242.000 216.000 43 47 53
137.000 242.000 217.000 42 47 52
137.000 243.000 216.000 43 47 53
138.000 241.000 218.000 41 46 52
138.000 242.000 216.000 43 47 53
138.000 242.000 217.000 42 47 52
138.000 243.000 216.000 42 47 52
138.000 243.000 217.000 42 47 53
138.000 242.000 218.000 42 46 52
138.000 243.000 218.000 42 47 53
138.000 243.000 220.000 43 49 55
138.000 244.000 216.000 42 46 52
138.000 244.000 217.000 42 47 53
138.000 245.000 216.000 44 48 53
138.000 245.000 217.000 41 46 52
138.000 244.000 218.000 41 47 53
139.000 244.000 218.000 41 46 53
139.000 244.000 219.000 41 47 54
139.000 245.000 218.000 41 46 53
139.000 245.000 219.000 41 47 54
138.000 246.000 216.000 47 50 55
139.000 246.000 218.000 42 47 54
139.000 246.000 219.000 41 47 54
139.000 247.000 218.000 44 49 56
139.000 247.000 219.000 42 48 55
138.000 244.000 220.000 44 49 56
139.000 244.000 220.000 42 48 54
139.000 245.000 220.000 41 47 55
139.000 246.000 220.000 41 47 55
139.000 247.000 220.000 43 49 56
139.000 247.000 221.000 41 48 55
136.000 249.000 212.000 40 46 53
137.000 248.000 213.000 41 47 54
137.000 249.000 213.000 41 47 54
137.000 248.000 214.000 44 49 56
137.000 250.000 213.000 41 47 54
137.000 251.000 212.000 41 47 54
137.000 251.000 213.000 41 47 54
138.000 248.000 215.000 43 47 52
138.000 249.000 215.000 46 50 56
138.000 251.000 215.000 45 50 56
139.000 251.000 215.000 44 48 54
136.000 252.000 212.000 40 46 53
137.000 252.000 213.000 41 47 54
139.000 249.000 217.000 42 48 55
139.000 248.000 218.000 43 49 56
139.000 248.000 219.000 42 48 55
139.000 249.000 218.000 42 48 55
140.000 248.000 219.000 42 48 55
135.000 225.000 225.000 44 50 57
135.000 224.000 226.000 48 53 59
135.000 224.000 227.000 51 55 60
135.000 225.000 226.000 47 53 58
136.000 225.000 227.000 51 55 60
136.000 226.000 227.000 50 54 60
136.000 227.000 227.000 51 55 60
136.000 225.000 228.000 51 54 60
136.000 225.000 229.000 47 52 58
136.000 226.000 228.000 50 53 59
136.000 226.000 229.000 48 52 58
136.000 227.000 228.000 49 53 59
136.000 227.000 229.000 47 51 57
136.000 228.000 227.000 49 53 60
136.000 229.000 227.000 48 53 59
137.000 231.000 225.000 42 50 58
136.000 230.000 226.000 46 52 59
137.000 230.000 226.000 47 52 59
137.000 230.000 227.000 47 53 59
137.000 231.000 226.000 45 52 59
137.000 231.000 227.000 47 53 60
136.000 228.000 228.000 48 52 59
136.000 228.000 229.000 45 50 56
136.000 229.000 228.000 47 52 58
136.000 229.000 229.000 44 49 55
137.000 229.000 228.000 47 52 58
137.000 229.000 229.000 43 49 55
136.000 229.000 230.000 41 47 53
137.000 230.000 228.000 47 52 59
137.000 230.000 229.000 44 50 56
137.000 231.000 228.000 47 52 59
137.000 231.000 229.000 46 51 58
137.000 230.000 231.000 41 47 54
137.000 231.000 230.000 42 48 55
137.000 231.000 231.000 40 47 54
137.000 232.000 225.000 41 49 57
137.000 232.000 226.000 44 51 59
137.000 232.000 227.000 48 54 61
137.000 233.000 227.000 48 54 62
138.000 234.000 227.000 46 52 59
137.000 232.000 228.000 49 54 61
137.000 232.000 229.000 46 52 59
137.000 233.000 228.000 49 54 61
137.000 233.000 229.000 47 53 59
137.000 232.000 230.000 42 48 55
137.000 233.000 230.000 44 50 57
138.000 233.000 230.000 43 50 57
138.000 233.000 231.000 42 48 56
138.000 234.000 228.000 48 53 60
138.000 234.000 229.000 48 53 60
138.000 234.000 230.000 45 51 58
107.000 256.000 192.000 42 49 56
108.000 256.000 192.000 44 50 58
108.000 256.000 193.000 45 51 58
108.000 257.000 193.000 45 51 58
109.000 256.000 192.000 44 50 58
109.000 256.000 193.000 45 51 58
109.000 257.000 193.000 44 51 58
108.000 258.000 193.000 44 51 58
109.000 258.000 193.000 44 50 58
108.000 258.000 194.000 45 51 58
109.000 258.000 194.000 44 50 58
109.000 259.000 194.000 43 49 57
110.000 256.000 192.000 43 50 58
110.000 256.000 193.000 43 50 58
110.000 257.000 193.000 43 50 58
111.000 256.000 192.000 43 50 58
111.000 256.000 193.000 43 50 58
111.000 257.000 193.000 43 50 58
110.000 258.000 193.000 43 50 58
111.000 258.000 193.000 43 50 58
111.000 259.000 193.000 42 49 57
110.000 258.000 194.000 42 50 58
110.000 259.000 194.000 41 49 57
111.000 259.000 194.000 41 49 57
109.000 260.000 194.000 42 48 56
109.000 260.000 195.000 42 48 56
110.000 260.000 194.000 41 48 56
110.000 261.000 195.000 41 48 56
111.000 260.000 194.000 41 49 57
111.000 261.000 194.000 42 49 57
111.000 261.000 195.000 42 49 57
110.000 262.000 195.000 41 48 56
111.000 262.000 195.000 42 49 56
111.000 263.000 195.000 42 49 57
111.000 264.000 195.000 42 49 57
111.000 269.000 198.000 41 48 56
112.000 256.000 192.000 43 50 58
112.000 256.000 193.000 43 50 58
112.000 257.000 193.000 43 50 58
113.000 256.000 192.000 42 49 57
113.000 256.000 193.000 42 49 57
113.000 257.000 193.000 42 49 57
112.000 258.000 193.000 43 50 58
112.000 259.000 193.000 43 50 58
113.000 258.000 193.000 43 50 58
113.000 259.000 193.000 43 50 58
112.000 259.000 194.000 43 50 58
113.000 259.000 194.000 43 50 58
114.000 256.000 193.000 42 49 56
114.000 257.000 193.000 43 50 57
115.000 256.000 193.000 42 48 55
115.000 256.000 194.000 42 48 55
115.000 257.000 194.000 42 48 55
114.000 258.000 193.000 43 50 57
114.000 258.000 194.000 43 50 57
114.000 259.000 194.000 42 49 57
115.000 258.000 194.000 42 49 56
115.000 259.000 194.000 42 49 56
115.000 259.000 195.000 41 48 56
112.000 260.000 194.000 42 49 57
112.000 261.000 194.000 42 49 57
113.000 260.000 194.000 42 50 58
113.000 261.000 194.000 43 50 58
112.000 262.000 195.000 42 49 57
112.000 263.000 195.000 42 50 58
113.000 262.000 195.000 43 50 58
113.000 263.000 195.000 43 50 58
114.000 260.000 194.000 42 49 57
114.000 261.000 194.000 43 50 58
114.000 261.000 195.000 43 50 58
115.000 260.000 195.000 42 49 56
115.000 261.000 195.000 42 49 57
114.000 262.000 195.000 43 50 58
114.000 263.000 195.000 43 50 58
115.000 262.000 195.000 42 49 57
112.000 263.000 196.000 43 50 58
113.000 263.000 196.000 42 50 58
114.000 262.000 196.000 43 50 58
114.000 263.000 196.000 43 50 58
115.000 262.000 196.000 43 50 57
115.000 263.000 196.000 43 50 58
116.000 256.000 194.000 41 47 54
116.000 257.000 194.000 40 47 54
116.000 257.000 195.000 39 45 53
117.000 256.000 195.000 39 45 52
117.000 257.000 195.000 39 45 52
116.000 258.000 194.000 40 47 55
116.000 258.000 195.000 40 47 55
116.000 259.000 195.000 40 47 55
117.000 258.000 195.000 40 46 54
117.000 259.000 195.000 40 47 54
118.000 256.000 195.000 37 44 51
117.000 258.000 196.000 40 46 53
117.000 259.000 196.000 39 46 53
118.000 256.000 196.000 39 45 51
118.000 257.000 196.000 39 45 52
119.000 256.000 196.000 40 46 52
119.000 256.000 197.000 39 45 51
119.000 257.000 197.000 39 45 52
118.000 258.000 196.000 39 45 52
118.000 258.000 197.000 39 46 52
118.000 259.000 196.000 39 46 53
118.000 259.000 197.000 40 46 53
119.000 258.000 197.000 39 45 52
119.000 259.000 197.000 40 46 52
116.000 260.000 195.000 40 47 55
116.000 261.000 195.000 41 48 56
116.000 260.000 196.000 40 47 55
116.000 261.000 196.000 41 48 56
117.000 260.000 196.000 40 47 55
117.000 261.000 196.000 41 48 55
116.000 262.000 196.000 42 49 56
116.000 263.000 196.000 43 50 58
116.000 263.000 197.000 42 49 57
117.000 262.000 196.000 41 48 55
117.000 262.000 197.000 42 48 56
117.000 263.000 197.000 42 49 57
118.000 260.000 197.000 41 47 54
118.000 261.000 197.000 40 47 54
119.000 260.000 197.000 40 46 53
119.000 261.000 197.000 41 47 53
119.000 260.000 198.000 41 47 53
119.000 261.000 198.000 40 46 53
118.000 262.000 197.000 41 48 55
118.000 263.000 197.000 41 48 56
119.000 262.000 197.000 42 48 55
119.000 262.000 198.000 41 47 55
119.000 263.000 198.000 41 48 55
112.000 264.000 196.000 42 50 58
112.000 265.000 196.000 43 50 58
113.000 264.000 196.000 42 50 58
113.000 265.000 197.000 43 50 58
113.000 266.000 197.000 43 50 58
113.000 266.000 198.000 42 50 58
113.000 267.000 198.000 42 49 57
114.000 264.000 196.000 43 51 59
114.000 264.000 197.000 44 51 59
114.000 265.000 197.000 43 50 59
115.000 264.000 196.000 44 51 59
115.000 264.000 197.000 44 51 59
115.000 265.000 197.000 44 52 60
114.000 266.000 197.000 41 49 57
114.000 266.000 198.000 42 50 58
114.000 267.000 198.000 42 50 58
115.000 266.000 198.000 44 51 60
115.000 267.000 198.000 45 52 60
112.000 269.000 198.000 39 47 55
112.000 269.000 199.000 39 47 55
113.000 268.000 198.000 41 48 57
113.000 268.000 199.000 40 48 56
114.000 268.000 198.000 42 49 58
115.000 268.000 198.000 44 51 59
116.000 264.000 197.000 43 50 58
116.000 265.000 197.000 44 51 59
117.000 264.000 197.000 42 49 57
117.000 265.000 197.000 43 50 58
116.000 265.000 198.000 44 51 59
117.000 265.000 198.000 43 50 58
116.000 266.000 198.000 45 52 60
118.000 264.000 197.000 42 49 57
116.000 270.000 199.000 42 49 57
117.000 270.000 199.000 42 49 57
119.000 269.000 199.000 41 48 56
118.000 270.000 199.000 42 49 57
119.000 270.000 199.000 41 48 56
117.000 271.000 200.000 42 49 57
118.000 270.000 200.000 41 48 56
118.000 271.000 200.000 40 48 56
119.000 270.000 200.000 41 48 56
119.000 271.000 200.000 40 47 55
120.000 256.000 197.000 38 44 51
120.000 257.000 197.000 38 44 51
120.000 257.000 198.000 38 44 51
121.000 256.000 198.000 38 43 50
121.000 257.000 198.000 38 44 51
121.000 257.000 199.000 38 44 50
120.000 258.000 197.000 39 45 51
120.000 259.000 197.000 39 45 51
120.000 258.000 198.000 38 44 51
120.000 259.000 198.000 39 45 51
121.000 258.000 198.000 39 44 51
121.000 258.000 199.000 38 44 50
121.000 259.000 198.000 39 45 51
121.000 259.000 199.000 39 45 51
122.000 256.000 199.000 39 45 52
122.000 257.000 199.000 38 44 51
122.000 258.000 199.000 37 44 50
122.000 259.000 199.000 38 44 51
120.000 260.000 198.000 40 46 52
120.000 261.000 198.000 40 46 53
121.000 260.000 198.000 40 45 52
121.000 260.000 199.000 39 45 51
121.000 261.000 198.000 40 46 53
121.000 261.000 199.000 39 45 52
120.000 262.000 198.000 41 47 54
120.000 263.000 198.000 41 47 54
122.000 260.000 199.000 38 45 51
122.000 261.000 199.000 39 45 52
123.000 256.000 200.000 38 44 52
123.000 257.000 200.000 38 44 51
122.000 259.000 200.000 38 44 51
123.000 258.000 200.000 38 45 52
123.000 259.000 200.000 38 45 51
122.000 260.000 200.000 39 45 52
124.000 256.000 200.000 37 44 51
124.000 256.000 201.000 38 45 52
124.000 257.000 200.000 38 44 51
124.000 257.000 201.000 38 45 52
125.000 256.000 201.000 39 46 53
125.000 257.000 201.000 38 45 52
125.000 256.000 202.000 38 45 52
125.000 257.000 202.000 38 45 51
124.000 258.000 200.000 38 44 51
124.000 258.000 201.000 38 44 51
124.000 259.000 200.000 39 45 51
125.000 258.000 201.000 38 44 51
125.000 259.000 201.000 39 45 52
126.000 256.000 202.000 38 44 51
126.000 257.000 202.000 38 44 51
127.000 256.000 202.000 39 44 51
127.000 256.000 203.000 39 45 51
127.000 257.000 202.000 38 44 50
127.000 257.000 203.000 39 44 51
126.000 258.000 202.000 37 44 51
126.000 259.000 202.000 39 45 52
127.000 258.000 202.000 37 43 49
127.000 258.000 203.000 38 44 50
127.000 259.000 202.000 39 45 51
127.000 259.000 203.000 39 45 51
126.000 261.000 202.000 40 46 53
127.000 260.000 202.000 40 46 52
127.000 260.000 203.000 40 47 53
126.000 262.000 202.000 39 46 53
126.000 263.000 202.000 39 45 52
127.000 263.000 203.000 39 46 53
122.000 267.000 199.000 42 49 57
123.000 266.000 199.000 41 48 55
123.000 267.000 199.000 41 48 56
120.000 269.000 199.000 42 49 57
121.000 269.000 199.000 43 50 58
122.000 268.000 199.000 43 50 58
122.000 269.000 199.000 44 51 58
123.000 268.000 199.000 42 49 57
120.000 270.000 200.000 41 48 56
120.000 271.000 200.000 40 47 55
120.000 271.000 201.000 40 47 55
121.000 270.000 200.000 42 49 56
121.000 271.000 200.000 40 47 55
121.000 271.000 201.000 40 48 55
122.000 269.000 200.000 43 50 58
123.000 269.000 200.000 43 50 57
122.000 270.000 200.000 42 49 57
122.000 271.000 201.000 41 48 56
123.000 271.000 201.000 41 48 56
125.000 266.000 200.000 40 46 54
126.000 264.000 202.000 38 44 52
127.000 264.000 203.000 39 46 53
127.000 265.000 202.000 38 45 52
127.000 265.000 203.000 38 45 53
126.000 267.000 201.000 39 46 54
126.000 266.000 202.000 39 46 54
126.000 267.000 202.000 39 46 54
127.000 266.000 202.000 38 45 53
127.000 266.000 203.000 38 45 53
127.000 267.000 203.000 39 46 53
124.000 269.000 200.000 42 49 56
125.000 269.000 202.000 41 48 55
124.000 270.000 202.000 40 47 55
124.000 271.000 202.000 41 48 55
125.000 270.000 202.000 41 48 55
125.000 270.000 203.000 41 47 55
125.000 271.000 203.000 40 47 55
126.000 268.000 202.000 40 47 54
126.000 269.000 202.000 41 47 55
126.000 269.000 203.000 39 46 54
127.000 268.000 203.000 39 46 54
127.000 269.000 203.000 39 46 54
126.000 270.000 203.000 40 46 54
126.000 271.000 203.000 39 46 54
127.000 270.000 203.000 39 46 54
127.000 268.000 204.000 39 46 54
127.000 269.000 204.000 39 46 54
127.000 270.000 204.000 38 45 53
127.000 271.000 204.000 39 46 53
116.000 272.000 200.000 41 48 55
117.000 272.000 200.000 40 47 55
117.000 273.000 201.000 39 46 54
117.000 274.000 201.000 38 46 54
118.000 272.000 200.000 39 46 54
118.000 272.000 201.000 39 46 54
118.000 273.000 201.000 39 46 54
119.000 272.000 200.000 39 46 54
119.000 272.000 201.000 39 46 54
119.000 273.000 201.000 39 46 54
119.000 273.000 202.000 39 46 54
118.000 274.000 201.000 39 46 54
119.000 274.000 202.000 39 46 53
119.000 275.000 202.000 39 46 53
120.000 272.000 201.000 40 47 55
120.000 273.000 201.000 39 46 54
121.000 272.000 201.000 39 47 54
120.000 273.000 202.000 39 46 53
121.000 272.000 202.000 39 46 54
121.000 273.000 202.000 39 46 53
120.000 274.000 202.000 39 46 53
121.000 274.000 202.000 40 46 53
121.000 274.000 203.000 39 45 52
122.000 272.000 202.000 40 47 55
122.000 273.000 202.000 39 46 53
123.000 272.000 202.000 39 47 54
123.000 273.000 203.000 39 46 53
122.000 274.000 203.000 40 46 53
125.000 274.000 204.000 37 44 52
126.000 272.000 204.000 39 46 54
126.000 273.000 204.000 37 44 52
127.000 272.000 204.000 40 47 54
128.000 256.000 203.000 40 45 51
128.000 257.000 203.000 38 44 51
128.000 258.000 203.000 39 45 51
128.000 259.000 203.000 39 45 52
128.000 256.000 204.000 40 45 52
128.000 257.000 204.000 39 45 51
129.000 257.000 204.000 39 45 52
128.000 258.000 204.000 39 45 52
128.000 259.000 204.000 38 45 52
129.000 258.000 204.000 38 45 52
129.000 259.000 204.000 38 45 53
129.000 259.000 205.000 39 46 53
130.000 256.000 205.000 39 45 53
130.000 257.000 205.000 38 45 52
130.000 258.000 205.000 38 45 53
130.000 259.000 205.000 39 47 55
130.000 259.000 206.000 38 46 54
131.000 259.000 206.000 38 45 53
128.000 260.000 203.000 40 47 54
128.000 261.000 203.000 41 47 54
128.000 262.000 203.000 40 47 54
129.000 260.000 204.000 40 47 54
129.000 261.000 204.000 40 46 54
128.000 263.000 204.000 40 46 54
129.000 262.000 204.000 40 47 54
129.000 262.000 205.000 40 47 55
129.000 263.000 205.000 41 48 55
130.000 260.000 205.000 39 47 55
130.000 261.000 205.000 40 47 55
130.000 260.000 206.000 39 46 54
130.000 261.000 206.000 39 47 55
131.000 260.000 206.000 39 46 54
131.000 260.000 207.000 39 46 53
131.000 261.000 206.000 39 46 54
130.000 262.000 205.000 40 47 55
131.000 262.000 206.000 40 47 54
131.000 263.000 206.000 40 47 54
131.000 263.000 207.000 40 47 54
128.000 265.000 203.000 39 46 53
128.000 266.000 203.000 39 46 53
128.000 264.000 204.000 39 46 53
128.000 265.000 204.000 38 45 53
129.000 264.000 205.000 40 47 55
129.000 265.000 205.000 40 47 54
128.000 266.000 204.000 39 46 53
128.000 267.000 204.000 39 46 53
129.000 266.000 204.000 38 45 53
129.000 266.000 205.000 39 46 53
129.000 267.000 205.000 39 45 53
130.000 266.000 205.000 40 46 53
130.000 266.000 206.000 39 46 53
130.000 267.000 206.000 39 45 53
131.000 267.000 206.000 38 45 52
131.000 267.000 207.000 39 45 52
128.000 268.000 204.000 39 46 54
128.000 269.000 204.000 39 46 54
129.000 268.000 205.000 39 46 53
129.000 269.000 205.000 39 46 54
129.000 269.000 206.000 40 46 54
128.000 270.000 204.000 38 45 53
128.000 271.000 204.000 40 46 54
129.000 270.000 205.000 39 46 53
129.000 271.000 205.000 40 46 54
130.000 268.000 206.000 39 46 53
130.000 269.000 206.000 39 46 53
131.000 268.000 206.000 38 45 53
131.000 268.000 207.000 38 45 52
131.000 269.000 206.000 37 44 52
131.000 269.000 207.000 37 44 52
130.000 270.000 206.000 38 45 53
130.000 271.000 206.000 38 45 53
131.000 270.000 207.000 37 45 52
133.000 261.000 209.000 38 44 51
135.000 261.000 211.000 35 42 49
134.000 262.000 210.000 36 43 51
134.000 263.000 210.000 36 44 51
135.000 262.000 211.000 35 43 50
135.000 260.000 212.000 35 42 49
135.000 261.000 212.000 35 42 49
132.000 264.000 208.000 40 46 53
133.000 265.000 209.000 40 47 54
134.000 264.000 210.000 37 44 52
130.000 272.000 206.000 39 46 54
