ply
format ascii 1.0
element vertex 1136
property float x
property float y
property float z
property uchar red
property uchar green
property uchar blue
end_header
210.000 974.000 271.000 46 49 54
210.000 975.000 270.000 48 50 55
210.000 975.000 271.000 46 48 54
210.000 973.000 274.000 49 52 58
210.000 973.000 275.000 51 54 60
210.000 974.000 272.000 44 47 52
210.000 974.000 273.000 45 48 53
210.000 975.000 272.000 45 48 53
210.000 975.000 273.000 45 49 54
210.000 974.000 274.000 49 52 57
210.000 974.000 275.000 51 54 59
210.000 975.000 274.000 50 52 58
210.000 975.000 275.000 51 54 59
211.000 975.000 279.000 51 53 57
211.000 975.000 280.000 55 56 60
211.000 974.000 282.000 52 54 59
211.000 974.000 283.000 55 57 62
211.000 975.000 283.000 57 59 64
211.000 973.000 284.000 57 59 64
211.000 973.000 285.000 58 61 66
211.000 972.000 286.000 54 57 62
211.000 973.000 286.000 57 59 64
211.000 974.000 284.000 58 60 65
211.000 974.000 285.000 61 63 68
211.000 975.000 284.000 58 60 65
211.000 975.000 285.000 59 62 67
211.000 974.000 286.000 60 63 68
211.000 975.000 286.000 63 65 71
211.000 975.000 287.000 63 65 70
212.000 975.000 281.000 54 56 60
212.000 975.000 282.000 53 55 60
212.000 975.000 283.000 55 58 63
210.000 976.000 270.000 48 51 56
210.000 976.000 271.000 48 50 55
210.000 977.000 271.000 49 52 57
210.000 978.000 271.000 48 51 57
210.000 979.000 270.000 50 53 58
210.000 979.000 271.000 50 52 57
210.000 980.000 270.000 53 55 60
210.000 980.000 271.000 52 54 59
210.000 981.000 270.000 54 56 60
210.000 981.000 271.000 53 55 60
211.000 982.000 269.000 55 57 62
210.000 982.000 270.000 54 56 61
210.000 982.000 271.000 55 56 61
211.000 982.000 270.000 55 56 61
211.000 983.000 270.000 56 58 63
211.000 983.000 271.000 55 57 62
211.000 984.000 270.000 56 58 63
211.000 984.000 271.000 56 58 63
211.000 985.000 271.000 58 61 65
210.000 976.000 272.000 46 49 54
210.000 976.000 273.000 46 49 54
210.000 977.000 272.000 47 50 55
210.000 977.000 273.000 48 50 55
210.000 976.000 274.000 50 53 58
210.000 976.000 275.000 52 54 59
210.000 977.000 274.000 51 53 58
210.000 977.000 275.000 53 55 59
211.000 976.000 275.000 52 54 59
211.000 977.000 275.000 52 54 59
210.000 978.000 272.000 48 51 56
210.000 978.000 273.000 50 52 56
210.000 979.000 272.000 48 51 56
210.000 979.000 273.000 51 53 58
210.000 978.000 274.000 51 53 58
210.000 978.000 275.000 54 56 61
210.000 979.000 274.000 53 55 60
210.000 979.000 275.000 56 58 63
211.000 978.000 275.000 53 55 60
211.000 979.000 275.000 56 58 63
211.000 976.000 276.000 52 54 59
211.000 976.000 277.000 52 55 61
211.000 977.000 276.000 49 51 56
211.000 977.000 277.000 49 52 58
211.000 976.000 278.000 53 56 62
211.000 976.000 279.000 52 54 59
211.000 977.000 278.000 52 55 61
211.000 978.000 276.000 49 51 57
211.000 978.000 277.000 48 51 57
211.000 979.000 276.000 52 55 60
211.000 979.000 277.000 47 50 56
211.000 978.000 278.000 51 53 59
210.000 980.000 272.000 50 52 57
210.000 980.000 273.000 52 54 59
210.000 981.000 272.000 51 53 58
210.000 981.000 273.000 52 54 59
210.000 980.000 274.000 55 57 61
210.000 981.000 274.000 55 57 61
211.000 980.000 275.000 57 59 64
211.000 981.000 274.000 55 57 62
211.000 981.000 275.000 57 59 64
210.000 982.000 272.000 52 54 59
211.000 982.000 272.000 51 54 59
211.000 982.000 273.000 52 54 59
211.000 983.000 272.000 53 55 60
211.000 983.000 273.000 53 55 60
211.000 982.000 274.000 55 57 62
211.000 982.000 275.000 56 58 63
211.000 983.000 274.000 55 57 63
211.000 983.000 275.000 56 58 64
211.000 980.000 276.000 56 59 64
211.000 980.000 277.000 48 51 56
211.000 981.000 276.000 57 59 65
211.000 982.000 276.000 55 58 63
211.000 983.000 276.000 52 55 60
212.000 976.000 279.000 52 53 58
212.000 977.000 279.000 52 55 60
212.000 979.000 277.000 47 49 55
212.000 978.000 278.000 52 54 60
212.000 978.000 279.000 52 54 60
212.000 979.000 278.000 51 53 58
212.000 979.000 279.000 49 51 57
213.000 979.000 279.000 48 50 55
212.000 980.000 277.000 47 49 54
212.000 981.000 277.000 48 50 55
212.000 980.000 278.000 48 49 54
212.000 981.000 278.000 47 48 53
213.000 980.000 279.000 47 49 54
213.000 981.000 278.000 45 46 50
213.000 981.000 279.000 44 45 49
212.000 982.000 276.000 55 57 61
212.000 982.000 277.000 49 51 56
212.000 983.000 276.000 50 53 57
212.000 983.000 277.000 47 49 53
213.000 982.000 278.000 44 45 50
213.000 983.000 278.000 41 42 46
214.000 981.000 279.000 44 45 48
214.000 982.000 279.000 42 43 46
214.000 983.000 278.000 43 43 47
214.000 983.000 279.000 44 44 47
215.000 983.000 279.000 44 44 47
211.000 976.000 280.000 55 56 61
211.000 976.000 285.000 60 62 67
211.000 976.000 286.000 62 64 70
211.000 976.000 287.000 64 66 71
212.000 976.000 280.000 56 57 62
212.000 976.000 281.000 56 58 63
212.000 977.000 280.000 54 56 62
212.000 977.000 281.000 56 58 63
212.000 976.000 282.000 56 58 63
212.000 976.000 283.000 57 59 64
212.000 977.000 282.000 57 59 64
212.000 977.000 283.000 57 59 64
212.000 978.000 280.000 53 55 61
212.000 978.000 281.000 55 57 62
212.000 979.000 280.000 52 54 60
213.000 979.000 280.000 51 53 57
213.000 979.000 281.000 54 56 60
212.000 978.000 282.000 56 58 63
212.000 978.000 283.000 56 58 63
213.000 979.000 282.000 56 58 62
213.000 979.000 283.000 55 57 62
212.000 976.000 284.000 58 60 66
212.000 976.000 285.000 59 61 66
212.000 977.000 284.000 59 61 67
212.000 977.000 285.000 59 61 66
212.000 976.000 286.000 61 63 68
212.000 976.000 287.000 64 65 70
212.000 977.000 286.000 60 62 67
212.000 977.000 287.000 63 64 69
212.000 978.000 284.000 57 59 65
212.000 978.000 285.000 60 62 67
213.000 979.000 284.000 55 57 62
213.000 979.000 285.000 59 61 66
212.000 978.000 286.000 60 62 67
212.000 978.000 287.000 61 63 68
212.000 979.000 287.000 62 63 68
213.000 979.000 286.000 60 62 67
213.000 979.000 287.000 61 62 67
213.000 980.000 280.000 50 52 56
213.000 980.000 281.000 54 55 60
214.000 980.000 280.000 52 53 57
214.000 980.000 281.000 54 56 60
214.000 981.000 280.000 49 50 54
214.000 981.000 281.000 52 54 58
214.000 980.000 282.000 55 57 61
214.000 980.000 283.000 55 56 61
214.000 981.000 282.000 54 55 59
214.000 981.000 283.000 54 55 60
214.000 982.000 280.000 45 46 49
215.000 982.000 280.000 47 48 52
215.000 982.000 281.000 50 52 56
215.000 983.000 280.000 45 46 49
215.000 983.000 281.000 46 47 51
215.000 982.000 282.000 51 53 57
215.000 982.000 283.000 52 53 58
215.000 983.000 282.000 49 50 54
215.000 983.000 283.000 51 52 56
213.000 980.000 284.000 55 57 62
213.000 980.000 285.000 58 59 64
213.000 980.000 286.000 59 60 65
213.000 980.000 287.000 60 62 66
214.000 980.000 284.000 55 56 61
214.000 980.000 285.000 56 57 62
214.000 981.000 284.000 55 56 61
214.000 981.000 285.000 55 57 61
214.000 980.000 286.000 58 60 64
214.000 981.000 286.000 57 58 63
214.000 981.000 287.000 60 61 65
214.000 982.000 284.000 55 56 60
214.000 982.000 285.000 55 57 61
215.000 982.000 284.000 54 55 59
215.000 982.000 285.000 55 57 61
215.000 983.000 284.000 54 55 59
215.000 983.000 285.000 55 56 61
214.000 982.000 286.000 56 57 62
214.000 982.000 287.000 58 60 64
215.000 982.000 287.000 57 59 63
215.000 983.000 286.000 54 55 60
215.000 983.000 287.000 55 56 61
211.000 984.000 272.000 55 57 62
211.000 984.000 273.000 55 58 63
211.000 985.000 272.000 59 61 66
211.000 985.000 273.000 57 60 65
211.000 984.000 274.000 57 59 64
211.000 984.000 275.000 58 61 67
211.000 985.000 274.000 58 60 66
211.000 985.000 275.000 59 62 68
211.000 986.000 272.000 59 61 67
211.000 986.000 273.000 58 61 67
211.000 987.000 272.000 58 61 67
211.000 987.000 273.000 58 61 67
211.000 986.000 274.000 58 60 66
211.000 984.000 276.000 54 57 63
212.000 985.000 275.000 59 62 68
212.000 987.000 272.000 59 61 67
212.000 987.000 273.000 57 60 65
212.000 986.000 274.000 58 61 67
212.000 986.000 275.000 61 64 69
212.000 987.000 274.000 58 61 67
212.000 987.000 275.000 61 63 69
212.000 984.000 276.000 50 53 58
212.000 984.000 277.000 44 46 51
212.000 985.000 276.000 53 56 62
212.000 985.000 277.000 42 44 49
213.000 985.000 277.000 41 42 47
213.000 984.000 278.000 40 40 44
213.000 985.000 278.000 41 41 45
212.000 986.000 276.000 56 59 64
212.000 987.000 276.000 61 63 69
213.000 986.000 276.000 52 55 60
213.000 986.000 277.000 44 47 52
213.000 987.000 276.000 58 60 66
213.000 987.000 277.000 47 49 54
213.000 986.000 278.000 39 40 44
214.000 984.000 278.000 43 44 47
214.000 984.000 279.000 47 47 50
214.000 985.000 278.000 42 43 46
214.000 985.000 279.000 45 45 48
215.000 984.000 279.000 47 47 50
215.000 985.000 279.000 47 47 50
214.000 987.000 277.000 44 47 52
214.000 986.000 278.000 41 42 46
214.000 987.000 278.000 41 42 47
215.000 986.000 279.000 44 44 47
215.000 987.000 279.000 45 45 48
212.000 988.000 272.000 59 61 67
212.000 988.000 273.000 58 60 66
212.000 989.000 272.000 59 62 68
212.000 989.000 273.000 58 61 66
213.000 989.000 272.000 59 62 67
213.000 989.000 273.000 59 61 67
212.000 988.000 274.000 58 60 66
212.000 988.000 275.000 58 61 67
213.000 988.000 274.000 58 61 66
213.000 988.000 275.000 59 61 67
213.000 989.000 274.000 58 60 66
213.000 989.000 275.000 58 60 66
213.000 990.000 272.000 58 61 67
213.000 990.000 273.000 58 60 66
213.000 991.000 272.000 59 62 67
213.000 990.000 274.000 57 60 65
213.000 990.000 275.000 56 58 64
214.000 991.000 272.000 60 63 69
214.000 991.000 273.000 58 61 66
214.000 990.000 274.000 57 59 64
214.000 990.000 275.000 57 59 64
214.000 991.000 274.000 57 59 64
214.000 991.000 275.000 57 59 64
215.000 991.000 274.000 57 59 64
215.000 991.000 275.000 58 60 65
213.000 988.000 276.000 58 60 66
213.000 988.000 277.000 49 52 57
213.000 989.000 276.000 59 61 66
214.000 988.000 277.000 46 49 54
214.000 989.000 276.000 58 60 65
214.000 989.000 277.000 52 55 60
214.000 988.000 278.000 39 41 46
215.000 988.000 278.000 40 41 45
215.000 988.000 279.000 44 44 48
215.000 989.000 278.000 42 43 48
215.000 989.000 279.000 41 42 46
214.000 990.000 276.000 59 61 66
214.000 990.000 277.000 55 58 63
214.000 991.000 276.000 60 61 66
215.000 990.000 276.000 59 61 66
215.000 990.000 277.000 55 58 63
215.000 991.000 276.000 61 63 68
215.000 991.000 277.000 58 60 66
215.000 990.000 278.000 48 50 55
215.000 984.000 280.000 45 46 49
215.000 984.000 281.000 45 46 49
215.000 985.000 280.000 45 46 49
215.000 985.000 281.000 47 49 52
215.000 984.000 282.000 46 48 52
215.000 984.000 283.000 47 49 53
215.000 986.000 280.000 45 46 49
215.000 987.000 280.000 46 47 49
215.000 984.000 284.000 49 51 55
215.000 984.000 285.000 54 55 59
215.000 984.000 286.000 55 56 61
215.000 984.000 287.000 55 56 61
216.000 988.000 279.000 46 46 48
216.000 989.000 279.000 43 42 45
216.000 991.000 276.000 60 62 67
216.000 991.000 277.000 57 60 65
216.000 990.000 278.000 48 50 54
216.000 990.000 279.000 44 44 47
216.000 991.000 278.000 52 54 59
216.000 991.000 279.000 47 48 52
217.000 991.000 278.000 51 54 58
217.000 991.000 279.000 49 51 55
216.000 985.000 281.000 47 48 52
216.000 984.000 282.000 46 47 52
216.000 984.000 283.000 45 47 51
216.000 985.000 282.000 45 47 51
216.000 985.000 283.000 46 47 51
216.000 986.000 280.000 46 46 49
216.000 986.000 281.000 46 48 52
216.000 987.000 280.000 46 47 50
216.000 987.000 281.000 46 47 51
216.000 986.000 282.000 46 48 52
216.000 986.000 283.000 46 48 51
216.000 987.000 282.000 47 48 52
216.000 987.000 283.000 45 47 51
217.000 987.000 283.000 44 46 50
216.000 984.000 284.000 48 49 53
216.000 984.000 285.000 54 55 59
216.000 985.000 284.000 47 48 52
216.000 985.000 285.000 52 53 57
216.000 984.000 286.000 56 58 62
216.000 984.000 287.000 54 56 61
216.000 985.000 286.000 56 57 61
216.000 985.000 287.000 55 56 60
216.000 986.000 284.000 47 49 52
216.000 986.000 285.000 49 51 55
216.000 987.000 284.000 45 47 51
217.000 986.000 285.000 49 51 55
217.000 987.000 284.000 45 47 51
217.000 987.000 285.000 49 50 54
216.000 986.000 286.000 53 54 58
216.000 986.000 287.000 56 57 62
217.000 986.000 286.000 51 52 57
217.000 986.000 287.000 56 57 61
217.000 987.000 286.000 52 53 57
217.000 987.000 287.000 55 56 60
218.000 987.000 287.000 55 56 60
216.000 988.000 280.000 47 47 50
216.000 988.000 281.000 45 47 50
216.000 989.000 280.000 48 48 50
216.000 989.000 281.000 47 47 50
217.000 989.000 281.000 45 46 49
216.000 988.000 282.000 46 47 51
217.000 988.000 282.000 45 46 50
217.000 988.000 283.000 45 46 50
217.000 989.000 282.000 44 45 48
217.000 989.000 283.000 44 46 49
216.000 990.000 280.000 44 44 47
217.000 990.000 280.000 46 46 49
217.000 990.000 281.000 47 48 51
217.000 991.000 280.000 46 46 50
217.000 991.000 281.000 45 46 49
217.000 990.000 282.000 46 47 50
217.000 990.000 283.000 45 46 49
218.000 991.000 280.000 43 44 48
218.000 991.000 281.000 43 44 48
218.000 990.000 283.000 45 46 50
218.000 991.000 282.000 45 46 50
218.000 991.000 283.000 44 45 49
219.000 991.000 283.000 43 44 48
217.000 988.000 284.000 45 46 50
217.000 988.000 285.000 46 48 52
217.000 989.000 284.000 46 48 51
217.000 988.000 286.000 50 51 55
218.000 988.000 285.000 47 48 52
218.000 989.000 284.000 47 48 52
218.000 989.000 285.000 45 47 51
218.000 988.000 286.000 49 50 54
218.000 988.000 287.000 52 53 58
218.000 989.000 286.000 45 47 51
218.000 989.000 287.000 49 51 55
219.000 989.000 287.000 49 51 55
218.000 990.000 284.000 46 47 51
218.000 990.000 285.000 45 47 51
218.000 991.000 284.000 45 47 51
219.000 990.000 285.000 46 48 53
219.000 991.000 284.000 46 47 51
219.000 991.000 285.000 48 50 54
218.000 990.000 286.000 45 47 51
219.000 990.000 286.000 47 49 53
219.000 990.000 287.000 50 52 57
219.000 991.000 286.000 51 53 57
220.000 991.000 286.000 54 55 59
220.000 991.000 287.000 56 57 61
212.000 978.000 288.000 65 66 71
212.000 979.000 288.000 65 66 71
213.000 979.000 288.000 65 66 71
213.000 980.000 288.000 64 65 70
213.000 980.000 289.000 66 67 71
214.000 981.000 288.000 63 64 69
214.000 981.000 289.000 66 67 72
214.000 982.000 288.000 62 63 68
214.000 982.000 289.000 66 68 73
215.000 982.000 288.000 60 62 68
215.000 983.000 288.000 59 61 66
215.000 983.000 289.000 64 66 72
215.000 984.000 288.000 57 59 64
216.000 984.000 288.000 57 59 64
216.000 984.000 289.000 62 63 68
216.000 985.000 288.000 56 57 63
216.000 985.000 289.000 59 60 65
217.000 985.000 289.000 59 61 66
216.000 984.000 290.000 63 64 69
216.000 985.000 290.000 62 63 68
217.000 985.000 290.000 61 62 67
216.000 986.000 288.000 57 59 63
217.000 986.000 288.000 54 56 61
217.000 986.000 289.000 54 55 60
217.000 987.000 288.000 55 56 60
217.000 986.000 290.000 59 60 65
218.000 987.000 288.000 54 55 59
218.000 987.000 289.000 53 54 59
218.000 986.000 290.000 58 59 63
218.000 987.000 290.000 55 56 60
218.000 987.000 291.000 55 56 61
219.000 987.000 290.000 56 57 61
218.000 988.000 288.000 54 55 59
218.000 988.000 289.000 55 56 60
219.000 988.000 289.000 55 56 61
219.000 989.000 288.000 51 53 58
219.000 989.000 289.000 54 55 60
218.000 988.000 290.000 55 56 60
219.000 988.000 290.000 55 57 61
219.000 988.000 291.000 54 56 60
219.000 989.000 290.000 54 56 60
219.000 989.000 291.000 54 56 60
219.000 990.000 288.000 51 53 58
219.000 990.000 289.000 51 53 58
220.000 989.000 290.000 54 56 60
220.000 989.000 291.000 53 55 59
220.000 990.000 288.000 53 55 59
220.000 990.000 289.000 53 55 59
220.000 991.000 288.000 57 58 62
220.000 991.000 289.000 56 57 61
221.000 991.000 289.000 57 58 62
220.000 990.000 290.000 55 57 61
220.000 990.000 291.000 53 55 60
221.000 990.000 291.000 55 57 61
221.000 991.000 290.000 57 58 63
221.000 991.000 291.000 56 57 61
222.000 991.000 291.000 55 56 60
221.000 990.000 292.000 51 53 57
221.000 990.000 293.000 49 51 55
221.000 991.000 292.000 54 55 59
221.000 990.000 294.000 47 49 53
222.000 991.000 292.000 54 55 59
222.000 991.000 293.000 53 54 58
222.000 991.000 294.000 51 52 56
214.000 992.000 272.000 62 65 71
215.000 992.000 272.000 62 66 72
215.000 992.000 273.000 60 63 68
215.000 993.000 272.000 64 67 73
215.000 993.000 273.000 63 66 72
215.000 992.000 274.000 58 60 65
215.000 992.000 275.000 58 60 65
216.000 993.000 272.000 64 67 73
216.000 993.000 273.000 61 64 69
216.000 992.000 275.000 60 62 66
216.000 993.000 274.000 57 60 65
216.000 993.000 275.000 60 62 67
217.000 993.000 275.000 62 64 69
216.000 994.000 272.000 64 67 73
216.000 994.000 273.000 63 66 72
217.000 994.000 272.000 63 66 72
217.000 994.000 273.000 62 64 70
217.000 995.000 272.000 62 65 71
217.000 994.000 274.000 57 59 65
217.000 994.000 275.000 62 64 69
218.000 995.000 272.000 64 66 72
218.000 995.000 273.000 62 64 70
218.000 994.000 274.000 57 59 65
218.000 994.000 275.000 63 65 70
218.000 995.000 274.000 56 58 64
218.000 995.000 275.000 63 65 70
219.000 995.000 275.000 64 65 70
216.000 992.000 276.000 61 63 68
216.000 992.000 277.000 58 61 66
216.000 993.000 276.000 62 64 69
217.000 992.000 277.000 56 59 64
217.000 993.000 276.000 61 63 68
217.000 993.000 277.000 57 60 65
217.000 992.000 278.000 54 56 61
217.000 992.000 279.000 52 55 59
217.000 993.000 278.000 53 56 61
217.000 994.000 276.000 64 67 72
218.000 993.000 277.000 57 60 65
218.000 992.000 279.000 52 54 59
218.000 993.000 278.000 53 56 61
218.000 993.000 279.000 55 57 62
218.000 994.000 276.000 64 66 71
218.000 994.000 277.000 62 64 69
218.000 995.000 276.000 65 66 71
219.000 994.000 277.000 61 63 69
219.000 995.000 276.000 64 65 70
219.000 995.000 277.000 62 64 69
218.000 994.000 278.000 56 59 64
218.000 994.000 279.000 53 56 61
219.000 994.000 278.000 56 59 64
219.000 994.000 279.000 52 55 60
219.000 995.000 278.000 59 62 67
219.000 995.000 279.000 54 57 63
219.000 996.000 272.000 65 67 74
219.000 996.000 273.000 62 63 69
219.000 997.000 272.000 65 67 73
219.000 997.000 273.000 62 63 68
219.000 996.000 274.000 57 58 63
219.000 996.000 275.000 62 63 67
219.000 997.000 274.000 55 56 61
219.000 996.000 276.000 62 64 68
219.000 996.000 277.000 62 64 69
220.000 995.000 278.000 59 62 67
220.000 995.000 279.000 56 59 64
220.000 997.000 272.000 64 66 72
220.000 997.000 273.000 61 62 67
220.000 997.000 274.000 55 56 61
220.000 997.000 275.000 57 58 63
220.000 998.000 272.000 63 65 71
220.000 998.000 273.000 58 60 65
221.000 998.000 272.000 62 64 69
221.000 998.000 273.000 57 59 64
221.000 999.000 272.000 59 61 67
221.000 999.000 273.000 56 58 63
220.000 998.000 274.000 54 56 61
221.000 998.000 274.000 53 55 60
221.000 998.000 275.000 54 55 60
221.000 999.000 274.000 53 55 60
221.000 999.000 275.000 52 54 59
222.000 999.000 272.000 58 60 65
222.000 999.000 273.000 55 57 62
222.000 999.000 274.000 52 54 59
222.000 999.000 275.000 52 53 58
220.000 996.000 276.000 62 63 68
220.000 996.000 277.000 62 64 70
220.000 997.000 276.000 58 60 65
220.000 997.000 277.000 63 64 69
221.000 997.000 277.000 62 64 68
220.000 996.000 278.000 62 64 69
220.000 996.000 279.000 59 62 67
220.000 997.000 278.000 63 65 70
221.000 997.000 278.000 63 64 69
221.000 997.000 279.000 62 64 68
221.000 998.000 276.000 55 56 61
221.000 998.000 277.000 57 58 63
221.000 998.000 278.000 61 62 66
221.000 998.000 279.000 62 63 68
222.000 998.000 277.000 54 56 60
222.000 999.000 276.000 51 52 57
222.000 999.000 277.000 48 50 54
222.000 998.000 278.000 57 58 63
222.000 998.000 279.000 60 61 66
222.000 999.000 278.000 52 53 58
222.000 999.000 279.000 58 59 64
223.000 999.000 279.000 55 56 61
218.000 992.000 280.000 46 48 52
218.000 992.000 281.000 41 43 47
218.000 993.000 280.000 49 51 55
219.000 993.000 280.000 48 50 55
219.000 993.000 281.000 41 43 47
218.000 992.000 282.000 42 43 47
219.000 992.000 282.000 41 43 47
219.000 992.000 283.000 43 44 47
219.000 993.000 282.000 41 42 46
219.000 993.000 283.000 42 43 47
219.000 994.000 280.000 49 51 55
219.000 994.000 281.000 43 44 49
219.000 992.000 284.000 45 46 49
220.000 993.000 283.000 41 42 45
220.000 994.000 280.000 46 48 53
220.000 994.000 281.000 42 44 49
220.000 995.000 280.000 50 53 58
220.000 995.000 281.000 44 46 51
221.000 995.000 281.000 43 45 50
220.000 994.000 282.000 40 42 46
220.000 994.000 283.000 39 39 43
221.000 994.000 283.000 39 40 43
221.000 995.000 282.000 40 41 46
221.000 995.000 283.000 39 40 43
222.000 995.000 283.000 40 41 44
220.000 992.000 284.000 48 48 51
220.000 992.000 285.000 53 54 57
220.000 993.000 284.000 44 44 47
220.000 993.000 285.000 53 53 56
221.000 993.000 284.000 45 45 48
221.000 993.000 285.000 53 53 56
220.000 992.000 286.000 57 57 61
220.000 992.000 287.000 58 59 63
221.000 992.000 287.000 57 57 61
221.000 993.000 286.000 56 57 60
221.000 993.000 287.000 56 56 60
220.000 994.000 284.000 40 40 43
221.000 994.000 284.000 42 41 44
221.000 994.000 285.000 49 49 52
221.000 994.000 286.000 55 56 59
222.000 993.000 287.000 58 58 62
222.000 994.000 285.000 50 51 54
222.000 995.000 284.000 40 40 44
222.000 995.000 285.000 45 45 48
223.000 995.000 285.000 43 43 47
222.000 994.000 286.000 53 54 57
222.000 994.000 287.000 56 57 60
223.000 994.000 287.000 53 53 57
223.000 995.000 286.000 45 45 49
223.000 995.000 287.000 49 49 52
220.000 996.000 280.000 55 58 63
221.000 996.000 280.000 53 56 61
221.000 996.000 281.000 46 48 53
221.000 997.000 280.000 56 58 63
221.000 997.000 281.000 50 52 57
221.000 996.000 282.000 41 43 47
222.000 997.000 280.000 54 56 61
222.000 997.000 281.000 48 51 55
222.000 996.000 282.000 39 41 45
222.000 996.000 283.000 39 40 43
222.000 997.000 282.000 40 43 47
222.000 997.000 283.000 37 38 42
223.000 997.000 282.000 37 40 45
223.000 997.000 283.000 37 37 42
222.000 998.000 280.000 58 60 64
222.000 998.000 281.000 52 54 59
223.000 998.000 280.000 57 59 64
223.000 998.000 281.000 53 56 61
223.000 999.000 280.000 60 61 66
223.000 999.000 281.000 57 59 64
223.000 998.000 282.000 42 46 51
223.000 998.000 283.000 36 38 43
222.000 996.000 284.000 39 40 43
223.000 996.000 284.000 38 38 41
223.000 996.000 285.000 40 39 42
223.000 997.000 284.000 37 37 40
222.000 1000.000 273.000 55 57 62
223.000 1000.000 273.000 56 57 62
223.000 1001.000 273.000 55 56 61
222.000 1000.000 274.000 50 51 56
222.000 1000.000 275.000 53 54 58
223.000 1000.000 274.000 51 52 56
223.000 1000.000 275.000 52 53 57
223.000 1001.000 274.000 50 52 56
223.000 1001.000 275.000 51 51 55
222.000 1000.000 276.000 52 53 58
223.000 1000.000 276.000 52 52 56
223.000 1000.000 277.000 46 48 52
223.000 1001.000 276.000 53 54 58
223.000 1000.000 278.000 48 49 53
223.000 1000.000 279.000 52 53 57
221.000 992.000 288.000 57 57 61
221.000 992.000 289.000 56 57 60
221.000 993.000 288.000 56 57 60
221.000 992.000 290.000 56 57 61
222.000 993.000 288.000 57 58 61
222.000 993.000 289.000 57 58 61
222.000 992.000 290.000 57 57 61
222.000 992.000 291.000 57 58 62
222.000 993.000 290.000 56 57 61
222.000 993.000 291.000 56 57 61
223.000 993.000 290.000 55 56 60
223.000 993.000 291.000 55 56 60
222.000 994.000 288.000 57 57 61
223.000 994.000 288.000 56 56 59
223.000 994.000 289.000 55 56 59
223.000 995.000 288.000 56 56 59
223.000 994.000 290.000 53 54 58
223.000 994.000 291.000 52 53 57
222.000 992.000 292.000 56 57 61
223.000 992.000 292.000 55 56 60
223.000 992.000 293.000 54 55 59
223.000 993.000 292.000 56 57 61
223.000 993.000 293.000 54 55 59
223.000 992.000 294.000 54 54 58
224.000 995.000 287.000 51 51 53
224.000 999.000 281.000 57 59 64
224.000 998.000 282.000 41 45 51
224.000 998.000 283.000 35 38 44
224.000 999.000 282.000 53 56 61
224.000 999.000 283.000 41 45 50
225.000 999.000 283.000 46 50 55
224.000 996.000 285.000 41 39 42
224.000 997.000 284.000 37 36 40
224.000 997.000 285.000 39 37 41
224.000 996.000 286.000 44 43 46
224.000 996.000 287.000 47 46 49
224.000 997.000 286.000 42 41 44
225.000 997.000 286.000 44 43 46
225.000 997.000 287.000 46 46 49
224.000 998.000 284.000 36 37 42
225.000 998.000 284.000 34 36 41
225.000 998.000 285.000 37 37 40
225.000 999.000 284.000 37 40 46
225.000 998.000 286.000 40 40 43
226.000 997.000 287.000 47 46 49
226.000 998.000 285.000 34 35 39
226.000 999.000 284.000 35 39 45
226.000 999.000 285.000 33 36 41
227.000 999.000 285.000 33 35 40
226.000 998.000 286.000 40 39 43
226.000 998.000 287.000 45 43 46
226.000 999.000 286.000 36 37 40
227.000 998.000 287.000 45 44 47
227.000 999.000 286.000 36 37 40
227.000 999.000 287.000 40 40 43
228.000 998.000 287.000 47 46 49
228.000 999.000 286.000 35 36 40
228.000 999.000 287.000 42 42 45
229.000 999.000 287.000 42 43 46
224.000 1001.000 273.000 52 54 59
224.000 1001.000 274.000 51 52 56
224.000 1001.000 275.000 49 50 54
225.000 1002.000 274.000 49 50 54
225.000 1002.000 275.000 48 49 53
226.000 1002.000 275.000 49 50 54
226.000 1003.000 274.000 48 49 53
226.000 1003.000 275.000 48 49 53
227.000 1003.000 274.000 49 51 56
227.000 1003.000 275.000 47 49 54
224.000 1001.000 276.000 52 53 56
224.000 1001.000 277.000 52 52 56
225.000 1001.000 276.000 51 52 56
225.000 1001.000 277.000 54 54 58
224.000 1000.000 278.000 47 47 51
224.000 1000.000 279.000 50 51 56
224.000 1001.000 278.000 48 49 53
224.000 1001.000 279.000 46 48 52
225.000 1001.000 278.000 51 52 56
225.000 1001.000 279.000 46 48 52
225.000 1002.000 276.000 49 50 54
225.000 1002.000 277.000 53 54 57
225.000 1002.000 278.000 53 54 57
225.000 1002.000 279.000 47 49 52
226.000 1002.000 276.000 49 50 54
226.000 1002.000 277.000 53 54 57
226.000 1003.000 276.000 49 51 55
226.000 1003.000 277.000 51 52 56
227.000 1003.000 276.000 49 50 55
227.000 1003.000 277.000 51 53 57
226.000 1002.000 278.000 53 54 58
226.000 1002.000 279.000 48 50 54
227.000 1002.000 278.000 53 54 58
227.000 1002.000 279.000 51 52 56
227.000 1003.000 278.000 53 54 57
227.000 1003.000 279.000 53 54 58
228.000 1003.000 275.000 47 49 55
228.000 1003.000 276.000 49 51 56
228.000 1003.000 277.000 50 52 57
228.000 1003.000 278.000 53 54 58
228.000 1003.000 279.000 55 56 60
229.000 1003.000 279.000 56 58 62
228.000 1004.000 274.000 55 57 63
228.000 1004.000 275.000 50 52 58
229.000 1004.000 274.000 59 61 66
229.000 1004.000 275.000 56 58 64
229.000 1005.000 274.000 60 62 67
231.000 1005.000 273.000 57 59 64
230.000 1005.000 274.000 61 63 67
230.000 1005.000 275.000 61 62 68
231.000 1005.000 274.000 61 63 68
231.000 1005.000 275.000 63 65 71
228.000 1004.000 276.000 49 51 57
228.000 1004.000 277.000 50 52 57
229.000 1004.000 276.000 53 55 62
229.000 1004.000 277.000 52 55 61
228.000 1004.000 278.000 52 53 58
229.000 1004.000 278.000 53 55 60
229.000 1004.000 279.000 55 57 61
230.000 1004.000 276.000 58 61 67
230.000 1004.000 277.000 58 60 66
230.000 1005.000 276.000 59 62 68
230.000 1005.000 277.000 61 64 69
231.000 1005.000 276.000 63 65 71
231.000 1005.000 277.000 64 66 72
230.000 1004.000 278.000 58 60 65
230.000 1004.000 279.000 57 59 63
231.000 1004.000 278.000 62 65 70
231.000 1004.000 279.000 62 63 68
231.000 1005.000 278.000 65 67 73
231.000 1005.000 279.000 66 68 72
224.000 1000.000 280.000 57 59 63
224.000 1000.000 281.000 61 63 68
225.000 1000.000 280.000 54 55 60
225.000 1000.000 281.000 63 65 70
225.000 1001.000 280.000 51 53 57
225.000 1001.000 281.000 59 61 65
225.000 1000.000 282.000 64 66 71
225.000 1000.000 283.000 61 64 69
225.000 1001.000 282.000 66 68 72
226.000 1001.000 280.000 50 51 55
226.000 1001.000 281.000 57 58 62
226.000 1000.000 283.000 63 65 70
226.000 1001.000 282.000 64 66 70
226.000 1001.000 283.000 67 69 74
227.000 1001.000 282.000 60 62 66
227.000 1001.000 283.000 66 68 73
226.000 1002.000 280.000 48 49 54
226.000 1002.000 281.000 54 55 59
227.000 1002.000 280.000 48 49 54
227.000 1002.000 281.000 52 53 57
227.000 1002.000 282.000 58 59 64
226.000 1000.000 284.000 47 50 56
227.000 1000.000 284.000 55 58 63
227.000 1000.000 285.000 39 42 47
227.000 1001.000 284.000 63 65 70
228.000 1001.000 283.000 64 66 71
228.000 1002.000 280.000 50 51 55
228.000 1002.000 281.000 49 51 55
228.000 1003.000 280.000 54 55 59
228.000 1003.000 281.000 51 53 57
229.000 1003.000 280.000 58 59 63
229.000 1003.000 281.000 56 58 62
228.000 1002.000 282.000 54 56 60
228.000 1002.000 283.000 60 61 65
228.000 1003.000 282.000 52 53 58
229.000 1002.000 283.000 56 57 62
229.000 1003.000 282.000 55 56 60
229.000 1003.000 283.000 55 57 61
230.000 1003.000 281.000 60 61 65
230.000 1003.000 282.000 60 61 65
230.000 1003.000 283.000 57 58 63
231.000 1003.000 283.000 60 61 66
228.000 1000.000 285.000 46 49 54
228.000 1001.000 284.000 60 62 67
228.000 1001.000 285.000 53 56 61
229.000 1001.000 285.000 53 55 61
228.000 1000.000 286.000 37 39 44
228.000 1000.000 287.000 38 38 42
229.000 1000.000 286.000 38 40 45
229.000 1000.000 287.000 40 41 45
229.000 1001.000 286.000 44 46 51
228.000 1002.000 284.000 59 61 66
229.000 1002.000 284.000 56 58 63
229.000 1002.000 285.000 54 57 62
230.000 1000.000 287.000 39 41 45
230.000 1001.000 286.000 45 47 52
230.000 1001.000 287.000 40 42 46
231.000 1000.000 287.000 40 41 45
231.000 1001.000 287.000 39 42 46
230.000 1002.000 284.000 54 56 61
230.000 1002.000 285.000 53 55 61
230.000 1003.000 284.000 55 56 62
231.000 1002.000 285.000 53 56 61
231.000 1003.000 284.000 58 59 65
231.000 1003.000 285.000 54 56 62
230.000 1002.000 286.000 48 51 56
231.000 1002.000 286.000 48 51 56
229.000 1004.000 280.000 58 59 63
230.000 1004.000 280.000 59 60 64
230.000 1004.000 281.000 61 62 66
231.000 1004.000 280.000 60 61 65
231.000 1004.000 281.000 62 62 67
231.000 1004.000 282.000 62 63 68
231.000 1004.000 283.000 61 62 67
232.000 1005.000 275.000 66 68 73
232.000 1005.000 276.000 68 70 75
232.000 1005.000 277.000 69 70 75
232.000 1005.000 278.000 70 71 76
232.000 1005.000 279.000 70 71 76
232.000 1001.000 287.000 43 45 49
232.000 1003.000 284.000 62 64 68
232.000 1003.000 285.000 60 62 67
233.000 1003.000 285.000 65 66 70
232.000 1002.000 286.000 53 55 60
232.000 1002.000 287.000 46 49 54
232.000 1003.000 286.000 57 59 64
233.000 1002.000 287.000 49 51 56
233.000 1003.000 286.000 61 63 67
233.000 1003.000 287.000 56 58 62
234.000 1002.000 287.000 52 54 59
234.000 1003.000 286.000 63 64 69
234.000 1003.000 287.000 60 61 66
235.000 1003.000 287.000 63 64 69
232.000 1004.000 280.000 62 63 68
232.000 1004.000 281.000 63 64 69
232.000 1005.000 280.000 66 67 72
232.000 1005.000 281.000 63 64 69
232.000 1004.000 282.000 61 63 67
232.000 1004.000 283.000 59 60 65
233.000 1004.000 282.000 61 62 67
233.000 1004.000 283.000 59 60 64
232.000 1004.000 284.000 61 63 67
233.000 1004.000 284.000 60 62 66
233.000 1004.000 285.000 64 65 69
234.000 1004.000 284.000 57 58 62
234.000 1004.000 285.000 60 61 65
236.000 1003.000 287.000 62 63 67
224.000 995.000 288.000 53 53 56
224.000 995.000 289.000 52 53 56
224.000 994.000 290.000 53 53 57
224.000 994.000 291.000 51 52 56
224.000 995.000 290.000 52 53 56
225.000 994.000 291.000 51 52 56
225.000 995.000 290.000 52 53 56
225.000 995.000 291.000 53 54 58
226.000 995.000 291.000 54 55 59
224.000 993.000 292.000 52 53 57
224.000 993.000 293.000 52 53 56
224.000 992.000 294.000 53 54 58
224.000 992.000 295.000 53 53 56
224.000 993.000 294.000 53 53 57
224.000 993.000 295.000 52 53 56
225.000 993.000 294.000 52 52 56
225.000 993.000 295.000 53 54 57
224.000 994.000 292.000 50 51 54
225.000 994.000 292.000 51 52 56
225.000 994.000 293.000 52 53 57
225.000 995.000 292.000 53 53 57
225.000 995.000 293.000 54 54 58
225.000 994.000 294.000 52 53 56
225.000 994.000 295.000 52 53 56
226.000 995.000 292.000 53 54 57
226.000 995.000 293.000 54 54 58
227.000 995.000 293.000 53 53 57
226.000 994.000 294.000 53 54 57
226.000 994.000 295.000 52 52 56
226.000 995.000 294.000 54 54 58
226.000 995.000 295.000 53 53 57
227.000 995.000 294.000 52 52 56
227.000 995.000 295.000 53 53 57
224.000 996.000 288.000 51 51 54
225.000 996.000 288.000 51 52 54
225.000 996.000 289.000 55 55 59
225.000 997.000 288.000 50 50 53
225.000 996.000 290.000 55 56 60
226.000 996.000 289.000 55 55 58
226.000 997.000 288.000 49 49 51
226.000 997.000 289.000 53 53 56
227.000 997.000 288.000 46 46 48
227.000 997.000 289.000 51 51 53
226.000 996.000 290.000 56 57 61
226.000 996.000 291.000 55 56 60
227.000 996.000 291.000 59 60 63
227.000 997.000 290.000 58 59 62
227.000 997.000 291.000 62 62 65
227.000 998.000 288.000 46 46 48
226.000 996.000 292.000 54 55 58
227.000 996.000 292.000 57 58 62
227.000 996.000 293.000 55 56 60
227.000 996.000 294.000 53 54 58
228.000 995.000 295.000 53 54 57
228.000 997.000 289.000 50 50 53
228.000 997.000 290.000 56 57 60
228.000 997.000 291.000 63 63 66
229.000 997.000 291.000 59 59 63
228.000 998.000 288.000 47 46 49
228.000 998.000 289.000 48 48 50
228.000 999.000 288.000 45 45 48
229.000 998.000 289.000 49 49 52
229.000 999.000 288.000 45 45 48
229.000 999.000 289.000 47 47 50
228.000 998.000 290.000 52 51 54
229.000 998.000 290.000 53 53 56
229.000 998.000 291.000 57 57 61
230.000 999.000 288.000 43 43 47
230.000 999.000 289.000 48 48 51
231.000 999.000 289.000 48 48 52
230.000 998.000 290.000 54 54 57
230.000 998.000 291.000 55 56 59
230.000 999.000 290.000 54 54 57
231.000 998.000 291.000 57 58 62
231.000 999.000 290.000 55 54 58
231.000 999.000 291.000 57 57 61
228.000 996.000 292.000 60 61 64
228.000 996.000 293.000 57 58 62
228.000 997.000 292.000 61 61 65
228.000 997.000 293.000 57 57 61
229.000 997.000 292.000 59 60 63
229.000 997.000 293.000 57 58 61
228.000 996.000 294.000 56 56 60
228.000 996.000 295.000 53 53 57
229.000 996.000 294.000 55 56 59
229.000 996.000 295.000 55 55 59
229.000 997.000 294.000 54 55 59
229.000 997.000 295.000 55 56 59
230.000 997.000 292.000 59 59 63
230.000 997.000 293.000 59 60 64
230.000 997.000 294.000 56 57 61
230.000 997.000 295.000 56 56 60
231.000 997.000 295.000 54 55 59
230.000 998.000 292.000 58 59 63
230.000 998.000 293.000 59 60 64
231.000 998.000 292.000 59 59 63
231.000 998.000 293.000 59 60 64
231.000 999.000 292.000 58 58 62
231.000 998.000 294.000 57 58 62
231.000 998.000 295.000 53 53 58
224.000 992.000 296.000 52 52 55
225.000 993.000 296.000 53 54 57
225.000 993.000 297.000 53 53 56
226.000 993.000 296.000 55 56 59
226.000 994.000 296.000 54 55 58
226.000 994.000 297.000 56 56 59
227.000 994.000 296.000 54 54 57
227.000 994.000 297.000 54 55 58
227.000 995.000 296.000 54 54 57
228.000 995.000 296.000 55 56 59
228.000 995.000 297.000 55 55 58
228.000 995.000 298.000 53 54 58
228.000 996.000 296.000 54 54 58
228.000 996.000 297.000 55 55 59
229.000 996.000 296.000 53 53 57
229.000 996.000 297.000 53 54 57
229.000 996.000 298.000 55 56 60
229.000 996.000 299.000 56 57 61
230.000 997.000 296.000 56 56 60
230.000 997.000 297.000 55 55 58
231.000 997.000 296.000 55 55 59
231.000 997.000 297.000 55 55 59
230.000 997.000 298.000 55 55 59
230.000 997.000 299.000 55 55 59
231.000 997.000 298.000 54 55 58
231.000 997.000 299.000 57 57 61
231.000 998.000 296.000 55 55 59
231.000 998.000 297.000 55 55 58
231.000 998.000 298.000 55 56 59
231.000 998.000 300.000 61 62 66
230.000 1000.000 288.000 40 41 44
231.000 1000.000 288.000 39 40 44
231.000 1000.000 289.000 46 46 49
232.000 999.000 291.000 53 54 58
233.000 999.000 291.000 51 51 56
232.000 999.000 292.000 54 55 59
232.000 999.000 293.000 55 55 59
233.000 999.000 292.000 49 50 54
233.000 999.000 293.000 52 52 56
232.000 998.000 294.000 57 57 61
232.000 998.000 295.000 57 56 61
232.000 999.000 294.000 56 56 60
232.000 999.000 295.000 58 58 62
233.000 999.000 294.000 56 55 60
233.000 999.000 295.000 56 56 60
232.000 998.000 296.000 55 55 59
232.000 998.000 297.000 56 56 60
232.000 999.000 296.000 57 57 61
232.000 999.000 297.000 57 57 61
233.000 999.000 296.000 56 56 60
233.000 999.000 297.000 56 57 61
232.000 998.000 298.000 56 57 61
232.000 998.000 299.000 60 61 65
232.000 999.000 298.000 58 59 63
232.000 999.000 299.000 61 62 66
233.000 999.000 298.000 57 58 62
233.000 999.000 299.000 58 59 64
232.000 999.000 300.000 60 61 66
233.000 999.000 300.000 60 62 66
232.000 1000.000 288.000 40 41 45
232.000 1000.000 289.000 44 45 49
232.000 1001.000 288.000 43 44 48
233.000 1000.000 289.000 45 46 50
233.000 1001.000 288.000 45 46 50
233.000 1001.000 289.000 44 45 49
232.000 1000.000 290.000 50 50 54
232.000 1000.000 291.000 51 51 55
233.000 1000.000 290.000 46 47 51
233.000 1000.000 291.000 49 50 54
233.000 1002.000 288.000 48 49 53
234.000 1001.000 289.000 46 47 51
235.000 1001.000 289.000 48 50 54
234.000 1000.000 290.000 46 47 51
234.000 1000.000 291.000 48 49 53
234.000 1001.000 290.000 45 46 50
235.000 1000.000 291.000 49 50 54
235.000 1001.000 290.000 49 51 55
235.000 1001.000 291.000 47 48 52
234.000 1002.000 288.000 50 52 56
235.000 1002.000 288.000 57 59 63
235.000 1002.000 289.000 53 54 59
235.000 1003.000 288.000 61 62 67
235.000 1002.000 290.000 55 56 61
233.000 1000.000 292.000 49 49 54
234.000 1000.000 292.000 48 49 53
234.000 1000.000 293.000 49 49 54
235.000 1000.000 292.000 50 51 55
235.000 1000.000 293.000 51 52 56
235.000 1001.000 292.000 48 49 54
235.000 1001.000 293.000 52 53 57
234.000 1000.000 294.000 53 52 56
234.000 1000.000 295.000 52 53 57
235.000 1000.000 294.000 52 52 56
235.000 1000.000 295.000 52 53 58
235.000 1001.000 294.000 53 54 58
235.000 1001.000 295.000 53 55 59
236.000 1001.000 291.000 45 47 52
236.000 1002.000 289.000 59 60 65
236.000 1003.000 288.000 62 64 68
236.000 1003.000 289.000 60 61 66
236.000 1002.000 290.000 57 59 63
236.000 1002.000 291.000 49 51 55
237.000 1002.000 290.000 58 59 63
237.000 1002.000 291.000 52 53 58
236.000 1001.000 292.000 48 49 54
236.000 1001.000 293.000 51 52 57
236.000 1001.000 294.000 52 54 58
236.000 1001.000 295.000 52 54 59
236.000 1002.000 292.000 45 47 51
237.000 1002.000 292.000 48 50 54
237.000 1002.000 293.000 51 53 57
236.000 1002.000 294.000 53 55 59
236.000 1002.000 295.000 54 55 59
237.000 1002.000 294.000 54 55 59
238.000 1002.000 292.000 50 52 56
238.000 1002.000 293.000 53 54 58
233.000 1000.000 297.000 56 57 61
233.000 1000.000 298.000 57 58 62
233.000 1000.000 299.000 58 60 64
234.000 1000.000 296.000 52 53 58
234.000 1000.000 297.000 54 55 59
235.000 1000.000 296.000 51 52 56
235.000 1000.000 297.000 51 52 56
235.000 1001.000 296.000 51 52 57
235.000 1001.000 297.000 51 53 57
234.000 1000.000 298.000 56 57 61
234.000 1000.000 299.000 59 61 66
235.000 1000.000 299.000 61 63 68
235.000 1001.000 298.000 56 57 62
233.000 1000.000 300.000 60 62 67
234.000 1000.000 300.000 61 62 67
236.000 1001.000 296.000 50 52 56
236.000 1001.000 297.000 51 53 58
236.000 1002.000 296.000 53 54 59
