ply
format ascii 1.0
element vertex 1385
property float x
property float y
property float z
property uchar red
property uchar green
property uchar blue
end_header
280.000 29.000 246.000 65 57 51
280.000 29.000 247.000 65 57 50
281.000 29.000 246.000 65 57 50
280.000 31.000 245.000 70 60 52
280.000 30.000 246.000 68 59 53
280.000 30.000 247.000 68 59 52
280.000 31.000 246.000 70 60 53
280.000 31.000 247.000 71 61 54
281.000 27.000 248.000 63 56 50
281.000 27.000 249.000 65 57 51
280.000 29.000 248.000 66 57 51
281.000 28.000 248.000 64 56 50
281.000 28.000 249.000 65 57 50
281.000 28.000 250.000 65 57 51
281.000 28.000 251.000 66 58 52
280.000 30.000 248.000 68 60 53
280.000 30.000 249.000 68 60 53
280.000 31.000 248.000 71 62 54
280.000 31.000 249.000 72 62 55
280.000 30.000 250.000 70 60 53
280.000 30.000 251.000 70 61 53
280.000 31.000 250.000 73 62 54
280.000 31.000 251.000 72 62 54
281.000 31.000 251.000 73 62 54
281.000 28.000 252.000 66 58 52
281.000 28.000 253.000 66 58 52
281.000 28.000 254.000 67 59 52
281.000 28.000 255.000 68 60 54
281.000 29.000 254.000 69 60 53
281.000 29.000 255.000 69 60 54
280.000 30.000 252.000 70 60 53
280.000 30.000 253.000 70 61 53
281.000 30.000 253.000 71 61 54
281.000 31.000 252.000 72 61 53
281.000 31.000 253.000 72 61 53
281.000 30.000 254.000 70 61 54
281.000 30.000 255.000 71 61 54
281.000 31.000 254.000 72 61 53
281.000 31.000 255.000 72 62 54
280.000 33.000 243.000 73 62 53
281.000 32.000 243.000 72 61 52
280.000 34.000 242.000 75 64 56
280.000 34.000 243.000 75 65 56
280.000 35.000 242.000 77 66 57
280.000 35.000 243.000 76 65 57
280.000 32.000 244.000 72 61 52
280.000 32.000 245.000 72 61 53
280.000 33.000 244.000 73 62 54
280.000 33.000 245.000 73 63 54
280.000 32.000 246.000 73 62 54
280.000 32.000 247.000 73 63 54
280.000 33.000 246.000 74 64 56
280.000 33.000 247.000 76 65 56
281.000 32.000 247.000 74 63 54
281.000 33.000 247.000 75 64 55
280.000 34.000 244.000 75 64 56
280.000 34.000 245.000 75 64 56
280.000 35.000 244.000 76 65 57
281.000 34.000 245.000 75 65 57
281.000 35.000 244.000 76 66 58
281.000 35.000 245.000 76 66 58
281.000 34.000 246.000 76 66 58
281.000 34.000 247.000 78 68 59
281.000 35.000 246.000 76 66 58
281.000 35.000 247.000 79 69 60
281.000 36.000 242.000 78 68 60
281.000 36.000 243.000 78 68 61
281.000 37.000 243.000 80 70 63
281.000 38.000 243.000 78 66 59
281.000 39.000 243.000 77 65 57
282.000 39.000 243.000 77 66 58
281.000 36.000 244.000 77 68 60
281.000 36.000 245.000 77 68 61
281.000 37.000 244.000 77 68 61
281.000 37.000 245.000 76 67 60
281.000 36.000 246.000 78 69 62
281.000 36.000 247.000 80 70 62
281.000 37.000 246.000 77 68 61
281.000 37.000 247.000 79 69 61
281.000 38.000 244.000 73 63 56
281.000 38.000 245.000 73 63 56
281.000 39.000 244.000 74 64 56
281.000 38.000 246.000 75 65 57
282.000 38.000 245.000 72 63 55
282.000 39.000 244.000 73 63 55
282.000 39.000 245.000 73 63 55
282.000 38.000 246.000 75 65 57
282.000 38.000 247.000 79 69 60
282.000 39.000 246.000 77 66 58
282.000 39.000 247.000 80 69 60
283.000 39.000 247.000 84 72 63
280.000 32.000 248.000 75 64 55
280.000 32.000 249.000 75 63 55
281.000 32.000 248.000 75 64 56
281.000 32.000 249.000 77 65 57
281.000 33.000 248.000 78 65 56
281.000 33.000 249.000 79 66 57
281.000 32.000 250.000 75 64 55
281.000 32.000 251.000 75 64 55
281.000 33.000 250.000 78 66 57
281.000 33.000 251.000 77 66 57
281.000 34.000 248.000 81 69 60
281.000 34.000 249.000 82 70 61
281.000 35.000 248.000 82 71 62
281.000 35.000 249.000 87 74 65
281.000 34.000 250.000 82 68 60
281.000 34.000 251.000 80 67 58
281.000 35.000 250.000 87 73 64
282.000 34.000 251.000 82 67 58
282.000 35.000 250.000 87 73 64
282.000 35.000 251.000 86 70 60
281.000 32.000 252.000 73 62 54
281.000 32.000 253.000 73 61 53
281.000 33.000 252.000 76 64 56
281.000 33.000 253.000 75 63 55
281.000 32.000 254.000 73 61 53
281.000 32.000 255.000 73 62 54
281.000 33.000 254.000 76 63 54
281.000 33.000 255.000 76 63 54
281.000 34.000 252.000 78 65 57
281.000 34.000 253.000 77 64 56
281.000 34.000 254.000 77 64 55
282.000 34.000 252.000 80 66 57
282.000 34.000 253.000 79 65 57
282.000 35.000 252.000 84 68 59
282.000 35.000 253.000 82 67 58
283.000 35.000 253.000 85 69 59
282.000 34.000 254.000 79 66 57
282.000 34.000 255.000 79 66 57
282.000 35.000 254.000 83 68 57
282.000 35.000 255.000 83 68 57
283.000 35.000 254.000 85 69 58
283.000 35.000 255.000 84 69 57
281.000 36.000 248.000 85 74 66
281.000 36.000 249.000 87 75 65
281.000 37.000 248.000 82 72 64
282.000 36.000 249.000 88 76 65
282.000 37.000 248.000 84 72 63
282.000 37.000 249.000 88 75 63
282.000 36.000 250.000 90 76 64
282.000 36.000 251.000 88 73 61
282.000 37.000 250.000 91 77 64
283.000 36.000 251.000 89 73 60
283.000 37.000 250.000 95 79 66
283.000 37.000 251.000 94 76 63
282.000 38.000 248.000 83 71 61
282.000 38.000 249.000 89 76 64
282.000 39.000 248.000 83 70 60
283.000 38.000 248.000 86 73 62
283.000 38.000 249.000 92 78 67
283.000 39.000 248.000 88 74 63
283.000 39.000 249.000 94 79 68
283.000 38.000 250.000 98 82 70
283.000 38.000 251.000 99 81 68
283.000 39.000 250.000 99 83 72
282.000 36.000 252.000 87 71 60
283.000 36.000 252.000 88 70 60
283.000 36.000 253.000 87 70 60
283.000 37.000 252.000 91 72 60
283.000 36.000 254.000 86 69 58
283.000 36.000 255.000 87 71 59
284.000 38.000 251.000 103 85 72
284.000 39.000 250.000 102 85 74
284.000 39.000 251.000 108 89 77
285.000 39.000 251.000 109 89 76
284.000 37.000 252.000 91 72 60
284.000 37.000 253.000 90 71 60
284.000 36.000 254.000 88 71 59
284.000 36.000 255.000 89 72 60
284.000 37.000 254.000 90 72 60
284.000 37.000 255.000 91 73 60
285.000 37.000 254.000 92 73 60
285.000 37.000 255.000 94 75 61
284.000 38.000 252.000 98 78 66
284.000 38.000 253.000 93 74 61
284.000 39.000 252.000 107 87 75
285.000 38.000 253.000 96 75 62
285.000 39.000 252.000 105 85 71
285.000 39.000 253.000 101 80 65
284.000 38.000 254.000 92 73 60
285.000 38.000 254.000 95 75 60
285.000 38.000 255.000 95 76 61
285.000 39.000 254.000 98 77 62
286.000 39.000 253.000 101 80 65
286.000 38.000 255.000 98 78 63
286.000 39.000 254.000 99 77 63
286.000 39.000 255.000 100 79 63
282.000 40.000 244.000 77 67 58
282.000 40.000 245.000 76 66 57
282.000 41.000 244.000 81 70 63
283.000 40.000 245.000 79 68 60
283.000 41.000 244.000 81 70 62
283.000 41.000 245.000 81 69 60
282.000 40.000 246.000 79 68 60
283.000 40.000 246.000 82 71 63
283.000 40.000 247.000 86 74 66
283.000 41.000 246.000 83 70 62
283.000 41.000 247.000 88 73 65
283.000 42.000 244.000 82 70 61
283.000 42.000 245.000 81 68 59
284.000 41.000 246.000 85 71 63
284.000 41.000 247.000 87 73 64
284.000 42.000 244.000 84 70 61
284.000 42.000 245.000 83 70 61
284.000 43.000 244.000 87 73 63
284.000 43.000 245.000 87 72 63
285.000 43.000 245.000 89 74 64
284.000 42.000 246.000 86 72 62
284.000 42.000 247.000 88 74 64
285.000 42.000 247.000 91 76 66
285.000 43.000 246.000 90 75 65
285.000 43.000 247.000 94 79 68
284.000 44.000 244.000 89 74 64
285.000 44.000 244.000 91 75 65
285.000 44.000 245.000 91 75 64
285.000 45.000 244.000 95 78 67
285.000 45.000 245.000 94 77 66
285.000 44.000 246.000 93 76 65
285.000 44.000 247.000 95 78 67
286.000 45.000 244.000 99 81 69
286.000 45.000 245.000 98 79 67
286.000 44.000 246.000 95 78 66
286.000 44.000 247.000 98 80 68
286.000 45.000 246.000 99 80 67
286.000 45.000 247.000 101 82 69
287.000 45.000 247.000 104 83 70
286.000 46.000 245.000 102 82 70
287.000 46.000 245.000 104 83 71
287.000 47.000 245.000 106 84 71
287.000 46.000 246.000 104 82 69
287.000 46.000 247.000 105 84 70
287.000 47.000 246.000 105 84 70
283.000 40.000 248.000 91 76 67
284.000 40.000 248.000 93 77 67
284.000 40.000 249.000 95 78 66
284.000 41.000 248.000 93 77 67
284.000 41.000 249.000 97 79 66
285.000 41.000 249.000 98 80 67
284.000 40.000 250.000 102 84 72
284.000 40.000 251.000 108 90 77
285.000 40.000 251.000 110 91 78
285.000 41.000 250.000 101 82 68
285.000 41.000 251.000 108 88 76
284.000 42.000 248.000 93 77 67
285.000 42.000 248.000 96 80 69
285.000 42.000 249.000 100 82 69
285.000 43.000 248.000 98 82 70
286.000 41.000 251.000 110 89 75
286.000 42.000 249.000 102 83 70
286.000 43.000 248.000 101 83 71
286.000 43.000 249.000 103 84 71
286.000 42.000 250.000 103 83 68
286.000 42.000 251.000 108 87 73
286.000 43.000 250.000 103 82 68
287.000 42.000 251.000 109 88 74
287.000 43.000 250.000 103 82 67
287.000 43.000 251.000 106 85 70
285.000 40.000 252.000 110 89 75
286.000 40.000 252.000 109 87 73
286.000 40.000 253.000 105 83 69
286.000 41.000 252.000 112 90 76
287.000 41.000 252.000 111 89 75
287.000 41.000 253.000 110 86 72
286.000 40.000 254.000 102 80 65
287.000 40.000 254.000 103 80 66
287.000 40.000 255.000 104 81 66
287.000 41.000 254.000 106 82 67
287.000 42.000 252.000 112 89 75
286.000 44.000 248.000 102 84 72
286.000 44.000 249.000 105 85 73
286.000 45.000 248.000 104 85 73
287.000 44.000 248.000 105 86 74
287.000 44.000 249.000 105 85 72
287.000 45.000 248.000 106 86 74
287.000 45.000 249.000 107 86 74
287.000 44.000 250.000 104 82 69
287.000 46.000 248.000 107 86 73
288.000 47.000 245.000 107 85 71
288.000 46.000 247.000 106 84 70
288.000 47.000 246.000 106 84 71
288.000 47.000 247.000 107 85 71
288.000 43.000 251.000 109 86 72
289.000 43.000 251.000 111 88 75
288.000 41.000 253.000 110 86 70
288.000 40.000 255.000 107 84 69
288.000 41.000 254.000 108 84 69
288.000 41.000 255.000 108 84 68
289.000 41.000 255.000 110 86 71
288.000 42.000 252.000 112 88 74
288.000 42.000 253.000 111 87 71
288.000 43.000 252.000 112 89 75
289.000 42.000 253.000 112 88 72
289.000 43.000 252.000 112 89 75
289.000 43.000 253.000 113 89 74
288.000 42.000 254.000 109 85 70
289.000 42.000 254.000 111 87 71
289.000 42.000 255.000 112 88 72
289.000 43.000 254.000 112 88 73
290.000 43.000 253.000 113 90 75
290.000 42.000 255.000 115 91 75
290.000 43.000 254.000 115 90 75
290.000 43.000 255.000 116 92 76
291.000 43.000 254.000 117 93 77
291.000 43.000 255.000 118 94 78
288.000 45.000 248.000 107 86 74
288.000 45.000 249.000 106 85 73
289.000 45.000 249.000 105 83 73
288.000 44.000 250.000 103 80 67
288.000 44.000 251.000 104 81 68
288.000 45.000 250.000 104 83 71
289.000 44.000 251.000 108 85 72
289.000 45.000 250.000 103 79 68
289.000 45.000 251.000 103 80 67
288.000 46.000 248.000 107 85 73
288.000 47.000 248.000 107 85 72
289.000 46.000 248.000 106 84 73
289.000 46.000 249.000 105 84 73
289.000 47.000 248.000 106 85 73
289.000 46.000 250.000 103 81 70
290.000 45.000 250.000 100 77 64
290.000 45.000 251.000 107 86 71
291.000 45.000 251.000 111 91 76
290.000 46.000 249.000 102 80 69
290.000 47.000 249.000 103 82 71
291.000 47.000 249.000 100 79 67
290.000 46.000 250.000 99 77 62
291.000 46.000 250.000 100 79 63
291.000 46.000 251.000 107 86 71
291.000 47.000 250.000 98 76 62
289.000 44.000 252.000 111 89 75
290.000 44.000 252.000 113 91 76
290.000 44.000 253.000 114 91 75
290.000 45.000 252.000 113 91 76
291.000 44.000 252.000 115 93 77
291.000 44.000 253.000 117 93 76
291.000 45.000 252.000 114 93 77
291.000 44.000 254.000 118 94 78
292.000 43.000 255.000 121 96 80
292.000 46.000 250.000 107 87 72
292.000 46.000 251.000 112 92 77
292.000 47.000 250.000 102 81 67
293.000 46.000 251.000 114 93 79
293.000 47.000 250.000 111 90 77
294.000 46.000 251.000 117 93 79
294.000 47.000 250.000 114 93 80
294.000 47.000 251.000 116 94 80
295.000 46.000 251.000 118 93 79
295.000 47.000 250.000 116 93 78
295.000 47.000 251.000 117 93 78
292.000 44.000 253.000 118 94 77
292.000 45.000 252.000 117 94 78
292.000 45.000 253.000 119 94 77
293.000 45.000 252.000 119 94 78
293.000 45.000 253.000 120 95 78
292.000 44.000 254.000 121 95 79
292.000 44.000 255.000 122 97 81
293.000 44.000 254.000 122 96 80
293.000 44.000 255.000 123 98 82
292.000 46.000 252.000 116 94 79
293.000 46.000 252.000 117 94 78
294.000 45.000 252.000 119 94 77
294.000 45.000 253.000 120 94 78
295.000 45.000 252.000 119 92 77
295.000 45.000 253.000 119 92 77
294.000 44.000 254.000 122 95 80
294.000 44.000 255.000 122 96 81
294.000 45.000 254.000 122 95 80
295.000 44.000 254.000 120 93 79
295.000 44.000 255.000 120 94 79
295.000 45.000 254.000 120 92 79
294.000 46.000 252.000 118 93 78
295.000 46.000 252.000 118 92 77
301.000 47.000 247.000 119 91 78
302.000 47.000 247.000 117 89 76
303.000 46.000 247.000 116 88 75
303.000 47.000 246.000 114 86 74
303.000 47.000 247.000 116 88 76
296.000 43.000 255.000 120 93 79
297.000 43.000 255.000 119 92 78
298.000 43.000 255.000 119 93 78
299.000 43.000 255.000 118 91 76
296.000 47.000 249.000 119 93 77
297.000 47.000 249.000 119 93 75
296.000 46.000 251.000 118 91 76
296.000 47.000 250.000 117 92 76
296.000 47.000 251.000 118 92 77
297.000 46.000 251.000 119 91 76
297.000 47.000 250.000 119 92 76
299.000 45.000 251.000 118 90 77
298.000 47.000 249.000 119 93 75
299.000 47.000 248.000 119 91 76
299.000 47.000 249.000 120 92 76
298.000 46.000 250.000 118 91 74
298.000 46.000 251.000 118 91 76
298.000 47.000 250.000 119 92 74
299.000 46.000 250.000 119 92 77
299.000 46.000 251.000 118 89 77
299.000 47.000 250.000 120 93 77
296.000 45.000 252.000 120 93 78
296.000 45.000 253.000 119 93 78
297.000 45.000 252.000 119 93 78
297.000 45.000 253.000 119 93 78
296.000 44.000 254.000 118 91 77
296.000 44.000 255.000 119 92 78
296.000 45.000 254.000 119 92 77
297.000 44.000 254.000 118 92 77
297.000 44.000 255.000 118 92 77
296.000 46.000 252.000 119 92 77
297.000 46.000 252.000 119 92 77
298.000 44.000 253.000 118 91 76
298.000 45.000 252.000 119 92 78
298.000 45.000 253.000 119 92 77
299.000 44.000 253.000 116 89 74
299.000 45.000 252.000 117 89 75
299.000 45.000 253.000 117 90 75
298.000 44.000 254.000 118 91 77
298.000 44.000 255.000 118 91 76
299.000 44.000 254.000 117 90 75
301.000 43.000 253.000 116 91 76
300.000 42.000 255.000 119 92 77
300.000 43.000 254.000 117 91 76
300.000 43.000 255.000 117 92 76
301.000 42.000 255.000 120 95 80
301.000 43.000 254.000 117 92 77
301.000 43.000 255.000 119 94 79
303.000 41.000 255.000 120 93 79
302.000 43.000 253.000 116 91 77
303.000 43.000 252.000 115 89 76
303.000 43.000 253.000 115 89 76
302.000 42.000 255.000 121 96 82
302.000 43.000 254.000 118 93 78
302.000 43.000 255.000 120 95 81
303.000 42.000 254.000 117 90 77
303.000 42.000 255.000 119 93 79
303.000 43.000 254.000 116 91 77
300.000 45.000 251.000 117 90 75
301.000 44.000 251.000 115 89 75
301.000 45.000 250.000 118 91 77
301.000 45.000 251.000 116 90 75
300.000 46.000 249.000 121 93 79
300.000 47.000 248.000 120 92 77
300.000 47.000 249.000 120 92 77
301.000 46.000 248.000 121 93 80
301.000 46.000 249.000 121 93 80
301.000 47.000 248.000 120 92 78
300.000 46.000 250.000 120 93 79
300.000 46.000 251.000 118 90 77
301.000 46.000 250.000 121 92 79
302.000 45.000 249.000 119 90 77
303.000 45.000 248.000 117 88 74
303.000 45.000 249.000 117 89 75
302.000 44.000 251.000 115 89 75
302.000 45.000 250.000 118 90 76
302.000 45.000 251.000 116 90 76
303.000 44.000 250.000 116 89 74
303.000 44.000 251.000 116 89 76
303.000 45.000 250.000 117 89 75
302.000 46.000 248.000 120 91 78
302.000 46.000 249.000 120 91 79
302.000 47.000 248.000 119 90 77
303.000 46.000 248.000 117 89 75
303.000 46.000 249.000 119 90 77
300.000 44.000 252.000 116 88 73
300.000 44.000 253.000 115 89 74
300.000 45.000 252.000 116 88 73
301.000 44.000 252.000 115 88 73
301.000 44.000 253.000 116 90 74
300.000 44.000 254.000 116 90 75
302.000 44.000 252.000 115 89 75
302.000 44.000 253.000 116 91 77
303.000 44.000 252.000 115 89 76
288.000 48.000 245.000 107 85 72
289.000 48.000 245.000 107 85 72
289.000 49.000 245.000 107 85 71
288.000 48.000 246.000 107 85 72
289.000 48.000 246.000 107 85 72
289.000 48.000 247.000 106 85 71
289.000 49.000 246.000 106 84 70
289.000 50.000 245.000 106 84 71
290.000 48.000 247.000 106 85 71
290.000 49.000 246.000 104 83 68
290.000 49.000 247.000 105 84 70
291.000 49.000 247.000 106 85 72
290.000 50.000 245.000 103 82 68
291.000 50.000 245.000 101 80 67
291.000 51.000 245.000 100 81 68
290.000 50.000 246.000 103 82 67
291.000 50.000 246.000 103 83 68
291.000 50.000 247.000 105 85 71
292.000 51.000 245.000 99 80 68
292.000 50.000 246.000 104 84 71
292.000 50.000 247.000 106 86 73
292.000 51.000 246.000 103 84 72
292.000 51.000 247.000 106 86 74
293.000 50.000 247.000 104 84 73
293.000 51.000 246.000 104 85 73
293.000 51.000 247.000 103 84 72
294.000 51.000 247.000 101 81 70
295.000 50.000 247.000 95 74 61
295.000 51.000 247.000 95 76 64
292.000 52.000 245.000 97 80 68
293.000 52.000 245.000 96 79 69
293.000 53.000 245.000 89 75 66
293.000 52.000 246.000 103 84 73
294.000 52.000 245.000 98 82 72
294.000 53.000 244.000 90 77 69
294.000 53.000 245.000 95 80 72
295.000 53.000 245.000 94 80 72
294.000 52.000 246.000 100 82 71
295.000 52.000 246.000 97 78 69
295.000 53.000 246.000 96 78 69
295.000 54.000 244.000 91 81 75
295.000 54.000 245.000 91 79 71
290.000 48.000 248.000 105 85 72
291.000 48.000 248.000 104 84 72
291.000 48.000 249.000 102 81 70
291.000 49.000 248.000 105 85 73
292.000 48.000 248.000 101 80 68
292.000 48.000 249.000 98 77 63
292.000 49.000 248.000 103 83 71
293.000 48.000 249.000 100 78 64
293.000 49.000 248.000 99 76 65
293.000 49.000 249.000 97 75 63
293.000 48.000 250.000 107 86 73
292.000 50.000 248.000 105 85 74
293.000 50.000 248.000 101 81 70
294.000 48.000 249.000 104 83 70
294.000 49.000 248.000 98 76 63
294.000 49.000 249.000 99 77 65
295.000 48.000 249.000 109 88 75
295.000 49.000 248.000 101 80 67
294.000 48.000 250.000 111 90 77
295.000 48.000 250.000 114 92 78
294.000 50.000 248.000 98 77 65
295.000 50.000 248.000 96 76 63
297.000 49.000 247.000 108 87 72
296.000 50.000 247.000 96 77 63
296.000 51.000 246.000 90 71 60
296.000 51.000 247.000 92 73 61
297.000 50.000 247.000 99 79 64
297.000 51.000 246.000 94 75 64
297.000 51.000 247.000 95 76 63
298.000 48.000 247.000 116 92 78
298.000 49.000 247.000 111 88 73
299.000 48.000 247.000 117 91 77
299.000 49.000 246.000 111 87 73
299.000 49.000 247.000 115 90 75
299.000 51.000 245.000 96 77 65
298.000 50.000 246.000 102 80 66
298.000 50.000 247.000 104 82 67
298.000 51.000 246.000 96 77 65
299.000 50.000 246.000 105 82 68
299.000 51.000 246.000 98 77 63
296.000 53.000 245.000 91 74 67
297.000 53.000 245.000 81 64 57
296.000 52.000 246.000 90 70 61
296.000 53.000 246.000 90 72 64
297.000 52.000 246.000 86 68 59
297.000 53.000 246.000 82 64 56
296.000 54.000 245.000 89 76 70
296.000 55.000 245.000 86 76 72
297.000 54.000 245.000 83 69 64
297.000 55.000 244.000 93 85 82
297.000 55.000 245.000 88 77 73
298.000 52.000 245.000 88 72 63
298.000 53.000 245.000 80 65 57
299.000 52.000 245.000 90 74 65
299.000 53.000 245.000 82 68 59
298.000 52.000 246.000 90 74 64
298.000 54.000 245.000 82 66 61
298.000 55.000 244.000 97 88 86
298.000 55.000 245.000 90 78 74
299.000 54.000 245.000 83 69 63
299.000 55.000 244.000 98 88 85
299.000 55.000 245.000 92 79 76
301.000 49.000 245.000 111 85 72
300.000 48.000 246.000 116 90 77
300.000 48.000 247.000 118 90 76
300.000 49.000 246.000 113 88 75
301.000 48.000 246.000 116 89 76
301.000 48.000 247.000 118 90 76
301.000 49.000 246.000 114 88 75
300.000 50.000 245.000 107 84 71
300.000 51.000 245.000 100 80 68
301.000 50.000 245.000 108 84 72
301.000 51.000 245.000 103 82 71
300.000 50.000 246.000 108 85 72
302.000 48.000 245.000 113 85 72
302.000 49.000 245.000 111 85 72
303.000 48.000 245.000 111 83 70
303.000 49.000 244.000 107 82 70
303.000 49.000 245.000 109 82 70
302.000 48.000 246.000 114 87 74
303.000 48.000 246.000 113 86 73
302.000 50.000 245.000 109 85 74
302.000 51.000 244.000 105 83 73
303.000 50.000 244.000 108 84 73
303.000 50.000 245.000 109 84 73
303.000 51.000 244.000 104 82 73
303.000 55.000 243.000 94 85 79
300.000 52.000 245.000 89 73 62
300.000 53.000 245.000 82 67 58
301.000 52.000 244.000 94 75 64
301.000 52.000 245.000 90 73 61
301.000 53.000 244.000 84 70 59
301.000 53.000 245.000 84 68 57
300.000 54.000 244.000 88 77 72
300.000 54.000 245.000 84 72 66
300.000 55.000 244.000 96 85 81
301.000 54.000 244.000 88 77 70
301.000 55.000 244.000 96 85 80
302.000 52.000 244.000 94 76 65
302.000 53.000 244.000 86 71 60
303.000 52.000 244.000 95 76 66
303.000 53.000 244.000 90 74 64
302.000 54.000 244.000 90 78 70
302.000 55.000 244.000 95 85 80
303.000 54.000 244.000 92 80 71
303.000 55.000 244.000 94 84 78
296.000 48.000 248.000 114 92 79
296.000 48.000 249.000 115 92 79
296.000 49.000 248.000 105 84 71
297.000 48.000 248.000 116 93 77
297.000 48.000 249.000 118 92 75
297.000 49.000 248.000 111 90 76
296.000 50.000 248.000 96 76 63
298.000 48.000 248.000 117 92 76
299.000 48.000 248.000 119 92 78
300.000 48.000 248.000 119 92 78
297.000 56.000 244.000 95 88 85
298.000 56.000 244.000 99 92 89
299.000 56.000 244.000 100 92 89
301.000 57.000 243.000 88 80 77
302.000 56.000 243.000 92 85 81
302.000 57.000 243.000 81 74 70
303.000 56.000 243.000 89 81 78
303.000 57.000 243.000 79 72 67
300.000 56.000 244.000 98 90 86
300.000 57.000 244.000 98 91 87
301.000 56.000 244.000 96 88 83
302.000 56.000 244.000 95 86 82
305.000 45.000 247.000 114 87 74
304.000 47.000 245.000 110 83 70
305.000 47.000 245.000 110 84 71
304.000 46.000 246.000 112 84 72
304.000 46.000 247.000 114 86 75
304.000 47.000 246.000 111 83 70
305.000 46.000 246.000 112 86 73
305.000 46.000 247.000 114 86 75
305.000 47.000 246.000 110 83 70
306.000 45.000 246.000 115 88 77
306.000 45.000 247.000 115 89 77
306.000 46.000 245.000 112 86 74
306.000 47.000 245.000 111 85 73
307.000 47.000 245.000 111 86 74
306.000 46.000 246.000 113 87 75
307.000 46.000 246.000 114 88 76
304.000 43.000 251.000 116 89 75
305.000 43.000 250.000 117 90 76
305.000 43.000 251.000 116 89 74
306.000 43.000 250.000 118 91 77
306.000 43.000 251.000 117 90 76
304.000 41.000 255.000 118 90 77
305.000 40.000 255.000 121 92 78
305.000 41.000 254.000 117 88 75
305.000 41.000 255.000 119 90 77
304.000 42.000 253.000 113 86 73
304.000 43.000 252.000 114 87 74
304.000 43.000 253.000 113 86 73
305.000 42.000 252.000 114 87 73
305.000 42.000 253.000 114 87 73
305.000 43.000 252.000 114 87 73
304.000 42.000 254.000 116 88 76
305.000 42.000 254.000 115 87 74
306.000 41.000 254.000 118 89 76
306.000 41.000 255.000 120 91 78
306.000 42.000 252.000 115 88 73
306.000 42.000 253.000 115 87 73
304.000 44.000 249.000 117 88 74
304.000 45.000 248.000 115 86 72
304.000 45.000 249.000 117 88 73
305.000 44.000 248.000 116 88 74
305.000 44.000 249.000 117 89 75
305.000 45.000 248.000 114 87 73
304.000 44.000 250.000 116 88 73
304.000 44.000 251.000 116 89 75
305.000 44.000 250.000 117 89 75
304.000 46.000 248.000 114 86 73
306.000 44.000 248.000 116 89 76
306.000 44.000 249.000 117 90 77
306.000 45.000 248.000 116 89 77
305.000 51.000 243.000 98 80 70
306.000 50.000 243.000 103 84 73
306.000 51.000 243.000 97 79 68
307.000 50.000 243.000 103 84 73
307.000 51.000 243.000 95 78 67
304.000 48.000 245.000 109 83 70
304.000 49.000 244.000 106 81 69
305.000 48.000 244.000 108 84 71
305.000 48.000 245.000 109 83 70
305.000 49.000 244.000 106 84 72
304.000 50.000 244.000 105 83 72
304.000 51.000 244.000 102 82 72
305.000 50.000 244.000 103 83 72
305.000 51.000 244.000 100 82 71
306.000 48.000 244.000 109 85 74
306.000 48.000 245.000 110 85 72
306.000 49.000 244.000 107 86 74
307.000 49.000 244.000 109 88 77
306.000 50.000 244.000 104 84 74
305.000 52.000 243.000 92 76 65
305.000 53.000 243.000 92 79 69
304.000 54.000 243.000 94 83 75
304.000 55.000 243.000 94 84 77
305.000 54.000 243.000 95 83 75
305.000 55.000 242.000 91 81 73
305.000 55.000 243.000 94 83 76
306.000 52.000 243.000 91 76 65
306.000 53.000 243.000 93 80 71
307.000 52.000 243.000 89 74 63
307.000 53.000 243.000 94 82 73
306.000 54.000 243.000 96 85 77
306.000 55.000 242.000 91 80 72
306.000 55.000 243.000 94 83 76
307.000 54.000 242.000 94 84 77
307.000 54.000 243.000 95 84 77
304.000 52.000 244.000 94 76 65
304.000 53.000 244.000 92 77 67
305.000 52.000 244.000 96 78 68
304.000 54.000 244.000 94 82 74
304.000 56.000 242.000 77 68 64
304.000 56.000 243.000 89 80 76
305.000 56.000 242.000 80 71 66
281.000 29.000 256.000 70 61 55
281.000 29.000 257.000 70 61 55
281.000 29.000 258.000 70 61 54
281.000 29.000 259.000 70 61 54
281.000 30.000 256.000 71 61 54
281.000 30.000 257.000 71 61 54
281.000 31.000 256.000 73 62 55
281.000 31.000 257.000 73 62 55
281.000 30.000 258.000 71 61 54
281.000 30.000 259.000 71 61 54
281.000 31.000 258.000 73 62 55
281.000 31.000 259.000 74 63 55
281.000 29.000 260.000 71 61 54
281.000 30.000 260.000 72 62 54
281.000 30.000 261.000 73 63 54
281.000 31.000 260.000 74 63 54
281.000 31.000 261.000 75 64 56
281.000 30.000 262.000 74 63 55
281.000 31.000 262.000 76 65 56
282.000 31.000 262.000 77 65 56
282.000 31.000 263.000 77 65 57
282.000 31.000 264.000 78 66 57
282.000 31.000 265.000 79 67 58
282.000 31.000 266.000 80 67 59
283.000 31.000 267.000 82 69 60
281.000 32.000 256.000 74 63 56
281.000 32.000 257.000 74 63 56
281.000 33.000 256.000 76 64 55
281.000 33.000 257.000 76 63 56
281.000 32.000 258.000 75 63 56
281.000 32.000 259.000 76 64 56
281.000 33.000 258.000 77 64 56
281.000 33.000 259.000 77 65 57
282.000 33.000 257.000 78 65 56
282.000 33.000 258.000 79 65 57
282.000 33.000 259.000 80 66 57
282.000 34.000 256.000 80 66 56
282.000 34.000 257.000 81 67 57
283.000 35.000 256.000 86 70 59
283.000 35.000 257.000 87 71 60
282.000 34.000 258.000 82 67 58
282.000 34.000 259.000 83 68 58
283.000 34.000 258.000 84 69 58
283.000 34.000 259.000 86 70 60
283.000 35.000 258.000 88 72 60
283.000 35.000 259.000 89 72 60
281.000 32.000 260.000 77 65 57
282.000 32.000 260.000 78 66 57
282.000 32.000 261.000 78 66 57
282.000 33.000 260.000 80 67 58
282.000 33.000 261.000 81 68 59
283.000 33.000 260.000 83 69 60
283.000 33.000 261.000 84 70 60
282.000 32.000 262.000 79 66 58
282.000 32.000 263.000 79 67 58
282.000 33.000 262.000 80 67 59
283.000 33.000 262.000 84 70 61
283.000 33.000 263.000 83 69 60
283.000 34.000 260.000 87 71 61
283.000 34.000 261.000 88 72 62
283.000 35.000 260.000 90 73 61
283.000 34.000 262.000 88 72 61
284.000 35.000 259.000 93 75 63
284.000 35.000 260.000 93 76 64
284.000 35.000 261.000 94 76 65
284.000 34.000 262.000 91 74 63
284.000 34.000 263.000 91 73 63
284.000 35.000 262.000 94 76 65
285.000 35.000 262.000 98 79 67
285.000 35.000 263.000 97 78 66
284.000 36.000 256.000 90 73 61
284.000 36.000 257.000 92 74 61
284.000 37.000 256.000 93 75 62
284.000 37.000 257.000 95 77 63
285.000 37.000 256.000 96 77 64
285.000 37.000 257.000 99 80 66
284.000 36.000 258.000 93 76 62
284.000 36.000 259.000 96 78 64
285.000 36.000 259.000 99 79 66
285.000 37.000 258.000 100 81 67
285.000 37.000 259.000 102 82 68
285.000 38.000 256.000 98 78 64
286.000 37.000 258.000 104 84 70
286.000 37.000 259.000 106 85 71
286.000 38.000 256.000 100 80 65
286.000 38.000 257.000 104 85 70
286.000 39.000 256.000 103 82 66
286.000 39.000 257.000 106 85 70
287.000 39.000 256.000 105 84 68
287.000 39.000 257.000 109 88 72
286.000 38.000 258.000 108 88 72
286.000 38.000 259.000 109 87 72
287.000 38.000 258.000 112 90 75
287.000 38.000 259.000 113 91 75
287.000 39.000 258.000 112 91 75
287.000 39.000 259.000 115 92 76
284.000 36.000 260.000 97 79 67
284.000 36.000 261.000 98 80 67
285.000 36.000 260.000 100 81 68
285.000 36.000 261.000 100 81 69
285.000 37.000 260.000 102 82 69
285.000 36.000 262.000 100 80 68
285.000 36.000 263.000 99 79 67
286.000 36.000 261.000 104 84 71
286.000 37.000 260.000 107 86 72
286.000 37.000 261.000 108 86 73
287.000 37.000 261.000 113 90 76
286.000 36.000 262.000 104 83 71
286.000 36.000 263.000 105 84 71
286.000 37.000 262.000 108 86 73
287.000 37.000 262.000 112 89 75
287.000 37.000 263.000 111 88 75
286.000 38.000 260.000 110 89 74
287.000 38.000 260.000 114 91 76
287.000 38.000 261.000 115 92 77
282.000 32.000 264.000 80 67 58
282.000 32.000 265.000 81 68 59
283.000 32.000 265.000 83 69 59
283.000 33.000 264.000 85 70 60
283.000 33.000 265.000 85 70 61
282.000 32.000 266.000 81 68 59
283.000 32.000 266.000 83 69 60
283.000 32.000 267.000 86 71 61
283.000 33.000 266.000 86 71 61
284.000 33.000 265.000 89 73 63
284.000 33.000 266.000 90 73 63
284.000 33.000 267.000 90 73 63
284.000 34.000 264.000 91 75 64
284.000 34.000 265.000 92 74 63
285.000 34.000 265.000 95 76 65
285.000 35.000 264.000 97 78 66
285.000 35.000 265.000 97 78 66
284.000 34.000 266.000 93 75 64
285.000 34.000 266.000 96 77 66
285.000 34.000 267.000 96 77 66
286.000 35.000 264.000 102 81 69
286.000 35.000 265.000 102 82 70
286.000 34.000 267.000 100 80 69
286.000 35.000 266.000 102 81 69
286.000 35.000 267.000 102 82 70
287.000 35.000 266.000 105 85 72
287.000 35.000 267.000 107 86 74
284.000 32.000 268.000 89 73 62
284.000 33.000 268.000 91 74 64
284.000 33.000 269.000 93 75 64
285.000 33.000 268.000 94 76 65
285.000 33.000 269.000 96 77 66
285.000 33.000 270.000 96 77 66
285.000 33.000 271.000 98 79 68
285.000 34.000 268.000 97 78 67
286.000 33.000 269.000 100 81 69
286.000 33.000 270.000 100 81 69
286.000 33.000 271.000 101 82 71
286.000 34.000 268.000 102 82 70
286.000 34.000 269.000 103 83 71
286.000 35.000 268.000 106 86 74
287.000 34.000 269.000 107 87 75
287.000 35.000 268.000 108 88 75
287.000 35.000 269.000 108 87 75
286.000 34.000 270.000 104 85 73
287.000 34.000 270.000 106 86 74
287.000 34.000 271.000 105 84 72
286.000 36.000 264.000 105 83 71
286.000 36.000 265.000 104 83 71
287.000 36.000 264.000 109 87 74
287.000 36.000 265.000 108 86 73
287.000 37.000 264.000 111 88 75
287.000 36.000 266.000 109 87 75
287.000 36.000 267.000 110 89 77
287.000 40.000 256.000 108 86 70
286.000 33.000 272.000 102 82 71
286.000 33.000 273.000 101 82 71
287.000 33.000 272.000 103 83 71
287.000 33.000 273.000 102 82 71
287.000 33.000 274.000 101 81 70
287.000 34.000 272.000 104 83 71
288.000 39.000 258.000 117 94 78
288.000 39.000 259.000 118 95 78
289.000 39.000 259.000 122 98 80
288.000 37.000 263.000 114 90 75
288.000 38.000 260.000 118 95 79
288.000 38.000 261.000 119 95 81
288.000 39.000 260.000 119 96 79
288.000 39.000 261.000 121 97 82
289.000 38.000 261.000 122 99 85
289.000 39.000 260.000 122 98 81
289.000 39.000 261.000 123 99 83
288.000 38.000 262.000 117 93 79
288.000 38.000 263.000 115 91 77
289.000 38.000 262.000 120 96 81
289.000 38.000 263.000 118 93 79
289.000 39.000 262.000 122 97 82
290.000 39.000 261.000 121 96 80
291.000 39.000 261.000 119 94 78
290.000 38.000 263.000 118 93 79
290.000 39.000 262.000 120 94 80
291.000 38.000 263.000 117 93 78
291.000 39.000 262.000 119 94 79
291.000 39.000 263.000 118 93 78
292.000 39.000 261.000 119 95 80
293.000 39.000 261.000 119 95 81
292.000 38.000 263.000 118 93 79
292.000 39.000 262.000 119 94 80
292.000 39.000 263.000 118 94 80
293.000 38.000 263.000 119 94 80
293.000 39.000 262.000 119 95 81
293.000 39.000 263.000 119 94 80
294.000 39.000 261.000 119 94 81
295.000 39.000 261.000 117 91 78
294.000 39.000 262.000 119 93 80
294.000 39.000 263.000 118 92 78
295.000 38.000 263.000 118 91 77
295.000 39.000 262.000 118 91 78
295.000 39.000 263.000 118 91 77
288.000 35.000 268.000 109 88 76
288.000 35.000 269.000 107 85 73
289.000 35.000 269.000 105 83 71
288.000 34.000 271.000 104 83 71
288.000 35.000 270.000 105 84 71
288.000 35.000 271.000 104 83 71
289.000 35.000 270.000 105 83 70
289.000 35.000 271.000 104 82 70
290.000 35.000 270.000 105 83 71
290.000 35.000 271.000 105 83 71
291.000 35.000 271.000 108 85 73
288.000 36.000 265.000 111 89 76
288.000 37.000 264.000 113 90 76
288.000 37.000 265.000 112 89 75
289.000 37.000 264.000 116 92 78
289.000 37.000 265.000 114 90 76
288.000 36.000 266.000 112 90 77
288.000 36.000 267.000 111 89 77
289.000 36.000 267.000 111 89 75
289.000 37.000 266.000 112 90 76
289.000 37.000 267.000 112 89 75
289.000 38.000 264.000 117 93 78
290.000 37.000 265.000 114 90 76
290.000 37.000 266.000 113 89 75
290.000 37.000 267.000 112 88 74
291.000 37.000 266.000 114 90 76
291.000 37.000 267.000 114 89 76
290.000 38.000 264.000 117 92 78
290.000 38.000 265.000 115 91 77
291.000 38.000 264.000 117 92 78
291.000 38.000 265.000 115 91 77
288.000 36.000 268.000 110 88 75
288.000 36.000 269.000 108 87 74
289.000 36.000 268.000 110 88 75
289.000 36.000 269.000 107 86 73
290.000 36.000 268.000 111 88 75
290.000 36.000 269.000 109 87 75
290.000 37.000 268.000 111 88 75
291.000 36.000 269.000 111 87 74
291.000 37.000 268.000 113 89 76
291.000 37.000 269.000 112 88 75
290.000 36.000 270.000 107 84 72
290.000 36.000 271.000 106 84 71
291.000 36.000 270.000 109 86 73
291.000 36.000 271.000 109 86 73
295.000 35.000 271.000 117 92 78
292.000 37.000 266.000 116 92 78
292.000 37.000 267.000 116 92 78
293.000 37.000 266.000 118 94 80
293.000 37.000 267.000 118 94 79
292.000 38.000 264.000 118 93 79
292.000 38.000 265.000 117 93 79
293.000 38.000 264.000 119 94 80
293.000 38.000 265.000 119 95 80
292.000 38.000 266.000 116 92 78
293.000 38.000 266.000 118 94 80
294.000 37.000 266.000 120 96 81
294.000 37.000 267.000 121 96 82
295.000 37.000 266.000 120 95 80
295.000 37.000 267.000 121 95 82
294.000 38.000 264.000 120 94 80
294.000 38.000 265.000 120 95 80
295.000 38.000 264.000 119 93 79
295.000 38.000 265.000 119 94 78
292.000 36.000 269.000 113 88 75
292.000 37.000 268.000 115 90 76
292.000 37.000 269.000 113 89 75
293.000 36.000 269.000 117 92 78
293.000 37.000 268.000 118 93 78
293.000 37.000 269.000 117 92 78
292.000 36.000 270.000 112 88 74
292.000 36.000 271.000 112 88 75
293.000 36.000 270.000 116 91 77
293.000 36.000 271.000 114 90 76
294.000 36.000 269.000 119 93 79
294.000 37.000 268.000 120 94 80
294.000 37.000 269.000 119 93 79
295.000 36.000 269.000 119 92 78
295.000 37.000 268.000 120 94 80
295.000 37.000 269.000 119 93 79
294.000 36.000 270.000 118 93 79
294.000 36.000 271.000 117 92 78
295.000 36.000 270.000 118 92 79
295.000 36.000 271.000 118 92 78
288.000 40.000 256.000 110 87 72
288.000 40.000 257.000 113 91 75
288.000 41.000 256.000 110 87 72
289.000 40.000 257.000 117 94 78
289.000 41.000 256.000 113 90 74
289.000 41.000 257.000 117 94 77
288.000 40.000 258.000 118 96 80
289.000 40.000 258.000 122 99 82
289.000 40.000 259.000 123 100 82
289.000 41.000 258.000 122 98 81
289.000 42.000 256.000 114 90 74
290.000 41.000 257.000 120 96 79
290.000 40.000 259.000 124 100 82
290.000 41.000 258.000 123 99 82
291.000 40.000 259.000 123 98 83
291.000 41.000 258.000 123 99 83
291.000 41.000 259.000 124 100 84
290.000 42.000 256.000 116 92 76
290.000 42.000 257.000 118 95 77
291.000 42.000 256.000 119 94 77
291.000 42.000 257.000 120 96 79
291.000 43.000 256.000 119 94 78
291.000 42.000 258.000 122 98 82
289.000 40.000 260.000 124 100 82
290.000 40.000 260.000 122 98 80
290.000 40.000 261.000 121 96 79
291.000 40.000 260.000 122 96 80
291.000 40.000 261.000 120 94 79
292.000 41.000 258.000 121 96 81
292.000 41.000 259.000 120 96 81
293.000 41.000 258.000 118 93 78
293.000 41.000 259.000 118 93 79
292.000 42.000 257.000 120 96 79
292.000 43.000 256.000 121 95 79
292.000 43.000 257.000 120 95 79
293.000 42.000 257.000 119 94 78
293.000 43.000 256.000 121 96 80
293.000 43.000 257.000 120 95 79
292.000 42.000 258.000 120 95 79
293.000 42.000 258.000 118 93 77
294.000 41.000 258.000 118 92 78
294.000 41.000 259.000 119 93 79
295.000 41.000 258.000 118 91 77
295.000 41.000 259.000 118 92 78
294.000 42.000 257.000 118 92 76
294.000 43.000 256.000 121 95 80
294.000 43.000 257.000 119 93 77
295.000 42.000 257.000 117 90 75
295.000 43.000 256.000 120 93 79
295.000 43.000 257.000 118 91 77
294.000 42.000 258.000 117 91 76
295.000 42.000 258.000 118 90 76
292.000 40.000 260.000 120 95 80
292.000 40.000 261.000 119 95 80
293.000 40.000 260.000 118 94 79
293.000 40.000 261.000 119 95 81
294.000 40.000 260.000 119 93 80
294.000 40.000 261.000 119 93 81
295.000 40.000 260.000 118 92 78
295.000 40.000 261.000 118 91 77
296.000 39.000 261.000 117 90 75
297.000 39.000 261.000 119 93 77
296.000 38.000 263.000 117 92 76
296.000 39.000 262.000 117 90 76
296.000 39.000 263.000 117 91 76
297.000 38.000 263.000 120 95 80
297.000 39.000 262.000 119 91 77
297.000 39.000 263.000 119 93 79
298.000 39.000 261.000 121 94 79
299.000 39.000 261.000 123 96 82
298.000 38.000 263.000 120 93 78
298.000 39.000 262.000 120 93 78
299.000 38.000 262.000 122 95 78
299.000 38.000 263.000 122 95 79
299.000 39.000 262.000 122 95 80
302.000 39.000 259.000 120 92 78
303.000 39.000 258.000 123 95 80
303.000 39.000 259.000 123 95 80
300.000 39.000 260.000 121 92 78
300.000 39.000 261.000 122 95 81
301.000 39.000 260.000 119 90 76
301.000 39.000 261.000 122 92 78
300.000 38.000 262.000 125 97 81
300.000 38.000 263.000 124 97 82
300.000 39.000 262.000 124 96 81
301.000 38.000 262.000 124 95 80
301.000 38.000 263.000 124 97 82
301.000 39.000 262.000 123 94 79
302.000 37.000 263.000 124 97 83
303.000 37.000 263.000 124 97 84
302.000 38.000 261.000 122 93 78
302.000 39.000 260.000 121 92 77
302.000 39.000 261.000 122 93 78
303.000 38.000 260.000 124 95 80
303.000 38.000 261.000 122 93 78
303.000 39.000 260.000 123 95 80
302.000 38.000 262.000 124 94 81
302.000 38.000 263.000 125 97 83
303.000 38.000 262.000 123 95 81
303.000 38.000 263.000 125 97 84
296.000 35.000 271.000 117 91 77
297.000 35.000 271.000 117 91 76
298.000 35.000 271.000 116 90 75
299.000 35.000 270.000 117 90 75
299.000 35.000 271.000 116 90 75
296.000 37.000 265.000 119 94 78
297.000 37.000 265.000 121 96 80
296.000 37.000 266.000 119 94 79
296.000 37.000 267.000 121 95 81
297.000 37.000 266.000 121 95 80
297.000 37.000 267.000 121 95 81
296.000 38.000 264.000 118 92 77
296.000 38.000 265.000 118 93 77
297.000 38.000 264.000 119 94 79
297.000 38.000 265.000 120 95 80
298.000 37.000 265.000 121 96 82
299.000 37.000 265.000 122 95 81
298.000 37.000 266.000 121 95 80
298.000 37.000 267.000 122 95 81
299.000 37.000 266.000 121 94 80
299.000 37.000 267.000 121 94 79
298.000 38.000 264.000 121 95 80
298.000 38.000 265.000 121 96 82
299.000 38.000 264.000 123 96 82
299.000 38.000 265.000 122 96 82
296.000 36.000 269.000 120 93 79
296.000 37.000 268.000 120 94 80
297.000 36.000 268.000 123 97 84
297.000 36.000 269.000 122 96 83
297.000 37.000 268.000 123 97 83
296.000 36.000 270.000 119 92 79
296.000 36.000 271.000 117 91 78
297.000 36.000 270.000 119 93 79
297.000 36.000 271.000 117 91 77
298.000 36.000 268.000 124 97 84
298.000 36.000 269.000 122 95 82
298.000 37.000 268.000 123 97 83
299.000 36.000 268.000 122 95 81
299.000 36.000 269.000 120 93 79
298.000 36.000 270.000 118 92 77
299.000 36.000 270.000 118 90 75
301.000 35.000 269.000 121 94 79
300.000 35.000 270.000 119 92 76
300.000 35.000 271.000 118 90 75
301.000 35.000 270.000 120 93 79
301.000 35.000 271.000 119 91 76
302.000 35.000 269.000 121 94 79
303.000 35.000 269.000 119 92 77
302.000 35.000 270.000 122 94 80
302.000 35.000 271.000 120 92 77
303.000 35.000 270.000 120 93 78
303.000 35.000 271.000 121 92 78
300.000 37.000 264.000 122 95 80
300.000 37.000 265.000 121 94 79
301.000 37.000 264.000 122 95 80
301.000 37.000 265.000 119 91 76
300.000 36.000 267.000 120 93 79
300.000 37.000 266.000 120 93 79
300.000 37.000 267.000 120 93 79
301.000 36.000 266.000 119 92 78
301.000 36.000 267.000 119 93 78
301.000 37.000 266.000 119 92 78
300.000 38.000 264.000 123 97 82
301.000 38.000 264.000 123 96 80
302.000 37.000 264.000 122 94 79
302.000 37.000 265.000 118 90 75
303.000 36.000 265.000 119 91 77
303.000 37.000 264.000 122 95 80
303.000 37.000 265.000 120 92 78
302.000 36.000 266.000 118 91 77
302.000 36.000 267.000 119 92 78
303.000 36.000 266.000 118 91 77
303.000 36.000 267.000 118 91 78
300.000 36.000 268.000 120 93 78
300.000 36.000 269.000 119 92 77
301.000 36.000 268.000 119 92 77
301.000 36.000 269.000 119 92 77
300.000 36.000 270.000 119 91 76
302.000 36.000 268.000 119 92 78
302.000 36.000 269.000 119 93 77
303.000 36.000 268.000 118 91 77
303.000 36.000 269.000 118 91 77
296.000 40.000 259.000 118 91 76
296.000 41.000 258.000 118 91 77
296.000 41.000 259.000 118 91 77
297.000 40.000 259.000 120 93 78
297.000 41.000 258.000 119 92 78
297.000 41.000 259.000 119 92 77
296.000 42.000 257.000 119 92 78
296.000 43.000 256.000 120 93 80
297.000 42.000 256.000 121 94 80
297.000 42.000 257.000 121 94 80
297.000 43.000 256.000 120 93 79
296.000 42.000 258.000 119 92 78
297.000 42.000 258.000 121 94 81
299.000 41.000 257.000 121 94 80
298.000 40.000 259.000 121 94 80
298.000 41.000 258.000 120 94 79
298.000 41.000 259.000 121 94 80
299.000 40.000 259.000 122 95 81
299.000 41.000 258.000 121 94 79
298.000 42.000 256.000 121 94 79
298.000 42.000 257.000 121 95 80
298.000 43.000 256.000 120 94 79
299.000 42.000 256.000 120 93 78
299.000 42.000 257.000 121 94 79
299.000 43.000 256.000 120 93 79
296.000 40.000 260.000 118 92 77
296.000 40.000 261.000 118 91 76
297.000 40.000 260.000 119 92 77
297.000 40.000 261.000 119 92 77
298.000 40.000 260.000 121 94 79
298.000 40.000 261.000 121 94 79
299.000 40.000 260.000 123 96 82
300.000 41.000 257.000 120 92 78
301.000 41.000 256.000 120 93 79
301.000 41.000 257.000 120 93 79
300.000 40.000 258.000 120 93 77
300.000 40.000 259.000 122 94 79
300.000 41.000 258.000 120 92 78
301.000 40.000 258.000 119 91 76
301.000 40.000 259.000 119 91 76
301.000 41.000 258.000 120 92 78
300.000 42.000 256.000 120 93 78
300.000 42.000 257.000 120 93 79
301.000 42.000 256.000 120 93 79
302.000 41.000 256.000 121 94 81
302.000 41.000 257.000 121 93 79
303.000 40.000 257.000 121 92 78
303.000 41.000 256.000 121 94 80
303.000 41.000 257.000 121 93 79
302.000 40.000 258.000 119 90 76
302.000 40.000 259.000 119 90 76
303.000 40.000 258.000 122 93 79
302.000 42.000 256.000 121 94 81
300.000 40.000 260.000 122 94 80
288.000 33.000 273.000 102 81 70
288.000 32.000 275.000 99 79 68
288.000 33.000 274.000 101 81 69
289.000 33.000 274.000 102 81 69
288.000 34.000 272.000 103 82 70
288.000 34.000 273.000 103 81 70
289.000 34.000 272.000 103 82 70
289.000 34.000 273.000 103 81 69
289.000 35.000 272.000 104 82 70
289.000 34.000 274.000 102 81 69
290.000 33.000 275.000 102 81 69
290.000 34.000 273.000 104 82 70
290.000 35.000 272.000 106 83 71
290.000 35.000 273.000 105 83 71
291.000 34.000 273.000 106 83 70
291.000 35.000 272.000 108 85 73
291.000 35.000 273.000 107 84 71
290.000 34.000 274.000 103 82 70
290.000 34.000 275.000 102 82 70
291.000 34.000 274.000 105 83 70
291.000 34.000 275.000 104 83 70
291.000 33.000 276.000 102 82 70
292.000 35.000 272.000 111 88 75
292.000 35.000 273.000 109 86 73
293.000 35.000 272.000 114 89 76
293.000 35.000 273.000 111 87 74
292.000 34.000 274.000 107 85 72
292.000 34.000 275.000 105 84 72
293.000 34.000 274.000 109 86 74
293.000 34.000 275.000 107 85 73
293.000 35.000 274.000 110 86 74
294.000 35.000 272.000 116 91 77
294.000 35.000 273.000 114 89 76
295.000 35.000 272.000 116 90 76
295.000 35.000 273.000 114 89 75
294.000 34.000 274.000 111 87 74
294.000 34.000 275.000 109 86 74
294.000 35.000 274.000 111 87 74
295.000 34.000 274.000 112 88 74
295.000 34.000 275.000 111 87 74
292.000 33.000 276.000 103 82 71
293.000 33.000 276.000 104 83 71
296.000 35.000 272.000 115 89 75
296.000 35.000 273.000 114 88 74
297.000 35.000 272.000 116 89 75
297.000 35.000 273.000 114 89 74
296.000 34.000 274.000 113 88 75
296.000 34.000 275.000 112 87 75
297.000 34.000 274.000 113 88 75
297.000 34.000 275.000 113 88 75
298.000 35.000 272.000 116 90 76
298.000 35.000 273.000 115 89 75
299.000 34.000 273.000 114 89 75
299.000 35.000 272.000 116 90 76
299.000 35.000 273.000 115 89 75
298.000 34.000 274.000 113 87 74
298.000 34.000 275.000 112 87 74
299.000 34.000 274.000 114 88 74
299.000 34.000 275.000 112 87 73
300.000 34.000 273.000 115 89 75
300.000 35.000 272.000 116 90 75
300.000 35.000 273.000 115 88 74
301.000 34.000 273.000 115 88 74
301.000 35.000 272.000 118 90 75
301.000 35.000 273.000 116 89 74
300.000 34.000 274.000 114 89 75
300.000 34.000 275.000 113 88 74
301.000 34.000 274.000 115 89 75
301.000 34.000 275.000 114 88 74
302.000 34.000 273.000 116 89 74
302.000 35.000 272.000 119 90 76
302.000 35.000 273.000 117 89 74
303.000 34.000 273.000 117 89 75
303.000 35.000 272.000 119 90 76
303.000 35.000 273.000 118 89 75
302.000 34.000 274.000 115 88 74
302.000 34.000 275.000 114 88 74
303.000 34.000 274.000 116 89 75
303.000 34.000 275.000 115 89 75
304.000 39.000 257.000 121 91 77
305.000 39.000 257.000 121 91 76
304.000 38.000 259.000 123 93 79
304.000 39.000 258.000 123 93 79
304.000 39.000 259.000 123 94 80
305.000 39.000 258.000 121 93 78
305.000 39.000 259.000 123 94 80
304.000 37.000 262.000 123 95 82
304.000 37.000 263.000 122 94 80
305.000 37.000 262.000 120 92 78
305.000 37.000 263.000 118 90 76
304.000 38.000 260.000 123 93 80
304.000 38.000 261.000 122 93 78
305.000 38.000 260.000 122 92 78
305.000 38.000 261.000 121 91 77
304.000 38.000 262.000 123 94 80
304.000 35.000 268.000 117 89 76
304.000 35.000 269.000 117 89 75
304.000 35.000 270.000 119 90 75
304.000 35.000 271.000 119 90 75
304.000 36.000 265.000 119 92 77
304.000 37.000 264.000 120 92 78
304.000 37.000 265.000 119 92 78
305.000 36.000 265.000 118 91 76
305.000 37.000 264.000 118 90 74
304.000 36.000 266.000 119 92 79
304.000 36.000 267.000 117 90 77
305.000 36.000 266.000 118 92 77
305.000 36.000 267.000 118 90 77
304.000 36.000 268.000 118 90 76
304.000 40.000 256.000 121 91 77
304.000 40.000 257.000 121 91 77
304.000 41.000 256.000 120 91 77
305.000 40.000 256.000 121 91 77
305.000 40.000 257.000 121 90 76
306.000 40.000 256.000 122 92 78
304.000 35.000 272.000 119 89 75
304.000 34.000 274.000 116 90 76
304.000 34.000 275.000 115 89 75
