ply
format ascii 1.0
element vertex 1099
property float x
property float y
property float z
property uchar red
property uchar green
property uchar blue
end_header
319.000 627.000 226.000 62 66 70
319.000 631.000 241.000 77 77 83
318.000 631.000 242.000 75 76 81
319.000 631.000 242.000 77 77 83
319.000 631.000 243.000 77 78 84
326.000 618.000 203.000 73 79 87
326.000 619.000 203.000 73 79 88
325.000 617.000 205.000 81 87 95
325.000 618.000 205.000 73 80 88
325.000 619.000 205.000 71 77 85
324.000 619.000 207.000 74 80 89
325.000 618.000 206.000 76 83 92
325.000 619.000 206.000 72 79 87
325.000 619.000 207.000 74 80 88
326.000 616.000 204.000 78 83 91
326.000 616.000 205.000 83 87 95
326.000 617.000 204.000 75 80 87
326.000 617.000 205.000 79 83 90
326.000 618.000 204.000 71 77 85
326.000 618.000 205.000 72 77 85
326.000 619.000 204.000 68 74 82
326.000 619.000 205.000 69 74 82
326.000 620.000 202.000 74 80 88
326.000 620.000 203.000 72 77 85
326.000 621.000 202.000 73 78 86
326.000 621.000 203.000 70 75 82
326.000 622.000 201.000 73 78 86
326.000 623.000 201.000 74 79 86
326.000 622.000 202.000 72 77 84
326.000 622.000 203.000 71 76 83
326.000 623.000 202.000 75 80 88
326.000 623.000 203.000 74 79 86
325.000 620.000 206.000 69 74 82
325.000 620.000 207.000 69 74 82
325.000 621.000 207.000 65 70 77
326.000 620.000 204.000 68 73 81
326.000 620.000 205.000 67 72 80
326.000 621.000 204.000 68 73 80
326.000 621.000 205.000 65 70 77
326.000 620.000 206.000 68 73 80
326.000 621.000 206.000 66 71 78
326.000 621.000 207.000 65 70 76
326.000 622.000 204.000 67 72 79
326.000 622.000 205.000 64 69 76
326.000 623.000 204.000 69 73 80
326.000 623.000 205.000 66 71 78
326.000 622.000 206.000 63 68 75
326.000 622.000 207.000 63 69 76
326.000 623.000 206.000 65 70 77
326.000 623.000 207.000 68 73 80
323.000 622.000 210.000 63 67 72
323.000 623.000 211.000 64 68 74
324.000 620.000 208.000 65 70 77
324.000 621.000 208.000 63 68 74
324.000 621.000 209.000 63 68 74
325.000 620.000 208.000 66 72 79
325.000 621.000 208.000 63 68 74
324.000 622.000 209.000 63 68 73
325.000 622.000 208.000 63 68 74
325.000 622.000 209.000 64 68 74
325.000 623.000 208.000 68 72 78
325.000 623.000 209.000 64 68 74
324.000 622.000 210.000 63 67 72
324.000 623.000 210.000 62 66 72
324.000 623.000 211.000 62 66 72
325.000 623.000 210.000 62 66 72
326.000 622.000 208.000 63 68 75
326.000 623.000 208.000 70 74 81
325.000 625.000 201.000 73 78 86
325.000 625.000 202.000 76 82 90
325.000 626.000 201.000 70 76 84
325.000 626.000 202.000 71 77 85
325.000 626.000 203.000 71 76 85
325.000 627.000 202.000 69 75 84
325.000 627.000 203.000 69 75 83
326.000 624.000 201.000 75 80 88
326.000 624.000 202.000 80 85 93
326.000 624.000 203.000 82 87 95
326.000 625.000 202.000 76 81 90
326.000 625.000 203.000 77 82 90
326.000 626.000 203.000 73 78 86
325.000 627.000 204.000 69 75 83
326.000 624.000 204.000 75 80 87
326.000 624.000 205.000 69 74 81
326.000 625.000 204.000 74 80 87
326.000 625.000 205.000 68 73 80
326.000 624.000 206.000 68 73 80
326.000 624.000 207.000 70 75 82
326.000 625.000 206.000 67 72 79
326.000 625.000 207.000 67 72 79
326.000 626.000 204.000 71 76 84
326.000 626.000 205.000 67 72 79
326.000 627.000 204.000 71 76 85
326.000 627.000 205.000 68 73 81
326.000 626.000 206.000 67 72 78
326.000 626.000 207.000 68 72 78
326.000 627.000 206.000 68 72 79
326.000 627.000 207.000 68 72 78
325.000 628.000 201.000 71 77 85
325.000 629.000 201.000 75 81 89
325.000 628.000 202.000 71 77 85
325.000 628.000 203.000 74 80 88
325.000 629.000 202.000 80 86 94
325.000 629.000 203.000 83 89 98
325.000 630.000 202.000 82 88 96
325.000 630.000 203.000 83 90 99
325.000 631.000 202.000 75 81 90
325.000 631.000 203.000 77 84 94
325.000 628.000 204.000 73 80 88
325.000 628.000 205.000 73 79 88
325.000 629.000 204.000 81 87 96
325.000 629.000 205.000 78 85 94
325.000 628.000 206.000 67 72 80
325.000 628.000 207.000 69 73 81
325.000 629.000 206.000 71 78 87
325.000 629.000 207.000 70 75 83
325.000 630.000 204.000 82 88 98
325.000 630.000 205.000 78 86 96
325.000 631.000 204.000 76 83 93
325.000 631.000 205.000 73 81 91
325.000 630.000 206.000 72 80 90
325.000 630.000 207.000 71 77 86
325.000 631.000 206.000 68 76 85
325.000 631.000 207.000 69 76 84
326.000 628.000 204.000 73 79 88
326.000 628.000 205.000 70 76 84
326.000 628.000 206.000 67 72 80
326.000 628.000 207.000 68 72 80
324.000 633.000 201.000 69 75 84
325.000 632.000 203.000 71 77 86
325.000 634.000 203.000 69 73 80
325.000 635.000 203.000 69 74 80
325.000 632.000 204.000 71 77 85
325.000 632.000 205.000 69 75 84
325.000 633.000 204.000 71 75 82
325.000 633.000 205.000 70 75 82
325.000 632.000 206.000 67 73 82
325.000 632.000 207.000 66 72 81
325.000 633.000 206.000 69 73 81
325.000 633.000 207.000 68 73 80
325.000 634.000 204.000 69 73 79
325.000 634.000 205.000 70 74 80
325.000 635.000 204.000 69 72 79
325.000 635.000 205.000 67 72 79
325.000 634.000 206.000 69 73 80
325.000 634.000 207.000 70 75 82
325.000 635.000 206.000 66 71 78
325.000 635.000 207.000 66 71 78
324.000 638.000 203.000 75 80 88
324.000 639.000 203.000 70 76 84
324.000 636.000 205.000 65 69 76
324.000 637.000 204.000 68 73 81
324.000 637.000 205.000 64 69 76
325.000 636.000 205.000 64 69 76
325.000 636.000 206.000 64 69 76
325.000 636.000 207.000 65 70 77
325.000 637.000 206.000 66 70 77
325.000 637.000 207.000 65 70 77
324.000 638.000 204.000 69 74 81
324.000 638.000 205.000 64 69 76
324.000 639.000 204.000 66 71 78
324.000 639.000 205.000 62 67 74
324.000 638.000 206.000 64 68 75
324.000 639.000 206.000 63 68 75
325.000 638.000 206.000 64 69 76
325.000 638.000 207.000 63 68 75
325.000 639.000 206.000 62 67 74
325.000 639.000 207.000 63 68 75
323.000 624.000 211.000 64 68 74
322.000 624.000 212.000 68 72 78
322.000 625.000 213.000 69 72 78
323.000 624.000 212.000 67 71 77
323.000 625.000 212.000 66 70 76
323.000 625.000 213.000 67 71 76
322.000 625.000 214.000 69 72 78
322.000 625.000 215.000 64 69 74
323.000 625.000 214.000 66 69 75
323.000 626.000 213.000 64 68 73
322.000 626.000 214.000 66 70 75
322.000 626.000 215.000 63 67 73
323.000 626.000 214.000 64 67 73
323.000 626.000 215.000 64 68 74
323.000 627.000 214.000 65 68 74
323.000 627.000 215.000 63 67 73
323.000 628.000 215.000 64 69 74
325.000 624.000 209.000 65 70 76
325.000 625.000 209.000 65 69 76
324.000 624.000 210.000 62 66 72
324.000 624.000 211.000 63 67 73
324.000 625.000 211.000 65 69 74
325.000 624.000 210.000 63 67 73
325.000 625.000 210.000 64 68 74
325.000 625.000 211.000 65 69 74
325.000 626.000 209.000 65 70 76
325.000 627.000 208.000 66 70 77
325.000 627.000 209.000 66 70 76
324.000 626.000 211.000 65 68 73
325.000 626.000 210.000 65 69 75
325.000 626.000 211.000 65 69 75
325.000 627.000 210.000 66 70 76
325.000 627.000 211.000 65 69 75
326.000 624.000 208.000 68 73 79
326.000 625.000 208.000 66 71 77
326.000 626.000 208.000 66 70 77
326.000 627.000 208.000 66 71 77
324.000 625.000 212.000 65 69 74
324.000 626.000 212.000 64 68 73
324.000 626.000 213.000 64 67 73
324.000 627.000 212.000 64 68 73
324.000 627.000 213.000 64 68 73
324.000 627.000 214.000 66 70 75
325.000 628.000 208.000 67 71 78
325.000 628.000 209.000 65 69 75
325.000 629.000 208.000 68 73 80
325.000 629.000 209.000 65 70 77
325.000 628.000 210.000 64 69 75
325.000 628.000 211.000 65 68 74
325.000 629.000 210.000 66 70 77
325.000 629.000 211.000 65 69 75
325.000 630.000 208.000 71 76 84
325.000 630.000 209.000 67 73 81
325.000 631.000 208.000 70 76 85
325.000 631.000 209.000 68 75 83
325.000 630.000 210.000 68 73 80
325.000 630.000 211.000 67 71 78
325.000 631.000 210.000 71 76 84
325.000 631.000 211.000 71 76 83
324.000 628.000 212.000 64 69 75
324.000 628.000 213.000 66 70 76
324.000 629.000 213.000 67 71 77
325.000 628.000 212.000 65 69 75
325.000 629.000 212.000 67 71 77
325.000 629.000 213.000 68 72 78
324.000 628.000 214.000 67 71 77
324.000 628.000 215.000 67 71 77
324.000 629.000 214.000 67 72 78
324.000 629.000 215.000 66 70 76
325.000 629.000 214.000 67 72 78
325.000 630.000 212.000 71 75 81
325.000 630.000 213.000 73 78 84
325.000 631.000 212.000 76 81 88
325.000 631.000 213.000 80 84 91
324.000 630.000 215.000 66 71 78
325.000 630.000 214.000 70 74 81
325.000 630.000 215.000 69 74 81
325.000 631.000 214.000 75 79 86
325.000 631.000 215.000 71 76 83
321.000 626.000 217.000 59 63 69
321.000 626.000 218.000 58 62 67
321.000 626.000 219.000 56 60 65
321.000 627.000 219.000 59 63 68
322.000 626.000 216.000 60 65 71
322.000 626.000 217.000 58 63 69
322.000 627.000 216.000 62 66 72
322.000 627.000 217.000 61 66 72
323.000 627.000 216.000 64 68 74
322.000 627.000 218.000 61 65 71
322.000 627.000 219.000 60 64 69
320.000 626.000 221.000 58 62 68
320.000 627.000 221.000 60 64 69
321.000 626.000 220.000 58 61 66
321.000 627.000 220.000 60 64 69
321.000 627.000 221.000 60 64 70
320.000 626.000 222.000 58 62 67
320.000 626.000 223.000 60 63 68
320.000 627.000 222.000 61 65 70
320.000 627.000 223.000 62 65 70
321.000 627.000 222.000 63 67 72
321.000 627.000 223.000 63 66 71
323.000 628.000 216.000 65 69 75
323.000 628.000 217.000 66 70 76
323.000 629.000 216.000 68 72 77
323.000 629.000 217.000 69 73 79
322.000 628.000 218.000 64 68 74
322.000 628.000 219.000 62 66 71
323.000 628.000 218.000 64 68 74
323.000 628.000 219.000 64 68 73
323.000 629.000 218.000 65 69 75
323.000 629.000 219.000 65 69 75
321.000 628.000 221.000 64 69 74
321.000 628.000 222.000 63 67 73
321.000 628.000 223.000 64 68 74
322.000 628.000 220.000 63 68 73
322.000 628.000 221.000 66 70 76
322.000 629.000 221.000 67 72 78
323.000 629.000 220.000 67 71 77
323.000 629.000 221.000 68 73 79
322.000 628.000 222.000 64 69 75
322.000 628.000 223.000 65 69 75
322.000 629.000 222.000 66 71 77
322.000 629.000 223.000 67 71 77
323.000 629.000 223.000 68 73 79
323.000 630.000 220.000 68 72 78
323.000 630.000 221.000 70 74 81
323.000 630.000 222.000 69 73 79
323.000 630.000 223.000 69 73 79
324.000 629.000 216.000 68 72 78
324.000 629.000 217.000 70 74 80
324.000 629.000 218.000 66 70 76
324.000 630.000 216.000 69 73 79
324.000 630.000 217.000 70 75 81
325.000 630.000 216.000 69 74 80
325.000 630.000 217.000 69 74 80
325.000 631.000 216.000 68 73 80
325.000 631.000 217.000 69 73 79
324.000 630.000 218.000 68 72 78
324.000 630.000 219.000 68 72 78
324.000 631.000 219.000 68 73 79
325.000 631.000 218.000 69 73 79
325.000 631.000 219.000 69 73 79
324.000 630.000 220.000 69 73 79
324.000 630.000 221.000 71 75 81
324.000 631.000 220.000 68 73 79
324.000 631.000 221.000 69 73 80
325.000 631.000 220.000 69 74 80
325.000 631.000 221.000 69 73 79
324.000 630.000 222.000 69 74 81
324.000 631.000 222.000 69 74 80
324.000 631.000 223.000 72 76 82
325.000 632.000 208.000 68 75 83
325.000 632.000 209.000 73 80 89
325.000 633.000 208.000 70 77 85
325.000 633.000 209.000 76 82 91
325.000 632.000 210.000 78 83 92
325.000 632.000 211.000 79 84 92
325.000 633.000 210.000 81 87 96
325.000 633.000 211.000 82 87 96
325.000 634.000 208.000 73 78 87
325.000 634.000 209.000 80 86 94
325.000 635.000 208.000 66 72 80
325.000 635.000 209.000 75 80 89
325.000 634.000 210.000 77 83 92
325.000 634.000 211.000 77 84 92
325.000 635.000 210.000 77 83 92
325.000 635.000 211.000 73 79 88
325.000 632.000 212.000 80 85 93
325.000 632.000 213.000 82 86 94
325.000 633.000 212.000 82 88 96
325.000 633.000 213.000 79 85 93
325.000 632.000 214.000 76 81 88
325.000 632.000 215.000 71 77 84
325.000 633.000 214.000 74 79 87
325.000 633.000 215.000 71 76 83
325.000 634.000 212.000 76 83 92
325.000 634.000 213.000 74 81 89
325.000 635.000 212.000 70 78 87
325.000 634.000 214.000 75 80 88
325.000 634.000 215.000 70 76 84
326.000 633.000 215.000 68 73 81
326.000 634.000 213.000 70 77 85
326.000 635.000 212.000 70 76 85
326.000 635.000 213.000 70 76 85
326.000 634.000 214.000 73 79 86
326.000 634.000 215.000 69 75 82
326.000 635.000 214.000 72 78 85
326.000 635.000 215.000 72 77 85
327.000 635.000 215.000 72 77 84
325.000 636.000 208.000 64 70 77
325.000 636.000 209.000 70 76 84
325.000 637.000 208.000 62 67 75
325.000 637.000 209.000 66 71 80
325.000 636.000 210.000 77 82 90
325.000 636.000 211.000 73 79 88
325.000 637.000 210.000 69 74 82
325.000 637.000 211.000 68 74 83
325.000 638.000 208.000 59 65 72
325.000 638.000 209.000 59 64 72
325.000 639.000 208.000 60 65 72
325.000 639.000 209.000 57 63 70
325.000 638.000 210.000 62 68 75
325.000 639.000 210.000 57 62 69
326.000 636.000 211.000 71 77 86
326.000 637.000 211.000 67 74 82
326.000 636.000 212.000 66 73 81
326.000 636.000 213.000 65 71 79
326.000 637.000 212.000 62 68 76
326.000 637.000 213.000 58 64 72
326.000 636.000 214.000 65 70 77
327.000 636.000 214.000 63 68 75
327.000 636.000 215.000 68 72 79
327.000 637.000 214.000 57 62 69
327.000 637.000 215.000 57 62 68
325.000 632.000 216.000 68 73 79
325.000 632.000 217.000 69 74 80
325.000 633.000 216.000 68 73 79
325.000 632.000 218.000 69 73 79
325.000 632.000 219.000 70 74 80
326.000 632.000 217.000 69 73 79
326.000 633.000 216.000 66 70 77
326.000 633.000 217.000 67 71 78
326.000 632.000 218.000 68 72 78
326.000 632.000 219.000 69 73 79
326.000 633.000 218.000 67 71 77
326.000 633.000 219.000 67 71 77
326.000 634.000 216.000 65 70 76
326.000 634.000 217.000 66 70 76
326.000 635.000 216.000 66 71 78
327.000 634.000 217.000 65 69 75
327.000 635.000 216.000 68 72 78
327.000 635.000 217.000 63 67 73
326.000 634.000 218.000 66 70 75
326.000 634.000 219.000 67 71 77
327.000 634.000 218.000 66 69 75
327.000 634.000 219.000 67 71 76
327.000 635.000 218.000 63 67 73
327.000 635.000 219.000 67 71 76
325.000 632.000 220.000 69 74 80
325.000 632.000 221.000 69 73 80
324.000 632.000 223.000 73 77 83
325.000 632.000 222.000 69 74 80
325.000 632.000 223.000 72 76 82
325.000 633.000 222.000 73 77 83
325.000 633.000 223.000 75 79 86
325.000 634.000 223.000 77 81 88
326.000 632.000 220.000 70 75 81
326.000 632.000 221.000 68 73 79
326.000 633.000 220.000 68 72 78
326.000 633.000 221.000 69 73 79
326.000 633.000 222.000 70 75 81
326.000 634.000 220.000 69 73 79
326.000 634.000 221.000 70 74 81
326.000 635.000 221.000 72 76 83
327.000 634.000 220.000 69 73 78
327.000 635.000 220.000 71 75 81
327.000 635.000 221.000 73 77 84
326.000 634.000 222.000 74 78 85
326.000 634.000 223.000 77 81 88
326.000 635.000 222.000 75 80 86
326.000 635.000 223.000 78 83 90
327.000 635.000 222.000 77 81 88
327.000 636.000 216.000 65 70 76
327.000 636.000 217.000 61 66 72
327.000 637.000 216.000 59 63 69
327.000 637.000 217.000 60 65 71
327.000 636.000 219.000 69 73 80
327.000 637.000 218.000 62 67 73
327.000 637.000 219.000 73 77 84
327.000 638.000 219.000 68 73 80
327.000 636.000 220.000 75 79 86
327.000 636.000 221.000 77 82 89
327.000 637.000 220.000 77 82 90
327.000 637.000 221.000 80 85 93
326.000 637.000 223.000 83 87 95
327.000 636.000 222.000 80 85 92
327.000 636.000 223.000 80 84 92
327.000 637.000 222.000 83 87 95
327.000 637.000 223.000 84 88 96
327.000 638.000 220.000 72 76 84
327.000 638.000 221.000 78 82 90
327.000 638.000 222.000 80 85 92
327.000 638.000 223.000 83 88 95
327.000 639.000 222.000 77 81 89
327.000 639.000 223.000 79 84 91
328.000 636.000 217.000 62 66 72
328.000 637.000 217.000 59 63 70
328.000 636.000 218.000 62 67 72
328.000 637.000 218.000 64 68 75
328.000 638.000 221.000 75 80 87
328.000 639.000 222.000 73 78 85
328.000 639.000 223.000 76 81 88
320.000 627.000 224.000 63 66 71
320.000 627.000 225.000 64 67 72
321.000 627.000 224.000 63 67 72
320.000 627.000 226.000 65 68 73
320.000 627.000 227.000 67 70 76
321.000 628.000 224.000 65 68 74
321.000 628.000 225.000 66 70 76
320.000 628.000 226.000 67 71 77
320.000 628.000 227.000 69 72 78
321.000 628.000 226.000 69 72 78
321.000 628.000 227.000 70 74 80
321.000 629.000 227.000 73 77 83
322.000 629.000 224.000 67 72 78
322.000 629.000 225.000 69 73 78
322.000 629.000 226.000 71 74 80
322.000 629.000 227.000 73 77 83
323.000 630.000 224.000 70 74 80
323.000 630.000 225.000 72 76 82
323.000 631.000 224.000 72 76 82
323.000 631.000 225.000 74 78 85
322.000 630.000 226.000 73 77 83
322.000 630.000 227.000 75 78 85
323.000 630.000 226.000 73 77 83
323.000 630.000 227.000 76 80 86
323.000 631.000 226.000 76 79 86
323.000 631.000 227.000 78 82 88
320.000 628.000 228.000 69 73 79
321.000 628.000 228.000 72 76 82
321.000 629.000 228.000 73 77 83
321.000 629.000 229.000 75 78 85
320.000 629.000 230.000 77 79 85
320.000 629.000 231.000 79 81 87
321.000 629.000 230.000 78 80 86
321.000 629.000 231.000 81 83 89
322.000 629.000 228.000 76 79 85
322.000 629.000 229.000 78 81 87
322.000 629.000 230.000 78 81 87
322.000 630.000 228.000 78 81 87
322.000 630.000 229.000 80 83 89
323.000 631.000 228.000 81 84 90
323.000 631.000 229.000 83 85 92
322.000 630.000 230.000 82 84 90
322.000 630.000 231.000 84 85 91
323.000 631.000 230.000 85 87 93
323.000 631.000 231.000 86 88 94
324.000 631.000 224.000 72 76 82
324.000 631.000 225.000 75 79 86
324.000 631.000 226.000 78 81 88
324.000 631.000 227.000 81 84 91
324.000 631.000 228.000 83 86 92
324.000 631.000 231.000 87 88 94
320.000 629.000 232.000 80 81 87
320.000 629.000 233.000 80 81 87
321.000 629.000 232.000 82 83 89
321.000 629.000 233.000 82 83 89
321.000 629.000 234.000 82 83 89
321.000 630.000 233.000 83 84 90
320.000 630.000 235.000 82 82 88
321.000 630.000 234.000 83 84 89
321.000 630.000 235.000 83 83 88
322.000 630.000 232.000 84 85 91
322.000 630.000 233.000 84 85 90
322.000 631.000 232.000 85 86 91
322.000 631.000 233.000 85 85 91
323.000 631.000 232.000 87 87 93
323.000 631.000 233.000 87 87 92
322.000 630.000 234.000 85 85 90
322.000 630.000 235.000 84 84 89
322.000 631.000 234.000 85 85 91
322.000 631.000 235.000 85 85 90
323.000 631.000 234.000 86 85 91
323.000 631.000 235.000 87 86 91
320.000 630.000 237.000 81 81 86
321.000 630.000 236.000 83 82 88
321.000 630.000 237.000 82 81 87
320.000 630.000 238.000 81 80 86
320.000 630.000 239.000 79 79 85
321.000 630.000 238.000 81 81 87
321.000 630.000 239.000 80 79 85
321.000 631.000 239.000 82 81 88
322.000 630.000 236.000 84 83 89
322.000 630.000 237.000 84 83 88
322.000 631.000 236.000 86 85 90
322.000 631.000 237.000 84 83 89
323.000 631.000 236.000 87 85 91
323.000 631.000 237.000 87 85 91
322.000 630.000 238.000 83 82 88
322.000 631.000 238.000 84 83 89
322.000 631.000 239.000 83 83 89
323.000 631.000 238.000 86 85 91
323.000 631.000 239.000 85 85 91
324.000 631.000 232.000 87 88 93
324.000 631.000 237.000 88 87 93
324.000 631.000 238.000 87 86 93
324.000 632.000 224.000 75 79 85
324.000 632.000 225.000 76 80 87
324.000 633.000 224.000 77 81 87
324.000 633.000 225.000 79 83 89
325.000 633.000 224.000 77 81 88
325.000 633.000 225.000 80 84 91
324.000 632.000 226.000 78 82 89
324.000 632.000 227.000 82 85 92
324.000 633.000 226.000 80 84 91
325.000 633.000 226.000 81 85 92
325.000 633.000 227.000 84 87 94
325.000 634.000 224.000 79 83 90
325.000 634.000 225.000 81 85 92
325.000 634.000 226.000 82 87 94
325.000 634.000 227.000 85 89 97
326.000 634.000 224.000 80 84 91
326.000 635.000 224.000 80 84 91
326.000 635.000 225.000 82 86 94
326.000 634.000 226.000 83 87 95
326.000 634.000 227.000 86 90 98
326.000 635.000 226.000 84 88 96
326.000 635.000 227.000 88 93 102
324.000 632.000 228.000 84 87 93
324.000 632.000 229.000 86 89 95
325.000 633.000 228.000 86 89 96
325.000 633.000 229.000 90 93 99
324.000 632.000 230.000 88 90 96
324.000 632.000 231.000 88 89 96
325.000 632.000 230.000 90 92 98
325.000 632.000 231.000 90 91 97
325.000 633.000 230.000 91 92 99
325.000 633.000 231.000 92 92 98
325.000 634.000 228.000 89 93 100
325.000 634.000 229.000 91 94 102
326.000 633.000 230.000 91 93 99
326.000 634.000 228.000 90 94 102
326.000 634.000 229.000 93 97 104
326.000 635.000 228.000 92 97 106
326.000 635.000 229.000 95 99 107
327.000 635.000 229.000 98 101 108
326.000 634.000 230.000 94 95 102
326.000 634.000 231.000 95 94 100
326.000 635.000 230.000 96 98 105
327.000 635.000 230.000 99 100 106
327.000 635.000 231.000 97 97 103
326.000 636.000 224.000 83 87 95
326.000 636.000 225.000 84 89 97
327.000 636.000 224.000 82 87 94
327.000 637.000 224.000 85 90 98
327.000 637.000 225.000 86 92 100
326.000 636.000 226.000 86 91 100
326.000 636.000 227.000 89 94 104
327.000 636.000 226.000 88 93 103
327.000 636.000 227.000 91 96 106
327.000 637.000 226.000 88 94 103
327.000 637.000 227.000 92 98 108
327.000 638.000 224.000 86 91 99
327.000 638.000 225.000 87 93 101
327.000 639.000 224.000 82 87 95
327.000 639.000 225.000 86 91 100
327.000 638.000 226.000 89 95 105
327.000 638.000 227.000 95 100 110
326.000 636.000 228.000 92 98 108
327.000 636.000 228.000 95 100 109
327.000 636.000 229.000 101 103 110
327.000 637.000 228.000 98 103 111
327.000 637.000 229.000 105 108 115
327.000 636.000 230.000 100 101 106
327.000 636.000 231.000 101 101 106
327.000 637.000 230.000 108 109 115
323.000 632.000 232.000 88 87 93
323.000 632.000 233.000 87 87 92
323.000 632.000 234.000 88 87 92
323.000 632.000 235.000 88 87 92
323.000 632.000 236.000 87 86 91
324.000 632.000 232.000 89 89 94
324.000 632.000 233.000 89 89 94
324.000 633.000 232.000 91 91 96
324.000 633.000 233.000 91 90 96
325.000 633.000 232.000 93 92 97
325.000 633.000 233.000 93 91 97
324.000 632.000 234.000 90 88 94
324.000 632.000 235.000 89 88 93
324.000 633.000 234.000 91 89 95
325.000 633.000 234.000 93 90 96
325.000 633.000 235.000 91 90 96
326.000 633.000 233.000 94 92 97
326.000 633.000 234.000 94 91 98
326.000 633.000 235.000 92 90 97
326.000 634.000 232.000 96 93 99
326.000 634.000 233.000 96 93 98
326.000 635.000 233.000 97 94 98
327.000 635.000 232.000 98 95 99
327.000 635.000 233.000 98 95 100
326.000 634.000 234.000 96 93 99
326.000 634.000 235.000 91 90 97
327.000 634.000 234.000 95 92 98
327.000 634.000 235.000 92 90 97
327.000 635.000 234.000 95 93 99
324.000 632.000 236.000 89 87 93
324.000 632.000 237.000 88 87 94
325.000 632.000 236.000 90 89 95
325.000 632.000 237.000 89 88 95
325.000 633.000 236.000 90 89 95
324.000 632.000 238.000 88 87 94
326.000 632.000 237.000 89 88 95
326.000 633.000 236.000 90 89 95
326.000 633.000 237.000 88 88 95
327.000 633.000 236.000 88 88 95
327.000 633.000 237.000 84 86 93
326.000 632.000 238.000 84 86 93
327.000 632.000 238.000 81 85 92
327.000 632.000 239.000 80 84 91
327.000 633.000 238.000 82 85 92
327.000 634.000 236.000 87 88 95
328.000 639.000 225.000 84 90 100
328.000 638.000 226.000 92 98 108
328.000 638.000 227.000 96 101 111
328.000 639.000 226.000 90 97 107
328.000 639.000 227.000 97 102 112
328.000 636.000 230.000 105 104 109
328.000 636.000 231.000 100 98 102
328.000 637.000 230.000 102 99 103
328.000 637.000 231.000 94 91 94
329.000 637.000 230.000 98 90 92
329.000 637.000 231.000 96 90 93
328.000 638.000 228.000 103 106 114
328.000 638.000 229.000 105 102 108
328.000 639.000 228.000 105 106 113
329.000 639.000 228.000 104 99 105
329.000 639.000 229.000 108 101 105
328.000 638.000 230.000 103 98 103
329.000 638.000 230.000 101 92 95
329.000 638.000 231.000 103 95 98
329.000 639.000 230.000 114 103 108
330.000 638.000 230.000 112 101 103
330.000 638.000 231.000 110 99 100
330.000 639.000 230.000 120 107 110
330.000 639.000 231.000 120 108 110
331.000 639.000 231.000 114 104 105
328.000 635.000 232.000 98 95 100
328.000 635.000 233.000 97 94 99
328.000 634.000 235.000 86 88 95
328.000 635.000 234.000 91 91 96
328.000 635.000 235.000 91 91 96
329.000 635.000 234.000 90 90 95
329.000 635.000 235.000 86 88 94
330.000 635.000 235.000 81 84 91
328.000 633.000 237.000 83 86 93
328.000 632.000 239.000 79 83 91
328.000 633.000 238.000 81 84 92
329.000 632.000 239.000 79 83 90
329.000 633.000 238.000 79 83 91
329.000 633.000 239.000 79 83 90
328.000 634.000 236.000 84 87 94
328.000 634.000 237.000 82 85 93
329.000 634.000 237.000 82 85 92
329.000 635.000 236.000 82 85 92
329.000 634.000 238.000 80 84 91
330.000 633.000 238.000 78 82 90
330.000 633.000 239.000 77 82 90
331.000 633.000 238.000 75 80 89
331.000 633.000 239.000 76 81 89
330.000 634.000 237.000 80 83 90
330.000 635.000 236.000 80 83 91
331.000 634.000 237.000 77 81 89
331.000 635.000 236.000 78 83 91
331.000 635.000 237.000 76 81 89
330.000 634.000 238.000 78 82 90
331.000 634.000 238.000 75 80 89
328.000 636.000 232.000 100 95 99
328.000 636.000 233.000 95 93 98
329.000 636.000 232.000 92 90 93
329.000 636.000 233.000 95 92 94
329.000 637.000 232.000 98 93 95
329.000 636.000 234.000 91 90 94
330.000 637.000 232.000 103 96 96
330.000 637.000 233.000 100 95 95
331.000 637.000 233.000 92 90 92
330.000 636.000 234.000 90 89 93
330.000 636.000 235.000 84 86 92
330.000 637.000 234.000 93 91 94
331.000 636.000 234.000 80 83 89
331.000 636.000 235.000 77 81 89
331.000 637.000 234.000 83 85 90
330.000 638.000 232.000 108 100 100
331.000 638.000 232.000 109 100 99
331.000 638.000 233.000 95 91 93
331.000 639.000 232.000 107 100 101
332.000 633.000 239.000 74 80 88
333.000 633.000 239.000 70 76 85
332.000 635.000 236.000 74 80 89
332.000 635.000 237.000 71 77 86
333.000 635.000 237.000 67 74 82
332.000 634.000 238.000 73 79 87
332.000 634.000 239.000 73 79 88
332.000 635.000 238.000 72 78 87
333.000 634.000 238.000 67 73 82
333.000 634.000 239.000 66 72 81
333.000 635.000 238.000 66 73 81
334.000 632.000 239.000 59 65 72
334.000 633.000 238.000 56 62 70
334.000 633.000 239.000 59 65 73
335.000 632.000 239.000 55 61 68
335.000 633.000 238.000 56 62 70
335.000 633.000 239.000 55 62 70
334.000 635.000 237.000 65 71 79
334.000 634.000 238.000 60 66 74
334.000 634.000 239.000 59 65 74
334.000 635.000 238.000 65 71 79
335.000 634.000 238.000 59 65 73
335.000 635.000 238.000 63 69 77
332.000 636.000 235.000 68 74 83
332.000 637.000 234.000 69 75 84
333.000 636.000 235.000 64 71 79
333.000 637.000 234.000 63 70 78
333.000 637.000 235.000 61 68 76
332.000 638.000 233.000 92 89 91
332.000 639.000 232.000 91 88 90
332.000 639.000 233.000 87 85 88
332.000 638.000 234.000 81 84 91
333.000 638.000 234.000 62 68 76
334.000 637.000 235.000 60 66 74
334.000 638.000 235.000 61 66 74
335.000 638.000 235.000 57 63 70
332.000 636.000 236.000 71 77 86
333.000 636.000 236.000 64 70 78
333.000 636.000 237.000 65 71 80
333.000 637.000 236.000 62 69 77
334.000 636.000 237.000 64 70 78
334.000 637.000 236.000 62 68 75
335.000 636.000 237.000 63 68 76
335.000 637.000 236.000 61 67 74
335.000 637.000 237.000 59 65 72
335.000 636.000 238.000 60 66 74
335.000 638.000 236.000 60 65 72
320.000 630.000 240.000 78 78 84
320.000 631.000 240.000 79 79 84
320.000 631.000 241.000 79 79 85
321.000 631.000 240.000 81 80 87
321.000 631.000 241.000 81 81 87
320.000 631.000 242.000 78 79 85
320.000 631.000 243.000 77 78 84
321.000 631.000 242.000 79 80 86
322.000 631.000 240.000 82 82 88
322.000 631.000 241.000 81 81 88
323.000 631.000 240.000 83 83 90
327.000 632.000 240.000 79 83 90
331.000 631.000 242.000 76 81 89
332.000 631.000 242.000 77 81 89
333.000 631.000 242.000 73 78 85
333.000 631.000 243.000 72 77 85
334.000 631.000 241.000 62 67 75
335.000 631.000 241.000 56 61 69
334.000 631.000 242.000 59 65 72
334.000 631.000 243.000 61 67 75
335.000 631.000 242.000 54 60 67
335.000 631.000 243.000 55 61 69
335.000 630.000 244.000 56 62 70
328.000 632.000 240.000 78 82 90
329.000 632.000 240.000 78 82 90
329.000 632.000 241.000 77 81 89
330.000 632.000 240.000 77 81 89
330.000 632.000 241.000 76 81 89
331.000 632.000 240.000 76 81 89
331.000 632.000 241.000 76 81 89
331.000 633.000 240.000 76 81 89
331.000 632.000 242.000 76 81 88
332.000 632.000 240.000 76 81 89
332.000 632.000 241.000 76 81 89
332.000 633.000 240.000 75 80 89
333.000 632.000 240.000 71 76 84
333.000 632.000 241.000 75 79 87
333.000 633.000 240.000 71 76 85
332.000 632.000 242.000 75 80 88
334.000 632.000 240.000 60 66 73
334.000 632.000 241.000 62 67 74
335.000 632.000 240.000 55 61 68
335.000 632.000 241.000 55 61 69
342.000 637.000 231.000 52 57 64
336.000 632.000 239.000 56 62 70
336.000 633.000 238.000 58 63 70
336.000 633.000 239.000 57 63 70
337.000 632.000 239.000 59 65 72
337.000 633.000 238.000 61 66 73
337.000 633.000 239.000 59 64 71
336.000 634.000 238.000 60 66 73
336.000 635.000 238.000 58 63 70
337.000 634.000 238.000 60 65 72
337.000 635.000 238.000 55 61 68
338.000 632.000 239.000 60 66 73
338.000 633.000 238.000 62 67 73
339.000 632.000 239.000 61 67 74
338.000 634.000 238.000 57 63 70
338.000 639.000 235.000 52 58 66
339.000 639.000 234.000 51 57 65
339.000 639.000 235.000 50 56 63
336.000 636.000 238.000 55 61 68
339.000 637.000 237.000 56 61 68
338.000 638.000 237.000 55 60 67
338.000 639.000 236.000 52 58 65
339.000 638.000 236.000 50 56 63
339.000 638.000 237.000 55 60 67
339.000 639.000 236.000 50 56 64
340.000 632.000 238.000 61 67 74
341.000 637.000 235.000 49 55 63
340.000 639.000 232.000 48 55 63
340.000 639.000 233.000 49 55 63
341.000 638.000 233.000 50 57 64
341.000 639.000 232.000 51 57 65
340.000 638.000 234.000 48 54 62
340.000 638.000 235.000 48 55 62
340.000 639.000 234.000 49 56 63
342.000 637.000 233.000 52 58 66
340.000 637.000 236.000 54 60 67
340.000 638.000 236.000 48 54 62
336.000 631.000 241.000 55 61 69
337.000 631.000 241.000 57 63 70
336.000 631.000 242.000 53 59 67
336.000 631.000 243.000 53 60 68
337.000 630.000 243.000 54 61 68
337.000 631.000 242.000 56 61 68
337.000 631.000 243.000 54 60 68
338.000 631.000 241.000 62 67 74
339.000 631.000 240.000 60 66 73
339.000 631.000 241.000 62 67 75
338.000 630.000 243.000 56 62 69
338.000 631.000 242.000 59 64 72
338.000 631.000 243.000 55 61 68
339.000 630.000 242.000 59 65 73
339.000 630.000 243.000 59 65 73
337.000 629.000 246.000 57 63 71
336.000 630.000 244.000 54 60 68
336.000 630.000 245.000 55 61 69
337.000 630.000 244.000 54 60 68
337.000 630.000 245.000 56 62 69
337.000 630.000 246.000 56 62 70
339.000 629.000 244.000 57 64 72
339.000 629.000 245.000 58 64 72
338.000 628.000 247.000 56 62 70
338.000 629.000 246.000 57 63 71
338.000 629.000 247.000 56 62 70
339.000 628.000 247.000 58 64 71
339.000 629.000 246.000 58 64 72
339.000 629.000 247.000 58 64 71
338.000 630.000 244.000 55 61 69
338.000 630.000 245.000 57 63 70
339.000 630.000 244.000 57 64 71
339.000 630.000 245.000 56 62 70
340.000 627.000 247.000 58 64 71
341.000 627.000 246.000 60 65 73
341.000 627.000 247.000 59 65 72
342.000 627.000 244.000 63 69 76
342.000 627.000 245.000 62 68 75
343.000 627.000 244.000 65 70 78
343.000 627.000 245.000 64 70 78
342.000 626.000 247.000 59 65 72
342.000 627.000 246.000 60 66 73
342.000 627.000 247.000 59 65 73
343.000 626.000 246.000 61 68 76
343.000 627.000 246.000 62 68 76
340.000 629.000 243.000 60 66 74
341.000 629.000 242.000 65 70 78
341.000 629.000 243.000 62 68 76
340.000 630.000 241.000 62 68 76
341.000 630.000 241.000 65 71 78
340.000 630.000 242.000 61 68 76
340.000 630.000 243.000 60 66 74
341.000 630.000 242.000 64 70 77
343.000 629.000 241.000 66 72 79
342.000 628.000 243.000 64 70 77
342.000 629.000 242.000 65 71 79
342.000 629.000 243.000 64 70 77
343.000 628.000 243.000 67 72 80
343.000 629.000 242.000 66 72 79
340.000 628.000 245.000 60 66 73
340.000 629.000 244.000 59 66 73
340.000 629.000 245.000 59 65 73
341.000 628.000 244.000 62 68 75
341.000 628.000 245.000 62 68 75
341.000 629.000 244.000 61 67 75
340.000 628.000 246.000 58 64 72
340.000 628.000 247.000 58 63 71
341.000 628.000 246.000 60 66 73
342.000 628.000 244.000 63 69 76
342.000 628.000 245.000 63 68 75
343.000 628.000 244.000 65 70 77
338.000 626.000 249.000 59 65 72
339.000 626.000 248.000 57 63 70
339.000 626.000 249.000 57 63 70
339.000 627.000 248.000 57 63 70
339.000 627.000 249.000 57 62 69
338.000 628.000 248.000 57 63 70
339.000 628.000 248.000 58 64 71
341.000 625.000 248.000 57 64 72
340.000 626.000 248.000 55 62 69
340.000 626.000 249.000 56 62 70
340.000 627.000 248.000 57 63 70
341.000 626.000 248.000 57 63 70
340.000 628.000 248.000 58 64 71
336.000 632.000 240.000 56 62 69
336.000 632.000 241.000 55 61 69
337.000 632.000 240.000 59 64 71
337.000 632.000 241.000 58 63 71
338.000 632.000 240.000 60 66 73
344.000 627.000 244.000 66 71 78
344.000 627.000 245.000 65 71 78
344.000 628.000 242.000 66 71 78
344.000 628.000 243.000 68 73 79
345.000 628.000 243.000 68 73 81
344.000 628.000 244.000 68 73 80
324.000 642.000 203.000 69 73 80
324.000 640.000 204.000 65 69 75
324.000 640.000 205.000 61 66 73
324.000 641.000 204.000 64 68 74
324.000 641.000 205.000 63 67 73
325.000 640.000 206.000 60 65 72
325.000 640.000 207.000 60 65 72
331.000 647.000 223.000 53 58 64
330.000 651.000 216.000 48 51 55
330.000 651.000 217.000 47 51 56
330.000 650.000 218.000 48 52 57
330.000 650.000 219.000 47 52 57
330.000 651.000 218.000 47 51 57
330.000 651.000 219.000 47 52 57
331.000 651.000 219.000 47 52 57
331.000 649.000 221.000 51 55 60
331.000 648.000 222.000 52 56 61
331.000 648.000 223.000 53 58 64
331.000 649.000 222.000 50 54 60
331.000 649.000 223.000 51 57 64
331.000 650.000 220.000 47 52 58
331.000 650.000 221.000 48 53 59
330.000 652.000 216.000 47 50 55
330.000 652.000 217.000 47 51 56
330.000 654.000 217.000 47 53 59
330.000 655.000 217.000 51 56 63
331.000 654.000 217.000 50 55 62
328.000 640.000 224.000 79 84 92
328.000 640.000 225.000 85 90 99
328.000 640.000 226.000 89 95 105
328.000 640.000 227.000 97 103 113
329.000 640.000 226.000 93 98 108
329.000 640.000 227.000 107 109 115
329.000 641.000 227.000 112 111 117
330.000 641.000 227.000 113 112 118
330.000 642.000 225.000 76 81 88
330.000 643.000 225.000 69 74 81
330.000 642.000 226.000 94 96 103
330.000 642.000 227.000 114 109 114
330.000 643.000 226.000 88 88 94
330.000 643.000 227.000 104 99 102
331.000 643.000 227.000 115 99 105
328.000 640.000 228.000 106 109 116
329.000 640.000 228.000 115 110 116
329.000 640.000 229.000 120 111 116
330.000 640.000 229.000 125 115 119
330.000 641.000 228.000 125 118 124
330.000 641.000 229.000 128 118 123
331.000 641.000 229.000 128 116 120
330.000 640.000 230.000 127 116 120
330.000 641.000 230.000 130 117 121
331.000 640.000 230.000 118 106 109
331.000 640.000 231.000 115 104 106
331.000 641.000 230.000 120 109 113
330.000 642.000 228.000 126 117 122
331.000 642.000 228.000 132 121 128
331.000 642.000 229.000 127 117 122
331.000 643.000 228.000 125 109 113
331.000 643.000 229.000 119 109 112
331.000 642.000 230.000 121 112 116
330.000 645.000 225.000 60 64 70
331.000 645.000 225.000 60 63 70
330.000 644.000 226.000 78 78 82
331.000 644.000 226.000 86 83 86
331.000 644.000 227.000 109 101 104
331.000 645.000 226.000 69 69 73
331.000 645.000 227.000 92 90 92
331.000 646.000 224.000 53 59 66
331.000 646.000 225.000 56 61 67
331.000 647.000 224.000 52 58 65
331.000 647.000 225.000 52 57 64
331.000 646.000 226.000 63 65 69
331.000 646.000 227.000 77 77 81
331.000 647.000 226.000 55 59 65
331.000 644.000 228.000 121 110 112
331.000 644.000 229.000 108 97 99
331.000 645.000 228.000 113 108 109
332.000 640.000 231.000 96 91 96
332.000 641.000 230.000 104 99 104
332.000 641.000 231.000 102 96 100
332.000 643.000 229.000 107 100 104
332.000 642.000 230.000 96 92 98
332.000 643.000 230.000 88 87 94
333.000 642.000 230.000 67 68 74
333.000 642.000 231.000 62 63 70
333.000 643.000 230.000 59 62 69
334.000 642.000 230.000 52 55 62
334.000 643.000 230.000 51 55 62
332.000 646.000 227.000 80 79 82
332.000 647.000 226.000 54 58 64
332.000 647.000 227.000 56 60 66
333.000 647.000 227.000 52 57 64
332.000 644.000 229.000 94 89 93
332.000 645.000 228.000 95 92 94
332.000 645.000 229.000 79 78 82
333.000 644.000 229.000 70 69 75
333.000 645.000 229.000 67 67 73
333.000 644.000 230.000 61 62 68
333.000 645.000 230.000 56 58 65
332.000 646.000 228.000 61 64 69
332.000 647.000 228.000 57 61 66
333.000 646.000 228.000 52 57 63
333.000 646.000 229.000 57 59 65
333.000 647.000 228.000 54 58 65
333.000 646.000 230.000 52 56 63
334.000 644.000 230.000 52 57 64
334.000 645.000 230.000 55 59 66
334.000 646.000 229.000 54 58 65
331.000 648.000 224.000 53 59 66
331.000 648.000 225.000 51 57 64
333.000 649.000 225.000 50 55 63
332.000 648.000 226.000 53 58 64
333.000 648.000 227.000 52 57 64
339.000 641.000 231.000 51 58 66
339.000 643.000 228.000 60 65 72
339.000 643.000 229.000 62 67 73
338.000 642.000 231.000 51 58 66
338.000 646.000 225.000 53 58 65
337.000 644.000 229.000 58 63 69
336.000 644.000 230.000 55 60 67
338.000 644.000 228.000 57 63 70
340.000 643.000 225.000 65 71 78
341.000 641.000 229.000 57 63 71
340.000 640.000 231.000 49 56 64
340.000 641.000 230.000 50 57 65
341.000 640.000 230.000 54 61 68
342.000 640.000 229.000 59 65 72
342.000 644.000 224.000 62 67 74
337.000 640.000 235.000 53 59 66
338.000 641.000 232.000 52 58 66
339.000 640.000 232.000 50 57 65
339.000 640.000 233.000 52 58 66
338.000 640.000 234.000 54 60 67
340.000 640.000 232.000 50 56 64
