ply
format ascii 1.0
element vertex 1159
property float x
property float y
property float z
property uchar red
property uchar green
property uchar blue
end_header
327.000 823.000 247.000 139 147 162
322.000 821.000 249.000 126 132 146
323.000 821.000 249.000 128 134 147
322.000 820.000 250.000 126 130 141
323.000 820.000 250.000 126 131 143
322.000 822.000 249.000 127 133 147
322.000 823.000 248.000 131 137 149
323.000 822.000 249.000 135 142 156
323.000 823.000 248.000 138 145 160
323.000 823.000 249.000 134 141 154
326.000 819.000 249.000 115 122 135
327.000 819.000 249.000 117 124 138
326.000 819.000 250.000 118 121 134
327.000 819.000 250.000 120 124 135
324.000 821.000 249.000 123 130 144
325.000 820.000 249.000 112 120 134
325.000 821.000 249.000 114 123 139
324.000 820.000 250.000 122 127 139
325.000 820.000 250.000 112 119 134
324.000 822.000 249.000 139 148 164
324.000 823.000 248.000 148 157 174
325.000 822.000 248.000 141 150 167
325.000 822.000 249.000 128 138 155
325.000 823.000 248.000 145 156 174
326.000 820.000 249.000 113 121 137
326.000 821.000 249.000 134 141 156
327.000 820.000 249.000 120 129 144
327.000 821.000 248.000 141 150 165
327.000 821.000 249.000 142 151 166
326.000 822.000 248.000 166 173 189
326.000 822.000 249.000 154 160 175
326.000 823.000 248.000 159 169 186
327.000 822.000 248.000 154 162 177
327.000 823.000 248.000 159 167 182
323.000 825.000 247.000 130 134 148
323.000 827.000 246.000 134 139 151
323.000 828.000 246.000 132 137 149
324.000 824.000 247.000 135 143 159
324.000 825.000 247.000 130 135 149
325.000 824.000 247.000 135 145 161
325.000 825.000 247.000 126 132 147
324.000 826.000 246.000 130 134 146
324.000 827.000 246.000 131 136 148
325.000 826.000 246.000 125 129 141
325.000 826.000 247.000 126 129 141
325.000 827.000 246.000 124 130 143
326.000 824.000 247.000 128 137 155
326.000 825.000 247.000 119 125 140
327.000 824.000 247.000 119 128 144
327.000 825.000 247.000 119 125 138
327.000 827.000 245.000 129 135 150
326.000 826.000 246.000 122 127 140
326.000 826.000 247.000 122 127 140
326.000 827.000 246.000 123 128 141
327.000 826.000 246.000 124 130 143
327.000 826.000 247.000 123 129 141
327.000 827.000 246.000 126 132 146
325.000 831.000 243.000 123 128 141
326.000 831.000 243.000 131 135 148
327.000 831.000 243.000 131 137 151
324.000 828.000 245.000 130 135 146
324.000 829.000 245.000 129 133 145
325.000 828.000 245.000 128 133 146
325.000 829.000 245.000 133 136 149
325.000 828.000 246.000 128 133 145
324.000 830.000 244.000 126 130 143
325.000 830.000 244.000 132 136 147
326.000 828.000 245.000 127 132 144
326.000 829.000 244.000 133 137 150
326.000 829.000 245.000 134 138 150
327.000 828.000 245.000 129 134 149
327.000 829.000 244.000 131 136 150
327.000 829.000 245.000 131 136 150
326.000 830.000 244.000 134 138 151
327.000 830.000 244.000 130 137 152
322.000 824.000 248.000 130 135 149
323.000 824.000 248.000 133 138 152
324.000 824.000 248.000 137 144 160
325.000 824.000 248.000 143 153 171
328.000 823.000 247.000 130 137 151
329.000 823.000 247.000 122 127 140
330.000 822.000 247.000 123 128 141
330.000 823.000 247.000 119 124 138
331.000 822.000 247.000 128 133 147
331.000 823.000 247.000 120 126 140
333.000 821.000 247.000 168 176 192
332.000 822.000 247.000 139 147 163
332.000 823.000 247.000 130 135 150
333.000 822.000 247.000 158 165 181
333.000 823.000 246.000 137 141 153
333.000 823.000 247.000 145 150 164
334.000 821.000 247.000 153 161 176
335.000 821.000 247.000 133 140 155
334.000 822.000 247.000 154 160 174
334.000 823.000 246.000 138 142 154
334.000 823.000 247.000 146 151 163
335.000 822.000 246.000 137 142 156
335.000 822.000 247.000 137 143 156
335.000 823.000 246.000 139 144 157
335.000 823.000 247.000 141 146 160
328.000 819.000 249.000 121 127 140
329.000 819.000 249.000 127 132 144
328.000 819.000 250.000 119 124 136
330.000 819.000 249.000 128 134 146
331.000 819.000 248.000 134 140 152
331.000 819.000 249.000 133 138 150
328.000 820.000 249.000 122 130 144
328.000 821.000 248.000 141 148 162
328.000 821.000 249.000 138 145 160
329.000 820.000 248.000 125 130 142
329.000 820.000 249.000 123 129 141
329.000 821.000 248.000 129 135 148
328.000 822.000 248.000 153 158 171
328.000 823.000 248.000 147 152 165
329.000 822.000 248.000 131 136 149
329.000 823.000 248.000 128 134 146
330.000 820.000 248.000 128 132 145
330.000 820.000 249.000 126 131 143
330.000 821.000 248.000 128 132 144
331.000 820.000 248.000 131 137 150
331.000 821.000 248.000 131 137 150
330.000 822.000 248.000 125 129 142
331.000 822.000 248.000 129 136 149
332.000 819.000 248.000 138 145 159
332.000 819.000 249.000 135 140 154
333.000 819.000 248.000 133 140 156
333.000 819.000 249.000 134 137 153
334.000 819.000 248.000 132 140 158
335.000 819.000 248.000 131 137 154
332.000 820.000 248.000 147 155 170
332.000 821.000 248.000 149 158 174
333.000 820.000 248.000 152 161 177
333.000 821.000 248.000 166 175 191
334.000 820.000 248.000 141 150 168
334.000 821.000 248.000 149 157 173
335.000 820.000 248.000 133 140 155
328.000 824.000 247.000 117 124 137
328.000 825.000 246.000 118 124 136
328.000 825.000 247.000 119 124 136
329.000 824.000 247.000 117 122 135
329.000 825.000 246.000 118 125 138
329.000 825.000 247.000 117 123 135
328.000 827.000 245.000 136 143 158
329.000 827.000 245.000 137 147 163
328.000 826.000 246.000 124 131 144
328.000 827.000 246.000 134 140 155
329.000 826.000 246.000 122 130 145
329.000 827.000 246.000 131 140 155
330.000 824.000 247.000 114 120 134
330.000 825.000 246.000 116 123 136
331.000 824.000 246.000 120 126 139
331.000 824.000 247.000 118 125 137
331.000 825.000 246.000 121 127 140
330.000 826.000 245.000 126 137 154
330.000 827.000 245.000 144 156 174
331.000 826.000 245.000 130 140 156
331.000 827.000 245.000 149 160 178
330.000 826.000 246.000 119 128 144
331.000 826.000 246.000 118 127 142
328.000 830.000 243.000 149 159 176
328.000 831.000 243.000 133 141 156
329.000 830.000 243.000 155 165 183
329.000 831.000 243.000 136 144 161
330.000 830.000 243.000 153 166 185
330.000 831.000 242.000 133 142 159
330.000 831.000 243.000 136 147 164
331.000 830.000 243.000 165 175 194
331.000 831.000 242.000 138 145 161
331.000 831.000 243.000 146 154 171
328.000 828.000 245.000 133 141 158
328.000 829.000 244.000 129 139 156
328.000 829.000 245.000 128 136 153
329.000 828.000 244.000 151 165 186
329.000 828.000 245.000 148 159 178
329.000 829.000 244.000 151 164 184
328.000 830.000 244.000 136 146 163
329.000 830.000 244.000 163 174 193
330.000 828.000 244.000 152 168 191
330.000 828.000 245.000 157 171 192
330.000 829.000 244.000 159 174 196
331.000 828.000 244.000 156 172 195
331.000 828.000 245.000 155 169 190
331.000 829.000 244.000 158 175 198
330.000 830.000 244.000 160 172 192
332.000 824.000 246.000 124 129 141
332.000 825.000 246.000 127 132 144
333.000 824.000 246.000 130 133 144
333.000 825.000 246.000 128 131 142
332.000 826.000 245.000 129 137 152
332.000 827.000 245.000 140 152 171
333.000 826.000 245.000 125 131 144
333.000 827.000 244.000 122 132 151
333.000 827.000 245.000 122 130 148
332.000 826.000 246.000 126 133 146
334.000 825.000 245.000 129 132 143
335.000 825.000 245.000 133 136 148
334.000 824.000 246.000 131 134 144
334.000 825.000 246.000 131 133 144
335.000 824.000 246.000 138 141 153
334.000 826.000 245.000 127 132 144
334.000 827.000 244.000 122 128 145
335.000 826.000 244.000 130 136 149
335.000 826.000 245.000 130 135 148
335.000 827.000 244.000 126 131 146
332.000 829.000 243.000 156 167 186
333.000 829.000 243.000 135 145 162
333.000 831.000 241.000 124 129 144
332.000 830.000 242.000 126 134 150
332.000 830.000 243.000 149 158 174
332.000 831.000 242.000 136 143 158
333.000 830.000 242.000 124 132 148
333.000 830.000 243.000 127 135 150
333.000 831.000 242.000 127 134 148
334.000 829.000 243.000 120 128 144
335.000 828.000 243.000 121 126 142
335.000 829.000 242.000 127 133 147
335.000 829.000 243.000 125 130 145
334.000 831.000 241.000 123 129 143
335.000 831.000 241.000 130 134 149
334.000 830.000 242.000 126 132 146
334.000 830.000 243.000 124 129 145
334.000 831.000 242.000 127 133 147
335.000 830.000 242.000 127 133 146
332.000 828.000 244.000 150 164 185
332.000 829.000 244.000 163 177 198
333.000 828.000 244.000 130 140 159
333.000 829.000 244.000 145 155 172
334.000 828.000 244.000 118 125 143
335.000 828.000 244.000 122 126 143
338.000 831.000 239.000 135 141 154
339.000 830.000 239.000 132 138 151
339.000 831.000 238.000 130 137 150
339.000 831.000 239.000 133 138 150
341.000 829.000 239.000 126 133 152
341.000 831.000 237.000 132 137 151
340.000 830.000 239.000 127 132 148
340.000 831.000 238.000 129 134 148
341.000 830.000 238.000 148 155 171
341.000 830.000 239.000 129 136 155
341.000 831.000 238.000 135 141 155
342.000 828.000 239.000 125 133 150
342.000 829.000 238.000 145 156 174
342.000 829.000 239.000 128 137 155
343.000 828.000 238.000 128 137 154
343.000 828.000 239.000 127 134 147
343.000 829.000 238.000 133 145 164
342.000 831.000 236.000 125 132 146
342.000 831.000 237.000 128 133 149
343.000 830.000 237.000 141 148 166
343.000 831.000 236.000 123 129 143
343.000 831.000 237.000 124 129 145
342.000 830.000 238.000 158 167 183
342.000 831.000 238.000 139 144 160
343.000 830.000 238.000 161 171 188
349.000 831.000 231.000 149 155 170
351.000 831.000 229.000 141 145 163
350.000 831.000 230.000 143 146 164
350.000 831.000 231.000 151 157 173
351.000 830.000 231.000 155 163 180
351.000 831.000 230.000 145 150 166
351.000 831.000 231.000 150 156 172
344.000 827.000 239.000 128 133 146
345.000 827.000 238.000 130 135 148
345.000 827.000 239.000 130 135 148
347.000 825.000 239.000 130 137 151
346.000 826.000 239.000 132 137 151
346.000 827.000 238.000 127 131 145
346.000 827.000 239.000 129 135 149
347.000 826.000 238.000 131 134 149
347.000 826.000 239.000 131 136 151
347.000 827.000 238.000 127 130 144
344.000 831.000 235.000 127 134 148
345.000 831.000 234.000 132 142 162
345.000 831.000 235.000 126 133 149
347.000 829.000 235.000 173 179 194
347.000 831.000 233.000 154 161 176
346.000 830.000 235.000 142 145 158
346.000 831.000 234.000 140 148 168
346.000 831.000 235.000 132 136 154
347.000 830.000 234.000 135 141 157
347.000 830.000 235.000 160 165 178
347.000 831.000 234.000 140 147 163
344.000 829.000 237.000 131 139 157
345.000 829.000 237.000 130 136 150
344.000 828.000 238.000 128 135 150
344.000 828.000 239.000 127 133 146
344.000 829.000 238.000 125 135 152
345.000 828.000 238.000 128 134 148
345.000 829.000 238.000 128 134 150
344.000 830.000 236.000 125 130 144
344.000 830.000 237.000 126 133 149
344.000 831.000 236.000 123 128 143
345.000 830.000 236.000 127 131 146
345.000 831.000 236.000 128 132 147
346.000 828.000 237.000 129 134 147
346.000 829.000 236.000 140 147 160
346.000 829.000 237.000 132 138 152
347.000 828.000 237.000 131 135 148
347.000 829.000 236.000 147 153 168
346.000 828.000 238.000 128 132 145
346.000 830.000 236.000 130 136 149
348.000 825.000 239.000 131 137 153
349.000 824.000 239.000 132 139 155
349.000 825.000 239.000 130 136 152
348.000 827.000 237.000 127 131 144
349.000 826.000 237.000 141 140 155
349.000 827.000 237.000 127 127 144
348.000 826.000 238.000 125 129 144
348.000 826.000 239.000 126 132 147
348.000 827.000 238.000 126 127 143
349.000 826.000 238.000 132 137 152
350.000 824.000 239.000 137 147 164
350.000 825.000 238.000 151 159 176
350.000 825.000 239.000 145 156 173
351.000 824.000 239.000 163 173 191
351.000 825.000 238.000 170 179 196
350.000 826.000 237.000 151 152 165
350.000 827.000 236.000 133 137 152
350.000 827.000 237.000 135 135 151
351.000 826.000 237.000 153 156 169
351.000 827.000 236.000 138 141 156
351.000 827.000 237.000 137 138 154
350.000 826.000 238.000 163 167 180
351.000 826.000 238.000 166 172 185
348.000 829.000 235.000 166 173 189
349.000 829.000 234.000 132 138 153
349.000 829.000 235.000 139 146 161
348.000 831.000 232.000 146 151 165
348.000 831.000 233.000 144 150 165
349.000 830.000 233.000 141 149 165
349.000 831.000 232.000 145 152 168
349.000 831.000 233.000 138 145 161
348.000 830.000 234.000 140 146 162
348.000 830.000 235.000 166 172 187
348.000 831.000 234.000 144 149 164
349.000 830.000 234.000 133 140 157
351.000 829.000 233.000 147 154 173
350.000 828.000 235.000 133 138 152
350.000 829.000 234.000 132 136 152
350.000 829.000 235.000 135 138 151
351.000 828.000 234.000 133 137 151
351.000 828.000 235.000 134 138 151
351.000 829.000 234.000 134 140 155
350.000 830.000 232.000 148 157 175
350.000 830.000 233.000 141 148 168
350.000 831.000 232.000 152 160 177
351.000 830.000 232.000 153 161 180
351.000 830.000 233.000 144 152 171
350.000 830.000 234.000 138 144 162
348.000 828.000 236.000 134 142 158
348.000 828.000 237.000 128 134 148
348.000 829.000 236.000 154 162 179
349.000 828.000 236.000 127 134 150
349.000 828.000 237.000 124 129 144
349.000 829.000 236.000 136 144 161
350.000 828.000 236.000 131 138 152
351.000 828.000 236.000 135 140 154
339.000 819.000 247.000 127 133 147
336.000 820.000 247.000 137 142 155
336.000 821.000 247.000 135 140 153
337.000 820.000 247.000 129 134 147
337.000 821.000 247.000 131 136 149
336.000 822.000 246.000 133 138 152
336.000 822.000 247.000 132 137 152
336.000 823.000 246.000 132 137 151
337.000 822.000 246.000 133 139 152
337.000 822.000 247.000 132 136 150
337.000 823.000 246.000 134 142 156
338.000 820.000 247.000 129 135 147
338.000 821.000 247.000 132 136 149
339.000 820.000 247.000 130 135 148
339.000 821.000 246.000 129 137 151
339.000 821.000 247.000 131 136 150
338.000 823.000 245.000 162 173 191
339.000 823.000 245.000 171 178 194
338.000 822.000 246.000 139 147 163
338.000 822.000 247.000 131 137 150
338.000 823.000 246.000 150 160 177
339.000 822.000 246.000 147 155 171
339.000 823.000 246.000 167 177 195
340.000 819.000 247.000 127 134 147
341.000 819.000 247.000 124 130 142
342.000 819.000 246.000 122 129 142
342.000 819.000 247.000 121 127 141
343.000 818.000 246.000 120 126 139
343.000 819.000 246.000 119 125 138
342.000 823.000 243.000 154 161 175
343.000 823.000 243.000 139 145 159
340.000 820.000 246.000 128 134 147
340.000 820.000 247.000 129 135 149
340.000 821.000 246.000 129 135 147
341.000 820.000 246.000 127 133 146
341.000 820.000 247.000 128 134 147
341.000 821.000 246.000 128 133 146
340.000 822.000 245.000 149 154 166
340.000 823.000 245.000 152 159 174
341.000 822.000 245.000 129 135 149
341.000 823.000 244.000 136 147 165
341.000 823.000 245.000 136 144 159
340.000 822.000 246.000 140 145 158
341.000 822.000 246.000 131 136 148
342.000 821.000 245.000 124 129 143
343.000 820.000 245.000 121 126 141
343.000 821.000 244.000 125 131 145
343.000 821.000 245.000 125 130 145
342.000 820.000 246.000 123 128 142
342.000 821.000 246.000 123 129 143
343.000 820.000 246.000 121 125 139
342.000 822.000 244.000 127 133 148
342.000 822.000 245.000 125 131 145
342.000 823.000 244.000 137 145 163
343.000 822.000 244.000 125 132 145
343.000 823.000 244.000 129 135 148
336.000 818.000 248.000 129 135 149
336.000 819.000 248.000 131 137 152
337.000 819.000 248.000 127 134 149
338.000 819.000 248.000 126 133 147
339.000 819.000 248.000 126 132 147
336.000 820.000 248.000 134 140 154
337.000 820.000 248.000 129 135 149
340.000 819.000 248.000 125 131 145
336.000 827.000 243.000 136 143 158
337.000 827.000 243.000 155 160 176
338.000 826.000 243.000 172 174 188
338.000 827.000 243.000 160 166 180
339.000 826.000 243.000 153 157 174
339.000 827.000 242.000 132 135 155
339.000 827.000 243.000 142 145 163
336.000 824.000 245.000 137 143 157
336.000 825.000 245.000 136 141 157
337.000 824.000 245.000 135 145 163
337.000 825.000 245.000 143 151 170
336.000 824.000 246.000 136 142 155
337.000 824.000 246.000 132 141 155
336.000 826.000 244.000 136 142 156
336.000 826.000 245.000 135 141 156
336.000 827.000 244.000 131 138 152
337.000 826.000 244.000 151 156 173
337.000 827.000 244.000 146 151 167
338.000 824.000 245.000 154 164 183
338.000 825.000 244.000 155 162 178
338.000 825.000 245.000 155 163 180
339.000 824.000 244.000 152 162 180
339.000 824.000 245.000 163 170 186
339.000 825.000 244.000 158 166 183
338.000 826.000 244.000 162 165 179
339.000 826.000 244.000 161 167 182
336.000 828.000 243.000 130 136 151
336.000 829.000 242.000 128 135 149
336.000 829.000 243.000 127 134 148
337.000 828.000 242.000 133 139 159
337.000 828.000 243.000 139 145 162
337.000 829.000 242.000 129 135 151
336.000 830.000 241.000 132 136 150
336.000 831.000 240.000 139 147 164
336.000 831.000 241.000 133 138 154
337.000 830.000 240.000 135 141 156
337.000 830.000 241.000 131 137 151
337.000 831.000 240.000 138 145 160
336.000 830.000 242.000 131 136 149
337.000 830.000 242.000 130 136 149
338.000 829.000 241.000 130 137 151
339.000 828.000 241.000 130 137 151
339.000 829.000 240.000 130 137 151
339.000 829.000 241.000 128 135 150
338.000 828.000 242.000 131 138 157
338.000 828.000 243.000 142 149 167
338.000 829.000 242.000 129 136 153
339.000 828.000 242.000 129 135 151
338.000 830.000 240.000 138 143 158
338.000 830.000 241.000 134 140 154
338.000 831.000 240.000 138 144 157
339.000 830.000 240.000 129 135 149
339.000 830.000 241.000 130 137 151
340.000 825.000 243.000 158 171 192
341.000 825.000 243.000 157 171 192
340.000 827.000 241.000 128 134 148
341.000 827.000 241.000 144 149 165
340.000 826.000 242.000 135 138 159
340.000 826.000 243.000 142 151 171
340.000 827.000 242.000 130 135 150
341.000 826.000 242.000 136 146 167
341.000 826.000 243.000 149 160 180
341.000 827.000 242.000 134 139 155
342.000 824.000 243.000 159 170 189
342.000 825.000 242.000 153 169 191
342.000 825.000 243.000 145 162 186
343.000 824.000 242.000 170 178 194
343.000 824.000 243.000 159 168 185
343.000 825.000 242.000 157 167 186
342.000 826.000 241.000 159 169 187
342.000 827.000 240.000 126 135 150
342.000 827.000 241.000 154 161 178
343.000 826.000 241.000 142 151 169
343.000 827.000 240.000 127 134 147
343.000 827.000 241.000 133 142 158
342.000 826.000 242.000 144 157 180
343.000 826.000 242.000 164 174 193
340.000 824.000 244.000 151 164 184
340.000 825.000 244.000 151 166 188
341.000 824.000 244.000 152 165 186
342.000 824.000 244.000 142 153 175
340.000 828.000 241.000 129 135 148
340.000 829.000 240.000 128 133 147
341.000 828.000 240.000 130 135 152
341.000 828.000 241.000 132 138 153
341.000 829.000 240.000 123 129 146
340.000 830.000 240.000 128 133 146
342.000 828.000 240.000 132 138 154
344.000 819.000 245.000 121 127 143
345.000 819.000 245.000 126 134 150
344.000 818.000 246.000 123 128 142
344.000 819.000 246.000 121 126 141
345.000 818.000 246.000 125 130 144
345.000 819.000 246.000 121 127 143
347.000 817.000 245.000 123 130 144
346.000 817.000 246.000 122 128 142
347.000 817.000 246.000 122 128 141
346.000 818.000 245.000 127 135 149
346.000 819.000 244.000 142 158 178
346.000 819.000 245.000 133 145 163
347.000 818.000 245.000 127 136 154
347.000 819.000 244.000 141 156 177
347.000 819.000 245.000 128 143 164
346.000 818.000 246.000 125 131 143
344.000 822.000 243.000 124 131 147
344.000 823.000 242.000 138 144 158
344.000 823.000 243.000 129 136 151
345.000 822.000 243.000 120 129 147
345.000 823.000 242.000 132 138 153
345.000 823.000 243.000 126 132 148
346.000 820.000 243.000 152 167 190
346.000 821.000 243.000 135 149 170
347.000 820.000 243.000 148 161 181
347.000 821.000 243.000 139 149 168
346.000 823.000 241.000 139 144 159
347.000 823.000 241.000 138 144 158
346.000 822.000 242.000 130 139 156
346.000 822.000 243.000 125 136 154
346.000 823.000 242.000 133 140 155
347.000 822.000 242.000 128 134 150
347.000 823.000 242.000 133 139 154
344.000 820.000 245.000 122 129 145
344.000 821.000 244.000 124 131 147
344.000 821.000 245.000 126 133 148
345.000 820.000 244.000 132 141 158
345.000 820.000 245.000 124 131 148
345.000 821.000 244.000 128 137 154
344.000 822.000 244.000 123 130 145
346.000 820.000 244.000 147 160 180
346.000 821.000 244.000 134 148 168
347.000 820.000 244.000 150 164 185
348.000 819.000 243.000 161 168 185
349.000 819.000 243.000 150 158 174
348.000 817.000 245.000 134 140 154
349.000 817.000 245.000 136 141 155
348.000 817.000 246.000 125 131 145
348.000 818.000 244.000 162 169 183
348.000 818.000 245.000 146 154 171
348.000 819.000 244.000 162 170 187
348.000 820.000 243.000 143 151 170
348.000 821.000 242.000 124 128 147
348.000 821.000 243.000 128 134 154
349.000 820.000 243.000 135 142 159
349.000 821.000 242.000 120 125 142
348.000 822.000 241.000 131 138 153
348.000 823.000 240.000 135 142 157
348.000 823.000 241.000 136 143 158
349.000 822.000 241.000 126 133 148
349.000 823.000 240.000 131 139 155
349.000 823.000 241.000 130 138 154
348.000 822.000 242.000 125 131 147
349.000 822.000 242.000 122 127 141
350.000 820.000 242.000 124 129 143
350.000 820.000 243.000 131 136 150
350.000 821.000 242.000 121 126 140
350.000 822.000 241.000 125 132 148
350.000 823.000 240.000 139 148 165
351.000 822.000 241.000 127 135 150
351.000 823.000 240.000 148 158 176
350.000 822.000 242.000 121 126 140
344.000 825.000 241.000 130 137 153
345.000 824.000 241.000 136 142 155
345.000 825.000 240.000 133 138 152
345.000 825.000 241.000 133 138 152
344.000 824.000 242.000 156 161 175
344.000 825.000 242.000 151 155 172
345.000 824.000 242.000 136 142 156
344.000 826.000 240.000 132 138 150
344.000 826.000 241.000 127 135 151
344.000 827.000 240.000 131 134 149
345.000 826.000 240.000 135 141 153
346.000 824.000 241.000 139 144 158
346.000 825.000 240.000 134 139 153
346.000 825.000 241.000 136 140 154
347.000 824.000 240.000 139 145 158
347.000 824.000 241.000 139 145 158
347.000 825.000 240.000 135 141 154
346.000 826.000 240.000 134 139 153
348.000 824.000 240.000 136 142 157
348.000 825.000 240.000 132 138 153
349.000 824.000 240.000 133 140 157
352.000 823.000 239.000 161 170 187
353.000 823.000 239.000 148 157 172
354.000 823.000 239.000 138 146 161
355.000 823.000 238.000 135 141 156
353.000 829.000 230.000 139 145 164
353.000 829.000 231.000 149 154 172
352.000 831.000 229.000 144 151 167
353.000 830.000 229.000 144 152 168
352.000 830.000 230.000 147 154 170
352.000 830.000 231.000 155 162 179
353.000 830.000 230.000 143 150 168
353.000 830.000 231.000 153 159 177
354.000 829.000 228.000 139 145 161
354.000 829.000 229.000 141 146 163
354.000 828.000 231.000 148 156 173
354.000 829.000 230.000 140 147 164
354.000 829.000 231.000 146 153 170
355.000 828.000 230.000 150 157 173
355.000 828.000 231.000 155 163 180
355.000 829.000 230.000 144 149 165
354.000 830.000 229.000 143 149 164
356.000 827.000 230.000 170 177 192
356.000 827.000 231.000 161 168 185
357.000 826.000 230.000 151 158 174
357.000 826.000 231.000 149 157 173
357.000 827.000 230.000 150 157 173
357.000 827.000 231.000 156 164 180
358.000 825.000 231.000 135 141 160
358.000 826.000 229.000 141 150 165
356.000 828.000 230.000 159 165 180
356.000 828.000 231.000 161 169 185
352.000 827.000 235.000 136 141 156
353.000 827.000 234.000 126 132 151
353.000 827.000 235.000 134 138 154
354.000 827.000 233.000 140 148 165
355.000 827.000 232.000 156 164 181
355.000 827.000 233.000 149 156 174
354.000 826.000 235.000 133 137 152
354.000 827.000 234.000 127 132 151
354.000 827.000 235.000 128 132 149
355.000 826.000 234.000 129 133 151
355.000 826.000 235.000 133 139 153
355.000 827.000 234.000 133 138 156
353.000 825.000 237.000 155 163 179
352.000 824.000 238.000 167 176 194
352.000 824.000 239.000 165 175 192
352.000 825.000 238.000 170 179 195
353.000 824.000 238.000 153 160 178
353.000 824.000 239.000 150 158 175
353.000 825.000 238.000 163 171 189
352.000 826.000 237.000 160 165 178
352.000 827.000 236.000 141 146 160
353.000 826.000 236.000 141 147 163
353.000 826.000 237.000 147 155 170
353.000 827.000 236.000 139 144 159
354.000 824.000 237.000 136 141 159
354.000 825.000 237.000 139 146 163
355.000 824.000 237.000 136 142 158
355.000 825.000 236.000 138 145 160
355.000 825.000 237.000 138 145 160
354.000 824.000 238.000 138 142 159
355.000 824.000 238.000 134 139 155
354.000 826.000 236.000 137 143 158
355.000 826.000 236.000 136 142 157
352.000 829.000 232.000 169 177 194
352.000 829.000 233.000 160 168 185
353.000 828.000 232.000 151 158 174
353.000 828.000 233.000 151 159 174
353.000 829.000 232.000 164 170 186
353.000 829.000 233.000 167 175 191
352.000 828.000 234.000 131 137 152
352.000 828.000 235.000 135 139 153
352.000 829.000 234.000 138 143 159
353.000 828.000 234.000 131 137 155
352.000 830.000 232.000 163 171 190
354.000 828.000 232.000 143 150 168
354.000 828.000 233.000 140 149 165
355.000 828.000 232.000 149 157 175
357.000 825.000 233.000 135 142 158
356.000 825.000 235.000 134 140 153
356.000 826.000 233.000 142 150 166
356.000 827.000 232.000 155 163 180
356.000 827.000 233.000 147 155 171
357.000 826.000 232.000 146 154 169
357.000 826.000 233.000 140 148 163
357.000 827.000 232.000 148 157 173
356.000 826.000 234.000 127 133 150
356.000 826.000 235.000 131 137 151
357.000 826.000 234.000 123 129 146
358.000 825.000 232.000 131 137 155
356.000 825.000 236.000 140 146 159
352.000 823.000 240.000 145 154 171
353.000 822.000 240.000 137 143 159
353.000 823.000 240.000 145 153 169
326.000 836.000 239.000 120 125 138
326.000 837.000 238.000 119 127 142
326.000 837.000 239.000 120 125 140
327.000 836.000 239.000 118 124 138
327.000 837.000 238.000 145 153 169
327.000 837.000 239.000 118 126 142
327.000 838.000 237.000 169 176 192
327.000 839.000 236.000 143 147 161
327.000 839.000 237.000 153 158 172
327.000 838.000 238.000 160 168 183
326.000 843.000 231.000 128 135 152
327.000 843.000 230.000 168 177 194
327.000 843.000 231.000 151 160 177
327.000 845.000 225.000 128 136 151
326.000 845.000 226.000 117 126 141
326.000 845.000 227.000 117 124 141
327.000 844.000 227.000 125 130 150
327.000 845.000 226.000 125 131 147
327.000 845.000 227.000 121 126 145
325.000 845.000 228.000 121 127 141
326.000 844.000 229.000 120 126 142
326.000 845.000 228.000 119 125 142
327.000 844.000 228.000 132 140 159
327.000 844.000 229.000 129 139 156
327.000 845.000 228.000 119 126 146
326.000 844.000 230.000 125 132 147
327.000 844.000 230.000 146 155 171
326.000 841.000 235.000 121 125 139
327.000 840.000 235.000 106 112 130
327.000 841.000 234.000 126 131 148
327.000 841.000 235.000 118 123 141
326.000 842.000 233.000 134 139 154
326.000 843.000 232.000 129 133 150
327.000 842.000 232.000 136 143 161
327.000 842.000 233.000 133 138 155
327.000 843.000 232.000 136 143 161
326.000 842.000 234.000 130 135 150
327.000 842.000 234.000 124 128 146
326.000 840.000 236.000 134 135 148
327.000 840.000 236.000 126 128 143
332.000 839.000 231.000 144 143 160
333.000 839.000 230.000 137 138 153
333.000 839.000 231.000 143 143 158
335.000 839.000 229.000 141 149 165
334.000 839.000 230.000 141 145 159
334.000 839.000 231.000 146 148 162
335.000 838.000 231.000 140 145 160
335.000 839.000 230.000 137 141 158
335.000 839.000 231.000 139 144 157
328.000 835.000 239.000 128 132 146
329.000 835.000 239.000 127 133 148
330.000 835.000 239.000 136 141 155
331.000 834.000 239.000 135 140 155
331.000 835.000 238.000 137 142 156
331.000 835.000 239.000 139 143 158
329.000 839.000 235.000 113 120 135
331.000 839.000 233.000 134 144 161
330.000 839.000 234.000 138 144 159
330.000 839.000 235.000 115 122 139
331.000 838.000 235.000 113 118 137
331.000 839.000 234.000 132 141 157
331.000 839.000 235.000 112 120 138
328.000 837.000 237.000 152 160 177
329.000 837.000 237.000 161 169 184
328.000 836.000 239.000 124 131 146
328.000 837.000 238.000 154 162 177
328.000 837.000 239.000 137 145 160
329.000 836.000 238.000 133 139 152
329.000 836.000 239.000 131 137 150
329.000 837.000 238.000 143 148 164
328.000 838.000 237.000 156 166 183
328.000 839.000 236.000 130 136 152
328.000 839.000 237.000 157 163 180
329.000 838.000 236.000 134 141 156
329.000 838.000 237.000 152 159 175
329.000 839.000 236.000 126 132 147
328.000 838.000 238.000 168 176 193
330.000 837.000 237.000 131 138 152
331.000 837.000 236.000 130 132 145
331.000 837.000 237.000 129 132 145
330.000 836.000 238.000 133 137 153
330.000 837.000 238.000 128 133 150
331.000 836.000 238.000 133 137 153
330.000 838.000 236.000 126 130 144
330.000 839.000 236.000 120 126 140
331.000 838.000 236.000 126 128 143
333.000 833.000 239.000 132 139 155
333.000 835.000 237.000 140 148 164
332.000 834.000 239.000 135 141 157
332.000 835.000 238.000 137 143 158
332.000 835.000 239.000 138 143 158
333.000 834.000 238.000 143 148 162
333.000 834.000 239.000 139 144 160
333.000 835.000 238.000 138 144 160
334.000 833.000 239.000 146 149 166
335.000 833.000 239.000 150 157 173
334.000 835.000 237.000 139 146 161
335.000 834.000 237.000 146 148 160
335.000 835.000 237.000 143 146 161
334.000 834.000 238.000 152 156 171
334.000 834.000 239.000 151 155 171
334.000 835.000 238.000 136 144 159
335.000 834.000 238.000 154 158 172
332.000 837.000 235.000 130 134 153
333.000 837.000 235.000 136 143 161
332.000 839.000 232.000 148 151 168
332.000 839.000 233.000 143 152 171
333.000 838.000 233.000 161 169 187
333.000 839.000 232.000 154 156 171
333.000 839.000 233.000 152 159 178
332.000 838.000 234.000 136 147 167
332.000 838.000 235.000 118 125 145
332.000 839.000 234.000 137 148 167
333.000 838.000 234.000 147 159 177
333.000 838.000 235.000 121 130 153
335.000 837.000 233.000 146 155 172
334.000 837.000 234.000 146 157 175
334.000 837.000 235.000 149 155 172
335.000 836.000 235.000 125 130 149
335.000 837.000 234.000 144 153 173
335.000 837.000 235.000 130 137 157
334.000 838.000 232.000 170 174 188
334.000 838.000 233.000 169 176 193
334.000 839.000 232.000 160 163 177
335.000 838.000 232.000 154 160 175
335.000 838.000 233.000 163 170 186
334.000 838.000 234.000 164 175 192
332.000 836.000 237.000 145 151 165
332.000 837.000 236.000 143 146 160
332.000 837.000 237.000 141 146 158
333.000 836.000 236.000 173 177 190
333.000 836.000 237.000 159 165 180
333.000 837.000 236.000 160 165 178
332.000 836.000 238.000 135 141 156
332.000 838.000 236.000 131 133 148
334.000 836.000 236.000 164 168 182
334.000 836.000 237.000 155 161 176
334.000 837.000 236.000 162 167 181
335.000 836.000 236.000 138 141 156
329.000 843.000 226.000 158 165 184
329.000 843.000 227.000 171 181 200
330.000 843.000 225.000 144 147 164
330.000 842.000 227.000 162 172 191
330.000 843.000 226.000 146 152 170
330.000 843.000 227.000 162 172 191
331.000 842.000 226.000 148 154 169
331.000 842.000 227.000 153 160 177
329.000 841.000 231.000 154 166 185
328.000 843.000 228.000 168 180 201
328.000 843.000 229.000 165 177 198
329.000 842.000 229.000 164 179 201
329.000 843.000 228.000 175 188 209
329.000 843.000 229.000 165 180 202
328.000 842.000 230.000 163 176 196
328.000 842.000 231.000 140 152 171
328.000 843.000 230.000 169 180 200
328.000 843.000 231.000 156 166 185
329.000 842.000 230.000 162 175 195
329.000 842.000 231.000 141 154 174
331.000 841.000 229.000 144 152 168
330.000 841.000 230.000 151 162 181
330.000 841.000 231.000 156 165 182
331.000 840.000 231.000 146 153 169
331.000 841.000 230.000 142 151 168
331.000 841.000 231.000 148 157 173
330.000 842.000 228.000 166 178 198
330.000 842.000 229.000 163 174 194
330.000 843.000 228.000 172 185 205
331.000 842.000 228.000 156 163 180
331.000 842.000 229.000 156 164 181
330.000 842.000 230.000 160 171 190
328.000 844.000 225.000 126 129 145
328.000 844.000 226.000 131 133 153
328.000 844.000 227.000 142 149 169
328.000 844.000 228.000 164 172 193
328.000 844.000 229.000 161 171 191
332.000 841.000 227.000 144 150 165
333.000 841.000 226.000 145 150 166
333.000 841.000 227.000 146 151 168
332.000 842.000 227.000 148 154 168
334.000 840.000 227.000 148 156 173
334.000 841.000 227.000 147 153 171
335.000 840.000 227.000 156 165 181
332.000 840.000 229.000 134 140 154
332.000 841.000 228.000 143 149 164
332.000 841.000 229.000 137 144 159
333.000 840.000 228.000 142 149 164
333.000 840.000 229.000 136 141 157
333.000 841.000 228.000 143 150 165
332.000 840.000 230.000 136 139 156
332.000 840.000 231.000 142 143 161
332.000 841.000 230.000 138 145 161
333.000 840.000 230.000 135 137 153
332.000 842.000 228.000 147 153 168
334.000 840.000 228.000 144 152 169
334.000 840.000 229.000 141 148 163
335.000 840.000 228.000 149 159 176
335.000 840.000 229.000 142 151 166
334.000 840.000 230.000 140 145 159
328.000 841.000 233.000 131 134 150
329.000 840.000 233.000 140 145 159
329.000 841.000 232.000 147 155 171
329.000 841.000 233.000 146 149 163
328.000 840.000 235.000 115 121 138
328.000 841.000 234.000 131 137 153
329.000 840.000 234.000 138 144 159
329.000 840.000 235.000 117 124 139
328.000 842.000 232.000 140 147 166
328.000 842.000 233.000 138 143 159
329.000 842.000 232.000 139 148 167
330.000 840.000 232.000 149 157 173
330.000 840.000 233.000 143 150 165
330.000 841.000 232.000 152 160 176
331.000 840.000 232.000 149 155 171
331.000 840.000 233.000 140 149 166
330.000 840.000 234.000 139 145 159
328.000 840.000 236.000 121 124 139
332.000 840.000 232.000 147 151 168
325.000 832.000 243.000 122 128 142
325.000 835.000 240.000 123 128 142
325.000 835.000 241.000 126 131 144
326.000 833.000 241.000 149 154 168
327.000 833.000 241.000 163 169 184
326.000 832.000 242.000 125 132 146
326.000 832.000 243.000 127 133 146
326.000 833.000 242.000 132 139 153
327.000 832.000 242.000 130 138 152
327.000 832.000 243.000 131 137 150
327.000 833.000 242.000 144 151 166
326.000 834.000 241.000 138 140 155
326.000 835.000 240.000 121 125 139
326.000 835.000 241.000 125 126 141
327.000 834.000 240.000 133 135 151
327.000 834.000 241.000 140 143 159
327.000 835.000 240.000 122 125 140
326.000 836.000 240.000 123 128 141
327.000 836.000 240.000 121 126 140
328.000 833.000 241.000 150 156 171
329.000 833.000 241.000 129 136 150
328.000 832.000 242.000 133 140 154
328.000 833.000 242.000 145 152 167
329.000 832.000 242.000 133 140 154
328.000 834.000 240.000 132 135 150
328.000 834.000 241.000 143 146 162
328.000 835.000 240.000 126 130 145
329.000 834.000 240.000 125 130 146
329.000 835.000 240.000 124 129 144
330.000 832.000 241.000 137 143 157
330.000 833.000 240.000 132 137 153
330.000 833.000 241.000 135 141 156
331.000 832.000 241.000 137 143 158
331.000 833.000 240.000 134 139 154
331.000 833.000 241.000 134 141 155
330.000 832.000 242.000 139 146 161
331.000 832.000 242.000 136 144 158
330.000 834.000 240.000 130 136 152
331.000 834.000 240.000 132 138 153
332.000 832.000 241.000 132 138 152
332.000 833.000 240.000 135 141 155
332.000 833.000 241.000 139 144 158
333.000 832.000 241.000 125 130 145
333.000 833.000 240.000 131 137 151
332.000 832.000 242.000 135 141 156
332.000 834.000 240.000 135 141 157
334.000 832.000 240.000 131 137 150
334.000 832.000 241.000 124 130 143
334.000 833.000 240.000 138 143 158
335.000 832.000 240.000 141 146 163
335.000 832.000 241.000 134 139 154
335.000 833.000 240.000 143 147 164
337.000 839.000 227.000 156 163 179
338.000 839.000 227.000 142 149 167
339.000 838.000 227.000 153 156 174
337.000 837.000 231.000 136 142 158
336.000 839.000 228.000 168 177 194
336.000 839.000 229.000 149 158 174
337.000 838.000 229.000 151 160 176
337.000 839.000 228.000 161 169 185
337.000 839.000 229.000 155 164 181
336.000 838.000 230.000 132 138 155
336.000 838.000 231.000 132 138 154
336.000 839.000 230.000 136 143 159
337.000 838.000 230.000 139 145 162
337.000 838.000 231.000 134 140 156
339.000 837.000 229.000 141 147 162
338.000 837.000 230.000 143 149 165
338.000 837.000 231.000 139 145 160
339.000 836.000 231.000 131 135 151
339.000 837.000 230.000 141 147 162
339.000 837.000 231.000 135 140 155
338.000 838.000 228.000 143 150 165
338.000 838.000 229.000 151 158 174
338.000 839.000 228.000 144 151 167
339.000 838.000 228.000 148 152 168
339.000 838.000 229.000 145 151 166
338.000 838.000 230.000 145 152 168
339.000 838.000 230.000 146 153 168
341.000 835.000 231.000 138 143 157
343.000 835.000 229.000 124 131 151
342.000 835.000 230.000 128 131 147
342.000 835.000 231.000 134 136 151
343.000 834.000 231.000 137 139 156
343.000 835.000 230.000 130 134 153
343.000 835.000 231.000 135 137 153
341.000 837.000 227.000 162 171 188
340.000 837.000 228.000 156 160 176
340.000 837.000 229.000 143 148 163
341.000 836.000 229.000 143 149 164
341.000 837.000 228.000 158 165 180
341.000 837.000 229.000 146 153 167
340.000 836.000 230.000 140 147 162
340.000 836.000 231.000 137 143 157
340.000 837.000 230.000 138 145 160
341.000 836.000 230.000 140 146 161
341.000 836.000 231.000 140 146 160
341.000 837.000 230.000 139 146 161
342.000 836.000 228.000 145 153 168
342.000 836.000 229.000 139 147 162
342.000 837.000 228.000 156 163 179
343.000 836.000 228.000 132 141 156
343.000 836.000 229.000 129 137 154
342.000 836.000 230.000 132 138 154
343.000 836.000 230.000 127 135 152
337.000 835.000 235.000 119 124 138
338.000 835.000 234.000 140 144 156
338.000 835.000 235.000 120 126 139
339.000 834.000 235.000 121 126 138
339.000 835.000 234.000 141 146 159
339.000 835.000 235.000 123 128 140
337.000 833.000 237.000 133 139 152
336.000 832.000 239.000 160 170 187
336.000 833.000 238.000 154 160 175
336.000 833.000 239.000 158 167 185
337.000 832.000 239.000 140 148 164
337.000 833.000 238.000 136 143 158
336.000 834.000 237.000 137 141 153
336.000 835.000 236.000 128 130 144
336.000 835.000 237.000 134 136 150
337.000 834.000 237.000 135 140 153
337.000 835.000 236.000 132 136 148
336.000 834.000 238.000 149 153 166
338.000 833.000 237.000 134 140 153
339.000 832.000 237.000 128 134 147
339.000 833.000 236.000 129 132 144
339.000 833.000 237.000 130 135 149
338.000 832.000 238.000 135 142 156
338.000 832.000 239.000 135 142 155
338.000 833.000 238.000 134 141 155
339.000 832.000 238.000 131 137 151
338.000 834.000 236.000 134 137 149
338.000 834.000 237.000 135 139 151
338.000 835.000 236.000 132 135 148
339.000 834.000 236.000 130 133 145
339.000 834.000 237.000 136 141 152
336.000 837.000 232.000 136 144 161
336.000 837.000 233.000 128 138 156
337.000 837.000 232.000 136 143 158
337.000 837.000 233.000 137 142 159
336.000 836.000 234.000 121 129 148
336.000 836.000 235.000 111 117 136
336.000 837.000 234.000 127 136 156
337.000 836.000 234.000 132 139 154
337.000 836.000 235.000 108 115 131
336.000 838.000 232.000 133 141 158
338.000 836.000 233.000 137 142 157
338.000 837.000 232.000 141 146 161
338.000 837.000 233.000 140 145 160
339.000 836.000 232.000 138 143 158
339.000 836.000 233.000 138 144 158
339.000 837.000 232.000 140 146 161
338.000 836.000 234.000 140 145 158
339.000 836.000 234.000 142 148 161
336.000 836.000 236.000 124 127 142
341.000 833.000 235.000 121 125 139
340.000 835.000 233.000 132 138 150
341.000 835.000 232.000 144 148 160
341.000 835.000 233.000 137 141 153
340.000 834.000 234.000 127 132 147
340.000 834.000 235.000 118 122 136
340.000 835.000 234.000 138 144 157
341.000 834.000 234.000 129 135 149
341.000 834.000 235.000 113 117 132
341.000 835.000 234.000 138 143 156
343.000 833.000 233.000 152 158 174
342.000 832.000 235.000 125 130 146
342.000 833.000 234.000 124 130 146
342.000 833.000 235.000 120 125 141
343.000 832.000 234.000 144 152 167
343.000 832.000 235.000 126 132 149
343.000 833.000 234.000 150 155 170
343.000 833.000 235.000 120 127 145
342.000 834.000 233.000 133 136 150
342.000 835.000 232.000 140 142 154
342.000 835.000 233.000 135 139 151
343.000 834.000 232.000 147 148 163
343.000 834.000 233.000 142 143 159
343.000 835.000 232.000 143 144 157
342.000 834.000 234.000 137 142 157
343.000 834.000 234.000 139 143 158
340.000 832.000 237.000 127 132 145
340.000 833.000 236.000 127 131 143
340.000 833.000 237.000 126 131 143
341.000 832.000 236.000 129 134 147
341.000 832.000 237.000 129 135 148
341.000 833.000 236.000 127 131 143
340.000 832.000 238.000 128 134 147
340.000 834.000 236.000 125 128 139
342.000 832.000 236.000 126 132 146
343.000 832.000 236.000 125 130 146
340.000 836.000 232.000 139 142 156
340.000 836.000 233.000 131 136 150
341.000 836.000 232.000 144 149 161
336.000 840.000 227.000 170 177 193
337.000 840.000 227.000 160 167 183
336.000 840.000 228.000 165 174 191
345.000 833.000 231.000 163 167 183
344.000 835.000 228.000 134 141 156
344.000 835.000 229.000 131 137 155
345.000 834.000 229.000 144 148 162
345.000 835.000 229.000 141 146 161
344.000 834.000 230.000 136 136 158
344.000 834.000 231.000 142 145 163
344.000 835.000 230.000 134 136 158
345.000 834.000 230.000 146 148 165
345.000 834.000 231.000 153 154 173
347.000 833.000 229.000 143 146 163
346.000 833.000 230.000 143 147 163
346.000 833.000 231.000 147 153 170
347.000 832.000 231.000 150 154 170
347.000 833.000 230.000 144 148 164
347.000 833.000 231.000 143 149 164
346.000 834.000 229.000 143 147 163
347.000 834.000 229.000 141 146 163
346.000 834.000 230.000 146 149 164
348.000 833.000 229.000 143 147 162
349.000 832.000 228.000 144 148 164
349.000 832.000 229.000 146 149 165
349.000 833.000 229.000 144 148 163
348.000 832.000 230.000 150 154 170
348.000 832.000 231.000 152 156 171
348.000 833.000 230.000 147 151 167
349.000 832.000 230.000 145 149 165
349.000 832.000 231.000 149 154 170
350.000 832.000 229.000 142 144 163
350.000 832.000 230.000 143 146 163
344.000 833.000 232.000 174 182 198
344.000 833.000 233.000 173 181 198
345.000 832.000 233.000 171 180 199
345.000 833.000 232.000 175 182 198
345.000 833.000 233.000 177 185 203
344.000 832.000 234.000 148 156 172
344.000 832.000 235.000 126 135 149
344.000 833.000 234.000 166 174 190
345.000 832.000 234.000 152 163 181
344.000 834.000 232.000 161 167 183
346.000 832.000 232.000 160 168 184
346.000 832.000 233.000 169 178 195
346.000 833.000 232.000 166 174 191
347.000 832.000 232.000 153 157 172
347.000 832.000 233.000 160 166 182
346.000 832.000 234.000 162 172 191
348.000 832.000 232.000 150 155 169
336.000 832.000 240.000 146 154 171
