ply
format ascii 1.0
element vertex 460
property float x
property float y
property float z
property uchar red
property uchar green
property uchar blue
end_header
63.000 31.000 171.000 85 77 73
62.000 43.000 175.000 63 59 56
63.000 42.000 174.000 60 56 55
63.000 44.000 174.000 62 58 55
63.000 45.000 174.000 64 58 55
59.000 46.000 179.000 69 62 57
57.000 45.000 181.000 71 63 58
57.000 46.000 181.000 73 64 58
57.000 47.000 181.000 74 65 59
56.000 46.000 183.000 77 68 62
56.000 47.000 183.000 78 69 62
57.000 46.000 182.000 74 66 60
57.000 47.000 182.000 76 67 61
58.000 47.000 180.000 71 63 57
58.000 47.000 181.000 72 63 57
60.000 43.000 177.000 64 59 56
61.000 43.000 176.000 63 58 56
61.000 44.000 176.000 65 60 57
62.000 46.000 176.000 67 60 56
56.000 48.000 183.000 79 69 62
56.000 49.000 183.000 79 69 61
57.000 48.000 182.000 77 67 60
57.000 48.000 183.000 78 69 62
57.000 49.000 183.000 78 68 61
56.000 50.000 183.000 78 68 60
56.000 51.000 183.000 78 68 60
57.000 51.000 182.000 77 67 60
57.000 51.000 183.000 77 67 60
58.000 48.000 181.000 74 65 58
59.000 48.000 180.000 73 64 59
59.000 49.000 180.000 74 66 60
59.000 50.000 180.000 75 67 61
59.000 52.000 181.000 73 65 59
59.000 53.000 181.000 72 64 59
58.000 52.000 182.000 75 67 60
58.000 54.000 183.000 70 63 58
58.000 55.000 183.000 67 61 57
59.000 54.000 182.000 69 62 58
59.000 55.000 182.000 66 61 58
60.000 50.000 179.000 73 65 59
62.000 54.000 179.000 66 62 60
63.000 54.000 178.000 66 62 60
60.000 52.000 180.000 73 65 59
60.000 53.000 180.000 70 63 58
60.000 55.000 181.000 66 61 60
61.000 55.000 180.000 64 61 60
58.000 56.000 183.000 61 57 55
58.000 57.000 183.000 57 55 56
59.000 56.000 182.000 61 58 57
59.000 57.000 182.000 58 57 59
59.000 57.000 183.000 58 58 60
59.000 58.000 183.000 64 66 69
63.000 58.000 179.000 70 72 77
60.000 57.000 181.000 58 59 62
61.000 56.000 180.000 60 58 59
60.000 57.000 182.000 58 58 61
61.000 58.000 181.000 66 69 73
61.000 59.000 181.000 77 80 86
60.000 58.000 182.000 66 68 72
60.000 59.000 182.000 75 78 84
61.000 60.000 181.000 81 85 92
60.000 60.000 183.000 79 83 90
60.000 61.000 183.000 79 84 92
60.000 62.000 183.000 81 87 95
61.000 62.000 182.000 81 87 95
59.000 61.000 184.000 81 86 94
61.000 64.000 182.000 78 84 92
61.000 64.000 183.000 77 83 91
61.000 65.000 183.000 76 82 90
61.000 66.000 183.000 75 81 89
63.000 64.000 181.000 78 84 92
63.000 65.000 181.000 77 82 90
62.000 64.000 182.000 79 84 92
62.000 65.000 182.000 77 82 90
63.000 66.000 181.000 76 81 89
63.000 67.000 181.000 74 80 87
62.000 66.000 182.000 75 81 89
62.000 66.000 183.000 74 80 88
62.000 67.000 182.000 75 80 88
62.000 67.000 183.000 75 81 89
63.000 71.000 179.000 62 65 70
61.000 68.000 183.000 73 79 86
61.000 69.000 183.000 69 74 81
61.000 70.000 183.000 64 69 75
61.000 71.000 183.000 62 66 71
62.000 68.000 181.000 72 77 84
62.000 69.000 181.000 69 74 81
63.000 68.000 181.000 73 78 85
63.000 69.000 181.000 69 74 80
62.000 70.000 181.000 63 67 73
62.000 71.000 181.000 61 65 70
63.000 70.000 181.000 64 69 75
63.000 71.000 180.000 61 65 70
62.000 70.000 182.000 64 69 75
61.000 67.000 184.000 75 81 89
61.000 68.000 184.000 74 79 86
61.000 69.000 184.000 69 75 82
63.000 72.000 179.000 60 63 67
61.000 73.000 181.000 53 55 58
61.000 74.000 181.000 49 51 54
62.000 72.000 181.000 59 62 66
63.000 72.000 180.000 60 63 68
62.000 74.000 180.000 51 52 55
62.000 76.000 179.000 45 50 57
67.000 27.000 167.000 67 62 60
67.000 28.000 167.000 71 65 61
67.000 29.000 167.000 76 69 64
67.000 30.000 167.000 81 73 68
67.000 31.000 167.000 81 73 69
71.000 26.000 163.000 63 60 59
71.000 27.000 163.000 64 60 59
69.000 26.000 166.000 64 60 59
71.000 24.000 164.000 61 59 59
71.000 25.000 164.000 62 60 59
70.000 26.000 164.000 62 60 59
70.000 26.000 165.000 62 59 59
70.000 27.000 164.000 65 61 59
71.000 26.000 164.000 63 60 59
71.000 28.000 163.000 65 61 59
71.000 29.000 163.000 68 62 58
71.000 30.000 163.000 73 66 61
71.000 31.000 163.000 79 71 65
68.000 29.000 166.000 74 67 62
68.000 30.000 166.000 80 71 66
68.000 31.000 166.000 80 72 67
70.000 28.000 164.000 67 62 59
70.000 29.000 164.000 70 64 59
65.000 26.000 169.000 68 63 61
65.000 27.000 169.000 72 65 61
66.000 26.000 168.000 66 62 60
66.000 27.000 168.000 69 64 60
65.000 28.000 169.000 75 68 63
65.000 29.000 169.000 80 72 67
65.000 31.000 169.000 82 75 70
64.000 31.000 170.000 83 76 71
65.000 31.000 170.000 83 75 70
66.000 28.000 168.000 74 67 62
66.000 29.000 168.000 78 70 66
66.000 30.000 168.000 82 74 69
66.000 31.000 168.000 82 74 69
72.000 25.000 163.000 61 59 59
73.000 25.000 163.000 61 59 59
72.000 26.000 163.000 62 60 59
72.000 27.000 163.000 63 60 59
73.000 26.000 162.000 62 59 59
73.000 26.000 163.000 62 60 59
73.000 27.000 162.000 63 60 58
74.000 26.000 162.000 62 59 59
74.000 27.000 162.000 62 59 57
72.000 24.000 164.000 60 59 60
73.000 24.000 164.000 60 59 60
72.000 29.000 162.000 67 62 58
73.000 28.000 162.000 63 59 58
73.000 31.000 161.000 76 68 62
72.000 30.000 162.000 71 65 59
72.000 31.000 162.000 77 69 62
74.000 28.000 161.000 64 60 57
74.000 29.000 161.000 67 62 58
75.000 28.000 161.000 64 59 57
74.000 30.000 161.000 72 65 60
74.000 31.000 161.000 76 68 62
75.000 31.000 160.000 76 67 61
76.000 27.000 161.000 62 59 58
78.000 30.000 160.000 71 65 60
80.000 32.000 159.000 82 72 65
67.000 32.000 167.000 75 67 63
67.000 33.000 167.000 65 59 54
71.000 32.000 163.000 83 74 68
71.000 33.000 163.000 82 74 68
69.000 32.000 165.000 79 71 66
69.000 33.000 165.000 72 65 60
68.000 32.000 166.000 75 68 63
68.000 33.000 166.000 69 62 58
68.000 35.000 167.000 55 52 50
70.000 32.000 165.000 79 71 66
70.000 33.000 164.000 79 71 66
70.000 33.000 165.000 72 65 59
71.000 33.000 164.000 75 67 61
70.000 34.000 165.000 61 55 50
70.000 35.000 165.000 57 52 49
71.000 34.000 164.000 68 61 55
65.000 32.000 169.000 75 67 62
65.000 33.000 169.000 65 59 55
64.000 32.000 170.000 73 67 63
65.000 34.000 170.000 56 53 52
66.000 32.000 168.000 74 66 61
66.000 33.000 169.000 63 57 54
66.000 34.000 169.000 56 53 52
66.000 35.000 169.000 55 53 52
67.000 36.000 169.000 56 53 52
67.000 37.000 169.000 55 53 51
66.000 37.000 170.000 55 53 52
67.000 38.000 169.000 55 52 51
66.000 38.000 170.000 55 52 51
64.000 39.000 172.000 56 53 52
68.000 36.000 168.000 56 53 52
68.000 37.000 168.000 55 52 51
67.000 40.000 170.000 56 53 52
67.000 41.000 170.000 56 53 52
66.000 42.000 171.000 57 54 53
66.000 43.000 171.000 59 55 54
67.000 42.000 171.000 57 53 52
67.000 43.000 171.000 57 54 53
64.000 41.000 173.000 58 55 54
65.000 41.000 172.000 58 54 53
64.000 42.000 173.000 60 56 54
64.000 43.000 173.000 61 56 54
65.000 42.000 172.000 59 55 54
65.000 42.000 173.000 59 56 54
65.000 43.000 172.000 60 56 55
66.000 42.000 172.000 58 55 54
69.000 42.000 169.000 56 53 52
69.000 43.000 169.000 57 53 52
68.000 42.000 170.000 56 53 52
68.000 43.000 170.000 57 53 52
69.000 42.000 170.000 56 53 52
69.000 43.000 170.000 56 53 52
70.000 42.000 169.000 56 53 52
70.000 43.000 169.000 56 53 52
71.000 42.000 168.000 56 53 52
71.000 43.000 168.000 57 54 52
71.000 43.000 169.000 56 53 52
73.000 33.000 161.000 84 76 70
72.000 32.000 162.000 81 72 66
72.000 33.000 162.000 84 76 70
72.000 33.000 163.000 81 73 68
73.000 33.000 162.000 85 77 71
72.000 34.000 163.000 74 66 60
73.000 34.000 162.000 79 71 66
73.000 34.000 163.000 73 65 60
73.000 35.000 163.000 66 59 54
74.000 32.000 161.000 80 71 64
74.000 33.000 161.000 86 76 71
75.000 32.000 160.000 80 71 64
74.000 34.000 161.000 86 78 73
75.000 34.000 161.000 87 78 73
74.000 34.000 162.000 81 73 68
72.000 34.000 164.000 67 60 54
75.000 36.000 162.000 63 56 50
76.000 34.000 160.000 90 80 73
78.000 35.000 160.000 90 82 77
76.000 36.000 161.000 66 59 53
77.000 36.000 161.000 67 60 54
77.000 37.000 161.000 59 54 50
76.000 37.000 162.000 59 54 50
76.000 38.000 162.000 59 54 52
76.000 38.000 163.000 59 55 53
76.000 39.000 163.000 58 55 53
77.000 38.000 162.000 59 55 53
77.000 39.000 162.000 59 55 53
77.000 39.000 163.000 58 55 54
78.000 36.000 161.000 69 62 56
78.000 37.000 161.000 60 54 50
79.000 37.000 161.000 60 54 50
79.000 38.000 161.000 58 54 52
78.000 38.000 162.000 59 55 53
78.000 39.000 162.000 58 55 54
72.000 43.000 167.000 57 54 52
73.000 43.000 167.000 57 54 52
72.000 44.000 167.000 57 53 52
73.000 44.000 167.000 57 54 52
73.000 45.000 167.000 57 54 53
73.000 46.000 167.000 57 53 52
74.000 44.000 167.000 57 54 52
75.000 44.000 166.000 57 54 52
75.000 45.000 166.000 57 54 53
75.000 46.000 166.000 57 54 53
77.000 40.000 163.000 58 54 53
78.000 40.000 163.000 58 55 53
79.000 40.000 162.000 59 55 53
79.000 41.000 163.000 58 55 53
79.000 42.000 163.000 58 54 53
76.000 40.000 164.000 58 54 52
77.000 41.000 164.000 58 54 52
76.000 44.000 166.000 57 54 52
76.000 45.000 166.000 57 53 52
77.000 44.000 166.000 57 54 52
77.000 45.000 166.000 57 54 52
79.000 45.000 165.000 58 54 52
78.000 46.000 165.000 58 54 52
78.000 47.000 165.000 58 54 52
79.000 46.000 165.000 58 54 52
72.000 42.000 168.000 57 54 52
72.000 43.000 168.000 57 54 52
72.000 44.000 168.000 57 53 52
67.000 59.000 175.000 81 86 94
67.000 60.000 175.000 83 88 97
67.000 62.000 175.000 83 89 99
67.000 63.000 175.000 79 86 95
71.000 62.000 170.000 82 89 99
71.000 63.000 170.000 79 87 97
68.000 63.000 174.000 81 88 97
79.000 53.000 164.000 61 56 54
75.000 61.000 167.000 87 93 103
75.000 62.000 167.000 87 94 105
78.000 56.000 164.000 58 55 56
78.000 57.000 164.000 58 57 58
79.000 62.000 164.000 91 99 109
73.000 60.000 169.000 86 91 100
74.000 61.000 168.000 86 93 103
64.000 55.000 177.000 64 62 61
64.000 62.000 179.000 83 88 97
64.000 63.000 179.000 81 87 96
67.000 61.000 176.000 83 89 98
66.000 62.000 177.000 81 87 96
66.000 63.000 177.000 80 86 95
67.000 62.000 176.000 83 89 98
67.000 63.000 176.000 79 86 95
64.000 63.000 180.000 81 86 95
80.000 38.000 161.000 58 55 53
80.000 39.000 161.000 59 55 54
80.000 40.000 162.000 59 55 53
83.000 43.000 162.000 59 55 54
81.000 45.000 163.000 59 55 53
81.000 46.000 163.000 59 55 53
81.000 47.000 163.000 59 55 53
82.000 45.000 163.000 59 55 53
82.000 46.000 163.000 59 55 53
82.000 47.000 163.000 59 55 53
83.000 47.000 163.000 60 56 54
80.000 46.000 164.000 58 55 53
80.000 47.000 164.000 59 55 53
81.000 46.000 164.000 59 55 53
81.000 47.000 164.000 59 55 53
82.000 48.000 163.000 60 56 54
82.000 49.000 163.000 60 56 54
83.000 48.000 163.000 61 56 54
83.000 49.000 163.000 61 57 54
82.000 50.000 163.000 61 56 54
82.000 51.000 163.000 61 57 54
83.000 50.000 163.000 61 57 54
83.000 51.000 163.000 61 57 54
82.000 52.000 163.000 61 57 54
82.000 53.000 163.000 62 58 55
83.000 52.000 163.000 62 57 54
83.000 53.000 163.000 62 57 55
82.000 54.000 163.000 62 58 56
82.000 55.000 163.000 63 59 57
84.000 55.000 163.000 62 58 56
81.000 56.000 163.000 60 57 56
81.000 57.000 163.000 58 56 57
82.000 56.000 163.000 61 58 57
83.000 57.000 163.000 58 57 58
83.000 58.000 163.000 59 60 64
83.000 59.000 163.000 68 71 76
81.000 62.000 164.000 87 95 106
83.000 62.000 164.000 88 96 107
84.000 56.000 163.000 60 57 56
84.000 57.000 163.000 58 58 59
84.000 59.000 163.000 69 72 77
84.000 60.000 164.000 84 89 97
85.000 63.000 165.000 89 97 108
67.000 64.000 175.000 78 84 93
67.000 66.000 175.000 75 81 89
67.000 69.000 174.000 70 76 84
67.000 71.000 173.000 66 70 77
66.000 70.000 175.000 67 72 79
66.000 71.000 174.000 62 67 73
66.000 71.000 175.000 64 68 75
71.000 64.000 170.000 78 85 95
71.000 65.000 170.000 77 83 92
68.000 64.000 174.000 78 84 93
68.000 65.000 174.000 78 83 92
68.000 66.000 174.000 76 82 90
68.000 67.000 174.000 76 82 89
69.000 70.000 171.000 74 79 87
69.000 71.000 170.000 71 75 82
68.000 70.000 172.000 72 77 85
67.000 75.000 171.000 58 58 61
65.000 74.000 174.000 55 56 59
65.000 74.000 175.000 54 55 58
65.000 75.000 174.000 53 54 57
65.000 75.000 175.000 52 53 57
66.000 73.000 173.000 59 61 65
67.000 76.000 171.000 52 53 57
67.000 77.000 171.000 43 49 56
64.000 78.000 175.000 58 65 73
64.000 79.000 175.000 58 65 74
69.000 74.000 169.000 60 60 63
69.000 75.000 169.000 61 60 63
68.000 75.000 170.000 59 60 62
69.000 76.000 169.000 46 48 51
69.000 77.000 169.000 43 46 50
68.000 77.000 170.000 42 46 53
73.000 67.000 167.000 78 84 92
73.000 70.000 167.000 74 79 87
73.000 71.000 167.000 73 78 86
74.000 68.000 166.000 77 84 92
78.000 66.000 164.000 82 89 99
76.000 68.000 165.000 78 84 93
72.000 64.000 169.000 80 87 96
72.000 65.000 169.000 79 86 95
73.000 64.000 168.000 82 89 99
73.000 65.000 168.000 80 87 96
72.000 73.000 167.000 64 67 72
73.000 72.000 167.000 71 76 82
73.000 75.000 166.000 63 62 64
74.000 72.000 166.000 72 76 83
74.000 73.000 166.000 65 69 74
75.000 75.000 165.000 63 63 65
73.000 76.000 166.000 63 62 63
73.000 77.000 166.000 48 49 52
72.000 78.000 167.000 41 47 54
72.000 79.000 167.000 43 51 59
76.000 74.000 165.000 62 64 67
76.000 75.000 165.000 64 64 66
77.000 75.000 165.000 66 65 67
76.000 76.000 165.000 64 63 64
76.000 77.000 165.000 50 51 54
77.000 76.000 165.000 63 62 62
76.000 78.000 165.000 40 44 50
78.000 76.000 165.000 64 63 63
64.000 64.000 179.000 80 86 94
64.000 65.000 179.000 79 85 93
64.000 66.000 179.000 78 83 91
65.000 66.000 178.000 76 82 91
65.000 67.000 178.000 74 80 87
66.000 64.000 177.000 76 83 92
67.000 64.000 176.000 77 83 92
67.000 65.000 176.000 75 81 89
67.000 66.000 176.000 74 80 89
67.000 67.000 176.000 75 80 88
64.000 64.000 180.000 79 85 93
64.000 65.000 180.000 79 85 93
64.000 66.000 180.000 78 83 91
64.000 67.000 180.000 75 80 88
65.000 68.000 177.000 73 78 86
65.000 69.000 177.000 70 75 82
64.000 68.000 179.000 72 77 84
65.000 68.000 178.000 73 78 86
65.000 69.000 178.000 70 75 82
65.000 70.000 177.000 66 71 77
65.000 71.000 177.000 64 68 74
65.000 70.000 178.000 67 71 78
66.000 68.000 176.000 74 79 87
66.000 69.000 176.000 71 76 83
64.000 68.000 180.000 72 77 84
64.000 69.000 180.000 69 73 80
64.000 73.000 176.000 55 57 61
64.000 74.000 176.000 51 52 56
64.000 80.000 175.000 47 57 67
66.000 80.000 173.000 49 59 70
70.000 80.000 169.000 55 63 73
70.000 81.000 169.000 50 60 71
71.000 80.000 168.000 53 61 71
71.000 81.000 168.000 57 66 76
72.000 80.000 167.000 50 58 67
73.000 81.000 167.000 57 65 75
73.000 82.000 167.000 49 59 69
74.000 80.000 166.000 47 54 63
75.000 81.000 166.000 55 63 73
72.000 82.000 168.000 43 54 65
85.000 64.000 165.000 88 96 106
84.000 68.000 165.000 82 89 99
84.000 69.000 165.000 81 88 98
84.000 70.000 165.000 82 88 97
84.000 71.000 165.000 84 90 98
84.000 70.000 166.000 82 88 97
84.000 71.000 166.000 83 89 98
84.000 72.000 166.000 83 88 96
