ply
format ascii 1.0
element vertex 1017
property float x
property float y
property float z
property uchar red
property uchar green
property uchar blue
end_header
170.000 413.000 182.000 41 47 54
171.000 413.000 182.000 40 47 54
171.000 413.000 183.000 41 47 54
170.000 414.000 182.000 40 46 53
170.000 415.000 182.000 39 46 53
171.000 414.000 182.000 39 46 53
171.000 414.000 183.000 39 46 54
171.000 415.000 182.000 40 46 53
171.000 415.000 183.000 40 46 53
172.000 413.000 183.000 41 47 54
173.000 413.000 183.000 41 47 54
172.000 414.000 183.000 40 46 53
172.000 415.000 183.000 40 47 53
173.000 414.000 183.000 40 46 53
173.000 415.000 183.000 40 46 53
173.000 414.000 184.000 40 46 53
173.000 415.000 184.000 40 46 53
174.000 414.000 184.000 40 47 53
174.000 415.000 184.000 42 47 54
175.000 414.000 184.000 40 47 53
176.000 415.000 185.000 43 49 55
181.000 415.000 187.000 42 48 54
181.000 415.000 188.000 41 47 54
185.000 415.000 189.000 40 46 53
185.000 414.000 190.000 39 46 53
186.000 413.000 191.000 40 46 53
186.000 414.000 190.000 40 46 53
186.000 414.000 191.000 41 47 53
186.000 415.000 190.000 40 46 53
187.000 414.000 191.000 42 48 54
188.000 415.000 191.000 43 49 55
169.000 416.000 182.000 40 46 53
169.000 417.000 182.000 40 47 53
169.000 418.000 181.000 42 48 54
170.000 417.000 181.000 41 47 54
170.000 416.000 182.000 40 46 53
170.000 417.000 182.000 41 47 53
171.000 416.000 182.000 40 46 53
171.000 417.000 182.000 41 47 53
170.000 418.000 181.000 42 47 54
170.000 419.000 180.000 42 48 54
171.000 418.000 181.000 42 48 54
171.000 419.000 180.000 43 48 55
171.000 419.000 181.000 42 48 54
171.000 418.000 182.000 41 47 54
171.000 420.000 179.000 44 49 56
171.000 421.000 179.000 45 50 57
171.000 422.000 179.000 44 50 56
171.000 423.000 178.000 42 48 55
171.000 423.000 179.000 43 49 55
170.000 420.000 180.000 43 48 55
171.000 420.000 180.000 43 49 55
172.000 416.000 183.000 41 47 54
172.000 417.000 182.000 42 48 55
172.000 417.000 183.000 42 47 54
173.000 416.000 183.000 41 47 54
173.000 417.000 182.000 43 48 55
173.000 417.000 183.000 42 47 54
172.000 418.000 181.000 42 48 55
172.000 419.000 180.000 42 48 55
172.000 419.000 181.000 42 48 55
173.000 419.000 181.000 43 48 55
172.000 418.000 182.000 42 48 54
173.000 418.000 182.000 42 48 55
174.000 417.000 183.000 42 48 54
175.000 417.000 183.000 43 48 55
174.000 419.000 181.000 42 49 55
175.000 419.000 181.000 43 49 56
174.000 418.000 182.000 42 48 55
174.000 418.000 183.000 42 48 54
174.000 419.000 182.000 42 49 55
175.000 418.000 182.000 42 48 55
175.000 418.000 183.000 42 48 55
175.000 419.000 182.000 42 48 55
172.000 421.000 179.000 45 50 57
172.000 422.000 179.000 45 50 56
172.000 423.000 179.000 44 49 56
173.000 422.000 179.000 45 50 57
173.000 423.000 179.000 44 49 56
174.000 421.000 179.000 45 50 57
174.000 422.000 179.000 45 51 57
174.000 423.000 179.000 44 50 56
175.000 423.000 179.000 42 49 56
172.000 420.000 180.000 44 49 56
172.000 421.000 180.000 44 50 56
173.000 420.000 180.000 44 50 56
173.000 420.000 181.000 43 49 56
173.000 421.000 180.000 45 50 57
172.000 422.000 180.000 44 50 56
173.000 422.000 180.000 45 50 57
174.000 420.000 180.000 44 50 56
174.000 420.000 181.000 43 49 56
174.000 421.000 180.000 44 50 56
175.000 420.000 180.000 44 50 57
175.000 420.000 181.000 43 49 56
175.000 421.000 180.000 44 50 56
175.000 421.000 181.000 43 50 56
174.000 422.000 180.000 45 50 57
174.000 423.000 180.000 44 50 56
175.000 422.000 180.000 43 49 56
175.000 423.000 180.000 43 49 56
173.000 416.000 184.000 41 47 53
174.000 416.000 184.000 42 48 54
174.000 417.000 184.000 43 48 55
175.000 416.000 184.000 43 48 54
175.000 417.000 184.000 43 48 55
171.000 424.000 178.000 42 48 55
171.000 425.000 178.000 42 48 55
172.000 424.000 178.000 42 48 55
172.000 424.000 179.000 43 49 55
172.000 425.000 178.000 42 48 55
173.000 424.000 179.000 43 49 55
173.000 425.000 178.000 43 48 55
173.000 425.000 179.000 43 48 55
174.000 424.000 179.000 43 49 55
174.000 425.000 178.000 43 48 55
174.000 425.000 179.000 43 48 55
175.000 424.000 179.000 42 48 55
175.000 425.000 178.000 42 48 54
175.000 425.000 179.000 43 48 55
176.000 417.000 183.000 42 48 55
176.000 418.000 183.000 44 49 56
176.000 419.000 182.000 44 50 56
177.000 418.000 183.000 43 49 56
177.000 419.000 182.000 44 50 57
177.000 419.000 183.000 43 49 56
178.000 418.000 183.000 43 49 56
178.000 419.000 182.000 44 50 57
178.000 419.000 183.000 43 50 56
179.000 418.000 183.000 42 48 55
179.000 419.000 182.000 43 49 56
179.000 419.000 183.000 43 49 56
176.000 422.000 179.000 44 50 56
176.000 423.000 179.000 42 48 55
177.000 423.000 179.000 42 48 55
176.000 420.000 181.000 44 50 57
176.000 421.000 180.000 43 50 56
176.000 421.000 181.000 44 50 57
177.000 420.000 181.000 45 51 57
177.000 421.000 180.000 45 51 57
177.000 421.000 181.000 45 51 57
177.000 420.000 182.000 45 51 57
176.000 422.000 180.000 43 49 56
177.000 422.000 180.000 43 50 56
178.000 420.000 181.000 45 51 57
178.000 421.000 180.000 45 51 58
178.000 421.000 181.000 45 51 57
179.000 420.000 181.000 44 50 56
179.000 421.000 180.000 42 49 56
179.000 421.000 181.000 43 49 56
179.000 420.000 182.000 43 49 56
178.000 422.000 180.000 43 49 56
178.000 423.000 180.000 42 49 56
179.000 422.000 180.000 42 48 55
179.000 422.000 181.000 42 48 55
179.000 423.000 180.000 42 48 55
179.000 423.000 181.000 42 48 55
180.000 419.000 183.000 43 49 56
180.000 421.000 181.000 43 49 56
180.000 420.000 182.000 42 49 56
180.000 420.000 183.000 43 49 56
180.000 421.000 182.000 42 49 56
180.000 421.000 183.000 43 49 56
181.000 420.000 183.000 43 49 56
181.000 421.000 182.000 42 48 56
181.000 421.000 183.000 43 49 56
180.000 422.000 181.000 41 48 55
180.000 422.000 182.000 41 48 55
181.000 422.000 182.000 41 48 55
181.000 422.000 183.000 42 49 56
182.000 420.000 183.000 43 49 56
182.000 421.000 183.000 43 49 55
182.000 422.000 183.000 42 48 55
176.000 416.000 184.000 43 49 55
176.000 417.000 184.000 43 49 55
177.000 416.000 185.000 43 49 55
177.000 417.000 184.000 43 49 56
176.000 418.000 184.000 43 49 56
177.000 418.000 184.000 44 49 56
178.000 416.000 185.000 43 49 55
178.000 417.000 184.000 42 48 55
178.000 417.000 185.000 43 49 55
179.000 416.000 185.000 43 48 55
179.000 417.000 185.000 43 49 56
179.000 416.000 186.000 42 48 55
178.000 418.000 184.000 42 49 55
179.000 418.000 184.000 43 49 56
180.000 417.000 185.000 43 48 55
180.000 416.000 186.000 43 49 55
180.000 416.000 187.000 44 49 55
180.000 417.000 186.000 43 48 55
181.000 416.000 187.000 42 48 55
181.000 417.000 186.000 43 49 55
181.000 417.000 187.000 42 48 55
180.000 418.000 184.000 43 49 56
180.000 418.000 185.000 43 49 55
180.000 419.000 184.000 43 49 56
181.000 418.000 185.000 43 49 55
181.000 419.000 184.000 43 49 56
182.000 417.000 187.000 42 48 55
182.000 418.000 185.000 43 49 55
182.000 419.000 184.000 44 50 56
182.000 419.000 185.000 44 50 56
183.000 419.000 184.000 44 50 56
181.000 420.000 184.000 43 49 56
182.000 420.000 184.000 44 50 56
183.000 420.000 184.000 43 49 56
183.000 421.000 184.000 43 48 55
182.000 422.000 184.000 41 47 54
183.000 422.000 184.000 41 47 54
183.000 423.000 184.000 41 47 53
176.000 424.000 179.000 41 48 55
176.000 425.000 179.000 41 47 54
177.000 424.000 179.000 41 48 55
177.000 425.000 179.000 40 47 54
178.000 424.000 179.000 41 48 55
178.000 425.000 179.000 41 47 54
178.000 424.000 180.000 41 48 55
179.000 424.000 180.000 40 47 54
180.000 425.000 180.000 40 47 53
183.000 430.000 178.000 42 48 54
184.000 416.000 188.000 41 47 54
184.000 420.000 184.000 43 49 55
184.000 420.000 185.000 43 49 55
184.000 421.000 184.000 42 48 54
185.000 420.000 185.000 43 48 55
185.000 421.000 185.000 42 48 54
184.000 422.000 184.000 42 47 54
185.000 422.000 185.000 42 47 54
186.000 421.000 185.000 42 48 54
186.000 421.000 186.000 42 47 54
187.000 421.000 187.000 42 48 54
186.000 422.000 186.000 41 47 53
187.000 422.000 187.000 41 47 53
190.000 419.000 190.000 44 49 55
191.000 419.000 191.000 44 49 55
188.000 422.000 187.000 41 47 54
189.000 422.000 187.000 42 47 54
190.000 423.000 187.000 42 47 54
191.000 423.000 187.000 41 47 53
189.000 421.000 188.000 42 48 54
189.000 422.000 188.000 42 47 54
190.000 421.000 189.000 42 48 54
191.000 421.000 188.000 42 47 54
190.000 422.000 188.000 42 48 54
191.000 422.000 188.000 41 47 53
191.000 423.000 188.000 41 47 53
184.000 427.000 181.000 41 46 53
185.000 427.000 181.000 41 46 53
185.000 426.000 182.000 41 46 52
186.000 427.000 180.000 40 46 53
186.000 427.000 181.000 41 46 53
187.000 427.000 180.000 41 46 53
187.000 427.000 181.000 41 46 53
186.000 426.000 182.000 41 46 52
186.000 426.000 183.000 41 46 52
186.000 427.000 182.000 41 46 52
187.000 426.000 183.000 41 46 52
187.000 427.000 182.000 41 46 52
185.000 429.000 179.000 41 47 54
187.000 430.000 179.000 42 47 54
184.000 428.000 180.000 40 46 53
185.000 428.000 180.000 41 46 53
186.000 428.000 180.000 40 46 53
186.000 429.000 180.000 42 47 54
187.000 428.000 181.000 41 47 53
187.000 429.000 180.000 41 47 53
187.000 429.000 181.000 41 47 53
188.000 427.000 182.000 42 47 53
188.000 427.000 183.000 42 48 54
188.000 428.000 181.000 41 47 53
188.000 429.000 181.000 41 47 53
189.000 429.000 181.000 41 47 54
188.000 428.000 182.000 41 46 53
188.000 428.000 183.000 42 47 54
189.000 428.000 182.000 41 47 54
189.000 428.000 183.000 41 47 54
189.000 429.000 183.000 41 48 55
188.000 431.000 180.000 42 48 55
189.000 431.000 181.000 41 48 55
190.000 429.000 183.000 41 48 54
190.000 430.000 181.000 42 48 55
190.000 431.000 181.000 42 48 55
190.000 430.000 182.000 41 48 54
191.000 430.000 182.000 42 48 54
191.000 431.000 182.000 42 48 54
191.000 431.000 183.000 41 47 54
186.000 425.000 184.000 41 46 52
187.000 425.000 184.000 41 46 52
188.000 425.000 185.000 41 46 52
189.000 425.000 185.000 41 46 52
189.000 424.000 186.000 41 47 53
189.000 425.000 186.000 41 46 53
188.000 426.000 184.000 42 47 53
189.000 426.000 185.000 41 46 53
189.000 427.000 184.000 41 47 53
190.000 424.000 187.000 42 47 53
190.000 425.000 186.000 41 47 53
191.000 424.000 186.000 41 47 53
191.000 424.000 187.000 41 47 53
191.000 425.000 186.000 41 47 53
190.000 427.000 185.000 41 47 54
191.000 429.000 184.000 41 47 53
191.000 430.000 184.000 41 47 53
187.000 436.000 174.000 44 50 57
188.000 435.000 174.000 44 50 57
188.000 435.000 175.000 45 50 57
188.000 436.000 173.000 43 50 57
189.000 436.000 173.000 43 50 57
190.000 437.000 174.000 43 50 57
183.000 432.000 177.000 43 49 55
187.000 432.000 177.000 42 48 55
186.000 432.000 178.000 43 49 55
188.000 434.000 177.000 44 50 56
188.000 435.000 176.000 44 50 57
189.000 435.000 176.000 45 51 57
190.000 433.000 179.000 44 50 56
191.000 433.000 179.000 45 50 56
190.000 435.000 176.000 46 51 57
190.000 435.000 177.000 46 51 57
191.000 435.000 177.000 47 51 57
191.000 434.000 178.000 45 50 56
191.000 432.000 181.000 43 49 55
191.000 433.000 180.000 44 49 56
188.000 413.000 192.000 42 47 54
189.000 413.000 192.000 42 47 53
189.000 413.000 193.000 42 48 54
188.000 414.000 192.000 42 47 54
190.000 412.000 194.000 42 47 54
190.000 413.000 194.000 42 48 54
191.000 412.000 195.000 43 48 55
191.000 414.000 194.000 43 48 54
192.000 423.000 187.000 41 46 53
192.000 421.000 189.000 42 47 54
192.000 422.000 188.000 41 47 53
192.000 422.000 189.000 41 47 54
192.000 423.000 188.000 41 47 53
192.000 423.000 189.000 41 47 53
193.000 423.000 190.000 41 47 53
194.000 422.000 191.000 42 47 53
194.000 423.000 191.000 41 46 52
192.000 430.000 183.000 41 47 53
192.000 431.000 183.000 42 48 54
192.000 424.000 187.000 41 47 53
192.000 424.000 188.000 41 46 53
193.000 424.000 189.000 41 47 53
194.000 425.000 189.000 40 46 52
194.000 424.000 191.000 41 46 52
194.000 425.000 190.000 40 46 52
194.000 425.000 191.000 40 45 51
195.000 425.000 191.000 40 45 51
194.000 426.000 190.000 40 46 52
195.000 426.000 191.000 40 45 51
195.000 427.000 191.000 40 45 52
193.000 429.000 186.000 41 47 54
192.000 430.000 185.000 41 47 54
192.000 431.000 184.000 40 47 54
193.000 430.000 185.000 41 47 54
193.000 431.000 185.000 41 48 55
193.000 430.000 186.000 41 47 54
194.000 431.000 185.000 41 48 55
194.000 430.000 186.000 41 47 54
194.000 430.000 187.000 40 46 53
194.000 431.000 186.000 41 47 54
195.000 431.000 186.000 41 48 54
195.000 431.000 187.000 40 46 53
193.000 429.000 188.000 41 46 52
194.000 428.000 188.000 41 46 52
194.000 429.000 188.000 40 46 52
195.000 429.000 188.000 40 45 52
195.000 429.000 189.000 40 46 52
195.000 429.000 190.000 40 46 52
195.000 430.000 188.000 40 46 52
196.000 426.000 191.000 40 46 51
196.000 427.000 191.000 40 46 52
196.000 430.000 187.000 40 46 53
196.000 431.000 187.000 40 46 53
196.000 429.000 189.000 40 46 52
196.000 428.000 190.000 41 46 52
196.000 428.000 191.000 40 46 52
197.000 429.000 190.000 40 45 51
196.000 430.000 188.000 40 46 52
196.000 430.000 189.000 40 46 52
196.000 431.000 188.000 40 46 53
197.000 430.000 188.000 40 46 52
197.000 430.000 189.000 40 45 52
197.000 431.000 188.000 40 46 53
197.000 430.000 190.000 39 45 51
198.000 429.000 191.000 39 45 52
199.000 429.000 191.000 38 45 52
198.000 430.000 189.000 40 46 53
198.000 431.000 189.000 41 47 54
198.000 430.000 190.000 40 45 52
198.000 430.000 191.000 39 45 52
199.000 430.000 190.000 39 46 53
199.000 430.000 191.000 39 46 53
200.000 430.000 191.000 39 46 53
200.000 431.000 190.000 41 47 54
201.000 431.000 191.000 40 46 54
202.000 431.000 191.000 41 47 54
204.000 431.000 190.000 41 46 52
205.000 430.000 191.000 40 46 52
205.000 431.000 190.000 41 47 53
205.000 431.000 191.000 40 46 52
206.000 431.000 190.000 41 47 54
206.000 431.000 191.000 41 47 53
207.000 431.000 191.000 41 47 54
192.000 436.000 175.000 47 52 58
192.000 434.000 178.000 45 50 56
192.000 434.000 179.000 45 50 56
192.000 435.000 178.000 45 50 56
193.000 435.000 179.000 45 50 56
192.000 433.000 181.000 44 49 55
192.000 432.000 182.000 42 48 55
193.000 432.000 182.000 43 49 55
193.000 433.000 182.000 45 50 57
192.000 434.000 180.000 44 50 56
193.000 434.000 180.000 45 50 56
193.000 434.000 181.000 45 50 57
194.000 433.000 183.000 45 51 57
194.000 434.000 181.000 45 51 57
194.000 435.000 181.000 45 50 57
194.000 434.000 182.000 45 50 57
195.000 434.000 182.000 44 50 56
195.000 434.000 183.000 44 50 56
195.000 435.000 182.000 45 50 56
195.000 435.000 183.000 45 50 57
193.000 436.000 178.000 45 50 56
194.000 436.000 177.000 45 49 56
194.000 437.000 177.000 45 50 56
194.000 436.000 178.000 45 50 56
194.000 436.000 179.000 45 50 57
195.000 436.000 179.000 45 51 57
195.000 437.000 178.000 45 50 57
195.000 437.000 179.000 44 50 57
195.000 436.000 180.000 45 51 57
195.000 436.000 181.000 45 51 58
196.000 435.000 182.000 44 50 56
196.000 435.000 183.000 45 50 57
197.000 435.000 183.000 45 50 57
196.000 437.000 179.000 43 50 57
196.000 438.000 179.000 43 50 57
197.000 438.000 179.000 43 50 57
196.000 436.000 181.000 44 50 57
196.000 437.000 180.000 44 50 57
197.000 437.000 180.000 43 49 57
197.000 437.000 181.000 43 50 57
196.000 436.000 182.000 44 50 57
197.000 436.000 182.000 44 50 57
197.000 436.000 183.000 44 50 57
197.000 438.000 180.000 44 50 57
198.000 437.000 181.000 43 49 56
198.000 436.000 183.000 43 49 56
198.000 437.000 182.000 43 49 55
199.000 436.000 183.000 43 49 55
199.000 437.000 182.000 43 49 55
199.000 437.000 183.000 43 49 55
198.000 438.000 180.000 43 49 56
198.000 438.000 181.000 43 49 56
198.000 439.000 180.000 43 49 56
199.000 438.000 181.000 44 49 55
199.000 438.000 182.000 43 49 55
194.000 432.000 185.000 42 48 55
194.000 433.000 184.000 43 49 56
195.000 432.000 185.000 42 49 55
195.000 433.000 184.000 43 49 56
195.000 433.000 185.000 43 49 56
195.000 432.000 186.000 42 48 55
195.000 434.000 184.000 43 50 56
196.000 432.000 185.000 43 48 55
196.000 433.000 185.000 43 49 56
196.000 432.000 186.000 42 48 55
196.000 432.000 187.000 41 47 54
196.000 433.000 186.000 42 48 55
197.000 432.000 187.000 42 48 55
197.000 433.000 186.000 42 48 55
197.000 433.000 187.000 42 48 55
196.000 434.000 184.000 44 50 57
196.000 434.000 185.000 43 49 56
196.000 435.000 184.000 45 51 57
197.000 434.000 185.000 42 48 55
197.000 435.000 184.000 44 50 56
197.000 435.000 185.000 43 49 56
197.000 434.000 186.000 42 48 55
198.000 432.000 187.000 41 48 54
198.000 435.000 184.000 43 49 56
198.000 435.000 185.000 43 49 56
199.000 435.000 185.000 42 48 55
198.000 434.000 186.000 42 48 55
198.000 435.000 186.000 43 49 56
198.000 435.000 187.000 42 48 55
199.000 435.000 186.000 42 48 55
198.000 436.000 184.000 43 49 56
199.000 436.000 184.000 43 48 55
199.000 436.000 185.000 42 48 55
199.000 437.000 184.000 43 48 54
200.000 437.000 183.000 43 48 54
201.000 437.000 183.000 42 48 54
200.000 438.000 182.000 44 49 55
201.000 438.000 182.000 43 48 55
201.000 438.000 183.000 42 48 54
202.000 438.000 183.000 41 47 54
201.000 435.000 186.000 42 47 54
202.000 435.000 186.000 43 48 54
202.000 435.000 187.000 42 48 55
203.000 432.000 189.000 43 48 54
203.000 433.000 188.000 43 48 54
200.000 436.000 184.000 43 48 54
200.000 436.000 185.000 41 47 54
200.000 437.000 184.000 43 48 54
201.000 436.000 185.000 41 47 53
201.000 437.000 184.000 42 47 53
200.000 436.000 186.000 42 48 54
201.000 436.000 186.000 41 47 54
202.000 436.000 186.000 42 48 54
204.000 432.000 189.000 43 48 54
204.000 433.000 188.000 43 48 54
205.000 432.000 189.000 42 47 54
205.000 433.000 188.000 43 48 55
205.000 433.000 189.000 42 47 54
204.000 432.000 190.000 42 47 53
205.000 432.000 190.000 42 47 53
205.000 434.000 188.000 42 48 54
206.000 432.000 189.000 42 48 55
206.000 433.000 189.000 41 48 55
206.000 432.000 190.000 42 47 54
206.000 433.000 190.000 42 48 55
207.000 432.000 190.000 42 48 55
207.000 432.000 191.000 42 47 54
207.000 433.000 190.000 42 48 55
206.000 434.000 188.000 41 47 54
206.000 434.000 189.000 41 47 54
207.000 434.000 189.000 41 48 55
207.000 434.000 190.000 41 47 54
204.000 437.000 186.000 41 47 54
205.000 436.000 187.000 42 48 54
206.000 436.000 187.000 41 48 55
207.000 436.000 188.000 41 47 54
208.000 431.000 191.000 41 47 53
208.000 432.000 191.000 42 47 54
208.000 433.000 190.000 42 48 55
208.000 433.000 191.000 42 48 55
209.000 432.000 190.000 41 47 54
209.000 432.000 191.000 41 47 54
209.000 433.000 190.000 41 47 54
208.000 435.000 189.000 41 48 55
209.000 434.000 190.000 41 47 54
209.000 435.000 190.000 40 47 54
208.000 437.000 187.000 42 48 54
209.000 437.000 187.000 41 47 54
208.000 438.000 187.000 42 47 54
209.000 438.000 187.000 41 47 54
210.000 438.000 187.000 39 46 54
208.000 436.000 189.000 41 47 54
209.000 436.000 189.000 41 47 54
209.000 437.000 188.000 39 46 52
210.000 437.000 188.000 40 46 53
210.000 437.000 189.000 39 45 53
210.000 436.000 190.000 42 47 54
210.000 438.000 188.000 39 46 54
213.000 437.000 190.000 40 47 55
213.000 437.000 191.000 41 48 55
212.000 438.000 189.000 38 46 55
213.000 438.000 189.000 39 47 55
212.000 438.000 190.000 40 48 56
214.000 437.000 191.000 43 50 58
192.000 413.000 195.000 42 48 55
192.000 414.000 195.000 43 48 55
192.000 415.000 195.000 43 48 55
192.000 413.000 196.000 42 48 54
193.000 413.000 197.000 42 48 55
193.000 414.000 197.000 42 48 54
193.000 415.000 196.000 43 48 55
194.000 413.000 198.000 42 48 55
194.000 415.000 197.000 41 47 54
194.000 414.000 198.000 42 48 55
195.000 414.000 198.000 41 47 55
196.000 415.000 198.000 41 48 55
196.000 415.000 199.000 42 48 55
197.000 415.000 198.000 41 47 54
194.000 411.000 201.000 45 51 58
195.000 411.000 201.000 46 52 59
194.000 412.000 200.000 43 49 56
195.000 412.000 201.000 45 51 57
197.000 410.000 203.000 45 51 57
197.000 411.000 203.000 46 52 58
197.000 411.000 204.000 46 52 58
198.000 410.000 204.000 44 49 56
198.000 410.000 205.000 44 50 56
198.000 411.000 205.000 46 51 58
199.000 411.000 205.000 46 51 58
199.000 410.000 206.000 43 49 55
199.000 410.000 207.000 42 48 55
199.000 411.000 206.000 45 50 57
199.000 411.000 207.000 43 49 55
197.000 413.000 201.000 44 50 56
196.000 412.000 202.000 44 50 57
197.000 413.000 202.000 44 50 57
198.000 414.000 202.000 42 48 55
199.000 412.000 205.000 46 52 58
199.000 412.000 206.000 45 50 57
200.000 411.000 207.000 43 48 55
200.000 412.000 205.000 46 51 58
200.000 412.000 206.000 46 50 56
200.000 412.000 207.000 44 49 55
200.000 413.000 206.000 45 50 56
200.000 413.000 207.000 45 49 55
201.000 413.000 207.000 45 49 54
201.000 414.000 206.000 44 49 54
201.000 414.000 207.000 44 48 54
202.000 415.000 207.000 41 46 53
199.000 410.000 208.000 40 46 53
199.000 411.000 208.000 41 47 54
200.000 411.000 208.000 42 47 54
200.000 411.000 209.000 42 47 54
200.000 410.000 210.000 40 46 53
200.000 412.000 208.000 43 48 54
201.000 413.000 208.000 43 47 53
201.000 413.000 209.000 38 45 51
201.000 414.000 208.000 41 47 53
202.000 414.000 208.000 41 46 53
202.000 414.000 209.000 38 45 52
202.000 415.000 208.000 40 46 53
202.000 415.000 209.000 38 45 52
202.000 414.000 210.000 38 44 51
202.000 415.000 210.000 37 44 51
203.000 415.000 211.000 36 44 52
192.000 416.000 195.000 44 49 55
193.000 419.000 193.000 42 47 53
194.000 418.000 194.000 42 47 53
194.000 419.000 194.000 42 47 53
195.000 418.000 195.000 41 47 54
195.000 419.000 195.000 40 46 53
195.000 416.000 196.000 42 48 55
195.000 416.000 197.000 40 47 54
195.000 418.000 196.000 41 47 54
193.000 420.000 192.000 43 48 54
194.000 421.000 192.000 42 48 54
194.000 421.000 193.000 41 46 52
195.000 421.000 193.000 41 46 52
195.000 420.000 194.000 41 46 52
195.000 421.000 194.000 40 45 51
194.000 423.000 192.000 41 46 52
195.000 422.000 192.000 41 46 52
195.000 422.000 193.000 41 46 52
195.000 423.000 192.000 41 46 52
195.000 423.000 193.000 40 45 51
196.000 419.000 195.000 40 46 53
196.000 416.000 197.000 41 48 55
196.000 417.000 196.000 42 47 54
196.000 416.000 198.000 41 47 54
197.000 417.000 198.000 41 47 54
196.000 418.000 197.000 41 47 54
196.000 419.000 197.000 40 46 52
197.000 419.000 197.000 41 46 53
197.000 418.000 198.000 41 47 54
198.000 417.000 199.000 41 47 54
198.000 418.000 199.000 41 47 54
196.000 420.000 194.000 41 46 52
196.000 420.000 195.000 41 46 52
196.000 421.000 194.000 40 45 51
196.000 421.000 195.000 40 45 51
196.000 422.000 194.000 40 45 51
196.000 423.000 194.000 39 45 51
199.000 423.000 195.000 40 45 52
196.000 420.000 196.000 41 46 52
197.000 420.000 196.000 40 45 52
197.000 422.000 196.000 40 46 52
198.000 420.000 199.000 41 47 53
198.000 422.000 196.000 41 46 52
198.000 422.000 197.000 39 45 52
199.000 422.000 197.000 40 46 53
198.000 417.000 200.000 41 47 53
199.000 417.000 202.000 42 47 53
199.000 417.000 203.000 41 47 53
198.000 418.000 200.000 42 47 54
198.000 419.000 200.000 41 47 54
199.000 418.000 201.000 42 48 54
199.000 419.000 200.000 41 47 53
199.000 419.000 201.000 43 48 54
199.000 418.000 202.000 42 48 54
199.000 418.000 203.000 42 47 54
199.000 419.000 202.000 42 48 54
199.000 419.000 203.000 41 46 53
199.000 420.000 200.000 41 46 53
199.000 420.000 201.000 43 48 54
199.000 420.000 202.000 42 48 54
199.000 420.000 203.000 40 46 52
196.000 424.000 194.000 40 45 52
197.000 426.000 193.000 40 46 53
198.000 426.000 194.000 40 45 52
199.000 427.000 194.000 39 45 52
198.000 428.000 192.000 39 45 52
198.000 429.000 192.000 39 45 52
199.000 428.000 192.000 38 45 52
199.000 428.000 193.000 39 45 51
199.000 429.000 192.000 38 45 52
199.000 428.000 194.000 39 45 51
200.000 423.000 197.000 41 46 52
200.000 419.000 203.000 41 46 53
200.000 417.000 204.000 40 47 54
201.000 417.000 204.000 40 46 53
201.000 417.000 205.000 40 46 52
200.000 418.000 204.000 40 47 54
200.000 419.000 204.000 40 46 52
201.000 418.000 204.000 40 46 53
201.000 418.000 205.000 41 47 53
201.000 419.000 204.000 41 46 53
202.000 416.000 207.000 41 47 53
202.000 417.000 206.000 41 46 52
203.000 419.000 204.000 42 47 53
200.000 420.000 201.000 42 47 54
200.000 421.000 200.000 43 48 54
200.000 421.000 201.000 42 47 54
200.000 420.000 202.000 41 47 53
200.000 420.000 203.000 41 46 53
200.000 421.000 202.000 42 47 54
200.000 421.000 203.000 42 47 54
201.000 421.000 202.000 42 47 54
201.000 421.000 203.000 43 48 54
200.000 422.000 200.000 42 47 53
201.000 422.000 200.000 42 48 54
201.000 423.000 200.000 41 47 53
201.000 423.000 201.000 44 49 55
200.000 422.000 202.000 42 47 54
201.000 422.000 202.000 43 48 54
202.000 421.000 203.000 42 47 54
203.000 421.000 203.000 42 47 53
202.000 423.000 200.000 40 47 54
202.000 423.000 201.000 43 49 55
203.000 423.000 201.000 42 48 54
202.000 422.000 202.000 44 48 54
202.000 422.000 203.000 42 47 54
202.000 423.000 202.000 44 49 55
203.000 422.000 202.000 44 49 55
203.000 422.000 203.000 43 49 55
203.000 423.000 202.000 43 49 55
200.000 420.000 204.000 40 46 52
204.000 417.000 207.000 39 45 52
204.000 418.000 205.000 40 46 53
204.000 419.000 205.000 41 46 53
205.000 419.000 205.000 40 46 53
204.000 418.000 206.000 40 46 53
204.000 419.000 206.000 40 46 53
205.000 419.000 206.000 40 46 53
205.000 419.000 207.000 39 45 52
205.000 421.000 203.000 42 48 55
204.000 423.000 201.000 42 47 54
204.000 422.000 203.000 43 48 54
204.000 423.000 202.000 42 48 54
205.000 423.000 202.000 42 47 54
207.000 422.000 203.000 40 47 55
204.000 420.000 204.000 42 47 53
204.000 421.000 204.000 43 49 55
205.000 420.000 204.000 42 48 55
205.000 420.000 205.000 40 46 53
205.000 420.000 206.000 39 46 53
206.000 420.000 205.000 39 46 53
206.000 421.000 204.000 41 47 54
206.000 421.000 205.000 40 47 54
207.000 421.000 205.000 39 46 53
206.000 420.000 206.000 39 46 53
206.000 420.000 207.000 38 45 52
206.000 421.000 206.000 39 46 53
206.000 421.000 207.000 38 45 53
207.000 421.000 206.000 39 46 53
207.000 421.000 207.000 38 45 53
206.000 422.000 204.000 42 48 55
207.000 422.000 204.000 41 47 55
207.000 422.000 205.000 40 46 54
207.000 423.000 204.000 41 47 55
207.000 422.000 206.000 39 46 53
207.000 422.000 207.000 38 45 53
200.000 427.000 195.000 40 45 52
201.000 424.000 197.000 41 46 53
201.000 424.000 198.000 40 46 53
201.000 427.000 196.000 40 45 52
202.000 425.000 199.000 40 46 54
202.000 427.000 197.000 39 46 52
203.000 427.000 197.000 41 46 52
202.000 426.000 198.000 39 45 52
202.000 427.000 198.000 39 45 52
203.000 426.000 199.000 40 47 53
203.000 427.000 198.000 41 46 52
200.000 428.000 193.000 39 45 51
200.000 429.000 192.000 39 45 52
200.000 429.000 193.000 39 45 52
201.000 429.000 193.000 39 45 52
200.000 428.000 194.000 39 45 52
200.000 428.000 195.000 39 46 52
201.000 428.000 194.000 39 45 52
201.000 428.000 195.000 40 46 53
201.000 429.000 194.000 39 45 52
200.000 430.000 192.000 39 45 52
202.000 429.000 193.000 39 45 52
202.000 428.000 195.000 39 46 53
202.000 429.000 194.000 39 46 53
203.000 428.000 195.000 40 46 52
203.000 429.000 194.000 40 45 52
202.000 430.000 192.000 40 46 53
202.000 430.000 193.000 38 45 52
202.000 431.000 192.000 41 47 54
203.000 428.000 196.000 40 46 53
203.000 428.000 197.000 41 46 52
204.000 426.000 199.000 40 46 52
204.000 427.000 198.000 40 46 52
204.000 427.000 199.000 41 46 52
205.000 426.000 199.000 40 46 53
205.000 427.000 198.000 40 46 52
205.000 427.000 199.000 40 46 53
204.000 429.000 194.000 41 46 52
204.000 430.000 192.000 41 46 52
204.000 430.000 193.000 41 46 52
206.000 429.000 193.000 40 46 53
207.000 429.000 193.000 41 46 52
207.000 428.000 195.000 40 46 52
207.000 429.000 194.000 41 46 52
207.000 429.000 195.000 40 45 52
206.000 430.000 192.000 40 46 52
206.000 430.000 193.000 41 46 53
206.000 431.000 192.000 40 46 53
207.000 430.000 192.000 41 47 53
207.000 430.000 193.000 41 46 52
207.000 431.000 192.000 41 47 53
204.000 428.000 196.000 41 46 52
204.000 428.000 197.000 40 46 52
205.000 428.000 197.000 40 46 53
206.000 428.000 197.000 41 46 54
202.000 424.000 200.000 40 46 54
203.000 424.000 200.000 40 47 54
203.000 424.000 201.000 41 47 54
203.000 425.000 200.000 39 46 54
204.000 424.000 201.000 41 46 53
204.000 425.000 200.000 40 46 53
203.000 416.000 208.000 40 46 52
203.000 416.000 209.000 37 44 52
203.000 417.000 208.000 39 45 52
204.000 417.000 208.000 38 45 52
204.000 417.000 209.000 37 45 52
204.000 416.000 210.000 36 44 52
204.000 416.000 211.000 36 44 52
204.000 417.000 210.000 36 44 52
205.000 417.000 210.000 37 44 52
205.000 417.000 211.000 36 44 52
204.000 418.000 208.000 38 45 52
205.000 418.000 208.000 38 45 52
205.000 418.000 209.000 38 45 52
205.000 419.000 208.000 38 45 52
205.000 419.000 209.000 38 45 52
205.000 418.000 210.000 37 44 52
206.000 419.000 209.000 37 44 52
206.000 420.000 208.000 37 44 52
207.000 420.000 209.000 36 44 52
207.000 421.000 208.000 37 44 52
207.000 421.000 209.000 36 44 52
207.000 422.000 208.000 37 44 52
208.000 423.000 204.000 40 47 54
208.000 423.000 205.000 39 46 54
208.000 422.000 206.000 38 45 53
208.000 422.000 207.000 38 45 53
208.000 423.000 206.000 38 45 53
208.000 423.000 207.000 38 45 53
209.000 423.000 206.000 38 45 53
209.000 423.000 207.000 38 45 53
208.000 427.000 197.000 42 47 53
208.000 426.000 198.000 40 46 52
208.000 427.000 198.000 42 47 53
209.000 426.000 199.000 42 47 54
209.000 427.000 198.000 42 47 54
209.000 427.000 199.000 41 47 54
210.000 427.000 199.000 41 47 54
208.000 429.000 194.000 41 46 53
208.000 429.000 195.000 42 47 53
209.000 429.000 194.000 41 46 53
209.000 429.000 195.000 42 48 54
208.000 430.000 193.000 42 47 53
208.000 431.000 192.000 41 47 53
208.000 431.000 193.000 42 47 53
209.000 431.000 193.000 43 48 54
208.000 430.000 194.000 42 47 53
209.000 430.000 194.000 43 48 54
209.000 430.000 195.000 43 48 54
209.000 431.000 194.000 44 49 55
210.000 431.000 193.000 45 49 55
210.000 430.000 195.000 43 48 55
210.000 431.000 194.000 44 49 55
210.000 431.000 195.000 43 48 55
211.000 431.000 195.000 42 48 55
208.000 428.000 196.000 42 47 53
208.000 428.000 197.000 42 47 53
208.000 429.000 196.000 42 47 53
209.000 428.000 196.000 42 47 54
209.000 428.000 197.000 42 48 54
209.000 429.000 196.000 43 49 55
209.000 429.000 197.000 43 48 55
209.000 428.000 198.000 42 48 55
210.000 429.000 196.000 43 49 55
210.000 429.000 197.000 43 49 55
211.000 429.000 197.000 43 49 56
210.000 428.000 198.000 42 48 55
210.000 428.000 199.000 42 48 55
210.000 429.000 198.000 43 48 55
211.000 428.000 199.000 42 48 55
211.000 429.000 198.000 43 49 56
211.000 429.000 199.000 42 48 55
210.000 430.000 196.000 43 48 55
210.000 430.000 197.000 43 49 55
211.000 430.000 196.000 43 48 55
211.000 430.000 197.000 43 49 56
211.000 431.000 196.000 43 49 56
211.000 431.000 197.000 44 49 56
211.000 430.000 198.000 43 49 57
212.000 431.000 197.000 44 50 57
212.000 430.000 198.000 43 49 57
212.000 430.000 199.000 43 49 57
212.000 431.000 198.000 44 50 57
213.000 431.000 199.000 43 50 57
208.000 425.000 201.000 41 47 54
209.000 425.000 201.000 40 47 54
208.000 424.000 202.000 40 47 54
208.000 424.000 203.000 40 47 54
208.000 425.000 202.000 40 47 54
208.000 425.000 203.000 40 46 54
209.000 425.000 202.000 40 47 54
209.000 425.000 203.000 40 46 54
208.000 426.000 200.000 41 47 53
209.000 426.000 200.000 41 47 54
209.000 426.000 201.000 41 47 54
209.000 427.000 200.000 41 47 54
209.000 426.000 202.000 40 47 54
210.000 426.000 201.000 41 47 54
210.000 427.000 200.000 41 47 54
210.000 427.000 201.000 41 47 54
211.000 427.000 201.000 41 47 55
210.000 426.000 202.000 40 47 54
210.000 426.000 203.000 40 46 54
210.000 427.000 202.000 40 47 54
210.000 427.000 203.000 40 47 54
211.000 427.000 202.000 40 47 54
211.000 427.000 203.000 40 47 55
208.000 424.000 204.000 40 46 54
208.000 424.000 205.000 39 46 54
209.000 424.000 204.000 39 46 54
209.000 424.000 205.000 39 46 53
209.000 425.000 204.000 39 46 54
209.000 424.000 206.000 38 45 53
209.000 424.000 207.000 38 45 53
210.000 424.000 205.000 39 46 53
210.000 425.000 204.000 39 46 54
210.000 425.000 205.000 39 46 54
210.000 424.000 206.000 39 46 53
210.000 424.000 207.000 38 45 53
210.000 425.000 206.000 38 46 53
211.000 425.000 206.000 38 45 53
210.000 426.000 204.000 39 46 54
210.000 426.000 205.000 39 46 54
211.000 426.000 204.000 40 46 54
211.000 426.000 205.000 39 46 54
211.000 427.000 204.000 40 47 55
211.000 427.000 205.000 39 46 54
210.000 426.000 206.000 39 46 54
211.000 426.000 206.000 39 46 54
211.000 428.000 200.000 41 48 55
211.000 428.000 201.000 41 48 55
211.000 429.000 200.000 42 48 55
211.000 429.000 201.000 42 48 55
211.000 428.000 202.000 41 48 55
211.000 428.000 203.000 40 47 55
212.000 427.000 205.000 39 46 54
212.000 429.000 200.000 42 49 56
212.000 429.000 201.000 42 49 56
212.000 428.000 203.000 40 48 55
212.000 429.000 202.000 41 48 56
212.000 429.000 203.000 41 48 56
212.000 430.000 200.000 43 49 57
213.000 431.000 200.000 43 50 58
213.000 430.000 202.000 42 49 57
212.000 428.000 204.000 40 47 55
213.000 429.000 204.000 40 48 56
208.000 422.000 208.000 37 44 52
208.000 422.000 209.000 36 43 51
208.000 423.000 208.000 37 45 52
208.000 423.000 209.000 36 44 52
209.000 423.000 208.000 37 44 52
209.000 423.000 209.000 36 44 52
209.000 432.000 192.000 42 47 54
209.000 432.000 193.000 41 47 53
210.000 432.000 192.000 42 47 53
210.000 432.000 193.000 42 48 54
210.000 433.000 193.000 41 47 55
211.000 433.000 193.000 42 48 55
210.000 432.000 194.000 43 48 55
211.000 432.000 194.000 43 49 56
211.000 432.000 195.000 44 50 57
211.000 433.000 194.000 43 49 56
211.000 433.000 195.000 44 50 57
211.000 434.000 193.000 41 47 55
212.000 433.000 194.000 44 50 57
212.000 433.000 195.000 44 50 57
212.000 434.000 193.000 44 49 56
213.000 434.000 193.000 44 51 58
213.000 435.000 193.000 45 51 58
212.000 434.000 194.000 44 50 57
213.000 434.000 194.000 45 51 58
214.000 435.000 193.000 44 50 58
214.000 434.000 195.000 46 52 60
214.000 435.000 194.000 46 52 60
215.000 435.000 195.000 46 53 61
212.000 432.000 196.000 44 50 57
212.000 433.000 196.000 45 50 57
213.000 432.000 197.000 44 50 58
213.000 433.000 196.000 45 51 58
214.000 432.000 198.000 44 51 59
214.000 433.000 198.000 45 52 60
214.000 436.000 192.000 43 49 57
214.000 437.000 192.000 45 52 60
215.000 433.000 200.000 44 52 60
