ply
format ascii 1.0
element vertex 852
property float x
property float y
property float z
property uchar red
property uchar green
property uchar blue
end_header
167.000 382.000 271.000 41 50 60
168.000 382.000 271.000 41 50 60
168.000 383.000 270.000 40 50 59
168.000 383.000 271.000 41 50 59
165.000 383.000 275.000 48 57 67
166.000 382.000 273.000 44 54 64
167.000 382.000 272.000 42 52 61
167.000 382.000 273.000 44 54 64
167.000 383.000 272.000 42 51 61
167.000 383.000 273.000 43 53 63
166.000 382.000 274.000 43 53 63
166.000 383.000 274.000 44 53 63
164.000 383.000 276.000 45 57 67
165.000 383.000 276.000 48 58 67
168.000 383.000 272.000 42 51 60
159.000 411.000 282.000 54 67 81
157.000 418.000 284.000 58 70 83
157.000 419.000 284.000 59 71 84
159.000 417.000 284.000 57 70 83
158.000 418.000 284.000 55 68 82
159.000 418.000 284.000 57 70 83
155.000 425.000 286.000 61 74 88
154.000 426.000 286.000 60 74 88
155.000 426.000 286.000 60 74 88
155.000 427.000 286.000 57 72 86
157.000 425.000 285.000 59 73 87
157.000 426.000 285.000 57 72 86
158.000 427.000 285.000 53 68 83
156.000 428.000 286.000 57 71 85
159.000 428.000 285.000 55 68 82
168.000 384.000 271.000 40 49 59
168.000 385.000 271.000 41 50 60
169.000 384.000 271.000 40 50 59
169.000 385.000 270.000 41 51 60
169.000 385.000 271.000 39 50 60
169.000 386.000 270.000 40 50 60
169.000 386.000 271.000 41 51 62
169.000 387.000 271.000 43 54 65
170.000 386.000 270.000 43 52 61
170.000 387.000 270.000 43 52 62
170.000 387.000 271.000 43 54 64
171.000 387.000 270.000 45 53 63
169.000 388.000 271.000 47 57 68
171.000 389.000 269.000 47 56 66
170.000 388.000 270.000 47 56 66
170.000 388.000 271.000 46 56 66
170.000 389.000 270.000 48 59 70
170.000 389.000 271.000 50 60 70
171.000 388.000 270.000 46 55 64
171.000 389.000 270.000 48 57 68
171.000 390.000 269.000 48 57 67
170.000 390.000 270.000 47 57 69
170.000 390.000 271.000 46 58 69
170.000 391.000 271.000 45 57 70
171.000 390.000 270.000 45 56 67
171.000 391.000 270.000 44 55 67
171.000 391.000 271.000 45 57 69
170.000 392.000 271.000 50 61 73
171.000 392.000 270.000 48 58 69
171.000 392.000 271.000 50 61 73
171.000 393.000 270.000 49 59 70
171.000 393.000 271.000 50 61 72
171.000 394.000 271.000 47 59 70
171.000 395.000 271.000 45 57 69
172.000 392.000 269.000 46 56 66
172.000 393.000 269.000 47 57 68
173.000 393.000 269.000 47 57 68
172.000 392.000 270.000 46 56 67
172.000 393.000 270.000 45 56 67
172.000 394.000 269.000 48 58 68
173.000 394.000 269.000 49 59 69
173.000 395.000 269.000 48 58 68
172.000 394.000 270.000 46 57 68
172.000 394.000 271.000 47 58 70
172.000 395.000 270.000 46 57 68
172.000 395.000 271.000 44 56 67
173.000 396.000 269.000 44 54 65
173.000 397.000 269.000 45 55 65
172.000 396.000 270.000 42 54 65
172.000 396.000 271.000 42 54 66
172.000 397.000 271.000 44 55 66
173.000 396.000 270.000 42 54 65
173.000 397.000 270.000 44 54 65
172.000 398.000 271.000 41 53 64
173.000 398.000 270.000 42 53 63
173.000 398.000 271.000 40 51 62
173.000 399.000 270.000 40 50 61
173.000 399.000 271.000 38 49 60
174.000 397.000 269.000 46 56 66
174.000 398.000 269.000 44 54 63
174.000 399.000 269.000 42 51 60
174.000 398.000 270.000 42 52 61
174.000 399.000 270.000 41 51 60
165.000 384.000 275.000 50 59 69
167.000 384.000 272.000 43 52 61
167.000 384.000 273.000 44 53 63
167.000 385.000 273.000 43 53 63
166.000 384.000 274.000 45 55 65
166.000 384.000 275.000 49 58 68
166.000 385.000 274.000 45 55 66
166.000 385.000 275.000 48 58 68
167.000 384.000 274.000 45 55 65
167.000 385.000 274.000 44 54 65
167.000 386.000 273.000 43 53 63
166.000 386.000 275.000 47 58 68
166.000 387.000 275.000 48 58 69
167.000 386.000 274.000 45 55 65
167.000 387.000 274.000 45 55 66
167.000 387.000 275.000 45 56 67
164.000 384.000 276.000 48 59 70
164.000 385.000 276.000 53 63 74
165.000 384.000 276.000 49 59 68
165.000 385.000 276.000 50 60 71
164.000 386.000 277.000 48 60 72
164.000 387.000 277.000 47 59 72
165.000 386.000 276.000 52 62 73
165.000 387.000 276.000 51 62 73
165.000 387.000 277.000 49 61 73
166.000 386.000 276.000 52 61 72
166.000 387.000 276.000 51 61 72
167.000 388.000 274.000 47 57 68
167.000 388.000 275.000 47 58 69
167.000 389.000 275.000 49 59 70
167.000 390.000 274.000 48 59 70
167.000 390.000 275.000 45 58 71
167.000 391.000 275.000 45 59 71
164.000 388.000 277.000 49 61 73
164.000 389.000 277.000 50 61 73
165.000 388.000 276.000 53 63 74
165.000 388.000 277.000 53 63 75
165.000 389.000 276.000 54 64 75
165.000 389.000 277.000 53 63 75
164.000 389.000 278.000 50 62 74
164.000 390.000 277.000 50 61 72
164.000 391.000 277.000 51 62 73
165.000 390.000 277.000 50 61 72
165.000 391.000 277.000 50 61 73
164.000 390.000 278.000 51 63 75
164.000 391.000 278.000 51 63 75
166.000 388.000 276.000 51 62 73
166.000 389.000 276.000 51 63 74
166.000 390.000 276.000 44 58 72
166.000 391.000 276.000 43 58 71
167.000 391.000 276.000 44 58 72
163.000 393.000 278.000 51 64 77
163.000 394.000 278.000 51 64 77
163.000 394.000 279.000 50 63 76
163.000 395.000 279.000 48 61 75
162.000 396.000 279.000 51 64 76
163.000 396.000 279.000 47 61 74
163.000 397.000 279.000 47 60 73
163.000 398.000 279.000 49 61 74
163.000 399.000 279.000 49 61 73
167.000 392.000 275.000 44 58 71
167.000 393.000 275.000 46 60 73
167.000 394.000 275.000 43 57 70
164.000 392.000 277.000 49 62 74
164.000 393.000 277.000 50 62 75
165.000 392.000 277.000 50 62 74
165.000 393.000 277.000 54 65 76
164.000 392.000 278.000 49 62 75
164.000 393.000 278.000 50 63 76
165.000 394.000 277.000 52 64 76
165.000 395.000 277.000 51 63 75
164.000 394.000 278.000 49 62 76
164.000 395.000 278.000 47 61 74
164.000 395.000 279.000 48 62 75
165.000 395.000 278.000 49 62 74
166.000 392.000 276.000 46 60 73
166.000 393.000 276.000 49 62 74
167.000 392.000 276.000 44 59 72
167.000 393.000 276.000 46 60 73
166.000 394.000 276.000 47 60 73
166.000 394.000 277.000 51 63 75
166.000 395.000 276.000 46 59 72
166.000 395.000 277.000 50 61 73
167.000 394.000 276.000 44 58 70
167.000 395.000 276.000 42 56 69
165.000 396.000 277.000 50 62 74
164.000 396.000 278.000 47 61 73
164.000 396.000 279.000 47 61 74
164.000 397.000 278.000 46 59 72
164.000 397.000 279.000 46 60 73
165.000 396.000 278.000 47 60 73
165.000 397.000 278.000 48 59 71
164.000 398.000 278.000 44 58 70
164.000 398.000 279.000 47 60 73
164.000 399.000 278.000 46 59 71
164.000 399.000 279.000 49 60 73
165.000 398.000 278.000 46 58 69
165.000 399.000 278.000 47 58 70
166.000 396.000 277.000 48 60 71
166.000 397.000 277.000 50 60 71
167.000 396.000 276.000 43 56 68
167.000 397.000 276.000 44 56 67
167.000 397.000 277.000 42 55 66
166.000 398.000 277.000 49 58 69
166.000 399.000 277.000 49 59 69
167.000 398.000 276.000 43 54 65
167.000 398.000 277.000 44 55 66
167.000 399.000 277.000 44 55 65
166.000 399.000 278.000 48 58 69
161.000 397.000 280.000 50 63 76
161.000 398.000 280.000 48 61 74
162.000 396.000 280.000 53 65 77
162.000 397.000 280.000 52 64 76
162.000 398.000 280.000 49 62 74
162.000 399.000 280.000 48 61 73
163.000 399.000 280.000 49 61 73
168.000 384.000 272.000 42 51 60
168.000 385.000 272.000 42 52 61
168.000 385.000 273.000 43 52 62
168.000 386.000 272.000 43 53 62
168.000 386.000 273.000 43 53 63
168.000 387.000 272.000 43 53 64
168.000 387.000 273.000 43 53 64
169.000 386.000 272.000 43 53 64
169.000 387.000 272.000 45 55 66
168.000 387.000 274.000 44 55 65
168.000 388.000 273.000 46 56 67
168.000 389.000 273.000 47 57 68
169.000 388.000 272.000 48 58 69
169.000 389.000 272.000 50 60 71
169.000 389.000 273.000 47 58 68
168.000 388.000 274.000 48 58 68
168.000 389.000 274.000 50 59 70
168.000 390.000 273.000 48 58 69
169.000 390.000 272.000 48 59 71
169.000 390.000 273.000 48 58 69
169.000 391.000 272.000 48 60 72
169.000 391.000 273.000 46 58 70
168.000 390.000 274.000 49 59 70
168.000 391.000 274.000 48 59 71
170.000 390.000 272.000 48 59 71
170.000 391.000 272.000 48 60 72
169.000 392.000 273.000 48 59 71
169.000 393.000 273.000 47 58 69
168.000 392.000 274.000 47 58 70
168.000 392.000 275.000 45 58 71
168.000 393.000 274.000 49 59 71
168.000 393.000 275.000 47 60 72
169.000 392.000 274.000 49 59 70
169.000 393.000 274.000 51 61 71
169.000 394.000 273.000 46 57 68
169.000 395.000 273.000 44 56 66
168.000 394.000 274.000 47 58 69
168.000 394.000 275.000 44 57 69
168.000 395.000 274.000 42 54 66
168.000 395.000 275.000 42 55 67
169.000 394.000 274.000 48 58 69
169.000 395.000 274.000 44 55 66
170.000 392.000 272.000 51 63 74
170.000 393.000 272.000 50 61 73
170.000 393.000 273.000 47 59 71
170.000 394.000 272.000 49 60 71
170.000 394.000 273.000 47 58 69
170.000 395.000 272.000 49 59 70
170.000 395.000 273.000 45 56 67
171.000 394.000 272.000 48 59 71
171.000 395.000 272.000 47 59 70
168.000 396.000 275.000 43 55 66
168.000 397.000 275.000 42 54 65
169.000 396.000 274.000 43 54 65
169.000 396.000 275.000 42 53 64
169.000 397.000 274.000 45 55 66
169.000 397.000 275.000 43 54 64
168.000 398.000 275.000 41 53 64
169.000 398.000 274.000 45 55 65
169.000 398.000 275.000 41 52 63
169.000 399.000 275.000 42 53 63
170.000 396.000 272.000 47 57 68
170.000 396.000 273.000 45 55 66
170.000 397.000 273.000 46 56 65
171.000 396.000 272.000 44 56 67
171.000 397.000 272.000 45 56 66
170.000 397.000 274.000 43 54 64
170.000 398.000 273.000 47 56 65
171.000 398.000 272.000 46 56 66
171.000 398.000 273.000 46 55 65
171.000 399.000 273.000 43 53 63
170.000 398.000 274.000 43 53 63
170.000 399.000 274.000 42 52 62
170.000 399.000 275.000 42 52 62
171.000 399.000 274.000 43 52 62
168.000 396.000 276.000 43 55 68
168.000 397.000 276.000 44 55 67
168.000 398.000 276.000 43 54 64
168.000 399.000 276.000 44 54 64
172.000 397.000 272.000 45 56 67
172.000 398.000 272.000 42 53 64
172.000 399.000 272.000 41 52 62
173.000 400.000 271.000 39 50 60
173.000 401.000 271.000 40 50 60
174.000 400.000 269.000 43 51 60
175.000 400.000 269.000 42 51 60
175.000 401.000 269.000 42 51 59
174.000 400.000 270.000 42 50 60
174.000 400.000 271.000 41 51 60
174.000 401.000 270.000 40 49 58
174.000 401.000 271.000 40 49 59
175.000 401.000 270.000 41 50 58
175.000 402.000 269.000 43 50 58
175.000 403.000 269.000 43 50 58
174.000 402.000 271.000 40 49 59
174.000 403.000 271.000 42 50 58
175.000 402.000 270.000 41 49 58
175.000 403.000 270.000 43 50 58
175.000 403.000 271.000 43 50 58
175.000 404.000 270.000 43 50 58
175.000 404.000 271.000 44 51 59
175.000 405.000 270.000 44 51 58
175.000 405.000 271.000 44 51 59
175.000 406.000 271.000 44 52 60
163.000 400.000 279.000 49 61 73
163.000 401.000 279.000 46 60 74
164.000 400.000 279.000 48 61 73
164.000 401.000 279.000 46 60 74
165.000 400.000 278.000 47 59 71
165.000 401.000 278.000 45 59 71
164.000 402.000 279.000 48 62 75
164.000 403.000 279.000 49 62 74
165.000 402.000 278.000 46 59 72
165.000 402.000 279.000 45 59 72
165.000 403.000 278.000 46 60 72
165.000 403.000 279.000 45 59 72
167.000 400.000 277.000 46 57 67
167.000 401.000 277.000 47 57 68
166.000 400.000 278.000 49 59 70
166.000 401.000 278.000 49 60 72
167.000 402.000 277.000 49 59 70
167.000 403.000 277.000 47 60 72
166.000 402.000 278.000 50 62 73
166.000 403.000 278.000 49 62 74
167.000 402.000 278.000 51 62 73
167.000 403.000 278.000 49 61 73
164.000 404.000 279.000 51 63 75
164.000 405.000 279.000 54 65 77
165.000 404.000 278.000 45 59 72
165.000 404.000 279.000 46 60 73
165.000 405.000 278.000 48 60 72
165.000 405.000 279.000 51 63 74
164.000 406.000 279.000 53 63 75
164.000 407.000 279.000 52 63 74
165.000 406.000 279.000 49 61 72
165.000 407.000 279.000 50 61 72
167.000 404.000 277.000 46 58 71
167.000 405.000 277.000 46 59 71
166.000 404.000 278.000 47 60 72
166.000 405.000 278.000 49 61 73
167.000 404.000 278.000 49 61 73
167.000 405.000 278.000 50 62 74
167.000 406.000 277.000 45 57 69
167.000 407.000 277.000 45 57 69
166.000 406.000 278.000 49 61 73
166.000 407.000 278.000 48 59 71
167.000 406.000 278.000 49 61 73
167.000 407.000 278.000 46 58 70
161.000 400.000 280.000 49 62 74
161.000 401.000 280.000 48 62 74
161.000 403.000 281.000 55 66 78
162.000 400.000 280.000 48 61 73
162.000 401.000 280.000 46 60 74
163.000 400.000 280.000 50 62 73
163.000 401.000 280.000 45 60 73
162.000 402.000 280.000 51 65 78
162.000 403.000 280.000 51 64 78
163.000 402.000 280.000 48 62 76
163.000 403.000 280.000 48 62 75
161.000 404.000 281.000 51 63 76
161.000 405.000 281.000 52 63 76
160.000 407.000 281.000 52 64 76
161.000 406.000 281.000 49 61 73
161.000 407.000 281.000 51 62 74
162.000 404.000 280.000 49 63 76
162.000 404.000 281.000 49 63 76
162.000 405.000 280.000 49 62 75
162.000 405.000 281.000 51 63 76
163.000 404.000 280.000 47 61 74
163.000 405.000 280.000 49 62 75
162.000 406.000 280.000 51 62 74
162.000 406.000 281.000 51 63 75
162.000 407.000 280.000 51 62 74
162.000 407.000 281.000 51 62 74
163.000 406.000 280.000 49 61 73
163.000 407.000 280.000 49 61 73
164.000 405.000 280.000 55 66 77
164.000 406.000 280.000 51 63 75
164.000 407.000 280.000 50 61 73
164.000 408.000 279.000 55 64 76
165.000 408.000 279.000 53 63 74
165.000 409.000 279.000 55 64 75
165.000 410.000 279.000 53 63 74
165.000 411.000 279.000 51 62 73
167.000 408.000 277.000 47 59 71
166.000 408.000 278.000 49 60 72
166.000 409.000 278.000 50 61 73
166.000 409.000 279.000 52 62 73
167.000 408.000 278.000 49 60 72
167.000 409.000 278.000 50 62 74
166.000 410.000 278.000 46 59 71
166.000 410.000 279.000 50 61 73
166.000 411.000 279.000 48 60 73
167.000 410.000 278.000 47 60 73
167.000 411.000 278.000 48 61 74
165.000 414.000 279.000 48 60 72
167.000 413.000 279.000 52 64 76
167.000 414.000 279.000 52 63 75
167.000 415.000 279.000 52 63 74
160.000 408.000 281.000 51 63 75
161.000 408.000 281.000 49 61 73
161.000 409.000 281.000 49 62 74
160.000 409.000 282.000 52 65 77
161.000 410.000 281.000 47 60 73
161.000 411.000 281.000 49 62 75
161.000 410.000 282.000 50 62 75
161.000 411.000 282.000 50 63 76
162.000 408.000 280.000 50 61 72
162.000 408.000 281.000 49 61 73
162.000 409.000 281.000 47 60 72
163.000 408.000 280.000 50 62 73
163.000 409.000 280.000 50 61 73
162.000 410.000 281.000 47 61 73
162.000 411.000 281.000 52 64 77
163.000 410.000 280.000 49 61 74
163.000 411.000 280.000 50 62 75
161.000 412.000 282.000 48 61 74
161.000 413.000 282.000 50 63 77
163.000 412.000 281.000 50 63 76
163.000 413.000 280.000 51 64 77
163.000 413.000 281.000 52 65 77
163.000 414.000 281.000 50 63 76
162.000 415.000 282.000 51 63 75
164.000 408.000 280.000 53 63 75
164.000 409.000 280.000 52 63 74
164.000 410.000 280.000 51 62 74
164.000 411.000 280.000 50 62 74
165.000 411.000 280.000 50 62 74
165.000 412.000 280.000 53 64 75
165.000 413.000 280.000 52 63 75
164.000 415.000 281.000 50 64 77
165.000 414.000 280.000 50 61 73
169.000 400.000 275.000 44 54 63
171.000 400.000 273.000 42 52 61
170.000 400.000 274.000 41 52 62
170.000 400.000 275.000 43 52 62
170.000 401.000 274.000 42 52 63
170.000 401.000 275.000 42 52 62
171.000 400.000 274.000 43 52 62
171.000 401.000 274.000 42 52 62
170.000 402.000 275.000 44 54 63
170.000 403.000 275.000 46 55 65
171.000 402.000 274.000 41 51 61
171.000 402.000 275.000 43 52 62
171.000 403.000 274.000 44 54 64
171.000 403.000 275.000 44 54 64
168.000 400.000 276.000 44 54 64
168.000 400.000 277.000 42 53 64
168.000 401.000 276.000 44 54 64
168.000 401.000 277.000 43 53 64
169.000 400.000 276.000 48 56 66
169.000 401.000 276.000 46 54 64
168.000 402.000 277.000 47 57 67
168.000 403.000 277.000 47 58 69
169.000 402.000 276.000 46 56 65
169.000 403.000 276.000 46 56 66
170.000 402.000 276.000 46 55 64
170.000 403.000 276.000 46 55 65
171.000 404.000 275.000 43 53 64
171.000 405.000 275.000 44 54 65
171.000 406.000 275.000 47 57 68
171.000 407.000 275.000 49 59 70
168.000 404.000 277.000 45 57 68
168.000 405.000 277.000 45 57 68
169.000 404.000 276.000 43 54 65
169.000 404.000 277.000 44 55 66
169.000 405.000 276.000 42 54 65
169.000 405.000 277.000 43 55 66
168.000 406.000 277.000 46 57 69
168.000 407.000 277.000 45 57 69
169.000 406.000 276.000 41 54 66
169.000 406.000 277.000 43 55 67
169.000 407.000 276.000 43 56 68
169.000 407.000 277.000 44 56 68
170.000 404.000 276.000 43 54 65
170.000 405.000 276.000 43 54 65
171.000 405.000 276.000 44 55 66
170.000 406.000 276.000 42 54 66
170.000 407.000 276.000 42 55 67
171.000 406.000 276.000 45 56 67
171.000 407.000 276.000 47 58 69
172.000 400.000 272.000 40 51 61
172.000 400.000 273.000 40 51 61
172.000 401.000 272.000 40 50 60
172.000 401.000 273.000 41 51 61
173.000 400.000 272.000 40 51 61
173.000 401.000 272.000 40 50 60
172.000 402.000 273.000 40 50 60
173.000 402.000 272.000 39 50 60
173.000 402.000 273.000 40 50 60
173.000 403.000 272.000 41 51 62
173.000 403.000 273.000 40 51 61
172.000 402.000 274.000 40 51 61
172.000 403.000 274.000 42 52 63
174.000 402.000 272.000 40 50 59
174.000 403.000 272.000 42 51 60
173.000 404.000 273.000 41 51 62
173.000 405.000 273.000 41 52 63
172.000 404.000 274.000 41 52 63
172.000 405.000 274.000 42 53 64
172.000 405.000 275.000 43 54 64
173.000 405.000 274.000 41 52 63
172.000 406.000 274.000 44 55 66
172.000 406.000 275.000 46 57 68
172.000 407.000 275.000 46 57 68
173.000 406.000 274.000 44 55 66
173.000 407.000 274.000 46 56 67
174.000 404.000 272.000 42 51 60
174.000 405.000 272.000 43 52 62
174.000 405.000 273.000 42 53 64
175.000 405.000 272.000 44 52 61
174.000 406.000 272.000 43 53 64
174.000 406.000 273.000 44 55 66
174.000 407.000 273.000 44 55 66
175.000 406.000 272.000 44 52 61
175.000 407.000 272.000 45 53 63
171.000 408.000 275.000 47 59 70
171.000 409.000 275.000 45 57 69
171.000 410.000 275.000 44 57 70
168.000 408.000 277.000 48 60 71
168.000 409.000 277.000 50 62 74
169.000 408.000 276.000 45 58 70
169.000 408.000 277.000 47 59 71
169.000 409.000 276.000 45 58 70
169.000 409.000 277.000 48 60 72
168.000 409.000 278.000 51 63 75
168.000 410.000 277.000 48 61 74
169.000 410.000 277.000 47 59 72
168.000 410.000 278.000 48 62 74
168.000 411.000 278.000 48 61 75
170.000 408.000 276.000 44 56 69
170.000 409.000 276.000 46 59 71
171.000 408.000 276.000 46 58 70
171.000 409.000 276.000 46 58 70
170.000 410.000 276.000 47 58 70
170.000 411.000 277.000 44 57 69
171.000 410.000 276.000 46 58 70
169.000 413.000 277.000 48 60 73
168.000 412.000 278.000 50 63 76
168.000 413.000 278.000 48 61 73
169.000 413.000 278.000 48 61 73
169.000 414.000 278.000 51 62 74
170.000 412.000 277.000 47 59 71
170.000 413.000 277.000 47 59 71
171.000 412.000 276.000 48 60 72
171.000 413.000 276.000 48 60 72
171.000 414.000 277.000 45 58 70
171.000 415.000 277.000 45 57 69
172.000 408.000 275.000 46 57 69
172.000 409.000 275.000 46 57 69
173.000 408.000 274.000 46 57 68
173.000 409.000 274.000 46 57 68
173.000 409.000 275.000 46 57 68
172.000 410.000 275.000 45 57 70
172.000 411.000 275.000 43 56 69
173.000 410.000 274.000 45 56 67
173.000 410.000 275.000 45 57 69
173.000 411.000 275.000 43 56 68
174.000 408.000 273.000 43 54 65
174.000 409.000 273.000 43 55 66
175.000 408.000 272.000 44 53 63
175.000 409.000 272.000 43 53 63
175.000 409.000 273.000 44 55 65
174.000 408.000 274.000 45 56 67
174.000 409.000 274.000 45 56 67
175.000 410.000 272.000 42 52 62
175.000 410.000 273.000 46 56 66
175.000 411.000 273.000 45 55 65
174.000 410.000 274.000 46 57 68
173.000 412.000 275.000 46 58 70
173.000 413.000 275.000 44 57 69
174.000 412.000 275.000 48 59 71
174.000 413.000 275.000 47 59 70
175.000 412.000 274.000 48 58 68
175.000 413.000 274.000 48 57 67
175.000 413.000 275.000 48 58 68
174.000 415.000 275.000 45 57 68
175.000 414.000 274.000 46 55 65
175.000 414.000 275.000 46 56 67
175.000 415.000 275.000 46 56 67
172.000 412.000 276.000 47 60 71
172.000 413.000 276.000 45 57 69
173.000 414.000 276.000 40 54 66
173.000 415.000 276.000 43 55 67
176.000 402.000 269.000 42 50 58
176.000 403.000 269.000 41 49 56
176.000 404.000 269.000 41 48 56
176.000 405.000 269.000 39 47 55
177.000 404.000 269.000 41 48 56
177.000 405.000 269.000 41 48 56
176.000 404.000 270.000 42 49 57
176.000 405.000 270.000 41 49 57
177.000 406.000 269.000 40 48 56
177.000 407.000 269.000 41 48 57
176.000 406.000 270.000 43 50 58
176.000 406.000 271.000 43 51 59
176.000 407.000 270.000 42 51 60
176.000 407.000 271.000 43 52 61
177.000 406.000 270.000 41 48 57
177.000 407.000 270.000 42 50 58
176.000 408.000 271.000 42 51 61
176.000 409.000 271.000 44 54 64
177.000 408.000 270.000 41 50 59
177.000 408.000 271.000 42 51 61
177.000 409.000 270.000 41 51 61
177.000 409.000 271.000 44 53 64
177.000 410.000 270.000 45 54 64
177.000 410.000 271.000 46 55 65
177.000 411.000 271.000 45 55 65
178.000 408.000 269.000 40 49 58
178.000 409.000 269.000 40 50 60
178.000 408.000 270.000 38 48 58
178.000 409.000 270.000 40 50 60
177.000 412.000 271.000 45 56 67
178.000 412.000 271.000 43 54 65
178.000 413.000 271.000 42 53 64
178.000 414.000 271.000 45 54 64
182.000 412.000 267.000 42 52 62
182.000 415.000 267.000 41 50 60
183.000 415.000 266.000 40 50 59
180.000 412.000 268.000 44 53 64
181.000 415.000 269.000 41 50 59
180.000 414.000 270.000 41 50 60
180.000 415.000 270.000 39 48 57
182.000 415.000 268.000 40 49 58
176.000 408.000 272.000 43 52 61
176.000 409.000 272.000 43 52 62
176.000 410.000 272.000 44 53 63
176.000 411.000 272.000 41 52 62
176.000 411.000 273.000 41 52 62
177.000 411.000 272.000 43 54 64
176.000 412.000 273.000 42 52 63
176.000 413.000 273.000 43 53 64
177.000 412.000 272.000 44 55 66
176.000 413.000 274.000 43 53 63
177.000 414.000 273.000 44 54 64
177.000 415.000 273.000 42 53 64
176.000 415.000 274.000 43 53 63
178.000 414.000 272.000 42 54 65
178.000 415.000 272.000 42 54 65
160.000 416.000 283.000 53 67 80
160.000 417.000 283.000 53 67 80
161.000 417.000 283.000 57 69 82
161.000 418.000 283.000 55 67 80
161.000 419.000 283.000 55 68 80
163.000 417.000 281.000 53 64 76
162.000 416.000 282.000 51 63 75
163.000 418.000 282.000 53 65 77
163.000 419.000 282.000 54 66 79
161.000 420.000 283.000 56 68 81
161.000 421.000 283.000 55 68 82
162.000 420.000 283.000 51 66 80
162.000 421.000 283.000 52 66 80
163.000 420.000 282.000 53 66 80
163.000 421.000 282.000 53 67 81
162.000 423.000 283.000 54 66 80
163.000 423.000 283.000 50 64 77
160.000 420.000 284.000 58 70 84
160.000 423.000 284.000 57 70 83
161.000 423.000 284.000 54 68 81
164.000 416.000 281.000 51 63 75
164.000 417.000 281.000 51 63 76
165.000 419.000 281.000 52 64 77
166.000 416.000 280.000 50 62 74
166.000 417.000 280.000 51 63 76
166.000 418.000 280.000 51 64 76
167.000 419.000 280.000 56 68 80
164.000 421.000 281.000 54 67 80
165.000 420.000 281.000 51 65 78
165.000 421.000 281.000 50 64 77
164.000 420.000 282.000 55 68 81
164.000 421.000 282.000 54 68 81
166.000 420.000 281.000 50 65 78
167.000 420.000 280.000 54 66 79
167.000 421.000 280.000 52 65 78
166.000 422.000 281.000 53 66 79
167.000 422.000 280.000 54 66 78
167.000 423.000 280.000 54 65 78
167.000 423.000 281.000 52 64 77
162.000 424.000 283.000 54 66 78
163.000 424.000 283.000 50 63 76
160.000 424.000 284.000 56 70 83
160.000 424.000 285.000 57 70 83
160.000 427.000 285.000 53 67 80
163.000 426.000 284.000 51 62 74
164.000 424.000 283.000 53 65 78
165.000 426.000 282.000 50 62 75
165.000 426.000 283.000 51 63 75
167.000 426.000 281.000 49 61 74
164.000 427.000 284.000 52 63 74
167.000 430.000 283.000 47 60 72
164.000 428.000 284.000 53 64 75
168.000 416.000 279.000 51 62 73
168.000 417.000 279.000 51 62 73
168.000 419.000 279.000 53 65 77
169.000 419.000 279.000 54 64 76
170.000 416.000 277.000 47 59 70
170.000 417.000 277.000 48 59 71
170.000 417.000 278.000 50 61 72
170.000 419.000 278.000 52 63 74
171.000 419.000 278.000 49 60 72
169.000 420.000 278.000 52 64 75
169.000 420.000 279.000 52 64 76
169.000 423.000 279.000 52 64 76
170.000 420.000 278.000 51 62 74
170.000 421.000 279.000 51 63 75
171.000 420.000 278.000 48 60 72
170.000 422.000 279.000 52 64 76
170.000 423.000 279.000 53 65 77
175.000 416.000 275.000 47 57 67
174.000 418.000 275.000 47 58 69
174.000 419.000 275.000 47 57 68
175.000 418.000 275.000 47 57 68
175.000 419.000 275.000 46 56 67
172.000 416.000 277.000 47 58 70
172.000 417.000 277.000 48 59 71
174.000 417.000 276.000 47 58 69
174.000 418.000 276.000 47 58 69
173.000 420.000 277.000 45 56 68
173.000 421.000 277.000 45 56 68
172.000 421.000 278.000 46 59 71
172.000 422.000 277.000 46 58 70
173.000 422.000 276.000 44 55 67
172.000 422.000 278.000 47 59 71
174.000 422.000 276.000 44 55 66
174.000 423.000 276.000 44 56 67
168.000 421.000 280.000 50 63 76
168.000 422.000 280.000 53 65 77
168.000 423.000 280.000 54 65 77
169.000 423.000 280.000 53 65 77
169.000 424.000 279.000 52 63 75
170.000 426.000 279.000 47 59 70
173.000 425.000 277.000 49 60 71
172.000 424.000 278.000 46 59 71
172.000 425.000 278.000 43 57 70
173.000 425.000 278.000 50 61 73
172.000 426.000 278.000 42 56 68
172.000 427.000 278.000 43 56 68
174.000 425.000 277.000 45 57 68
174.000 426.000 277.000 44 56 67
172.000 428.000 279.000 44 56 68
173.000 428.000 278.000 47 58 70
173.000 429.000 278.000 46 58 69
172.000 430.000 279.000 41 54 65
174.000 428.000 277.000 46 57 68
175.000 428.000 277.000 45 55 66
175.000 429.000 277.000 44 54 65
174.000 428.000 278.000 49 59 70
174.000 429.000 278.000 49 59 70
175.000 430.000 277.000 43 53 63
174.000 430.000 278.000 49 59 70
168.000 426.000 281.000 49 61 73
169.000 426.000 280.000 50 61 72
168.000 428.000 282.000 52 63 74
168.000 430.000 281.000 52 62 73
173.000 432.000 279.000 38 51 62
175.000 432.000 278.000 43 54 65
175.000 435.000 279.000 50 62 73
168.000 433.000 282.000 51 63 76
179.000 416.000 271.000 41 50 60
183.000 416.000 266.000 40 49 58
183.000 417.000 267.000 41 49 58
183.000 418.000 267.000 42 50 58
183.000 419.000 267.000 42 49 57
181.000 416.000 269.000 40 48 57
181.000 418.000 269.000 39 47 55
180.000 418.000 271.000 40 48 57
181.000 418.000 270.000 41 48 55
182.000 416.000 268.000 39 48 57
182.000 417.000 268.000 40 48 57
182.000 418.000 268.000 40 48 56
183.000 419.000 268.000 40 48 56
181.000 421.000 271.000 40 48 56
181.000 422.000 271.000 42 50 59
183.000 420.000 268.000 41 49 57
182.000 422.000 270.000 43 50 57
183.000 423.000 270.000 41 48 57
182.000 424.000 271.000 43 51 61
182.000 425.000 271.000 43 52 62
183.000 424.000 270.000 42 50 59
182.000 426.000 271.000 43 52 62
183.000 426.000 271.000 44 53 63
184.000 416.000 265.000 41 49 58
184.000 416.000 266.000 40 49 58
184.000 417.000 266.000 41 49 58
184.000 418.000 266.000 42 50 58
184.000 421.000 268.000 42 50 58
177.000 416.000 273.000 40 51 62
176.000 419.000 274.000 46 56 66
178.000 416.000 272.000 41 52 63
178.000 416.000 273.000 39 51 62
178.000 417.000 272.000 40 51 62
179.000 417.000 272.000 40 50 60
178.000 419.000 272.000 40 50 60
179.000 418.000 272.000 41 51 60
178.000 421.000 273.000 44 53 63
179.000 420.000 273.000 41 50 60
179.000 421.000 273.000 44 53 62
179.000 422.000 273.000 44 54 63
180.000 421.000 272.000 39 49 58
180.000 422.000 272.000 41 51 60
181.000 422.000 272.000 42 51 60
176.000 424.000 275.000 48 58 69
177.000 424.000 275.000 44 55 65
179.000 424.000 273.000 45 54 64
178.000 424.000 274.000 46 56 66
179.000 424.000 274.000 45 55 65
179.000 425.000 274.000 45 54 65
178.000 427.000 275.000 42 53 64
179.000 427.000 274.000 45 55 66
179.000 427.000 275.000 45 55 65
176.000 427.000 276.000 45 55 66
177.000 427.000 276.000 44 54 65
178.000 428.000 275.000 43 54 64
179.000 428.000 275.000 43 53 64
179.000 429.000 275.000 42 53 63
177.000 428.000 276.000 45 55 66
177.000 429.000 276.000 46 56 66
176.000 430.000 277.000 43 53 63
178.000 430.000 276.000 44 54 64
178.000 431.000 276.000 43 53 63
179.000 430.000 276.000 43 53 63
179.000 431.000 276.000 42 52 61
180.000 425.000 273.000 45 55 65
181.000 424.000 272.000 44 53 63
181.000 425.000 272.000 45 54 64
181.000 425.000 273.000 45 55 66
181.000 426.000 272.000 43 54 65
181.000 427.000 273.000 44 54 66
181.000 428.000 273.000 42 54 65
180.000 428.000 274.000 44 54 65
181.000 431.000 274.000 43 53 63
181.000 431.000 275.000 44 53 63
180.000 431.000 276.000 43 52 61
178.000 432.000 278.000 43 52 61
179.000 434.000 277.000 43 52 61
179.000 434.000 278.000 44 53 63
180.000 433.000 277.000 42 51 60
180.000 434.000 277.000 41 50 59
182.000 434.000 276.000 39 49 59
180.000 436.000 278.000 48 58 68
180.000 437.000 278.000 51 61 71
181.000 437.000 278.000 46 57 68
