ply
format ascii 1.0
element vertex 1385
property float x
property float y
property float z
property uchar red
property uchar green
property uchar blue
end_header
253.000 636.000 282.000 102 107 116
253.000 637.000 282.000 102 107 117
253.000 638.000 282.000 103 106 116
253.000 639.000 282.000 107 110 120
254.000 639.000 281.000 104 111 122
255.000 639.000 281.000 106 112 122
255.000 644.000 279.000 109 113 124
255.000 645.000 279.000 110 114 126
254.000 646.000 279.000 116 122 134
254.000 647.000 279.000 127 131 143
255.000 646.000 278.000 114 117 127
255.000 646.000 279.000 113 117 127
255.000 647.000 279.000 114 118 128
253.000 641.000 281.000 122 128 140
252.000 640.000 282.000 110 116 126
252.000 641.000 282.000 114 119 130
253.000 640.000 282.000 109 114 126
252.000 643.000 281.000 116 121 133
252.000 642.000 282.000 115 119 129
254.000 640.000 281.000 118 125 138
254.000 641.000 281.000 126 134 148
255.000 640.000 281.000 127 132 143
254.000 643.000 280.000 127 131 142
253.000 644.000 280.000 117 123 135
253.000 645.000 280.000 136 142 154
252.000 646.000 280.000 158 162 175
252.000 647.000 280.000 127 131 145
253.000 646.000 280.000 150 154 167
253.000 647.000 280.000 141 146 159
254.000 648.000 279.000 121 124 133
254.000 649.000 279.000 114 116 126
255.000 648.000 279.000 113 116 125
255.000 649.000 279.000 111 115 124
255.000 650.000 279.000 109 113 125
254.000 653.000 279.000 104 110 120
255.000 653.000 278.000 106 112 124
255.000 653.000 279.000 106 111 122
254.000 654.000 279.000 103 109 119
254.000 655.000 279.000 106 111 121
255.000 654.000 279.000 107 112 123
255.000 655.000 279.000 107 111 121
251.000 653.000 281.000 141 149 164
251.000 654.000 281.000 147 156 172
251.000 655.000 281.000 149 158 173
252.000 648.000 280.000 113 118 131
252.000 649.000 280.000 105 111 123
253.000 648.000 280.000 123 127 139
253.000 649.000 280.000 110 114 126
253.000 650.000 280.000 104 109 120
253.000 651.000 280.000 105 109 119
252.000 653.000 280.000 123 130 144
253.000 652.000 280.000 106 111 121
253.000 653.000 280.000 107 114 125
252.000 654.000 280.000 140 148 163
252.000 655.000 280.000 148 156 171
253.000 654.000 280.000 110 117 130
253.000 655.000 280.000 128 134 146
254.000 655.000 280.000 108 113 124
253.000 658.000 279.000 106 110 120
253.000 659.000 279.000 114 118 127
254.000 656.000 279.000 105 110 121
254.000 657.000 279.000 105 111 122
255.000 656.000 279.000 106 110 120
255.000 657.000 279.000 106 111 122
254.000 658.000 279.000 109 114 125
254.000 659.000 279.000 125 129 140
255.000 658.000 279.000 111 117 129
255.000 659.000 279.000 136 141 154
253.000 660.000 279.000 115 118 129
253.000 661.000 279.000 116 120 133
253.000 662.000 279.000 110 115 130
253.000 663.000 279.000 115 121 135
254.000 660.000 279.000 131 136 149
254.000 661.000 279.000 128 133 147
255.000 660.000 279.000 130 140 155
255.000 661.000 279.000 133 141 157
254.000 662.000 279.000 118 124 139
254.000 663.000 279.000 111 118 132
255.000 662.000 279.000 120 127 142
255.000 663.000 279.000 112 118 130
251.000 656.000 281.000 143 149 163
251.000 657.000 281.000 113 118 130
251.000 658.000 281.000 106 111 120
251.000 659.000 280.000 107 111 121
251.000 659.000 281.000 110 113 122
251.000 660.000 280.000 108 111 120
251.000 660.000 281.000 109 112 121
251.000 661.000 280.000 109 112 122
250.000 662.000 280.000 113 117 126
251.000 662.000 280.000 108 112 122
251.000 663.000 280.000 114 117 127
252.000 656.000 280.000 129 135 149
252.000 657.000 280.000 110 114 126
253.000 656.000 280.000 106 111 122
253.000 657.000 280.000 103 106 117
252.000 658.000 280.000 103 107 118
252.000 659.000 280.000 106 111 122
253.000 658.000 280.000 104 107 117
253.000 659.000 280.000 108 113 123
254.000 656.000 280.000 103 108 119
254.000 657.000 280.000 102 107 118
252.000 660.000 280.000 109 112 123
252.000 661.000 280.000 108 111 125
253.000 660.000 280.000 110 114 126
253.000 661.000 280.000 111 114 130
252.000 662.000 280.000 109 112 125
252.000 663.000 280.000 115 118 131
253.000 662.000 280.000 108 111 127
253.000 663.000 280.000 115 120 133
253.000 664.000 279.000 124 131 146
259.000 631.000 278.000 130 139 154
263.000 631.000 275.000 99 104 114
261.000 631.000 277.000 126 133 146
260.000 631.000 278.000 120 130 145
262.000 631.000 276.000 112 118 129
263.000 631.000 276.000 101 107 117
259.000 632.000 278.000 136 145 160
259.000 635.000 278.000 111 117 133
257.000 636.000 279.000 100 102 113
257.000 637.000 279.000 100 104 112
257.000 638.000 279.000 103 107 116
257.000 639.000 279.000 102 106 116
258.000 636.000 279.000 93 98 111
258.000 637.000 279.000 102 106 115
259.000 636.000 278.000 103 110 123
259.000 637.000 279.000 98 104 115
258.000 638.000 279.000 106 110 118
258.000 639.000 279.000 106 110 119
259.000 638.000 278.000 104 108 117
259.000 639.000 278.000 106 111 121
263.000 632.000 275.000 99 104 114
261.000 632.000 277.000 139 146 159
261.000 635.000 277.000 110 114 125
262.000 632.000 276.000 124 129 141
262.000 633.000 276.000 102 108 120
263.000 632.000 276.000 101 105 115
262.000 634.000 276.000 99 104 114
263.000 634.000 276.000 102 106 116
263.000 635.000 276.000 101 106 115
263.000 639.000 275.000 100 105 114
261.000 636.000 277.000 101 105 116
261.000 637.000 277.000 100 105 115
260.000 636.000 278.000 121 126 140
260.000 637.000 278.000 104 109 120
261.000 638.000 277.000 107 112 124
261.000 639.000 277.000 130 136 147
260.000 638.000 278.000 112 119 130
260.000 639.000 278.000 125 132 145
263.000 636.000 276.000 98 103 113
263.000 637.000 276.000 95 100 109
263.000 638.000 276.000 97 102 111
263.000 639.000 276.000 98 103 114
257.000 636.000 280.000 104 108 118
264.000 630.000 274.000 108 111 120
264.000 631.000 275.000 104 108 117
271.000 631.000 272.000 109 115 127
264.000 635.000 275.000 101 106 115
265.000 634.000 275.000 100 105 115
265.000 635.000 275.000 96 102 112
266.000 635.000 274.000 106 112 123
264.000 636.000 275.000 101 105 115
265.000 636.000 275.000 100 105 114
265.000 639.000 275.000 111 117 128
266.000 636.000 274.000 105 110 121
267.000 636.000 274.000 115 120 131
267.000 637.000 274.000 108 113 124
267.000 638.000 274.000 109 115 126
267.000 639.000 274.000 120 126 138
270.000 633.000 273.000 153 162 177
271.000 634.000 273.000 126 133 145
268.000 636.000 273.000 130 137 150
268.000 637.000 273.000 112 118 129
269.000 637.000 273.000 108 114 125
269.000 638.000 273.000 107 112 122
268.000 639.000 274.000 110 115 126
269.000 639.000 274.000 102 108 118
271.000 637.000 274.000 97 102 111
270.000 638.000 273.000 101 106 115
270.000 639.000 274.000 96 101 111
271.000 638.000 274.000 96 101 110
271.000 639.000 274.000 93 99 108
272.000 631.000 272.000 111 116 127
273.000 631.000 272.000 104 109 120
275.000 628.000 272.000 117 124 136
275.000 629.000 272.000 113 120 133
274.000 630.000 272.000 100 107 119
274.000 631.000 272.000 100 107 119
275.000 630.000 272.000 112 120 132
275.000 630.000 273.000 116 124 136
275.000 631.000 272.000 109 116 128
275.000 631.000 273.000 120 126 138
276.000 627.000 272.000 136 141 153
277.000 626.000 272.000 105 111 122
277.000 627.000 272.000 120 127 139
278.000 625.000 272.000 94 99 109
278.000 626.000 272.000 96 102 113
278.000 626.000 273.000 91 98 109
278.000 627.000 272.000 101 108 120
278.000 627.000 273.000 99 107 119
279.000 626.000 273.000 93 99 108
279.000 627.000 273.000 100 107 118
276.000 628.000 272.000 133 140 152
276.000 629.000 272.000 119 127 140
277.000 628.000 272.000 120 128 141
277.000 628.000 273.000 119 127 140
277.000 629.000 273.000 116 124 136
276.000 630.000 272.000 113 122 135
276.000 630.000 273.000 113 121 133
276.000 631.000 273.000 112 119 131
277.000 630.000 273.000 109 116 128
277.000 631.000 273.000 100 107 118
277.000 631.000 274.000 97 104 115
278.000 628.000 273.000 114 122 134
278.000 629.000 273.000 119 127 139
279.000 628.000 273.000 110 117 129
279.000 628.000 274.000 120 127 138
279.000 629.000 274.000 115 122 134
278.000 630.000 273.000 114 121 133
278.000 630.000 274.000 108 116 128
278.000 631.000 274.000 104 110 121
279.000 630.000 274.000 112 120 132
279.000 630.000 275.000 119 127 139
279.000 631.000 274.000 115 121 133
279.000 631.000 275.000 121 126 138
272.000 633.000 273.000 105 111 122
273.000 633.000 273.000 100 104 114
272.000 634.000 273.000 104 109 119
272.000 635.000 273.000 100 105 115
273.000 634.000 273.000 98 103 112
273.000 635.000 273.000 97 102 111
273.000 635.000 274.000 93 99 109
274.000 632.000 272.000 98 104 115
274.000 632.000 273.000 100 106 118
274.000 633.000 273.000 99 105 115
275.000 632.000 273.000 117 123 134
275.000 633.000 273.000 105 110 121
275.000 633.000 274.000 101 105 115
274.000 634.000 273.000 96 101 111
275.000 634.000 273.000 97 103 112
274.000 634.000 274.000 92 98 108
274.000 635.000 274.000 92 97 107
275.000 634.000 274.000 95 100 109
275.000 635.000 274.000 92 97 107
275.000 635.000 275.000 92 97 107
272.000 637.000 274.000 96 101 111
273.000 636.000 274.000 94 100 110
273.000 637.000 274.000 99 104 115
272.000 638.000 274.000 96 102 111
272.000 639.000 274.000 94 99 109
272.000 639.000 275.000 97 103 113
273.000 638.000 274.000 104 109 119
273.000 638.000 275.000 109 114 124
273.000 639.000 275.000 111 116 127
274.000 636.000 274.000 93 99 109
274.000 637.000 274.000 98 104 114
274.000 637.000 275.000 106 112 123
275.000 636.000 274.000 91 98 108
275.000 636.000 275.000 93 98 108
275.000 637.000 275.000 95 101 112
274.000 638.000 275.000 118 123 133
274.000 639.000 275.000 119 124 134
275.000 638.000 275.000 109 115 125
275.000 637.000 276.000 93 98 108
274.000 639.000 276.000 114 119 129
275.000 638.000 276.000 97 103 113
275.000 639.000 276.000 98 103 112
276.000 632.000 273.000 110 116 127
276.000 632.000 274.000 97 103 114
276.000 633.000 274.000 93 98 107
277.000 632.000 274.000 92 98 108
277.000 633.000 274.000 91 96 105
277.000 633.000 275.000 92 96 105
276.000 634.000 274.000 94 98 107
276.000 634.000 275.000 93 97 106
276.000 635.000 275.000 92 96 106
277.000 634.000 275.000 92 96 105
277.000 635.000 275.000 92 96 105
278.000 632.000 274.000 93 100 110
278.000 632.000 275.000 98 104 115
278.000 633.000 275.000 95 100 109
279.000 632.000 275.000 123 128 139
279.000 633.000 275.000 112 116 126
278.000 634.000 275.000 94 98 107
277.000 635.000 276.000 92 97 106
279.000 632.000 276.000 108 114 125
279.000 633.000 276.000 103 108 119
278.000 634.000 276.000 95 99 108
278.000 635.000 276.000 94 99 108
279.000 634.000 276.000 98 103 112
279.000 634.000 277.000 105 110 119
279.000 635.000 276.000 103 108 118
279.000 635.000 277.000 121 125 134
276.000 636.000 275.000 91 96 105
276.000 636.000 276.000 92 97 107
276.000 637.000 276.000 93 98 107
277.000 636.000 276.000 92 97 106
277.000 637.000 276.000 93 97 106
277.000 637.000 277.000 93 98 106
276.000 638.000 276.000 93 97 106
276.000 638.000 277.000 94 98 107
276.000 639.000 277.000 92 97 105
277.000 638.000 277.000 93 97 106
277.000 639.000 277.000 93 97 106
277.000 639.000 278.000 93 97 105
278.000 636.000 276.000 93 98 108
278.000 636.000 277.000 99 104 114
278.000 637.000 277.000 95 100 109
279.000 636.000 277.000 117 122 132
279.000 637.000 277.000 103 108 118
279.000 637.000 278.000 96 102 112
278.000 638.000 277.000 94 98 106
278.000 638.000 278.000 95 99 108
278.000 639.000 278.000 94 98 106
279.000 638.000 278.000 93 99 108
279.000 639.000 278.000 94 99 109
279.000 639.000 279.000 94 99 109
280.000 627.000 273.000 97 102 112
280.000 627.000 274.000 102 107 117
280.000 628.000 274.000 119 124 134
280.000 629.000 274.000 123 129 140
280.000 629.000 275.000 117 123 134
281.000 628.000 274.000 118 122 132
281.000 628.000 275.000 113 117 127
281.000 629.000 275.000 113 118 128
280.000 630.000 275.000 115 122 134
280.000 631.000 275.000 113 119 131
281.000 630.000 275.000 101 107 117
282.000 628.000 275.000 99 104 114
282.000 629.000 275.000 96 102 111
283.000 628.000 275.000 97 102 112
283.000 629.000 275.000 97 102 112
282.000 630.000 275.000 97 102 112
280.000 631.000 276.000 103 109 120
281.000 630.000 276.000 99 105 115
281.000 631.000 276.000 98 104 114
283.000 629.000 276.000 97 102 112
282.000 630.000 276.000 98 103 112
282.000 631.000 276.000 98 103 113
283.000 630.000 276.000 101 106 115
283.000 631.000 276.000 101 105 115
283.000 631.000 277.000 100 104 114
284.000 628.000 276.000 103 107 116
284.000 629.000 276.000 102 106 115
285.000 629.000 276.000 101 105 115
284.000 630.000 276.000 105 110 119
284.000 631.000 277.000 104 108 117
285.000 630.000 276.000 105 110 120
285.000 631.000 277.000 108 113 123
286.000 630.000 276.000 106 112 123
286.000 631.000 276.000 120 126 138
286.000 631.000 277.000 113 119 130
280.000 632.000 276.000 100 105 116
280.000 633.000 276.000 97 102 113
281.000 632.000 276.000 98 104 114
281.000 633.000 276.000 99 104 114
281.000 633.000 277.000 98 103 113
280.000 634.000 276.000 97 102 111
280.000 634.000 277.000 101 106 116
280.000 635.000 277.000 121 126 135
281.000 634.000 277.000 100 105 115
281.000 635.000 277.000 111 116 126
281.000 635.000 278.000 105 110 119
282.000 632.000 276.000 97 102 112
282.000 632.000 277.000 98 103 113
282.000 633.000 277.000 97 102 112
283.000 632.000 277.000 99 104 114
283.000 633.000 277.000 99 105 115
282.000 634.000 277.000 98 103 112
283.000 634.000 277.000 102 108 118
282.000 634.000 278.000 98 103 113
282.000 635.000 278.000 100 106 115
283.000 634.000 278.000 105 110 120
283.000 635.000 278.000 105 111 121
280.000 636.000 277.000 119 123 133
280.000 636.000 278.000 109 113 123
280.000 637.000 278.000 97 103 112
281.000 636.000 278.000 105 110 120
281.000 637.000 278.000 97 102 112
280.000 638.000 278.000 93 98 108
280.000 638.000 279.000 94 99 108
280.000 639.000 279.000 94 100 109
281.000 638.000 279.000 96 102 111
281.000 639.000 279.000 100 105 114
282.000 636.000 278.000 100 105 115
282.000 637.000 278.000 98 103 113
282.000 637.000 279.000 99 105 114
283.000 636.000 278.000 104 109 119
283.000 637.000 279.000 102 107 117
282.000 638.000 279.000 101 106 117
282.000 639.000 279.000 104 110 120
283.000 638.000 279.000 104 109 119
283.000 639.000 279.000 111 116 127
284.000 632.000 277.000 102 107 117
284.000 633.000 277.000 103 109 119
285.000 632.000 277.000 109 113 122
285.000 633.000 277.000 108 114 124
284.000 634.000 278.000 113 119 130
284.000 635.000 278.000 119 124 135
285.000 634.000 278.000 122 128 139
285.000 635.000 278.000 136 141 152
286.000 632.000 277.000 112 118 128
286.000 633.000 277.000 108 113 123
286.000 634.000 277.000 110 115 125
287.000 635.000 277.000 104 108 117
286.000 634.000 278.000 120 125 136
286.000 635.000 278.000 129 134 145
284.000 636.000 278.000 111 117 127
284.000 637.000 279.000 104 109 120
285.000 636.000 278.000 117 123 135
285.000 637.000 278.000 105 111 123
285.000 637.000 279.000 101 107 119
284.000 638.000 279.000 105 110 121
284.000 639.000 279.000 113 118 129
285.000 638.000 279.000 103 109 119
285.000 639.000 279.000 116 121 133
287.000 636.000 277.000 100 103 112
287.000 637.000 277.000 101 105 113
286.000 636.000 278.000 118 122 134
286.000 637.000 278.000 102 107 117
287.000 636.000 278.000 105 108 118
287.000 637.000 278.000 100 105 115
287.000 638.000 277.000 98 103 113
287.000 639.000 277.000 100 104 114
286.000 638.000 278.000 98 104 115
286.000 638.000 279.000 99 104 115
286.000 639.000 278.000 105 112 124
286.000 639.000 279.000 116 122 134
287.000 638.000 278.000 96 102 113
287.000 639.000 278.000 97 104 115
258.000 640.000 279.000 107 111 121
259.000 640.000 278.000 106 111 122
259.000 641.000 278.000 110 114 123
258.000 642.000 279.000 110 114 123
256.000 645.000 278.000 110 113 124
257.000 644.000 278.000 112 116 128
257.000 645.000 278.000 110 114 126
256.000 646.000 278.000 111 114 125
256.000 647.000 278.000 108 113 125
257.000 646.000 278.000 109 113 126
257.000 647.000 278.000 107 114 128
258.000 645.000 277.000 116 120 130
259.000 644.000 277.000 112 117 127
259.000 645.000 277.000 116 120 131
258.000 646.000 277.000 114 119 129
258.000 647.000 277.000 117 123 136
259.000 646.000 277.000 115 120 130
259.000 647.000 277.000 114 120 131
263.000 640.000 275.000 101 105 115
263.000 641.000 275.000 100 105 115
263.000 642.000 275.000 102 106 116
263.000 643.000 275.000 103 108 118
261.000 640.000 277.000 131 135 146
261.000 641.000 277.000 110 115 126
260.000 640.000 278.000 122 128 141
260.000 641.000 278.000 114 117 126
260.000 642.000 277.000 111 115 126
260.000 643.000 277.000 113 117 127
261.000 642.000 276.000 107 112 122
261.000 642.000 277.000 107 112 123
261.000 643.000 276.000 107 111 121
263.000 644.000 275.000 107 111 122
263.000 645.000 275.000 110 115 125
263.000 646.000 275.000 111 117 128
263.000 647.000 275.000 109 115 128
260.000 644.000 276.000 114 118 128
260.000 645.000 276.000 116 121 131
260.000 645.000 277.000 114 119 129
261.000 644.000 276.000 109 113 124
261.000 645.000 276.000 115 120 130
260.000 646.000 276.000 113 117 127
260.000 646.000 277.000 112 116 127
260.000 647.000 276.000 108 114 125
260.000 647.000 277.000 108 113 124
261.000 646.000 276.000 114 118 129
261.000 647.000 276.000 110 116 127
262.000 644.000 276.000 105 109 119
262.000 645.000 276.000 109 114 124
262.000 646.000 276.000 111 116 127
262.000 647.000 276.000 107 112 124
256.000 648.000 278.000 110 116 130
257.000 648.000 278.000 120 129 144
257.000 649.000 278.000 131 138 152
257.000 650.000 278.000 130 137 151
258.000 648.000 277.000 149 156 171
259.000 648.000 277.000 130 138 152
259.000 649.000 277.000 139 148 164
259.000 650.000 277.000 140 150 167
256.000 653.000 278.000 128 135 148
257.000 653.000 278.000 151 157 170
256.000 654.000 278.000 117 123 135
256.000 655.000 278.000 106 112 124
256.000 655.000 279.000 102 107 117
257.000 654.000 278.000 131 137 149
257.000 655.000 278.000 110 115 126
258.000 653.000 278.000 138 145 159
258.000 654.000 277.000 107 116 130
259.000 654.000 277.000 106 115 129
259.000 655.000 277.000 105 112 125
258.000 654.000 278.000 116 124 137
258.000 655.000 278.000 106 112 124
259.000 655.000 278.000 106 112 124
260.000 648.000 276.000 113 121 134
261.000 648.000 276.000 106 113 126
261.000 649.000 276.000 125 133 146
260.000 651.000 277.000 141 152 168
261.000 650.000 276.000 143 150 164
262.000 648.000 276.000 106 113 126
262.000 649.000 276.000 113 121 135
263.000 649.000 276.000 107 115 128
262.000 650.000 276.000 132 140 153
263.000 650.000 276.000 121 127 140
263.000 651.000 276.000 123 129 141
260.000 652.000 277.000 127 138 154
261.000 653.000 277.000 131 140 156
260.000 654.000 277.000 122 131 145
260.000 655.000 277.000 112 119 132
261.000 654.000 277.000 131 139 154
261.000 655.000 277.000 115 122 135
260.000 655.000 278.000 106 112 124
262.000 653.000 277.000 116 123 136
263.000 653.000 277.000 105 112 123
262.000 654.000 277.000 112 119 132
262.000 655.000 277.000 106 112 123
263.000 654.000 277.000 103 109 119
263.000 655.000 277.000 100 105 116
263.000 655.000 278.000 97 102 113
265.000 640.000 275.000 121 127 139
265.000 643.000 274.000 109 114 124
267.000 640.000 274.000 135 141 153
267.000 641.000 274.000 119 124 136
264.000 647.000 275.000 120 127 139
267.000 644.000 275.000 132 140 153
267.000 647.000 276.000 99 105 116
268.000 640.000 274.000 112 118 129
268.000 641.000 274.000 107 112 123
269.000 640.000 274.000 99 104 115
269.000 641.000 274.000 99 104 114
268.000 643.000 275.000 99 104 114
269.000 642.000 274.000 98 103 113
270.000 640.000 274.000 95 100 109
270.000 641.000 274.000 96 100 110
271.000 640.000 274.000 92 97 107
271.000 641.000 275.000 92 98 107
270.000 642.000 275.000 95 100 110
270.000 643.000 275.000 95 100 110
271.000 642.000 275.000 93 99 109
271.000 643.000 275.000 95 101 111
271.000 643.000 276.000 108 114 124
269.000 645.000 276.000 95 100 109
268.000 646.000 276.000 98 103 113
268.000 647.000 276.000 95 101 110
269.000 646.000 276.000 94 99 108
269.000 647.000 276.000 92 97 107
270.000 644.000 276.000 94 99 108
271.000 645.000 276.000 95 100 110
271.000 645.000 277.000 96 101 111
270.000 646.000 276.000 92 97 106
270.000 646.000 277.000 92 96 105
270.000 647.000 277.000 90 95 105
271.000 646.000 277.000 93 97 106
271.000 647.000 277.000 90 95 104
271.000 647.000 278.000 91 97 106
264.000 648.000 275.000 107 114 126
265.000 648.000 275.000 110 117 128
264.000 649.000 276.000 105 111 123
265.000 648.000 276.000 105 111 122
265.000 649.000 276.000 102 107 118
264.000 650.000 276.000 106 112 123
264.000 651.000 276.000 105 111 122
265.000 650.000 276.000 99 104 115
265.000 651.000 277.000 95 100 110
266.000 648.000 276.000 103 109 120
266.000 649.000 276.000 100 104 114
267.000 648.000 276.000 98 103 113
267.000 649.000 276.000 97 102 111
267.000 649.000 277.000 96 101 110
266.000 650.000 276.000 97 102 111
266.000 650.000 277.000 96 101 110
266.000 651.000 277.000 94 99 108
267.000 650.000 277.000 95 100 109
267.000 651.000 277.000 94 99 108
267.000 651.000 278.000 94 99 109
264.000 652.000 277.000 99 104 115
264.000 653.000 277.000 98 103 114
265.000 652.000 277.000 94 99 108
265.000 653.000 278.000 94 98 108
264.000 654.000 277.000 98 104 114
264.000 655.000 277.000 97 103 113
264.000 654.000 278.000 97 101 111
264.000 655.000 278.000 94 100 109
265.000 654.000 278.000 94 98 107
265.000 655.000 278.000 91 97 106
266.000 652.000 277.000 93 97 106
266.000 652.000 278.000 93 98 106
266.000 653.000 278.000 93 98 107
267.000 652.000 278.000 93 98 108
267.000 653.000 278.000 93 98 107
266.000 654.000 278.000 91 96 105
266.000 655.000 278.000 90 95 104
266.000 655.000 279.000 89 95 104
267.000 654.000 278.000 92 96 105
267.000 654.000 279.000 95 100 110
267.000 655.000 279.000 91 96 105
268.000 648.000 276.000 93 99 108
268.000 648.000 277.000 91 97 106
268.000 649.000 277.000 93 99 109
269.000 648.000 277.000 89 95 105
269.000 649.000 277.000 90 97 107
269.000 649.000 278.000 89 97 108
268.000 650.000 277.000 95 101 111
268.000 650.000 278.000 96 103 113
268.000 651.000 278.000 103 109 119
269.000 650.000 278.000 98 106 118
269.000 651.000 278.000 115 122 134
269.000 651.000 279.000 119 126 139
270.000 648.000 277.000 90 96 107
270.000 649.000 278.000 92 100 111
271.000 648.000 278.000 90 96 107
271.000 649.000 278.000 95 102 114
271.000 649.000 279.000 94 101 113
270.000 650.000 278.000 110 117 130
270.000 651.000 279.000 122 129 142
271.000 650.000 279.000 107 114 126
271.000 651.000 279.000 120 127 139
268.000 652.000 278.000 108 114 125
268.000 653.000 278.000 101 107 117
268.000 653.000 279.000 115 121 131
269.000 652.000 279.000 123 130 141
269.000 653.000 279.000 120 126 136
268.000 654.000 279.000 107 112 122
268.000 655.000 279.000 93 99 108
269.000 654.000 279.000 104 109 119
270.000 652.000 279.000 127 133 144
271.000 651.000 280.000 115 121 133
268.000 655.000 280.000 92 98 107
269.000 654.000 280.000 101 106 116
269.000 655.000 280.000 94 99 108
271.000 652.000 280.000 111 118 129
271.000 653.000 281.000 94 101 112
270.000 654.000 280.000 102 107 118
270.000 655.000 280.000 96 101 111
270.000 655.000 281.000 94 98 108
271.000 654.000 280.000 97 103 114
271.000 654.000 281.000 95 101 112
271.000 655.000 281.000 95 101 110
256.000 656.000 278.000 106 111 122
256.000 656.000 279.000 106 110 119
256.000 657.000 278.000 110 115 125
256.000 657.000 279.000 109 113 123
257.000 656.000 278.000 106 112 123
257.000 657.000 278.000 110 116 126
256.000 658.000 279.000 115 120 130
256.000 659.000 279.000 139 143 155
257.000 658.000 278.000 115 120 131
257.000 658.000 279.000 121 125 136
257.000 659.000 278.000 115 120 130
257.000 659.000 279.000 122 126 137
258.000 656.000 278.000 106 111 122
258.000 657.000 278.000 107 112 123
259.000 656.000 278.000 109 114 125
259.000 657.000 278.000 108 113 123
258.000 658.000 278.000 108 114 125
258.000 659.000 278.000 106 112 122
258.000 659.000 279.000 109 113 123
259.000 658.000 278.000 106 111 121
259.000 659.000 278.000 104 109 120
259.000 659.000 279.000 104 109 120
256.000 660.000 279.000 148 154 166
256.000 661.000 279.000 143 150 164
257.000 660.000 279.000 134 138 147
257.000 661.000 279.000 140 144 154
256.000 662.000 279.000 133 138 152
256.000 663.000 279.000 115 120 132
257.000 662.000 279.000 125 130 141
257.000 663.000 279.000 117 121 133
258.000 660.000 279.000 115 118 127
258.000 661.000 279.000 121 124 133
259.000 660.000 279.000 108 112 122
259.000 661.000 279.000 111 114 123
258.000 662.000 279.000 119 122 131
259.000 662.000 279.000 110 113 122
260.000 656.000 278.000 107 114 125
260.000 657.000 278.000 108 114 124
261.000 656.000 278.000 106 112 124
261.000 657.000 278.000 106 113 126
260.000 658.000 278.000 106 112 124
260.000 659.000 279.000 105 111 123
261.000 658.000 278.000 114 121 134
261.000 658.000 279.000 113 120 132
261.000 659.000 279.000 107 114 126
262.000 656.000 278.000 102 108 119
262.000 657.000 278.000 103 110 121
263.000 656.000 278.000 98 104 114
263.000 657.000 278.000 97 103 114
262.000 658.000 278.000 115 121 132
262.000 658.000 279.000 110 116 128
262.000 659.000 279.000 101 107 119
263.000 658.000 278.000 103 109 120
263.000 658.000 279.000 99 105 116
263.000 659.000 279.000 95 101 111
260.000 660.000 279.000 104 109 120
260.000 661.000 279.000 103 108 119
261.000 660.000 279.000 103 108 119
261.000 661.000 279.000 101 106 115
260.000 662.000 279.000 104 108 117
262.000 660.000 279.000 99 104 114
263.000 660.000 279.000 97 102 112
256.000 663.000 280.000 116 120 131
257.000 663.000 280.000 114 117 129
258.000 662.000 280.000 107 111 121
258.000 663.000 280.000 105 110 120
259.000 662.000 280.000 104 108 117
259.000 663.000 280.000 98 103 112
261.000 661.000 280.000 100 104 114
260.000 662.000 280.000 100 104 113
260.000 663.000 280.000 95 99 108
260.000 663.000 281.000 92 96 106
261.000 662.000 280.000 97 101 110
261.000 663.000 280.000 92 97 106
261.000 663.000 281.000 91 96 105
262.000 661.000 280.000 99 103 112
263.000 660.000 280.000 98 102 112
263.000 661.000 280.000 97 102 111
262.000 662.000 280.000 96 100 108
262.000 663.000 281.000 91 96 105
263.000 662.000 280.000 95 99 108
263.000 662.000 281.000 93 97 106
263.000 663.000 281.000 92 97 107
258.000 664.000 280.000 101 105 114
259.000 664.000 280.000 94 99 108
262.000 664.000 281.000 92 97 106
263.000 664.000 281.000 93 98 107
264.000 656.000 278.000 91 97 107
264.000 657.000 278.000 92 98 108
264.000 657.000 279.000 90 97 106
265.000 656.000 278.000 90 95 105
265.000 656.000 279.000 90 95 105
265.000 657.000 279.000 90 96 106
264.000 658.000 279.000 92 98 108
264.000 659.000 279.000 94 99 109
265.000 658.000 279.000 92 98 108
266.000 656.000 279.000 91 97 107
266.000 657.000 279.000 97 102 112
267.000 656.000 279.000 93 99 109
267.000 657.000 279.000 103 108 119
264.000 659.000 280.000 96 101 110
265.000 658.000 280.000 97 102 112
265.000 659.000 280.000 98 103 113
266.000 657.000 280.000 104 110 119
267.000 656.000 280.000 96 101 111
267.000 657.000 280.000 114 119 128
266.000 658.000 280.000 105 111 121
266.000 659.000 280.000 99 104 114
266.000 659.000 281.000 96 101 112
267.000 658.000 280.000 112 117 127
267.000 658.000 281.000 100 106 116
267.000 659.000 280.000 99 105 115
267.000 659.000 281.000 97 103 113
264.000 660.000 280.000 97 102 111
264.000 661.000 280.000 95 99 109
264.000 661.000 281.000 91 97 107
265.000 660.000 280.000 95 101 110
265.000 660.000 281.000 94 100 110
265.000 661.000 281.000 92 98 108
264.000 662.000 280.000 93 98 107
264.000 662.000 281.000 92 98 108
264.000 663.000 281.000 94 100 110
265.000 662.000 281.000 95 103 114
264.000 663.000 282.000 100 106 117
265.000 662.000 282.000 103 111 123
265.000 663.000 282.000 108 115 127
266.000 660.000 281.000 95 101 111
266.000 661.000 281.000 93 100 111
267.000 660.000 281.000 97 104 115
267.000 661.000 281.000 101 108 119
267.000 661.000 282.000 109 116 128
266.000 662.000 281.000 93 101 113
266.000 662.000 282.000 103 111 123
266.000 663.000 282.000 114 121 133
267.000 662.000 282.000 123 130 142
267.000 663.000 282.000 123 129 141
267.000 663.000 283.000 121 128 140
268.000 656.000 280.000 93 98 107
268.000 657.000 280.000 98 104 114
268.000 657.000 281.000 95 100 110
269.000 656.000 280.000 92 97 106
269.000 656.000 281.000 93 98 107
269.000 657.000 281.000 94 99 108
268.000 658.000 281.000 97 103 113
268.000 659.000 281.000 96 102 113
269.000 658.000 281.000 96 101 111
269.000 658.000 282.000 96 101 111
269.000 659.000 282.000 97 103 113
270.000 656.000 281.000 92 97 106
270.000 657.000 281.000 93 98 107
271.000 656.000 281.000 94 99 108
271.000 656.000 282.000 98 103 112
271.000 657.000 282.000 97 102 112
270.000 658.000 281.000 93 98 108
270.000 658.000 282.000 94 100 109
270.000 659.000 282.000 98 104 115
271.000 658.000 282.000 99 105 115
271.000 659.000 282.000 103 109 120
271.000 659.000 283.000 111 118 130
268.000 660.000 281.000 97 104 115
268.000 660.000 282.000 99 106 118
268.000 661.000 282.000 112 119 131
269.000 660.000 282.000 99 105 116
269.000 661.000 282.000 105 112 123
269.000 661.000 283.000 104 110 121
268.000 662.000 282.000 126 132 144
268.000 662.000 283.000 125 132 143
268.000 663.000 283.000 120 127 139
269.000 662.000 282.000 118 124 135
269.000 662.000 283.000 113 119 130
269.000 663.000 283.000 110 117 129
270.000 660.000 282.000 100 107 117
270.000 660.000 283.000 104 110 121
270.000 661.000 283.000 104 110 120
271.000 660.000 283.000 113 119 131
271.000 661.000 283.000 112 119 130
270.000 662.000 283.000 106 112 122
270.000 663.000 283.000 106 113 124
271.000 662.000 283.000 110 116 127
271.000 663.000 283.000 108 114 126
272.000 640.000 275.000 98 103 113
272.000 641.000 275.000 96 102 112
273.000 640.000 275.000 110 116 127
273.000 641.000 275.000 102 107 118
272.000 642.000 275.000 91 98 109
272.000 643.000 276.000 115 121 132
273.000 642.000 276.000 98 105 116
273.000 643.000 276.000 109 115 126
273.000 643.000 277.000 104 110 121
274.000 640.000 276.000 109 114 125
274.000 641.000 276.000 94 100 109
275.000 640.000 276.000 95 100 109
275.000 640.000 277.000 92 96 105
275.000 641.000 277.000 90 95 104
275.000 641.000 278.000 91 96 105
274.000 642.000 277.000 88 95 105
275.000 642.000 277.000 88 93 102
274.000 643.000 278.000 87 93 103
275.000 642.000 278.000 88 94 103
275.000 643.000 278.000 89 95 104
272.000 644.000 276.000 121 127 138
272.000 644.000 277.000 112 118 129
272.000 645.000 277.000 104 109 119
272.000 645.000 278.000 99 104 113
272.000 647.000 278.000 92 97 106
273.000 646.000 278.000 92 97 106
273.000 646.000 279.000 94 99 108
273.000 647.000 278.000 92 96 105
273.000 647.000 279.000 93 98 107
274.000 645.000 279.000 95 100 108
275.000 644.000 278.000 89 95 105
275.000 644.000 279.000 92 98 109
274.000 646.000 279.000 97 101 110
274.000 647.000 279.000 95 101 110
275.000 646.000 279.000 103 108 119
275.000 647.000 279.000 97 103 113
276.000 640.000 277.000 93 97 106
276.000 641.000 277.000 93 98 107
277.000 640.000 277.000 92 96 105
276.000 641.000 278.000 93 98 107
277.000 640.000 278.000 93 97 105
277.000 641.000 278.000 92 96 105
277.000 641.000 279.000 91 96 105
276.000 642.000 278.000 92 97 106
276.000 643.000 278.000 90 96 106
276.000 643.000 279.000 93 99 110
277.000 642.000 278.000 92 97 106
277.000 642.000 279.000 92 98 107
277.000 643.000 279.000 100 107 118
278.000 640.000 278.000 93 97 106
278.000 640.000 279.000 96 100 109
278.000 641.000 278.000 91 96 105
278.000 641.000 279.000 92 97 106
279.000 640.000 279.000 95 100 109
279.000 641.000 279.000 94 100 109
278.000 642.000 279.000 93 99 109
278.000 643.000 279.000 103 110 121
279.000 642.000 279.000 93 99 110
276.000 644.000 279.000 106 113 124
276.000 645.000 279.000 119 125 136
277.000 644.000 279.000 125 131 143
275.000 646.000 280.000 111 118 130
275.000 647.000 280.000 105 112 123
278.000 643.000 280.000 108 114 126
279.000 642.000 280.000 95 101 112
279.000 643.000 280.000 99 106 118
276.000 645.000 280.000 128 134 145
277.000 644.000 280.000 138 144 155
277.000 645.000 280.000 133 140 152
276.000 646.000 280.000 119 126 139
276.000 647.000 280.000 117 125 138
277.000 646.000 280.000 123 132 145
277.000 647.000 280.000 121 130 144
277.000 647.000 281.000 122 132 146
278.000 644.000 280.000 129 135 147
278.000 645.000 280.000 124 132 144
279.000 644.000 280.000 108 116 129
279.000 644.000 281.000 108 117 131
279.000 645.000 280.000 122 129 142
279.000 645.000 281.000 124 133 147
278.000 646.000 280.000 123 132 145
278.000 646.000 281.000 127 136 150
278.000 647.000 281.000 123 133 148
279.000 646.000 281.000 132 142 157
279.000 647.000 281.000 128 138 154
272.000 648.000 279.000 92 97 107
272.000 649.000 279.000 93 100 110
273.000 648.000 279.000 92 97 107
273.000 649.000 279.000 94 100 109
272.000 650.000 279.000 96 103 114
274.000 648.000 279.000 93 99 108
273.000 649.000 280.000 95 101 110
272.000 650.000 280.000 96 103 114
272.000 651.000 280.000 100 107 118
273.000 650.000 280.000 97 103 113
273.000 651.000 280.000 97 103 113
273.000 651.000 281.000 95 101 111
274.000 648.000 280.000 96 102 112
274.000 649.000 280.000 102 107 118
275.000 648.000 280.000 108 115 127
275.000 649.000 280.000 110 116 127
275.000 649.000 281.000 118 125 137
274.000 650.000 280.000 103 108 118
274.000 650.000 281.000 105 110 120
274.000 651.000 281.000 99 104 114
275.000 650.000 281.000 107 113 124
275.000 651.000 281.000 100 106 117
272.000 652.000 280.000 97 104 114
272.000 652.000 281.000 94 100 111
273.000 652.000 281.000 96 101 112
273.000 653.000 281.000 98 103 114
272.000 654.000 281.000 98 103 114
272.000 655.000 281.000 100 106 117
273.000 654.000 281.000 101 107 117
272.000 655.000 282.000 103 109 119
273.000 654.000 282.000 104 110 121
273.000 655.000 282.000 108 115 127
274.000 652.000 281.000 97 103 113
274.000 653.000 281.000 98 105 115
275.000 652.000 281.000 99 105 115
274.000 653.000 282.000 100 107 118
275.000 652.000 282.000 102 108 119
275.000 653.000 282.000 104 110 122
274.000 654.000 282.000 108 115 126
274.000 655.000 282.000 123 130 143
275.000 654.000 282.000 113 120 132
275.000 655.000 282.000 129 136 149
276.000 648.000 280.000 117 125 138
276.000 648.000 281.000 126 134 146
276.000 649.000 281.000 123 130 143
277.000 648.000 281.000 125 132 146
277.000 649.000 281.000 115 122 135
276.000 650.000 281.000 109 116 128
276.000 651.000 281.000 103 109 120
277.000 650.000 281.000 106 113 125
276.000 651.000 282.000 105 111 122
277.000 651.000 282.000 105 112 124
278.000 648.000 281.000 118 127 141
278.000 649.000 281.000 112 120 133
279.000 648.000 281.000 128 137 152
279.000 649.000 281.000 119 128 142
279.000 648.000 282.000 137 145 160
279.000 649.000 282.000 126 134 148
278.000 650.000 281.000 107 115 127
278.000 650.000 282.000 109 116 129
278.000 651.000 282.000 108 115 126
279.000 650.000 282.000 121 128 141
279.000 651.000 282.000 115 121 133
276.000 652.000 282.000 105 111 122
276.000 653.000 282.000 107 113 125
277.000 652.000 282.000 107 113 124
277.000 653.000 282.000 109 115 126
276.000 654.000 282.000 112 119 130
276.000 655.000 282.000 116 124 136
276.000 655.000 283.000 116 122 133
277.000 654.000 282.000 113 119 130
277.000 655.000 282.000 114 120 131
277.000 655.000 283.000 115 120 131
278.000 652.000 282.000 111 117 128
278.000 653.000 282.000 115 121 132
279.000 652.000 282.000 118 124 135
279.000 653.000 282.000 124 130 141
278.000 654.000 282.000 115 120 131
278.000 655.000 282.000 113 119 130
278.000 655.000 283.000 113 118 129
279.000 654.000 282.000 125 130 142
279.000 655.000 282.000 121 127 139
279.000 655.000 283.000 118 123 135
280.000 640.000 279.000 96 101 111
280.000 641.000 279.000 98 102 112
281.000 640.000 279.000 103 108 117
282.000 640.000 279.000 103 108 118
285.000 640.000 279.000 129 134 146
285.000 641.000 279.000 145 151 163
287.000 640.000 277.000 97 103 113
286.000 640.000 278.000 121 128 140
286.000 640.000 279.000 136 142 155
286.000 641.000 279.000 135 142 156
287.000 640.000 278.000 113 119 129
287.000 641.000 278.000 121 126 136
286.000 642.000 279.000 120 127 139
286.000 643.000 279.000 99 105 115
287.000 642.000 278.000 102 107 117
287.000 642.000 279.000 115 122 133
287.000 643.000 279.000 97 102 112
287.000 644.000 279.000 94 97 104
287.000 645.000 279.000 96 99 107
280.000 641.000 280.000 99 104 114
281.000 640.000 280.000 106 110 120
281.000 641.000 280.000 104 109 119
280.000 642.000 280.000 100 105 116
280.000 643.000 280.000 102 109 121
281.000 642.000 280.000 104 110 121
281.000 643.000 280.000 107 114 125
281.000 643.000 281.000 108 115 126
282.000 640.000 280.000 106 111 121
282.000 641.000 280.000 109 114 124
283.000 640.000 280.000 119 124 135
283.000 641.000 280.000 124 129 139
282.000 642.000 280.000 107 112 123
282.000 643.000 280.000 109 115 126
282.000 643.000 281.000 109 114 124
283.000 642.000 280.000 117 122 133
283.000 643.000 281.000 112 116 126
280.000 644.000 280.000 106 113 125
280.000 644.000 281.000 113 120 133
280.000 645.000 281.000 126 134 148
281.000 644.000 281.000 113 119 131
281.000 645.000 281.000 130 137 150
280.000 646.000 281.000 132 141 157
280.000 647.000 281.000 138 147 162
281.000 646.000 281.000 141 149 163
281.000 647.000 281.000 144 151 165
282.000 644.000 281.000 110 115 125
282.000 645.000 281.000 127 131 142
283.000 644.000 281.000 111 115 125
283.000 645.000 281.000 114 118 128
282.000 646.000 281.000 133 139 152
282.000 647.000 281.000 122 129 142
283.000 646.000 281.000 117 123 134
283.000 647.000 281.000 117 122 135
284.000 640.000 280.000 130 134 145
284.000 641.000 280.000 135 140 151
285.000 640.000 280.000 130 135 146
285.000 641.000 280.000 135 141 153
284.000 642.000 280.000 125 130 141
284.000 643.000 280.000 117 122 133
284.000 643.000 281.000 113 117 127
285.000 642.000 280.000 125 131 144
285.000 643.000 280.000 107 112 123
286.000 642.000 280.000 121 128 140
286.000 643.000 280.000 99 104 114
284.000 644.000 281.000 112 116 125
284.000 645.000 281.000 110 114 123
285.000 644.000 280.000 103 107 116
285.000 644.000 281.000 107 112 121
285.000 645.000 280.000 102 106 114
285.000 645.000 281.000 107 111 120
284.000 646.000 281.000 113 117 127
284.000 647.000 281.000 117 121 131
285.000 646.000 281.000 110 114 123
285.000 647.000 281.000 115 118 128
286.000 644.000 280.000 94 97 106
286.000 645.000 280.000 98 101 109
287.000 645.000 280.000 96 99 107
286.000 646.000 280.000 106 108 116
286.000 647.000 280.000 110 114 123
287.000 646.000 280.000 100 103 112
287.000 647.000 280.000 103 108 119
280.000 648.000 281.000 138 147 162
281.000 648.000 281.000 142 149 163
280.000 648.000 282.000 141 149 164
280.000 649.000 282.000 141 148 162
281.000 648.000 282.000 136 143 157
281.000 649.000 282.000 125 132 145
280.000 650.000 282.000 129 135 148
280.000 651.000 282.000 114 120 133
281.000 650.000 282.000 119 125 137
281.000 651.000 282.000 113 118 130
282.000 648.000 281.000 119 125 139
283.000 648.000 281.000 117 122 133
283.000 649.000 281.000 114 119 129
282.000 648.000 282.000 120 126 139
282.000 649.000 282.000 115 122 134
283.000 649.000 282.000 114 118 129
283.000 650.000 281.000 110 115 125
282.000 650.000 282.000 111 117 127
282.000 651.000 282.000 112 118 129
283.000 650.000 282.000 109 113 124
283.000 651.000 282.000 111 116 126
280.000 652.000 282.000 126 131 144
280.000 653.000 282.000 144 150 162
281.000 652.000 282.000 124 130 142
281.000 653.000 282.000 152 157 170
280.000 654.000 282.000 144 149 162
280.000 655.000 282.000 125 131 143
281.000 654.000 282.000 153 159 172
281.000 655.000 282.000 123 129 142
282.000 652.000 282.000 115 121 132
282.000 653.000 282.000 137 142 154
283.000 652.000 282.000 112 117 128
283.000 653.000 282.000 116 121 131
283.000 655.000 281.000 113 118 129
282.000 654.000 282.000 140 145 158
282.000 655.000 282.000 115 122 135
283.000 654.000 282.000 116 121 132
283.000 655.000 282.000 113 118 130
284.000 648.000 281.000 115 120 130
284.000 649.000 281.000 114 118 128
285.000 648.000 281.000 115 118 128
285.000 649.000 281.000 114 117 127
284.000 650.000 281.000 111 114 125
284.000 651.000 281.000 110 114 125
285.000 650.000 281.000 111 114 124
285.000 651.000 281.000 109 113 124
286.000 648.000 280.000 113 116 126
286.000 648.000 281.000 114 117 126
286.000 649.000 280.000 113 117 128
286.000 649.000 281.000 113 116 126
287.000 648.000 280.000 107 112 123
287.000 649.000 280.000 111 117 129
286.000 650.000 280.000 114 118 128
286.000 650.000 281.000 112 116 125
286.000 651.000 281.000 113 117 127
287.000 650.000 280.000 111 116 127
287.000 651.000 280.000 113 117 127
284.000 652.000 281.000 114 118 128
284.000 653.000 281.000 113 116 126
285.000 652.000 281.000 114 118 128
285.000 653.000 281.000 112 116 127
284.000 654.000 281.000 111 115 125
284.000 655.000 281.000 112 117 127
285.000 654.000 281.000 110 115 125
285.000 655.000 281.000 112 116 127
286.000 652.000 281.000 117 122 133
286.000 653.000 281.000 122 128 141
287.000 652.000 280.000 120 125 136
287.000 653.000 280.000 134 141 154
286.000 654.000 280.000 142 148 161
286.000 654.000 281.000 121 127 138
286.000 655.000 280.000 126 131 142
286.000 655.000 281.000 118 122 133
287.000 654.000 280.000 145 152 165
287.000 655.000 280.000 126 132 143
272.000 656.000 282.000 105 111 121
272.000 657.000 282.000 108 114 125
273.000 656.000 282.000 117 123 135
273.000 657.000 282.000 119 125 137
272.000 658.000 282.000 109 115 127
272.000 658.000 283.000 112 119 130
272.000 659.000 283.000 124 130 142
273.000 658.000 283.000 116 122 134
273.000 659.000 283.000 128 135 148
274.000 656.000 282.000 132 138 151
274.000 657.000 282.000 127 134 146
274.000 657.000 283.000 126 132 144
275.000 656.000 282.000 138 144 157
275.000 656.000 283.000 136 141 153
275.000 657.000 283.000 128 133 145
274.000 658.000 283.000 117 123 135
274.000 659.000 283.000 124 130 142
275.000 658.000 283.000 117 123 134
275.000 659.000 283.000 116 121 132
272.000 660.000 283.000 139 145 158
272.000 661.000 283.000 134 141 154
273.000 660.000 283.000 145 151 163
273.000 661.000 283.000 144 150 162
272.000 662.000 283.000 121 127 140
272.000 663.000 283.000 114 120 132
273.000 662.000 283.000 134 140 152
273.000 663.000 283.000 122 128 139
274.000 660.000 283.000 134 140 152
274.000 661.000 283.000 137 142 154
275.000 660.000 283.000 116 121 132
275.000 661.000 283.000 117 122 133
274.000 662.000 283.000 133 138 149
274.000 663.000 283.000 120 125 135
275.000 662.000 283.000 118 122 132
275.000 663.000 283.000 118 122 132
272.000 663.000 284.000 115 121 133
276.000 656.000 283.000 121 127 139
276.000 657.000 283.000 120 125 137
277.000 656.000 283.000 114 119 129
277.000 657.000 283.000 114 119 130
276.000 658.000 283.000 117 122 133
276.000 659.000 283.000 116 121 132
277.000 658.000 283.000 115 120 130
277.000 659.000 283.000 115 120 130
278.000 656.000 283.000 112 117 128
278.000 657.000 283.000 110 115 126
279.000 656.000 283.000 117 122 133
279.000 657.000 283.000 111 116 127
278.000 658.000 283.000 111 116 126
278.000 659.000 283.000 112 116 125
279.000 658.000 282.000 113 117 128
279.000 658.000 283.000 110 115 125
279.000 659.000 282.000 113 118 127
279.000 659.000 283.000 113 117 127
276.000 660.000 283.000 114 120 131
276.000 661.000 283.000 113 118 129
277.000 660.000 283.000 116 121 131
277.000 661.000 283.000 115 120 131
276.000 662.000 283.000 113 118 128
276.000 663.000 283.000 113 119 130
277.000 662.000 283.000 117 123 134
277.000 663.000 283.000 117 125 139
278.000 660.000 283.000 113 117 127
278.000 661.000 283.000 116 122 133
279.000 660.000 282.000 115 119 130
279.000 660.000 283.000 114 119 129
279.000 661.000 282.000 120 125 136
279.000 661.000 283.000 120 126 136
278.000 662.000 283.000 132 140 154
278.000 663.000 282.000 146 158 176
278.000 663.000 283.000 138 149 166
279.000 662.000 282.000 146 154 168
279.000 663.000 282.000 155 166 184
279.000 664.000 282.000 143 155 174
287.000 659.000 279.000 144 154 171
285.000 663.000 279.000 113 115 126
286.000 660.000 279.000 141 150 166
286.000 661.000 279.000 134 142 156
287.000 660.000 279.000 139 150 166
287.000 661.000 279.000 133 142 156
286.000 662.000 279.000 120 126 137
286.000 663.000 279.000 115 117 126
287.000 662.000 279.000 122 127 139
287.000 663.000 278.000 118 121 131
287.000 663.000 279.000 119 122 131
280.000 656.000 282.000 120 125 137
280.000 657.000 282.000 116 122 133
281.000 656.000 282.000 113 119 132
281.000 657.000 282.000 114 119 131
280.000 658.000 282.000 114 118 129
280.000 659.000 282.000 115 119 129
281.000 658.000 282.000 113 118 128
281.000 659.000 282.000 113 118 128
283.000 656.000 281.000 115 118 129
283.000 657.000 281.000 114 118 127
282.000 656.000 282.000 109 115 126
282.000 657.000 282.000 110 115 126
283.000 656.000 282.000 113 117 128
282.000 658.000 281.000 110 114 123
282.000 659.000 281.000 110 113 122
283.000 658.000 281.000 113 116 125
283.000 659.000 281.000 113 116 125
282.000 658.000 282.000 109 113 124
282.000 659.000 282.000 110 115 125
280.000 660.000 282.000 116 121 131
280.000 661.000 282.000 116 122 133
281.000 660.000 282.000 113 118 129
281.000 661.000 282.000 113 119 130
281.000 662.000 281.000 116 122 133
281.000 663.000 281.000 126 133 148
280.000 662.000 282.000 129 137 150
280.000 663.000 282.000 143 151 167
281.000 662.000 282.000 118 123 135
282.000 660.000 281.000 109 113 122
282.000 661.000 281.000 108 113 123
283.000 660.000 281.000 112 116 125
283.000 661.000 281.000 112 115 126
282.000 660.000 282.000 109 114 124
282.000 662.000 281.000 110 115 127
282.000 663.000 281.000 124 131 145
283.000 662.000 280.000 111 117 129
283.000 662.000 281.000 111 116 128
283.000 663.000 280.000 120 127 142
283.000 663.000 281.000 121 127 141
284.000 656.000 281.000 114 117 127
284.000 657.000 281.000 113 116 125
285.000 656.000 281.000 114 117 127
285.000 657.000 281.000 114 118 127
284.000 658.000 281.000 109 113 122
284.000 659.000 281.000 112 116 125
285.000 658.000 280.000 113 118 129
285.000 658.000 281.000 109 113 124
285.000 659.000 280.000 120 124 135
286.000 656.000 280.000 114 118 129
286.000 656.000 281.000 114 118 128
286.000 657.000 280.000 113 118 130
286.000 657.000 281.000 114 118 129
287.000 656.000 280.000 118 124 135
287.000 657.000 280.000 117 123 136
286.000 658.000 280.000 115 121 135
286.000 659.000 280.000 137 144 158
287.000 658.000 280.000 119 128 143
287.000 659.000 280.000 134 144 161
284.000 660.000 280.000 112 117 129
284.000 660.000 281.000 112 116 126
284.000 661.000 280.000 110 114 126
284.000 661.000 281.000 109 113 124
285.000 660.000 280.000 122 127 141
285.000 661.000 280.000 119 124 139
284.000 662.000 280.000 112 117 128
284.000 663.000 280.000 115 121 134
285.000 662.000 280.000 110 115 127
285.000 663.000 280.000 111 115 126
286.000 660.000 280.000 140 148 162
286.000 661.000 280.000 136 142 157
286.000 662.000 280.000 116 123 137
285.000 664.000 279.000 115 118 130
286.000 664.000 279.000 118 121 131
280.000 664.000 281.000 146 156 174
281.000 664.000 281.000 138 149 166
280.000 664.000 282.000 137 148 167
282.000 664.000 281.000 135 144 161
283.000 664.000 280.000 135 143 158
284.000 664.000 280.000 122 127 141
288.000 640.000 277.000 98 103 113
288.000 641.000 277.000 96 100 109
288.000 642.000 277.000 94 98 106
288.000 643.000 277.000 94 97 104
288.000 642.000 278.000 95 99 108
288.000 643.000 278.000 92 96 104
288.000 644.000 278.000 92 93 100
288.000 644.000 279.000 92 95 101
288.000 645.000 279.000 98 101 109
289.000 644.000 278.000 92 94 100
289.000 645.000 278.000 99 102 109
289.000 645.000 279.000 98 102 111
288.000 646.000 279.000 107 112 123
288.000 647.000 279.000 109 115 129
289.000 646.000 278.000 116 121 132
289.000 646.000 279.000 117 122 133
289.000 647.000 278.000 125 133 147
289.000 647.000 279.000 127 134 148
288.000 647.000 280.000 102 109 121
288.000 648.000 279.000 108 115 127
289.000 648.000 279.000 137 143 155
289.000 649.000 279.000 145 151 164
289.000 650.000 279.000 122 130 145
289.000 651.000 279.000 108 115 127
290.000 648.000 279.000 146 152 164
290.000 649.000 278.000 142 148 160
290.000 649.000 279.000 133 139 152
290.000 650.000 279.000 112 120 135
290.000 651.000 279.000 105 111 124
289.000 652.000 279.000 112 117 128
289.000 653.000 279.000 113 119 130
289.000 654.000 279.000 113 119 131
289.000 655.000 279.000 115 119 131
290.000 652.000 279.000 109 114 124
290.000 653.000 279.000 111 115 125
290.000 654.000 279.000 111 116 126
290.000 655.000 279.000 111 115 125
288.000 648.000 280.000 110 118 131
288.000 649.000 280.000 123 130 143
288.000 650.000 280.000 117 124 137
288.000 651.000 280.000 113 118 129
289.000 650.000 280.000 128 135 149
289.000 651.000 280.000 111 117 129
288.000 652.000 280.000 120 126 136
288.000 653.000 280.000 137 143 156
289.000 652.000 280.000 112 118 130
289.000 653.000 280.000 114 122 136
288.000 654.000 280.000 145 151 164
288.000 655.000 280.000 126 132 144
289.000 654.000 280.000 115 123 137
289.000 655.000 280.000 111 118 131
289.000 656.000 279.000 112 115 125
289.000 657.000 279.000 116 119 129
288.000 658.000 279.000 146 154 170
288.000 659.000 279.000 157 167 183
289.000 658.000 279.000 133 137 148
289.000 659.000 279.000 149 156 170
290.000 656.000 279.000 108 111 122
290.000 657.000 279.000 109 112 121
290.000 658.000 279.000 115 117 125
290.000 659.000 279.000 126 130 141
288.000 660.000 279.000 152 161 176
288.000 661.000 279.000 131 139 154
289.000 660.000 279.000 145 154 169
289.000 661.000 278.000 120 127 142
289.000 661.000 279.000 137 146 161
288.000 662.000 279.000 115 121 135
288.000 663.000 279.000 115 120 131
288.000 656.000 280.000 118 123 135
288.000 657.000 280.000 123 128 140
289.000 656.000 280.000 113 118 129
288.000 658.000 280.000 135 141 155
