ply
format ascii 1.0
element vertex 1478
property float x
property float y
property float z
property uchar red
property uchar green
property uchar blue
end_header
255.000 284.000 200.000 39 46 53
255.000 285.000 200.000 41 47 54
265.000 255.000 175.000 42 48 56
267.000 252.000 173.000 41 48 55
267.000 253.000 173.000 42 48 55
266.000 252.000 174.000 41 48 56
266.000 252.000 175.000 42 49 56
266.000 253.000 175.000 42 48 56
267.000 252.000 174.000 41 48 56
267.000 253.000 174.000 41 48 55
267.000 254.000 173.000 42 48 55
267.000 255.000 173.000 42 49 56
266.000 254.000 174.000 42 48 55
266.000 254.000 175.000 41 48 55
266.000 255.000 174.000 42 48 55
266.000 255.000 175.000 42 48 56
267.000 254.000 174.000 42 48 55
267.000 255.000 174.000 42 49 56
268.000 252.000 171.000 41 48 55
269.000 252.000 170.000 40 47 55
269.000 252.000 171.000 41 48 55
269.000 253.000 171.000 41 48 55
269.000 254.000 171.000 42 49 56
269.000 255.000 171.000 42 49 56
270.000 252.000 169.000 41 48 55
270.000 253.000 169.000 41 48 55
271.000 252.000 168.000 41 48 55
271.000 252.000 169.000 41 48 55
271.000 253.000 169.000 42 48 55
270.000 252.000 170.000 40 47 55
270.000 253.000 170.000 41 48 55
271.000 254.000 169.000 41 48 55
271.000 255.000 169.000 41 48 56
270.000 254.000 170.000 42 48 56
270.000 255.000 170.000 42 49 56
268.000 252.000 172.000 40 47 55
268.000 253.000 172.000 41 48 55
268.000 254.000 172.000 42 48 55
268.000 255.000 172.000 42 48 55
268.000 255.000 173.000 42 49 56
269.000 255.000 172.000 42 49 56
263.000 255.000 179.000 41 48 55
261.000 252.000 183.000 41 47 53
261.000 255.000 183.000 40 46 53
263.000 252.000 181.000 43 50 57
263.000 253.000 181.000 43 50 57
262.000 255.000 181.000 40 47 54
263.000 254.000 181.000 42 48 56
263.000 255.000 180.000 40 47 55
263.000 255.000 181.000 40 47 55
262.000 255.000 182.000 40 47 53
262.000 255.000 183.000 40 47 53
261.000 251.000 189.000 38 45 52
260.000 251.000 191.000 39 45 52
261.000 250.000 190.000 39 45 53
261.000 250.000 191.000 39 46 53
261.000 251.000 190.000 38 45 52
261.000 251.000 191.000 39 45 52
261.000 255.000 184.000 40 46 53
261.000 255.000 185.000 40 46 52
261.000 255.000 186.000 39 45 52
261.000 255.000 187.000 39 45 52
261.000 252.000 189.000 37 44 51
261.000 253.000 189.000 37 44 51
260.000 252.000 191.000 38 45 52
260.000 253.000 190.000 37 44 51
260.000 253.000 191.000 38 45 52
261.000 252.000 190.000 38 44 51
260.000 255.000 189.000 38 45 52
261.000 254.000 188.000 38 45 52
261.000 255.000 188.000 38 45 52
260.000 254.000 190.000 38 45 52
260.000 254.000 191.000 39 45 53
260.000 255.000 190.000 38 45 52
260.000 255.000 191.000 39 45 53
265.000 251.000 177.000 43 50 58
264.000 251.000 178.000 45 51 59
264.000 251.000 179.000 44 51 58
265.000 252.000 177.000 44 51 58
265.000 253.000 176.000 42 49 56
265.000 253.000 177.000 43 49 57
264.000 252.000 178.000 45 51 59
264.000 252.000 179.000 44 50 58
264.000 253.000 178.000 44 51 59
264.000 253.000 179.000 43 50 58
264.000 254.000 177.000 42 48 56
264.000 255.000 177.000 41 48 56
265.000 254.000 176.000 42 48 56
265.000 254.000 177.000 42 49 56
265.000 255.000 176.000 41 48 55
265.000 255.000 177.000 42 48 56
264.000 254.000 178.000 42 49 56
264.000 254.000 179.000 42 49 57
264.000 255.000 178.000 40 47 55
264.000 255.000 179.000 41 48 55
261.000 249.000 193.000 40 46 53
260.000 250.000 192.000 40 46 53
260.000 250.000 193.000 40 46 53
260.000 251.000 192.000 39 45 52
260.000 251.000 193.000 39 46 52
261.000 250.000 192.000 40 46 53
261.000 250.000 193.000 40 46 53
261.000 251.000 192.000 39 45 52
260.000 250.000 194.000 39 46 52
260.000 251.000 194.000 39 45 52
260.000 252.000 192.000 38 45 52
260.000 252.000 193.000 39 45 52
260.000 253.000 192.000 39 45 53
260.000 253.000 193.000 39 46 53
260.000 252.000 194.000 39 45 52
260.000 253.000 194.000 39 46 53
261.000 252.000 194.000 39 46 53
261.000 252.000 195.000 39 46 53
261.000 253.000 194.000 40 46 53
261.000 253.000 195.000 40 46 53
260.000 254.000 192.000 39 46 53
260.000 254.000 193.000 40 46 53
260.000 255.000 192.000 39 46 53
260.000 255.000 193.000 40 46 53
260.000 254.000 194.000 40 46 53
260.000 255.000 194.000 40 46 53
261.000 254.000 194.000 40 46 53
261.000 254.000 195.000 39 46 53
261.000 255.000 194.000 40 46 53
261.000 255.000 195.000 40 46 53
261.000 252.000 196.000 39 46 53
261.000 253.000 196.000 40 46 53
261.000 253.000 197.000 39 46 53
261.000 254.000 196.000 39 45 53
261.000 254.000 197.000 39 46 53
261.000 255.000 196.000 39 46 53
261.000 255.000 197.000 39 46 53
261.000 254.000 198.000 39 45 53
261.000 255.000 198.000 39 45 52
261.000 255.000 199.000 38 45 52
265.000 256.000 175.000 42 49 56
265.000 257.000 175.000 42 49 56
265.000 258.000 175.000 41 48 55
267.000 256.000 173.000 43 49 57
267.000 257.000 173.000 42 49 56
266.000 256.000 174.000 42 49 56
266.000 256.000 175.000 42 48 56
266.000 257.000 174.000 42 48 56
266.000 257.000 175.000 42 48 55
267.000 256.000 174.000 43 49 56
267.000 257.000 174.000 42 48 56
267.000 258.000 173.000 41 48 56
266.000 258.000 175.000 40 47 55
266.000 259.000 175.000 40 47 55
267.000 258.000 174.000 41 48 56
267.000 259.000 174.000 40 47 55
266.000 260.000 175.000 40 47 55
266.000 261.000 175.000 40 47 55
267.000 260.000 174.000 40 48 56
267.000 260.000 175.000 40 47 55
267.000 261.000 174.000 40 48 56
267.000 261.000 175.000 40 48 56
267.000 262.000 174.000 40 48 56
267.000 262.000 175.000 40 48 56
267.000 263.000 175.000 40 47 56
269.000 256.000 171.000 42 48 56
269.000 257.000 171.000 41 48 56
269.000 258.000 171.000 41 48 55
271.000 256.000 169.000 40 47 55
271.000 257.000 169.000 41 47 55
270.000 256.000 170.000 41 48 55
270.000 256.000 171.000 41 48 55
270.000 257.000 170.000 41 47 55
270.000 257.000 171.000 41 48 55
271.000 257.000 170.000 41 48 55
271.000 258.000 169.000 40 47 55
271.000 259.000 169.000 41 48 55
270.000 258.000 170.000 41 48 55
270.000 258.000 171.000 41 48 56
270.000 259.000 171.000 40 48 55
271.000 258.000 170.000 40 47 55
271.000 259.000 170.000 40 47 55
268.000 256.000 172.000 42 49 56
268.000 256.000 173.000 43 49 56
268.000 257.000 172.000 42 48 56
268.000 257.000 173.000 41 48 56
269.000 256.000 172.000 42 49 56
269.000 257.000 172.000 41 48 56
268.000 258.000 173.000 41 48 56
268.000 259.000 173.000 41 48 56
269.000 258.000 172.000 41 48 56
269.000 258.000 173.000 41 48 56
269.000 259.000 172.000 42 49 56
269.000 259.000 173.000 41 49 56
268.000 259.000 174.000 41 48 56
270.000 260.000 171.000 41 48 56
270.000 261.000 171.000 41 49 57
271.000 260.000 170.000 41 48 56
271.000 260.000 171.000 40 48 56
271.000 261.000 170.000 41 49 57
271.000 261.000 171.000 41 49 57
271.000 262.000 170.000 41 49 57
271.000 262.000 171.000 42 49 57
271.000 263.000 171.000 40 47 56
268.000 260.000 173.000 41 49 57
269.000 260.000 172.000 42 49 57
269.000 260.000 173.000 42 49 57
269.000 261.000 172.000 42 49 57
269.000 261.000 173.000 42 49 57
268.000 260.000 174.000 41 48 56
268.000 261.000 174.000 41 49 57
268.000 262.000 173.000 41 49 57
269.000 262.000 172.000 42 49 57
269.000 262.000 173.000 41 49 57
269.000 263.000 173.000 40 48 56
268.000 262.000 174.000 41 48 56
268.000 263.000 174.000 40 48 56
268.000 263.000 175.000 40 48 56
270.000 260.000 172.000 41 49 56
270.000 261.000 172.000 42 49 57
270.000 262.000 172.000 42 49 57
270.000 263.000 172.000 40 48 56
271.000 263.000 172.000 40 48 56
267.000 264.000 175.000 39 47 55
267.000 265.000 175.000 39 46 54
271.000 264.000 171.000 39 47 55
271.000 265.000 171.000 39 47 55
271.000 266.000 171.000 39 46 54
269.000 264.000 173.000 39 47 56
269.000 265.000 173.000 39 46 55
268.000 264.000 174.000 39 47 55
268.000 264.000 175.000 39 47 55
268.000 265.000 174.000 39 46 54
268.000 265.000 175.000 39 46 54
269.000 264.000 174.000 40 47 56
269.000 265.000 174.000 39 47 55
268.000 266.000 174.000 39 46 54
268.000 266.000 175.000 40 47 55
268.000 267.000 174.000 39 47 55
268.000 267.000 175.000 40 47 55
269.000 266.000 174.000 38 46 54
269.000 267.000 174.000 39 47 55
270.000 264.000 172.000 39 47 55
270.000 264.000 173.000 39 47 55
270.000 265.000 172.000 39 47 55
270.000 265.000 173.000 38 46 55
271.000 264.000 172.000 40 47 56
271.000 265.000 172.000 39 47 55
270.000 266.000 172.000 38 46 54
270.000 266.000 173.000 39 46 54
270.000 267.000 173.000 40 47 55
271.000 266.000 172.000 39 46 54
271.000 267.000 172.000 40 47 55
268.000 268.000 175.000 40 47 54
268.000 269.000 175.000 39 46 54
269.000 268.000 174.000 40 47 55
269.000 269.000 174.000 40 46 54
269.000 269.000 175.000 39 46 53
268.000 270.000 175.000 38 45 53
268.000 271.000 175.000 38 45 53
269.000 270.000 174.000 39 46 53
269.000 270.000 175.000 38 45 53
269.000 271.000 175.000 39 46 54
270.000 268.000 173.000 40 47 55
270.000 269.000 173.000 41 47 55
271.000 268.000 172.000 40 47 54
271.000 268.000 173.000 41 47 55
271.000 269.000 172.000 41 47 55
271.000 269.000 173.000 41 47 55
270.000 269.000 174.000 40 47 54
270.000 270.000 173.000 41 47 54
270.000 271.000 173.000 41 48 54
271.000 270.000 173.000 41 48 55
271.000 271.000 173.000 42 48 55
270.000 270.000 174.000 40 47 54
270.000 271.000 174.000 41 47 54
263.000 256.000 179.000 40 46 54
263.000 257.000 179.000 40 47 55
261.000 256.000 183.000 41 47 53
261.000 257.000 183.000 41 46 53
261.000 258.000 182.000 42 48 54
261.000 258.000 183.000 42 48 54
261.000 259.000 182.000 42 48 55
261.000 259.000 183.000 42 48 54
262.000 256.000 181.000 40 47 54
262.000 257.000 181.000 41 48 55
263.000 256.000 180.000 39 46 53
263.000 256.000 181.000 40 47 54
263.000 257.000 180.000 41 47 55
263.000 257.000 181.000 41 48 55
262.000 256.000 182.000 41 47 54
262.000 256.000 183.000 41 47 54
262.000 257.000 182.000 41 47 54
262.000 257.000 183.000 41 47 54
262.000 258.000 181.000 42 48 55
262.000 259.000 181.000 42 48 55
263.000 258.000 180.000 41 47 55
263.000 258.000 181.000 42 48 55
263.000 259.000 180.000 41 47 55
263.000 259.000 181.000 42 48 55
262.000 258.000 182.000 41 47 54
262.000 258.000 183.000 42 47 54
262.000 259.000 182.000 42 48 55
261.000 260.000 182.000 41 47 54
261.000 260.000 183.000 41 47 53
261.000 261.000 183.000 40 46 53
262.000 260.000 181.000 42 48 55
262.000 261.000 181.000 41 47 55
263.000 260.000 180.000 41 48 55
263.000 260.000 181.000 41 48 55
263.000 261.000 180.000 41 48 55
263.000 261.000 181.000 41 47 55
262.000 260.000 182.000 42 48 54
262.000 261.000 182.000 41 48 55
262.000 261.000 183.000 40 47 54
262.000 262.000 181.000 41 47 55
263.000 262.000 180.000 40 47 55
263.000 262.000 181.000 40 47 55
263.000 263.000 180.000 40 47 55
263.000 263.000 181.000 40 47 55
262.000 262.000 182.000 41 47 55
262.000 262.000 183.000 40 46 53
262.000 263.000 182.000 40 47 54
262.000 263.000 183.000 40 47 54
263.000 263.000 182.000 40 47 55
263.000 263.000 183.000 40 47 54
261.000 256.000 184.000 41 46 53
261.000 256.000 185.000 40 46 52
261.000 257.000 184.000 40 46 52
261.000 257.000 185.000 40 46 52
261.000 256.000 186.000 39 45 52
261.000 256.000 187.000 39 45 51
261.000 257.000 186.000 39 45 52
261.000 257.000 187.000 38 45 51
261.000 258.000 184.000 41 47 53
261.000 258.000 185.000 40 46 52
261.000 259.000 184.000 42 47 54
261.000 259.000 185.000 41 46 53
260.000 258.000 187.000 39 45 51
260.000 259.000 186.000 40 46 52
260.000 259.000 187.000 40 46 52
261.000 258.000 186.000 40 45 52
261.000 258.000 187.000 39 45 51
261.000 259.000 186.000 39 45 52
260.000 256.000 189.000 40 46 53
260.000 257.000 189.000 40 46 53
261.000 256.000 188.000 38 44 52
261.000 256.000 189.000 39 46 53
261.000 257.000 188.000 38 45 52
261.000 257.000 189.000 39 46 53
260.000 256.000 190.000 39 46 53
260.000 256.000 191.000 39 46 53
260.000 257.000 190.000 40 46 53
260.000 257.000 191.000 40 47 54
260.000 258.000 188.000 39 45 52
260.000 258.000 189.000 39 46 53
260.000 259.000 188.000 40 46 53
260.000 259.000 189.000 40 46 53
261.000 258.000 188.000 39 45 52
261.000 258.000 189.000 39 45 52
260.000 258.000 190.000 39 46 53
260.000 258.000 191.000 40 47 54
260.000 259.000 190.000 40 46 53
260.000 259.000 191.000 41 47 54
260.000 260.000 185.000 40 46 52
261.000 260.000 184.000 41 46 53
261.000 260.000 185.000 40 46 52
261.000 261.000 184.000 41 46 53
261.000 261.000 185.000 41 46 53
260.000 260.000 186.000 41 46 53
260.000 260.000 187.000 41 47 53
260.000 261.000 186.000 40 46 53
260.000 261.000 187.000 40 46 52
261.000 261.000 186.000 41 46 53
261.000 262.000 184.000 41 46 53
261.000 262.000 185.000 40 46 53
261.000 263.000 185.000 41 47 54
260.000 262.000 187.000 40 46 53
261.000 262.000 186.000 40 46 53
261.000 262.000 187.000 40 46 53
261.000 263.000 186.000 40 47 54
261.000 263.000 187.000 41 47 54
262.000 262.000 184.000 40 46 53
262.000 263.000 184.000 41 47 54
262.000 263.000 185.000 41 47 54
260.000 260.000 188.000 40 46 53
260.000 260.000 189.000 40 46 53
260.000 261.000 188.000 39 46 53
260.000 261.000 189.000 39 46 53
260.000 260.000 190.000 40 46 54
260.000 260.000 191.000 42 48 55
260.000 261.000 190.000 41 47 54
260.000 261.000 191.000 42 48 55
260.000 262.000 188.000 39 46 53
260.000 262.000 189.000 40 46 53
260.000 263.000 188.000 40 46 53
260.000 263.000 189.000 41 47 54
261.000 263.000 188.000 40 47 54
260.000 262.000 190.000 40 47 54
260.000 262.000 191.000 40 47 54
260.000 263.000 190.000 41 47 54
260.000 263.000 191.000 41 47 54
263.000 264.000 183.000 40 47 55
263.000 265.000 183.000 40 47 55
263.000 266.000 183.000 41 48 56
263.000 267.000 183.000 42 49 56
263.000 268.000 183.000 41 48 56
263.000 269.000 183.000 41 48 55
263.000 270.000 183.000 41 47 55
263.000 271.000 183.000 40 47 54
259.000 265.000 190.000 40 46 53
259.000 265.000 191.000 40 47 54
259.000 266.000 190.000 41 47 54
259.000 266.000 191.000 40 47 54
259.000 267.000 190.000 40 47 53
259.000 267.000 191.000 40 47 54
259.000 268.000 189.000 41 47 54
259.000 269.000 189.000 41 47 53
258.000 269.000 191.000 40 46 53
259.000 268.000 190.000 40 47 53
259.000 268.000 191.000 40 46 53
259.000 269.000 190.000 41 47 53
259.000 269.000 191.000 40 46 53
259.000 270.000 189.000 40 46 53
259.000 271.000 189.000 41 47 54
258.000 270.000 191.000 40 46 53
258.000 271.000 190.000 41 47 54
258.000 271.000 191.000 40 46 53
259.000 270.000 190.000 40 46 53
259.000 270.000 191.000 40 46 53
259.000 271.000 190.000 41 47 54
261.000 265.000 185.000 40 47 54
261.000 264.000 186.000 41 47 55
261.000 264.000 187.000 41 47 54
261.000 265.000 186.000 40 47 54
261.000 265.000 187.000 41 47 54
261.000 266.000 185.000 41 48 55
261.000 266.000 186.000 41 48 55
261.000 266.000 187.000 42 48 55
261.000 267.000 186.000 40 47 55
261.000 267.000 187.000 41 48 55
262.000 264.000 184.000 41 48 55
262.000 264.000 185.000 41 48 55
262.000 265.000 184.000 41 48 55
262.000 265.000 185.000 40 47 55
263.000 264.000 184.000 40 47 55
263.000 265.000 184.000 40 47 55
262.000 266.000 184.000 41 48 56
262.000 266.000 185.000 41 48 55
262.000 267.000 184.000 41 48 56
262.000 267.000 185.000 41 48 55
263.000 266.000 184.000 42 48 56
263.000 267.000 184.000 41 48 56
262.000 267.000 186.000 40 47 55
260.000 264.000 188.000 40 47 54
260.000 264.000 189.000 40 46 53
260.000 265.000 188.000 40 47 54
260.000 265.000 189.000 40 46 53
261.000 264.000 188.000 41 47 54
261.000 265.000 188.000 41 47 54
260.000 264.000 190.000 41 47 54
260.000 264.000 191.000 41 47 54
260.000 265.000 190.000 40 46 53
260.000 266.000 188.000 41 47 54
260.000 266.000 189.000 41 47 54
260.000 267.000 188.000 41 47 54
260.000 267.000 189.000 41 47 53
261.000 266.000 188.000 41 47 54
261.000 267.000 188.000 41 47 54
260.000 266.000 190.000 41 47 53
260.000 269.000 187.000 41 47 54
261.000 268.000 186.000 41 48 55
261.000 268.000 187.000 40 47 54
261.000 269.000 186.000 41 48 55
261.000 269.000 187.000 41 47 54
261.000 270.000 185.000 39 46 54
261.000 271.000 185.000 39 46 54
260.000 270.000 187.000 41 47 55
260.000 271.000 187.000 40 47 53
261.000 270.000 186.000 41 47 55
261.000 270.000 187.000 41 47 54
261.000 271.000 186.000 40 46 54
261.000 271.000 187.000 40 47 54
262.000 268.000 184.000 41 48 56
262.000 268.000 185.000 41 48 56
262.000 269.000 184.000 41 48 56
262.000 269.000 185.000 41 48 56
263.000 268.000 184.000 41 48 56
263.000 269.000 184.000 41 48 55
262.000 268.000 186.000 41 48 56
262.000 270.000 184.000 40 47 55
262.000 270.000 185.000 40 47 55
262.000 271.000 185.000 39 46 54
263.000 270.000 184.000 41 47 55
263.000 271.000 184.000 40 47 54
262.000 271.000 186.000 39 46 54
260.000 268.000 188.000 40 46 53
260.000 268.000 189.000 41 47 53
260.000 269.000 188.000 42 47 54
260.000 269.000 189.000 41 46 53
260.000 270.000 188.000 41 47 54
260.000 271.000 188.000 41 47 54
264.000 256.000 177.000 41 48 55
264.000 257.000 177.000 42 48 56
265.000 256.000 176.000 42 49 56
265.000 256.000 177.000 41 48 56
265.000 257.000 176.000 42 49 56
265.000 257.000 177.000 42 49 56
264.000 256.000 178.000 41 48 55
264.000 256.000 179.000 40 47 54
264.000 257.000 178.000 42 48 55
264.000 257.000 179.000 41 47 55
264.000 258.000 177.000 41 48 55
264.000 259.000 177.000 41 47 55
265.000 258.000 176.000 41 48 56
265.000 258.000 177.000 41 48 55
265.000 259.000 176.000 40 47 55
265.000 259.000 177.000 40 47 55
264.000 258.000 178.000 41 48 55
264.000 258.000 179.000 41 47 55
264.000 259.000 178.000 41 47 55
264.000 259.000 179.000 41 47 55
266.000 259.000 176.000 40 47 55
264.000 259.000 180.000 41 47 55
265.000 260.000 176.000 40 47 55
265.000 260.000 177.000 40 47 55
265.000 261.000 177.000 40 47 54
264.000 260.000 178.000 41 48 55
264.000 260.000 179.000 41 48 55
264.000 261.000 179.000 41 47 55
265.000 260.000 178.000 40 47 55
265.000 261.000 178.000 40 47 54
265.000 261.000 179.000 40 47 55
265.000 262.000 177.000 40 47 55
264.000 262.000 179.000 41 48 55
264.000 263.000 179.000 40 47 55
265.000 262.000 178.000 40 47 55
265.000 262.000 179.000 41 48 55
265.000 263.000 178.000 40 47 55
265.000 263.000 179.000 40 47 55
266.000 260.000 176.000 40 47 55
266.000 261.000 176.000 40 47 55
266.000 261.000 177.000 40 47 55
266.000 262.000 176.000 41 48 56
266.000 262.000 177.000 41 48 56
266.000 263.000 176.000 41 48 56
266.000 263.000 177.000 40 48 56
267.000 262.000 176.000 41 48 56
267.000 263.000 176.000 41 48 56
264.000 260.000 180.000 41 48 55
264.000 261.000 180.000 41 48 55
264.000 262.000 180.000 41 48 55
264.000 263.000 180.000 40 47 55
264.000 263.000 181.000 40 47 55
264.000 263.000 182.000 40 47 55
264.000 264.000 179.000 40 47 55
265.000 264.000 178.000 40 47 55
265.000 264.000 179.000 40 47 55
265.000 265.000 178.000 43 49 57
265.000 265.000 179.000 41 48 56
265.000 266.000 179.000 41 48 55
265.000 267.000 179.000 41 47 55
266.000 264.000 177.000 40 47 55
266.000 265.000 177.000 41 48 56
267.000 264.000 176.000 40 47 55
267.000 265.000 176.000 40 47 55
266.000 264.000 178.000 40 47 55
266.000 265.000 178.000 42 49 57
266.000 266.000 177.000 41 48 56
267.000 266.000 176.000 40 47 55
267.000 266.000 177.000 41 47 55
267.000 267.000 176.000 40 47 55
267.000 267.000 177.000 40 47 55
266.000 266.000 178.000 41 48 55
266.000 266.000 179.000 41 47 55
266.000 267.000 178.000 40 47 55
266.000 267.000 179.000 41 47 55
264.000 264.000 180.000 40 47 55
264.000 264.000 181.000 39 47 54
265.000 264.000 180.000 40 47 55
265.000 264.000 181.000 39 46 54
265.000 265.000 180.000 41 48 55
265.000 265.000 181.000 41 48 55
264.000 264.000 182.000 40 47 55
264.000 264.000 183.000 40 48 55
264.000 265.000 182.000 40 47 55
264.000 265.000 183.000 40 47 55
265.000 264.000 182.000 40 47 55
265.000 265.000 182.000 40 47 55
265.000 266.000 180.000 41 48 56
265.000 266.000 181.000 42 48 56
265.000 267.000 180.000 41 48 56
265.000 267.000 181.000 42 48 56
264.000 266.000 182.000 42 49 56
264.000 266.000 183.000 41 48 56
264.000 267.000 182.000 42 49 56
264.000 267.000 183.000 42 49 56
265.000 266.000 182.000 42 48 56
265.000 267.000 182.000 42 49 56
266.000 267.000 180.000 41 48 55
265.000 271.000 179.000 38 44 52
267.000 268.000 176.000 39 46 54
267.000 268.000 177.000 39 46 54
267.000 269.000 176.000 39 46 54
267.000 269.000 177.000 39 46 54
266.000 268.000 178.000 40 47 54
266.000 268.000 179.000 41 47 55
266.000 269.000 178.000 39 46 54
266.000 269.000 179.000 40 47 54
266.000 271.000 177.000 37 44 52
267.000 270.000 176.000 39 46 53
267.000 270.000 177.000 38 45 53
267.000 271.000 176.000 37 45 52
267.000 271.000 177.000 37 45 52
266.000 270.000 178.000 38 45 53
266.000 270.000 179.000 39 46 53
266.000 271.000 178.000 37 44 52
266.000 271.000 179.000 37 44 52
265.000 268.000 180.000 42 49 56
265.000 268.000 181.000 42 49 56
265.000 269.000 180.000 41 48 55
265.000 269.000 181.000 41 48 55
264.000 268.000 182.000 42 48 55
264.000 268.000 183.000 41 48 55
264.000 269.000 182.000 41 48 55
264.000 269.000 183.000 41 48 55
265.000 268.000 182.000 42 48 55
265.000 269.000 182.000 41 47 55
264.000 271.000 181.000 38 45 52
265.000 270.000 180.000 39 46 53
265.000 270.000 181.000 39 46 54
265.000 271.000 180.000 37 44 52
265.000 271.000 181.000 38 45 52
264.000 270.000 182.000 41 47 54
264.000 270.000 183.000 41 47 54
264.000 271.000 182.000 39 45 53
264.000 271.000 183.000 40 46 53
265.000 270.000 182.000 40 47 54
266.000 268.000 180.000 42 48 56
266.000 269.000 180.000 41 47 55
266.000 270.000 180.000 39 46 53
268.000 267.000 176.000 40 47 55
268.000 268.000 176.000 40 47 54
268.000 269.000 176.000 39 46 54
268.000 270.000 176.000 38 45 53
268.000 271.000 176.000 38 45 53
268.000 272.000 175.000 38 45 53
268.000 273.000 175.000 39 46 53
269.000 272.000 175.000 40 47 54
269.000 273.000 174.000 41 47 54
269.000 273.000 175.000 40 47 54
268.000 274.000 175.000 39 46 53
268.000 275.000 175.000 40 47 54
269.000 274.000 174.000 41 47 54
269.000 274.000 175.000 40 47 54
269.000 275.000 174.000 40 47 54
269.000 275.000 175.000 40 47 54
270.000 272.000 173.000 42 48 54
270.000 273.000 173.000 42 47 54
271.000 272.000 173.000 42 48 54
271.000 273.000 172.000 41 47 54
271.000 273.000 173.000 41 47 54
270.000 272.000 174.000 41 48 55
270.000 273.000 174.000 41 48 55
270.000 274.000 173.000 42 47 54
270.000 275.000 173.000 41 47 53
271.000 274.000 172.000 40 46 53
271.000 274.000 173.000 41 47 53
271.000 275.000 172.000 40 46 53
271.000 275.000 173.000 41 47 53
270.000 274.000 174.000 41 47 54
270.000 275.000 174.000 40 46 53
268.000 276.000 175.000 40 46 53
268.000 277.000 175.000 40 46 53
269.000 276.000 174.000 39 46 53
269.000 276.000 175.000 39 45 52
269.000 277.000 174.000 38 45 52
269.000 277.000 175.000 39 45 52
268.000 278.000 175.000 39 45 51
268.000 279.000 175.000 38 44 51
269.000 278.000 174.000 38 44 51
269.000 278.000 175.000 38 44 51
269.000 279.000 174.000 38 44 51
269.000 279.000 175.000 38 44 51
270.000 276.000 173.000 39 45 52
270.000 277.000 173.000 38 44 51
271.000 276.000 172.000 38 44 51
271.000 276.000 173.000 39 45 52
271.000 277.000 172.000 37 44 51
271.000 277.000 173.000 38 44 51
270.000 276.000 174.000 40 46 53
270.000 277.000 174.000 38 44 51
270.000 278.000 173.000 38 44 51
270.000 279.000 173.000 37 44 50
271.000 278.000 172.000 38 44 51
271.000 278.000 173.000 38 44 51
271.000 279.000 172.000 37 43 50
271.000 279.000 173.000 37 44 50
270.000 278.000 174.000 37 44 51
270.000 279.000 174.000 38 44 51
267.000 285.000 173.000 38 44 51
266.000 285.000 175.000 37 44 51
267.000 284.000 174.000 38 44 51
267.000 284.000 175.000 37 44 51
267.000 285.000 174.000 38 44 51
267.000 285.000 175.000 37 44 50
271.000 281.000 171.000 37 43 50
270.000 283.000 171.000 39 45 52
271.000 282.000 171.000 38 44 51
271.000 283.000 170.000 39 45 52
268.000 280.000 175.000 37 44 50
268.000 281.000 175.000 37 43 50
269.000 280.000 174.000 37 43 50
269.000 280.000 175.000 37 43 50
269.000 281.000 174.000 37 44 51
269.000 281.000 175.000 37 43 50
269.000 283.000 172.000 38 44 50
269.000 283.000 173.000 37 43 50
268.000 282.000 175.000 36 43 50
268.000 283.000 174.000 37 43 50
268.000 283.000 175.000 36 43 50
269.000 282.000 174.000 37 43 50
269.000 282.000 175.000 36 43 50
269.000 283.000 174.000 37 43 50
270.000 280.000 173.000 37 44 50
270.000 281.000 173.000 38 44 51
271.000 280.000 172.000 37 44 50
271.000 280.000 173.000 37 44 50
271.000 281.000 172.000 37 43 50
271.000 281.000 173.000 38 44 50
270.000 280.000 174.000 37 43 50
270.000 281.000 174.000 38 44 51
270.000 282.000 172.000 38 44 51
270.000 282.000 173.000 38 44 50
270.000 283.000 172.000 38 44 51
270.000 283.000 173.000 39 44 51
271.000 282.000 172.000 37 44 50
269.000 285.000 171.000 39 45 52
271.000 284.000 169.000 41 47 53
271.000 285.000 168.000 41 47 54
271.000 285.000 169.000 41 47 54
270.000 284.000 170.000 39 45 52
270.000 284.000 171.000 39 45 51
270.000 285.000 170.000 40 46 53
270.000 285.000 171.000 39 45 52
271.000 284.000 170.000 39 46 52
271.000 286.000 168.000 40 47 54
268.000 284.000 173.000 38 44 51
268.000 285.000 172.000 39 45 51
268.000 285.000 173.000 38 44 51
269.000 284.000 172.000 38 44 51
269.000 284.000 173.000 37 44 50
269.000 285.000 172.000 39 45 51
268.000 284.000 174.000 38 44 51
263.000 272.000 183.000 39 45 52
263.000 273.000 183.000 39 45 52
263.000 274.000 183.000 39 45 52
263.000 275.000 183.000 38 44 51
263.000 276.000 183.000 37 44 51
259.000 272.000 188.000 41 47 54
259.000 272.000 189.000 42 47 54
259.000 273.000 188.000 40 46 53
259.000 273.000 189.000 41 47 53
258.000 272.000 190.000 41 47 54
258.000 272.000 191.000 41 47 54
258.000 273.000 190.000 41 47 54
258.000 273.000 191.000 41 47 54
259.000 272.000 190.000 41 47 54
259.000 274.000 188.000 39 46 53
259.000 274.000 189.000 39 46 53
259.000 275.000 188.000 38 45 52
259.000 275.000 189.000 39 45 52
258.000 274.000 190.000 40 46 53
258.000 274.000 191.000 40 47 54
258.000 275.000 190.000 39 46 53
258.000 275.000 191.000 40 46 53
259.000 275.000 190.000 39 45 52
259.000 276.000 189.000 38 45 52
259.000 277.000 189.000 38 44 52
258.000 276.000 191.000 40 46 53
258.000 277.000 191.000 39 45 52
259.000 276.000 190.000 39 45 52
259.000 276.000 191.000 39 46 53
259.000 277.000 190.000 38 45 52
259.000 277.000 191.000 38 45 51
259.000 278.000 190.000 38 45 52
259.000 278.000 191.000 38 44 51
259.000 279.000 190.000 37 44 51
259.000 279.000 191.000 37 43 51
260.000 272.000 187.000 41 47 54
260.000 273.000 187.000 40 46 53
261.000 272.000 186.000 40 46 53
261.000 272.000 187.000 41 47 54
261.000 273.000 186.000 39 46 53
261.000 273.000 187.000 41 47 54
260.000 274.000 187.000 39 46 52
260.000 275.000 187.000 38 44 51
261.000 274.000 186.000 39 45 52
261.000 274.000 187.000 39 45 52
261.000 275.000 186.000 39 45 51
261.000 275.000 187.000 39 45 51
262.000 272.000 185.000 40 46 54
262.000 273.000 185.000 39 46 53
263.000 272.000 184.000 39 46 53
263.000 273.000 184.000 39 45 52
263.000 273.000 185.000 39 45 52
262.000 272.000 186.000 40 46 54
262.000 273.000 186.000 39 46 53
262.000 274.000 185.000 38 45 52
262.000 275.000 185.000 37 44 51
263.000 274.000 184.000 38 45 52
263.000 274.000 185.000 38 45 51
263.000 275.000 184.000 38 45 52
263.000 275.000 185.000 37 44 51
262.000 274.000 186.000 38 44 51
262.000 275.000 186.000 38 44 51
260.000 272.000 188.000 41 47 54
260.000 273.000 188.000 40 46 53
260.000 274.000 188.000 39 46 53
260.000 275.000 188.000 38 44 52
260.000 276.000 187.000 38 44 51
261.000 276.000 186.000 37 43 50
261.000 276.000 187.000 38 44 50
261.000 277.000 187.000 37 44 50
262.000 276.000 185.000 37 43 50
262.000 277.000 185.000 38 44 51
263.000 276.000 184.000 38 45 52
263.000 276.000 185.000 38 44 51
263.000 277.000 184.000 39 45 52
263.000 277.000 185.000 38 45 52
262.000 276.000 186.000 38 43 50
262.000 277.000 186.000 38 44 51
262.000 277.000 187.000 37 44 51
262.000 278.000 185.000 38 45 52
263.000 278.000 184.000 39 45 52
263.000 278.000 185.000 38 45 52
263.000 279.000 184.000 39 46 53
263.000 279.000 185.000 40 46 53
262.000 278.000 186.000 38 45 52
262.000 278.000 187.000 38 45 52
262.000 279.000 186.000 39 46 53
262.000 279.000 187.000 39 46 53
260.000 276.000 188.000 38 44 51
260.000 276.000 189.000 38 44 51
260.000 277.000 189.000 37 44 51
261.000 276.000 188.000 37 44 51
261.000 277.000 188.000 37 43 50
260.000 278.000 189.000 38 44 51
260.000 279.000 189.000 37 43 51
261.000 278.000 188.000 37 44 51
261.000 278.000 189.000 37 44 51
261.000 279.000 188.000 38 44 52
261.000 279.000 189.000 37 44 51
260.000 278.000 190.000 38 45 52
260.000 279.000 190.000 36 44 51
262.000 279.000 188.000 38 45 52
263.000 280.000 183.000 40 46 53
263.000 281.000 183.000 40 46 53
263.000 282.000 183.000 39 46 53
263.000 283.000 183.000 37 45 52
262.000 285.000 183.000 37 44 51
263.000 284.000 182.000 37 44 51
263.000 284.000 183.000 37 44 52
263.000 285.000 182.000 37 44 50
263.000 285.000 183.000 38 44 51
259.000 280.000 191.000 37 44 51
259.000 281.000 191.000 36 44 51
259.000 282.000 191.000 37 44 52
259.000 283.000 191.000 38 45 53
259.000 284.000 190.000 40 47 54
259.000 284.000 191.000 39 46 54
259.000 285.000 190.000 41 48 56
259.000 285.000 191.000 40 47 55
259.000 286.000 190.000 41 48 56
259.000 286.000 191.000 40 47 55
261.000 282.000 187.000 40 47 55
261.000 283.000 187.000 40 47 55
262.000 280.000 185.000 40 46 54
262.000 281.000 185.000 39 46 54
263.000 280.000 184.000 40 46 53
263.000 280.000 185.000 40 46 54
263.000 281.000 184.000 40 46 54
263.000 281.000 185.000 39 46 54
262.000 280.000 186.000 39 46 54
262.000 280.000 187.000 39 46 53
262.000 281.000 186.000 39 46 54
262.000 281.000 187.000 40 47 54
262.000 282.000 185.000 39 47 54
262.000 283.000 184.000 38 46 53
262.000 283.000 185.000 39 46 54
263.000 282.000 184.000 39 46 54
263.000 283.000 184.000 38 45 53
262.000 282.000 186.000 40 47 55
262.000 282.000 187.000 40 47 54
262.000 283.000 186.000 39 46 54
262.000 283.000 187.000 40 47 55
261.000 280.000 188.000 39 45 53
261.000 280.000 189.000 38 45 52
261.000 281.000 188.000 40 46 54
261.000 281.000 189.000 39 46 53
260.000 280.000 190.000 37 44 51
260.000 281.000 190.000 38 45 52
260.000 281.000 191.000 36 44 51
260.000 283.000 189.000 39 46 54
261.000 282.000 188.000 40 47 54
261.000 282.000 189.000 39 46 53
261.000 283.000 188.000 40 47 55
260.000 282.000 190.000 38 45 53
260.000 282.000 191.000 37 45 53
260.000 283.000 190.000 39 46 53
262.000 280.000 188.000 39 46 53
262.000 281.000 188.000 40 47 54
261.000 285.000 185.000 38 45 53
260.000 285.000 187.000 41 47 54
261.000 284.000 186.000 39 46 54
261.000 284.000 187.000 40 47 54
261.000 285.000 186.000 40 47 54
261.000 285.000 187.000 40 47 54
261.000 286.000 187.000 40 47 54
262.000 284.000 184.000 37 44 52
262.000 284.000 185.000 38 45 53
262.000 285.000 184.000 37 44 52
262.000 285.000 185.000 38 45 53
263.000 284.000 184.000 37 44 52
262.000 284.000 186.000 39 46 54
262.000 286.000 184.000 37 44 51
260.000 284.000 188.000 41 48 55
260.000 284.000 189.000 41 47 55
260.000 285.000 188.000 40 47 55
260.000 285.000 189.000 41 48 55
261.000 284.000 188.000 40 47 55
260.000 284.000 190.000 40 47 54
260.000 285.000 190.000 41 48 55
260.000 286.000 188.000 40 47 54
260.000 286.000 189.000 40 47 55
265.000 272.000 179.000 38 45 52
265.000 273.000 179.000 38 44 51
265.000 274.000 179.000 38 44 51
265.000 275.000 179.000 37 44 51
266.000 272.000 177.000 37 44 52
266.000 273.000 177.000 37 44 51
267.000 272.000 176.000 38 45 52
267.000 272.000 177.000 37 44 52
267.000 273.000 176.000 38 45 52
267.000 273.000 177.000 37 44 52
266.000 272.000 178.000 38 45 52
266.000 272.000 179.000 38 45 52
266.000 273.000 178.000 37 44 51
267.000 274.000 176.000 38 45 52
267.000 274.000 177.000 38 45 52
267.000 275.000 176.000 39 46 53
267.000 275.000 177.000 39 46 53
266.000 274.000 178.000 38 44 51
266.000 275.000 178.000 39 45 52
266.000 275.000 179.000 38 44 51
264.000 272.000 181.000 38 45 52
264.000 273.000 181.000 37 44 51
265.000 272.000 180.000 38 45 52
265.000 272.000 181.000 37 44 52
265.000 273.000 180.000 37 44 51
265.000 273.000 181.000 37 44 51
264.000 272.000 182.000 39 45 52
264.000 272.000 183.000 39 45 52
264.000 273.000 182.000 38 44 52
264.000 273.000 183.000 38 45 52
264.000 274.000 181.000 37 44 51
264.000 275.000 181.000 38 44 52
265.000 274.000 180.000 37 44 51
265.000 274.000 181.000 37 44 51
265.000 275.000 180.000 37 44 51
265.000 275.000 181.000 37 44 51
264.000 274.000 182.000 37 44 52
264.000 274.000 183.000 38 45 52
264.000 275.000 182.000 37 44 52
264.000 275.000 183.000 37 44 51
265.000 276.000 179.000 39 45 52
266.000 276.000 177.000 40 46 53
266.000 277.000 177.000 39 46 53
267.000 276.000 176.000 40 47 54
267.000 276.000 177.000 40 46 53
267.000 277.000 176.000 40 46 53
267.000 277.000 177.000 39 46 53
266.000 276.000 178.000 39 46 53
266.000 276.000 179.000 39 45 52
266.000 277.000 178.000 39 46 53
266.000 277.000 179.000 38 45 52
267.000 278.000 176.000 40 46 53
267.000 278.000 177.000 39 46 52
267.000 279.000 176.000 39 45 52
267.000 279.000 177.000 39 45 52
266.000 278.000 178.000 39 45 52
266.000 278.000 179.000 38 45 52
266.000 279.000 178.000 38 45 52
266.000 279.000 179.000 38 45 52
267.000 279.000 178.000 38 44 51
264.000 276.000 181.000 38 44 52
264.000 277.000 181.000 39 45 52
265.000 276.000 180.000 38 45 51
265.000 276.000 181.000 38 44 51
265.000 277.000 180.000 38 45 52
265.000 277.000 181.000 38 45 51
264.000 276.000 182.000 38 44 51
264.000 276.000 183.000 38 44 51
264.000 277.000 182.000 39 45 52
264.000 277.000 183.000 39 45 52
265.000 278.000 180.000 39 45 52
265.000 278.000 181.000 39 45 52
265.000 279.000 180.000 39 45 52
265.000 279.000 181.000 39 45 52
264.000 278.000 182.000 39 46 52
264.000 278.000 183.000 39 45 52
264.000 279.000 182.000 39 45 52
264.000 279.000 183.000 39 45 52
266.000 279.000 180.000 38 44 51
268.000 272.000 176.000 38 45 53
268.000 273.000 176.000 38 45 53
268.000 274.000 176.000 39 45 53
268.000 275.000 176.000 40 46 54
268.000 276.000 176.000 40 47 54
268.000 277.000 176.000 40 46 53
268.000 278.000 176.000 40 46 53
268.000 279.000 176.000 39 45 51
265.000 282.000 179.000 38 44 51
265.000 283.000 179.000 37 43 50
267.000 280.000 176.000 38 44 51
267.000 280.000 177.000 38 44 51
267.000 281.000 176.000 37 43 50
267.000 281.000 177.000 38 44 51
266.000 280.000 178.000 37 43 50
266.000 280.000 179.000 37 44 51
266.000 281.000 178.000 37 44 51
266.000 281.000 179.000 38 44 51
267.000 280.000 178.000 37 44 50
267.000 281.000 178.000 37 44 51
266.000 283.000 177.000 37 43 50
267.000 282.000 176.000 36 43 50
267.000 282.000 177.000 37 43 50
267.000 283.000 177.000 37 43 50
266.000 282.000 178.000 37 44 50
266.000 282.000 179.000 38 44 51
266.000 283.000 178.000 37 43 50
265.000 280.000 180.000 37 44 51
265.000 280.000 181.000 38 44 52
265.000 281.000 180.000 38 44 51
265.000 281.000 181.000 38 44 51
264.000 280.000 182.000 39 45 52
264.000 280.000 183.000 39 46 53
264.000 281.000 182.000 39 45 52
264.000 281.000 183.000 39 46 53
264.000 282.000 181.000 37 44 51
264.000 283.000 181.000 36 43 50
265.000 282.000 180.000 37 44 51
265.000 282.000 181.000 37 44 51
265.000 283.000 180.000 37 43 50
264.000 282.000 182.000 38 45 52
264.000 282.000 183.000 39 45 52
264.000 283.000 182.000 37 44 51
264.000 283.000 183.000 37 44 51
266.000 281.000 180.000 38 44 51
264.000 285.000 179.000 37 44 50
265.000 284.000 179.000 37 43 50
265.000 285.000 178.000 37 43 49
265.000 285.000 179.000 37 43 50
266.000 284.000 177.000 37 43 50
267.000 285.000 176.000 38 44 51
266.000 284.000 178.000 37 43 49
266.000 285.000 178.000 36 43 49
264.000 284.000 180.000 37 43 50
264.000 284.000 181.000 37 43 50
264.000 285.000 180.000 38 44 50
264.000 285.000 181.000 37 44 50
264.000 284.000 182.000 37 44 51
264.000 285.000 182.000 37 44 50
268.000 280.000 176.000 38 44 50
268.000 281.000 176.000 37 43 50
268.000 282.000 176.000 37 43 50
268.000 283.000 176.000 36 43 50
272.000 256.000 169.000 40 47 55
272.000 257.000 169.000 40 47 55
272.000 258.000 169.000 39 46 54
272.000 259.000 169.000 40 48 56
272.000 260.000 169.000 42 49 57
272.000 261.000 169.000 41 49 57
273.000 260.000 169.000 40 48 56
273.000 261.000 169.000 41 49 57
272.000 261.000 170.000 41 49 57
272.000 262.000 169.000 41 49 57
272.000 262.000 170.000 41 48 56
272.000 263.000 170.000 39 47 55
273.000 263.000 170.000 39 47 55
272.000 264.000 170.000 38 46 54
272.000 265.000 170.000 39 46 54
272.000 265.000 171.000 39 46 54
273.000 264.000 170.000 38 46 54
273.000 265.000 170.000 38 46 54
272.000 266.000 170.000 39 46 54
272.000 266.000 171.000 40 47 54
272.000 267.000 171.000 40 47 54
273.000 266.000 170.000 39 46 54
273.000 267.000 170.000 40 47 54
273.000 267.000 171.000 41 47 55
274.000 266.000 170.000 39 46 53
274.000 267.000 170.000 40 47 54
272.000 267.000 172.000 39 47 54
272.000 268.000 171.000 40 47 54
272.000 269.000 171.000 40 46 54
273.000 268.000 170.000 40 47 54
273.000 268.000 171.000 40 47 54
273.000 269.000 170.000 39 46 53
273.000 269.000 171.000 39 46 53
273.000 270.000 170.000 39 46 53
273.000 270.000 171.000 39 46 54
273.000 271.000 170.000 39 46 53
273.000 271.000 171.000 39 46 53
274.000 270.000 170.000 39 46 54
274.000 271.000 170.000 39 46 54
272.000 268.000 172.000 40 47 54
272.000 269.000 172.000 40 47 54
272.000 270.000 172.000 41 47 54
272.000 271.000 172.000 42 48 55
272.000 272.000 171.000 40 46 53
272.000 273.000 171.000 40 47 54
273.000 272.000 170.000 39 46 53
273.000 272.000 171.000 39 46 53
273.000 273.000 171.000 39 46 53
272.000 274.000 171.000 40 46 53
272.000 275.000 171.000 39 45 53
273.000 274.000 170.000 38 45 52
273.000 274.000 171.000 39 46 53
273.000 275.000 170.000 38 45 52
273.000 275.000 171.000 38 45 52
274.000 272.000 170.000 39 46 53
274.000 273.000 170.000 39 45 53
272.000 272.000 172.000 41 47 54
272.000 273.000 172.000 41 47 54
272.000 274.000 172.000 40 46 53
272.000 275.000 172.000 39 46 53
272.000 276.000 171.000 38 45 52
272.000 277.000 171.000 37 44 51
273.000 276.000 170.000 38 44 51
273.000 276.000 171.000 38 45 52
273.000 277.000 170.000 37 44 51
273.000 277.000 171.000 37 44 51
272.000 278.000 171.000 37 43 50
272.000 279.000 171.000 37 43 50
273.000 278.000 170.000 36 43 50
273.000 278.000 171.000 36 43 50
273.000 279.000 170.000 36 42 49
273.000 279.000 171.000 36 43 50
272.000 276.000 172.000 38 45 52
272.000 277.000 172.000 37 44 51
272.000 278.000 172.000 37 44 51
272.000 279.000 172.000 37 43 50
272.000 280.000 170.000 36 43 50
272.000 280.000 171.000 37 43 50
272.000 281.000 170.000 36 43 50
272.000 281.000 171.000 37 43 50
273.000 280.000 170.000 36 43 50
273.000 281.000 170.000 36 43 49
272.000 282.000 169.000 39 45 51
272.000 282.000 170.000 38 44 51
260.000 256.000 192.000 40 47 54
260.000 256.000 193.000 40 47 54
260.000 257.000 192.000 40 46 54
260.000 257.000 193.000 40 47 54
260.000 256.000 194.000 39 46 53
260.000 257.000 194.000 40 46 54
261.000 256.000 194.000 39 46 53
261.000 256.000 195.000 39 46 53
261.000 257.000 194.000 39 46 53
261.000 257.000 195.000 39 46 53
260.000 258.000 192.000 40 47 54
260.000 258.000 193.000 40 47 54
260.000 259.000 192.000 41 48 55
260.000 259.000 193.000 42 48 55
260.000 258.000 194.000 41 47 55
260.000 259.000 194.000 40 47 54
260.000 259.000 195.000 40 46 54
261.000 258.000 194.000 40 47 54
261.000 258.000 195.000 40 47 54
261.000 259.000 195.000 41 47 54
261.000 256.000 196.000 39 46 53
261.000 256.000 197.000 39 46 53
261.000 257.000 196.000 39 46 53
261.000 257.000 197.000 38 45 52
260.000 257.000 199.000 38 45 52
261.000 256.000 198.000 39 45 52
261.000 256.000 199.000 38 45 52
261.000 257.000 198.000 39 45 52
261.000 257.000 199.000 39 45 52
260.000 259.000 196.000 39 46 53
260.000 259.000 197.000 39 45 52
261.000 258.000 196.000 39 46 53
261.000 258.000 197.000 39 45 52
261.000 259.000 196.000 40 46 54
260.000 258.000 199.000 38 45 52
260.000 259.000 198.000 39 45 52
261.000 258.000 198.000 39 45 52
261.000 258.000 199.000 39 45 53
261.000 259.000 198.000 39 45 52
261.000 259.000 199.000 39 45 52
260.000 260.000 192.000 41 48 55
260.000 260.000 193.000 41 48 55
260.000 261.000 192.000 41 47 54
260.000 261.000 193.000 41 47 54
260.000 260.000 194.000 40 47 54
260.000 260.000 195.000 40 46 54
260.000 261.000 194.000 40 47 54
260.000 261.000 195.000 40 46 54
260.000 262.000 192.000 40 47 54
260.000 262.000 193.000 40 46 54
260.000 263.000 192.000 40 47 54
260.000 263.000 193.000 41 47 54
260.000 262.000 194.000 40 47 54
260.000 262.000 195.000 41 47 54
260.000 263.000 194.000 40 47 55
260.000 263.000 195.000 41 48 55
260.000 260.000 196.000 38 45 52
260.000 260.000 197.000 39 45 52
260.000 261.000 196.000 39 45 52
260.000 261.000 197.000 39 45 52
260.000 260.000 198.000 40 46 52
260.000 261.000 198.000 40 46 52
261.000 260.000 199.000 40 46 53
261.000 261.000 199.000 40 46 53
260.000 262.000 196.000 41 47 53
260.000 262.000 197.000 40 45 52
260.000 263.000 196.000 41 47 54
260.000 263.000 197.000 41 47 53
260.000 262.000 198.000 40 46 52
260.000 262.000 199.000 40 46 53
260.000 263.000 198.000 40 46 53
260.000 263.000 199.000 40 46 53
261.000 262.000 199.000 40 46 52
259.000 265.000 192.000 40 47 54
259.000 266.000 192.000 40 47 54
259.000 266.000 193.000 40 47 54
259.000 267.000 192.000 40 47 54
259.000 267.000 193.000 40 47 54
259.000 266.000 194.000 39 46 53
259.000 267.000 194.000 39 46 53
258.000 269.000 192.000 40 46 53
258.000 269.000 193.000 40 46 53
259.000 268.000 192.000 41 47 54
259.000 268.000 193.000 41 47 54
259.000 269.000 192.000 40 46 53
259.000 269.000 193.000 40 46 53
259.000 268.000 194.000 39 46 53
259.000 268.000 195.000 38 45 53
259.000 269.000 194.000 40 46 53
259.000 269.000 195.000 39 46 53
258.000 270.000 192.000 40 46 53
258.000 270.000 193.000 40 46 53
258.000 271.000 192.000 41 47 53
258.000 271.000 193.000 41 47 54
259.000 270.000 193.000 40 46 53
258.000 271.000 194.000 40 47 54
258.000 271.000 195.000 39 46 53
259.000 270.000 194.000 39 46 53
259.000 270.000 195.000 39 46 53
259.000 271.000 194.000 40 46 53
259.000 271.000 195.000 40 46 53
259.000 268.000 196.000 38 45 53
259.000 268.000 197.000 39 45 53
259.000 269.000 196.000 39 45 53
259.000 269.000 197.000 38 45 52
259.000 268.000 198.000 39 45 52
259.000 269.000 198.000 38 44 52
259.000 269.000 199.000 39 45 53
259.000 270.000 196.000 40 47 54
259.000 270.000 197.000 40 46 53
259.000 271.000 196.000 39 46 53
259.000 271.000 197.000 39 45 52
259.000 270.000 198.000 39 45 52
259.000 270.000 199.000 39 45 52
259.000 271.000 198.000 39 45 52
259.000 271.000 199.000 39 45 52
260.000 264.000 192.000 40 47 54
260.000 264.000 193.000 40 47 54
260.000 265.000 193.000 40 47 54
260.000 264.000 194.000 40 47 54
260.000 264.000 195.000 40 46 54
260.000 265.000 194.000 40 47 54
260.000 265.000 195.000 39 46 53
260.000 266.000 194.000 39 46 53
260.000 266.000 195.000 39 46 53
260.000 267.000 194.000 38 46 53
260.000 267.000 195.000 37 44 52
260.000 264.000 196.000 40 46 53
260.000 264.000 197.000 40 46 53
260.000 265.000 196.000 40 46 54
260.000 265.000 197.000 40 46 53
260.000 264.000 198.000 40 45 52
260.000 264.000 199.000 39 45 52
260.000 265.000 198.000 40 46 53
260.000 265.000 199.000 39 45 52
260.000 266.000 196.000 39 46 53
260.000 266.000 197.000 39 46 53
260.000 267.000 196.000 38 45 52
260.000 267.000 197.000 39 45 53
260.000 266.000 198.000 39 46 53
260.000 266.000 199.000 39 46 53
260.000 267.000 198.000 39 46 53
260.000 267.000 199.000 39 46 54
260.000 268.000 196.000 38 45 52
260.000 268.000 197.000 38 44 52
260.000 268.000 198.000 39 46 53
260.000 268.000 199.000 40 46 53
260.000 269.000 198.000 37 43 51
260.000 269.000 199.000 39 46 53
259.000 269.000 200.000 39 45 52
259.000 270.000 200.000 38 45 52
259.000 271.000 200.000 38 45 52
260.000 264.000 200.000 39 45 52
260.000 266.000 200.000 39 46 54
260.000 267.000 200.000 40 47 54
260.000 268.000 200.000 40 46 54
260.000 269.000 200.000 40 46 53
257.000 273.000 194.000 39 46 53
257.000 273.000 195.000 39 46 53
257.000 274.000 193.000 40 47 54
257.000 275.000 193.000 40 46 54
257.000 274.000 194.000 40 47 54
257.000 274.000 195.000 40 46 54
257.000 275.000 194.000 41 47 54
257.000 275.000 195.000 40 46 53
258.000 272.000 192.000 40 46 53
258.000 272.000 193.000 40 47 54
258.000 273.000 192.000 40 47 54
258.000 273.000 193.000 40 46 54
258.000 272.000 194.000 40 47 54
258.000 272.000 195.000 40 46 53
258.000 273.000 194.000 39 46 53
258.000 273.000 195.000 39 46 53
258.000 274.000 192.000 40 47 54
258.000 275.000 192.000 40 47 54
258.000 275.000 193.000 39 46 53
257.000 273.000 196.000 40 46 53
257.000 273.000 197.000 39 46 53
257.000 274.000 196.000 40 46 53
257.000 274.000 197.000 39 46 53
257.000 275.000 196.000 39 46 53
257.000 275.000 197.000 40 46 53
257.000 274.000 198.000 39 46 53
257.000 275.000 198.000 39 46 53
257.000 275.000 199.000 39 45 53
258.000 272.000 196.000 38 45 52
258.000 272.000 197.000 38 45 52
258.000 273.000 196.000 39 46 53
258.000 273.000 197.000 39 45 53
259.000 272.000 196.000 39 45 53
259.000 272.000 197.000 38 45 52
258.000 272.000 198.000 38 45 52
258.000 272.000 199.000 38 45 52
258.000 273.000 198.000 39 45 52
258.000 273.000 199.000 39 45 52
259.000 272.000 198.000 39 46 53
259.000 272.000 199.000 38 45 52
258.000 274.000 197.000 39 46 53
258.000 274.000 198.000 39 45 53
258.000 274.000 199.000 39 45 52
257.000 276.000 193.000 40 46 53
257.000 276.000 194.000 40 46 53
257.000 276.000 195.000 40 46 53
257.000 277.000 194.000 41 47 54
257.000 277.000 195.000 40 46 54
257.000 278.000 194.000 40 47 54
257.000 278.000 195.000 40 47 54
257.000 279.000 194.000 40 47 54
257.000 279.000 195.000 40 47 54
258.000 276.000 192.000 40 46 53
258.000 276.000 193.000 39 46 53
258.000 277.000 192.000 40 46 52
258.000 277.000 193.000 40 46 53
258.000 277.000 194.000 40 47 54
258.000 278.000 192.000 39 45 51
258.000 278.000 193.000 40 46 52
258.000 279.000 192.000 38 44 51
258.000 279.000 193.000 39 45 51
259.000 279.000 192.000 38 44 51
258.000 278.000 194.000 40 47 53
258.000 279.000 194.000 40 46 53
256.000 276.000 196.000 39 46 53
256.000 276.000 197.000 39 46 53
256.000 277.000 196.000 39 46 54
256.000 277.000 197.000 39 46 53
257.000 276.000 196.000 39 46 53
257.000 276.000 197.000 40 46 53
256.000 276.000 198.000 39 46 53
256.000 277.000 198.000 39 46 53
256.000 277.000 199.000 40 47 54
257.000 276.000 198.000 40 46 53
257.000 276.000 199.000 39 46 53
257.000 277.000 199.000 39 46 53
256.000 278.000 196.000 40 47 54
256.000 278.000 197.000 39 46 54
256.000 279.000 196.000 40 47 54
256.000 279.000 197.000 40 47 55
257.000 278.000 196.000 40 47 54
257.000 279.000 196.000 40 47 54
256.000 278.000 198.000 40 47 54
256.000 278.000 199.000 40 47 54
256.000 279.000 198.000 40 47 54
256.000 279.000 199.000 40 47 54
257.000 275.000 200.000 39 46 53
258.000 273.000 200.000 38 45 52
259.000 272.000 200.000 38 45 52
259.000 273.000 200.000 38 45 52
258.000 274.000 200.000 39 46 53
258.000 275.000 200.000 39 46 53
257.000 276.000 200.000 39 46 53
257.000 277.000 200.000 39 46 53
256.000 278.000 200.000 40 47 54
256.000 279.000 200.000 41 47 54
257.000 278.000 200.000 40 46 53
258.000 276.000 200.000 38 45 52
257.000 280.000 194.000 39 46 52
257.000 280.000 195.000 39 46 53
257.000 281.000 194.000 38 44 51
257.000 281.000 195.000 38 45 52
257.000 282.000 195.000 38 44 51
258.000 280.000 192.000 38 44 50
258.000 280.000 193.000 39 44 51
258.000 281.000 193.000 39 44 51
259.000 280.000 192.000 37 44 51
259.000 281.000 192.000 37 44 51
259.000 281.000 193.000 38 44 51
258.000 280.000 194.000 39 45 51
258.000 281.000 194.000 38 44 51
258.000 282.000 193.000 36 43 50
259.000 282.000 192.000 36 43 51
259.000 282.000 193.000 36 43 50
259.000 283.000 192.000 37 44 52
259.000 283.000 193.000 37 44 51
258.000 282.000 195.000 37 43 50
258.000 283.000 195.000 38 44 50
256.000 280.000 197.000 40 47 54
256.000 281.000 197.000 39 46 54
257.000 280.000 196.000 40 47 54
257.000 281.000 196.000 38 45 52
256.000 280.000 198.000 39 46 54
256.000 280.000 199.000 40 46 54
256.000 281.000 198.000 39 46 54
256.000 281.000 199.000 39 46 53
256.000 282.000 197.000 39 46 54
256.000 283.000 197.000 39 46 53
257.000 282.000 196.000 38 45 52
257.000 282.000 197.000 39 46 53
257.000 283.000 197.000 38 45 52
256.000 282.000 198.000 39 46 54
256.000 282.000 199.000 39 46 53
256.000 283.000 198.000 39 46 53
256.000 283.000 199.000 39 46 53
257.000 285.000 195.000 38 44 51
257.000 286.000 194.000 39 45 52
257.000 286.000 195.000 38 45 51
258.000 284.000 193.000 38 44 52
258.000 285.000 192.000 38 45 53
258.000 285.000 193.000 38 45 53
259.000 284.000 193.000 37 44 51
259.000 285.000 192.000 38 45 53
258.000 284.000 195.000 38 44 50
258.000 286.000 192.000 39 46 53
258.000 286.000 193.000 39 46 53
258.000 286.000 194.000 39 45 52
256.000 284.000 197.000 38 44 52
256.000 285.000 197.000 37 44 51
257.000 284.000 197.000 38 44 51
257.000 285.000 197.000 37 44 51
256.000 284.000 198.000 39 46 53
256.000 284.000 199.000 39 46 53
256.000 285.000 198.000 39 46 53
256.000 285.000 199.000 40 47 54
256.000 286.000 197.000 36 43 51
257.000 286.000 196.000 36 43 50
257.000 287.000 196.000 36 43 50
256.000 286.000 198.000 37 44 52
256.000 286.000 199.000 40 46 53
256.000 280.000 200.000 40 47 54
256.000 281.000 200.000 39 46 53
256.000 282.000 200.000 39 46 53
256.000 283.000 200.000 39 45 53
256.000 284.000 200.000 39 46 53
