ply
format ascii 1.0
element vertex 1363
property float x
property float y
property float z
property uchar red
property uchar green
property uchar blue
end_header
319.000 575.000 379.000 105 94 88
317.000 575.000 381.000 102 92 87
317.000 575.000 382.000 101 92 86
317.000 575.000 383.000 100 91 86
318.000 575.000 380.000 103 93 87
318.000 575.000 381.000 103 93 87
319.000 575.000 380.000 104 94 88
319.000 575.000 381.000 103 94 87
318.000 574.000 383.000 101 92 86
318.000 575.000 382.000 102 92 87
318.000 575.000 383.000 100 92 86
319.000 574.000 382.000 102 93 87
319.000 574.000 383.000 101 92 87
319.000 575.000 382.000 103 93 87
317.000 580.000 367.000 94 86 81
318.000 580.000 366.000 93 85 81
318.000 580.000 367.000 94 86 81
319.000 580.000 366.000 92 84 80
319.000 580.000 367.000 94 86 81
317.000 579.000 370.000 99 90 84
318.000 579.000 369.000 99 89 84
319.000 579.000 368.000 96 88 82
319.000 579.000 369.000 98 89 84
318.000 579.000 370.000 99 90 84
318.000 579.000 371.000 101 91 85
319.000 578.000 370.000 100 90 84
319.000 578.000 371.000 101 91 85
319.000 579.000 370.000 99 90 84
319.000 579.000 371.000 100 91 85
317.000 578.000 373.000 103 93 86
317.000 578.000 374.000 103 93 86
319.000 577.000 373.000 104 93 87
318.000 577.000 374.000 104 94 87
318.000 577.000 375.000 105 94 87
319.000 577.000 374.000 105 94 87
319.000 577.000 375.000 105 95 88
318.000 578.000 372.000 102 92 86
318.000 578.000 373.000 103 93 86
318.000 579.000 372.000 101 92 85
319.000 578.000 372.000 102 92 86
319.000 578.000 373.000 103 93 87
318.000 578.000 374.000 104 93 87
318.000 578.000 375.000 104 94 87
318.000 580.000 368.000 96 87 82
318.000 580.000 369.000 97 88 83
319.000 580.000 368.000 96 87 82
317.000 577.000 376.000 104 94 87
317.000 577.000 377.000 104 94 87
317.000 576.000 378.000 104 93 87
317.000 576.000 379.000 103 93 87
317.000 577.000 378.000 104 93 87
317.000 577.000 379.000 103 93 87
318.000 576.000 377.000 105 94 88
318.000 577.000 376.000 105 94 87
318.000 577.000 377.000 104 94 87
319.000 576.000 376.000 105 95 88
319.000 576.000 377.000 105 95 88
319.000 577.000 376.000 105 95 88
318.000 576.000 378.000 104 94 87
318.000 576.000 379.000 104 94 87
319.000 576.000 378.000 105 94 88
319.000 576.000 379.000 104 94 88
317.000 576.000 380.000 103 93 87
317.000 576.000 381.000 102 92 87
318.000 576.000 380.000 103 93 87
322.000 575.000 375.000 108 97 89
323.000 575.000 374.000 109 97 90
323.000 575.000 375.000 109 98 90
327.000 575.000 369.000 109 98 90
326.000 575.000 370.000 109 97 90
326.000 575.000 371.000 110 98 90
327.000 575.000 370.000 110 99 91
327.000 575.000 371.000 112 100 92
324.000 575.000 373.000 109 98 90
325.000 575.000 372.000 109 97 90
325.000 575.000 373.000 111 99 91
324.000 575.000 374.000 110 98 90
324.000 575.000 375.000 111 99 91
325.000 574.000 374.000 114 101 93
325.000 574.000 375.000 115 103 94
325.000 575.000 374.000 112 100 92
325.000 575.000 375.000 113 101 92
326.000 574.000 373.000 114 101 93
326.000 575.000 372.000 110 99 91
326.000 575.000 373.000 112 100 92
327.000 574.000 373.000 115 102 93
327.000 575.000 372.000 113 100 92
327.000 575.000 373.000 113 101 93
326.000 574.000 374.000 115 102 93
326.000 574.000 375.000 117 103 94
327.000 574.000 374.000 117 104 95
327.000 574.000 375.000 118 105 95
321.000 575.000 376.000 108 96 89
321.000 575.000 377.000 107 96 89
320.000 575.000 378.000 106 95 88
320.000 575.000 379.000 105 95 88
321.000 574.000 379.000 107 96 89
321.000 575.000 378.000 107 96 89
321.000 575.000 379.000 107 96 89
323.000 573.000 379.000 110 98 91
322.000 575.000 376.000 109 97 90
322.000 575.000 377.000 109 98 90
323.000 574.000 377.000 111 99 91
323.000 575.000 376.000 110 98 90
323.000 575.000 377.000 110 98 90
322.000 574.000 378.000 109 98 90
322.000 574.000 379.000 109 97 90
322.000 575.000 378.000 108 97 89
323.000 574.000 378.000 111 99 91
323.000 574.000 379.000 110 98 91
320.000 573.000 383.000 102 92 87
321.000 573.000 382.000 105 95 88
321.000 573.000 383.000 103 94 88
320.000 574.000 381.000 104 94 88
320.000 575.000 380.000 105 95 88
320.000 575.000 381.000 104 94 88
321.000 574.000 380.000 106 96 89
321.000 574.000 381.000 106 95 89
320.000 574.000 382.000 103 94 88
320.000 574.000 383.000 102 93 87
321.000 574.000 382.000 104 94 88
321.000 574.000 383.000 103 94 88
322.000 573.000 381.000 107 96 89
323.000 573.000 380.000 109 98 90
323.000 573.000 381.000 108 97 90
322.000 573.000 382.000 106 95 89
322.000 573.000 383.000 105 95 88
323.000 572.000 383.000 105 95 88
323.000 573.000 382.000 107 96 89
323.000 573.000 383.000 106 95 89
322.000 574.000 380.000 108 97 90
322.000 574.000 381.000 107 96 89
323.000 574.000 380.000 109 98 90
325.000 571.000 383.000 109 98 90
326.000 571.000 383.000 110 99 91
327.000 571.000 382.000 113 101 93
327.000 571.000 383.000 112 100 92
325.000 573.000 377.000 116 103 94
324.000 573.000 379.000 112 100 92
325.000 573.000 378.000 115 102 93
325.000 573.000 379.000 114 101 93
324.000 574.000 376.000 113 101 92
324.000 574.000 377.000 113 101 93
324.000 575.000 376.000 112 100 91
325.000 574.000 376.000 115 102 94
325.000 574.000 377.000 115 102 93
324.000 574.000 378.000 113 101 92
324.000 574.000 379.000 111 99 91
325.000 574.000 378.000 114 102 93
326.000 573.000 376.000 117 104 94
326.000 573.000 377.000 116 103 94
327.000 573.000 376.000 118 104 95
327.000 573.000 377.000 117 104 95
326.000 572.000 379.000 115 102 93
326.000 573.000 378.000 116 103 94
326.000 573.000 379.000 115 102 94
327.000 572.000 379.000 116 103 94
327.000 573.000 378.000 117 104 95
327.000 573.000 379.000 116 103 94
326.000 574.000 376.000 116 103 94
327.000 574.000 376.000 117 104 95
324.000 573.000 380.000 111 99 91
324.000 573.000 381.000 109 98 90
325.000 572.000 380.000 113 101 92
325.000 572.000 381.000 111 100 92
325.000 573.000 380.000 112 100 92
325.000 573.000 381.000 111 99 91
324.000 572.000 382.000 109 97 90
324.000 572.000 383.000 107 96 89
324.000 573.000 382.000 108 97 90
325.000 572.000 382.000 110 99 91
325.000 572.000 383.000 108 97 90
326.000 572.000 380.000 114 102 93
326.000 572.000 381.000 113 101 92
327.000 572.000 380.000 115 102 94
327.000 572.000 381.000 114 102 93
326.000 572.000 382.000 112 100 92
326.000 572.000 383.000 110 99 91
327.000 572.000 382.000 113 101 93
328.000 575.000 368.000 110 99 91
328.000 575.000 369.000 111 99 92
329.000 575.000 368.000 112 100 92
329.000 575.000 369.000 114 102 93
328.000 574.000 371.000 116 103 94
328.000 575.000 370.000 113 101 92
328.000 575.000 371.000 114 102 93
329.000 574.000 371.000 117 104 95
329.000 575.000 370.000 116 103 94
329.000 575.000 371.000 117 104 95
330.000 575.000 368.000 113 101 93
330.000 575.000 369.000 115 103 94
331.000 575.000 368.000 114 102 93
331.000 575.000 369.000 116 103 94
330.000 574.000 371.000 119 106 96
330.000 575.000 370.000 118 104 95
331.000 574.000 371.000 120 106 97
331.000 575.000 370.000 119 105 96
331.000 575.000 371.000 120 106 97
328.000 573.000 375.000 120 106 96
329.000 573.000 374.000 121 107 97
329.000 573.000 375.000 121 107 97
328.000 574.000 372.000 116 103 94
328.000 574.000 373.000 118 104 95
328.000 575.000 372.000 114 102 93
329.000 574.000 372.000 118 105 96
329.000 574.000 373.000 119 106 96
328.000 574.000 374.000 119 106 96
328.000 574.000 375.000 120 106 96
329.000 574.000 374.000 120 106 97
330.000 573.000 374.000 122 108 98
330.000 573.000 375.000 122 108 98
331.000 573.000 374.000 123 108 98
331.000 573.000 375.000 123 109 98
330.000 574.000 372.000 120 106 97
330.000 574.000 373.000 121 107 97
331.000 574.000 372.000 121 107 97
331.000 574.000 373.000 122 108 98
332.000 575.000 369.000 118 105 96
332.000 575.000 370.000 120 107 97
332.000 575.000 371.000 122 108 98
332.000 573.000 374.000 125 110 100
332.000 573.000 375.000 125 110 100
332.000 574.000 372.000 123 108 98
332.000 574.000 373.000 124 110 99
332.000 575.000 372.000 123 109 99
332.000 575.000 373.000 125 110 100
333.000 575.000 372.000 125 110 100
333.000 575.000 373.000 126 111 100
332.000 574.000 374.000 125 110 100
333.000 574.000 374.000 126 111 101
333.000 574.000 375.000 127 112 101
333.000 575.000 374.000 128 112 101
333.000 575.000 375.000 128 113 102
334.000 575.000 375.000 128 113 102
330.000 571.000 379.000 119 106 96
331.000 571.000 379.000 120 106 96
328.000 571.000 380.000 117 104 95
328.000 571.000 381.000 116 103 94
329.000 571.000 380.000 118 104 95
329.000 571.000 381.000 117 104 95
328.000 570.000 383.000 113 101 93
328.000 571.000 382.000 115 102 94
328.000 571.000 383.000 113 101 93
329.000 570.000 383.000 114 102 94
329.000 571.000 382.000 116 103 94
329.000 571.000 383.000 115 102 94
330.000 571.000 380.000 119 105 96
330.000 571.000 381.000 118 104 95
331.000 570.000 381.000 118 105 95
331.000 571.000 380.000 119 106 96
331.000 571.000 381.000 118 105 95
330.000 570.000 382.000 117 104 95
330.000 570.000 383.000 116 103 94
330.000 571.000 382.000 117 104 95
331.000 570.000 382.000 117 104 95
331.000 570.000 383.000 116 104 95
328.000 573.000 376.000 119 106 96
328.000 573.000 377.000 119 105 96
329.000 572.000 377.000 120 107 97
329.000 573.000 376.000 121 107 97
329.000 573.000 377.000 120 106 97
328.000 572.000 378.000 118 105 95
328.000 572.000 379.000 117 104 95
328.000 573.000 378.000 118 104 95
329.000 572.000 378.000 119 106 96
329.000 572.000 379.000 119 105 96
330.000 572.000 376.000 122 107 97
330.000 572.000 377.000 121 107 97
330.000 573.000 376.000 121 107 97
331.000 572.000 376.000 122 108 98
331.000 572.000 377.000 122 107 97
331.000 573.000 376.000 123 109 98
330.000 572.000 378.000 121 107 97
330.000 572.000 379.000 120 106 96
331.000 572.000 378.000 121 107 97
328.000 572.000 380.000 117 104 94
328.000 572.000 381.000 115 102 94
329.000 572.000 380.000 118 105 95
332.000 571.000 379.000 122 107 97
333.000 571.000 379.000 123 108 98
332.000 570.000 381.000 119 105 96
332.000 571.000 380.000 120 106 96
332.000 571.000 381.000 120 106 96
333.000 571.000 380.000 122 107 97
333.000 571.000 381.000 121 107 97
332.000 570.000 382.000 118 105 96
332.000 570.000 383.000 117 104 95
333.000 570.000 382.000 120 106 96
333.000 570.000 383.000 119 106 97
333.000 571.000 382.000 120 106 97
334.000 571.000 380.000 122 108 97
334.000 571.000 381.000 122 108 97
334.000 570.000 383.000 121 107 98
334.000 571.000 382.000 123 109 98
334.000 571.000 383.000 123 109 99
335.000 571.000 383.000 125 110 100
332.000 572.000 376.000 124 109 99
332.000 572.000 377.000 123 109 98
332.000 573.000 376.000 125 110 100
333.000 572.000 377.000 125 110 99
333.000 573.000 376.000 127 111 100
333.000 573.000 377.000 126 110 100
332.000 572.000 378.000 122 108 97
333.000 572.000 378.000 124 109 98
333.000 572.000 379.000 123 109 98
333.000 574.000 376.000 127 112 101
334.000 573.000 377.000 127 111 100
334.000 572.000 378.000 124 109 99
334.000 572.000 379.000 124 109 98
334.000 573.000 378.000 126 110 99
334.000 573.000 379.000 126 110 99
334.000 574.000 376.000 128 113 101
334.000 574.000 377.000 128 112 101
334.000 575.000 376.000 132 115 103
334.000 575.000 377.000 134 115 101
334.000 574.000 378.000 129 113 101
334.000 574.000 379.000 129 112 98
334.000 575.000 378.000 133 114 99
334.000 575.000 379.000 134 113 98
334.000 572.000 380.000 124 109 98
334.000 572.000 381.000 124 109 98
334.000 573.000 380.000 127 111 100
335.000 572.000 381.000 125 110 99
335.000 573.000 380.000 130 113 100
335.000 573.000 381.000 130 113 101
334.000 572.000 382.000 124 109 98
335.000 572.000 382.000 127 111 100
335.000 572.000 383.000 128 113 102
335.000 573.000 382.000 131 115 103
335.000 573.000 383.000 134 117 104
334.000 574.000 380.000 131 113 98
334.000 575.000 380.000 135 114 99
335.000 574.000 380.000 133 114 100
335.000 574.000 381.000 135 116 102
335.000 575.000 380.000 137 116 101
335.000 575.000 381.000 138 117 101
335.000 574.000 382.000 137 118 104
335.000 574.000 383.000 139 119 104
335.000 575.000 382.000 140 118 103
335.000 575.000 383.000 141 120 104
336.000 573.000 383.000 137 119 105
321.000 579.000 365.000 92 84 80
320.000 579.000 366.000 94 86 81
320.000 579.000 367.000 95 87 82
321.000 579.000 366.000 93 85 81
321.000 579.000 367.000 95 87 82
322.000 579.000 365.000 92 85 81
323.000 578.000 365.000 93 85 81
323.000 579.000 365.000 92 85 81
322.000 578.000 366.000 94 86 82
322.000 578.000 367.000 95 87 82
322.000 579.000 366.000 94 86 81
322.000 579.000 367.000 95 87 82
323.000 578.000 366.000 94 86 81
323.000 578.000 367.000 96 87 82
323.000 579.000 366.000 93 85 81
320.000 580.000 366.000 92 85 80
320.000 580.000 367.000 94 86 81
321.000 580.000 366.000 92 85 80
324.000 577.000 367.000 98 89 84
325.000 577.000 366.000 97 88 83
325.000 577.000 367.000 98 90 84
324.000 578.000 365.000 93 86 81
325.000 578.000 365.000 95 87 82
324.000 578.000 366.000 95 87 82
324.000 578.000 367.000 97 88 83
325.000 578.000 366.000 96 88 83
327.000 577.000 365.000 98 89 84
326.000 577.000 366.000 99 90 84
326.000 577.000 367.000 100 91 85
327.000 576.000 367.000 103 93 87
327.000 577.000 366.000 100 91 85
327.000 577.000 367.000 102 92 86
326.000 578.000 365.000 96 88 83
327.000 578.000 365.000 97 89 83
326.000 578.000 366.000 97 89 83
328.000 577.000 365.000 101 92 86
329.000 577.000 365.000 103 93 87
328.000 576.000 366.000 104 94 88
328.000 576.000 367.000 105 95 88
328.000 577.000 366.000 102 92 86
328.000 577.000 367.000 102 93 86
329.000 576.000 366.000 107 96 89
329.000 576.000 367.000 109 98 90
329.000 577.000 366.000 105 95 88
330.000 577.000 364.000 103 93 87
330.000 577.000 365.000 105 95 88
331.000 577.000 364.000 104 94 87
331.000 577.000 365.000 106 95 88
330.000 576.000 366.000 108 97 90
330.000 576.000 367.000 111 99 91
330.000 577.000 366.000 107 96 89
331.000 576.000 366.000 110 98 91
331.000 576.000 367.000 112 100 92
331.000 577.000 366.000 109 98 90
332.000 577.000 365.000 106 96 89
332.000 577.000 366.000 110 99 91
332.000 577.000 367.000 113 101 93
333.000 577.000 367.000 114 102 93
332.000 578.000 365.000 105 95 88
333.000 578.000 365.000 104 94 88
333.000 578.000 366.000 109 98 91
333.000 578.000 367.000 113 101 94
334.000 578.000 366.000 109 98 91
334.000 578.000 367.000 114 102 94
334.000 579.000 366.000 110 98 91
334.000 579.000 367.000 117 103 93
334.000 580.000 366.000 113 100 90
334.000 580.000 367.000 121 106 93
334.000 581.000 367.000 126 108 94
335.000 581.000 366.000 120 104 92
335.000 581.000 367.000 131 112 96
335.000 582.000 367.000 138 116 99
335.000 583.000 367.000 147 120 103
335.000 584.000 367.000 154 121 106
335.000 585.000 367.000 158 121 107
335.000 586.000 366.000 157 120 105
335.000 586.000 367.000 161 123 109
335.000 587.000 366.000 160 122 107
335.000 587.000 367.000 165 125 111
332.000 591.000 367.000 178 132 119
333.000 590.000 367.000 180 135 121
333.000 591.000 366.000 184 139 126
333.000 591.000 367.000 182 137 124
334.000 589.000 367.000 175 134 119
335.000 588.000 366.000 164 126 110
335.000 588.000 367.000 170 130 115
335.000 589.000 366.000 170 130 115
335.000 589.000 367.000 173 133 118
334.000 590.000 366.000 176 134 119
334.000 590.000 367.000 178 135 121
334.000 591.000 366.000 178 135 119
335.000 590.000 366.000 173 132 117
321.000 577.000 371.000 101 91 85
320.000 578.000 369.000 99 90 84
320.000 579.000 368.000 97 88 83
320.000 579.000 369.000 98 89 84
321.000 578.000 368.000 97 88 83
321.000 578.000 369.000 98 89 84
321.000 579.000 368.000 97 88 83
321.000 579.000 369.000 97 89 83
320.000 578.000 370.000 100 90 84
320.000 578.000 371.000 101 91 85
321.000 578.000 370.000 99 90 84
321.000 578.000 371.000 100 91 85
322.000 577.000 369.000 99 90 85
323.000 577.000 369.000 99 90 84
322.000 577.000 370.000 101 91 85
322.000 577.000 371.000 102 92 86
323.000 576.000 371.000 103 93 87
323.000 577.000 370.000 101 92 86
323.000 577.000 371.000 102 92 86
322.000 578.000 368.000 97 88 83
322.000 578.000 369.000 98 89 84
323.000 578.000 368.000 97 88 83
323.000 578.000 369.000 98 89 84
322.000 578.000 370.000 100 90 85
320.000 577.000 372.000 102 92 86
320.000 577.000 373.000 104 94 87
321.000 576.000 373.000 105 95 88
321.000 577.000 372.000 102 92 86
321.000 577.000 373.000 104 94 87
320.000 576.000 375.000 106 95 88
320.000 577.000 374.000 105 95 88
320.000 577.000 375.000 106 95 88
321.000 576.000 374.000 106 95 88
321.000 576.000 375.000 107 96 88
321.000 577.000 374.000 106 95 88
320.000 578.000 372.000 102 92 86
322.000 576.000 373.000 105 95 88
322.000 577.000 372.000 104 94 87
322.000 577.000 373.000 105 94 87
323.000 576.000 372.000 105 94 88
323.000 576.000 373.000 107 96 89
323.000 577.000 372.000 103 93 87
322.000 576.000 374.000 107 96 88
322.000 576.000 375.000 108 97 89
323.000 576.000 374.000 108 97 89
324.000 577.000 368.000 99 90 84
324.000 577.000 369.000 100 91 85
325.000 576.000 369.000 103 93 87
325.000 577.000 368.000 100 91 85
325.000 577.000 369.000 102 92 86
324.000 576.000 370.000 104 94 87
324.000 576.000 371.000 104 93 87
324.000 577.000 370.000 102 92 86
325.000 576.000 370.000 104 94 87
325.000 576.000 371.000 106 95 88
324.000 578.000 368.000 97 89 83
326.000 576.000 368.000 103 93 87
326.000 576.000 369.000 105 94 88
326.000 577.000 368.000 102 92 86
327.000 576.000 368.000 104 94 87
327.000 576.000 369.000 107 96 89
326.000 576.000 370.000 106 95 88
326.000 576.000 371.000 108 97 89
324.000 576.000 372.000 106 95 88
324.000 576.000 373.000 109 97 89
325.000 576.000 372.000 107 96 89
320.000 576.000 376.000 106 95 88
320.000 576.000 377.000 106 95 88
321.000 576.000 376.000 107 96 88
321.000 576.000 377.000 106 96 88
320.000 576.000 378.000 105 95 88
327.000 591.000 374.000 174 123 112
327.000 591.000 375.000 172 122 110
325.000 591.000 379.000 178 127 116
326.000 591.000 376.000 172 122 110
326.000 591.000 377.000 173 123 110
327.000 590.000 377.000 168 120 106
327.000 591.000 376.000 170 121 108
327.000 591.000 377.000 170 121 108
326.000 591.000 378.000 176 126 114
326.000 591.000 379.000 177 127 116
327.000 590.000 378.000 171 123 109
327.000 590.000 379.000 171 122 109
327.000 591.000 378.000 173 124 111
327.000 591.000 379.000 174 124 112
325.000 591.000 380.000 178 127 116
325.000 591.000 381.000 177 125 115
325.000 591.000 382.000 173 121 111
325.000 591.000 383.000 172 120 109
327.000 589.000 381.000 171 122 110
327.000 589.000 382.000 174 125 113
327.000 589.000 383.000 174 124 112
326.000 590.000 381.000 177 126 116
326.000 591.000 380.000 177 125 115
326.000 591.000 381.000 177 125 115
327.000 590.000 380.000 173 122 110
327.000 590.000 381.000 175 125 114
326.000 590.000 382.000 177 126 115
326.000 590.000 383.000 175 124 112
326.000 591.000 382.000 176 124 113
326.000 591.000 383.000 175 122 111
327.000 590.000 382.000 177 128 117
327.000 590.000 383.000 177 126 114
328.000 576.000 368.000 108 96 89
328.000 576.000 369.000 108 97 90
331.000 576.000 368.000 114 102 93
332.000 576.000 368.000 116 103 94
332.000 576.000 369.000 118 105 96
332.000 577.000 368.000 116 103 95
333.000 576.000 369.000 120 107 97
333.000 577.000 368.000 116 104 95
333.000 577.000 369.000 120 106 97
332.000 576.000 370.000 122 108 98
333.000 576.000 370.000 122 108 99
333.000 576.000 371.000 125 110 100
333.000 577.000 370.000 125 111 101
333.000 577.000 371.000 129 113 102
333.000 578.000 368.000 116 104 95
334.000 577.000 370.000 129 113 102
334.000 577.000 371.000 133 116 103
334.000 578.000 368.000 120 106 96
334.000 578.000 369.000 125 110 99
334.000 579.000 368.000 124 108 96
334.000 579.000 369.000 131 114 100
334.000 578.000 370.000 132 115 102
334.000 578.000 371.000 138 119 105
334.000 579.000 370.000 137 117 101
334.000 579.000 371.000 142 121 104
333.000 576.000 372.000 126 111 101
333.000 576.000 373.000 126 111 99
334.000 576.000 372.000 130 114 102
334.000 576.000 373.000 132 115 102
334.000 577.000 372.000 137 119 105
334.000 577.000 373.000 141 121 106
334.000 576.000 374.000 134 116 102
334.000 576.000 375.000 137 117 104
334.000 577.000 374.000 142 121 106
334.000 577.000 375.000 143 119 105
334.000 578.000 372.000 143 123 107
334.000 578.000 373.000 146 123 108
334.000 579.000 372.000 147 123 107
334.000 579.000 373.000 149 124 108
334.000 578.000 374.000 147 122 107
334.000 578.000 375.000 148 121 107
334.000 579.000 374.000 151 123 107
334.000 579.000 375.000 152 122 107
334.000 580.000 368.000 129 112 97
334.000 580.000 369.000 137 116 100
334.000 581.000 368.000 136 114 98
334.000 581.000 369.000 144 119 102
335.000 581.000 368.000 137 115 99
334.000 580.000 370.000 143 119 102
334.000 580.000 371.000 148 122 105
334.000 581.000 370.000 151 122 105
334.000 581.000 371.000 154 123 106
334.000 582.000 369.000 152 123 105
334.000 583.000 369.000 161 125 109
335.000 582.000 368.000 145 120 103
335.000 582.000 369.000 151 122 105
335.000 583.000 368.000 153 122 107
335.000 583.000 369.000 157 123 107
334.000 582.000 370.000 156 123 106
334.000 582.000 371.000 158 124 107
334.000 583.000 370.000 162 125 109
334.000 583.000 371.000 163 126 110
333.000 583.000 375.000 168 127 112
334.000 580.000 372.000 152 124 108
334.000 580.000 373.000 155 124 108
334.000 581.000 372.000 157 124 109
334.000 581.000 373.000 160 124 110
334.000 580.000 374.000 156 123 108
334.000 580.000 375.000 157 122 106
334.000 581.000 374.000 162 124 110
334.000 581.000 375.000 163 124 111
334.000 582.000 372.000 161 124 109
334.000 582.000 373.000 164 125 110
334.000 583.000 372.000 165 126 110
334.000 583.000 373.000 167 126 111
334.000 582.000 374.000 166 127 113
334.000 582.000 375.000 167 127 113
334.000 583.000 374.000 168 127 112
334.000 583.000 375.000 168 127 113
334.000 576.000 376.000 138 118 103
334.000 576.000 377.000 138 116 101
334.000 577.000 376.000 143 119 105
334.000 577.000 377.000 144 118 103
334.000 576.000 378.000 138 115 99
334.000 576.000 379.000 139 116 100
334.000 577.000 378.000 145 119 103
334.000 577.000 379.000 147 120 104
334.000 578.000 376.000 149 121 106
334.000 578.000 377.000 150 120 105
334.000 579.000 376.000 153 121 106
334.000 579.000 377.000 154 121 106
334.000 578.000 378.000 151 121 105
334.000 578.000 379.000 152 122 105
334.000 579.000 378.000 155 122 106
334.000 579.000 379.000 155 122 105
334.000 576.000 380.000 141 117 101
334.000 576.000 381.000 145 120 104
334.000 577.000 380.000 149 121 105
334.000 577.000 381.000 151 122 106
335.000 576.000 381.000 142 119 102
334.000 577.000 382.000 152 122 106
334.000 577.000 383.000 151 120 104
335.000 576.000 382.000 144 121 104
335.000 576.000 383.000 147 122 106
335.000 577.000 382.000 149 121 104
335.000 577.000 383.000 150 121 104
334.000 578.000 380.000 154 122 106
334.000 578.000 381.000 155 123 108
334.000 579.000 380.000 156 122 105
334.000 579.000 381.000 157 122 106
334.000 578.000 382.000 155 122 106
334.000 578.000 383.000 153 120 104
334.000 579.000 382.000 156 120 105
334.000 579.000 383.000 154 118 102
333.000 581.000 377.000 157 115 102
333.000 581.000 378.000 158 116 103
333.000 581.000 379.000 159 119 104
333.000 582.000 376.000 163 122 109
333.000 582.000 377.000 159 118 105
333.000 583.000 376.000 166 125 111
333.000 583.000 377.000 159 118 105
333.000 582.000 378.000 157 114 101
333.000 582.000 379.000 158 117 102
333.000 583.000 378.000 159 117 105
333.000 583.000 379.000 159 116 103
334.000 580.000 376.000 157 120 106
334.000 580.000 377.000 157 120 106
334.000 581.000 376.000 161 122 109
334.000 581.000 377.000 158 118 104
334.000 580.000 378.000 158 121 105
334.000 580.000 379.000 158 121 105
334.000 582.000 376.000 165 125 111
333.000 581.000 380.000 159 119 103
333.000 581.000 381.000 159 119 102
333.000 581.000 382.000 157 117 100
333.000 581.000 383.000 156 115 99
333.000 582.000 380.000 160 120 104
333.000 582.000 381.000 161 121 104
333.000 583.000 380.000 162 119 106
333.000 583.000 381.000 164 122 107
333.000 582.000 382.000 160 119 102
333.000 582.000 383.000 160 117 101
333.000 583.000 382.000 162 120 105
333.000 583.000 383.000 162 120 105
334.000 580.000 380.000 158 120 103
334.000 580.000 381.000 157 119 103
334.000 580.000 382.000 156 117 102
334.000 580.000 383.000 154 117 101
334.000 581.000 383.000 155 115 100
331.000 587.000 375.000 160 114 101
329.000 591.000 371.000 176 130 115
331.000 591.000 369.000 171 124 110
330.000 591.000 370.000 171 125 112
330.000 591.000 371.000 172 127 113
331.000 590.000 370.000 166 121 109
331.000 590.000 371.000 167 123 111
331.000 591.000 370.000 168 122 110
329.000 589.000 375.000 172 124 114
328.000 591.000 372.000 180 130 118
328.000 591.000 373.000 177 126 116
329.000 590.000 373.000 179 131 120
329.000 591.000 372.000 178 132 117
329.000 591.000 373.000 179 130 118
328.000 590.000 374.000 175 125 115
328.000 590.000 375.000 173 123 111
328.000 591.000 374.000 175 124 114
328.000 591.000 375.000 173 123 111
329.000 590.000 374.000 175 126 116
329.000 590.000 375.000 173 123 112
330.000 589.000 373.000 171 125 111
331.000 588.000 373.000 161 118 102
331.000 589.000 372.000 161 115 102
331.000 589.000 373.000 164 121 105
330.000 588.000 375.000 166 120 109
330.000 589.000 374.000 171 124 112
330.000 589.000 375.000 169 122 112
331.000 588.000 374.000 162 118 104
331.000 588.000 375.000 165 120 108
331.000 589.000 374.000 167 123 108
330.000 590.000 372.000 170 125 109
330.000 590.000 373.000 174 129 114
330.000 591.000 372.000 172 126 111
331.000 590.000 372.000 164 118 105
331.000 590.000 373.000 166 122 107
330.000 590.000 374.000 173 127 115
333.000 587.000 371.000 172 128 114
334.000 584.000 369.000 167 127 111
334.000 585.000 369.000 168 126 112
335.000 584.000 368.000 158 122 108
335.000 584.000 369.000 163 124 110
335.000 585.000 368.000 161 122 109
335.000 585.000 369.000 166 124 111
334.000 584.000 370.000 168 128 114
334.000 584.000 371.000 170 129 114
334.000 585.000 370.000 173 130 116
334.000 585.000 371.000 174 131 117
334.000 586.000 369.000 170 125 112
334.000 587.000 369.000 170 125 114
335.000 586.000 368.000 163 123 110
335.000 586.000 369.000 166 122 110
335.000 587.000 368.000 167 126 113
335.000 587.000 369.000 167 123 111
334.000 586.000 370.000 173 128 115
334.000 586.000 371.000 174 129 116
334.000 587.000 370.000 172 127 115
334.000 587.000 371.000 173 129 116
333.000 584.000 373.000 172 128 114
333.000 585.000 373.000 172 128 114
333.000 584.000 374.000 171 128 113
333.000 584.000 375.000 169 126 112
333.000 585.000 374.000 171 127 112
333.000 585.000 375.000 166 123 109
332.000 587.000 373.000 163 120 105
333.000 586.000 372.000 172 127 113
333.000 586.000 373.000 170 126 112
333.000 587.000 372.000 171 127 113
333.000 587.000 373.000 167 124 110
332.000 586.000 375.000 161 117 103
332.000 587.000 374.000 162 118 105
332.000 587.000 375.000 160 115 102
333.000 586.000 374.000 166 122 107
333.000 586.000 375.000 163 119 105
334.000 584.000 372.000 170 128 113
334.000 584.000 373.000 170 127 112
334.000 585.000 372.000 172 127 113
334.000 585.000 373.000 172 126 112
334.000 584.000 374.000 170 127 112
334.000 586.000 372.000 172 127 114
333.000 589.000 369.000 175 130 116
332.000 589.000 370.000 169 124 111
332.000 589.000 371.000 166 122 109
333.000 588.000 370.000 173 130 115
333.000 588.000 371.000 170 127 113
333.000 589.000 370.000 172 127 113
333.000 589.000 371.000 169 125 111
332.000 590.000 368.000 178 133 120
332.000 590.000 369.000 174 129 115
332.000 591.000 368.000 175 129 115
332.000 591.000 369.000 173 127 113
333.000 590.000 368.000 178 133 119
333.000 590.000 369.000 175 130 115
332.000 590.000 370.000 168 122 109
332.000 590.000 371.000 165 120 109
334.000 588.000 368.000 173 132 118
334.000 588.000 369.000 173 130 118
334.000 589.000 368.000 176 134 120
334.000 589.000 369.000 176 132 119
335.000 588.000 368.000 172 131 117
334.000 588.000 370.000 173 130 117
334.000 590.000 368.000 178 134 121
332.000 588.000 372.000 165 123 108
332.000 588.000 373.000 162 119 105
332.000 589.000 372.000 161 117 103
333.000 588.000 372.000 169 126 111
331.000 586.000 377.000 169 125 114
331.000 587.000 376.000 166 122 110
331.000 587.000 377.000 168 122 109
330.000 587.000 378.000 165 120 106
330.000 587.000 379.000 164 118 107
331.000 586.000 378.000 170 126 113
331.000 586.000 379.000 167 122 109
331.000 587.000 378.000 168 122 109
331.000 587.000 379.000 165 120 108
329.000 587.000 380.000 162 119 104
329.000 587.000 381.000 161 117 103
329.000 587.000 382.000 158 114 99
329.000 587.000 383.000 161 116 103
330.000 587.000 380.000 164 120 107
330.000 587.000 381.000 161 118 104
331.000 586.000 380.000 167 122 111
331.000 586.000 381.000 164 120 108
331.000 587.000 380.000 166 122 111
330.000 586.000 383.000 165 121 108
330.000 587.000 382.000 161 117 103
330.000 587.000 383.000 163 119 105
331.000 586.000 382.000 164 120 107
331.000 586.000 383.000 166 123 109
328.000 589.000 376.000 165 117 103
328.000 589.000 377.000 163 116 103
329.000 588.000 377.000 164 117 103
329.000 589.000 376.000 166 117 104
329.000 589.000 377.000 163 116 102
328.000 589.000 378.000 163 117 103
328.000 589.000 379.000 165 119 104
329.000 588.000 378.000 161 116 103
329.000 588.000 379.000 162 117 103
329.000 589.000 378.000 161 116 103
328.000 590.000 376.000 168 119 106
328.000 590.000 377.000 166 118 104
328.000 591.000 376.000 172 124 111
328.000 590.000 378.000 167 121 107
328.000 590.000 379.000 169 122 107
330.000 588.000 376.000 166 119 107
330.000 588.000 377.000 165 119 105
330.000 589.000 376.000 166 117 106
331.000 588.000 376.000 167 122 111
330.000 588.000 378.000 162 117 103
330.000 588.000 379.000 161 116 103
328.000 588.000 380.000 163 117 103
328.000 588.000 381.000 163 116 105
328.000 589.000 380.000 167 119 105
328.000 589.000 381.000 167 118 107
329.000 588.000 380.000 162 119 104
329.000 588.000 381.000 162 118 105
328.000 588.000 382.000 162 115 104
328.000 588.000 383.000 163 115 103
328.000 589.000 382.000 169 120 110
328.000 589.000 383.000 170 120 108
329.000 588.000 382.000 160 114 101
329.000 588.000 383.000 159 113 99
332.000 585.000 377.000 161 118 105
333.000 584.000 376.000 164 122 108
333.000 584.000 377.000 158 115 101
333.000 585.000 376.000 160 117 102
333.000 585.000 377.000 157 113 98
332.000 585.000 378.000 165 122 109
332.000 585.000 379.000 167 124 111
333.000 584.000 378.000 161 119 107
333.000 584.000 379.000 162 119 106
333.000 585.000 378.000 162 119 106
332.000 586.000 376.000 159 115 101
332.000 586.000 377.000 167 124 111
332.000 587.000 376.000 161 116 103
333.000 586.000 376.000 161 117 103
332.000 586.000 378.000 170 127 114
332.000 586.000 379.000 169 125 112
332.000 584.000 381.000 165 123 111
332.000 585.000 380.000 169 126 115
332.000 585.000 381.000 166 122 110
333.000 584.000 380.000 166 122 110
333.000 584.000 381.000 166 124 111
332.000 584.000 382.000 163 121 108
332.000 584.000 383.000 164 121 108
332.000 585.000 382.000 162 119 105
332.000 585.000 383.000 164 121 106
333.000 584.000 382.000 163 121 108
333.000 584.000 383.000 163 122 108
332.000 586.000 381.000 162 117 105
332.000 586.000 382.000 162 118 105
327.000 595.000 367.000 184 133 122
326.000 596.000 367.000 183 133 122
327.000 596.000 367.000 184 134 123
329.000 593.000 367.000 182 131 121
328.000 594.000 367.000 182 129 121
328.000 595.000 367.000 183 130 120
329.000 594.000 367.000 183 132 122
329.000 595.000 367.000 182 129 121
330.000 593.000 367.000 178 129 117
331.000 592.000 367.000 173 124 111
331.000 593.000 367.000 174 125 111
330.000 594.000 367.000 181 130 119
332.000 592.000 366.000 182 135 124
332.000 592.000 367.000 177 130 116
333.000 592.000 366.000 184 139 126
321.000 595.000 374.000 183 132 120
321.000 595.000 375.000 185 134 123
322.000 595.000 373.000 180 131 119
323.000 594.000 373.000 178 127 116
323.000 595.000 372.000 175 125 114
323.000 595.000 373.000 177 127 116
322.000 594.000 375.000 184 133 121
322.000 595.000 374.000 182 132 120
322.000 595.000 375.000 184 134 123
323.000 594.000 374.000 180 130 117
323.000 594.000 375.000 182 131 118
323.000 595.000 374.000 180 130 118
321.000 597.000 371.000 174 124 114
323.000 597.000 369.000 169 120 111
322.000 596.000 371.000 173 124 113
322.000 597.000 370.000 169 120 109
322.000 597.000 371.000 172 123 112
323.000 596.000 370.000 172 122 111
323.000 596.000 371.000 173 123 112
323.000 597.000 370.000 169 120 110
321.000 596.000 372.000 175 125 113
321.000 596.000 373.000 179 128 116
321.000 596.000 374.000 183 133 120
322.000 596.000 372.000 174 125 114
322.000 596.000 373.000 178 128 116
323.000 596.000 372.000 174 124 114
325.000 595.000 369.000 181 131 121
324.000 595.000 371.000 176 125 114
325.000 594.000 371.000 181 129 118
325.000 595.000 370.000 180 129 117
325.000 595.000 371.000 178 127 115
326.000 593.000 371.000 179 126 117
327.000 593.000 370.000 179 126 115
327.000 593.000 371.000 180 126 117
326.000 595.000 368.000 183 133 120
326.000 595.000 369.000 184 133 122
327.000 594.000 369.000 183 133 120
327.000 595.000 368.000 184 133 122
327.000 595.000 369.000 185 134 122
326.000 594.000 370.000 182 131 119
326.000 594.000 371.000 180 128 118
326.000 595.000 370.000 183 132 120
327.000 594.000 370.000 181 130 117
325.000 593.000 373.000 176 124 115
324.000 593.000 374.000 178 127 116
324.000 593.000 375.000 180 129 117
325.000 592.000 375.000 174 124 113
325.000 593.000 374.000 176 125 115
325.000 593.000 375.000 176 124 113
324.000 594.000 373.000 177 125 117
324.000 595.000 372.000 175 124 114
324.000 595.000 373.000 174 122 113
325.000 594.000 372.000 177 125 116
325.000 594.000 373.000 178 126 119
324.000 594.000 374.000 179 128 118
324.000 594.000 375.000 181 131 119
326.000 592.000 373.000 173 121 109
326.000 593.000 372.000 178 125 116
326.000 593.000 373.000 176 123 113
327.000 592.000 372.000 177 123 114
327.000 592.000 373.000 176 124 114
327.000 593.000 372.000 179 126 117
326.000 592.000 374.000 173 122 112
326.000 592.000 375.000 171 120 109
327.000 592.000 374.000 174 123 112
327.000 592.000 375.000 171 121 109
326.000 594.000 372.000 178 126 116
324.000 596.000 369.000 173 124 115
324.000 597.000 369.000 173 124 116
325.000 596.000 368.000 179 128 118
325.000 596.000 369.000 177 126 117
324.000 596.000 370.000 175 125 115
324.000 596.000 371.000 175 125 113
325.000 596.000 370.000 178 126 117
326.000 596.000 368.000 182 131 119
321.000 593.000 379.000 182 132 121
321.000 594.000 377.000 186 134 123
321.000 595.000 376.000 186 135 125
321.000 595.000 377.000 187 134 124
321.000 594.000 378.000 185 133 122
321.000 594.000 379.000 183 132 121
323.000 593.000 376.000 182 132 119
323.000 593.000 377.000 182 132 119
322.000 593.000 378.000 183 132 121
322.000 593.000 379.000 181 131 120
323.000 593.000 378.000 180 129 117
323.000 593.000 379.000 178 128 115
322.000 594.000 376.000 185 134 122
322.000 594.000 377.000 185 133 122
323.000 594.000 376.000 183 132 120
323.000 594.000 377.000 184 133 121
322.000 594.000 378.000 183 131 121
321.000 593.000 380.000 181 131 120
321.000 593.000 381.000 181 131 120
321.000 593.000 382.000 180 130 120
321.000 593.000 383.000 179 129 119
321.000 594.000 380.000 181 130 118
322.000 593.000 380.000 181 130 120
322.000 593.000 381.000 180 130 119
323.000 592.000 380.000 177 126 115
323.000 592.000 381.000 177 127 116
323.000 593.000 380.000 179 128 117
323.000 593.000 381.000 179 128 117
322.000 592.000 383.000 176 125 115
322.000 593.000 382.000 179 129 118
322.000 593.000 383.000 177 127 118
323.000 592.000 382.000 175 125 113
323.000 592.000 383.000 174 124 113
324.000 593.000 376.000 179 128 116
324.000 593.000 377.000 180 130 116
325.000 592.000 376.000 174 122 109
325.000 592.000 377.000 175 125 111
325.000 593.000 376.000 175 124 111
324.000 592.000 378.000 178 128 115
324.000 592.000 379.000 178 128 115
324.000 593.000 378.000 179 128 115
325.000 592.000 378.000 177 126 114
325.000 592.000 379.000 178 127 115
326.000 592.000 376.000 173 122 111
326.000 592.000 377.000 174 123 110
324.000 592.000 380.000 176 126 114
324.000 592.000 381.000 176 124 113
325.000 592.000 380.000 177 126 115
325.000 592.000 381.000 176 123 113
324.000 592.000 382.000 174 123 111
324.000 592.000 383.000 173 122 110
325.000 592.000 382.000 173 121 110
328.000 593.000 369.000 180 130 119
329.000 592.000 369.000 177 129 116
329.000 593.000 368.000 179 129 117
329.000 593.000 369.000 178 129 116
328.000 592.000 370.000 179 130 117
328.000 592.000 371.000 180 131 118
328.000 593.000 370.000 179 129 117
328.000 593.000 371.000 180 128 116
329.000 592.000 370.000 177 128 116
329.000 592.000 371.000 178 131 117
328.000 594.000 368.000 182 130 118
328.000 594.000 369.000 182 132 120
328.000 595.000 368.000 184 130 120
329.000 594.000 368.000 181 130 118
328.000 594.000 370.000 180 130 117
330.000 592.000 368.000 176 128 115
330.000 592.000 369.000 176 129 116
330.000 593.000 368.000 178 130 117
331.000 592.000 368.000 174 127 113
331.000 592.000 369.000 173 126 112
330.000 592.000 370.000 174 126 113
328.000 592.000 372.000 179 128 117
328.000 592.000 373.000 177 125 115
336.000 585.000 366.000 148 116 100
336.000 586.000 366.000 153 118 102
336.000 587.000 366.000 157 119 104
317.000 573.000 387.000 94 87 83
317.000 574.000 384.000 99 91 86
317.000 574.000 385.000 98 90 86
317.000 575.000 384.000 99 91 86
317.000 574.000 386.000 97 89 85
317.000 574.000 387.000 96 88 85
319.000 573.000 385.000 99 90 85
318.000 573.000 386.000 97 89 85
318.000 573.000 387.000 95 88 84
319.000 573.000 386.000 97 90 85
319.000 573.000 387.000 96 88 84
318.000 574.000 384.000 99 91 86
318.000 574.000 385.000 98 90 86
319.000 574.000 384.000 100 91 86
319.000 574.000 385.000 99 91 86
318.000 574.000 386.000 97 89 85
318.000 574.000 387.000 96 88 84
318.000 573.000 388.000 94 87 83
319.000 572.000 388.000 95 88 84
319.000 573.000 388.000 95 87 83
322.000 571.000 387.000 100 91 86
323.000 571.000 386.000 102 93 87
323.000 571.000 387.000 101 93 87
321.000 571.000 388.000 97 90 85
321.000 571.000 389.000 97 89 85
322.000 571.000 388.000 99 91 86
322.000 571.000 389.000 98 90 86
323.000 571.000 388.000 101 92 87
320.000 573.000 384.000 100 91 86
320.000 573.000 385.000 99 91 86
321.000 572.000 385.000 101 92 87
321.000 573.000 384.000 102 93 87
321.000 573.000 385.000 100 92 86
320.000 572.000 387.000 97 89 85
320.000 573.000 386.000 98 90 85
320.000 573.000 387.000 97 89 85
321.000 572.000 386.000 99 91 86
321.000 572.000 387.000 98 90 85
321.000 573.000 386.000 99 91 86
320.000 574.000 384.000 101 92 86
322.000 572.000 384.000 103 93 88
322.000 572.000 385.000 102 93 87
322.000 573.000 384.000 103 93 88
323.000 572.000 384.000 104 94 88
323.000 572.000 385.000 103 94 88
322.000 572.000 386.000 101 92 87
322.000 572.000 387.000 100 91 86
323.000 572.000 386.000 102 93 87
320.000 572.000 388.000 96 88 84
320.000 572.000 389.000 95 88 84
321.000 572.000 388.000 97 89 85
321.000 572.000 389.000 96 89 85
324.000 571.000 385.000 105 95 89
325.000 571.000 384.000 107 96 89
325.000 571.000 385.000 106 96 89
324.000 570.000 387.000 103 93 88
324.000 571.000 386.000 104 94 88
324.000 571.000 387.000 103 93 88
325.000 570.000 386.000 105 95 89
325.000 570.000 387.000 105 95 88
325.000 571.000 386.000 105 95 89
325.000 571.000 387.000 104 95 88
327.000 569.000 387.000 108 97 90
326.000 570.000 385.000 108 97 90
326.000 571.000 384.000 109 98 90
326.000 571.000 385.000 108 97 90
327.000 570.000 384.000 111 99 91
327.000 570.000 385.000 109 98 91
327.000 571.000 384.000 110 99 91
326.000 570.000 386.000 107 96 89
326.000 570.000 387.000 106 95 89
327.000 570.000 386.000 108 97 90
327.000 570.000 387.000 107 97 90
324.000 570.000 388.000 102 93 87
324.000 571.000 388.000 102 93 87
325.000 570.000 388.000 104 94 88
325.000 570.000 390.000 102 93 87
325.000 570.000 391.000 102 93 87
326.000 569.000 388.000 105 95 88
327.000 569.000 388.000 107 96 90
326.000 570.000 388.000 105 95 88
324.000 572.000 384.000 105 95 89
324.000 572.000 385.000 104 95 88
325.000 572.000 384.000 106 96 89
332.000 566.000 389.000 114 103 95
333.000 566.000 389.000 114 103 95
329.000 569.000 385.000 113 101 93
328.000 569.000 386.000 111 99 92
328.000 569.000 387.000 109 98 91
329.000 568.000 387.000 111 100 92
329.000 569.000 386.000 112 100 92
329.000 569.000 387.000 111 100 92
328.000 570.000 384.000 112 100 92
328.000 570.000 385.000 111 100 92
329.000 570.000 384.000 114 102 93
329.000 570.000 385.000 113 101 93
328.000 570.000 386.000 109 98 91
330.000 569.000 384.000 115 102 94
330.000 569.000 385.000 114 102 94
331.000 569.000 384.000 115 103 94
331.000 569.000 385.000 115 103 94
330.000 568.000 387.000 113 101 94
330.000 569.000 386.000 113 102 94
330.000 569.000 387.000 113 101 93
331.000 568.000 386.000 114 102 94
331.000 568.000 387.000 114 102 94
331.000 569.000 386.000 114 102 94
330.000 570.000 384.000 114 102 94
331.000 570.000 384.000 116 103 95
328.000 569.000 388.000 109 98 91
329.000 568.000 388.000 110 99 92
329.000 569.000 388.000 109 98 91
330.000 568.000 388.000 113 101 94
331.000 568.000 388.000 114 102 94
332.000 569.000 384.000 116 104 95
332.000 569.000 385.000 116 104 95
333.000 569.000 384.000 119 105 96
333.000 569.000 385.000 118 105 96
332.000 568.000 386.000 115 103 95
332.000 568.000 387.000 115 103 95
332.000 569.000 386.000 116 103 95
333.000 568.000 386.000 117 105 96
333.000 568.000 387.000 117 104 96
333.000 569.000 386.000 118 105 96
332.000 570.000 384.000 117 104 95
333.000 570.000 384.000 119 106 97
334.000 569.000 385.000 120 106 97
334.000 569.000 386.000 119 106 97
334.000 570.000 384.000 121 107 98
335.000 570.000 384.000 124 110 100
335.000 570.000 385.000 123 109 100
335.000 571.000 384.000 127 112 102
335.000 575.000 384.000 144 122 106
335.000 575.000 385.000 145 121 106
336.000 572.000 384.000 130 114 102
336.000 573.000 384.000 136 118 104
336.000 574.000 384.000 141 120 105
336.000 574.000 385.000 142 121 106
336.000 575.000 385.000 143 121 106
336.000 575.000 386.000 141 118 103
325.000 591.000 384.000 172 121 109
325.000 591.000 385.000 170 118 107
325.000 591.000 386.000 169 118 107
325.000 591.000 387.000 170 120 108
327.000 589.000 384.000 175 125 113
327.000 589.000 385.000 174 126 115
327.000 589.000 386.000 172 125 112
327.000 589.000 387.000 170 121 108
326.000 590.000 384.000 174 123 112
326.000 590.000 385.000 173 122 111
327.000 590.000 384.000 176 126 114
327.000 590.000 385.000 176 127 116
326.000 590.000 386.000 171 121 110
326.000 590.000 387.000 170 120 108
327.000 590.000 386.000 175 127 116
327.000 590.000 387.000 171 122 110
325.000 591.000 388.000 171 120 108
325.000 591.000 389.000 171 120 107
325.000 591.000 390.000 170 119 106
325.000 591.000 391.000 168 117 106
327.000 589.000 388.000 174 127 115
327.000 589.000 389.000 176 129 116
327.000 589.000 390.000 175 128 116
326.000 590.000 388.000 171 122 110
326.000 590.000 389.000 173 124 111
326.000 591.000 389.000 172 121 109
327.000 590.000 388.000 174 125 113
327.000 590.000 389.000 176 128 115
326.000 590.000 390.000 174 125 113
326.000 590.000 391.000 172 125 112
326.000 591.000 390.000 171 121 109
326.000 591.000 391.000 169 120 110
327.000 590.000 390.000 175 128 115
325.000 591.000 392.000 166 116 104
326.000 590.000 392.000 169 121 110
326.000 591.000 392.000 166 117 107
335.000 576.000 384.000 148 122 105
335.000 576.000 385.000 147 120 105
335.000 577.000 384.000 151 121 105
335.000 577.000 385.000 149 119 103
335.000 577.000 386.000 146 115 101
334.000 578.000 384.000 153 120 104
334.000 578.000 385.000 151 116 101
334.000 579.000 384.000 154 119 104
334.000 579.000 385.000 152 116 101
335.000 578.000 384.000 152 120 104
335.000 578.000 385.000 150 117 102
334.000 579.000 386.000 153 118 104
335.000 578.000 386.000 148 115 101
333.000 581.000 384.000 157 114 101
333.000 581.000 385.000 157 115 102
333.000 581.000 386.000 160 118 103
333.000 581.000 387.000 165 124 108
333.000 582.000 384.000 160 117 103
333.000 582.000 385.000 160 116 103
333.000 583.000 384.000 164 121 107
333.000 583.000 385.000 165 123 108
332.000 583.000 387.000 166 124 110
333.000 582.000 386.000 161 118 103
333.000 582.000 387.000 167 126 109
333.000 583.000 386.000 164 122 108
333.000 583.000 387.000 165 123 108
334.000 580.000 384.000 155 116 102
334.000 580.000 385.000 155 115 102
334.000 581.000 384.000 156 115 101
334.000 581.000 385.000 157 116 103
334.000 580.000 386.000 157 119 105
334.000 580.000 387.000 159 120 105
334.000 581.000 386.000 159 118 104
334.000 581.000 387.000 162 122 106
332.000 583.000 388.000 166 124 110
333.000 583.000 388.000 168 127 111
329.000 587.000 384.000 163 118 106
329.000 587.000 385.000 161 116 103
329.000 587.000 386.000 160 115 101
329.000 587.000 387.000 159 114 99
331.000 585.000 385.000 166 124 109
331.000 585.000 386.000 165 122 107
331.000 585.000 387.000 162 119 105
330.000 586.000 384.000 165 123 109
330.000 586.000 385.000 164 121 107
330.000 587.000 384.000 164 120 107
330.000 587.000 385.000 161 118 104
331.000 586.000 384.000 167 125 110
331.000 586.000 385.000 165 123 108
330.000 586.000 386.000 160 118 104
330.000 586.000 387.000 158 116 101
330.000 587.000 386.000 158 115 101
330.000 587.000 387.000 157 114 99
331.000 586.000 386.000 163 121 107
331.000 586.000 387.000 162 120 106
329.000 587.000 388.000 159 113 100
329.000 587.000 389.000 160 113 99
329.000 587.000 390.000 161 116 102
331.000 585.000 388.000 159 117 102
331.000 585.000 389.000 158 116 101
330.000 586.000 388.000 160 118 103
330.000 586.000 389.000 161 118 104
330.000 587.000 388.000 158 114 100
330.000 587.000 389.000 159 113 100
331.000 586.000 388.000 160 119 105
331.000 586.000 389.000 160 118 104
330.000 587.000 390.000 161 116 101
331.000 586.000 390.000 161 119 105
328.000 588.000 384.000 166 118 106
328.000 588.000 385.000 167 120 108
328.000 589.000 384.000 171 122 111
328.000 589.000 385.000 171 125 113
329.000 588.000 385.000 163 116 104
328.000 588.000 386.000 167 121 107
328.000 588.000 387.000 165 119 105
328.000 589.000 386.000 169 123 110
328.000 589.000 387.000 168 121 107
329.000 588.000 386.000 162 116 102
329.000 588.000 387.000 162 116 102
328.000 588.000 388.000 169 123 111
328.000 588.000 389.000 172 127 114
328.000 589.000 388.000 171 125 112
328.000 589.000 389.000 174 129 116
329.000 588.000 388.000 164 117 104
329.000 588.000 389.000 165 120 107
328.000 589.000 390.000 173 128 115
329.000 588.000 390.000 167 121 108
332.000 584.000 384.000 166 124 108
332.000 584.000 385.000 167 124 109
332.000 585.000 384.000 168 126 110
332.000 585.000 385.000 168 127 111
333.000 584.000 384.000 165 123 107
332.000 584.000 386.000 167 125 111
332.000 584.000 387.000 165 121 108
332.000 585.000 386.000 167 125 110
332.000 585.000 387.000 162 119 105
332.000 584.000 388.000 165 122 109
332.000 585.000 388.000 161 118 104
332.000 585.000 389.000 158 116 100
321.000 593.000 384.000 176 127 118
321.000 593.000 385.000 176 128 117
321.000 593.000 386.000 177 130 119
321.000 593.000 387.000 179 132 121
322.000 592.000 384.000 176 127 118
322.000 592.000 385.000 176 128 119
322.000 593.000 384.000 177 128 119
322.000 593.000 385.000 176 128 118
323.000 592.000 384.000 174 124 114
323.000 592.000 385.000 174 125 116
322.000 593.000 386.000 177 129 119
322.000 593.000 387.000 179 131 120
323.000 592.000 386.000 175 126 116
323.000 592.000 387.000 178 129 118
323.000 593.000 386.000 177 129 118
323.000 593.000 387.000 179 131 120
321.000 593.000 388.000 179 133 122
321.000 593.000 389.000 178 133 121
321.000 593.000 390.000 178 133 122
322.000 593.000 388.000 179 132 121
322.000 593.000 389.000 179 132 121
323.000 592.000 388.000 179 130 118
323.000 592.000 389.000 179 129 117
323.000 593.000 388.000 180 132 120
323.000 593.000 389.000 180 132 121
322.000 593.000 390.000 179 133 121
322.000 593.000 391.000 178 132 121
323.000 592.000 390.000 178 129 117
323.000 593.000 390.000 179 131 120
323.000 593.000 391.000 177 129 117
324.000 592.000 384.000 171 120 109
324.000 592.000 385.000 171 120 111
324.000 592.000 386.000 171 121 111
324.000 592.000 387.000 174 125 113
324.000 592.000 388.000 177 127 114
324.000 592.000 389.000 177 127 114
325.000 592.000 388.000 174 123 111
325.000 592.000 389.000 173 123 110
324.000 592.000 390.000 175 124 113
324.000 592.000 391.000 174 125 113
325.000 592.000 390.000 171 120 108
325.000 592.000 391.000 170 120 108
324.000 592.000 392.000 172 125 112
324.000 592.000 393.000 171 125 111
325.000 592.000 392.000 168 119 106
