ply
format ascii 1.0
element vertex 1272
property float x
property float y
property float z
property uchar red
property uchar green
property uchar blue
end_header
254.000 935.000 329.000 123 106 91
255.000 934.000 328.000 121 103 87
255.000 935.000 328.000 126 107 92
255.000 935.000 329.000 129 111 95
252.000 937.000 330.000 133 116 103
253.000 937.000 330.000 138 118 103
252.000 938.000 330.000 144 124 109
252.000 939.000 330.000 155 133 114
253.000 938.000 330.000 149 127 109
253.000 939.000 330.000 160 135 115
254.000 936.000 329.000 128 111 96
254.000 937.000 329.000 135 116 99
255.000 936.000 329.000 134 115 98
255.000 937.000 329.000 142 121 102
254.000 937.000 330.000 144 123 104
255.000 937.000 330.000 150 127 106
254.000 938.000 330.000 154 131 110
254.000 939.000 330.000 165 139 118
255.000 938.000 330.000 158 133 111
255.000 939.000 330.000 169 142 120
252.000 940.000 331.000 172 146 126
252.000 941.000 331.000 181 152 133
253.000 940.000 330.000 168 143 123
253.000 940.000 331.000 174 147 128
253.000 941.000 331.000 183 153 135
252.000 942.000 331.000 188 155 137
252.000 943.000 330.000 193 157 139
253.000 942.000 331.000 191 157 140
253.000 943.000 330.000 194 158 140
253.000 943.000 331.000 193 157 140
254.000 940.000 331.000 175 147 128
254.000 941.000 331.000 185 153 135
255.000 940.000 330.000 177 149 128
255.000 940.000 331.000 180 150 131
255.000 941.000 331.000 185 152 134
254.000 942.000 331.000 191 157 139
254.000 943.000 330.000 196 160 143
254.000 943.000 331.000 194 159 142
255.000 942.000 331.000 191 156 138
255.000 943.000 330.000 195 159 141
251.000 945.000 330.000 194 154 134
252.000 944.000 330.000 195 156 137
252.000 945.000 330.000 195 156 135
253.000 944.000 330.000 196 158 140
253.000 945.000 330.000 197 158 140
253.000 946.000 329.000 195 155 136
253.000 947.000 329.000 194 154 135
252.000 946.000 330.000 195 155 135
253.000 946.000 330.000 195 156 137
254.000 944.000 330.000 198 161 144
254.000 945.000 330.000 198 160 142
255.000 944.000 330.000 197 161 143
255.000 945.000 330.000 198 160 143
254.000 946.000 329.000 195 155 137
254.000 947.000 329.000 193 154 135
255.000 946.000 329.000 196 157 139
255.000 947.000 329.000 194 156 137
254.000 946.000 330.000 196 157 139
255.000 946.000 330.000 197 158 140
252.000 949.000 329.000 187 148 129
253.000 948.000 329.000 190 150 131
253.000 949.000 329.000 188 149 130
253.000 950.000 328.000 185 148 129
253.000 951.000 328.000 183 146 126
254.000 948.000 329.000 190 151 132
254.000 949.000 329.000 188 150 130
255.000 948.000 329.000 192 153 134
255.000 949.000 329.000 190 151 132
254.000 950.000 328.000 185 147 128
254.000 950.000 329.000 186 148 129
254.000 951.000 328.000 184 146 127
255.000 950.000 328.000 187 148 130
255.000 950.000 329.000 188 150 131
255.000 951.000 328.000 186 149 129
254.000 955.000 327.000 179 145 125
252.000 957.000 327.000 175 141 120
253.000 956.000 327.000 177 143 123
253.000 957.000 327.000 177 144 122
252.000 958.000 327.000 175 140 119
253.000 958.000 327.000 178 143 123
253.000 959.000 327.000 179 143 124
254.000 956.000 327.000 179 146 125
254.000 957.000 327.000 180 147 126
255.000 956.000 327.000 182 149 129
255.000 957.000 327.000 182 148 129
254.000 958.000 327.000 182 147 128
254.000 959.000 327.000 182 146 129
255.000 958.000 327.000 183 148 129
255.000 959.000 327.000 182 148 130
253.000 952.000 328.000 181 144 124
253.000 953.000 328.000 178 141 121
253.000 954.000 328.000 177 141 121
253.000 955.000 328.000 176 141 121
254.000 952.000 328.000 182 146 126
254.000 953.000 328.000 180 145 125
255.000 952.000 328.000 185 149 129
255.000 953.000 328.000 184 148 129
254.000 954.000 328.000 180 145 125
254.000 955.000 328.000 179 145 125
255.000 954.000 328.000 182 148 129
255.000 955.000 328.000 182 148 129
253.000 960.000 327.000 177 140 121
253.000 961.000 327.000 174 137 119
253.000 962.000 327.000 172 135 117
254.000 960.000 327.000 179 144 126
254.000 961.000 327.000 178 141 124
255.000 960.000 327.000 181 146 128
255.000 961.000 327.000 180 145 127
254.000 962.000 327.000 175 138 121
254.000 963.000 326.000 173 138 120
255.000 962.000 327.000 178 144 126
255.000 963.000 326.000 176 141 124
255.000 963.000 327.000 178 143 126
253.000 966.000 326.000 160 123 104
253.000 967.000 326.000 154 117 99
254.000 964.000 326.000 171 134 117
254.000 965.000 326.000 167 130 113
255.000 964.000 326.000 175 139 123
255.000 965.000 326.000 171 134 118
254.000 966.000 326.000 161 124 107
254.000 967.000 326.000 155 117 102
255.000 966.000 326.000 165 128 112
255.000 967.000 326.000 157 120 105
254.000 968.000 326.000 146 109 94
254.000 969.000 326.000 131 101 88
255.000 968.000 326.000 146 110 94
255.000 969.000 326.000 129 100 89
255.000 970.000 326.000 101 80 72
255.000 971.000 326.000 80 67 63
281.000 954.000 319.000 167 130 108
281.000 955.000 319.000 169 132 110
282.000 955.000 318.000 166 131 108
282.000 955.000 319.000 168 132 109
280.000 957.000 319.000 167 133 112
281.000 956.000 319.000 166 130 107
281.000 957.000 319.000 167 132 110
280.000 958.000 319.000 167 133 112
280.000 959.000 319.000 167 133 114
281.000 958.000 319.000 167 133 112
281.000 959.000 318.000 168 135 116
281.000 959.000 319.000 167 134 114
283.000 957.000 317.000 168 134 114
282.000 956.000 318.000 168 132 111
282.000 956.000 319.000 166 130 107
282.000 957.000 318.000 167 132 112
283.000 957.000 318.000 168 134 115
282.000 959.000 317.000 167 133 116
283.000 958.000 316.000 165 132 113
283.000 958.000 317.000 167 133 115
283.000 959.000 316.000 165 132 113
283.000 959.000 317.000 165 131 114
282.000 958.000 318.000 167 132 113
282.000 959.000 318.000 166 132 112
283.000 958.000 318.000 169 135 116
257.000 931.000 327.000 150 125 107
258.000 931.000 327.000 159 132 113
259.000 931.000 327.000 167 136 118
256.000 933.000 327.000 127 107 90
257.000 932.000 327.000 141 119 102
257.000 933.000 327.000 134 113 96
258.000 932.000 327.000 148 123 105
258.000 933.000 327.000 138 115 97
259.000 932.000 327.000 152 126 107
259.000 933.000 327.000 140 117 97
260.000 931.000 327.000 169 138 118
263.000 931.000 326.000 155 124 102
260.000 932.000 327.000 155 127 108
260.000 933.000 327.000 139 116 95
261.000 932.000 327.000 154 125 104
261.000 933.000 327.000 139 114 92
261.000 934.000 327.000 136 113 91
262.000 932.000 327.000 149 120 98
262.000 933.000 327.000 137 112 90
263.000 932.000 326.000 146 117 95
263.000 932.000 327.000 144 116 93
263.000 933.000 327.000 134 110 88
262.000 934.000 327.000 134 111 89
263.000 934.000 327.000 132 110 88
256.000 933.000 328.000 124 105 88
257.000 933.000 328.000 130 110 92
256.000 934.000 328.000 126 107 91
256.000 935.000 328.000 130 111 94
256.000 935.000 329.000 133 114 97
257.000 934.000 328.000 132 112 94
257.000 935.000 328.000 136 115 95
257.000 935.000 329.000 136 116 97
258.000 933.000 328.000 135 114 94
259.000 933.000 328.000 136 114 95
258.000 934.000 328.000 137 115 95
258.000 935.000 328.000 140 117 96
259.000 934.000 328.000 138 116 95
259.000 935.000 328.000 142 119 96
260.000 934.000 328.000 138 115 94
260.000 935.000 328.000 143 119 96
261.000 934.000 328.000 137 114 92
261.000 935.000 328.000 140 116 93
262.000 934.000 328.000 136 113 90
262.000 935.000 328.000 137 114 91
263.000 935.000 328.000 134 111 89
256.000 936.000 329.000 138 118 99
256.000 937.000 329.000 147 124 103
257.000 936.000 329.000 143 121 100
257.000 937.000 329.000 151 126 103
256.000 937.000 330.000 154 130 107
257.000 937.000 330.000 157 131 108
256.000 938.000 330.000 161 135 112
256.000 939.000 330.000 171 143 121
257.000 938.000 330.000 163 136 113
257.000 939.000 330.000 173 145 124
258.000 936.000 329.000 147 122 99
258.000 937.000 329.000 155 129 104
259.000 936.000 329.000 148 123 99
259.000 937.000 329.000 155 129 104
258.000 937.000 330.000 158 132 107
258.000 938.000 330.000 165 138 114
258.000 939.000 330.000 174 145 124
259.000 938.000 330.000 165 136 113
259.000 939.000 330.000 174 144 122
256.000 940.000 330.000 179 150 130
256.000 941.000 330.000 186 152 134
256.000 941.000 331.000 186 152 134
257.000 940.000 330.000 182 152 132
257.000 941.000 330.000 187 153 134
256.000 942.000 330.000 190 154 136
256.000 942.000 331.000 189 154 136
256.000 943.000 330.000 194 158 140
257.000 942.000 330.000 191 155 137
257.000 943.000 330.000 195 158 141
258.000 940.000 330.000 182 152 132
258.000 941.000 330.000 187 153 134
259.000 940.000 330.000 182 151 131
259.000 941.000 330.000 187 152 134
258.000 942.000 330.000 192 155 137
258.000 943.000 330.000 194 156 138
259.000 942.000 330.000 191 154 135
259.000 943.000 330.000 192 154 135
260.000 936.000 328.000 147 122 97
260.000 936.000 329.000 149 123 98
260.000 937.000 329.000 156 128 103
261.000 936.000 328.000 145 119 95
261.000 936.000 329.000 148 122 97
261.000 937.000 329.000 154 127 102
260.000 938.000 329.000 163 134 109
261.000 938.000 329.000 163 134 110
261.000 939.000 329.000 168 138 114
260.000 938.000 330.000 166 136 113
260.000 939.000 330.000 171 141 118
261.000 939.000 330.000 172 141 118
262.000 936.000 328.000 142 118 93
262.000 937.000 329.000 152 126 101
263.000 936.000 328.000 140 116 93
263.000 937.000 328.000 146 121 98
263.000 937.000 329.000 152 127 103
262.000 938.000 329.000 162 134 109
262.000 939.000 329.000 170 139 115
263.000 938.000 329.000 161 133 108
263.000 939.000 329.000 168 138 114
260.000 940.000 330.000 180 147 126
260.000 941.000 330.000 186 150 131
261.000 940.000 330.000 178 145 124
261.000 941.000 330.000 185 149 128
260.000 942.000 330.000 190 153 133
260.000 943.000 330.000 192 154 134
261.000 942.000 330.000 190 152 131
261.000 943.000 330.000 192 154 134
262.000 940.000 329.000 176 144 121
263.000 940.000 329.000 176 144 122
263.000 941.000 329.000 183 147 125
262.000 940.000 330.000 178 146 124
262.000 941.000 330.000 185 149 128
263.000 940.000 330.000 179 146 125
263.000 941.000 330.000 184 148 126
262.000 943.000 329.000 194 154 135
263.000 942.000 329.000 191 151 131
263.000 943.000 329.000 194 153 133
262.000 942.000 330.000 190 151 131
262.000 943.000 330.000 193 153 133
263.000 942.000 330.000 189 150 130
264.000 932.000 326.000 139 113 90
264.000 933.000 326.000 132 108 86
264.000 933.000 327.000 129 108 86
265.000 932.000 326.000 134 109 87
265.000 933.000 326.000 126 104 84
264.000 934.000 327.000 128 107 87
264.000 935.000 327.000 129 108 87
265.000 934.000 327.000 125 104 85
265.000 935.000 327.000 126 105 86
267.000 932.000 325.000 123 100 80
266.000 933.000 326.000 122 101 81
267.000 933.000 326.000 118 97 78
266.000 934.000 326.000 120 100 81
266.000 934.000 327.000 122 102 83
266.000 935.000 327.000 124 104 85
267.000 934.000 326.000 117 97 78
267.000 934.000 327.000 119 99 80
267.000 935.000 327.000 122 102 83
269.000 931.000 323.000 109 87 72
271.000 931.000 321.000 100 85 77
270.000 931.000 322.000 108 89 76
268.000 931.000 324.000 116 91 73
271.000 932.000 322.000 94 80 72
271.000 932.000 323.000 94 78 66
268.000 932.000 324.000 112 89 71
268.000 932.000 325.000 115 93 74
268.000 933.000 325.000 111 91 72
269.000 932.000 324.000 104 83 65
269.000 933.000 325.000 105 85 67
268.000 933.000 326.000 112 93 74
268.000 934.000 326.000 113 94 75
268.000 935.000 327.000 117 98 80
269.000 934.000 326.000 108 89 71
269.000 935.000 326.000 110 93 76
269.000 935.000 327.000 112 94 78
270.000 933.000 324.000 97 79 61
270.000 933.000 325.000 100 81 63
271.000 933.000 324.000 93 77 63
270.000 934.000 325.000 102 85 68
271.000 934.000 324.000 93 77 62
271.000 934.000 325.000 99 82 66
271.000 935.000 325.000 100 85 70
270.000 934.000 326.000 105 88 71
270.000 935.000 326.000 108 91 75
271.000 935.000 326.000 103 87 72
264.000 935.000 328.000 131 110 89
265.000 935.000 328.000 128 108 88
267.000 936.000 327.000 125 106 88
268.000 936.000 327.000 122 103 86
269.000 936.000 327.000 117 99 83
269.000 937.000 327.000 120 102 86
270.000 936.000 327.000 112 95 81
270.000 937.000 327.000 117 100 85
271.000 936.000 326.000 102 86 71
271.000 936.000 327.000 106 90 76
264.000 936.000 328.000 137 114 93
264.000 937.000 328.000 144 121 99
264.000 937.000 329.000 150 126 102
265.000 936.000 328.000 134 112 93
265.000 937.000 328.000 144 122 101
264.000 938.000 329.000 158 132 107
264.000 939.000 329.000 165 136 112
265.000 938.000 329.000 154 129 106
265.000 939.000 329.000 163 134 111
266.000 936.000 328.000 130 110 91
266.000 937.000 328.000 143 121 101
267.000 936.000 328.000 129 110 91
267.000 937.000 328.000 139 119 100
266.000 938.000 328.000 151 126 104
266.000 938.000 329.000 154 129 105
266.000 939.000 329.000 161 133 110
267.000 938.000 328.000 150 126 104
267.000 939.000 328.000 157 130 107
267.000 939.000 329.000 160 132 110
264.000 940.000 329.000 174 142 120
264.000 941.000 329.000 182 146 124
265.000 940.000 329.000 171 139 117
265.000 941.000 329.000 179 143 122
264.000 942.000 329.000 190 150 130
264.000 943.000 329.000 193 152 131
265.000 942.000 329.000 188 148 127
265.000 943.000 329.000 192 151 129
266.000 940.000 329.000 169 137 116
266.000 941.000 329.000 177 141 120
267.000 940.000 329.000 167 135 113
267.000 941.000 329.000 174 138 117
266.000 942.000 329.000 186 148 126
266.000 943.000 329.000 191 150 127
267.000 942.000 329.000 184 144 123
267.000 943.000 329.000 188 147 125
268.000 936.000 328.000 126 107 90
268.000 937.000 328.000 135 115 97
269.000 937.000 328.000 130 110 93
268.000 938.000 328.000 147 124 103
268.000 939.000 328.000 157 130 107
269.000 938.000 328.000 144 122 102
269.000 939.000 328.000 154 128 106
270.000 939.000 328.000 152 127 105
268.000 940.000 328.000 164 134 113
268.000 940.000 329.000 166 135 113
268.000 941.000 328.000 169 135 114
268.000 941.000 329.000 172 136 116
269.000 940.000 328.000 164 133 112
269.000 941.000 328.000 171 136 114
268.000 942.000 328.000 181 139 118
268.000 942.000 329.000 180 140 119
268.000 943.000 328.000 186 143 121
268.000 943.000 329.000 187 145 123
269.000 942.000 328.000 179 138 116
269.000 943.000 328.000 185 140 118
270.000 940.000 328.000 163 131 109
270.000 941.000 328.000 171 136 113
271.000 940.000 328.000 159 128 106
271.000 941.000 328.000 168 133 110
270.000 942.000 328.000 178 139 115
270.000 943.000 328.000 183 140 116
271.000 942.000 328.000 176 137 113
271.000 943.000 328.000 182 139 114
263.000 950.000 327.000 177 136 113
263.000 951.000 327.000 177 138 115
257.000 945.000 329.000 192 153 134
256.000 944.000 330.000 196 159 142
256.000 945.000 330.000 196 158 140
257.000 944.000 330.000 195 158 140
257.000 945.000 330.000 193 155 136
256.000 946.000 329.000 195 156 138
256.000 947.000 329.000 195 157 138
257.000 946.000 329.000 192 154 135
257.000 947.000 329.000 193 155 136
256.000 946.000 330.000 195 156 138
258.000 945.000 329.000 192 152 133
259.000 945.000 329.000 192 152 133
258.000 944.000 330.000 193 155 136
258.000 945.000 330.000 193 153 134
259.000 944.000 330.000 193 154 136
259.000 945.000 330.000 193 154 135
258.000 946.000 329.000 191 152 134
258.000 947.000 329.000 191 152 134
259.000 946.000 329.000 191 151 133
259.000 947.000 329.000 190 151 132
256.000 948.000 329.000 193 154 135
256.000 949.000 328.000 191 153 134
256.000 949.000 329.000 191 153 134
257.000 948.000 329.000 192 153 135
257.000 949.000 328.000 192 155 136
257.000 949.000 329.000 192 155 136
256.000 950.000 328.000 190 153 133
256.000 951.000 328.000 189 152 132
257.000 950.000 328.000 192 156 136
257.000 951.000 328.000 191 156 135
258.000 948.000 328.000 190 153 134
258.000 948.000 329.000 190 152 133
258.000 949.000 328.000 192 154 135
258.000 949.000 329.000 191 154 135
259.000 948.000 328.000 189 150 132
259.000 948.000 329.000 189 150 132
259.000 949.000 328.000 189 151 132
258.000 950.000 328.000 191 156 135
258.000 951.000 328.000 191 155 135
259.000 950.000 328.000 189 152 132
259.000 951.000 328.000 188 151 132
260.000 945.000 329.000 192 152 133
261.000 944.000 329.000 193 152 134
261.000 945.000 329.000 191 149 130
260.000 944.000 330.000 195 156 137
261.000 944.000 330.000 195 155 137
260.000 946.000 329.000 190 149 130
260.000 947.000 329.000 189 149 130
261.000 946.000 329.000 188 145 126
261.000 947.000 328.000 185 144 122
261.000 947.000 329.000 187 145 125
262.000 944.000 329.000 193 152 133
262.000 945.000 329.000 190 147 128
263.000 944.000 329.000 194 152 132
263.000 945.000 329.000 190 146 128
262.000 946.000 329.000 187 143 124
262.000 947.000 328.000 184 142 120
263.000 946.000 328.000 186 143 123
263.000 946.000 329.000 188 144 125
263.000 947.000 328.000 184 142 120
260.000 948.000 328.000 187 147 128
260.000 948.000 329.000 188 148 129
260.000 949.000 328.000 186 147 127
261.000 948.000 328.000 184 144 123
261.000 949.000 328.000 184 144 124
260.000 950.000 328.000 185 147 127
260.000 951.000 328.000 184 146 127
261.000 950.000 328.000 182 142 122
261.000 951.000 328.000 181 141 121
262.000 948.000 328.000 184 143 122
262.000 949.000 328.000 184 142 122
263.000 948.000 328.000 184 143 121
263.000 949.000 328.000 181 140 119
262.000 950.000 328.000 180 139 118
262.000 951.000 328.000 180 139 118
263.000 950.000 328.000 178 137 115
256.000 956.000 327.000 183 150 131
256.000 957.000 327.000 183 149 131
257.000 956.000 327.000 184 150 132
257.000 957.000 327.000 185 151 133
256.000 958.000 327.000 183 148 130
256.000 959.000 327.000 183 149 130
257.000 958.000 327.000 184 150 132
257.000 959.000 327.000 184 151 133
258.000 956.000 327.000 186 151 134
258.000 957.000 327.000 186 152 134
259.000 956.000 327.000 187 153 135
259.000 957.000 327.000 187 152 135
258.000 958.000 327.000 186 152 134
258.000 959.000 327.000 188 154 136
259.000 958.000 327.000 188 153 135
259.000 959.000 327.000 188 153 135
261.000 953.000 327.000 182 145 124
260.000 955.000 327.000 185 151 131
261.000 954.000 327.000 183 147 125
261.000 955.000 327.000 183 147 125
262.000 952.000 327.000 178 139 117
262.000 953.000 327.000 180 141 120
263.000 952.000 327.000 176 137 114
263.000 953.000 327.000 176 137 115
262.000 954.000 327.000 181 143 121
262.000 955.000 327.000 180 142 119
263.000 954.000 327.000 178 139 117
263.000 955.000 327.000 177 137 115
260.000 956.000 327.000 185 151 131
260.000 957.000 327.000 186 151 132
261.000 956.000 327.000 184 148 126
261.000 957.000 327.000 184 147 126
260.000 958.000 327.000 188 152 133
260.000 959.000 327.000 188 152 132
261.000 958.000 327.000 186 151 128
261.000 959.000 327.000 187 151 130
262.000 956.000 327.000 181 144 122
262.000 957.000 327.000 181 144 121
263.000 956.000 327.000 178 139 117
263.000 957.000 327.000 179 141 118
262.000 958.000 327.000 183 146 123
262.000 959.000 327.000 186 149 128
263.000 958.000 327.000 181 142 120
263.000 959.000 326.000 184 145 124
263.000 959.000 327.000 184 146 125
256.000 952.000 328.000 186 151 131
256.000 953.000 328.000 186 151 132
257.000 952.000 328.000 188 152 133
257.000 953.000 328.000 187 151 134
256.000 954.000 328.000 184 150 131
256.000 955.000 328.000 183 149 131
257.000 954.000 328.000 185 151 133
257.000 955.000 328.000 184 150 132
258.000 952.000 328.000 189 153 135
258.000 953.000 328.000 186 151 133
259.000 952.000 328.000 187 151 133
259.000 953.000 328.000 185 150 132
258.000 954.000 328.000 185 149 132
258.000 955.000 328.000 185 151 133
259.000 954.000 328.000 184 149 131
259.000 955.000 328.000 185 151 132
256.000 956.000 328.000 184 150 132
257.000 956.000 328.000 184 151 132
258.000 956.000 328.000 186 153 134
260.000 952.000 328.000 184 148 129
260.000 953.000 328.000 184 149 130
261.000 952.000 328.000 181 143 123
261.000 953.000 328.000 183 147 127
260.000 954.000 328.000 184 149 130
260.000 955.000 328.000 185 151 131
261.000 954.000 328.000 184 148 127
262.000 952.000 328.000 179 140 119
267.000 947.000 327.000 185 141 118
264.000 949.000 327.000 178 136 114
265.000 949.000 327.000 179 136 115
264.000 950.000 327.000 176 135 111
264.000 951.000 327.000 174 135 111
265.000 950.000 327.000 174 133 110
265.000 951.000 327.000 171 132 109
266.000 948.000 327.000 184 142 119
266.000 949.000 327.000 179 137 115
267.000 948.000 327.000 184 142 119
267.000 949.000 327.000 179 137 115
266.000 950.000 327.000 173 132 109
266.000 951.000 327.000 170 130 107
267.000 950.000 327.000 173 131 107
267.000 951.000 327.000 168 128 104
268.000 947.000 327.000 185 139 117
269.000 946.000 327.000 187 140 118
269.000 947.000 327.000 185 138 115
271.000 944.000 327.000 187 143 117
271.000 945.000 327.000 187 141 115
270.000 946.000 327.000 187 140 117
270.000 947.000 327.000 184 137 114
271.000 946.000 327.000 186 140 116
271.000 947.000 327.000 183 136 113
268.000 948.000 327.000 185 142 120
268.000 949.000 327.000 179 137 114
269.000 948.000 327.000 182 139 115
269.000 949.000 327.000 177 135 111
268.000 950.000 327.000 172 131 107
268.000 951.000 327.000 166 124 100
269.000 950.000 326.000 169 127 104
269.000 950.000 327.000 172 130 106
269.000 951.000 326.000 165 124 100
270.000 948.000 327.000 181 137 113
270.000 949.000 326.000 173 130 106
270.000 949.000 327.000 175 132 108
271.000 948.000 326.000 178 134 109
271.000 948.000 327.000 181 136 111
271.000 949.000 326.000 173 131 107
270.000 950.000 326.000 170 128 105
270.000 951.000 326.000 165 124 100
271.000 950.000 326.000 169 127 103
271.000 951.000 326.000 164 124 100
264.000 944.000 329.000 194 152 132
264.000 945.000 328.000 191 146 128
264.000 945.000 329.000 192 148 129
265.000 944.000 329.000 194 152 131
265.000 945.000 328.000 191 147 128
265.000 945.000 329.000 193 149 129
264.000 946.000 328.000 187 143 123
264.000 947.000 328.000 184 142 120
265.000 946.000 328.000 187 142 122
265.000 947.000 328.000 185 142 120
266.000 944.000 329.000 193 150 129
266.000 945.000 328.000 192 148 128
267.000 944.000 328.000 192 149 127
267.000 944.000 329.000 192 150 127
267.000 945.000 328.000 192 149 127
266.000 946.000 328.000 187 142 120
266.000 947.000 328.000 185 142 120
267.000 946.000 328.000 188 143 122
267.000 947.000 328.000 186 141 118
264.000 948.000 328.000 182 140 118
264.000 949.000 328.000 180 139 117
265.000 948.000 328.000 184 141 120
266.000 948.000 328.000 185 143 122
268.000 944.000 328.000 190 146 123
268.000 945.000 328.000 190 146 123
269.000 944.000 328.000 189 144 121
269.000 945.000 328.000 189 144 120
268.000 946.000 328.000 188 143 121
268.000 947.000 328.000 185 140 117
269.000 946.000 328.000 189 143 120
270.000 944.000 328.000 187 142 118
270.000 945.000 328.000 188 142 117
271.000 944.000 328.000 186 142 117
271.000 945.000 328.000 187 142 116
264.000 952.000 327.000 173 134 110
264.000 953.000 327.000 173 133 109
265.000 952.000 327.000 169 130 107
265.000 953.000 327.000 171 132 108
264.000 954.000 327.000 174 134 110
264.000 955.000 327.000 174 133 110
265.000 954.000 327.000 173 134 110
265.000 955.000 327.000 171 131 106
266.000 952.000 327.000 168 128 105
266.000 953.000 327.000 170 131 107
267.000 952.000 327.000 166 126 101
267.000 953.000 327.000 167 128 103
266.000 954.000 327.000 171 132 107
266.000 955.000 327.000 169 129 103
267.000 954.000 326.000 167 129 102
267.000 954.000 327.000 168 130 104
267.000 955.000 326.000 167 128 101
267.000 955.000 327.000 169 130 103
264.000 956.000 327.000 174 134 111
264.000 957.000 327.000 176 136 113
265.000 956.000 327.000 173 132 108
265.000 957.000 326.000 176 135 112
265.000 957.000 327.000 175 135 112
264.000 958.000 326.000 179 138 116
264.000 958.000 327.000 178 138 116
264.000 959.000 326.000 181 141 120
265.000 958.000 326.000 177 135 113
265.000 959.000 326.000 178 138 115
266.000 956.000 327.000 170 130 105
266.000 957.000 326.000 173 133 109
266.000 957.000 327.000 173 134 109
267.000 956.000 326.000 167 127 100
267.000 957.000 326.000 170 129 102
266.000 958.000 326.000 176 135 111
266.000 959.000 326.000 177 135 111
267.000 958.000 326.000 173 132 107
267.000 959.000 326.000 175 133 108
268.000 952.000 326.000 164 124 99
268.000 952.000 327.000 165 124 99
268.000 953.000 326.000 165 127 101
268.000 953.000 327.000 165 126 101
269.000 952.000 326.000 164 124 100
269.000 953.000 326.000 163 124 98
268.000 954.000 326.000 164 126 98
268.000 955.000 326.000 165 126 99
269.000 954.000 326.000 163 124 96
269.000 955.000 326.000 165 126 99
270.000 952.000 326.000 163 124 99
270.000 953.000 326.000 162 123 97
271.000 952.000 326.000 161 122 97
271.000 953.000 326.000 160 122 95
271.000 955.000 325.000 161 122 96
270.000 954.000 326.000 162 123 95
270.000 955.000 326.000 164 125 98
271.000 954.000 326.000 160 121 92
271.000 955.000 326.000 162 124 98
268.000 956.000 326.000 166 127 99
268.000 957.000 326.000 168 128 101
269.000 956.000 326.000 167 128 101
269.000 957.000 326.000 168 129 102
268.000 959.000 325.000 171 129 104
269.000 958.000 325.000 168 126 99
269.000 959.000 325.000 169 127 101
268.000 958.000 326.000 170 129 103
268.000 959.000 326.000 172 130 105
269.000 958.000 326.000 168 127 100
270.000 957.000 325.000 167 128 102
271.000 956.000 325.000 164 126 99
271.000 957.000 325.000 165 126 100
270.000 956.000 326.000 166 127 101
270.000 957.000 326.000 169 130 103
270.000 958.000 325.000 169 128 102
270.000 959.000 325.000 167 125 99
271.000 958.000 325.000 167 127 101
271.000 959.000 324.000 166 124 99
271.000 959.000 325.000 167 125 99
272.000 932.000 322.000 89 77 72
272.000 933.000 323.000 86 75 67
273.000 933.000 322.000 80 70 66
273.000 933.000 323.000 83 72 63
273.000 934.000 323.000 84 71 61
272.000 934.000 324.000 92 77 63
272.000 935.000 325.000 97 82 68
273.000 934.000 324.000 89 75 62
273.000 935.000 324.000 92 78 64
273.000 936.000 325.000 91 77 65
272.000 936.000 326.000 96 81 68
272.000 937.000 326.000 95 80 68
272.000 939.000 327.000 140 117 97
272.000 940.000 327.000 154 125 102
272.000 941.000 327.000 165 131 109
273.000 940.000 327.000 151 124 102
273.000 941.000 327.000 163 130 108
272.000 942.000 327.000 174 135 111
272.000 943.000 327.000 181 137 114
273.000 942.000 327.000 173 135 111
273.000 943.000 327.000 178 135 112
274.000 941.000 327.000 160 130 106
274.000 942.000 327.000 169 133 109
275.000 942.000 326.000 166 132 108
275.000 943.000 326.000 174 134 111
272.000 940.000 328.000 156 125 103
272.000 941.000 328.000 166 132 109
272.000 942.000 328.000 174 135 110
272.000 943.000 328.000 180 137 113
272.000 944.000 327.000 185 140 115
272.000 945.000 327.000 186 141 114
273.000 944.000 327.000 183 138 112
273.000 945.000 327.000 186 140 114
272.000 946.000 327.000 186 139 115
272.000 947.000 327.000 184 137 114
273.000 946.000 326.000 186 139 115
273.000 946.000 327.000 186 140 115
273.000 947.000 326.000 184 138 114
274.000 944.000 326.000 182 136 111
274.000 945.000 326.000 185 138 111
275.000 947.000 325.000 184 137 112
274.000 946.000 326.000 185 138 113
274.000 947.000 326.000 183 136 112
272.000 948.000 326.000 179 134 110
272.000 948.000 327.000 182 136 112
272.000 949.000 326.000 174 131 107
273.000 948.000 326.000 179 135 110
273.000 949.000 326.000 173 131 106
272.000 951.000 325.000 165 126 103
273.000 950.000 325.000 169 127 103
273.000 951.000 325.000 166 127 104
272.000 950.000 326.000 169 128 104
272.000 951.000 326.000 165 126 102
273.000 950.000 326.000 170 128 104
274.000 949.000 325.000 172 129 105
275.000 948.000 325.000 179 134 110
274.000 948.000 326.000 180 135 111
274.000 950.000 325.000 170 127 103
274.000 951.000 325.000 166 125 102
275.000 950.000 324.000 170 127 103
275.000 951.000 324.000 167 126 102
277.000 951.000 323.000 167 127 103
276.000 950.000 324.000 171 128 104
276.000 951.000 324.000 167 127 103
275.000 955.000 323.000 163 126 102
272.000 952.000 325.000 162 123 98
272.000 953.000 325.000 159 120 93
273.000 952.000 325.000 163 124 100
273.000 953.000 325.000 159 120 94
272.000 952.000 326.000 161 122 98
272.000 953.000 326.000 159 120 93
272.000 954.000 325.000 158 120 92
272.000 955.000 325.000 159 121 94
273.000 954.000 325.000 158 120 92
273.000 955.000 325.000 159 121 95
274.000 952.000 325.000 163 124 100
274.000 953.000 324.000 160 121 95
274.000 953.000 325.000 160 121 95
275.000 952.000 324.000 163 124 99
275.000 953.000 324.000 160 122 96
274.000 954.000 324.000 159 122 95
274.000 954.000 325.000 159 120 93
274.000 955.000 324.000 160 123 97
275.000 954.000 324.000 161 124 99
275.000 955.000 324.000 162 126 101
275.000 956.000 323.000 164 129 103
275.000 957.000 323.000 166 129 104
274.000 958.000 323.000 168 128 104
274.000 959.000 323.000 168 127 103
275.000 958.000 323.000 167 129 104
275.000 959.000 322.000 169 131 108
275.000 959.000 323.000 168 128 105
272.000 956.000 325.000 162 124 97
272.000 957.000 325.000 164 125 99
273.000 956.000 324.000 163 124 97
273.000 956.000 325.000 161 123 97
273.000 957.000 324.000 164 124 98
273.000 957.000 325.000 164 125 98
272.000 958.000 324.000 166 125 100
272.000 958.000 325.000 166 125 100
272.000 959.000 324.000 166 125 100
273.000 958.000 324.000 166 125 100
273.000 959.000 324.000 168 126 102
274.000 956.000 324.000 163 125 99
274.000 957.000 324.000 165 126 101
275.000 956.000 324.000 163 127 101
274.000 958.000 324.000 167 127 102
274.000 959.000 324.000 168 126 102
276.000 952.000 323.000 165 127 103
276.000 953.000 323.000 162 124 101
277.000 952.000 323.000 166 127 104
277.000 953.000 323.000 164 126 103
276.000 954.000 323.000 162 124 101
276.000 955.000 323.000 164 128 104
277.000 954.000 322.000 164 126 103
277.000 954.000 323.000 163 125 102
277.000 955.000 322.000 165 129 106
279.000 952.000 321.000 167 127 104
279.000 953.000 321.000 166 127 104
278.000 952.000 322.000 166 127 103
278.000 953.000 322.000 165 126 103
278.000 954.000 321.000 166 130 107
278.000 955.000 321.000 168 132 110
279.000 954.000 321.000 166 129 106
279.000 955.000 320.000 167 132 110
279.000 955.000 321.000 167 131 109
278.000 954.000 322.000 166 129 106
278.000 955.000 322.000 168 132 109
276.000 952.000 324.000 164 126 102
276.000 953.000 324.000 162 124 100
276.000 956.000 323.000 167 131 107
276.000 957.000 322.000 167 131 107
276.000 957.000 323.000 166 130 106
277.000 956.000 322.000 167 131 107
277.000 957.000 322.000 167 132 108
277.000 959.000 321.000 169 133 111
276.000 958.000 322.000 166 129 105
276.000 958.000 323.000 166 129 104
276.000 959.000 322.000 169 132 108
277.000 958.000 322.000 167 131 108
277.000 959.000 322.000 169 133 110
278.000 956.000 321.000 166 131 109
278.000 957.000 321.000 166 130 108
279.000 956.000 320.000 165 130 108
279.000 956.000 321.000 165 130 108
279.000 957.000 320.000 165 131 109
279.000 957.000 321.000 164 129 107
278.000 956.000 322.000 167 132 109
278.000 957.000 322.000 167 132 109
278.000 958.000 321.000 166 131 109
278.000 959.000 321.000 168 133 110
279.000 958.000 320.000 167 133 112
279.000 958.000 321.000 167 132 110
279.000 959.000 320.000 168 134 113
279.000 959.000 321.000 167 132 110
280.000 953.000 320.000 167 129 106
280.000 954.000 320.000 166 130 107
280.000 955.000 320.000 167 131 108
281.000 954.000 320.000 167 129 107
281.000 955.000 320.000 168 131 109
280.000 956.000 320.000 167 131 110
280.000 957.000 320.000 167 132 111
280.000 958.000 320.000 166 133 112
280.000 959.000 320.000 167 133 113
279.000 960.000 319.000 171 136 119
279.000 961.000 319.000 171 135 117
279.000 962.000 319.000 170 134 117
279.000 963.000 319.000 169 133 115
277.000 965.000 319.000 166 128 109
276.000 966.000 319.000 167 129 109
276.000 967.000 319.000 165 127 107
277.000 966.000 319.000 166 129 110
277.000 967.000 319.000 164 127 109
278.000 964.000 319.000 169 132 115
278.000 965.000 319.000 166 129 111
279.000 964.000 318.000 166 130 114
279.000 964.000 319.000 166 130 112
279.000 965.000 318.000 164 130 113
279.000 965.000 319.000 164 128 110
279.000 966.000 317.000 158 125 107
279.000 967.000 317.000 160 126 110
278.000 966.000 318.000 165 130 113
278.000 966.000 319.000 166 130 113
278.000 967.000 318.000 163 127 110
279.000 966.000 318.000 162 129 112
279.000 967.000 318.000 160 127 110
275.000 968.000 319.000 163 123 104
275.000 969.000 319.000 158 119 99
275.000 970.000 319.000 153 115 95
276.000 968.000 319.000 163 124 105
276.000 969.000 318.000 152 113 94
276.000 969.000 319.000 157 117 98
277.000 968.000 318.000 161 124 107
277.000 968.000 319.000 162 124 106
277.000 969.000 318.000 156 118 101
276.000 970.000 318.000 149 111 91
277.000 970.000 318.000 149 113 95
278.000 969.000 317.000 152 116 100
279.000 968.000 317.000 158 124 110
279.000 969.000 317.000 153 118 104
278.000 968.000 318.000 160 124 108
278.000 969.000 318.000 156 120 104
279.000 968.000 318.000 159 124 108
278.000 970.000 317.000 149 113 97
279.000 970.000 316.000 148 115 101
279.000 970.000 317.000 148 113 98
283.000 962.000 315.000 161 131 113
283.000 963.000 315.000 162 130 113
280.000 960.000 319.000 170 136 118
280.000 961.000 318.000 168 133 116
280.000 961.000 319.000 169 134 116
281.000 960.000 318.000 170 138 121
281.000 961.000 318.000 166 133 115
281.000 962.000 317.000 164 130 114
281.000 963.000 317.000 163 129 113
280.000 962.000 318.000 165 129 111
280.000 962.000 319.000 168 132 115
280.000 963.000 318.000 166 131 115
280.000 963.000 319.000 167 132 114
281.000 962.000 318.000 163 128 111
281.000 963.000 318.000 163 128 113
282.000 960.000 317.000 166 134 116
282.000 961.000 317.000 165 133 115
283.000 960.000 316.000 164 132 114
283.000 960.000 317.000 165 132 114
283.000 961.000 316.000 162 131 112
283.000 961.000 317.000 163 132 113
282.000 960.000 318.000 167 134 117
282.000 962.000 317.000 164 132 115
282.000 963.000 316.000 163 131 115
282.000 963.000 317.000 163 130 114
283.000 962.000 316.000 161 130 112
283.000 963.000 316.000 161 129 111
283.000 964.000 315.000 158 126 109
283.000 965.000 315.000 157 124 108
282.000 966.000 315.000 155 123 107
282.000 967.000 315.000 154 122 106
283.000 966.000 314.000 155 124 108
283.000 966.000 315.000 155 124 108
283.000 967.000 315.000 156 124 108
280.000 965.000 317.000 161 128 112
281.000 964.000 317.000 160 126 110
281.000 965.000 317.000 157 124 107
280.000 964.000 318.000 164 129 114
280.000 965.000 318.000 163 129 113
280.000 966.000 317.000 157 125 108
280.000 967.000 317.000 158 126 110
281.000 966.000 316.000 154 122 105
281.000 966.000 317.000 155 123 106
281.000 967.000 316.000 153 121 105
282.000 964.000 316.000 159 125 110
282.000 964.000 317.000 160 126 111
282.000 965.000 316.000 155 121 106
283.000 964.000 316.000 157 124 109
283.000 965.000 316.000 156 122 107
282.000 966.000 316.000 154 122 106
284.000 960.000 315.000 160 128 110
284.000 961.000 315.000 158 128 109
284.000 962.000 314.000 159 127 110
284.000 962.000 315.000 160 129 111
284.000 963.000 315.000 162 130 114
284.000 960.000 316.000 163 131 113
284.000 964.000 315.000 161 129 113
281.000 969.000 315.000 149 116 104
281.000 970.000 315.000 141 108 95
282.000 968.000 314.000 154 121 106
282.000 968.000 315.000 153 121 106
282.000 969.000 315.000 150 117 103
280.000 968.000 316.000 152 120 104
280.000 968.000 317.000 157 125 110
280.000 969.000 316.000 152 119 105
281.000 968.000 316.000 152 119 105
281.000 969.000 316.000 150 117 104
280.000 970.000 316.000 145 114 99
280.000 971.000 316.000 140 110 95
281.000 970.000 316.000 142 109 95
256.000 960.000 327.000 183 149 132
256.000 961.000 327.000 182 148 131
257.000 960.000 327.000 186 153 136
257.000 961.000 327.000 185 151 135
256.000 962.000 327.000 181 147 130
256.000 963.000 326.000 180 146 130
256.000 963.000 327.000 180 146 129
257.000 962.000 327.000 183 150 135
257.000 963.000 326.000 183 149 134
258.000 960.000 327.000 188 154 138
258.000 961.000 327.000 188 154 139
259.000 960.000 327.000 189 154 137
259.000 961.000 327.000 189 155 139
258.000 962.000 326.000 185 151 135
258.000 962.000 327.000 186 152 136
258.000 963.000 326.000 185 152 136
259.000 962.000 326.000 187 153 136
259.000 962.000 327.000 188 154 138
259.000 963.000 326.000 186 151 135
256.000 964.000 326.000 177 143 127
256.000 965.000 326.000 174 139 123
257.000 964.000 326.000 182 147 131
257.000 965.000 326.000 179 144 128
256.000 966.000 326.000 170 135 119
256.000 967.000 326.000 162 126 112
257.000 966.000 326.000 176 142 126
257.000 967.000 326.000 169 135 122
258.000 964.000 326.000 185 151 135
258.000 965.000 326.000 183 149 133
259.000 964.000 326.000 186 151 135
259.000 965.000 326.000 183 149 133
258.000 966.000 326.000 180 147 132
258.000 967.000 326.000 172 140 127
259.000 966.000 326.000 181 148 132
259.000 967.000 326.000 171 139 126
260.000 960.000 327.000 189 154 136
260.000 961.000 327.000 190 156 139
261.000 960.000 327.000 189 153 133
261.000 961.000 326.000 189 155 136
261.000 961.000 327.000 190 156 138
260.000 962.000 326.000 188 152 136
260.000 962.000 327.000 189 154 137
260.000 963.000 326.000 186 149 133
261.000 962.000 326.000 187 151 134
261.000 963.000 326.000 184 146 130
262.000 960.000 326.000 187 151 131
262.000 960.000 327.000 187 152 131
262.000 961.000 326.000 188 151 131
263.000 960.000 326.000 185 147 126
263.000 961.000 326.000 184 146 126
262.000 962.000 326.000 187 150 132
262.000 963.000 326.000 184 145 128
263.000 962.000 326.000 184 146 127
263.000 963.000 326.000 183 144 127
260.000 964.000 326.000 184 147 132
260.000 965.000 326.000 182 145 130
261.000 964.000 326.000 182 144 129
261.000 965.000 326.000 181 144 128
260.000 966.000 325.000 178 144 129
260.000 967.000 325.000 169 137 123
261.000 966.000 325.000 178 143 127
261.000 967.000 325.000 171 137 122
260.000 966.000 326.000 180 146 130
261.000 966.000 326.000 180 145 128
262.000 965.000 325.000 182 144 127
263.000 964.000 325.000 180 141 123
263.000 965.000 325.000 181 142 124
262.000 964.000 326.000 183 143 127
262.000 965.000 326.000 183 144 128
263.000 964.000 326.000 181 142 125
262.000 966.000 325.000 179 143 126
262.000 967.000 325.000 173 139 123
263.000 966.000 325.000 179 142 124
263.000 967.000 325.000 175 140 123
256.000 968.000 326.000 149 115 101
256.000 969.000 326.000 127 99 89
257.000 968.000 326.000 153 121 109
257.000 969.000 326.000 122 94 87
256.000 970.000 326.000 94 74 69
257.000 970.000 326.000 90 70 68
258.000 969.000 325.000 116 91 88
259.000 968.000 325.000 154 124 113
259.000 969.000 325.000 125 100 95
258.000 968.000 326.000 153 122 111
258.000 969.000 326.000 125 98 92
259.000 968.000 326.000 153 122 111
260.000 968.000 325.000 155 126 116
260.000 969.000 325.000 130 106 101
261.000 968.000 325.000 157 128 116
262.000 968.000 325.000 162 131 118
263.000 968.000 325.000 164 132 117
264.000 960.000 326.000 182 142 121
264.000 961.000 326.000 182 142 121
265.000 960.000 326.000 179 139 116
265.000 961.000 326.000 179 139 116
264.000 963.000 325.000 180 143 122
265.000 962.000 325.000 177 138 115
265.000 963.000 325.000 177 138 116
264.000 962.000 326.000 180 142 120
264.000 963.000 326.000 181 143 123
265.000 962.000 326.000 178 139 116
267.000 961.000 325.000 172 130 106
266.000 960.000 326.000 176 134 110
266.000 961.000 326.000 175 134 110
267.000 960.000 326.000 174 132 107
267.000 961.000 326.000 173 131 106
266.000 962.000 325.000 173 133 109
266.000 963.000 325.000 173 134 111
267.000 962.000 325.000 170 129 105
267.000 963.000 325.000 170 129 107
266.000 962.000 326.000 175 135 111
264.000 964.000 325.000 181 143 123
264.000 965.000 325.000 181 142 123
265.000 964.000 325.000 178 139 118
265.000 965.000 325.000 179 140 120
264.000 964.000 326.000 181 143 124
264.000 966.000 325.000 179 141 122
264.000 967.000 325.000 174 138 119
265.000 966.000 325.000 177 139 118
265.000 967.000 324.000 171 134 114
265.000 967.000 325.000 173 136 116
266.000 964.000 325.000 174 133 111
266.000 965.000 325.000 174 133 111
267.000 964.000 325.000 172 130 109
267.000 965.000 324.000 170 127 107
267.000 965.000 325.000 171 129 108
266.000 966.000 324.000 172 134 112
266.000 966.000 325.000 174 134 114
266.000 967.000 324.000 170 131 109
267.000 966.000 324.000 169 128 107
267.000 966.000 325.000 172 130 110
267.000 967.000 324.000 167 126 104
271.000 963.000 323.000 166 125 102
268.000 960.000 325.000 172 130 106
268.000 961.000 325.000 171 130 106
269.000 960.000 325.000 170 128 103
269.000 961.000 325.000 170 130 105
268.000 960.000 326.000 173 131 107
268.000 962.000 325.000 168 128 103
268.000 963.000 325.000 169 127 103
269.000 962.000 324.000 167 126 102
269.000 962.000 325.000 167 127 102
269.000 963.000 324.000 166 125 101
269.000 963.000 325.000 166 125 100
270.000 960.000 325.000 168 127 101
270.000 961.000 325.000 168 128 103
271.000 960.000 324.000 167 125 101
271.000 960.000 325.000 167 125 100
271.000 961.000 324.000 166 124 100
270.000 962.000 324.000 166 125 101
270.000 962.000 325.000 167 126 102
270.000 963.000 324.000 166 125 101
271.000 962.000 324.000 166 124 100
271.000 963.000 324.000 166 125 102
268.000 967.000 323.000 164 123 101
269.000 966.000 323.000 166 123 103
269.000 967.000 323.000 164 122 101
270.000 965.000 323.000 168 126 104
271.000 964.000 323.000 166 125 102
271.000 965.000 323.000 168 126 103
270.000 966.000 323.000 167 124 103
270.000 967.000 323.000 164 121 100
271.000 966.000 322.000 168 126 104
271.000 966.000 323.000 167 125 103
271.000 967.000 322.000 166 124 103
271.000 967.000 323.000 165 122 101
268.000 964.000 324.000 169 128 106
268.000 964.000 325.000 171 129 107
268.000 965.000 324.000 169 126 106
269.000 964.000 324.000 168 127 105
269.000 965.000 324.000 168 126 105
268.000 966.000 324.000 167 125 105
268.000 967.000 324.000 165 125 103
269.000 966.000 324.000 167 124 104
270.000 964.000 324.000 167 127 104
270.000 965.000 324.000 167 126 104
271.000 964.000 324.000 167 126 104
267.000 969.000 323.000 158 121 100
264.000 968.000 324.000 161 125 108
264.000 968.000 325.000 164 129 112
264.000 969.000 324.000 144 114 100
265.000 968.000 324.000 165 128 110
265.000 969.000 324.000 150 118 101
266.000 968.000 324.000 164 126 105
266.000 969.000 324.000 154 120 100
267.000 968.000 324.000 164 124 103
267.000 969.000 324.000 158 121 100
268.000 968.000 323.000 163 123 100
268.000 969.000 323.000 160 121 99
269.000 968.000 323.000 162 121 99
269.000 969.000 322.000 159 119 97
269.000 969.000 323.000 160 120 98
268.000 970.000 323.000 153 116 96
269.000 970.000 322.000 154 116 95
271.000 969.000 321.000 160 117 99
270.000 968.000 322.000 162 120 99
270.000 968.000 323.000 163 120 100
270.000 969.000 322.000 159 118 98
270.000 969.000 323.000 161 119 99
271.000 968.000 322.000 163 121 102
271.000 969.000 322.000 160 118 99
271.000 970.000 321.000 156 114 96
270.000 970.000 322.000 154 115 94
268.000 968.000 324.000 164 124 101
273.000 960.000 323.000 168 126 102
273.000 961.000 323.000 169 127 103
272.000 962.000 323.000 167 125 101
272.000 963.000 323.000 167 125 102
273.000 962.000 323.000 169 127 103
273.000 963.000 323.000 169 128 104
274.000 960.000 323.000 169 127 103
274.000 961.000 323.000 169 127 104
275.000 960.000 322.000 170 131 109
275.000 960.000 323.000 169 128 105
275.000 961.000 322.000 170 129 106
275.000 961.000 323.000 170 128 105
275.000 963.000 321.000 170 129 108
274.000 962.000 322.000 170 128 105
274.000 962.000 323.000 169 127 103
274.000 963.000 322.000 170 128 104
275.000 962.000 322.000 171 129 107
275.000 963.000 322.000 170 127 105
272.000 960.000 324.000 168 125 102
272.000 961.000 324.000 167 125 101
273.000 960.000 324.000 168 126 101
273.000 961.000 324.000 168 126 102
272.000 962.000 324.000 166 124 100
272.000 964.000 323.000 168 127 104
272.000 965.000 322.000 169 127 104
272.000 965.000 323.000 169 127 104
273.000 964.000 322.000 170 129 105
273.000 964.000 323.000 169 128 105
273.000 965.000 322.000 170 128 105
273.000 966.000 321.000 170 128 105
273.000 967.000 321.000 167 126 104
272.000 966.000 322.000 169 128 105
272.000 967.000 322.000 168 126 104
273.000 966.000 322.000 170 127 105
273.000 967.000 322.000 168 126 104
274.000 965.000 321.000 171 129 107
275.000 964.000 321.000 171 130 109
275.000 965.000 320.000 169 128 108
275.000 965.000 321.000 170 130 108
274.000 964.000 322.000 172 130 107
274.000 965.000 322.000 171 130 107
275.000 964.000 322.000 170 129 106
274.000 966.000 321.000 168 126 105
274.000 967.000 321.000 168 127 106
275.000 966.000 320.000 169 128 109
275.000 966.000 321.000 169 127 108
275.000 967.000 320.000 168 127 108
276.000 961.000 321.000 170 130 108
277.000 960.000 321.000 170 134 112
277.000 961.000 321.000 171 132 111
276.000 960.000 322.000 172 134 112
276.000 961.000 322.000 171 131 110
277.000 960.000 322.000 171 134 112
276.000 962.000 321.000 171 130 110
276.000 963.000 321.000 171 130 111
277.000 962.000 320.000 172 134 114
277.000 962.000 321.000 171 133 112
277.000 963.000 320.000 171 133 115
277.000 963.000 321.000 171 132 113
276.000 962.000 322.000 170 129 107
278.000 960.000 320.000 170 134 112
278.000 960.000 321.000 169 133 111
278.000 961.000 320.000 171 135 114
278.000 961.000 321.000 170 134 112
279.000 960.000 320.000 170 135 115
279.000 961.000 320.000 172 136 117
278.000 962.000 320.000 171 135 114
278.000 963.000 320.000 172 135 116
279.000 962.000 320.000 171 134 115
279.000 963.000 320.000 170 134 116
276.000 964.000 320.000 169 130 111
276.000 964.000 321.000 170 131 112
276.000 965.000 320.000 169 130 110
277.000 964.000 320.000 169 130 112
277.000 965.000 320.000 167 129 110
276.000 966.000 320.000 168 129 109
276.000 967.000 320.000 167 127 107
278.000 964.000 320.000 170 133 115
272.000 968.000 321.000 165 123 102
272.000 969.000 321.000 162 120 102
273.000 968.000 321.000 166 125 104
273.000 969.000 320.000 163 122 102
273.000 969.000 321.000 164 123 104
272.000 968.000 322.000 166 124 105
272.000 970.000 320.000 157 114 96
272.000 970.000 321.000 156 113 95
273.000 970.000 320.000 158 117 99
274.000 968.000 320.000 166 126 106
274.000 968.000 321.000 166 126 106
274.000 969.000 320.000 163 122 102
275.000 968.000 320.000 165 125 106
275.000 969.000 320.000 162 122 102
274.000 970.000 320.000 159 119 100
