ply
format ascii 1.0
element vertex 1346
property float x
property float y
property float z
property uchar red
property uchar green
property uchar blue
end_header
261.000 253.000 203.000 41 48 55
260.000 254.000 200.000 38 45 53
260.000 255.000 200.000 39 46 53
260.000 255.000 201.000 40 47 55
261.000 254.000 203.000 40 47 55
261.000 253.000 204.000 42 49 56
261.000 253.000 205.000 45 51 57
261.000 254.000 204.000 42 49 57
261.000 254.000 205.000 46 51 58
261.000 255.000 204.000 42 49 57
261.000 255.000 205.000 46 52 59
261.000 254.000 206.000 47 51 57
261.000 255.000 206.000 47 52 59
262.000 252.000 206.000 46 50 55
262.000 253.000 206.000 46 50 55
262.000 254.000 206.000 47 51 57
262.000 254.000 207.000 44 48 54
262.000 255.000 206.000 48 53 59
262.000 255.000 207.000 47 52 58
263.000 252.000 208.000 38 44 51
263.000 253.000 208.000 36 43 49
263.000 253.000 209.000 37 43 50
263.000 253.000 210.000 36 44 51
262.000 254.000 208.000 40 46 52
262.000 255.000 208.000 45 50 57
263.000 254.000 209.000 39 46 53
263.000 255.000 209.000 41 48 55
263.000 254.000 210.000 38 45 53
263.000 255.000 210.000 39 47 55
263.000 255.000 211.000 38 46 54
263.000 254.000 212.000 38 46 53
263.000 255.000 212.000 37 45 54
264.000 251.000 210.000 42 48 56
265.000 251.000 211.000 40 47 55
265.000 251.000 212.000 39 46 54
266.000 251.000 213.000 37 44 52
267.000 251.000 214.000 35 43 51
267.000 251.000 215.000 35 43 51
264.000 253.000 211.000 35 43 52
265.000 252.000 212.000 38 46 53
265.000 253.000 214.000 35 43 51
264.000 254.000 212.000 37 45 53
264.000 254.000 213.000 37 44 52
264.000 255.000 212.000 37 45 53
264.000 255.000 213.000 37 45 53
265.000 254.000 213.000 37 44 51
264.000 255.000 214.000 37 44 52
265.000 254.000 214.000 35 43 51
265.000 254.000 215.000 34 42 50
265.000 255.000 214.000 37 44 52
265.000 255.000 215.000 36 44 51
266.000 252.000 215.000 34 42 50
266.000 253.000 215.000 34 42 50
267.000 252.000 215.000 35 43 51
266.000 254.000 215.000 34 42 50
266.000 255.000 215.000 37 44 51
268.000 251.000 215.000 34 43 51
266.000 253.000 216.000 34 42 50
267.000 252.000 216.000 35 43 51
267.000 253.000 216.000 34 43 51
266.000 254.000 216.000 35 43 50
266.000 255.000 216.000 35 43 51
266.000 255.000 217.000 34 42 51
267.000 254.000 216.000 34 42 50
267.000 254.000 217.000 33 42 50
267.000 255.000 217.000 33 42 50
267.000 255.000 218.000 33 41 49
267.000 255.000 219.000 35 43 51
271.000 249.000 221.000 36 43 51
270.000 251.000 220.000 35 43 51
270.000 251.000 221.000 36 43 51
271.000 250.000 221.000 36 43 51
271.000 251.000 221.000 36 44 51
271.000 250.000 222.000 37 44 52
271.000 250.000 223.000 37 44 52
271.000 251.000 222.000 36 44 51
271.000 251.000 223.000 37 45 52
268.000 252.000 216.000 36 43 51
268.000 253.000 216.000 34 43 51
268.000 253.000 217.000 35 43 50
269.000 252.000 219.000 34 42 50
269.000 253.000 218.000 34 42 50
269.000 253.000 219.000 35 43 51
268.000 254.000 217.000 34 42 50
268.000 254.000 218.000 33 42 50
268.000 254.000 219.000 34 42 50
268.000 255.000 218.000 33 42 50
268.000 255.000 219.000 34 42 50
269.000 254.000 219.000 34 43 51
269.000 253.000 220.000 35 43 51
269.000 253.000 221.000 35 43 51
268.000 254.000 221.000 35 44 52
268.000 255.000 220.000 35 43 51
268.000 255.000 221.000 36 44 52
269.000 254.000 220.000 35 43 51
269.000 254.000 221.000 36 44 52
268.000 255.000 222.000 37 44 52
268.000 255.000 223.000 37 44 52
269.000 254.000 222.000 36 44 52
269.000 254.000 223.000 38 45 52
269.000 255.000 222.000 36 44 52
269.000 255.000 223.000 38 45 53
270.000 252.000 220.000 34 42 50
270.000 252.000 221.000 35 43 51
270.000 253.000 220.000 35 43 50
270.000 253.000 221.000 35 43 51
270.000 252.000 222.000 36 44 52
270.000 252.000 223.000 37 44 52
270.000 253.000 222.000 36 44 52
270.000 253.000 223.000 37 44 52
271.000 252.000 223.000 37 45 53
270.000 254.000 223.000 37 45 52
272.000 249.000 223.000 38 45 53
271.000 251.000 224.000 38 45 53
271.000 251.000 225.000 37 45 53
269.000 254.000 224.000 39 46 53
269.000 255.000 224.000 39 46 53
269.000 255.000 225.000 40 46 54
270.000 252.000 224.000 38 45 53
270.000 253.000 224.000 37 45 53
270.000 253.000 225.000 38 45 53
271.000 252.000 224.000 38 45 53
271.000 252.000 225.000 37 45 53
271.000 253.000 225.000 38 45 53
271.000 252.000 226.000 38 45 53
271.000 252.000 227.000 37 45 53
271.000 253.000 226.000 39 46 53
271.000 253.000 227.000 38 45 53
270.000 254.000 224.000 38 45 53
270.000 254.000 225.000 39 46 53
270.000 255.000 225.000 39 46 53
270.000 254.000 226.000 38 45 53
270.000 254.000 227.000 39 46 54
270.000 255.000 226.000 38 46 53
270.000 255.000 227.000 39 46 54
271.000 254.000 227.000 39 46 54
271.000 255.000 227.000 39 47 54
271.000 253.000 228.000 38 46 54
271.000 254.000 228.000 38 46 54
271.000 255.000 228.000 38 45 53
271.000 255.000 229.000 38 46 54
272.000 249.000 224.000 38 45 53
272.000 251.000 224.000 38 46 53
272.000 250.000 226.000 38 46 54
272.000 250.000 227.000 38 46 54
272.000 251.000 226.000 37 45 53
272.000 251.000 227.000 38 45 54
272.000 251.000 228.000 38 46 54
273.000 251.000 230.000 39 47 55
272.000 252.000 227.000 38 46 54
272.000 252.000 229.000 37 45 53
272.000 253.000 228.000 38 46 54
272.000 253.000 229.000 37 45 54
272.000 254.000 228.000 38 46 54
272.000 254.000 229.000 38 46 55
272.000 255.000 229.000 38 46 54
272.000 255.000 230.000 38 46 55
273.000 254.000 230.000 39 47 55
273.000 254.000 231.000 39 47 56
273.000 255.000 230.000 40 48 56
273.000 255.000 231.000 41 49 58
260.000 256.000 200.000 38 45 53
260.000 256.000 201.000 39 46 54
260.000 257.000 200.000 38 45 52
260.000 257.000 201.000 38 45 53
260.000 257.000 202.000 39 45 53
260.000 258.000 200.000 39 45 53
260.000 258.000 201.000 38 45 53
261.000 258.000 200.000 39 46 53
261.000 258.000 201.000 39 45 53
261.000 259.000 200.000 39 45 52
261.000 259.000 201.000 38 45 52
260.000 258.000 202.000 38 45 53
260.000 258.000 203.000 39 46 53
261.000 258.000 202.000 39 46 53
261.000 258.000 203.000 40 46 54
261.000 259.000 202.000 39 46 53
261.000 259.000 203.000 40 46 54
261.000 256.000 204.000 44 51 58
261.000 256.000 205.000 46 52 59
261.000 257.000 204.000 43 50 57
261.000 257.000 205.000 45 51 58
261.000 256.000 206.000 46 51 59
261.000 256.000 207.000 44 50 57
261.000 257.000 206.000 46 52 59
261.000 257.000 207.000 47 52 59
260.000 258.000 204.000 41 47 54
261.000 258.000 204.000 43 49 56
261.000 258.000 205.000 45 51 58
261.000 259.000 204.000 41 47 54
261.000 259.000 205.000 44 50 57
261.000 258.000 206.000 46 52 59
261.000 258.000 207.000 47 52 59
261.000 259.000 206.000 47 52 59
261.000 259.000 207.000 48 53 60
262.000 256.000 207.000 45 50 57
262.000 257.000 207.000 45 51 58
261.000 260.000 200.000 40 46 53
261.000 260.000 201.000 40 46 53
261.000 261.000 200.000 40 46 53
261.000 261.000 201.000 41 47 54
261.000 260.000 202.000 39 46 53
261.000 260.000 203.000 39 46 53
261.000 261.000 202.000 40 47 54
261.000 261.000 203.000 41 48 55
261.000 262.000 200.000 40 45 52
261.000 262.000 201.000 39 45 52
261.000 263.000 200.000 39 45 52
261.000 263.000 201.000 39 45 53
261.000 262.000 202.000 40 46 53
261.000 262.000 203.000 40 47 55
261.000 263.000 202.000 39 46 54
261.000 263.000 203.000 38 46 54
261.000 260.000 204.000 41 48 55
261.000 260.000 205.000 45 51 58
261.000 261.000 204.000 42 48 56
261.000 261.000 205.000 45 51 58
260.000 260.000 206.000 46 52 58
261.000 260.000 206.000 46 51 58
261.000 260.000 207.000 48 53 59
261.000 261.000 206.000 47 53 59
261.000 261.000 207.000 48 53 59
261.000 262.000 204.000 41 48 56
261.000 262.000 205.000 43 49 56
261.000 263.000 204.000 39 47 55
261.000 263.000 205.000 43 49 57
261.000 262.000 206.000 45 51 58
261.000 262.000 207.000 47 52 58
261.000 263.000 206.000 45 51 58
261.000 263.000 207.000 47 52 58
259.000 270.000 201.000 40 46 53
259.000 271.000 201.000 38 45 52
259.000 271.000 202.000 39 45 52
260.000 264.000 201.000 38 45 52
260.000 265.000 200.000 39 45 53
260.000 265.000 201.000 39 46 53
261.000 264.000 200.000 38 45 52
261.000 264.000 201.000 39 46 53
261.000 265.000 201.000 39 45 53
260.000 265.000 202.000 40 46 53
261.000 264.000 202.000 39 46 54
261.000 264.000 203.000 39 46 54
261.000 265.000 202.000 39 46 53
261.000 265.000 203.000 38 46 54
260.000 266.000 201.000 39 46 53
260.000 267.000 201.000 41 47 54
260.000 266.000 202.000 40 47 54
260.000 266.000 203.000 40 47 55
260.000 267.000 202.000 40 47 54
260.000 267.000 203.000 40 47 55
261.000 264.000 204.000 38 45 54
261.000 264.000 205.000 41 48 55
261.000 265.000 204.000 38 46 54
261.000 265.000 205.000 40 47 55
261.000 264.000 206.000 45 51 58
261.000 264.000 207.000 47 52 58
261.000 265.000 206.000 44 50 57
261.000 265.000 207.000 46 51 57
260.000 266.000 204.000 39 47 55
260.000 266.000 205.000 39 47 55
260.000 267.000 204.000 38 46 55
260.000 267.000 205.000 39 47 56
261.000 266.000 204.000 39 47 55
261.000 266.000 205.000 40 48 56
260.000 266.000 206.000 43 49 57
260.000 266.000 207.000 46 51 58
260.000 267.000 206.000 43 49 56
260.000 267.000 207.000 46 51 58
261.000 266.000 206.000 44 50 57
261.000 266.000 207.000 47 52 58
260.000 268.000 201.000 40 47 54
260.000 269.000 201.000 41 47 54
260.000 268.000 202.000 40 47 54
260.000 268.000 203.000 40 47 55
260.000 269.000 202.000 41 47 54
260.000 269.000 203.000 40 47 54
260.000 270.000 201.000 41 47 54
260.000 270.000 202.000 41 47 54
260.000 270.000 203.000 42 48 55
260.000 271.000 202.000 40 46 53
260.000 271.000 203.000 41 48 55
260.000 268.000 204.000 39 47 55
260.000 268.000 205.000 38 46 55
260.000 269.000 204.000 40 47 55
260.000 269.000 205.000 40 47 56
260.000 268.000 206.000 41 48 55
260.000 268.000 207.000 45 51 58
260.000 269.000 206.000 43 49 56
260.000 269.000 207.000 44 50 57
260.000 270.000 204.000 42 48 56
260.000 270.000 205.000 41 48 55
260.000 271.000 204.000 41 48 56
260.000 271.000 205.000 41 48 55
260.000 270.000 206.000 44 50 57
260.000 270.000 207.000 46 51 57
260.000 271.000 206.000 43 49 56
260.000 271.000 207.000 45 50 57
261.000 258.000 208.000 44 50 57
261.000 259.000 208.000 47 53 59
261.000 259.000 209.000 44 50 58
262.000 256.000 208.000 43 49 57
262.000 256.000 209.000 42 48 56
262.000 257.000 208.000 43 50 58
262.000 257.000 209.000 41 48 56
262.000 257.000 210.000 40 47 55
263.000 256.000 210.000 40 47 55
263.000 256.000 211.000 38 46 54
263.000 257.000 210.000 39 47 55
263.000 257.000 211.000 39 47 55
262.000 258.000 208.000 43 49 57
262.000 258.000 209.000 41 48 56
262.000 259.000 208.000 44 50 57
262.000 259.000 209.000 43 50 58
262.000 258.000 210.000 40 48 56
262.000 259.000 210.000 42 49 57
262.000 259.000 211.000 42 49 58
263.000 258.000 210.000 40 48 56
263.000 258.000 211.000 40 48 56
263.000 259.000 211.000 41 49 58
263.000 256.000 212.000 37 45 54
263.000 257.000 212.000 38 46 55
263.000 258.000 212.000 38 47 56
263.000 258.000 213.000 37 46 55
263.000 259.000 212.000 39 48 57
263.000 259.000 213.000 38 46 55
263.000 259.000 214.000 37 46 55
261.000 260.000 208.000 46 51 58
261.000 260.000 209.000 42 49 56
261.000 261.000 208.000 46 51 58
261.000 261.000 209.000 43 49 56
261.000 262.000 208.000 44 50 57
261.000 262.000 209.000 42 48 55
261.000 263.000 208.000 45 51 57
261.000 263.000 209.000 42 49 56
262.000 260.000 209.000 41 48 56
262.000 261.000 209.000 42 48 56
262.000 260.000 210.000 41 48 56
262.000 260.000 211.000 41 49 57
262.000 261.000 210.000 41 48 56
262.000 261.000 211.000 41 48 56
262.000 262.000 209.000 41 48 55
262.000 262.000 210.000 41 48 55
262.000 262.000 211.000 40 47 56
262.000 263.000 210.000 41 48 56
262.000 263.000 211.000 41 48 56
262.000 260.000 212.000 40 48 56
262.000 261.000 212.000 40 48 56
263.000 260.000 212.000 40 48 56
263.000 260.000 213.000 38 47 55
263.000 261.000 212.000 39 47 56
263.000 261.000 213.000 39 47 56
263.000 260.000 214.000 37 46 55
263.000 261.000 214.000 40 48 56
263.000 261.000 215.000 40 48 56
262.000 262.000 212.000 40 48 56
262.000 263.000 212.000 40 48 57
262.000 263.000 213.000 40 47 56
263.000 262.000 212.000 40 48 56
263.000 262.000 213.000 40 48 56
263.000 263.000 213.000 40 48 56
263.000 262.000 214.000 40 48 56
263.000 262.000 215.000 40 48 56
263.000 263.000 214.000 40 48 56
263.000 263.000 215.000 40 48 56
263.000 263.000 216.000 41 48 57
261.000 264.000 208.000 47 52 59
261.000 264.000 209.000 44 50 57
261.000 265.000 208.000 46 51 58
261.000 265.000 209.000 45 51 58
261.000 264.000 210.000 42 49 57
261.000 265.000 210.000 45 51 59
260.000 267.000 208.000 47 52 58
261.000 266.000 208.000 47 52 59
261.000 266.000 209.000 46 52 59
261.000 267.000 208.000 46 51 58
261.000 267.000 209.000 44 50 57
261.000 266.000 210.000 46 52 59
261.000 266.000 211.000 44 51 58
261.000 267.000 210.000 42 48 56
261.000 267.000 211.000 42 49 56
262.000 264.000 210.000 40 48 56
262.000 264.000 211.000 39 47 56
262.000 265.000 210.000 42 50 57
262.000 265.000 211.000 43 51 59
262.000 266.000 211.000 45 52 60
262.000 267.000 211.000 42 49 57
262.000 264.000 212.000 40 48 56
262.000 264.000 213.000 39 47 55
262.000 265.000 212.000 42 49 57
262.000 265.000 213.000 40 47 56
263.000 264.000 213.000 39 47 55
263.000 264.000 214.000 39 47 55
263.000 264.000 215.000 40 48 56
263.000 265.000 214.000 40 47 56
263.000 265.000 215.000 41 48 56
262.000 266.000 212.000 43 50 58
262.000 266.000 213.000 41 48 57
262.000 267.000 212.000 41 48 56
262.000 267.000 213.000 40 48 56
262.000 266.000 214.000 42 49 57
262.000 267.000 214.000 39 47 55
263.000 266.000 214.000 41 48 56
263.000 266.000 215.000 40 47 56
263.000 267.000 214.000 40 47 56
263.000 267.000 215.000 38 46 54
260.000 268.000 208.000 46 52 58
260.000 268.000 209.000 45 50 57
260.000 269.000 208.000 46 51 58
260.000 269.000 209.000 46 51 58
261.000 268.000 209.000 43 49 56
261.000 269.000 209.000 42 47 54
261.000 268.000 210.000 41 47 54
261.000 268.000 211.000 40 47 54
261.000 269.000 210.000 41 47 53
261.000 269.000 211.000 40 46 53
260.000 270.000 208.000 48 52 59
260.000 270.000 209.000 46 51 58
260.000 271.000 208.000 46 51 57
260.000 271.000 209.000 44 49 55
260.000 270.000 210.000 42 47 54
260.000 271.000 210.000 40 46 52
261.000 270.000 210.000 41 46 53
261.000 270.000 211.000 38 44 51
261.000 271.000 211.000 38 44 50
261.000 268.000 212.000 40 47 55
261.000 269.000 212.000 39 45 53
261.000 270.000 212.000 37 44 51
261.000 270.000 213.000 36 44 51
261.000 271.000 212.000 38 44 51
261.000 271.000 213.000 37 44 52
262.000 268.000 212.000 39 47 55
262.000 268.000 213.000 39 47 55
262.000 269.000 212.000 39 46 54
262.000 269.000 213.000 37 45 53
262.000 268.000 214.000 37 45 53
262.000 269.000 214.000 35 43 52
263.000 268.000 215.000 36 44 52
263.000 269.000 215.000 35 43 52
262.000 270.000 213.000 36 43 51
262.000 271.000 213.000 37 44 52
262.000 270.000 214.000 35 43 52
262.000 271.000 214.000 36 44 52
263.000 270.000 215.000 36 44 52
263.000 271.000 215.000 36 44 52
263.000 264.000 216.000 40 48 56
263.000 265.000 216.000 40 48 56
263.000 266.000 216.000 39 46 55
263.000 267.000 216.000 36 44 53
263.000 268.000 216.000 36 44 52
263.000 269.000 216.000 37 44 53
263.000 270.000 216.000 37 45 53
263.000 271.000 216.000 37 45 54
264.000 256.000 212.000 37 45 54
264.000 256.000 213.000 37 45 53
264.000 257.000 212.000 37 46 54
264.000 257.000 213.000 37 45 54
264.000 256.000 214.000 37 45 53
264.000 257.000 214.000 37 45 53
264.000 257.000 215.000 37 45 53
265.000 256.000 214.000 37 45 52
265.000 256.000 215.000 36 44 52
265.000 257.000 215.000 36 44 52
264.000 258.000 213.000 37 45 54
264.000 258.000 214.000 36 45 53
264.000 258.000 215.000 36 44 53
264.000 259.000 214.000 37 45 54
264.000 259.000 215.000 38 45 54
265.000 258.000 215.000 37 45 53
265.000 259.000 215.000 37 45 53
264.000 260.000 214.000 38 46 54
264.000 260.000 215.000 39 46 55
264.000 261.000 215.000 40 48 56
264.000 262.000 215.000 40 47 55
265.000 256.000 216.000 36 44 52
265.000 257.000 216.000 37 44 52
265.000 258.000 216.000 37 45 53
265.000 258.000 217.000 37 45 53
265.000 259.000 216.000 39 46 54
265.000 259.000 217.000 39 47 55
265.000 259.000 218.000 39 47 56
266.000 256.000 216.000 36 44 52
266.000 256.000 217.000 34 43 51
266.000 257.000 217.000 36 44 52
266.000 256.000 218.000 34 43 51
266.000 257.000 218.000 35 43 52
266.000 257.000 219.000 36 44 52
267.000 256.000 218.000 34 42 50
267.000 256.000 219.000 35 43 51
267.000 257.000 219.000 37 45 52
266.000 258.000 217.000 37 45 53
266.000 258.000 218.000 36 45 53
266.000 258.000 219.000 37 45 53
266.000 259.000 218.000 38 47 55
266.000 259.000 219.000 38 47 55
267.000 258.000 219.000 38 45 53
267.000 256.000 220.000 36 44 51
267.000 257.000 220.000 38 45 53
267.000 257.000 221.000 38 45 53
267.000 257.000 222.000 38 46 53
266.000 259.000 220.000 40 48 56
267.000 258.000 220.000 38 46 53
267.000 258.000 221.000 39 46 54
267.000 259.000 220.000 39 47 55
267.000 259.000 221.000 39 47 55
267.000 258.000 222.000 40 48 55
267.000 259.000 222.000 41 49 57
264.000 260.000 216.000 40 47 56
264.000 261.000 216.000 40 48 57
265.000 260.000 216.000 40 48 56
265.000 260.000 217.000 40 48 57
265.000 261.000 216.000 40 48 57
265.000 261.000 217.000 41 49 58
265.000 260.000 218.000 39 48 57
265.000 261.000 218.000 41 49 59
264.000 262.000 216.000 41 49 57
264.000 262.000 217.000 42 50 59
264.000 263.000 216.000 41 49 57
264.000 263.000 217.000 41 49 58
265.000 262.000 217.000 41 50 59
265.000 262.000 218.000 41 50 60
265.000 262.000 219.000 41 50 59
265.000 263.000 218.000 41 49 58
265.000 263.000 219.000 40 49 58
266.000 260.000 218.000 39 48 56
266.000 260.000 219.000 40 48 57
266.000 261.000 219.000 41 49 58
266.000 262.000 219.000 42 50 59
266.000 263.000 219.000 40 49 58
266.000 260.000 220.000 41 49 57
266.000 261.000 220.000 42 50 59
267.000 260.000 221.000 42 49 58
267.000 261.000 221.000 42 50 59
267.000 260.000 222.000 42 50 58
267.000 261.000 222.000 43 51 60
266.000 262.000 220.000 43 51 60
266.000 263.000 220.000 41 50 59
266.000 263.000 221.000 43 52 61
267.000 262.000 221.000 44 52 61
267.000 263.000 221.000 44 52 62
267.000 262.000 222.000 45 53 63
267.000 263.000 222.000 45 54 64
268.000 256.000 220.000 36 44 52
268.000 256.000 221.000 36 44 52
268.000 256.000 222.000 37 45 52
268.000 256.000 223.000 38 45 53
268.000 257.000 222.000 38 45 53
268.000 257.000 223.000 39 46 54
269.000 256.000 223.000 39 46 53
268.000 258.000 222.000 41 48 56
268.000 258.000 223.000 41 48 56
268.000 259.000 223.000 42 49 58
268.000 260.000 223.000 42 50 59
268.000 261.000 223.000 44 53 62
268.000 262.000 223.000 45 54 64
268.000 263.000 223.000 46 55 65
264.000 264.000 216.000 39 47 56
264.000 264.000 217.000 38 47 56
264.000 265.000 216.000 39 47 56
264.000 265.000 217.000 38 46 55
264.000 265.000 218.000 38 46 54
265.000 264.000 218.000 38 47 56
265.000 264.000 219.000 39 47 56
265.000 265.000 218.000 38 46 54
265.000 265.000 219.000 38 46 55
264.000 266.000 217.000 38 46 54
264.000 267.000 217.000 36 44 53
264.000 266.000 218.000 38 46 54
264.000 267.000 218.000 38 46 54
265.000 266.000 218.000 38 46 55
265.000 266.000 219.000 40 47 55
265.000 267.000 219.000 41 48 56
266.000 264.000 219.000 39 47 56
266.000 264.000 220.000 39 48 57
266.000 264.000 221.000 41 50 59
266.000 265.000 220.000 40 48 57
266.000 265.000 221.000 42 50 59
267.000 264.000 221.000 43 52 61
267.000 265.000 221.000 42 51 60
267.000 264.000 222.000 44 53 62
267.000 265.000 222.000 44 53 63
266.000 266.000 220.000 41 49 57
266.000 266.000 221.000 42 51 59
266.000 267.000 220.000 42 50 59
266.000 267.000 221.000 43 52 61
267.000 266.000 221.000 43 51 61
267.000 267.000 221.000 43 52 62
267.000 266.000 222.000 44 53 63
267.000 267.000 222.000 43 53 63
264.000 268.000 217.000 37 45 53
264.000 269.000 217.000 38 46 54
264.000 268.000 218.000 39 47 55
264.000 269.000 218.000 38 46 55
265.000 268.000 219.000 42 49 57
265.000 269.000 218.000 39 47 56
265.000 269.000 219.000 41 49 57
264.000 270.000 217.000 39 47 55
264.000 271.000 217.000 39 47 56
264.000 270.000 218.000 40 48 57
264.000 271.000 218.000 41 49 58
265.000 270.000 218.000 40 49 58
265.000 270.000 219.000 42 51 60
265.000 271.000 218.000 42 51 60
265.000 271.000 219.000 45 54 63
266.000 269.000 219.000 43 52 60
266.000 270.000 219.000 44 53 63
266.000 271.000 219.000 45 55 65
266.000 268.000 220.000 44 52 61
266.000 268.000 221.000 45 54 63
266.000 269.000 220.000 45 54 63
266.000 269.000 221.000 45 55 65
267.000 268.000 221.000 44 54 64
267.000 269.000 221.000 46 56 66
267.000 268.000 222.000 44 54 65
267.000 269.000 222.000 46 57 68
266.000 270.000 220.000 46 55 65
266.000 271.000 220.000 46 56 67
267.000 270.000 221.000 46 57 68
267.000 271.000 221.000 45 57 68
267.000 270.000 222.000 47 58 69
267.000 271.000 222.000 46 57 69
268.000 264.000 223.000 46 55 66
268.000 265.000 223.000 46 56 66
268.000 266.000 222.000 44 54 65
268.000 266.000 223.000 45 56 67
268.000 267.000 222.000 43 54 65
268.000 267.000 223.000 45 56 67
268.000 268.000 222.000 45 56 67
268.000 268.000 223.000 46 57 68
268.000 269.000 222.000 46 57 69
268.000 269.000 223.000 47 58 70
269.000 269.000 223.000 47 59 70
268.000 270.000 222.000 48 59 70
268.000 270.000 223.000 49 60 71
268.000 271.000 222.000 47 58 70
268.000 271.000 223.000 48 59 71
269.000 270.000 223.000 48 60 71
269.000 271.000 223.000 47 59 71
259.000 272.000 201.000 38 44 51
259.000 273.000 201.000 39 46 53
259.000 272.000 202.000 38 45 52
259.000 273.000 202.000 39 46 53
259.000 273.000 203.000 39 46 54
258.000 274.000 201.000 39 46 53
258.000 275.000 201.000 39 46 53
259.000 274.000 201.000 39 46 53
258.000 275.000 202.000 38 45 53
259.000 274.000 202.000 40 46 54
259.000 274.000 203.000 39 46 54
259.000 275.000 202.000 40 47 54
259.000 275.000 203.000 40 47 55
259.000 274.000 204.000 38 45 53
259.000 274.000 205.000 38 46 53
259.000 275.000 204.000 39 46 54
259.000 275.000 205.000 39 46 54
259.000 275.000 206.000 42 49 56
257.000 277.000 201.000 37 44 52
256.000 279.000 201.000 41 47 55
257.000 278.000 201.000 39 45 53
257.000 279.000 201.000 40 47 54
257.000 278.000 202.000 38 45 53
257.000 278.000 203.000 37 44 52
257.000 279.000 202.000 40 46 54
257.000 279.000 203.000 38 46 53
258.000 276.000 201.000 39 45 53
258.000 277.000 201.000 38 45 52
258.000 276.000 202.000 39 46 54
258.000 276.000 203.000 38 45 53
258.000 277.000 202.000 38 45 53
258.000 277.000 203.000 38 46 53
259.000 276.000 203.000 39 46 54
258.000 278.000 202.000 37 44 51
258.000 278.000 203.000 37 45 52
258.000 277.000 204.000 38 46 54
259.000 276.000 204.000 39 47 55
259.000 276.000 205.000 39 46 54
259.000 277.000 204.000 39 46 54
259.000 277.000 205.000 38 46 54
259.000 276.000 206.000 42 49 56
259.000 276.000 207.000 44 50 57
259.000 277.000 206.000 40 47 55
259.000 277.000 207.000 43 49 56
258.000 278.000 204.000 37 44 53
258.000 278.000 205.000 34 42 51
258.000 279.000 204.000 37 45 53
258.000 279.000 205.000 36 44 52
259.000 278.000 205.000 35 43 52
258.000 279.000 206.000 36 44 53
259.000 278.000 206.000 39 46 54
259.000 278.000 207.000 43 49 57
259.000 279.000 206.000 37 45 54
259.000 279.000 207.000 42 49 57
260.000 272.000 202.000 38 45 52
260.000 272.000 203.000 39 46 54
260.000 273.000 203.000 39 46 53
260.000 272.000 204.000 40 47 55
260.000 272.000 205.000 40 47 55
260.000 273.000 204.000 39 47 54
260.000 273.000 205.000 40 47 54
260.000 272.000 206.000 42 49 56
260.000 272.000 207.000 44 50 56
260.000 273.000 206.000 43 49 56
260.000 273.000 207.000 44 50 56
260.000 274.000 204.000 38 45 53
260.000 274.000 205.000 39 46 53
260.000 274.000 206.000 42 49 56
260.000 274.000 207.000 45 50 57
260.000 275.000 206.000 43 49 56
260.000 275.000 207.000 45 51 58
260.000 276.000 207.000 45 51 58
256.000 280.000 201.000 40 47 54
256.000 281.000 201.000 40 46 54
256.000 280.000 202.000 40 47 54
256.000 281.000 202.000 40 47 54
256.000 281.000 203.000 40 47 54
257.000 280.000 202.000 40 46 54
257.000 280.000 203.000 39 47 54
257.000 281.000 203.000 40 47 54
256.000 282.000 201.000 39 46 53
256.000 283.000 201.000 38 45 53
256.000 282.000 202.000 40 46 53
256.000 282.000 203.000 40 46 54
256.000 283.000 202.000 39 45 53
256.000 283.000 203.000 39 45 53
257.000 280.000 204.000 38 45 53
257.000 281.000 204.000 39 46 54
257.000 281.000 205.000 38 46 54
256.000 283.000 204.000 39 46 53
257.000 282.000 204.000 39 46 54
257.000 282.000 205.000 38 46 54
257.000 283.000 204.000 38 45 53
257.000 283.000 205.000 37 45 53
257.000 282.000 206.000 37 44 52
257.000 283.000 206.000 36 44 52
257.000 283.000 207.000 39 46 54
258.000 280.000 204.000 37 45 53
258.000 280.000 205.000 37 45 53
258.000 281.000 205.000 38 46 53
258.000 280.000 206.000 38 46 54
258.000 280.000 207.000 41 49 56
258.000 281.000 206.000 38 46 53
258.000 281.000 207.000 42 49 57
259.000 280.000 207.000 42 49 57
258.000 282.000 206.000 38 45 53
258.000 282.000 207.000 42 49 56
258.000 283.000 207.000 42 48 56
256.000 284.000 202.000 39 45 53
256.000 284.000 203.000 39 46 53
256.000 284.000 204.000 40 47 54
256.000 284.000 205.000 39 46 54
257.000 284.000 205.000 37 45 54
257.000 284.000 206.000 37 45 54
257.000 284.000 207.000 38 45 53
259.000 277.000 208.000 45 50 57
259.000 278.000 208.000 45 51 57
259.000 279.000 208.000 45 51 58
259.000 279.000 209.000 47 52 58
260.000 272.000 208.000 46 51 57
260.000 272.000 209.000 44 49 55
260.000 273.000 208.000 46 51 57
260.000 273.000 209.000 46 51 57
260.000 272.000 210.000 41 46 53
260.000 272.000 211.000 39 45 51
260.000 273.000 210.000 42 48 54
260.000 273.000 211.000 40 46 52
261.000 272.000 211.000 39 44 51
260.000 274.000 208.000 46 51 57
260.000 274.000 209.000 45 50 56
260.000 275.000 208.000 46 51 58
260.000 275.000 209.000 46 51 57
260.000 274.000 210.000 42 48 55
260.000 274.000 211.000 40 46 53
260.000 275.000 210.000 43 48 55
260.000 275.000 211.000 40 46 53
261.000 272.000 212.000 40 46 52
261.000 272.000 213.000 38 45 52
261.000 273.000 212.000 41 46 52
261.000 273.000 213.000 39 45 52
260.000 275.000 212.000 40 46 53
261.000 274.000 212.000 40 46 53
261.000 274.000 213.000 39 46 53
261.000 275.000 212.000 40 46 53
261.000 275.000 213.000 40 47 55
262.000 273.000 213.000 37 45 53
262.000 272.000 214.000 37 44 52
262.000 273.000 214.000 38 45 53
263.000 272.000 215.000 37 45 53
263.000 273.000 215.000 39 47 55
262.000 274.000 213.000 38 46 54
262.000 275.000 213.000 40 48 56
262.000 274.000 214.000 38 46 54
262.000 275.000 214.000 40 48 56
262.000 275.000 215.000 41 49 57
263.000 274.000 215.000 39 47 56
263.000 275.000 215.000 41 48 57
260.000 276.000 208.000 45 51 57
260.000 276.000 209.000 46 51 57
260.000 277.000 208.000 46 51 58
260.000 277.000 209.000 47 52 58
260.000 276.000 210.000 44 49 56
260.000 276.000 211.000 42 48 55
260.000 277.000 210.000 45 50 57
260.000 277.000 211.000 45 50 57
260.000 278.000 208.000 45 51 57
260.000 278.000 209.000 46 51 57
260.000 279.000 209.000 47 52 58
260.000 278.000 210.000 43 49 56
260.000 278.000 211.000 43 49 56
260.000 279.000 210.000 45 50 57
260.000 279.000 211.000 42 49 56
260.000 276.000 212.000 42 48 55
260.000 277.000 212.000 43 50 57
261.000 276.000 212.000 42 48 56
261.000 276.000 213.000 42 49 57
261.000 277.000 212.000 43 50 58
261.000 277.000 213.000 43 51 59
260.000 278.000 212.000 42 49 56
260.000 279.000 212.000 42 49 58
261.000 278.000 212.000 42 50 58
261.000 278.000 213.000 42 51 60
261.000 279.000 212.000 42 50 59
261.000 279.000 213.000 43 51 61
262.000 276.000 214.000 41 49 58
262.000 276.000 215.000 42 50 59
262.000 277.000 214.000 41 49 59
262.000 277.000 215.000 40 49 58
263.000 276.000 215.000 43 51 59
263.000 277.000 215.000 40 49 58
262.000 278.000 214.000 41 50 60
262.000 278.000 215.000 41 50 59
262.000 279.000 214.000 42 51 60
262.000 279.000 215.000 41 50 59
263.000 278.000 215.000 40 49 59
263.000 279.000 215.000 41 50 59
263.000 272.000 216.000 39 47 55
263.000 273.000 216.000 40 48 57
263.000 274.000 216.000 40 48 57
263.000 275.000 216.000 41 50 59
263.000 276.000 216.000 43 51 60
263.000 277.000 216.000 40 49 58
263.000 278.000 216.000 41 49 59
263.000 279.000 216.000 41 50 59
258.000 281.000 208.000 45 51 59
259.000 280.000 208.000 46 51 58
259.000 280.000 209.000 47 52 58
259.000 281.000 208.000 47 52 59
259.000 281.000 209.000 48 53 59
259.000 280.000 210.000 47 51 57
259.000 281.000 210.000 46 51 57
258.000 282.000 208.000 46 51 58
258.000 283.000 208.000 44 50 56
258.000 283.000 209.000 45 50 56
259.000 282.000 208.000 47 52 59
259.000 282.000 209.000 47 51 57
259.000 283.000 209.000 44 49 55
259.000 282.000 210.000 45 50 56
259.000 282.000 211.000 41 47 53
259.000 283.000 210.000 42 47 53
259.000 283.000 211.000 40 46 53
258.000 284.000 208.000 45 50 57
258.000 284.000 209.000 46 51 57
259.000 284.000 210.000 43 49 55
259.000 284.000 211.000 41 48 55
260.000 280.000 210.000 45 50 57
260.000 280.000 211.000 42 48 55
260.000 281.000 210.000 45 50 57
260.000 281.000 211.000 42 48 55
260.000 282.000 211.000 41 47 55
260.000 283.000 211.000 38 45 53
260.000 280.000 212.000 41 49 57
260.000 281.000 212.000 40 47 55
261.000 280.000 212.000 42 50 59
261.000 280.000 213.000 43 51 60
261.000 281.000 212.000 41 49 57
261.000 281.000 213.000 41 49 58
260.000 282.000 212.000 41 48 55
260.000 283.000 212.000 40 47 55
261.000 282.000 213.000 40 48 56
261.000 283.000 213.000 41 48 56
261.000 282.000 214.000 40 48 56
261.000 283.000 214.000 41 48 57
262.000 280.000 214.000 43 51 60
262.000 280.000 215.000 40 49 58
262.000 281.000 214.000 41 49 58
262.000 281.000 215.000 39 48 57
263.000 280.000 215.000 39 48 57
263.000 281.000 215.000 39 47 56
262.000 282.000 214.000 39 47 56
262.000 282.000 215.000 38 47 55
262.000 283.000 214.000 39 47 56
262.000 283.000 215.000 38 47 55
263.000 282.000 215.000 37 46 55
263.000 283.000 215.000 38 46 55
260.000 284.000 212.000 40 47 55
263.000 280.000 216.000 39 48 57
263.000 281.000 216.000 39 47 56
263.000 282.000 216.000 38 46 55
264.000 272.000 217.000 41 49 58
264.000 273.000 216.000 40 49 58
264.000 273.000 217.000 41 50 59
265.000 273.000 217.000 43 53 63
265.000 272.000 218.000 44 53 62
265.000 272.000 219.000 46 55 65
265.000 273.000 218.000 44 54 64
265.000 273.000 219.000 45 55 65
264.000 274.000 216.000 40 49 59
264.000 274.000 217.000 41 51 61
264.000 275.000 216.000 42 51 60
264.000 275.000 217.000 43 52 62
265.000 274.000 217.000 43 53 63
265.000 275.000 217.000 45 54 65
265.000 274.000 218.000 44 54 65
265.000 275.000 218.000 45 55 66
266.000 272.000 219.000 46 56 66
266.000 273.000 219.000 46 56 66
266.000 274.000 219.000 45 56 66
266.000 275.000 219.000 46 56 67
266.000 272.000 220.000 47 57 67
266.000 273.000 220.000 46 56 67
267.000 272.000 220.000 46 57 68
267.000 272.000 221.000 46 58 69
267.000 273.000 220.000 46 56 68
267.000 273.000 221.000 45 57 68
267.000 272.000 222.000 46 58 69
266.000 274.000 220.000 46 56 67
266.000 275.000 220.000 46 56 67
267.000 274.000 220.000 46 57 68
267.000 274.000 221.000 46 57 69
267.000 275.000 220.000 46 56 67
264.000 276.000 216.000 42 51 61
264.000 276.000 217.000 42 52 61
264.000 277.000 216.000 41 50 59
264.000 277.000 217.000 41 50 60
265.000 276.000 217.000 44 53 63
265.000 277.000 217.000 42 52 62
265.000 276.000 218.000 44 54 64
265.000 277.000 218.000 43 53 63
264.000 278.000 216.000 41 49 59
264.000 278.000 217.000 42 50 60
264.000 279.000 216.000 41 50 59
264.000 279.000 217.000 42 50 59
265.000 278.000 217.000 43 52 61
265.000 279.000 217.000 42 51 60
265.000 278.000 218.000 43 53 62
265.000 279.000 218.000 43 51 61
266.000 276.000 218.000 44 54 65
266.000 276.000 219.000 45 56 67
266.000 277.000 218.000 43 54 64
266.000 277.000 219.000 45 55 66
266.000 278.000 218.000 44 53 63
266.000 278.000 219.000 45 55 66
266.000 279.000 218.000 44 53 62
266.000 279.000 219.000 45 54 64
267.000 279.000 219.000 48 57 67
267.000 276.000 220.000 45 56 67
267.000 277.000 220.000 45 56 67
267.000 278.000 220.000 46 57 67
267.000 279.000 220.000 47 57 67
268.000 273.000 221.000 46 57 68
268.000 272.000 222.000 46 58 69
268.000 272.000 223.000 47 59 70
268.000 273.000 222.000 46 57 69
268.000 273.000 223.000 46 58 70
269.000 272.000 223.000 47 59 71
269.000 273.000 223.000 47 59 71
268.000 274.000 221.000 46 57 69
268.000 275.000 221.000 46 57 68
268.000 274.000 222.000 45 57 69
268.000 275.000 222.000 45 57 68
269.000 274.000 222.000 45 57 69
269.000 274.000 223.000 45 58 70
269.000 275.000 222.000 45 57 69
269.000 275.000 223.000 45 57 69
270.000 274.000 223.000 46 59 71
270.000 275.000 223.000 45 58 70
268.000 276.000 220.000 46 57 68
268.000 276.000 221.000 45 57 68
268.000 277.000 220.000 46 57 68
268.000 277.000 221.000 45 57 68
269.000 276.000 222.000 44 56 68
269.000 276.000 223.000 45 57 69
269.000 277.000 222.000 44 56 68
268.000 278.000 220.000 47 57 68
268.000 278.000 221.000 46 57 69
268.000 279.000 220.000 48 58 69
268.000 279.000 221.000 47 57 68
269.000 278.000 221.000 46 57 69
269.000 279.000 221.000 45 56 68
269.000 278.000 222.000 46 57 69
269.000 279.000 222.000 46 57 68
270.000 276.000 223.000 45 58 70
270.000 277.000 223.000 43 56 68
270.000 278.000 223.000 46 58 69
270.000 279.000 222.000 47 57 68
270.000 279.000 223.000 48 59 71
271.000 278.000 223.000 46 58 71
271.000 279.000 223.000 49 60 72
264.000 280.000 216.000 40 48 57
264.000 280.000 217.000 40 48 57
264.000 281.000 216.000 39 48 56
264.000 281.000 217.000 40 48 56
265.000 280.000 217.000 40 48 57
265.000 281.000 217.000 40 48 56
265.000 280.000 218.000 40 49 58
265.000 281.000 218.000 41 49 58
264.000 282.000 216.000 38 47 55
264.000 282.000 217.000 39 47 55
264.000 283.000 216.000 38 46 55
264.000 283.000 217.000 39 47 55
265.000 282.000 217.000 39 47 56
265.000 283.000 217.000 39 47 56
265.000 282.000 218.000 40 49 58
265.000 283.000 218.000 41 49 58
266.000 280.000 218.000 41 50 59
266.000 280.000 219.000 44 53 62
266.000 281.000 218.000 43 51 60
266.000 281.000 219.000 44 53 62
267.000 280.000 219.000 47 56 65
267.000 281.000 219.000 45 54 64
266.000 282.000 218.000 41 50 60
266.000 282.000 219.000 43 52 61
266.000 283.000 218.000 42 51 61
266.000 283.000 219.000 43 52 62
267.000 282.000 219.000 43 53 62
267.000 283.000 219.000 43 53 63
267.000 280.000 220.000 47 56 66
267.000 281.000 220.000 44 54 64
267.000 282.000 220.000 43 53 63
267.000 283.000 220.000 43 53 63
268.000 280.000 220.000 47 56 66
268.000 280.000 221.000 46 57 67
268.000 281.000 220.000 43 53 64
268.000 281.000 221.000 44 54 65
269.000 280.000 221.000 46 56 67
269.000 281.000 221.000 44 55 66
269.000 280.000 222.000 46 56 68
269.000 281.000 222.000 46 56 67
268.000 282.000 220.000 41 52 62
268.000 282.000 221.000 42 53 64
268.000 283.000 220.000 42 52 63
269.000 282.000 221.000 42 54 65
269.000 283.000 221.000 42 53 64
269.000 282.000 222.000 45 56 67
269.000 283.000 222.000 45 56 67
270.000 280.000 222.000 46 57 68
270.000 280.000 223.000 48 59 70
270.000 281.000 222.000 47 58 69
270.000 281.000 223.000 47 58 70
271.000 280.000 223.000 49 60 72
271.000 281.000 223.000 48 59 71
270.000 282.000 222.000 46 57 68
270.000 282.000 223.000 47 58 69
270.000 283.000 222.000 46 57 68
270.000 283.000 223.000 45 57 68
271.000 282.000 223.000 46 57 69
271.000 283.000 223.000 45 57 69
268.000 284.000 220.000 43 53 64
268.000 284.000 221.000 44 55 66
269.000 284.000 221.000 44 55 66
269.000 284.000 222.000 45 56 67
270.000 284.000 222.000 45 56 67
271.000 284.000 223.000 44 56 68
268.000 257.000 224.000 40 47 54
269.000 256.000 224.000 39 46 54
269.000 256.000 225.000 40 46 54
269.000 257.000 224.000 39 46 54
269.000 257.000 225.000 39 46 54
269.000 256.000 226.000 39 46 53
269.000 257.000 226.000 39 47 54
268.000 258.000 224.000 41 48 56
268.000 259.000 224.000 42 50 58
269.000 258.000 224.000 40 48 56
269.000 258.000 225.000 40 47 55
269.000 259.000 224.000 41 49 57
269.000 259.000 225.000 40 48 57
269.000 258.000 226.000 39 47 55
269.000 259.000 226.000 40 48 57
270.000 256.000 226.000 39 46 53
270.000 256.000 227.000 38 46 53
270.000 257.000 226.000 39 46 54
270.000 257.000 227.000 39 46 54
270.000 258.000 226.000 39 47 55
270.000 258.000 227.000 39 47 55
270.000 259.000 226.000 40 48 57
270.000 259.000 227.000 40 48 57
271.000 259.000 227.000 41 50 59
270.000 256.000 228.000 38 45 53
270.000 257.000 228.000 39 46 54
271.000 256.000 228.000 37 45 53
271.000 256.000 229.000 38 46 54
271.000 257.000 228.000 39 46 54
271.000 257.000 229.000 39 47 55
271.000 258.000 228.000 39 47 56
271.000 258.000 229.000 39 48 57
271.000 259.000 228.000 42 51 60
268.000 260.000 224.000 42 51 60
268.000 261.000 224.000 44 53 62
269.000 260.000 224.000 42 51 60
269.000 260.000 225.000 42 51 60
269.000 261.000 224.000 44 54 63
269.000 261.000 225.000 44 53 63
269.000 260.000 226.000 43 52 61
269.000 261.000 226.000 45 54 64
268.000 262.000 224.000 45 55 65
268.000 263.000 224.000 45 55 66
269.000 262.000 224.000 45 55 65
269.000 262.000 225.000 45 55 66
269.000 263.000 224.000 45 56 67
269.000 263.000 225.000 45 56 67
269.000 262.000 226.000 46 56 66
270.000 260.000 226.000 44 53 62
270.000 260.000 227.000 45 54 63
270.000 261.000 226.000 45 55 65
270.000 261.000 227.000 46 56 66
271.000 260.000 227.000 45 54 64
271.000 261.000 227.000 47 57 67
270.000 262.000 226.000 46 56 67
270.000 262.000 227.000 46 57 67
270.000 263.000 226.000 45 56 68
270.000 263.000 227.000 46 57 69
271.000 262.000 227.000 47 58 69
271.000 263.000 227.000 47 58 70
271.000 260.000 228.000 46 55 66
271.000 261.000 228.000 47 57 68
271.000 262.000 228.000 47 59 70
271.000 263.000 228.000 48 59 71
268.000 264.000 224.000 46 56 67
268.000 265.000 224.000 46 57 67
269.000 264.000 224.000 46 57 68
269.000 264.000 225.000 45 56 68
269.000 265.000 224.000 46 57 68
269.000 265.000 225.000 45 56 68
269.000 266.000 224.000 45 57 68
269.000 266.000 225.000 44 57 68
269.000 267.000 224.000 45 57 69
269.000 267.000 225.000 44 57 69
270.000 264.000 226.000 46 58 69
270.000 264.000 227.000 46 58 70
270.000 265.000 226.000 45 58 70
271.000 264.000 227.000 47 59 71
271.000 265.000 227.000 48 60 73
270.000 266.000 225.000 44 56 69
270.000 267.000 225.000 45 58 70
270.000 266.000 226.000 47 59 71
270.000 267.000 226.000 47 59 71
271.000 266.000 227.000 49 61 74
271.000 267.000 226.000 48 61 73
271.000 267.000 227.000 49 62 75
269.000 268.000 224.000 46 58 70
269.000 269.000 224.000 47 59 71
269.000 270.000 224.000 49 60 72
269.000 271.000 224.000 48 60 72
270.000 268.000 225.000 46 59 71
270.000 269.000 225.000 47 59 71
270.000 268.000 226.000 48 60 73
270.000 269.000 226.000 48 61 73
271.000 268.000 226.000 49 62 74
271.000 268.000 227.000 49 62 75
271.000 269.000 226.000 49 61 74
271.000 269.000 227.000 48 62 75
270.000 270.000 225.000 49 61 74
270.000 271.000 224.000 50 62 74
270.000 271.000 225.000 51 63 75
271.000 270.000 226.000 51 63 76
271.000 270.000 227.000 50 63 77
271.000 271.000 226.000 52 65 78
269.000 272.000 224.000 48 60 72
270.000 272.000 224.000 49 61 74
270.000 272.000 225.000 50 62 75
270.000 273.000 224.000 49 61 74
270.000 273.000 225.000 50 62 75
271.000 272.000 225.000 51 64 76
271.000 273.000 225.000 51 64 76
271.000 272.000 226.000 53 66 79
271.000 273.000 226.000 52 65 79
270.000 274.000 224.000 48 61 73
270.000 275.000 224.000 48 60 72
271.000 274.000 224.000 50 62 75
271.000 274.000 225.000 53 65 78
271.000 275.000 224.000 50 62 75
271.000 275.000 225.000 52 65 78
270.000 276.000 224.000 47 59 72
271.000 276.000 224.000 49 62 74
271.000 276.000 225.000 50 63 76
271.000 277.000 224.000 46 59 71
271.000 277.000 225.000 48 61 74
271.000 278.000 224.000 47 60 72
271.000 279.000 224.000 49 61 73
271.000 280.000 224.000 49 61 73
271.000 281.000 224.000 48 59 71
271.000 282.000 224.000 46 58 69
271.000 283.000 224.000 44 57 69
271.000 284.000 224.000 45 57 68
272.000 256.000 229.000 39 47 55
272.000 257.000 229.000 39 48 56
272.000 256.000 230.000 39 47 55
272.000 257.000 230.000 40 49 57
273.000 256.000 230.000 40 48 56
273.000 256.000 231.000 42 50 59
273.000 257.000 230.000 41 50 59
273.000 257.000 231.000 43 52 62
272.000 258.000 229.000 40 49 58
272.000 259.000 229.000 44 53 63
272.000 258.000 230.000 41 50 59
272.000 259.000 230.000 45 55 65
273.000 258.000 230.000 45 54 63
273.000 258.000 231.000 46 55 65
273.000 259.000 230.000 48 58 69
273.000 259.000 231.000 48 58 69
272.000 260.000 229.000 47 57 68
272.000 261.000 228.000 49 59 69
272.000 261.000 229.000 49 60 71
272.000 260.000 230.000 48 59 69
273.000 260.000 230.000 52 62 74
273.000 261.000 230.000 52 63 75
272.000 262.000 228.000 48 59 71
272.000 262.000 229.000 49 61 72
272.000 263.000 228.000 49 61 73
272.000 263.000 229.000 50 62 74
273.000 262.000 229.000 50 62 75
273.000 263.000 229.000 50 62 75
273.000 262.000 230.000 50 63 76
273.000 263.000 230.000 51 64 77
272.000 266.000 227.000 52 64 77
272.000 267.000 227.000 51 64 77
272.000 264.000 228.000 49 61 73
272.000 264.000 229.000 51 63 76
272.000 265.000 228.000 50 63 75
272.000 265.000 229.000 51 64 76
273.000 264.000 229.000 51 63 76
273.000 265.000 229.000 50 64 77
273.000 264.000 230.000 50 64 77
273.000 265.000 230.000 49 63 77
272.000 266.000 228.000 53 65 78
272.000 267.000 228.000 53 66 80
273.000 266.000 229.000 51 65 79
273.000 267.000 229.000 54 68 82
273.000 266.000 230.000 49 64 78
274.000 266.000 230.000 50 65 79
274.000 267.000 230.000 53 68 82
272.000 268.000 227.000 50 64 77
272.000 269.000 227.000 48 62 76
272.000 270.000 227.000 51 65 79
272.000 271.000 227.000 52 66 80
272.000 268.000 228.000 51 65 78
272.000 269.000 228.000 50 64 78
273.000 268.000 228.000 53 67 81
273.000 268.000 229.000 54 68 82
273.000 269.000 228.000 50 65 79
273.000 269.000 229.000 51 66 80
273.000 270.000 228.000 53 67 81
273.000 270.000 229.000 54 68 82
273.000 271.000 228.000 55 68 82
273.000 271.000 229.000 56 69 83
274.000 269.000 229.000 51 65 79
274.000 268.000 230.000 54 68 82
274.000 269.000 230.000 49 65 79
274.000 270.000 229.000 53 67 81
274.000 271.000 229.000 55 69 82
274.000 270.000 230.000 51 65 80
274.000 271.000 230.000 52 67 81
272.000 272.000 226.000 53 67 80
272.000 272.000 227.000 53 67 81
272.000 273.000 226.000 53 66 80
272.000 273.000 227.000 53 67 81
273.000 272.000 227.000 53 68 82
273.000 273.000 227.000 54 68 83
272.000 274.000 226.000 53 67 80
272.000 274.000 227.000 54 68 82
272.000 275.000 226.000 54 67 81
272.000 275.000 227.000 54 68 82
273.000 274.000 227.000 54 69 83
273.000 275.000 227.000 55 69 84
273.000 272.000 228.000 54 68 83
273.000 273.000 228.000 53 68 82
273.000 274.000 228.000 53 68 82
273.000 275.000 228.000 54 69 83
274.000 272.000 229.000 54 68 82
274.000 273.000 228.000 52 67 82
274.000 273.000 229.000 51 67 82
274.000 272.000 230.000 50 66 80
274.000 274.000 228.000 52 67 82
274.000 274.000 229.000 49 66 81
274.000 275.000 228.000 52 68 82
274.000 275.000 229.000 52 68 83
275.000 275.000 229.000 51 67 83
272.000 276.000 225.000 51 64 77
272.000 277.000 225.000 50 63 76
272.000 276.000 226.000 53 66 80
272.000 277.000 226.000 52 65 78
273.000 276.000 227.000 55 70 84
273.000 277.000 226.000 52 66 80
273.000 277.000 227.000 54 69 83
272.000 278.000 225.000 51 64 76
272.000 279.000 225.000 51 64 77
272.000 278.000 226.000 53 66 79
273.000 278.000 226.000 53 67 81
273.000 278.000 227.000 54 68 82
273.000 279.000 226.000 53 67 80
273.000 279.000 227.000 55 68 82
274.000 277.000 227.000 56 70 85
274.000 278.000 227.000 55 70 84
274.000 279.000 227.000 54 68 82
273.000 276.000 228.000 57 71 85
274.000 276.000 228.000 56 70 85
274.000 277.000 228.000 57 71 85
275.000 277.000 228.000 57 72 86
274.000 278.000 228.000 56 71 85
274.000 279.000 228.000 55 69 83
275.000 278.000 228.000 57 71 85
275.000 279.000 228.000 55 70 84
272.000 280.000 224.000 50 62 74
272.000 280.000 225.000 50 63 75
272.000 281.000 224.000 48 60 72
272.000 281.000 225.000 47 60 72
273.000 280.000 225.000 50 63 76
273.000 281.000 225.000 47 60 73
273.000 280.000 226.000 52 65 79
273.000 281.000 226.000 49 63 76
272.000 282.000 224.000 45 58 70
272.000 282.000 225.000 44 57 70
272.000 283.000 224.000 43 56 69
272.000 283.000 225.000 44 57 70
273.000 282.000 225.000 46 59 71
273.000 283.000 225.000 45 58 71
273.000 282.000 226.000 48 61 74
273.000 283.000 226.000 47 60 73
274.000 280.000 227.000 53 67 80
274.000 281.000 226.000 51 64 78
274.000 281.000 227.000 53 66 80
275.000 280.000 227.000 52 67 81
275.000 281.000 227.000 54 67 81
274.000 282.000 226.000 50 63 76
274.000 282.000 227.000 53 66 79
274.000 283.000 226.000 47 61 74
274.000 283.000 227.000 49 62 75
275.000 282.000 227.000 53 66 79
275.000 283.000 227.000 49 63 76
275.000 280.000 228.000 53 68 82
272.000 284.000 224.000 43 56 68
272.000 284.000 225.000 43 56 69
273.000 284.000 225.000 44 57 70
273.000 284.000 226.000 45 59 71
274.000 284.000 226.000 47 60 73
274.000 284.000 227.000 48 61 74
275.000 284.000 227.000 48 62 74
276.000 284.000 229.000 50 64 78
