ply
format ascii 1.0
element vertex 1243
property float x
property float y
property float z
property uchar red
property uchar green
property uchar blue
end_header
110.000 478.000 205.000 47 59 70
110.000 478.000 206.000 47 59 71
110.000 478.000 207.000 46 57 69
110.000 479.000 206.000 47 59 70
110.000 479.000 207.000 46 58 70
107.000 477.000 214.000 48 60 72
109.000 477.000 208.000 47 59 71
109.000 477.000 209.000 47 59 71
109.000 477.000 210.000 47 59 71
109.000 478.000 208.000 45 57 69
109.000 478.000 209.000 47 59 71
109.000 479.000 209.000 46 58 70
109.000 478.000 210.000 47 58 70
109.000 478.000 211.000 47 59 71
109.000 479.000 210.000 47 59 70
109.000 479.000 211.000 48 59 70
108.000 477.000 215.000 46 58 70
108.000 478.000 212.000 48 59 71
109.000 479.000 212.000 49 60 71
106.000 475.000 222.000 44 55 65
106.000 475.000 223.000 45 55 66
107.000 477.000 218.000 46 58 69
107.000 478.000 218.000 43 55 67
106.000 476.000 222.000 45 55 66
106.000 476.000 223.000 46 56 66
106.000 477.000 222.000 45 56 66
107.000 479.000 221.000 45 55 66
108.000 479.000 216.000 46 57 69
105.000 475.000 226.000 43 53 62
105.000 475.000 227.000 43 53 63
106.000 475.000 224.000 45 55 65
105.000 475.000 228.000 44 53 63
105.000 476.000 227.000 43 53 63
106.000 476.000 224.000 45 55 65
106.000 476.000 225.000 45 55 64
106.000 477.000 224.000 46 56 66
106.000 477.000 225.000 46 55 65
106.000 477.000 226.000 44 54 64
106.000 477.000 227.000 43 53 64
106.000 478.000 224.000 47 56 66
106.000 478.000 225.000 46 55 65
106.000 478.000 226.000 45 55 65
106.000 478.000 227.000 43 54 64
106.000 479.000 226.000 44 54 65
106.000 479.000 227.000 43 54 65
106.000 479.000 228.000 43 54 66
106.000 479.000 231.000 48 57 67
106.000 475.000 238.000 46 54 62
106.000 475.000 239.000 46 53 62
106.000 479.000 232.000 48 57 67
106.000 479.000 233.000 51 59 68
106.000 478.000 234.000 52 59 66
106.000 478.000 235.000 53 59 67
106.000 479.000 234.000 55 61 70
106.000 479.000 235.000 55 62 71
106.000 479.000 236.000 50 57 67
106.000 479.000 237.000 49 57 66
106.000 478.000 238.000 48 56 65
106.000 478.000 239.000 47 56 66
106.000 479.000 238.000 49 57 67
106.000 479.000 239.000 48 57 68
106.000 472.000 243.000 47 57 67
106.000 473.000 242.000 46 56 66
106.000 473.000 243.000 48 57 67
106.000 474.000 240.000 46 53 62
106.000 474.000 241.000 45 53 62
106.000 475.000 241.000 44 52 61
106.000 474.000 242.000 45 54 64
107.000 472.000 245.000 50 61 72
107.000 473.000 244.000 50 60 70
107.000 473.000 245.000 52 62 73
107.000 474.000 244.000 47 56 67
107.000 474.000 245.000 49 59 69
107.000 475.000 244.000 45 54 63
106.000 476.000 241.000 44 52 61
106.000 477.000 240.000 45 54 63
106.000 477.000 241.000 44 52 62
106.000 478.000 240.000 46 55 64
107.000 479.000 240.000 48 58 68
107.000 479.000 241.000 49 59 70
107.000 477.000 244.000 46 55 64
108.000 473.000 247.000 53 63 75
108.000 474.000 247.000 50 60 71
108.000 475.000 246.000 44 54 64
108.000 479.000 243.000 51 61 72
108.000 476.000 246.000 46 54 64
109.000 476.000 247.000 46 55 65
109.000 477.000 247.000 47 57 67
108.000 478.000 244.000 49 58 68
108.000 479.000 244.000 50 60 71
108.000 479.000 245.000 49 61 72
109.000 479.000 246.000 49 60 72
109.000 479.000 247.000 49 59 71
109.000 475.000 248.000 44 55 65
111.000 481.000 203.000 47 59 70
111.000 480.000 205.000 49 60 72
111.000 481.000 205.000 48 60 72
110.000 480.000 206.000 46 59 71
110.000 480.000 207.000 46 58 70
110.000 481.000 207.000 46 59 71
111.000 483.000 206.000 48 61 73
111.000 483.000 207.000 48 60 72
111.000 484.000 206.000 49 61 73
111.000 484.000 207.000 48 60 73
111.000 485.000 207.000 47 60 72
109.000 480.000 210.000 47 58 70
109.000 480.000 211.000 48 59 70
109.000 481.000 211.000 48 59 71
110.000 480.000 209.000 46 58 70
110.000 481.000 209.000 47 59 71
110.000 481.000 211.000 48 59 71
110.000 482.000 208.000 47 59 71
110.000 482.000 209.000 47 58 70
110.000 483.000 209.000 47 59 71
110.000 482.000 211.000 48 59 71
110.000 483.000 210.000 48 59 71
110.000 483.000 211.000 47 59 71
109.000 480.000 212.000 48 59 71
109.000 481.000 212.000 47 59 71
109.000 480.000 214.000 48 59 71
109.000 481.000 215.000 48 60 71
109.000 482.000 212.000 48 60 72
109.000 482.000 215.000 49 61 73
110.000 482.000 212.000 47 59 71
110.000 483.000 212.000 47 60 72
110.000 483.000 213.000 49 61 73
111.000 484.000 208.000 47 60 72
111.000 485.000 208.000 48 60 72
111.000 485.000 209.000 48 60 72
110.000 484.000 211.000 47 59 71
111.000 484.000 210.000 48 60 72
111.000 485.000 210.000 47 59 72
111.000 485.000 211.000 47 59 71
111.000 486.000 208.000 46 59 71
110.000 484.000 212.000 48 60 72
110.000 485.000 212.000 47 60 72
110.000 484.000 214.000 52 63 75
110.000 485.000 215.000 50 61 73
111.000 487.000 212.000 47 59 72
110.000 486.000 215.000 50 61 73
110.000 487.000 215.000 49 60 71
107.000 480.000 222.000 45 56 67
107.000 480.000 223.000 46 56 67
107.000 481.000 222.000 46 57 68
107.000 481.000 223.000 46 57 67
107.000 482.000 223.000 48 58 68
108.000 480.000 217.000 43 55 67
109.000 481.000 216.000 46 58 70
108.000 481.000 218.000 44 56 68
108.000 481.000 219.000 46 57 69
109.000 482.000 216.000 48 60 72
109.000 483.000 216.000 49 61 72
109.000 483.000 217.000 47 59 71
108.000 482.000 218.000 46 58 70
108.000 483.000 221.000 47 58 69
108.000 483.000 222.000 47 58 69
108.000 483.000 223.000 47 58 68
109.000 484.000 217.000 49 60 71
109.000 484.000 218.000 50 60 71
109.000 485.000 218.000 49 60 71
109.000 485.000 219.000 47 58 69
109.000 487.000 219.000 46 56 66
110.000 487.000 216.000 47 58 70
108.000 484.000 221.000 48 58 69
108.000 484.000 222.000 47 57 68
108.000 484.000 223.000 46 57 68
108.000 485.000 223.000 45 56 66
109.000 486.000 220.000 46 56 67
109.000 486.000 221.000 47 57 67
109.000 487.000 220.000 46 56 66
109.000 487.000 221.000 47 57 67
108.000 486.000 223.000 45 55 66
109.000 486.000 222.000 47 57 67
109.000 487.000 222.000 47 56 66
109.000 487.000 223.000 46 55 66
111.000 489.000 211.000 46 59 71
110.000 489.000 213.000 48 60 72
111.000 489.000 212.000 46 59 71
111.000 489.000 213.000 47 59 72
110.000 488.000 215.000 47 58 70
110.000 489.000 214.000 47 59 71
110.000 489.000 215.000 46 58 69
111.000 490.000 212.000 48 60 72
111.000 490.000 213.000 47 59 72
111.000 491.000 213.000 47 59 71
110.000 490.000 215.000 47 58 70
111.000 490.000 214.000 47 59 71
111.000 490.000 215.000 47 58 70
111.000 491.000 214.000 48 59 71
111.000 491.000 215.000 48 59 70
111.000 492.000 214.000 47 58 70
111.000 492.000 215.000 46 58 69
111.000 493.000 215.000 46 57 68
109.000 488.000 218.000 45 56 66
109.000 488.000 219.000 45 55 65
109.000 489.000 219.000 44 54 64
110.000 488.000 216.000 45 57 68
110.000 488.000 217.000 45 56 67
110.000 489.000 216.000 45 57 68
110.000 489.000 217.000 44 55 66
110.000 488.000 218.000 45 55 66
110.000 489.000 218.000 44 54 65
110.000 489.000 219.000 45 54 64
110.000 490.000 216.000 46 57 68
110.000 490.000 217.000 45 55 66
110.000 491.000 216.000 46 56 67
110.000 491.000 217.000 45 55 66
111.000 491.000 216.000 45 56 68
111.000 491.000 217.000 44 55 66
110.000 490.000 218.000 44 54 65
110.000 490.000 219.000 44 54 64
110.000 491.000 218.000 45 55 66
110.000 491.000 219.000 45 55 65
109.000 488.000 220.000 45 55 65
109.000 488.000 221.000 45 55 65
109.000 489.000 220.000 44 54 64
109.000 489.000 221.000 45 54 64
109.000 488.000 222.000 46 55 65
109.000 488.000 223.000 46 55 65
109.000 489.000 222.000 46 55 65
109.000 489.000 223.000 45 54 64
109.000 490.000 223.000 45 54 64
110.000 489.000 220.000 44 54 64
110.000 490.000 220.000 44 54 64
110.000 490.000 221.000 45 54 64
110.000 491.000 220.000 45 54 64
110.000 491.000 221.000 45 55 65
110.000 490.000 222.000 45 54 64
110.000 490.000 223.000 45 54 64
110.000 491.000 222.000 45 55 64
110.000 491.000 223.000 45 54 64
111.000 492.000 216.000 45 56 67
111.000 492.000 217.000 43 55 66
111.000 493.000 216.000 46 57 68
111.000 493.000 217.000 44 55 67
110.000 492.000 219.000 45 55 65
111.000 492.000 218.000 43 55 66
111.000 492.000 219.000 45 55 66
111.000 493.000 218.000 45 55 67
111.000 493.000 219.000 46 56 66
111.000 494.000 216.000 46 57 68
111.000 494.000 217.000 45 56 67
111.000 494.000 218.000 47 57 68
111.000 494.000 219.000 47 57 67
111.000 495.000 218.000 47 57 68
111.000 495.000 219.000 48 57 68
110.000 492.000 220.000 46 55 65
110.000 492.000 221.000 45 55 65
111.000 493.000 220.000 46 56 66
111.000 493.000 221.000 45 55 65
110.000 492.000 222.000 45 54 64
110.000 492.000 223.000 44 54 64
110.000 493.000 223.000 44 55 65
111.000 493.000 222.000 44 54 64
111.000 493.000 223.000 44 54 65
111.000 494.000 220.000 47 56 66
111.000 494.000 221.000 45 55 65
111.000 495.000 220.000 48 57 67
111.000 495.000 221.000 46 56 66
111.000 494.000 222.000 44 54 65
111.000 494.000 223.000 45 55 66
111.000 495.000 222.000 45 55 65
111.000 495.000 223.000 46 57 68
111.000 496.000 221.000 45 55 65
111.000 496.000 222.000 46 56 66
111.000 496.000 223.000 46 57 68
112.000 481.000 203.000 48 60 71
112.000 482.000 204.000 47 59 71
112.000 483.000 205.000 48 60 72
112.000 484.000 205.000 49 61 73
112.000 485.000 205.000 49 61 73
112.000 485.000 206.000 49 61 73
112.000 486.000 204.000 48 60 72
112.000 486.000 205.000 48 60 72
113.000 486.000 204.000 48 60 72
113.000 487.000 205.000 48 59 71
112.000 486.000 206.000 49 60 72
112.000 486.000 207.000 49 60 72
112.000 487.000 206.000 49 60 72
112.000 487.000 207.000 47 59 70
114.000 491.000 203.000 46 58 70
113.000 488.000 205.000 48 60 71
113.000 489.000 204.000 46 58 69
113.000 489.000 205.000 48 59 71
113.000 489.000 206.000 46 57 69
113.000 489.000 207.000 44 56 68
113.000 490.000 205.000 46 58 70
113.000 490.000 206.000 45 57 69
113.000 490.000 207.000 44 57 69
113.000 491.000 206.000 44 57 69
113.000 491.000 207.000 45 58 70
114.000 490.000 204.000 47 59 71
114.000 490.000 205.000 48 59 71
114.000 491.000 204.000 46 58 71
114.000 491.000 205.000 46 58 71
114.000 491.000 206.000 46 58 70
114.000 492.000 203.000 46 58 70
114.000 493.000 203.000 47 59 71
115.000 493.000 202.000 48 59 71
115.000 493.000 203.000 48 59 70
115.000 495.000 201.000 50 60 72
115.000 494.000 202.000 48 59 70
115.000 494.000 203.000 48 59 71
115.000 495.000 202.000 48 59 70
115.000 495.000 203.000 46 57 68
113.000 492.000 207.000 46 59 71
114.000 492.000 204.000 46 58 71
114.000 492.000 205.000 46 59 71
114.000 493.000 204.000 47 59 71
114.000 493.000 205.000 47 59 71
114.000 492.000 206.000 46 58 70
114.000 492.000 207.000 46 59 71
114.000 493.000 206.000 46 58 71
114.000 493.000 207.000 48 60 72
114.000 494.000 204.000 47 58 70
114.000 494.000 205.000 47 58 70
114.000 495.000 205.000 47 58 69
115.000 494.000 204.000 47 58 70
115.000 494.000 205.000 46 58 70
115.000 495.000 204.000 46 57 69
115.000 495.000 205.000 47 58 70
114.000 494.000 206.000 47 59 71
114.000 494.000 207.000 49 60 72
114.000 495.000 206.000 47 59 70
114.000 495.000 207.000 47 59 70
116.000 495.000 201.000 50 60 72
112.000 487.000 208.000 47 59 71
112.000 488.000 208.000 46 58 70
112.000 489.000 208.000 46 58 70
112.000 489.000 209.000 47 59 71
113.000 489.000 208.000 45 57 69
112.000 489.000 210.000 47 59 71
112.000 489.000 211.000 47 59 71
112.000 490.000 209.000 48 60 72
113.000 490.000 208.000 46 58 70
113.000 490.000 209.000 47 59 71
113.000 491.000 208.000 47 60 72
113.000 491.000 209.000 49 61 73
112.000 490.000 210.000 49 61 73
112.000 490.000 211.000 49 60 72
112.000 491.000 210.000 49 61 73
112.000 491.000 211.000 49 61 73
113.000 491.000 210.000 50 61 74
112.000 490.000 212.000 49 61 72
112.000 491.000 212.000 48 60 72
112.000 491.000 213.000 47 59 71
113.000 492.000 208.000 48 60 72
113.000 492.000 209.000 49 61 73
113.000 493.000 208.000 48 60 73
113.000 493.000 209.000 50 61 73
112.000 492.000 210.000 49 61 73
112.000 492.000 211.000 50 61 73
112.000 493.000 211.000 50 61 73
113.000 492.000 210.000 50 62 74
113.000 493.000 210.000 50 62 74
113.000 493.000 211.000 50 62 74
113.000 494.000 208.000 49 60 72
113.000 494.000 209.000 50 61 73
113.000 495.000 209.000 49 60 72
113.000 494.000 210.000 50 61 73
113.000 494.000 211.000 50 61 73
113.000 495.000 210.000 49 61 72
113.000 495.000 211.000 49 60 72
114.000 493.000 208.000 48 60 72
114.000 494.000 208.000 48 60 72
114.000 494.000 209.000 49 61 72
114.000 495.000 208.000 48 60 71
114.000 495.000 209.000 49 60 72
112.000 492.000 212.000 48 60 72
112.000 492.000 213.000 47 59 71
112.000 493.000 212.000 49 60 72
112.000 493.000 213.000 47 59 71
112.000 492.000 214.000 46 58 70
112.000 493.000 214.000 46 58 70
112.000 493.000 215.000 46 57 69
112.000 494.000 212.000 49 60 72
112.000 494.000 213.000 48 60 72
112.000 495.000 213.000 48 59 71
113.000 494.000 212.000 49 61 72
113.000 495.000 212.000 48 59 71
113.000 495.000 213.000 48 59 71
112.000 494.000 214.000 48 59 71
112.000 494.000 215.000 49 60 71
112.000 495.000 214.000 49 60 71
112.000 495.000 215.000 49 60 71
112.000 494.000 216.000 48 59 70
112.000 494.000 217.000 46 57 68
112.000 495.000 216.000 48 59 70
112.000 495.000 217.000 47 58 69
112.000 495.000 218.000 47 57 68
112.000 495.000 219.000 48 58 68
115.000 496.000 202.000 46 58 69
115.000 496.000 203.000 46 57 69
115.000 497.000 203.000 46 57 69
115.000 496.000 204.000 45 56 67
115.000 496.000 205.000 46 58 69
115.000 497.000 204.000 45 56 67
115.000 497.000 205.000 45 57 68
114.000 496.000 206.000 46 57 68
114.000 496.000 207.000 46 57 69
114.000 497.000 207.000 46 57 68
115.000 496.000 206.000 47 58 69
115.000 497.000 206.000 47 57 69
115.000 497.000 207.000 46 57 67
115.000 498.000 204.000 45 57 68
115.000 498.000 205.000 46 57 69
115.000 499.000 205.000 47 59 71
115.000 498.000 206.000 47 58 69
115.000 498.000 207.000 47 58 69
115.000 499.000 206.000 48 58 70
115.000 499.000 207.000 47 58 69
115.000 500.000 206.000 47 58 70
115.000 500.000 207.000 47 57 68
115.000 501.000 207.000 46 57 68
116.000 496.000 201.000 50 60 71
116.000 497.000 201.000 49 60 71
116.000 496.000 202.000 46 57 68
116.000 497.000 202.000 47 58 69
116.000 497.000 203.000 46 57 69
116.000 498.000 201.000 49 60 71
116.000 498.000 202.000 47 58 69
116.000 498.000 203.000 45 56 68
116.000 499.000 202.000 48 60 71
116.000 499.000 203.000 47 59 70
117.000 499.000 202.000 49 60 71
116.000 498.000 204.000 45 57 69
116.000 498.000 205.000 46 58 70
116.000 499.000 204.000 45 57 69
116.000 499.000 205.000 47 59 71
116.000 500.000 202.000 49 60 71
116.000 500.000 203.000 48 59 71
116.000 501.000 203.000 48 59 70
117.000 500.000 202.000 50 61 72
117.000 501.000 202.000 49 60 71
117.000 501.000 203.000 47 58 69
116.000 500.000 204.000 47 58 70
116.000 500.000 205.000 47 58 70
116.000 501.000 204.000 48 59 70
116.000 501.000 205.000 47 58 69
116.000 500.000 206.000 47 59 70
116.000 501.000 206.000 46 57 69
116.000 501.000 207.000 45 56 68
116.000 502.000 204.000 47 57 69
116.000 502.000 205.000 46 57 68
116.000 503.000 205.000 44 55 65
117.000 502.000 204.000 46 57 68
117.000 503.000 205.000 44 54 65
116.000 502.000 206.000 45 56 66
116.000 502.000 207.000 45 56 66
116.000 503.000 206.000 44 54 64
116.000 503.000 207.000 44 54 65
116.000 504.000 206.000 43 53 63
116.000 504.000 207.000 44 53 63
116.000 505.000 207.000 43 52 61
113.000 496.000 210.000 48 60 71
113.000 496.000 211.000 47 59 70
113.000 497.000 211.000 46 57 69
114.000 496.000 208.000 47 59 70
114.000 496.000 209.000 48 59 71
114.000 497.000 208.000 47 58 69
114.000 497.000 209.000 48 59 71
114.000 496.000 210.000 48 60 71
114.000 497.000 210.000 47 58 69
114.000 497.000 211.000 46 57 68
114.000 498.000 209.000 47 58 70
115.000 498.000 208.000 47 58 69
115.000 498.000 209.000 47 58 69
115.000 499.000 208.000 48 59 70
115.000 499.000 209.000 47 58 69
114.000 498.000 210.000 45 57 69
114.000 498.000 211.000 46 57 68
114.000 499.000 210.000 47 58 70
114.000 499.000 211.000 47 58 69
115.000 499.000 210.000 47 58 70
113.000 496.000 212.000 47 59 71
113.000 496.000 213.000 47 58 70
113.000 497.000 212.000 45 57 69
113.000 497.000 213.000 46 57 69
112.000 496.000 214.000 48 59 70
112.000 496.000 215.000 48 58 69
113.000 496.000 214.000 47 58 70
113.000 497.000 214.000 46 57 69
113.000 497.000 215.000 47 58 69
113.000 498.000 212.000 45 57 69
113.000 498.000 213.000 45 57 68
113.000 499.000 213.000 46 57 68
113.000 498.000 214.000 47 57 68
113.000 498.000 215.000 47 57 68
113.000 499.000 214.000 47 57 68
113.000 499.000 215.000 46 56 67
114.000 498.000 212.000 47 58 69
114.000 499.000 212.000 46 57 68
114.000 499.000 213.000 46 57 68
115.000 500.000 208.000 47 58 69
115.000 500.000 209.000 46 57 69
115.000 501.000 208.000 45 56 67
115.000 501.000 209.000 45 56 67
114.000 500.000 210.000 46 57 69
114.000 500.000 211.000 46 57 68
114.000 501.000 211.000 46 57 68
115.000 500.000 210.000 46 57 68
115.000 501.000 210.000 44 55 67
115.000 501.000 211.000 45 56 67
115.000 502.000 208.000 44 55 66
115.000 502.000 209.000 44 55 65
115.000 503.000 209.000 44 54 64
115.000 502.000 210.000 43 54 65
115.000 502.000 211.000 44 55 66
115.000 503.000 210.000 44 54 64
115.000 503.000 211.000 44 54 65
113.000 500.000 214.000 47 57 68
113.000 500.000 215.000 45 56 66
113.000 501.000 214.000 46 56 67
113.000 501.000 215.000 46 56 66
113.000 502.000 215.000 46 55 65
114.000 500.000 212.000 46 57 68
114.000 500.000 213.000 48 58 69
114.000 501.000 212.000 46 57 67
114.000 501.000 213.000 47 57 68
114.000 501.000 214.000 46 56 67
114.000 502.000 212.000 45 55 66
114.000 502.000 213.000 46 56 66
114.000 503.000 212.000 45 55 65
114.000 503.000 213.000 44 54 65
115.000 502.000 212.000 45 55 65
115.000 503.000 212.000 44 54 65
114.000 502.000 214.000 45 55 66
114.000 502.000 215.000 45 54 64
114.000 503.000 214.000 44 54 64
114.000 503.000 215.000 44 53 63
116.000 502.000 208.000 45 55 65
116.000 503.000 208.000 44 54 65
116.000 503.000 209.000 44 54 64
112.000 496.000 216.000 47 58 69
112.000 496.000 217.000 47 58 69
112.000 497.000 216.000 46 57 68
112.000 497.000 217.000 45 56 67
113.000 497.000 216.000 46 57 68
112.000 496.000 218.000 47 57 68
112.000 496.000 219.000 46 56 67
112.000 497.000 218.000 45 56 67
112.000 497.000 219.000 44 55 66
112.000 498.000 217.000 44 55 66
113.000 498.000 216.000 46 56 67
113.000 498.000 217.000 45 55 66
113.000 499.000 216.000 45 56 66
113.000 499.000 217.000 45 56 66
112.000 498.000 218.000 44 55 66
112.000 498.000 219.000 43 54 65
113.000 498.000 218.000 44 55 66
113.000 498.000 219.000 43 55 66
113.000 499.000 218.000 45 55 66
113.000 499.000 219.000 44 54 65
112.000 496.000 220.000 45 56 66
112.000 496.000 221.000 45 55 65
112.000 497.000 220.000 44 54 65
112.000 497.000 221.000 45 55 66
112.000 496.000 222.000 45 56 67
112.000 496.000 223.000 45 56 68
112.000 497.000 222.000 45 55 66
112.000 497.000 223.000 45 56 68
112.000 498.000 220.000 43 54 65
112.000 498.000 221.000 44 55 65
112.000 499.000 220.000 45 55 65
112.000 499.000 221.000 46 55 65
113.000 499.000 220.000 45 55 65
112.000 498.000 222.000 44 55 66
112.000 498.000 223.000 45 56 67
112.000 499.000 222.000 45 55 66
112.000 499.000 223.000 46 56 66
113.000 500.000 216.000 46 56 66
113.000 500.000 217.000 46 56 66
113.000 501.000 216.000 46 56 66
113.000 501.000 217.000 46 56 65
113.000 500.000 218.000 46 56 66
113.000 500.000 219.000 45 55 65
113.000 501.000 218.000 46 55 65
113.000 501.000 219.000 45 54 64
113.000 502.000 216.000 45 55 65
113.000 502.000 217.000 45 54 64
113.000 503.000 216.000 43 53 62
113.000 503.000 217.000 44 52 62
113.000 502.000 218.000 44 53 63
113.000 502.000 219.000 43 52 61
113.000 503.000 218.000 44 52 61
113.000 503.000 219.000 43 51 60
114.000 503.000 216.000 44 53 63
113.000 500.000 220.000 45 55 65
113.000 500.000 221.000 45 54 64
113.000 501.000 220.000 44 54 63
113.000 501.000 221.000 43 53 62
112.000 500.000 222.000 44 54 64
112.000 500.000 223.000 45 54 64
113.000 500.000 222.000 44 53 63
113.000 500.000 223.000 44 54 64
113.000 501.000 222.000 43 52 62
113.000 501.000 223.000 43 52 62
113.000 502.000 220.000 43 51 61
113.000 502.000 221.000 42 51 60
113.000 503.000 220.000 42 50 59
113.000 503.000 221.000 42 50 59
113.000 502.000 222.000 42 50 60
113.000 502.000 223.000 43 51 60
113.000 503.000 222.000 42 50 59
113.000 503.000 223.000 43 51 60
115.000 504.000 209.000 43 53 63
115.000 505.000 209.000 42 51 60
115.000 504.000 210.000 44 53 63
115.000 504.000 211.000 44 53 63
115.000 505.000 210.000 43 52 61
115.000 505.000 211.000 43 52 61
115.000 506.000 209.000 41 50 59
115.000 506.000 210.000 41 50 59
115.000 506.000 211.000 42 50 59
115.000 507.000 210.000 42 50 59
114.000 504.000 213.000 44 53 63
114.000 505.000 213.000 44 53 62
115.000 504.000 212.000 44 53 63
115.000 505.000 212.000 43 52 61
115.000 505.000 213.000 44 53 62
114.000 504.000 214.000 44 53 62
114.000 504.000 215.000 43 52 61
114.000 505.000 214.000 43 52 61
114.000 505.000 215.000 42 51 60
114.000 506.000 213.000 42 51 60
115.000 506.000 212.000 42 51 60
115.000 506.000 213.000 43 52 61
115.000 507.000 213.000 43 52 61
114.000 506.000 214.000 42 51 60
114.000 506.000 215.000 42 51 60
114.000 507.000 215.000 42 52 61
116.000 504.000 208.000 44 53 63
116.000 504.000 209.000 43 52 62
116.000 505.000 208.000 43 52 61
116.000 505.000 209.000 42 51 60
116.000 506.000 208.000 42 50 59
116.000 506.000 209.000 41 50 59
116.000 507.000 209.000 42 50 59
113.000 504.000 216.000 42 51 60
113.000 504.000 217.000 43 52 61
113.000 505.000 217.000 43 51 60
113.000 504.000 218.000 44 52 60
113.000 504.000 219.000 44 51 60
113.000 505.000 218.000 43 51 59
113.000 505.000 219.000 43 51 59
114.000 504.000 216.000 42 51 60
114.000 505.000 216.000 42 51 60
114.000 505.000 217.000 42 51 60
114.000 505.000 218.000 42 51 60
114.000 505.000 219.000 42 50 59
114.000 506.000 216.000 42 51 60
114.000 506.000 217.000 42 51 60
114.000 507.000 216.000 42 51 61
114.000 507.000 217.000 42 52 61
114.000 506.000 218.000 42 51 60
114.000 506.000 219.000 42 51 60
114.000 507.000 218.000 42 51 61
114.000 507.000 219.000 42 52 61
113.000 504.000 220.000 43 50 59
113.000 504.000 221.000 43 51 59
113.000 505.000 220.000 43 51 60
113.000 505.000 221.000 44 52 61
113.000 504.000 222.000 44 52 61
113.000 504.000 223.000 45 53 62
113.000 505.000 222.000 45 53 62
113.000 505.000 223.000 46 54 63
114.000 505.000 223.000 47 56 65
114.000 506.000 220.000 43 52 61
114.000 506.000 221.000 45 53 62
114.000 507.000 220.000 43 52 62
114.000 506.000 222.000 46 55 64
114.000 506.000 223.000 47 56 66
114.000 507.000 222.000 46 55 65
114.000 507.000 223.000 47 56 66
107.000 480.000 224.000 46 56 66
107.000 480.000 225.000 45 55 65
107.000 481.000 224.000 47 57 67
107.000 481.000 225.000 46 56 66
106.000 480.000 227.000 42 54 65
107.000 481.000 226.000 45 55 66
107.000 482.000 224.000 47 57 68
107.000 482.000 225.000 46 56 67
107.000 483.000 224.000 47 57 68
107.000 483.000 225.000 47 57 67
107.000 482.000 226.000 46 56 67
107.000 482.000 227.000 45 57 68
107.000 483.000 226.000 46 56 67
107.000 483.000 227.000 45 57 68
106.000 480.000 228.000 44 56 67
106.000 480.000 229.000 46 57 68
106.000 480.000 230.000 48 58 70
106.000 480.000 231.000 50 60 70
107.000 484.000 225.000 46 56 67
107.000 484.000 226.000 45 55 66
107.000 484.000 227.000 44 55 67
107.000 484.000 228.000 47 58 69
108.000 483.000 224.000 47 57 68
108.000 484.000 224.000 46 56 67
108.000 484.000 225.000 44 55 65
108.000 485.000 224.000 44 55 66
108.000 485.000 225.000 43 54 64
108.000 484.000 226.000 43 54 64
108.000 484.000 227.000 43 54 66
108.000 485.000 226.000 43 53 64
108.000 485.000 227.000 43 54 65
108.000 486.000 224.000 44 54 65
108.000 486.000 225.000 44 54 64
108.000 487.000 225.000 45 55 65
109.000 487.000 224.000 45 55 65
109.000 487.000 225.000 46 55 65
108.000 486.000 226.000 43 54 64
108.000 486.000 227.000 45 55 65
108.000 487.000 226.000 45 55 65
108.000 487.000 227.000 46 55 65
109.000 487.000 226.000 46 55 65
109.000 487.000 227.000 46 55 65
108.000 484.000 228.000 45 57 68
108.000 484.000 229.000 48 59 70
108.000 485.000 228.000 46 57 68
108.000 485.000 229.000 50 60 71
108.000 484.000 230.000 49 59 70
108.000 485.000 230.000 52 62 72
108.000 485.000 231.000 52 61 71
108.000 486.000 228.000 48 58 69
108.000 486.000 229.000 52 61 72
108.000 487.000 228.000 50 59 69
108.000 487.000 229.000 52 60 71
109.000 487.000 228.000 49 58 69
109.000 487.000 229.000 51 60 70
108.000 486.000 230.000 54 63 73
108.000 486.000 231.000 55 63 72
108.000 487.000 230.000 53 61 72
108.000 487.000 231.000 53 60 70
109.000 487.000 230.000 51 60 70
109.000 487.000 231.000 54 61 70
106.000 480.000 232.000 50 59 69
106.000 480.000 233.000 52 60 69
106.000 480.000 234.000 55 62 70
106.000 480.000 235.000 56 63 72
107.000 480.000 235.000 54 61 71
106.000 480.000 236.000 50 58 67
106.000 480.000 237.000 49 57 67
107.000 480.000 237.000 47 56 66
107.000 481.000 237.000 46 55 65
106.000 480.000 238.000 48 57 67
107.000 480.000 238.000 47 57 67
107.000 480.000 239.000 48 58 69
107.000 481.000 238.000 46 56 66
107.000 481.000 239.000 47 57 68
107.000 483.000 236.000 49 57 67
107.000 483.000 237.000 46 55 65
107.000 482.000 238.000 46 56 66
107.000 482.000 239.000 45 56 67
107.000 483.000 238.000 46 55 65
108.000 483.000 235.000 49 57 66
108.000 483.000 236.000 46 55 64
108.000 484.000 233.000 53 60 69
108.000 485.000 232.000 54 61 71
108.000 485.000 233.000 57 63 72
108.000 484.000 234.000 54 61 69
108.000 484.000 235.000 47 56 65
108.000 485.000 234.000 57 63 72
108.000 485.000 235.000 49 57 67
108.000 486.000 232.000 57 64 72
108.000 486.000 233.000 60 65 74
108.000 487.000 232.000 56 62 71
109.000 487.000 232.000 57 63 71
109.000 487.000 233.000 59 65 73
108.000 486.000 234.000 60 66 74
108.000 486.000 235.000 50 58 68
109.000 486.000 234.000 54 62 70
109.000 486.000 235.000 51 59 70
109.000 487.000 234.000 57 64 73
109.000 487.000 235.000 52 60 70
108.000 484.000 236.000 44 54 64
108.000 485.000 236.000 48 56 67
108.000 485.000 238.000 48 57 68
108.000 485.000 239.000 48 57 67
108.000 486.000 236.000 50 59 69
108.000 486.000 237.000 48 58 68
109.000 486.000 236.000 50 59 69
109.000 486.000 237.000 49 58 69
109.000 487.000 236.000 51 59 70
109.000 487.000 237.000 49 59 70
108.000 486.000 238.000 48 58 68
109.000 486.000 238.000 48 58 69
109.000 486.000 239.000 49 58 69
109.000 487.000 238.000 49 59 71
109.000 487.000 239.000 49 59 70
109.000 488.000 224.000 46 55 64
109.000 488.000 225.000 45 54 64
109.000 489.000 224.000 45 54 64
109.000 489.000 225.000 45 55 65
109.000 488.000 226.000 45 55 64
109.000 488.000 227.000 46 55 65
109.000 489.000 226.000 46 55 65
109.000 489.000 227.000 46 55 65
109.000 490.000 224.000 45 55 64
109.000 490.000 225.000 45 55 65
109.000 490.000 226.000 46 55 65
109.000 490.000 227.000 46 56 66
110.000 490.000 224.000 46 55 65
110.000 490.000 225.000 45 55 65
110.000 491.000 224.000 45 54 64
110.000 491.000 225.000 45 55 65
110.000 491.000 226.000 46 56 66
110.000 491.000 227.000 48 57 67
109.000 488.000 228.000 47 57 67
109.000 488.000 229.000 48 57 67
109.000 489.000 228.000 46 56 66
109.000 489.000 229.000 47 57 67
109.000 488.000 230.000 48 56 66
109.000 488.000 231.000 51 58 67
109.000 489.000 230.000 48 57 66
109.000 489.000 231.000 52 58 67
109.000 490.000 228.000 48 57 67
109.000 490.000 229.000 48 57 67
109.000 490.000 230.000 49 57 67
109.000 490.000 231.000 53 60 68
110.000 491.000 228.000 48 58 68
110.000 491.000 229.000 48 57 68
110.000 491.000 230.000 49 57 66
110.000 491.000 231.000 52 58 67
110.000 492.000 224.000 45 55 65
110.000 492.000 225.000 47 57 67
110.000 493.000 224.000 47 56 67
110.000 493.000 225.000 48 57 68
111.000 493.000 224.000 47 57 67
111.000 493.000 225.000 48 58 68
110.000 492.000 226.000 48 58 68
110.000 492.000 227.000 49 58 69
110.000 493.000 226.000 48 58 69
110.000 493.000 227.000 50 60 71
111.000 493.000 226.000 49 59 69
111.000 493.000 227.000 51 61 72
111.000 494.000 224.000 47 57 68
111.000 494.000 225.000 49 59 69
111.000 495.000 224.000 47 58 69
111.000 495.000 225.000 48 59 70
111.000 494.000 226.000 50 60 70
111.000 494.000 227.000 51 61 72
111.000 495.000 226.000 49 60 71
111.000 495.000 227.000 51 62 73
110.000 492.000 228.000 49 59 69
110.000 492.000 229.000 49 59 69
110.000 493.000 228.000 51 61 72
110.000 493.000 229.000 51 61 71
110.000 492.000 230.000 51 59 68
110.000 492.000 231.000 54 61 69
110.000 493.000 230.000 53 61 71
110.000 493.000 231.000 57 63 71
111.000 494.000 228.000 52 62 73
111.000 494.000 229.000 53 62 73
111.000 495.000 228.000 52 63 74
111.000 495.000 229.000 54 63 74
111.000 494.000 230.000 55 63 73
111.000 494.000 231.000 58 65 74
111.000 495.000 230.000 56 64 73
111.000 495.000 231.000 56 64 73
109.000 488.000 232.000 55 61 69
109.000 488.000 233.000 58 64 72
109.000 489.000 232.000 57 61 69
109.000 489.000 233.000 58 64 72
109.000 488.000 234.000 55 61 70
109.000 488.000 235.000 51 60 70
109.000 489.000 234.000 52 59 69
109.000 489.000 235.000 50 59 70
109.000 490.000 232.000 57 62 70
109.000 490.000 233.000 56 62 71
109.000 491.000 232.000 55 60 68
109.000 490.000 234.000 51 58 68
110.000 491.000 232.000 55 61 69
110.000 491.000 233.000 52 60 69
110.000 490.000 234.000 50 58 68
110.000 490.000 235.000 50 59 70
110.000 491.000 234.000 49 58 68
110.000 491.000 235.000 49 60 70
109.000 488.000 236.000 49 59 70
109.000 488.000 237.000 49 60 71
109.000 489.000 236.000 49 60 70
109.000 489.000 237.000 51 61 72
109.000 488.000 239.000 49 59 71
110.000 489.000 236.000 50 60 71
110.000 489.000 237.000 51 61 73
110.000 490.000 236.000 50 61 72
110.000 490.000 237.000 51 61 73
110.000 491.000 236.000 50 60 72
110.000 491.000 237.000 50 61 72
110.000 490.000 238.000 50 61 72
110.000 490.000 239.000 49 59 70
110.000 491.000 238.000 48 59 71
110.000 491.000 239.000 46 57 69
111.000 491.000 239.000 45 57 68
110.000 492.000 232.000 56 62 70
110.000 492.000 233.000 52 60 69
110.000 493.000 232.000 57 64 72
110.000 493.000 233.000 52 61 70
110.000 492.000 234.000 49 58 69
110.000 492.000 235.000 50 61 72
110.000 493.000 234.000 50 60 71
111.000 493.000 234.000 50 60 71
111.000 493.000 235.000 51 61 73
111.000 494.000 232.000 57 64 73
111.000 494.000 233.000 52 61 71
111.000 495.000 232.000 56 64 74
111.000 495.000 233.000 51 61 72
111.000 494.000 234.000 51 61 72
111.000 494.000 235.000 52 62 74
111.000 495.000 234.000 52 62 73
111.000 495.000 235.000 52 62 74
110.000 492.000 236.000 52 62 73
110.000 492.000 237.000 51 62 73
111.000 492.000 236.000 52 63 74
111.000 492.000 237.000 51 62 74
111.000 493.000 236.000 52 63 74
111.000 493.000 237.000 50 62 73
111.000 492.000 238.000 50 61 72
111.000 492.000 239.000 48 59 70
111.000 493.000 238.000 50 61 72
111.000 493.000 239.000 49 59 71
111.000 494.000 236.000 52 62 74
111.000 494.000 237.000 50 61 73
111.000 495.000 236.000 51 62 74
111.000 495.000 237.000 50 62 73
111.000 494.000 238.000 49 60 72
111.000 494.000 239.000 49 59 70
107.000 480.000 240.000 50 60 71
107.000 480.000 241.000 52 62 73
107.000 481.000 240.000 49 60 71
107.000 482.000 240.000 46 57 68
108.000 480.000 243.000 54 65 76
109.000 482.000 243.000 52 63 75
109.000 483.000 243.000 48 59 71
108.000 480.000 244.000 53 64 76
108.000 480.000 245.000 51 63 76
109.000 480.000 245.000 53 65 78
109.000 481.000 244.000 55 66 78
109.000 481.000 245.000 54 65 78
109.000 482.000 244.000 52 64 76
109.000 483.000 244.000 47 59 71
110.000 480.000 247.000 50 62 73
110.000 481.000 247.000 51 62 74
110.000 482.000 246.000 50 61 73
110.000 482.000 247.000 50 61 73
110.000 483.000 246.000 47 59 70
108.000 484.000 240.000 45 55 65
108.000 485.000 240.000 48 57 67
108.000 485.000 241.000 47 57 67
109.000 485.000 241.000 47 56 67
109.000 485.000 242.000 46 56 67
109.000 486.000 240.000 48 57 68
109.000 487.000 240.000 48 58 69
110.000 487.000 243.000 50 59 70
109.000 484.000 244.000 45 56 67
110.000 484.000 244.000 45 56 67
110.000 484.000 245.000 44 55 67
110.000 485.000 244.000 46 56 66
110.000 485.000 245.000 46 56 67
111.000 485.000 247.000 45 54 64
110.000 486.000 244.000 47 57 67
110.000 486.000 245.000 47 57 67
111.000 487.000 245.000 47 57 67
111.000 482.000 248.000 50 61 73
111.000 483.000 248.000 48 58 69
110.000 489.000 240.000 48 59 70
111.000 489.000 243.000 47 56 67
110.000 490.000 240.000 47 57 69
110.000 491.000 240.000 45 56 68
111.000 491.000 240.000 46 56 68
111.000 491.000 241.000 46 56 68
111.000 490.000 242.000 46 56 67
111.000 488.000 244.000 48 58 68
111.000 488.000 245.000 46 56 67
111.000 489.000 244.000 47 56 66
111.000 489.000 245.000 44 54 65
111.000 492.000 240.000 48 59 70
111.000 492.000 241.000 49 59 70
111.000 493.000 240.000 49 59 70
111.000 493.000 241.000 49 59 70
111.000 493.000 243.000 48 57 67
111.000 494.000 240.000 49 59 70
111.000 494.000 241.000 48 59 69
111.000 496.000 224.000 46 58 69
111.000 496.000 229.000 54 64 74
111.000 496.000 230.000 56 64 74
111.000 496.000 231.000 57 65 74
111.000 496.000 232.000 55 64 74
111.000 496.000 233.000 51 61 72
112.000 495.000 235.000 51 62 73
112.000 495.000 236.000 50 62 74
112.000 495.000 237.000 50 61 73
112.000 494.000 239.000 48 58 70
112.000 495.000 238.000 49 59 71
112.000 495.000 239.000 49 59 70
112.000 491.000 245.000 44 54 64
112.000 490.000 246.000 47 56 67
112.000 494.000 240.000 48 58 70
112.000 494.000 241.000 47 58 69
112.000 495.000 240.000 48 58 69
112.000 495.000 241.000 47 58 68
113.000 490.000 249.000 45 54 65
113.000 491.000 248.000 46 56 67
112.000 496.000 224.000 46 58 70
112.000 496.000 225.000 48 60 71
112.000 497.000 224.000 47 59 70
112.000 497.000 225.000 50 61 72
112.000 496.000 226.000 50 61 72
112.000 496.000 227.000 51 62 74
112.000 497.000 226.000 51 61 73
112.000 497.000 227.000 52 62 74
112.000 498.000 224.000 48 58 70
112.000 498.000 225.000 49 59 71
112.000 499.000 224.000 46 57 67
112.000 499.000 225.000 45 56 67
112.000 498.000 226.000 49 60 71
112.000 498.000 227.000 51 61 72
112.000 499.000 226.000 46 57 68
112.000 499.000 227.000 48 57 68
112.000 496.000 228.000 53 63 74
112.000 496.000 229.000 54 64 74
112.000 497.000 228.000 53 63 74
112.000 497.000 229.000 53 63 73
112.000 496.000 230.000 56 64 74
112.000 496.000 231.000 56 64 74
112.000 497.000 230.000 54 63 73
112.000 497.000 231.000 58 66 76
112.000 498.000 228.000 52 61 71
112.000 498.000 229.000 52 61 71
112.000 499.000 228.000 48 57 67
112.000 499.000 229.000 50 58 68
112.000 498.000 230.000 54 62 72
112.000 498.000 231.000 56 64 73
112.000 499.000 230.000 51 59 68
112.000 499.000 231.000 53 61 71
112.000 500.000 224.000 44 54 64
112.000 500.000 225.000 43 53 64
113.000 501.000 224.000 43 52 62
113.000 501.000 225.000 43 52 62
112.000 500.000 226.000 44 54 64
112.000 500.000 227.000 47 56 66
113.000 500.000 226.000 45 54 64
113.000 500.000 227.000 47 55 65
113.000 501.000 226.000 45 54 63
113.000 501.000 227.000 46 54 63
113.000 502.000 224.000 43 51 60
113.000 502.000 225.000 44 52 61
113.000 503.000 224.000 44 52 60
113.000 503.000 225.000 44 52 61
113.000 502.000 226.000 45 53 62
113.000 502.000 227.000 45 53 61
113.000 503.000 226.000 45 53 62
113.000 503.000 227.000 45 53 62
112.000 500.000 228.000 47 55 65
112.000 500.000 229.000 48 55 64
113.000 500.000 228.000 47 55 64
113.000 500.000 229.000 47 55 63
113.000 501.000 228.000 46 53 61
113.000 501.000 229.000 46 53 62
112.000 500.000 230.000 50 57 66
112.000 500.000 231.000 53 60 69
113.000 500.000 230.000 50 57 65
113.000 500.000 231.000 51 59 68
113.000 501.000 230.000 49 56 65
113.000 501.000 231.000 49 57 66
113.000 502.000 228.000 45 52 60
113.000 502.000 229.000 47 53 61
113.000 503.000 228.000 46 53 61
113.000 503.000 229.000 47 54 62
113.000 502.000 230.000 49 56 65
113.000 502.000 231.000 47 56 65
113.000 503.000 230.000 50 57 66
113.000 503.000 231.000 46 55 65
112.000 496.000 232.000 55 64 74
112.000 496.000 233.000 51 61 73
112.000 497.000 232.000 56 64 74
112.000 497.000 233.000 51 61 73
112.000 496.000 234.000 51 62 74
112.000 496.000 235.000 50 61 73
112.000 497.000 234.000 50 61 73
112.000 497.000 235.000 49 61 73
112.000 498.000 232.000 53 62 72
112.000 498.000 233.000 51 61 72
112.000 499.000 232.000 50 59 70
112.000 499.000 233.000 49 60 71
112.000 498.000 234.000 50 62 74
112.000 498.000 235.000 49 61 74
112.000 499.000 234.000 49 61 73
112.000 499.000 235.000 49 61 73
113.000 499.000 235.000 49 61 73
112.000 496.000 236.000 49 60 73
112.000 496.000 237.000 48 59 71
112.000 497.000 236.000 48 60 72
112.000 497.000 237.000 48 60 71
112.000 496.000 238.000 48 59 70
112.000 496.000 239.000 48 59 70
112.000 497.000 238.000 48 59 70
112.000 497.000 239.000 48 58 70
112.000 498.000 236.000 48 60 73
112.000 498.000 237.000 48 60 72
113.000 498.000 236.000 47 59 72
113.000 498.000 237.000 47 59 71
113.000 499.000 236.000 48 59 72
113.000 499.000 237.000 47 59 70
112.000 498.000 238.000 48 59 70
112.000 498.000 239.000 48 59 70
113.000 498.000 238.000 48 58 70
113.000 498.000 239.000 48 58 69
113.000 499.000 238.000 48 58 70
113.000 499.000 239.000 48 58 69
112.000 500.000 232.000 49 58 68
112.000 500.000 233.000 48 59 70
113.000 500.000 232.000 48 57 68
113.000 500.000 233.000 48 58 70
113.000 501.000 232.000 47 56 66
113.000 501.000 233.000 46 57 68
112.000 500.000 234.000 48 59 71
113.000 500.000 234.000 47 59 71
113.000 500.000 235.000 48 60 72
113.000 501.000 234.000 46 58 70
113.000 501.000 235.000 47 59 71
113.000 502.000 232.000 45 55 66
113.000 502.000 233.000 45 56 68
113.000 503.000 232.000 46 56 67
113.000 503.000 233.000 47 58 69
113.000 502.000 234.000 47 58 70
113.000 502.000 235.000 47 59 71
113.000 503.000 234.000 49 60 72
113.000 503.000 235.000 49 60 72
113.000 500.000 236.000 48 60 71
113.000 500.000 237.000 47 59 70
113.000 501.000 236.000 47 59 71
113.000 501.000 237.000 45 57 69
113.000 500.000 238.000 47 58 69
113.000 500.000 239.000 46 57 69
113.000 501.000 238.000 45 57 69
113.000 501.000 239.000 45 57 69
113.000 502.000 236.000 47 59 71
113.000 502.000 237.000 46 58 70
113.000 503.000 236.000 49 60 72
113.000 503.000 237.000 48 60 72
113.000 502.000 238.000 46 57 69
113.000 502.000 239.000 46 57 69
114.000 503.000 236.000 48 60 72
114.000 503.000 237.000 47 59 71
114.000 502.000 238.000 46 58 70
114.000 502.000 239.000 46 58 70
114.000 503.000 238.000 47 58 70
114.000 503.000 239.000 47 59 71
113.000 504.000 224.000 45 53 62
113.000 504.000 225.000 45 54 63
113.000 505.000 224.000 46 55 64
113.000 505.000 225.000 46 55 65
113.000 504.000 226.000 46 54 63
113.000 504.000 227.000 45 54 63
113.000 505.000 226.000 47 56 65
113.000 505.000 227.000 46 55 64
114.000 505.000 224.000 47 56 66
114.000 505.000 225.000 48 57 66
114.000 505.000 226.000 48 57 66
114.000 505.000 227.000 49 57 66
114.000 506.000 224.000 47 57 67
114.000 506.000 225.000 48 57 67
114.000 506.000 226.000 48 57 68
114.000 506.000 227.000 50 59 69
113.000 504.000 228.000 48 55 63
113.000 504.000 229.000 50 56 64
113.000 504.000 230.000 51 58 67
113.000 504.000 231.000 47 56 66
114.000 504.000 228.000 50 57 65
114.000 504.000 229.000 52 58 66
114.000 505.000 228.000 52 59 68
114.000 505.000 229.000 54 60 69
114.000 504.000 230.000 52 59 68
114.000 504.000 231.000 48 57 67
114.000 505.000 230.000 51 59 69
114.000 505.000 231.000 49 58 69
114.000 506.000 228.000 55 62 71
114.000 506.000 229.000 55 63 72
114.000 506.000 230.000 53 62 71
114.000 506.000 231.000 49 60 71
113.000 504.000 232.000 48 58 69
113.000 504.000 233.000 49 60 71
113.000 504.000 234.000 49 60 72
114.000 504.000 232.000 49 59 69
114.000 504.000 233.000 51 61 72
114.000 505.000 232.000 50 60 71
114.000 505.000 233.000 52 62 73
114.000 504.000 234.000 49 60 72
114.000 504.000 235.000 50 61 72
114.000 505.000 234.000 49 60 72
114.000 505.000 235.000 49 60 72
114.000 506.000 232.000 50 61 73
114.000 506.000 233.000 50 61 72
114.000 506.000 234.000 49 60 71
114.000 506.000 235.000 47 58 70
114.000 504.000 236.000 49 60 72
114.000 504.000 237.000 48 59 71
114.000 505.000 236.000 49 59 71
114.000 505.000 237.000 48 59 70
114.000 504.000 238.000 47 59 70
114.000 504.000 239.000 47 59 71
114.000 505.000 238.000 47 58 70
114.000 505.000 239.000 46 58 70
114.000 506.000 236.000 48 58 70
114.000 506.000 237.000 48 59 70
115.000 506.000 236.000 48 58 69
115.000 506.000 237.000 47 57 69
115.000 506.000 238.000 46 57 68
115.000 506.000 239.000 45 56 68
112.000 496.000 240.000 48 59 69
112.000 496.000 241.000 48 58 69
112.000 497.000 240.000 49 59 70
112.000 497.000 241.000 48 58 69
113.000 497.000 241.000 48 58 68
113.000 496.000 243.000 48 57 68
113.000 498.000 240.000 47 58 69
113.000 498.000 241.000 46 56 67
113.000 499.000 240.000 47 58 69
113.000 499.000 241.000 47 57 68
114.000 498.000 245.000 45 56 67
113.000 500.000 240.000 46 57 69
113.000 500.000 241.000 47 58 70
113.000 501.000 240.000 46 58 70
113.000 501.000 241.000 48 60 71
113.000 502.000 240.000 46 58 70
114.000 501.000 240.000 48 60 72
114.000 501.000 241.000 49 61 73
114.000 502.000 240.000 49 61 73
114.000 502.000 241.000 52 63 75
114.000 503.000 240.000 50 62 74
114.000 503.000 241.000 52 64 76
115.000 497.000 249.000 48 57 67
117.000 503.000 249.000 44 57 70
117.000 502.000 250.000 48 61 74
114.000 504.000 240.000 48 60 72
114.000 504.000 241.000 48 61 73
114.000 505.000 240.000 46 59 71
114.000 505.000 241.000 47 59 72
115.000 505.000 240.000 45 57 69
115.000 505.000 241.000 47 59 71
114.000 504.000 242.000 48 61 73
114.000 504.000 243.000 48 60 73
116.000 504.000 246.000 47 59 72
