ply
format ascii 1.0
element vertex 1197
property float x
property float y
property float z
property uchar red
property uchar green
property uchar blue
end_header
123.000 829.000 199.000 122 131 146
125.000 830.000 196.000 118 127 141
124.000 830.000 198.000 119 128 142
124.000 830.000 199.000 123 131 145
124.000 831.000 199.000 121 128 142
125.000 830.000 198.000 119 127 141
125.000 831.000 198.000 118 127 141
125.000 831.000 199.000 119 127 141
126.000 831.000 198.000 119 127 141
122.000 829.000 201.000 135 143 158
123.000 829.000 200.000 127 136 151
123.000 830.000 200.000 130 138 153
123.000 830.000 201.000 131 139 154
123.000 831.000 201.000 126 133 148
123.000 830.000 202.000 130 137 152
124.000 830.000 200.000 127 134 149
124.000 831.000 200.000 123 130 144
124.000 831.000 201.000 125 132 147
125.000 832.000 199.000 123 130 144
127.000 832.000 196.000 125 132 145
127.000 833.000 196.000 122 128 141
127.000 833.000 197.000 118 124 138
126.000 832.000 198.000 122 129 143
126.000 833.000 198.000 122 129 142
126.000 833.000 199.000 125 132 146
127.000 833.000 198.000 118 124 138
126.000 834.000 199.000 125 133 147
127.000 834.000 198.000 117 126 141
127.000 834.000 199.000 124 133 147
127.000 835.000 198.000 121 130 146
127.000 835.000 199.000 127 136 151
127.000 836.000 199.000 128 137 152
124.000 832.000 201.000 127 134 148
124.000 833.000 201.000 125 133 147
125.000 832.000 200.000 125 131 145
125.000 833.000 200.000 129 135 149
125.000 833.000 201.000 128 136 149
125.000 834.000 201.000 127 135 149
126.000 833.000 200.000 130 137 151
126.000 834.000 200.000 128 136 151
126.000 834.000 201.000 128 136 151
126.000 835.000 200.000 128 137 152
126.000 835.000 201.000 128 137 151
127.000 835.000 200.000 129 138 153
126.000 835.000 202.000 128 137 152
127.000 836.000 200.000 132 140 155
127.000 836.000 201.000 133 140 155
127.000 837.000 200.000 130 138 153
131.000 831.000 191.000 113 120 132
133.000 831.000 189.000 118 125 138
132.000 831.000 190.000 119 126 139
132.000 831.000 191.000 116 123 136
133.000 831.000 190.000 122 129 142
134.000 831.000 189.000 122 130 143
143.000 831.000 183.000 128 137 151
138.000 831.000 187.000 122 131 144
139.000 831.000 186.000 117 125 139
136.000 831.000 188.000 117 126 140
140.000 831.000 185.000 117 124 138
141.000 831.000 185.000 119 127 141
142.000 831.000 184.000 129 136 151
155.000 831.000 175.000 132 140 155
156.000 831.000 175.000 136 143 158
157.000 831.000 174.000 132 140 155
158.000 831.000 173.000 127 136 151
158.000 831.000 174.000 130 139 153
145.000 831.000 181.000 109 119 133
144.000 831.000 182.000 118 128 142
145.000 831.000 182.000 112 122 136
151.000 831.000 178.000 115 123 137
148.000 831.000 180.000 121 130 143
153.000 831.000 177.000 125 132 146
154.000 831.000 176.000 127 135 149
129.000 830.000 193.000 99 107 120
129.000 831.000 193.000 106 114 126
128.000 831.000 194.000 108 116 130
130.000 831.000 192.000 109 116 128
131.000 832.000 191.000 110 117 130
132.000 832.000 190.000 123 130 143
132.000 832.000 191.000 117 124 137
132.000 833.000 191.000 119 125 138
133.000 832.000 190.000 131 138 151
133.000 833.000 191.000 123 130 143
134.000 832.000 190.000 134 142 156
134.000 833.000 191.000 126 133 147
134.000 835.000 191.000 118 125 139
135.000 834.000 191.000 132 140 154
135.000 835.000 191.000 124 132 146
135.000 836.000 191.000 115 122 135
139.000 832.000 187.000 119 128 142
136.000 832.000 189.000 126 134 149
137.000 833.000 189.000 116 126 141
137.000 834.000 189.000 114 123 137
137.000 835.000 189.000 119 127 141
136.000 834.000 190.000 121 131 146
136.000 835.000 190.000 125 133 148
136.000 835.000 191.000 130 138 152
137.000 835.000 190.000 120 127 141
139.000 833.000 188.000 122 131 145
138.000 834.000 188.000 119 128 142
138.000 834.000 189.000 118 127 141
138.000 835.000 189.000 117 126 140
139.000 834.000 188.000 120 129 143
139.000 835.000 188.000 118 127 142
139.000 835.000 189.000 116 125 140
136.000 836.000 190.000 121 129 142
136.000 836.000 191.000 120 126 139
136.000 837.000 191.000 109 116 128
137.000 836.000 190.000 118 125 138
137.000 836.000 191.000 116 123 136
137.000 837.000 191.000 109 116 129
137.000 838.000 191.000 109 117 131
138.000 836.000 189.000 110 119 133
139.000 836.000 189.000 111 119 133
139.000 837.000 189.000 111 118 131
138.000 836.000 190.000 113 120 134
138.000 837.000 190.000 111 118 131
138.000 837.000 191.000 111 118 131
139.000 837.000 190.000 113 119 131
138.000 838.000 191.000 111 120 134
139.000 838.000 190.000 113 119 132
139.000 838.000 191.000 111 119 132
139.000 839.000 191.000 113 122 137
140.000 832.000 186.000 110 118 131
140.000 833.000 187.000 114 123 137
141.000 833.000 186.000 110 117 131
140.000 834.000 187.000 109 118 133
140.000 835.000 187.000 107 116 130
141.000 834.000 186.000 108 116 130
141.000 834.000 187.000 106 114 128
141.000 835.000 187.000 106 115 129
142.000 834.000 185.000 122 128 141
143.000 834.000 184.000 127 134 148
143.000 834.000 185.000 122 130 143
143.000 835.000 185.000 122 130 144
142.000 834.000 186.000 116 122 135
142.000 835.000 186.000 113 120 134
142.000 835.000 187.000 110 117 131
143.000 835.000 186.000 119 126 140
140.000 835.000 188.000 112 121 135
141.000 836.000 187.000 110 118 132
142.000 836.000 187.000 109 116 130
142.000 837.000 187.000 104 112 126
143.000 836.000 186.000 118 126 140
143.000 836.000 187.000 110 119 133
143.000 837.000 187.000 111 119 133
143.000 838.000 187.000 109 117 131
140.000 836.000 188.000 113 121 135
140.000 836.000 189.000 113 121 134
140.000 837.000 189.000 113 120 133
141.000 836.000 188.000 110 119 132
141.000 837.000 188.000 110 117 130
141.000 837.000 189.000 112 119 132
140.000 837.000 190.000 115 121 133
141.000 838.000 189.000 114 121 134
140.000 838.000 190.000 113 120 132
140.000 839.000 190.000 109 116 130
140.000 839.000 191.000 110 119 133
141.000 838.000 190.000 112 120 133
141.000 839.000 190.000 107 115 129
142.000 837.000 188.000 107 115 128
142.000 838.000 188.000 111 119 132
142.000 838.000 189.000 114 122 135
142.000 839.000 189.000 110 117 131
143.000 838.000 188.000 111 118 132
143.000 839.000 188.000 113 120 133
143.000 839.000 189.000 110 117 129
142.000 839.000 190.000 105 114 127
139.000 840.000 191.000 121 131 146
140.000 840.000 191.000 121 130 145
141.000 840.000 190.000 108 117 131
141.000 840.000 191.000 118 127 142
141.000 841.000 191.000 129 137 152
142.000 840.000 189.000 104 112 125
143.000 840.000 189.000 108 115 128
142.000 840.000 190.000 110 118 132
142.000 840.000 191.000 119 128 142
142.000 841.000 190.000 121 129 143
142.000 841.000 191.000 125 133 148
143.000 840.000 190.000 114 122 135
143.000 841.000 190.000 121 129 144
142.000 842.000 191.000 132 139 154
143.000 842.000 190.000 128 137 152
143.000 842.000 191.000 134 142 156
143.000 843.000 191.000 140 148 163
156.000 832.000 175.000 132 140 155
157.000 832.000 175.000 134 142 157
157.000 833.000 175.000 132 141 156
158.000 832.000 174.000 133 141 156
158.000 833.000 174.000 135 143 158
158.000 833.000 175.000 134 143 158
159.000 832.000 174.000 130 139 155
159.000 833.000 175.000 136 145 160
158.000 834.000 175.000 134 143 158
159.000 834.000 175.000 135 144 159
145.000 832.000 182.000 114 124 138
145.000 834.000 183.000 124 132 147
146.000 832.000 182.000 109 119 134
146.000 833.000 182.000 110 119 134
147.000 833.000 182.000 102 112 127
146.000 834.000 182.000 113 122 136
146.000 834.000 183.000 121 129 144
146.000 835.000 183.000 127 135 150
147.000 834.000 182.000 109 118 132
147.000 835.000 182.000 113 122 136
147.000 835.000 183.000 119 128 142
147.000 836.000 183.000 125 132 147
150.000 833.000 179.000 115 123 137
151.000 832.000 178.000 113 121 134
151.000 833.000 179.000 113 121 134
151.000 834.000 179.000 115 122 136
149.000 833.000 181.000 106 115 129
148.000 834.000 181.000 104 112 127
149.000 834.000 181.000 106 114 128
149.000 835.000 181.000 109 116 130
148.000 834.000 182.000 107 116 130
148.000 835.000 182.000 112 120 134
149.000 835.000 182.000 111 118 133
150.000 833.000 180.000 110 118 132
150.000 834.000 180.000 113 121 134
150.000 834.000 181.000 109 117 130
150.000 835.000 181.000 111 119 132
151.000 834.000 180.000 115 123 136
151.000 835.000 180.000 118 126 139
151.000 835.000 181.000 117 125 138
148.000 836.000 182.000 113 122 136
148.000 836.000 183.000 117 126 140
148.000 837.000 183.000 120 129 143
149.000 836.000 182.000 112 120 135
149.000 837.000 182.000 113 122 136
149.000 837.000 183.000 116 125 139
149.000 838.000 183.000 119 127 142
150.000 836.000 181.000 112 120 134
151.000 836.000 181.000 119 128 142
151.000 837.000 181.000 116 124 138
150.000 836.000 182.000 112 120 134
150.000 837.000 182.000 113 121 135
150.000 837.000 183.000 116 124 138
151.000 837.000 182.000 113 121 135
150.000 838.000 183.000 114 123 137
150.000 839.000 183.000 117 125 139
151.000 838.000 182.000 110 119 134
151.000 838.000 183.000 111 120 134
151.000 839.000 183.000 115 123 138
144.000 834.000 184.000 127 135 149
144.000 834.000 185.000 124 132 146
144.000 835.000 185.000 129 137 152
145.000 834.000 184.000 128 136 150
145.000 835.000 184.000 134 142 156
145.000 835.000 185.000 136 144 158
146.000 835.000 184.000 134 142 156
144.000 836.000 185.000 135 143 157
145.000 836.000 185.000 139 147 161
145.000 837.000 185.000 137 146 161
144.000 836.000 186.000 131 139 153
144.000 837.000 186.000 131 139 153
144.000 837.000 187.000 122 130 143
145.000 837.000 186.000 135 144 158
144.000 838.000 187.000 118 125 139
144.000 839.000 187.000 117 124 137
145.000 838.000 186.000 129 137 151
145.000 838.000 187.000 124 132 146
145.000 839.000 187.000 120 127 141
146.000 836.000 184.000 137 145 160
146.000 836.000 185.000 142 150 165
146.000 837.000 184.000 135 144 159
146.000 837.000 185.000 139 147 162
147.000 836.000 184.000 131 139 154
147.000 837.000 184.000 129 137 152
147.000 837.000 185.000 133 142 157
146.000 837.000 186.000 139 147 162
146.000 838.000 185.000 141 149 163
147.000 838.000 185.000 135 143 158
147.000 839.000 185.000 129 137 152
146.000 838.000 186.000 135 143 157
146.000 839.000 186.000 123 132 146
146.000 839.000 187.000 119 127 140
147.000 839.000 186.000 123 131 146
144.000 839.000 188.000 116 123 135
148.000 837.000 184.000 123 131 146
148.000 838.000 184.000 126 134 149
148.000 838.000 185.000 129 137 152
148.000 839.000 185.000 127 135 149
149.000 838.000 184.000 123 131 145
149.000 839.000 184.000 127 134 148
149.000 839.000 185.000 127 135 149
150.000 839.000 184.000 122 130 144
151.000 840.000 183.000 117 125 140
145.000 840.000 187.000 117 124 137
146.000 840.000 186.000 119 127 141
146.000 840.000 187.000 115 123 137
146.000 841.000 187.000 107 116 131
147.000 840.000 186.000 121 129 143
147.000 840.000 187.000 117 124 139
147.000 841.000 187.000 111 119 135
147.000 842.000 187.000 110 119 134
144.000 840.000 188.000 113 119 132
144.000 840.000 189.000 109 116 129
144.000 841.000 189.000 116 124 139
145.000 840.000 188.000 112 119 132
145.000 841.000 188.000 109 118 132
145.000 841.000 189.000 114 123 138
144.000 841.000 190.000 121 130 144
145.000 842.000 189.000 125 133 148
145.000 843.000 189.000 134 142 157
144.000 842.000 190.000 129 137 152
144.000 843.000 190.000 136 144 159
144.000 843.000 191.000 141 149 164
145.000 842.000 190.000 131 139 154
145.000 843.000 190.000 137 145 160
146.000 841.000 188.000 108 116 132
146.000 842.000 188.000 118 127 143
146.000 842.000 189.000 126 135 150
146.000 843.000 189.000 133 142 157
147.000 842.000 188.000 116 126 141
147.000 843.000 188.000 129 139 154
147.000 843.000 189.000 133 142 157
144.000 844.000 191.000 140 148 163
145.000 844.000 190.000 135 143 158
145.000 844.000 191.000 133 141 157
146.000 844.000 189.000 135 144 159
147.000 844.000 189.000 136 145 161
147.000 845.000 189.000 139 148 164
146.000 844.000 190.000 134 142 157
146.000 845.000 191.000 131 139 154
147.000 844.000 190.000 137 145 161
147.000 845.000 190.000 139 147 163
147.000 845.000 191.000 139 147 163
146.000 846.000 191.000 128 136 152
147.000 846.000 191.000 131 140 156
148.000 840.000 185.000 125 133 147
149.000 840.000 184.000 126 133 147
149.000 840.000 185.000 126 134 148
149.000 841.000 185.000 127 134 148
148.000 840.000 186.000 125 133 146
148.000 841.000 186.000 122 130 143
148.000 841.000 187.000 112 121 135
149.000 841.000 186.000 124 131 145
148.000 842.000 187.000 111 121 136
148.000 843.000 187.000 120 129 145
149.000 842.000 186.000 114 122 138
149.000 842.000 187.000 111 121 137
149.000 843.000 187.000 120 130 146
150.000 840.000 184.000 123 131 145
150.000 841.000 184.000 125 133 146
150.000 841.000 185.000 127 134 147
151.000 840.000 184.000 120 128 142
151.000 841.000 184.000 122 130 144
151.000 841.000 185.000 126 133 147
150.000 841.000 186.000 125 132 145
150.000 842.000 185.000 125 132 145
151.000 842.000 185.000 123 131 145
150.000 842.000 186.000 118 126 140
150.000 843.000 186.000 115 124 140
150.000 843.000 187.000 122 132 147
151.000 843.000 186.000 113 122 138
148.000 843.000 188.000 126 136 151
149.000 844.000 187.000 132 141 156
150.000 844.000 187.000 134 143 159
150.000 845.000 187.000 147 156 172
151.000 844.000 186.000 126 136 152
151.000 844.000 187.000 137 146 161
151.000 845.000 187.000 144 153 169
148.000 844.000 188.000 134 144 160
148.000 844.000 189.000 138 148 164
148.000 845.000 189.000 142 152 168
149.000 844.000 188.000 134 143 160
149.000 845.000 188.000 140 150 167
149.000 845.000 189.000 144 154 171
148.000 845.000 190.000 143 152 168
149.000 846.000 189.000 143 153 170
148.000 846.000 190.000 138 148 165
148.000 846.000 191.000 134 143 159
148.000 847.000 191.000 128 138 155
149.000 846.000 190.000 136 147 164
149.000 847.000 190.000 133 144 162
149.000 847.000 191.000 132 142 160
150.000 844.000 188.000 136 145 162
150.000 845.000 188.000 148 157 174
150.000 845.000 189.000 147 157 174
151.000 845.000 188.000 148 156 173
150.000 846.000 188.000 147 158 175
150.000 846.000 189.000 143 154 172
150.000 847.000 189.000 144 156 174
151.000 846.000 188.000 147 157 174
151.000 846.000 189.000 148 158 176
151.000 847.000 189.000 142 152 170
150.000 846.000 190.000 140 151 170
150.000 847.000 190.000 143 155 173
150.000 847.000 191.000 134 146 165
151.000 847.000 190.000 149 160 177
152.000 832.000 177.000 120 128 141
153.000 832.000 177.000 123 130 144
153.000 833.000 177.000 119 126 140
152.000 832.000 178.000 117 125 139
152.000 833.000 178.000 117 124 138
152.000 833.000 179.000 116 124 138
153.000 833.000 178.000 117 125 139
152.000 834.000 179.000 115 123 138
153.000 834.000 178.000 115 125 140
153.000 834.000 179.000 117 127 143
153.000 835.000 179.000 124 133 148
154.000 832.000 176.000 124 131 146
154.000 832.000 177.000 121 129 143
154.000 833.000 177.000 117 126 140
155.000 832.000 176.000 127 135 150
155.000 833.000 176.000 124 133 148
155.000 833.000 177.000 122 132 147
154.000 833.000 178.000 114 123 139
155.000 834.000 177.000 128 137 153
154.000 834.000 178.000 118 128 143
154.000 835.000 178.000 122 132 148
154.000 835.000 179.000 127 137 153
155.000 834.000 178.000 125 134 150
155.000 835.000 178.000 129 139 155
152.000 834.000 180.000 114 123 137
152.000 835.000 180.000 120 129 143
153.000 835.000 180.000 122 131 145
153.000 836.000 179.000 132 141 156
154.000 836.000 179.000 129 139 154
154.000 837.000 179.000 123 133 149
155.000 836.000 178.000 134 144 160
155.000 836.000 179.000 133 143 158
155.000 837.000 179.000 125 135 152
152.000 836.000 180.000 129 137 151
152.000 836.000 181.000 123 132 146
152.000 837.000 181.000 115 123 138
153.000 836.000 180.000 133 141 156
153.000 837.000 180.000 132 140 154
153.000 837.000 181.000 122 130 145
152.000 837.000 182.000 111 120 134
153.000 838.000 181.000 118 126 141
152.000 838.000 182.000 110 119 133
152.000 839.000 182.000 111 120 134
152.000 839.000 183.000 112 121 135
153.000 838.000 182.000 113 122 137
153.000 839.000 182.000 113 122 137
154.000 837.000 180.000 127 137 152
155.000 837.000 180.000 118 130 146
154.000 838.000 180.000 125 135 151
154.000 838.000 181.000 125 134 149
154.000 839.000 181.000 123 133 148
155.000 838.000 180.000 124 135 152
155.000 839.000 180.000 126 136 152
155.000 839.000 181.000 134 143 158
154.000 839.000 182.000 117 126 141
156.000 833.000 176.000 132 141 157
157.000 833.000 176.000 133 143 159
156.000 834.000 177.000 142 151 166
156.000 835.000 177.000 137 147 162
157.000 834.000 176.000 142 151 167
157.000 834.000 177.000 150 158 173
157.000 835.000 176.000 138 147 163
157.000 835.000 177.000 141 150 165
156.000 835.000 178.000 134 144 159
158.000 834.000 176.000 132 142 157
158.000 835.000 176.000 131 140 156
158.000 835.000 177.000 133 142 158
159.000 835.000 176.000 133 142 157
157.000 836.000 177.000 137 146 162
156.000 836.000 178.000 136 145 161
156.000 837.000 178.000 129 140 156
156.000 837.000 179.000 121 132 149
157.000 836.000 178.000 134 144 160
157.000 837.000 178.000 133 143 160
157.000 837.000 179.000 126 137 153
156.000 838.000 179.000 120 130 147
157.000 838.000 179.000 123 134 151
157.000 839.000 179.000 117 127 143
158.000 836.000 177.000 135 144 160
158.000 837.000 177.000 133 142 158
159.000 836.000 176.000 131 140 155
159.000 836.000 177.000 133 141 156
159.000 837.000 177.000 132 141 156
158.000 837.000 178.000 134 144 160
159.000 837.000 178.000 133 142 157
158.000 838.000 178.000 138 147 163
158.000 838.000 179.000 129 139 155
158.000 839.000 179.000 121 130 146
159.000 838.000 178.000 134 143 159
159.000 839.000 178.000 129 138 153
159.000 839.000 179.000 123 132 147
156.000 838.000 180.000 120 131 148
156.000 839.000 180.000 120 131 147
157.000 839.000 180.000 118 128 144
152.000 840.000 183.000 114 122 136
153.000 840.000 182.000 113 122 136
153.000 840.000 183.000 113 121 136
153.000 841.000 183.000 115 124 138
155.000 840.000 181.000 128 136 151
154.000 840.000 182.000 118 128 142
154.000 841.000 182.000 117 126 140
154.000 841.000 183.000 116 126 140
155.000 840.000 182.000 123 131 146
155.000 841.000 182.000 124 132 146
155.000 841.000 183.000 124 132 146
154.000 842.000 183.000 125 134 148
155.000 842.000 183.000 127 135 148
155.000 843.000 183.000 131 138 152
159.000 840.000 179.000 118 127 142
156.000 840.000 181.000 123 132 147
156.000 841.000 181.000 122 130 144
157.000 840.000 180.000 120 128 143
157.000 840.000 181.000 121 130 145
157.000 841.000 180.000 121 128 141
157.000 841.000 181.000 120 128 141
156.000 841.000 182.000 123 130 144
157.000 841.000 182.000 118 126 139
157.000 842.000 181.000 116 123 136
156.000 842.000 182.000 119 127 141
156.000 842.000 183.000 123 131 144
156.000 843.000 183.000 122 130 143
157.000 842.000 182.000 116 123 137
157.000 843.000 182.000 118 125 139
157.000 843.000 183.000 120 127 140
158.000 840.000 180.000 118 126 141
158.000 841.000 180.000 119 126 141
158.000 841.000 181.000 120 127 141
159.000 840.000 180.000 117 125 140
159.000 841.000 180.000 118 126 141
159.000 841.000 181.000 117 125 139
158.000 842.000 181.000 116 124 137
159.000 842.000 181.000 115 124 138
158.000 843.000 182.000 116 124 138
156.000 844.000 183.000 116 123 137
157.000 844.000 183.000 110 118 132
157.000 845.000 183.000 108 118 133
158.000 844.000 182.000 115 123 137
158.000 844.000 183.000 106 115 129
158.000 845.000 183.000 111 120 134
152.000 840.000 184.000 116 124 138
152.000 841.000 184.000 120 128 142
153.000 841.000 184.000 118 127 141
152.000 842.000 184.000 122 131 145
152.000 842.000 185.000 123 130 144
152.000 843.000 185.000 114 122 138
153.000 842.000 184.000 123 132 147
153.000 842.000 185.000 120 129 144
153.000 843.000 184.000 125 134 149
153.000 843.000 185.000 116 126 142
152.000 843.000 186.000 113 122 138
154.000 842.000 184.000 129 138 152
154.000 843.000 184.000 125 134 149
155.000 843.000 184.000 126 134 148
153.000 844.000 185.000 116 127 144
152.000 844.000 186.000 120 131 148
152.000 845.000 186.000 129 139 156
152.000 845.000 187.000 134 144 160
153.000 844.000 186.000 120 131 149
153.000 845.000 186.000 131 142 159
153.000 845.000 187.000 136 144 161
152.000 846.000 187.000 137 146 161
153.000 846.000 187.000 137 146 162
153.000 847.000 187.000 132 140 156
154.000 844.000 184.000 111 123 139
154.000 844.000 185.000 115 126 144
154.000 845.000 185.000 127 139 157
155.000 844.000 184.000 111 122 138
155.000 845.000 185.000 130 139 156
154.000 845.000 186.000 135 146 162
154.000 846.000 186.000 140 148 164
154.000 846.000 187.000 139 146 162
154.000 847.000 187.000 134 141 157
155.000 846.000 186.000 138 146 161
155.000 847.000 186.000 137 144 159
155.000 847.000 187.000 134 141 157
152.000 846.000 188.000 140 149 165
152.000 847.000 188.000 136 146 162
152.000 847.000 189.000 133 142 159
153.000 846.000 188.000 136 144 160
153.000 847.000 188.000 130 138 154
154.000 847.000 188.000 130 137 153
156.000 844.000 184.000 112 122 137
156.000 845.000 184.000 123 133 148
156.000 845.000 185.000 128 137 153
157.000 844.000 184.000 108 118 133
157.000 845.000 184.000 121 130 145
156.000 846.000 185.000 133 142 157
157.000 846.000 184.000 133 141 155
157.000 846.000 185.000 134 143 157
157.000 847.000 185.000 134 142 157
156.000 846.000 186.000 136 143 159
156.000 847.000 186.000 135 142 157
157.000 847.000 186.000 131 139 154
158.000 845.000 184.000 119 128 142
149.000 848.000 191.000 134 146 165
150.000 848.000 190.000 141 153 172
150.000 848.000 191.000 142 153 172
151.000 848.000 190.000 143 154 172
151.000 848.000 191.000 142 153 171
151.000 849.000 191.000 146 157 174
155.000 848.000 187.000 132 139 154
152.000 848.000 189.000 137 148 165
153.000 848.000 189.000 131 140 156
152.000 848.000 190.000 141 152 170
152.000 849.000 191.000 149 159 176
153.000 848.000 190.000 143 153 170
153.000 849.000 190.000 149 158 175
153.000 849.000 191.000 155 163 179
153.000 850.000 191.000 148 156 173
154.000 848.000 188.000 130 138 153
154.000 848.000 189.000 132 141 156
154.000 849.000 189.000 132 141 157
155.000 848.000 188.000 132 140 155
155.000 849.000 188.000 131 138 154
155.000 849.000 189.000 131 139 154
154.000 849.000 190.000 139 148 164
154.000 849.000 191.000 147 156 171
155.000 849.000 190.000 134 142 157
154.000 850.000 190.000 137 146 161
154.000 850.000 191.000 141 149 164
154.000 851.000 191.000 139 147 162
155.000 850.000 190.000 136 144 159
155.000 850.000 191.000 139 147 162
155.000 851.000 191.000 139 147 163
156.000 848.000 187.000 130 137 152
156.000 849.000 188.000 129 137 152
156.000 849.000 189.000 128 136 152
156.000 850.000 189.000 131 139 155
156.000 850.000 190.000 137 145 160
156.000 851.000 191.000 139 147 162
160.000 834.000 174.000 133 143 159
160.000 834.000 175.000 132 142 157
160.000 835.000 175.000 129 138 153
161.000 835.000 175.000 124 134 149
160.000 835.000 176.000 130 139 154
160.000 836.000 176.000 129 138 153
160.000 837.000 176.000 129 138 153
160.000 837.000 177.000 129 138 153
161.000 836.000 176.000 126 135 150
160.000 838.000 177.000 130 138 154
160.000 838.000 178.000 131 140 155
160.000 839.000 179.000 126 135 150
129.000 832.000 193.000 123 129 141
128.000 832.000 194.000 128 134 147
128.000 832.000 195.000 126 132 145
128.000 833.000 195.000 118 123 136
129.000 832.000 194.000 132 137 149
129.000 833.000 194.000 123 129 141
129.000 834.000 195.000 115 121 134
129.000 835.000 195.000 119 126 139
130.000 832.000 192.000 113 119 132
130.000 832.000 193.000 121 127 139
130.000 833.000 193.000 115 121 134
131.000 832.000 192.000 110 117 130
131.000 833.000 192.000 117 123 136
131.000 833.000 193.000 114 120 133
130.000 833.000 194.000 118 124 136
131.000 834.000 193.000 105 112 125
130.000 834.000 194.000 112 119 132
130.000 835.000 195.000 115 123 137
131.000 834.000 194.000 105 112 126
131.000 835.000 194.000 105 113 127
131.000 835.000 195.000 108 117 132
128.000 833.000 196.000 114 119 133
128.000 833.000 197.000 107 114 129
128.000 834.000 196.000 111 118 133
128.000 834.000 197.000 108 117 132
128.000 835.000 197.000 115 125 141
129.000 834.000 196.000 115 122 136
129.000 835.000 196.000 122 130 144
129.000 835.000 197.000 124 133 148
128.000 834.000 198.000 113 122 138
128.000 835.000 198.000 115 126 142
130.000 836.000 195.000 123 131 146
131.000 836.000 194.000 110 119 134
131.000 836.000 195.000 121 129 144
131.000 837.000 195.000 131 139 153
129.000 836.000 196.000 130 138 153
129.000 836.000 197.000 134 142 157
129.000 837.000 197.000 138 146 161
128.000 836.000 198.000 123 132 149
128.000 836.000 199.000 125 133 150
128.000 837.000 198.000 128 136 152
128.000 837.000 199.000 129 137 152
129.000 836.000 198.000 132 141 157
129.000 837.000 198.000 138 145 160
129.000 837.000 199.000 139 146 161
129.000 838.000 198.000 140 148 162
129.000 838.000 199.000 141 148 163
129.000 839.000 199.000 134 142 157
130.000 836.000 196.000 128 136 151
130.000 837.000 196.000 133 141 155
130.000 837.000 197.000 135 143 157
131.000 837.000 196.000 135 142 157
130.000 837.000 198.000 139 146 160
130.000 838.000 197.000 138 146 160
131.000 838.000 196.000 139 147 162
131.000 838.000 197.000 141 149 164
131.000 839.000 197.000 137 146 161
130.000 838.000 198.000 137 145 159
130.000 839.000 198.000 132 140 155
130.000 839.000 199.000 130 138 153
131.000 839.000 198.000 135 143 157
132.000 833.000 192.000 118 124 137
133.000 833.000 192.000 118 124 136
132.000 835.000 193.000 99 107 120
133.000 834.000 192.000 110 116 129
133.000 835.000 192.000 99 107 120
133.000 835.000 193.000 97 105 118
132.000 835.000 194.000 103 111 125
134.000 835.000 192.000 106 114 127
133.000 836.000 192.000 98 106 120
133.000 836.000 193.000 103 111 125
133.000 837.000 193.000 114 123 138
132.000 836.000 194.000 111 120 133
132.000 836.000 195.000 119 128 142
132.000 837.000 195.000 128 137 152
133.000 836.000 194.000 112 120 133
133.000 837.000 194.000 122 131 147
133.000 837.000 195.000 131 140 155
132.000 838.000 195.000 135 144 159
133.000 838.000 194.000 137 146 162
133.000 838.000 195.000 141 149 165
133.000 839.000 195.000 145 153 168
134.000 836.000 192.000 101 109 122
134.000 837.000 193.000 111 120 134
135.000 836.000 192.000 104 112 126
135.000 837.000 192.000 103 111 125
135.000 837.000 193.000 109 119 133
134.000 838.000 193.000 123 133 149
135.000 838.000 193.000 123 133 148
134.000 838.000 194.000 131 141 157
134.000 839.000 194.000 142 151 167
134.000 839.000 195.000 144 153 169
135.000 838.000 194.000 130 140 156
135.000 839.000 194.000 139 148 164
132.000 838.000 196.000 137 145 160
132.000 839.000 196.000 136 145 160
133.000 839.000 196.000 139 147 163
128.000 837.000 200.000 128 135 151
128.000 837.000 201.000 127 134 150
128.000 838.000 200.000 135 142 158
129.000 838.000 200.000 139 147 162
129.000 839.000 200.000 133 142 157
130.000 840.000 199.000 130 138 152
131.000 840.000 198.000 130 138 154
131.000 840.000 199.000 129 137 153
131.000 841.000 199.000 133 143 159
134.000 840.000 195.000 142 151 168
135.000 840.000 194.000 142 150 166
135.000 840.000 195.000 141 150 166
135.000 841.000 195.000 142 152 168
132.000 840.000 196.000 133 142 158
132.000 840.000 197.000 129 140 156
133.000 840.000 196.000 135 145 161
133.000 840.000 197.000 133 144 161
133.000 841.000 197.000 139 150 167
132.000 840.000 198.000 130 140 156
132.000 841.000 198.000 138 148 165
132.000 841.000 199.000 145 154 170
133.000 841.000 198.000 142 153 169
132.000 842.000 198.000 150 159 176
132.000 842.000 199.000 148 157 173
133.000 842.000 198.000 146 156 173
133.000 843.000 198.000 145 154 171
133.000 843.000 199.000 144 152 168
134.000 840.000 196.000 141 151 167
134.000 841.000 196.000 146 156 172
135.000 841.000 196.000 149 159 175
134.000 842.000 197.000 143 154 171
135.000 842.000 196.000 150 159 176
135.000 842.000 197.000 146 155 172
135.000 843.000 197.000 146 155 171
134.000 842.000 198.000 142 152 169
134.000 843.000 198.000 139 149 165
134.000 843.000 199.000 138 147 162
135.000 843.000 198.000 136 145 161
134.000 844.000 199.000 133 141 156
135.000 844.000 198.000 131 139 155
135.000 844.000 199.000 132 140 156
135.000 845.000 199.000 132 141 157
129.000 840.000 200.000 133 141 156
130.000 840.000 200.000 132 140 155
130.000 840.000 201.000 133 140 155
130.000 841.000 200.000 129 138 153
131.000 841.000 200.000 127 137 153
131.000 841.000 201.000 125 134 150
131.000 842.000 200.000 129 138 155
131.000 842.000 201.000 126 135 151
132.000 842.000 200.000 140 149 166
132.000 843.000 200.000 138 147 162
133.000 843.000 200.000 137 146 161
133.000 844.000 200.000 132 141 156
134.000 844.000 200.000 132 140 156
134.000 844.000 201.000 131 139 155
134.000 845.000 201.000 135 143 159
135.000 844.000 200.000 132 141 157
135.000 845.000 200.000 134 143 160
135.000 845.000 201.000 139 147 163
134.000 845.000 202.000 136 144 160
135.000 846.000 201.000 141 149 165
136.000 837.000 192.000 104 113 127
136.000 838.000 192.000 110 120 136
136.000 838.000 193.000 117 127 143
136.000 839.000 193.000 131 141 157
137.000 838.000 192.000 110 120 135
137.000 839.000 192.000 126 136 153
137.000 839.000 193.000 132 142 158
136.000 839.000 194.000 139 147 163
138.000 838.000 192.000 113 123 138
138.000 839.000 192.000 123 133 149
139.000 839.000 192.000 122 131 147
136.000 840.000 193.000 142 150 165
137.000 840.000 193.000 140 148 163
136.000 840.000 194.000 140 148 163
136.000 840.000 195.000 137 145 162
136.000 841.000 194.000 132 140 156
136.000 841.000 195.000 135 143 160
137.000 840.000 194.000 139 146 160
137.000 841.000 194.000 132 139 155
136.000 842.000 195.000 139 148 165
137.000 842.000 195.000 130 138 154
137.000 843.000 195.000 133 141 157
138.000 840.000 192.000 135 144 159
138.000 840.000 193.000 138 146 162
138.000 841.000 193.000 136 143 159
139.000 840.000 192.000 130 139 154
139.000 840.000 193.000 134 142 158
139.000 841.000 192.000 132 140 155
139.000 841.000 193.000 131 138 154
138.000 841.000 194.000 132 139 155
139.000 842.000 193.000 128 136 151
138.000 842.000 194.000 129 137 152
138.000 842.000 195.000 129 137 152
138.000 843.000 195.000 132 140 155
139.000 842.000 194.000 129 136 151
139.000 843.000 194.000 130 138 153
139.000 843.000 195.000 131 140 155
136.000 842.000 196.000 144 153 169
136.000 843.000 196.000 146 155 171
136.000 843.000 197.000 142 151 166
137.000 843.000 196.000 136 145 161
138.000 844.000 195.000 135 143 158
139.000 844.000 194.000 131 139 154
139.000 844.000 195.000 133 141 156
136.000 844.000 197.000 134 143 158
137.000 844.000 196.000 135 144 159
137.000 844.000 197.000 134 142 157
136.000 844.000 198.000 131 139 155
136.000 845.000 198.000 131 139 155
136.000 845.000 199.000 132 141 157
137.000 844.000 198.000 131 139 154
137.000 845.000 198.000 133 141 156
136.000 846.000 199.000 134 143 160
137.000 846.000 198.000 134 142 158
137.000 846.000 199.000 137 146 162
138.000 844.000 196.000 136 144 159
138.000 844.000 197.000 134 142 157
138.000 845.000 197.000 134 142 157
139.000 844.000 196.000 135 143 158
139.000 845.000 196.000 135 142 157
139.000 845.000 197.000 136 144 158
138.000 845.000 198.000 135 143 158
139.000 846.000 197.000 136 144 160
138.000 846.000 198.000 135 144 159
138.000 846.000 199.000 143 152 167
138.000 847.000 199.000 150 159 175
139.000 846.000 198.000 135 144 159
139.000 847.000 198.000 137 146 161
139.000 847.000 199.000 145 154 170
140.000 840.000 192.000 129 138 153
140.000 841.000 192.000 133 141 156
141.000 841.000 192.000 132 139 154
140.000 842.000 192.000 133 140 154
140.000 842.000 193.000 130 137 152
140.000 843.000 193.000 130 137 151
141.000 842.000 192.000 132 138 153
141.000 843.000 192.000 128 134 149
141.000 843.000 193.000 128 135 150
140.000 843.000 194.000 130 137 152
142.000 842.000 192.000 130 138 152
142.000 843.000 192.000 128 135 150
142.000 843.000 193.000 125 132 147
143.000 843.000 192.000 136 144 159
141.000 844.000 193.000 126 134 149
140.000 844.000 194.000 130 137 152
140.000 844.000 195.000 132 140 154
140.000 845.000 195.000 132 140 154
141.000 844.000 194.000 128 136 151
141.000 845.000 194.000 132 140 154
141.000 845.000 195.000 133 141 156
141.000 846.000 195.000 132 140 156
142.000 844.000 192.000 128 137 152
142.000 844.000 193.000 127 136 150
142.000 845.000 193.000 132 140 154
143.000 844.000 192.000 137 145 160
143.000 844.000 193.000 132 141 156
143.000 845.000 193.000 131 140 154
142.000 844.000 194.000 129 138 152
142.000 845.000 194.000 133 141 156
143.000 845.000 194.000 135 143 157
142.000 846.000 195.000 134 143 159
143.000 846.000 194.000 136 144 159
143.000 846.000 195.000 135 144 159
143.000 847.000 195.000 135 144 161
140.000 845.000 196.000 134 141 155
140.000 846.000 196.000 134 143 158
140.000 846.000 197.000 137 145 161
140.000 847.000 197.000 142 150 166
141.000 846.000 196.000 134 143 159
141.000 847.000 196.000 139 149 165
141.000 847.000 197.000 147 156 173
140.000 847.000 198.000 139 148 164
140.000 847.000 199.000 138 147 163
141.000 847.000 198.000 151 160 176
142.000 847.000 196.000 144 154 170
142.000 847.000 197.000 154 163 180
143.000 847.000 196.000 148 157 174
136.000 845.000 200.000 136 145 162
136.000 846.000 200.000 140 149 165
136.000 846.000 201.000 141 149 165
136.000 847.000 201.000 141 150 166
137.000 846.000 200.000 144 153 169
137.000 847.000 200.000 151 160 176
137.000 847.000 201.000 146 155 172
137.000 847.000 202.000 141 150 167
138.000 847.000 200.000 157 166 182
138.000 847.000 201.000 158 166 182
139.000 847.000 200.000 157 166 182
139.000 848.000 199.000 144 153 170
140.000 848.000 199.000 140 149 165
141.000 848.000 198.000 148 157 173
141.000 848.000 199.000 141 150 167
141.000 849.000 199.000 138 146 163
142.000 848.000 197.000 155 164 181
143.000 848.000 196.000 148 156 174
143.000 848.000 197.000 152 160 177
142.000 848.000 198.000 152 161 177
142.000 848.000 199.000 145 154 171
142.000 849.000 199.000 138 147 164
143.000 848.000 198.000 149 158 174
143.000 849.000 198.000 142 150 167
143.000 849.000 199.000 135 144 161
143.000 850.000 199.000 134 143 160
138.000 848.000 201.000 154 162 179
139.000 848.000 200.000 153 161 177
139.000 848.000 201.000 152 161 177
139.000 849.000 201.000 144 152 169
138.000 848.000 203.000 145 154 170
139.000 849.000 202.000 142 151 168
139.000 849.000 203.000 142 151 169
140.000 848.000 200.000 141 150 166
140.000 849.000 200.000 138 146 164
140.000 849.000 201.000 139 148 164
141.000 849.000 200.000 137 145 162
141.000 849.000 201.000 136 145 162
140.000 849.000 202.000 139 148 165
141.000 850.000 201.000 137 146 163
141.000 850.000 202.000 141 150 167
141.000 850.000 203.000 145 154 171
142.000 849.000 200.000 136 144 161
143.000 849.000 200.000 133 142 159
142.000 850.000 200.000 135 144 161
142.000 850.000 201.000 137 146 163
143.000 850.000 200.000 135 144 161
143.000 850.000 201.000 138 147 164
143.000 851.000 201.000 140 149 166
142.000 850.000 202.000 142 151 167
142.000 851.000 203.000 144 153 171
143.000 850.000 202.000 142 151 168
143.000 851.000 202.000 145 154 171
143.000 851.000 203.000 148 157 174
144.000 844.000 192.000 135 144 159
144.000 845.000 192.000 129 138 153
144.000 845.000 193.000 131 139 154
145.000 845.000 192.000 130 138 154
144.000 846.000 193.000 134 142 157
145.000 846.000 192.000 131 139 154
145.000 846.000 193.000 134 141 157
144.000 846.000 194.000 135 143 158
144.000 847.000 194.000 134 142 157
144.000 847.000 195.000 134 142 158
145.000 847.000 194.000 135 142 158
145.000 847.000 195.000 135 143 158
146.000 845.000 192.000 129 137 153
146.000 846.000 192.000 129 137 152
146.000 846.000 193.000 132 140 155
146.000 847.000 192.000 130 137 153
146.000 847.000 193.000 134 141 157
147.000 847.000 192.000 128 136 152
147.000 847.000 193.000 134 142 158
146.000 847.000 194.000 135 143 159
148.000 847.000 192.000 129 139 156
144.000 848.000 195.000 139 147 164
145.000 848.000 195.000 136 144 160
147.000 848.000 193.000 136 144 160
146.000 848.000 194.000 136 144 159
146.000 848.000 195.000 136 144 160
146.000 849.000 195.000 137 145 161
147.000 848.000 194.000 136 145 161
147.000 848.000 195.000 136 145 160
147.000 849.000 194.000 136 145 161
147.000 849.000 195.000 139 147 162
144.000 848.000 196.000 143 151 168
144.000 848.000 197.000 145 154 171
144.000 849.000 197.000 144 152 169
145.000 848.000 196.000 139 147 163
145.000 849.000 196.000 137 145 162
145.000 849.000 197.000 138 146 162
144.000 849.000 198.000 141 150 166
144.000 849.000 199.000 136 144 161
145.000 849.000 198.000 139 147 163
144.000 850.000 198.000 136 144 160
144.000 850.000 199.000 134 142 159
145.000 850.000 198.000 136 145 161
145.000 850.000 199.000 135 143 160
145.000 851.000 199.000 135 144 161
146.000 849.000 196.000 137 145 161
146.000 849.000 197.000 136 145 161
147.000 849.000 196.000 141 149 165
146.000 850.000 197.000 139 147 164
147.000 850.000 196.000 143 151 167
147.000 850.000 197.000 145 154 171
147.000 851.000 197.000 148 157 174
146.000 850.000 198.000 138 147 163
146.000 851.000 198.000 140 149 167
146.000 851.000 199.000 143 152 170
147.000 850.000 198.000 144 153 169
147.000 851.000 198.000 151 161 178
147.000 851.000 199.000 153 164 182
147.000 852.000 199.000 160 171 190
148.000 848.000 192.000 139 149 166
148.000 848.000 193.000 144 153 170
149.000 848.000 192.000 145 155 172
149.000 848.000 193.000 153 161 178
149.000 849.000 193.000 152 160 176
148.000 848.000 194.000 142 150 166
148.000 849.000 194.000 142 150 166
148.000 849.000 195.000 138 147 163
149.000 849.000 194.000 145 154 169
148.000 850.000 195.000 141 149 165
149.000 850.000 194.000 139 148 164
149.000 850.000 195.000 141 149 165
150.000 848.000 192.000 147 158 175
150.000 849.000 192.000 149 159 176
150.000 849.000 193.000 148 157 173
151.000 849.000 192.000 148 157 174
150.000 849.000 194.000 143 152 168
150.000 850.000 193.000 142 151 167
151.000 850.000 192.000 141 150 166
151.000 850.000 193.000 139 148 164
150.000 850.000 194.000 137 145 161
150.000 850.000 195.000 138 147 163
150.000 851.000 195.000 139 147 164
151.000 850.000 194.000 135 143 159
151.000 851.000 194.000 138 146 162
151.000 851.000 195.000 140 149 165
148.000 850.000 196.000 143 151 168
148.000 850.000 197.000 146 155 172
148.000 851.000 197.000 144 154 172
149.000 850.000 196.000 142 150 167
149.000 851.000 196.000 141 150 167
149.000 851.000 197.000 140 150 167
148.000 851.000 198.000 155 165 183
149.000 851.000 198.000 147 157 175
150.000 851.000 196.000 142 150 167
150.000 851.000 197.000 139 148 165
148.000 852.000 198.000 163 173 192
148.000 852.000 199.000 164 175 193
149.000 852.000 198.000 153 163 180
149.000 852.000 199.000 159 170 188
149.000 853.000 199.000 157 168 187
150.000 852.000 196.000 142 151 167
150.000 852.000 197.000 141 150 166
151.000 852.000 196.000 141 150 166
151.000 852.000 197.000 139 148 164
151.000 853.000 197.000 136 146 162
150.000 852.000 198.000 147 157 174
150.000 853.000 198.000 146 156 172
150.000 853.000 199.000 150 160 177
151.000 853.000 198.000 140 149 166
151.000 853.000 199.000 142 152 169
151.000 854.000 199.000 143 152 170
144.000 850.000 200.000 135 143 160
144.000 851.000 200.000 136 144 161
144.000 851.000 201.000 139 147 164
145.000 851.000 200.000 137 145 162
145.000 851.000 201.000 139 147 164
144.000 851.000 202.000 142 151 168
146.000 851.000 200.000 143 153 170
145.000 852.000 201.000 140 149 167
144.000 852.000 203.000 152 161 177
145.000 852.000 202.000 142 151 168
145.000 852.000 203.000 147 156 173
146.000 852.000 200.000 145 156 174
146.000 852.000 201.000 146 156 174
147.000 852.000 200.000 157 169 186
147.000 852.000 201.000 159 169 187
147.000 853.000 201.000 162 172 190
146.000 852.000 202.000 147 157 174
146.000 853.000 202.000 149 159 176
147.000 853.000 202.000 155 165 183
147.000 853.000 203.000 148 158 175
144.000 852.000 204.000 158 167 184
146.000 853.000 204.000 147 157 175
148.000 852.000 200.000 161 173 191
148.000 853.000 200.000 159 171 189
148.000 853.000 201.000 158 169 187
149.000 853.000 200.000 157 168 187
149.000 853.000 201.000 153 164 183
148.000 853.000 202.000 154 164 182
149.000 854.000 201.000 152 163 181
148.000 854.000 202.000 151 161 179
149.000 854.000 202.000 152 161 179
149.000 854.000 203.000 152 161 178
150.000 853.000 200.000 152 163 181
150.000 854.000 200.000 147 158 175
150.000 854.000 201.000 150 160 178
151.000 854.000 200.000 146 156 173
151.000 854.000 201.000 149 158 175
151.000 855.000 201.000 149 158 175
150.000 854.000 202.000 152 161 178
150.000 855.000 202.000 151 160 177
150.000 855.000 203.000 147 156 173
151.000 855.000 202.000 148 157 174
151.000 855.000 203.000 145 154 171
151.000 856.000 203.000 144 153 171
151.000 857.000 205.000 153 164 184
152.000 850.000 192.000 140 148 165
152.000 850.000 193.000 133 141 158
152.000 851.000 193.000 133 141 158
153.000 850.000 192.000 136 144 162
153.000 851.000 193.000 134 141 159
152.000 851.000 194.000 137 145 161
152.000 851.000 195.000 139 148 164
153.000 851.000 194.000 136 146 162
154.000 850.000 192.000 136 144 161
154.000 851.000 192.000 137 145 162
154.000 851.000 193.000 137 146 163
155.000 851.000 192.000 138 147 163
152.000 852.000 195.000 139 148 164
153.000 852.000 194.000 140 149 165
153.000 852.000 195.000 142 151 167
154.000 852.000 193.000 141 151 168
155.000 852.000 192.000 139 147 164
155.000 852.000 193.000 143 152 169
154.000 852.000 194.000 144 154 171
154.000 852.000 195.000 145 154 171
154.000 853.000 194.000 151 160 178
154.000 853.000 195.000 146 156 173
155.000 852.000 194.000 152 162 179
155.000 853.000 194.000 159 168 185
155.000 853.000 195.000 153 162 179
152.000 852.000 196.000 138 147 163
152.000 852.000 197.000 136 145 161
152.000 853.000 197.000 134 143 160
153.000 852.000 196.000 140 148 165
153.000 853.000 196.000 139 148 165
153.000 853.000 197.000 135 144 161
152.000 853.000 198.000 136 145 163
153.000 853.000 198.000 134 143 160
152.000 854.000 198.000 138 147 164
152.000 854.000 199.000 143 152 169
153.000 854.000 198.000 137 146 163
153.000 854.000 199.000 141 150 167
153.000 855.000 199.000 142 151 168
154.000 853.000 196.000 140 149 167
154.000 853.000 197.000 136 145 162
154.000 854.000 196.000 138 147 164
154.000 854.000 197.000 137 146 162
155.000 854.000 196.000 141 149 167
155.000 854.000 197.000 139 148 164
154.000 854.000 198.000 138 147 164
154.000 855.000 198.000 141 151 169
154.000 855.000 199.000 144 154 172
155.000 855.000 198.000 144 154 171
155.000 855.000 199.000 156 167 185
156.000 851.000 192.000 138 147 163
156.000 852.000 192.000 139 148 164
156.000 852.000 193.000 145 154 171
156.000 853.000 194.000 158 167 183
156.000 853.000 195.000 161 169 185
152.000 854.000 200.000 148 157 173
152.000 855.000 200.000 149 158 175
152.000 855.000 201.000 150 159 176
153.000 855.000 200.000 146 155 173
153.000 855.000 201.000 148 157 175
152.000 855.000 202.000 149 158 174
154.000 855.000 200.000 147 158 176
154.000 855.000 201.000 146 156 175
155.000 856.000 199.000 164 175 193
152.000 856.000 202.000 148 157 173
152.000 856.000 203.000 145 154 171
153.000 856.000 202.000 148 157 174
153.000 856.000 203.000 145 155 171
154.000 856.000 200.000 155 166 185
154.000 856.000 201.000 152 163 182
155.000 856.000 200.000 165 176 194
155.000 856.000 201.000 161 172 192
155.000 857.000 201.000 161 172 191
154.000 856.000 202.000 150 160 179
154.000 857.000 202.000 149 160 179
155.000 857.000 202.000 157 168 187
152.000 858.000 206.000 163 175 195
153.000 858.000 206.000 163 173 191
154.000 858.000 206.000 149 160 179
