ply
format ascii 1.0
element vertex 1231
property float x
property float y
property float z
property uchar red
property uchar green
property uchar blue
end_header
215.000 830.000 264.000 94 99 109
215.000 831.000 264.000 95 99 108
219.000 820.000 267.000 121 127 139
219.000 821.000 267.000 122 128 140
218.000 822.000 266.000 120 124 137
218.000 823.000 266.000 111 116 128
219.000 822.000 267.000 121 126 138
219.000 823.000 267.000 108 112 124
220.000 820.000 267.000 130 136 148
220.000 821.000 267.000 123 129 141
221.000 820.000 267.000 126 133 146
221.000 821.000 267.000 116 123 135
220.000 822.000 267.000 118 123 135
220.000 823.000 267.000 104 109 120
221.000 822.000 267.000 111 117 129
221.000 823.000 267.000 97 102 113
221.000 821.000 268.000 108 116 129
221.000 822.000 268.000 103 110 121
221.000 823.000 268.000 94 100 111
222.000 821.000 268.000 107 114 127
223.000 821.000 268.000 105 111 123
222.000 822.000 268.000 106 112 124
222.000 823.000 268.000 100 105 116
223.000 822.000 268.000 103 109 120
223.000 823.000 268.000 101 106 117
217.000 825.000 266.000 107 113 125
218.000 824.000 266.000 98 104 116
218.000 825.000 266.000 96 103 114
219.000 824.000 266.000 92 97 109
219.000 824.000 267.000 89 94 106
219.000 825.000 266.000 81 88 99
219.000 825.000 267.000 80 86 98
218.000 826.000 266.000 101 107 118
218.000 827.000 266.000 99 105 116
218.000 827.000 267.000 97 103 114
219.000 826.000 267.000 89 95 106
219.000 827.000 267.000 95 101 112
217.000 829.000 265.000 99 103 112
218.000 828.000 266.000 100 104 114
218.000 828.000 267.000 97 102 113
218.000 829.000 266.000 97 100 109
218.000 829.000 267.000 97 101 111
219.000 828.000 267.000 97 102 112
219.000 829.000 267.000 99 103 113
218.000 830.000 266.000 84 85 93
218.000 830.000 267.000 86 89 97
218.000 831.000 266.000 85 83 89
218.000 831.000 267.000 81 82 88
219.000 830.000 267.000 93 97 106
219.000 831.000 267.000 91 94 103
219.000 830.000 268.000 99 104 114
219.000 831.000 268.000 94 98 107
220.000 824.000 267.000 86 90 103
220.000 825.000 267.000 77 83 96
221.000 824.000 267.000 84 89 101
221.000 825.000 267.000 78 84 95
220.000 826.000 267.000 73 80 92
220.000 827.000 267.000 81 88 99
221.000 826.000 267.000 74 80 92
221.000 824.000 268.000 90 95 106
221.000 825.000 268.000 87 93 104
220.000 827.000 268.000 79 86 97
221.000 826.000 268.000 87 94 104
221.000 827.000 268.000 95 100 110
222.000 824.000 268.000 97 101 112
222.000 825.000 268.000 98 103 114
223.000 824.000 268.000 101 106 117
223.000 825.000 268.000 102 108 118
222.000 826.000 268.000 100 106 117
222.000 827.000 268.000 104 110 120
223.000 826.000 268.000 104 110 121
223.000 826.000 269.000 106 111 122
223.000 827.000 268.000 106 111 122
223.000 827.000 269.000 106 112 123
220.000 828.000 267.000 90 96 107
220.000 828.000 268.000 88 95 105
220.000 829.000 268.000 93 99 110
221.000 828.000 268.000 94 100 110
221.000 829.000 268.000 88 94 105
220.000 830.000 268.000 99 105 116
220.000 831.000 268.000 102 108 118
220.000 831.000 269.000 98 104 114
221.000 830.000 268.000 90 96 107
221.000 830.000 269.000 93 99 110
221.000 831.000 269.000 96 102 113
222.000 828.000 268.000 104 109 119
222.000 828.000 269.000 107 113 124
222.000 829.000 268.000 97 102 112
222.000 829.000 269.000 99 104 115
223.000 828.000 269.000 107 113 123
223.000 829.000 269.000 102 108 119
222.000 830.000 269.000 91 97 108
222.000 831.000 269.000 90 97 108
223.000 830.000 269.000 89 95 106
223.000 831.000 269.000 83 89 100
223.000 831.000 270.000 82 88 99
225.000 821.000 269.000 109 114 124
224.000 822.000 269.000 103 108 119
224.000 823.000 268.000 100 105 116
224.000 823.000 269.000 100 104 116
225.000 822.000 269.000 103 107 119
225.000 823.000 269.000 97 102 115
226.000 821.000 269.000 111 116 127
227.000 821.000 269.000 108 113 125
226.000 822.000 269.000 105 111 123
226.000 823.000 269.000 96 104 118
227.000 822.000 269.000 116 122 134
227.000 823.000 269.000 114 121 135
228.000 821.000 269.000 110 116 128
229.000 821.000 269.000 132 138 150
228.000 821.000 270.000 99 105 117
229.000 821.000 270.000 115 121 133
228.000 822.000 269.000 132 138 150
228.000 823.000 269.000 135 142 156
229.000 822.000 269.000 143 150 163
229.000 823.000 269.000 139 147 162
230.000 821.000 269.000 133 139 152
231.000 821.000 269.000 124 129 141
230.000 821.000 270.000 126 131 143
230.000 822.000 269.000 136 143 157
230.000 823.000 269.000 144 151 165
231.000 822.000 269.000 131 136 149
231.000 823.000 269.000 138 144 156
224.000 824.000 268.000 100 105 117
224.000 824.000 269.000 100 105 117
224.000 825.000 269.000 100 106 117
225.000 824.000 269.000 96 102 115
225.000 825.000 269.000 93 100 112
224.000 826.000 269.000 101 107 119
224.000 827.000 269.000 103 109 120
225.000 826.000 269.000 95 101 113
225.000 827.000 269.000 98 104 115
226.000 824.000 269.000 103 110 124
226.000 825.000 269.000 103 110 123
227.000 824.000 269.000 125 132 146
227.000 825.000 269.000 117 123 137
226.000 826.000 269.000 97 102 115
226.000 827.000 269.000 97 102 113
227.000 826.000 269.000 101 106 119
227.000 827.000 269.000 99 103 114
224.000 828.000 269.000 105 111 122
224.000 829.000 269.000 101 106 117
225.000 828.000 269.000 98 103 114
225.000 829.000 269.000 91 96 106
224.000 830.000 269.000 86 92 103
224.000 831.000 269.000 78 84 95
225.000 830.000 269.000 80 85 95
224.000 831.000 270.000 76 83 93
225.000 831.000 270.000 73 78 88
226.000 828.000 269.000 94 99 109
226.000 829.000 269.000 88 93 103
227.000 828.000 269.000 96 100 110
227.000 829.000 269.000 91 96 105
226.000 830.000 269.000 80 85 95
227.000 830.000 269.000 85 90 100
226.000 831.000 270.000 76 81 90
227.000 830.000 270.000 84 89 99
227.000 831.000 270.000 84 89 98
228.000 824.000 269.000 139 147 161
228.000 825.000 269.000 121 128 143
229.000 824.000 269.000 141 149 163
229.000 825.000 269.000 130 138 153
228.000 826.000 269.000 106 112 125
228.000 827.000 269.000 102 107 118
229.000 826.000 269.000 115 122 134
229.000 827.000 269.000 106 111 122
230.000 824.000 269.000 142 149 163
230.000 825.000 269.000 131 139 153
231.000 824.000 269.000 139 145 158
231.000 825.000 269.000 116 124 139
230.000 826.000 269.000 116 123 137
230.000 827.000 269.000 107 112 123
231.000 826.000 269.000 111 118 131
231.000 827.000 269.000 105 111 122
228.000 828.000 269.000 97 102 112
228.000 829.000 269.000 93 98 108
229.000 828.000 269.000 100 105 115
229.000 829.000 269.000 92 98 107
229.000 829.000 270.000 89 95 105
228.000 830.000 269.000 88 93 102
228.000 830.000 270.000 85 91 100
228.000 831.000 270.000 89 94 104
229.000 830.000 270.000 84 91 101
229.000 831.000 270.000 87 94 104
229.000 831.000 271.000 92 98 109
230.000 828.000 269.000 102 106 116
230.000 829.000 269.000 95 100 110
231.000 828.000 269.000 105 109 119
230.000 829.000 270.000 94 99 109
231.000 828.000 270.000 104 108 118
231.000 829.000 270.000 100 105 114
230.000 830.000 270.000 87 93 103
230.000 830.000 271.000 85 91 102
230.000 831.000 271.000 87 94 105
231.000 830.000 270.000 92 98 107
231.000 830.000 271.000 86 92 102
231.000 831.000 271.000 83 90 100
232.000 821.000 269.000 121 125 136
233.000 820.000 269.000 121 125 135
233.000 821.000 269.000 120 124 135
232.000 822.000 269.000 119 124 136
232.000 823.000 269.000 125 129 141
233.000 822.000 269.000 119 123 134
233.000 823.000 269.000 119 123 134
234.000 820.000 269.000 122 126 136
234.000 821.000 269.000 121 126 136
235.000 820.000 269.000 120 125 135
235.000 821.000 269.000 122 127 139
234.000 822.000 269.000 119 123 135
234.000 823.000 269.000 120 125 137
235.000 822.000 269.000 118 124 136
235.000 823.000 269.000 119 125 137
236.000 820.000 269.000 122 128 140
236.000 821.000 269.000 127 132 145
237.000 820.000 269.000 131 137 151
237.000 821.000 269.000 132 137 151
236.000 822.000 269.000 130 134 146
236.000 823.000 269.000 130 134 145
237.000 822.000 269.000 134 138 148
237.000 823.000 269.000 127 131 141
238.000 820.000 269.000 132 140 153
238.000 821.000 269.000 133 139 152
239.000 820.000 269.000 132 138 151
239.000 821.000 269.000 138 144 156
238.000 822.000 269.000 129 134 144
238.000 823.000 269.000 127 130 141
239.000 822.000 269.000 129 135 147
239.000 823.000 269.000 134 138 149
232.000 824.000 269.000 131 136 148
232.000 825.000 269.000 112 119 131
233.000 824.000 269.000 118 123 134
233.000 825.000 269.000 113 119 130
232.000 826.000 269.000 107 114 125
232.000 827.000 269.000 104 109 120
233.000 826.000 269.000 107 113 124
232.000 827.000 270.000 105 110 121
233.000 826.000 270.000 107 112 123
233.000 827.000 270.000 104 109 119
234.000 824.000 269.000 118 123 135
234.000 825.000 269.000 117 121 132
235.000 824.000 269.000 119 124 135
235.000 825.000 269.000 117 122 132
234.000 825.000 270.000 116 120 130
235.000 825.000 270.000 117 120 130
234.000 826.000 270.000 109 113 123
234.000 827.000 270.000 102 107 117
235.000 826.000 270.000 112 115 124
235.000 827.000 270.000 105 109 118
235.000 827.000 271.000 105 109 118
232.000 828.000 270.000 105 110 120
232.000 829.000 270.000 100 106 115
232.000 829.000 271.000 96 101 111
233.000 828.000 270.000 100 105 115
233.000 828.000 271.000 95 100 110
233.000 829.000 271.000 93 98 107
232.000 830.000 271.000 86 91 101
233.000 830.000 271.000 83 89 99
234.000 828.000 270.000 99 103 112
234.000 828.000 271.000 96 101 110
234.000 829.000 271.000 91 95 104
235.000 828.000 271.000 102 106 114
235.000 829.000 271.000 101 104 112
236.000 824.000 269.000 122 127 138
237.000 824.000 269.000 125 129 140
236.000 824.000 270.000 122 126 137
236.000 825.000 270.000 118 122 132
237.000 824.000 270.000 124 128 138
237.000 825.000 270.000 120 124 134
236.000 826.000 270.000 115 117 126
236.000 827.000 271.000 109 112 121
237.000 826.000 270.000 117 119 128
237.000 827.000 271.000 111 113 121
238.000 824.000 269.000 126 130 141
239.000 824.000 269.000 135 139 150
238.000 824.000 270.000 126 130 140
238.000 825.000 270.000 123 126 136
239.000 824.000 270.000 134 138 148
239.000 825.000 270.000 131 133 141
238.000 826.000 270.000 115 116 124
238.000 827.000 270.000 108 108 114
238.000 827.000 271.000 112 113 119
239.000 826.000 270.000 113 113 120
239.000 827.000 270.000 103 101 105
236.000 828.000 271.000 108 111 120
236.000 829.000 271.000 105 107 114
237.000 828.000 271.000 111 113 120
237.000 829.000 271.000 103 104 110
238.000 828.000 271.000 114 114 119
238.000 829.000 271.000 100 96 99
239.000 828.000 270.000 98 91 93
239.000 828.000 271.000 104 100 102
239.000 829.000 270.000 87 72 69
239.000 829.000 271.000 92 84 84
239.000 831.000 269.000 96 75 63
238.000 830.000 271.000 85 74 74
238.000 831.000 271.000 84 66 62
239.000 830.000 270.000 88 67 63
239.000 830.000 271.000 84 70 69
239.000 831.000 270.000 88 66 60
231.000 831.000 272.000 86 93 103
232.000 830.000 272.000 80 86 96
232.000 831.000 272.000 86 92 102
233.000 830.000 272.000 81 88 98
233.000 831.000 272.000 88 94 104
233.000 831.000 273.000 96 102 111
235.000 829.000 272.000 97 99 107
234.000 830.000 272.000 83 88 97
234.000 831.000 272.000 87 93 102
234.000 831.000 273.000 93 98 107
235.000 830.000 272.000 89 92 99
235.000 831.000 273.000 85 89 98
236.000 829.000 272.000 99 101 107
237.000 829.000 272.000 97 98 103
236.000 830.000 272.000 89 89 94
236.000 831.000 272.000 79 77 81
236.000 831.000 273.000 79 79 86
237.000 830.000 272.000 86 83 85
237.000 831.000 272.000 79 69 70
238.000 830.000 272.000 84 76 75
238.000 831.000 272.000 81 66 64
240.000 820.000 269.000 126 131 143
240.000 821.000 269.000 137 142 152
241.000 820.000 269.000 123 126 136
241.000 821.000 269.000 136 137 145
240.000 822.000 269.000 137 142 154
240.000 823.000 269.000 136 139 149
241.000 822.000 269.000 136 138 147
241.000 823.000 269.000 118 117 122
242.000 821.000 269.000 114 108 110
243.000 821.000 268.000 117 100 97
242.000 822.000 269.000 120 111 113
242.000 823.000 269.000 115 99 98
243.000 822.000 268.000 122 102 97
243.000 822.000 269.000 118 100 96
243.000 823.000 268.000 126 105 97
245.000 821.000 267.000 111 99 94
245.000 822.000 267.000 115 103 98
245.000 823.000 267.000 115 101 95
246.000 822.000 267.000 103 91 85
246.000 823.000 267.000 106 94 88
247.000 822.000 266.000 101 86 77
244.000 821.000 268.000 117 103 99
244.000 822.000 268.000 122 105 100
244.000 823.000 268.000 125 104 98
243.000 827.000 267.000 124 102 90
240.000 824.000 269.000 127 129 138
240.000 825.000 269.000 114 112 115
241.000 824.000 269.000 110 105 109
241.000 825.000 269.000 108 99 100
240.000 825.000 270.000 121 121 127
240.000 826.000 269.000 106 99 101
240.000 827.000 269.000 97 78 77
241.000 826.000 269.000 109 93 91
241.000 827.000 269.000 108 85 80
240.000 826.000 270.000 107 100 105
240.000 827.000 270.000 99 86 88
242.000 824.000 269.000 117 99 96
242.000 825.000 268.000 122 101 92
242.000 825.000 269.000 118 98 94
243.000 824.000 268.000 127 106 97
243.000 825.000 268.000 126 104 94
242.000 826.000 268.000 125 102 92
242.000 826.000 269.000 118 96 89
242.000 827.000 268.000 125 101 90
242.000 827.000 269.000 119 96 85
243.000 826.000 268.000 126 104 93
243.000 827.000 268.000 126 103 92
243.000 828.000 267.000 122 101 89
243.000 829.000 267.000 123 99 88
242.000 830.000 267.000 125 99 86
242.000 831.000 267.000 123 99 85
243.000 830.000 267.000 121 98 86
243.000 831.000 267.000 119 97 84
240.000 828.000 269.000 97 75 72
240.000 829.000 269.000 105 80 71
241.000 828.000 269.000 111 87 77
241.000 829.000 269.000 118 91 80
240.000 828.000 270.000 94 75 75
240.000 829.000 270.000 94 72 67
240.000 830.000 269.000 104 80 69
240.000 831.000 269.000 108 85 72
241.000 830.000 268.000 122 95 82
241.000 830.000 269.000 119 92 80
241.000 831.000 268.000 120 95 81
242.000 828.000 268.000 127 101 88
242.000 828.000 269.000 123 98 85
242.000 829.000 268.000 126 100 87
243.000 828.000 268.000 126 103 89
243.000 829.000 268.000 128 102 89
242.000 830.000 268.000 126 100 86
242.000 831.000 268.000 124 98 83
244.000 825.000 267.000 124 103 94
245.000 824.000 267.000 118 101 95
245.000 825.000 267.000 117 99 91
244.000 826.000 267.000 121 100 90
244.000 827.000 267.000 119 99 88
245.000 826.000 267.000 114 96 88
245.000 827.000 267.000 113 95 87
246.000 824.000 267.000 106 94 88
246.000 825.000 267.000 106 92 84
246.000 826.000 266.000 104 90 82
246.000 826.000 267.000 107 92 84
246.000 827.000 266.000 105 90 82
247.000 826.000 266.000 101 87 78
247.000 827.000 266.000 101 88 79
244.000 824.000 268.000 125 103 95
244.000 825.000 268.000 125 103 93
244.000 826.000 268.000 124 103 92
244.000 828.000 267.000 119 99 88
244.000 829.000 267.000 115 95 85
245.000 828.000 266.000 107 91 81
245.000 828.000 267.000 111 94 84
245.000 829.000 266.000 107 91 82
245.000 831.000 265.000 105 90 79
244.000 830.000 267.000 115 95 84
244.000 831.000 266.000 112 93 83
244.000 831.000 267.000 114 95 84
245.000 830.000 266.000 106 91 82
245.000 831.000 266.000 108 93 84
246.000 828.000 266.000 102 89 80
246.000 829.000 266.000 101 88 79
247.000 828.000 266.000 100 87 78
247.000 829.000 266.000 99 87 78
246.000 831.000 265.000 103 91 82
247.000 830.000 265.000 101 89 79
246.000 830.000 266.000 101 88 79
246.000 831.000 266.000 104 91 82
247.000 830.000 266.000 100 88 79
247.000 831.000 266.000 103 90 81
216.000 832.000 265.000 95 94 99
216.000 833.000 265.000 91 89 96
217.000 833.000 266.000 79 76 81
217.000 833.000 267.000 81 78 82
216.000 834.000 265.000 90 89 96
217.000 834.000 266.000 84 83 88
217.000 834.000 267.000 85 84 89
217.000 835.000 267.000 94 96 103
218.000 832.000 267.000 78 78 84
218.000 833.000 267.000 81 80 86
218.000 834.000 267.000 86 86 92
218.000 835.000 267.000 91 94 101
218.000 833.000 268.000 78 80 87
219.000 832.000 268.000 89 93 101
219.000 833.000 268.000 91 94 103
218.000 834.000 268.000 88 90 98
218.000 835.000 268.000 94 97 106
219.000 834.000 268.000 91 95 103
219.000 834.000 269.000 95 99 108
219.000 835.000 269.000 96 101 110
217.000 836.000 267.000 96 100 109
217.000 837.000 268.000 99 103 113
218.000 836.000 268.000 98 102 111
218.000 836.000 269.000 99 104 114
218.000 837.000 268.000 98 103 112
218.000 837.000 269.000 98 103 113
219.000 836.000 269.000 99 104 114
219.000 837.000 269.000 99 104 115
219.000 837.000 270.000 98 104 116
218.000 838.000 269.000 97 103 113
218.000 839.000 269.000 103 109 120
219.000 838.000 269.000 97 103 114
218.000 839.000 270.000 112 119 131
219.000 838.000 270.000 101 109 121
219.000 839.000 270.000 113 120 132
219.000 839.000 271.000 117 124 137
220.000 832.000 268.000 95 100 110
220.000 832.000 269.000 94 100 110
220.000 833.000 269.000 94 99 109
221.000 832.000 269.000 92 98 108
221.000 833.000 269.000 91 97 108
221.000 833.000 270.000 89 96 106
220.000 834.000 269.000 97 102 112
220.000 835.000 269.000 98 103 113
221.000 834.000 269.000 94 100 110
220.000 835.000 270.000 98 103 113
221.000 834.000 270.000 92 98 108
221.000 835.000 270.000 96 101 111
221.000 835.000 271.000 93 99 108
222.000 832.000 269.000 87 94 105
222.000 832.000 270.000 83 90 101
222.000 833.000 270.000 84 90 101
223.000 832.000 270.000 81 88 98
223.000 833.000 270.000 81 87 97
222.000 834.000 270.000 86 92 102
222.000 834.000 271.000 84 89 99
222.000 835.000 271.000 86 91 101
223.000 834.000 271.000 82 88 97
223.000 835.000 271.000 80 86 95
220.000 836.000 270.000 99 104 114
220.000 837.000 270.000 98 104 116
220.000 837.000 271.000 98 105 116
221.000 836.000 270.000 98 103 113
221.000 836.000 271.000 94 100 110
221.000 837.000 271.000 97 104 115
220.000 838.000 271.000 107 114 127
220.000 839.000 271.000 113 121 134
222.000 836.000 271.000 86 92 102
217.000 840.000 269.000 105 111 122
217.000 843.000 270.000 96 102 113
218.000 840.000 269.000 109 116 128
218.000 841.000 269.000 103 110 122
218.000 840.000 270.000 112 119 132
218.000 841.000 270.000 105 113 126
218.000 841.000 271.000 108 117 131
219.000 840.000 270.000 120 128 140
219.000 840.000 271.000 111 120 133
219.000 841.000 271.000 110 119 132
218.000 842.000 270.000 97 104 115
218.000 842.000 271.000 106 114 126
218.000 843.000 270.000 100 107 118
218.000 843.000 271.000 105 112 124
216.000 845.000 270.000 98 103 112
217.000 844.000 270.000 99 105 115
217.000 845.000 270.000 98 103 113
217.000 845.000 271.000 104 110 120
216.000 846.000 270.000 97 102 112
217.000 846.000 270.000 97 103 113
217.000 846.000 271.000 98 104 114
217.000 847.000 271.000 100 105 116
218.000 844.000 271.000 116 121 133
218.000 845.000 271.000 113 118 128
218.000 846.000 271.000 100 105 116
218.000 847.000 271.000 100 106 116
223.000 835.000 272.000 80 85 94
221.000 837.000 272.000 93 100 111
220.000 839.000 272.000 111 118 130
221.000 838.000 272.000 105 112 124
221.000 838.000 273.000 99 106 117
221.000 839.000 272.000 106 112 124
221.000 839.000 273.000 98 104 116
222.000 836.000 272.000 83 89 98
222.000 837.000 272.000 81 89 99
222.000 837.000 273.000 76 84 94
223.000 836.000 272.000 79 84 94
223.000 837.000 272.000 77 83 92
223.000 837.000 273.000 73 79 89
222.000 838.000 273.000 84 91 102
222.000 839.000 273.000 88 95 106
223.000 838.000 273.000 72 79 88
222.000 839.000 274.000 83 90 100
223.000 838.000 274.000 72 78 87
223.000 839.000 274.000 74 81 90
219.000 840.000 272.000 106 115 130
219.000 841.000 272.000 112 121 134
218.000 843.000 272.000 112 118 130
219.000 842.000 272.000 111 119 132
219.000 842.000 273.000 114 122 134
219.000 843.000 272.000 114 121 133
219.000 843.000 273.000 118 124 135
218.000 844.000 272.000 127 131 142
218.000 845.000 272.000 118 123 134
219.000 844.000 272.000 125 130 141
219.000 844.000 273.000 123 128 138
219.000 845.000 273.000 109 113 124
218.000 846.000 272.000 99 105 115
218.000 847.000 272.000 98 104 115
219.000 846.000 273.000 99 104 114
219.000 847.000 273.000 98 104 115
220.000 840.000 272.000 105 113 127
220.000 840.000 273.000 102 110 123
220.000 841.000 272.000 111 120 134
220.000 841.000 273.000 111 120 132
221.000 840.000 273.000 97 104 117
221.000 841.000 273.000 106 114 126
221.000 840.000 274.000 98 105 117
221.000 841.000 274.000 108 115 128
220.000 842.000 273.000 115 122 134
220.000 843.000 273.000 118 122 133
220.000 843.000 274.000 113 119 130
221.000 842.000 274.000 114 121 133
221.000 842.000 275.000 112 118 130
221.000 843.000 274.000 110 116 127
221.000 843.000 275.000 108 113 124
222.000 840.000 274.000 91 98 109
222.000 841.000 274.000 103 110 122
222.000 841.000 275.000 101 108 119
223.000 840.000 274.000 77 84 94
223.000 840.000 275.000 79 86 96
223.000 841.000 275.000 89 96 106
222.000 842.000 275.000 107 113 125
222.000 843.000 275.000 105 111 122
223.000 842.000 275.000 101 108 119
222.000 843.000 276.000 104 110 121
223.000 842.000 276.000 98 105 116
223.000 843.000 276.000 102 109 121
220.000 844.000 273.000 119 123 134
220.000 845.000 273.000 98 103 114
220.000 844.000 274.000 113 117 127
220.000 845.000 274.000 100 105 116
221.000 844.000 275.000 105 110 121
221.000 845.000 274.000 99 105 116
221.000 845.000 275.000 102 108 119
220.000 846.000 273.000 98 103 114
220.000 847.000 273.000 98 105 117
220.000 846.000 274.000 98 104 115
220.000 847.000 274.000 100 107 119
221.000 846.000 274.000 100 106 117
221.000 846.000 275.000 103 109 120
221.000 847.000 274.000 101 108 120
221.000 847.000 275.000 104 111 123
222.000 844.000 275.000 103 108 120
222.000 845.000 275.000 104 110 121
222.000 846.000 275.000 105 111 122
222.000 847.000 275.000 103 109 120
222.000 844.000 276.000 103 108 119
222.000 845.000 276.000 106 112 123
223.000 844.000 276.000 108 114 126
223.000 845.000 276.000 113 118 129
222.000 846.000 276.000 105 111 121
222.000 847.000 276.000 103 109 120
223.000 846.000 276.000 110 115 126
223.000 847.000 276.000 104 110 122
218.000 848.000 272.000 98 104 115
219.000 848.000 272.000 99 106 117
219.000 848.000 273.000 101 108 120
219.000 849.000 272.000 101 108 119
219.000 849.000 273.000 109 116 128
219.000 850.000 273.000 112 119 131
220.000 848.000 273.000 108 115 128
220.000 849.000 273.000 123 130 143
220.000 848.000 274.000 110 118 131
221.000 848.000 274.000 110 117 130
221.000 848.000 275.000 111 117 129
221.000 849.000 274.000 120 127 139
221.000 849.000 275.000 112 118 130
221.000 850.000 274.000 120 127 139
222.000 848.000 275.000 106 112 123
222.000 849.000 275.000 106 112 123
223.000 848.000 275.000 104 110 121
223.000 849.000 275.000 103 109 120
222.000 850.000 274.000 108 115 126
222.000 850.000 275.000 105 111 122
222.000 851.000 275.000 104 110 121
223.000 850.000 275.000 103 109 120
223.000 851.000 275.000 104 109 120
223.000 848.000 276.000 104 110 121
223.000 849.000 276.000 103 109 121
224.000 832.000 270.000 78 85 95
224.000 833.000 270.000 76 82 92
224.000 833.000 271.000 76 82 91
225.000 832.000 270.000 72 77 86
225.000 833.000 270.000 69 75 84
225.000 833.000 271.000 69 75 83
224.000 834.000 271.000 77 82 92
225.000 834.000 271.000 67 72 80
226.000 832.000 270.000 77 83 91
226.000 833.000 271.000 76 81 90
227.000 832.000 270.000 85 90 99
227.000 832.000 271.000 88 93 103
227.000 833.000 271.000 84 90 99
226.000 834.000 271.000 71 76 85
228.000 832.000 270.000 90 96 106
228.000 832.000 271.000 98 104 114
228.000 833.000 271.000 95 101 110
229.000 832.000 271.000 102 108 118
229.000 833.000 271.000 105 110 121
230.000 832.000 271.000 94 101 111
239.000 832.000 269.000 105 82 69
239.000 833.000 269.000 105 83 68
238.000 832.000 271.000 86 68 60
238.000 833.000 271.000 85 69 58
239.000 832.000 270.000 91 71 61
239.000 833.000 270.000 91 71 61
239.000 834.000 269.000 105 83 68
239.000 835.000 269.000 107 84 71
238.000 834.000 270.000 85 66 56
238.000 834.000 271.000 83 66 54
238.000 835.000 270.000 86 67 55
238.000 835.000 271.000 81 64 52
239.000 834.000 270.000 94 74 64
239.000 835.000 270.000 96 75 64
239.000 836.000 269.000 108 85 71
239.000 837.000 269.000 107 84 71
238.000 836.000 270.000 90 71 59
238.000 836.000 271.000 81 63 51
238.000 837.000 270.000 93 74 60
238.000 837.000 271.000 85 67 54
239.000 836.000 270.000 99 77 66
239.000 837.000 270.000 100 79 67
239.000 838.000 269.000 107 85 72
239.000 839.000 269.000 107 86 72
238.000 838.000 270.000 98 79 65
238.000 838.000 271.000 90 72 60
238.000 839.000 270.000 99 79 65
238.000 839.000 271.000 92 74 61
239.000 838.000 270.000 101 81 67
239.000 839.000 270.000 102 81 67
239.000 840.000 269.000 107 87 72
238.000 840.000 271.000 94 75 62
239.000 840.000 270.000 106 86 71
239.000 840.000 271.000 102 82 67
239.000 841.000 270.000 109 89 73
239.000 841.000 271.000 103 85 69
238.000 842.000 271.000 104 85 70
238.000 843.000 271.000 107 87 71
239.000 842.000 271.000 108 88 72
239.000 843.000 271.000 110 90 73
239.000 844.000 271.000 112 91 74
224.000 835.000 272.000 75 80 89
225.000 834.000 272.000 65 71 79
225.000 835.000 272.000 64 69 77
226.000 834.000 272.000 68 73 81
226.000 835.000 272.000 66 70 78
227.000 834.000 272.000 80 85 95
227.000 835.000 272.000 78 83 91
227.000 835.000 273.000 76 80 88
224.000 836.000 272.000 74 79 88
224.000 836.000 273.000 74 79 87
224.000 837.000 273.000 73 78 87
225.000 836.000 272.000 64 69 77
225.000 836.000 273.000 65 70 77
225.000 837.000 273.000 67 72 80
225.000 837.000 274.000 65 70 78
224.000 838.000 274.000 72 77 86
224.000 839.000 274.000 74 79 87
224.000 839.000 275.000 74 78 86
225.000 838.000 274.000 67 72 80
225.000 839.000 274.000 73 77 85
225.000 839.000 275.000 67 71 78
226.000 836.000 273.000 66 70 77
226.000 837.000 273.000 68 73 80
227.000 836.000 273.000 75 78 86
226.000 837.000 274.000 66 71 78
227.000 837.000 274.000 77 80 87
226.000 838.000 274.000 65 70 76
226.000 838.000 275.000 67 70 76
226.000 839.000 275.000 70 72 77
227.000 838.000 274.000 72 75 80
227.000 838.000 275.000 79 79 83
227.000 839.000 275.000 82 80 83
228.000 833.000 272.000 91 97 107
229.000 833.000 272.000 102 108 118
228.000 834.000 272.000 86 92 101
228.000 835.000 272.000 82 87 95
228.000 835.000 273.000 79 83 92
229.000 834.000 272.000 92 97 107
229.000 834.000 273.000 83 89 98
229.000 835.000 273.000 75 81 90
230.000 832.000 272.000 96 102 113
230.000 833.000 272.000 99 104 114
230.000 833.000 273.000 92 97 107
231.000 832.000 272.000 93 99 109
231.000 833.000 272.000 95 101 111
231.000 833.000 273.000 91 97 106
230.000 834.000 273.000 85 90 100
230.000 835.000 273.000 77 82 90
231.000 834.000 273.000 82 87 97
230.000 835.000 274.000 79 83 91
231.000 834.000 274.000 81 86 95
231.000 835.000 274.000 81 86 94
228.000 836.000 273.000 79 83 90
229.000 836.000 273.000 76 80 88
228.000 836.000 274.000 81 85 92
228.000 837.000 274.000 81 84 91
228.000 837.000 275.000 80 82 87
229.000 836.000 274.000 78 82 90
229.000 837.000 274.000 78 82 89
229.000 837.000 275.000 79 81 86
228.000 838.000 275.000 85 84 88
228.000 839.000 275.000 89 86 88
229.000 838.000 275.000 90 88 90
229.000 839.000 275.000 90 86 87
230.000 836.000 274.000 81 85 93
230.000 837.000 274.000 79 83 91
230.000 837.000 275.000 80 82 87
231.000 836.000 274.000 84 88 96
231.000 836.000 275.000 86 90 97
231.000 837.000 275.000 80 82 90
230.000 838.000 275.000 83 82 86
228.000 839.000 276.000 84 80 80
229.000 839.000 276.000 88 83 83
230.000 838.000 276.000 90 88 90
230.000 839.000 276.000 90 87 88
231.000 838.000 276.000 79 80 84
231.000 839.000 276.000 82 81 83
224.000 840.000 275.000 73 79 87
224.000 841.000 275.000 75 82 92
225.000 840.000 275.000 69 73 80
226.000 840.000 275.000 75 76 80
224.000 841.000 276.000 75 82 92
225.000 840.000 276.000 69 73 80
225.000 841.000 276.000 69 73 81
224.000 842.000 276.000 84 91 103
224.000 843.000 276.000 95 103 115
225.000 842.000 276.000 68 75 85
225.000 842.000 277.000 64 69 79
225.000 843.000 276.000 78 88 100
225.000 843.000 277.000 72 80 93
226.000 840.000 276.000 70 71 76
226.000 841.000 276.000 63 65 70
227.000 840.000 276.000 73 71 74
227.000 841.000 276.000 63 63 66
227.000 841.000 277.000 62 62 65
226.000 842.000 277.000 61 64 71
226.000 843.000 277.000 62 66 77
227.000 842.000 277.000 59 61 66
227.000 843.000 277.000 58 61 67
224.000 844.000 276.000 118 124 135
224.000 844.000 277.000 120 126 138
224.000 845.000 276.000 125 130 141
224.000 845.000 277.000 132 137 148
225.000 844.000 277.000 95 104 117
225.000 845.000 277.000 122 129 140
224.000 846.000 276.000 120 125 136
224.000 846.000 277.000 129 134 145
224.000 847.000 276.000 111 117 129
224.000 847.000 277.000 116 122 134
225.000 846.000 277.000 127 133 144
225.000 847.000 277.000 122 128 139
226.000 844.000 277.000 67 74 87
226.000 845.000 277.000 91 99 112
227.000 844.000 277.000 60 64 72
226.000 845.000 278.000 76 84 98
227.000 844.000 278.000 60 67 76
227.000 845.000 278.000 64 70 82
226.000 846.000 277.000 104 110 121
226.000 847.000 277.000 121 124 134
227.000 846.000 277.000 77 84 95
227.000 847.000 277.000 93 97 107
227.000 846.000 278.000 68 76 87
228.000 840.000 276.000 72 67 68
228.000 841.000 276.000 66 64 67
228.000 841.000 277.000 68 66 68
229.000 840.000 276.000 76 71 70
229.000 840.000 277.000 80 74 73
229.000 841.000 277.000 80 75 75
228.000 842.000 277.000 65 64 67
228.000 843.000 277.000 64 65 70
229.000 842.000 277.000 82 79 79
229.000 843.000 277.000 83 81 83
230.000 840.000 276.000 90 85 84
230.000 840.000 277.000 94 88 87
230.000 841.000 277.000 100 94 93
231.000 840.000 276.000 89 85 85
231.000 840.000 277.000 93 89 89
231.000 841.000 277.000 96 91 91
230.000 842.000 277.000 101 95 94
230.000 843.000 277.000 97 93 93
231.000 842.000 277.000 94 89 88
231.000 843.000 277.000 87 83 83
228.000 844.000 277.000 65 66 72
229.000 844.000 277.000 86 85 87
229.000 845.000 277.000 57 61 72
228.000 844.000 278.000 65 68 74
228.000 845.000 278.000 61 65 74
229.000 844.000 278.000 74 74 78
229.000 845.000 278.000 60 63 72
228.000 846.000 277.000 65 72 82
228.000 847.000 277.000 77 82 92
229.000 846.000 277.000 64 69 80
229.000 847.000 277.000 90 93 100
228.000 846.000 278.000 61 66 77
230.000 844.000 277.000 70 71 75
230.000 845.000 277.000 65 69 79
231.000 844.000 277.000 78 78 83
231.000 845.000 277.000 88 90 97
230.000 844.000 278.000 72 72 76
230.000 846.000 277.000 82 85 94
230.000 847.000 276.000 108 107 111
230.000 847.000 277.000 107 108 114
231.000 846.000 277.000 100 101 106
231.000 847.000 276.000 102 98 101
232.000 832.000 272.000 93 99 109
232.000 832.000 273.000 96 102 111
232.000 833.000 273.000 94 99 109
233.000 832.000 273.000 101 106 116
233.000 833.000 273.000 102 106 116
232.000 833.000 274.000 92 97 105
233.000 833.000 274.000 102 105 113
232.000 834.000 274.000 85 90 99
232.000 835.000 274.000 88 92 101
232.000 835.000 275.000 94 98 106
233.000 834.000 274.000 97 101 109
233.000 835.000 275.000 99 102 110
234.000 832.000 273.000 106 110 119
235.000 832.000 273.000 98 101 110
234.000 833.000 274.000 106 109 117
235.000 833.000 274.000 101 103 111
234.000 834.000 274.000 100 102 110
234.000 834.000 275.000 96 98 105
234.000 835.000 275.000 98 100 107
235.000 834.000 274.000 97 99 105
235.000 834.000 275.000 92 93 100
235.000 835.000 275.000 89 90 96
232.000 836.000 275.000 93 97 105
232.000 837.000 275.000 90 94 102
233.000 836.000 275.000 102 105 112
233.000 837.000 275.000 103 106 114
234.000 836.000 275.000 101 103 110
234.000 837.000 275.000 100 102 108
235.000 836.000 275.000 92 91 98
235.000 837.000 275.000 94 94 100
232.000 837.000 276.000 92 95 103
233.000 837.000 276.000 104 107 116
232.000 838.000 276.000 91 93 100
232.000 839.000 276.000 88 90 96
233.000 838.000 276.000 107 111 119
233.000 839.000 276.000 110 113 121
234.000 837.000 276.000 102 105 112
235.000 837.000 276.000 93 93 99
234.000 838.000 276.000 105 108 116
234.000 839.000 276.000 107 109 117
235.000 838.000 276.000 92 93 99
235.000 839.000 276.000 89 89 94
236.000 832.000 273.000 82 81 87
236.000 833.000 273.000 89 87 92
237.000 832.000 272.000 80 66 64
237.000 832.000 273.000 78 69 69
237.000 833.000 273.000 81 74 71
236.000 833.000 274.000 91 91 96
237.000 834.000 273.000 79 68 65
237.000 835.000 273.000 77 64 60
236.000 834.000 274.000 87 85 90
236.000 835.000 274.000 80 75 80
236.000 835.000 275.000 82 80 85
237.000 834.000 274.000 78 71 72
237.000 835.000 274.000 74 64 65
238.000 832.000 272.000 84 68 62
238.000 833.000 272.000 82 68 59
238.000 834.000 272.000 82 67 58
238.000 835.000 272.000 80 63 56
238.000 835.000 273.000 79 63 58
237.000 836.000 273.000 76 63 60
237.000 837.000 273.000 72 59 53
236.000 836.000 274.000 70 63 68
236.000 836.000 275.000 79 75 81
236.000 837.000 275.000 74 71 74
237.000 836.000 274.000 71 61 62
237.000 837.000 274.000 65 57 56
237.000 838.000 273.000 68 56 49
237.000 839.000 273.000 67 55 49
236.000 838.000 275.000 70 66 70
236.000 839.000 275.000 63 59 62
237.000 838.000 274.000 61 54 52
237.000 839.000 274.000 60 52 51
238.000 836.000 272.000 79 61 54
238.000 836.000 273.000 80 63 58
238.000 837.000 272.000 78 61 51
238.000 837.000 273.000 75 60 52
238.000 838.000 272.000 78 62 52
238.000 838.000 273.000 73 59 50
238.000 839.000 272.000 79 63 54
236.000 839.000 276.000 79 77 82
235.000 842.000 275.000 64 60 62
235.000 843.000 275.000 63 59 60
232.000 840.000 276.000 81 81 85
232.000 840.000 277.000 82 82 86
232.000 841.000 277.000 80 79 82
233.000 840.000 276.000 111 113 121
233.000 840.000 277.000 103 104 111
233.000 841.000 277.000 99 99 105
232.000 842.000 277.000 84 83 85
232.000 843.000 277.000 92 91 95
233.000 842.000 277.000 99 98 103
233.000 843.000 277.000 99 98 102
234.000 840.000 276.000 101 102 109
234.000 840.000 277.000 104 105 112
234.000 841.000 276.000 90 89 94
234.000 841.000 277.000 99 99 104
235.000 840.000 276.000 80 78 83
235.000 841.000 276.000 75 71 75
234.000 842.000 276.000 83 79 83
234.000 842.000 277.000 92 89 93
234.000 843.000 276.000 75 71 74
234.000 843.000 277.000 86 83 86
235.000 842.000 276.000 71 69 72
235.000 843.000 276.000 70 66 69
232.000 847.000 275.000 87 76 73
233.000 846.000 275.000 83 73 70
233.000 847.000 274.000 90 78 71
233.000 847.000 275.000 86 75 70
234.000 845.000 275.000 69 62 61
235.000 844.000 274.000 75 65 59
235.000 844.000 275.000 66 60 58
235.000 845.000 274.000 81 68 61
235.000 845.000 275.000 69 61 58
234.000 846.000 274.000 84 72 66
234.000 846.000 275.000 80 70 66
234.000 847.000 274.000 91 78 70
235.000 846.000 274.000 87 73 65
235.000 847.000 274.000 94 78 70
232.000 844.000 277.000 100 99 104
232.000 845.000 277.000 99 98 102
233.000 844.000 277.000 93 91 93
233.000 845.000 276.000 82 76 78
233.000 845.000 277.000 87 83 86
232.000 846.000 276.000 91 86 87
232.000 846.000 277.000 97 95 98
232.000 847.000 276.000 89 81 81
233.000 846.000 276.000 82 74 74
234.000 844.000 276.000 72 67 69
234.000 844.000 277.000 80 76 78
234.000 845.000 276.000 74 67 68
235.000 844.000 276.000 67 62 62
237.000 840.000 272.000 78 62 53
237.000 840.000 273.000 70 57 50
237.000 841.000 272.000 83 66 55
237.000 841.000 273.000 74 60 53
236.000 840.000 274.000 62 56 57
236.000 840.000 275.000 62 59 62
236.000 841.000 274.000 68 61 60
236.000 841.000 275.000 63 59 62
237.000 840.000 274.000 62 55 53
237.000 841.000 274.000 70 60 57
237.000 842.000 272.000 87 70 58
237.000 842.000 273.000 78 64 55
237.000 843.000 273.000 83 68 58
236.000 842.000 274.000 70 61 58
236.000 842.000 275.000 63 59 60
236.000 843.000 274.000 71 61 56
236.000 843.000 275.000 64 58 57
238.000 840.000 272.000 83 65 54
238.000 841.000 272.000 92 73 61
238.000 842.000 272.000 95 76 63
238.000 843.000 272.000 102 82 68
236.000 840.000 276.000 72 69 74
236.000 844.000 273.000 89 73 62
236.000 845.000 273.000 95 78 66
237.000 844.000 273.000 94 77 64
237.000 845.000 272.000 106 87 72
237.000 845.000 273.000 102 84 70
236.000 844.000 274.000 76 64 57
236.000 845.000 274.000 84 70 61
238.000 844.000 272.000 107 86 71
239.000 844.000 272.000 112 91 74
224.000 850.000 275.000 103 108 119
224.000 851.000 275.000 104 109 119
225.000 850.000 275.000 103 106 115
226.000 850.000 275.000 103 101 106
227.000 850.000 275.000 101 96 97
224.000 848.000 276.000 107 113 124
224.000 849.000 276.000 104 110 121
225.000 848.000 276.000 109 114 125
225.000 848.000 277.000 113 118 129
225.000 849.000 276.000 107 111 121
224.000 850.000 276.000 104 109 119
225.000 850.000 276.000 105 108 117
226.000 848.000 276.000 112 115 123
226.000 848.000 277.000 115 119 127
226.000 849.000 276.000 109 110 117
227.000 848.000 276.000 106 107 113
227.000 848.000 277.000 104 106 113
227.000 849.000 276.000 104 103 108
226.000 850.000 276.000 104 104 110
228.000 849.000 275.000 99 90 91
229.000 849.000 275.000 95 86 84
228.000 850.000 275.000 99 91 91
230.000 848.000 275.000 96 87 85
230.000 849.000 274.000 93 82 76
230.000 849.000 275.000 93 82 78
231.000 848.000 275.000 91 81 76
231.000 849.000 274.000 94 81 74
231.000 849.000 275.000 92 81 76
228.000 848.000 276.000 100 98 102
228.000 848.000 277.000 95 96 102
228.000 849.000 276.000 101 97 99
229.000 848.000 276.000 101 97 99
230.000 848.000 276.000 101 96 97
231.000 848.000 276.000 94 87 86
232.000 848.000 274.000 92 79 72
232.000 848.000 275.000 88 77 74
232.000 849.000 274.000 95 81 73
233.000 848.000 274.000 95 81 73
234.000 848.000 274.000 99 83 73
241.000 834.000 267.000 118 95 78
241.000 835.000 267.000 115 93 75
242.000 832.000 267.000 122 98 83
242.000 833.000 267.000 119 97 80
243.000 832.000 266.000 116 96 83
243.000 832.000 267.000 119 97 83
243.000 833.000 266.000 115 95 81
242.000 834.000 267.000 116 94 77
242.000 835.000 267.000 112 91 73
243.000 834.000 266.000 112 92 78
243.000 834.000 267.000 111 91 76
243.000 835.000 267.000 108 89 74
240.000 832.000 268.000 116 91 77
240.000 832.000 269.000 113 87 74
240.000 833.000 268.000 116 91 76
240.000 833.000 269.000 111 88 74
241.000 832.000 268.000 120 95 80
241.000 833.000 268.000 120 95 79
240.000 834.000 268.000 116 92 77
240.000 834.000 269.000 111 88 73
240.000 835.000 268.000 114 92 76
240.000 835.000 269.000 110 88 74
241.000 834.000 268.000 118 95 79
241.000 835.000 268.000 116 93 76
242.000 836.000 267.000 109 89 73
242.000 837.000 267.000 106 86 71
243.000 836.000 267.000 105 86 73
243.000 837.000 267.000 105 86 71
240.000 836.000 268.000 112 91 73
240.000 837.000 268.000 110 89 72
240.000 837.000 269.000 110 88 71
241.000 836.000 268.000 113 91 75
241.000 837.000 268.000 109 89 72
240.000 838.000 268.000 108 89 72
240.000 838.000 269.000 109 88 72
240.000 839.000 269.000 107 88 72
241.000 838.000 268.000 107 88 71
241.000 839.000 268.000 106 88 71
241.000 839.000 269.000 106 87 71
242.000 837.000 268.000 105 86 70
243.000 837.000 268.000 104 85 70
242.000 838.000 268.000 104 85 70
242.000 839.000 268.000 105 87 70
243.000 838.000 268.000 105 87 71
243.000 839.000 268.000 106 89 73
243.000 839.000 269.000 108 91 76
245.000 832.000 265.000 106 94 86
244.000 832.000 266.000 112 93 84
244.000 833.000 266.000 110 93 83
245.000 832.000 266.000 109 94 86
245.000 833.000 266.000 106 93 86
244.000 834.000 266.000 108 91 79
244.000 835.000 266.000 107 90 78
244.000 835.000 267.000 106 89 77
245.000 834.000 266.000 106 92 84
245.000 835.000 266.000 105 90 79
245.000 835.000 267.000 106 91 81
246.000 832.000 265.000 104 92 84
246.000 833.000 265.000 104 93 85
247.000 832.000 265.000 104 92 84
246.000 833.000 266.000 104 92 85
247.000 832.000 266.000 104 92 84
247.000 833.000 266.000 103 92 84
246.000 834.000 266.000 105 94 87
246.000 834.000 267.000 107 96 89
246.000 835.000 267.000 107 95 88
247.000 834.000 266.000 105 94 86
247.000 834.000 267.000 106 95 87
247.000 835.000 267.000 109 98 91
247.000 835.000 268.000 110 99 92
244.000 836.000 267.000 104 86 74
245.000 836.000 267.000 104 88 77
244.000 837.000 268.000 104 87 74
245.000 836.000 268.000 104 89 77
245.000 837.000 268.000 107 91 78
244.000 838.000 268.000 106 89 75
244.000 839.000 268.000 108 91 77
244.000 839.000 269.000 111 95 82
245.000 838.000 268.000 109 93 79
245.000 838.000 269.000 111 95 82
245.000 839.000 269.000 115 100 87
246.000 836.000 268.000 107 93 84
246.000 837.000 268.000 109 94 82
246.000 837.000 269.000 112 97 85
247.000 836.000 268.000 112 99 92
247.000 837.000 269.000 115 101 90
246.000 838.000 269.000 115 100 87
246.000 839.000 269.000 120 105 92
247.000 838.000 269.000 120 104 91
247.000 839.000 269.000 124 107 94
247.000 839.000 270.000 127 110 95
240.000 840.000 269.000 107 88 72
241.000 840.000 269.000 106 87 71
241.000 841.000 269.000 108 89 73
240.000 840.000 270.000 108 88 72
240.000 841.000 270.000 108 88 72
241.000 841.000 270.000 108 89 73
240.000 842.000 270.000 109 90 73
240.000 842.000 271.000 110 90 73
240.000 843.000 271.000 111 91 74
241.000 842.000 270.000 110 91 74
241.000 843.000 270.000 113 94 77
241.000 843.000 271.000 113 93 76
242.000 840.000 268.000 105 87 71
242.000 840.000 269.000 106 88 71
242.000 841.000 269.000 109 90 74
243.000 840.000 268.000 106 88 72
243.000 840.000 269.000 110 92 77
243.000 841.000 269.000 113 95 81
242.000 841.000 270.000 110 92 76
243.000 841.000 270.000 115 97 83
242.000 842.000 270.000 113 94 78
242.000 843.000 270.000 116 97 81
242.000 843.000 271.000 118 100 84
243.000 842.000 270.000 117 100 85
243.000 843.000 270.000 121 104 89
243.000 843.000 271.000 124 107 93
240.000 844.000 271.000 114 93 77
241.000 844.000 271.000 116 97 80
242.000 844.000 271.000 121 102 87
242.000 845.000 271.000 125 106 90
243.000 844.000 271.000 128 110 96
243.000 845.000 271.000 129 110 94
244.000 840.000 269.000 114 98 85
245.000 840.000 269.000 117 101 89
244.000 841.000 270.000 119 103 90
245.000 840.000 270.000 120 104 91
245.000 841.000 270.000 123 108 95
244.000 842.000 270.000 123 106 93
244.000 843.000 271.000 128 111 98
245.000 842.000 270.000 127 110 98
245.000 842.000 271.000 129 113 99
245.000 843.000 271.000 131 114 101
246.000 840.000 269.000 119 104 92
246.000 840.000 270.000 123 107 95
246.000 841.000 270.000 127 110 97
247.000 840.000 270.000 128 111 97
247.000 841.000 270.000 131 113 97
247.000 841.000 271.000 133 114 98
246.000 842.000 270.000 128 111 98
246.000 842.000 271.000 131 113 98
246.000 843.000 271.000 134 116 101
247.000 842.000 271.000 134 114 98
247.000 843.000 271.000 137 117 100
244.000 844.000 271.000 134 116 103
245.000 844.000 271.000 134 116 103
246.000 844.000 271.000 137 118 103
248.000 832.000 266.000 105 91 80
248.000 833.000 266.000 103 90 80
248.000 834.000 267.000 106 93 84
248.000 835.000 267.000 108 96 87
248.000 835.000 268.000 108 96 89
248.000 836.000 268.000 112 100 92
248.000 837.000 269.000 118 104 94
248.000 838.000 269.000 123 106 93
248.000 839.000 270.000 128 110 95
248.000 840.000 270.000 131 111 96
248.000 841.000 271.000 134 114 97
242.000 845.000 272.000 127 108 92
243.000 845.000 272.000 132 114 99
244.000 844.000 272.000 136 118 104
244.000 845.000 272.000 136 118 103
245.000 844.000 272.000 136 118 103
245.000 845.000 272.000 138 119 103
246.000 844.000 272.000 140 120 104
246.000 845.000 272.000 143 122 105
246.000 845.000 273.000 146 124 107
