ply
format ascii 1.0
element vertex 1438
property float x
property float y
property float z
property uchar red
property uchar green
property uchar blue
end_header
115.000 349.000 205.000 41 51 60
115.000 350.000 205.000 41 50 60
114.000 350.000 207.000 43 51 61
114.000 351.000 207.000 42 51 60
115.000 350.000 206.000 41 51 60
115.000 351.000 206.000 41 50 60
119.000 347.000 201.000 44 53 62
117.000 348.000 203.000 44 53 62
119.000 348.000 201.000 44 53 63
118.000 348.000 202.000 43 52 62
118.000 348.000 203.000 43 53 62
118.000 349.000 202.000 43 53 62
118.000 349.000 203.000 43 53 62
119.000 348.000 202.000 43 53 62
119.000 349.000 202.000 44 53 63
118.000 350.000 202.000 44 53 63
118.000 350.000 203.000 44 53 62
118.000 351.000 203.000 43 52 62
119.000 350.000 202.000 45 54 63
119.000 351.000 202.000 44 53 63
119.000 351.000 203.000 43 52 62
116.000 348.000 204.000 44 53 62
116.000 348.000 205.000 42 51 61
116.000 349.000 205.000 41 51 60
117.000 348.000 204.000 43 52 62
117.000 349.000 204.000 42 51 61
116.000 350.000 205.000 41 51 60
116.000 351.000 205.000 41 50 60
117.000 350.000 204.000 42 52 61
117.000 351.000 204.000 42 51 61
118.000 351.000 204.000 42 52 61
122.000 347.000 199.000 42 51 60
123.000 347.000 199.000 43 51 60
122.000 348.000 199.000 43 52 61
122.000 349.000 199.000 44 53 63
123.000 348.000 199.000 43 51 60
123.000 349.000 199.000 44 53 62
122.000 350.000 199.000 44 53 63
122.000 351.000 199.000 43 52 62
123.000 350.000 199.000 43 52 62
123.000 351.000 199.000 42 51 61
124.000 347.000 199.000 43 51 60
125.000 346.000 198.000 42 49 57
125.000 347.000 198.000 42 50 58
125.000 347.000 199.000 42 50 58
126.000 347.000 198.000 42 49 57
127.000 347.000 198.000 43 50 57
124.000 348.000 198.000 42 50 59
124.000 348.000 199.000 42 51 60
124.000 349.000 199.000 41 50 60
125.000 348.000 198.000 41 49 58
125.000 349.000 198.000 41 50 58
125.000 349.000 199.000 41 50 59
124.000 350.000 199.000 41 51 60
124.000 351.000 199.000 42 51 60
125.000 350.000 198.000 42 50 59
125.000 350.000 199.000 42 50 59
125.000 351.000 198.000 43 51 59
125.000 351.000 199.000 42 50 59
126.000 348.000 198.000 42 50 58
126.000 349.000 198.000 42 50 59
127.000 348.000 198.000 42 49 57
127.000 349.000 198.000 43 50 58
126.000 350.000 198.000 42 50 58
126.000 351.000 198.000 42 50 58
127.000 350.000 198.000 41 49 57
127.000 351.000 198.000 40 48 57
120.000 347.000 201.000 43 52 62
121.000 347.000 200.000 41 51 60
120.000 348.000 201.000 45 53 63
120.000 349.000 201.000 45 54 64
121.000 348.000 200.000 43 52 61
121.000 349.000 200.000 44 53 63
120.000 350.000 201.000 46 55 64
120.000 351.000 201.000 45 54 64
121.000 350.000 200.000 44 53 63
121.000 350.000 201.000 45 54 63
121.000 351.000 200.000 44 53 63
121.000 351.000 201.000 45 54 63
120.000 351.000 202.000 45 54 63
122.000 350.000 200.000 44 54 63
122.000 351.000 200.000 43 53 63
123.000 351.000 200.000 42 52 61
113.000 351.000 208.000 41 50 59
111.000 376.000 207.000 45 53 62
111.000 377.000 207.000 45 54 63
111.000 378.000 207.000 44 53 63
111.000 379.000 207.000 44 54 63
111.000 381.000 206.000 44 54 63
111.000 382.000 206.000 46 55 64
114.000 352.000 207.000 42 50 59
114.000 353.000 207.000 41 49 57
115.000 352.000 206.000 43 51 60
115.000 353.000 206.000 43 51 59
114.000 354.000 207.000 41 49 57
114.000 355.000 207.000 41 48 56
115.000 354.000 206.000 42 50 58
115.000 355.000 206.000 42 49 57
115.000 355.000 207.000 42 49 57
115.000 357.000 205.000 42 49 57
114.000 356.000 207.000 41 48 55
114.000 357.000 207.000 41 48 55
115.000 356.000 206.000 41 48 56
115.000 356.000 207.000 40 48 55
115.000 357.000 206.000 41 48 56
115.000 358.000 205.000 42 49 57
115.000 359.000 205.000 41 48 56
114.000 358.000 207.000 41 48 56
114.000 359.000 207.000 42 49 56
115.000 358.000 206.000 41 48 56
115.000 359.000 206.000 41 48 56
118.000 352.000 203.000 41 50 60
118.000 353.000 203.000 41 50 59
119.000 352.000 202.000 42 52 61
119.000 352.000 203.000 41 51 60
119.000 353.000 202.000 41 51 60
119.000 353.000 203.000 42 50 60
118.000 354.000 203.000 41 50 59
118.000 355.000 203.000 41 50 58
119.000 354.000 202.000 42 50 60
119.000 354.000 203.000 42 50 59
119.000 355.000 202.000 42 50 59
119.000 355.000 203.000 42 50 59
116.000 352.000 205.000 42 51 60
116.000 353.000 205.000 42 50 59
117.000 352.000 204.000 42 51 60
117.000 352.000 205.000 42 51 60
117.000 353.000 204.000 42 50 60
117.000 353.000 205.000 42 50 59
116.000 354.000 205.000 41 50 59
116.000 355.000 205.000 41 49 57
117.000 354.000 204.000 42 50 59
117.000 354.000 205.000 41 50 59
117.000 355.000 204.000 40 49 58
118.000 352.000 204.000 41 50 60
118.000 354.000 204.000 42 50 59
118.000 355.000 204.000 40 49 57
118.000 356.000 203.000 41 49 57
118.000 357.000 203.000 40 48 57
119.000 356.000 203.000 41 49 58
119.000 357.000 203.000 41 49 57
118.000 358.000 203.000 41 49 57
118.000 359.000 203.000 43 50 58
119.000 358.000 202.000 42 50 58
119.000 358.000 203.000 42 49 58
119.000 359.000 202.000 43 50 58
119.000 359.000 203.000 43 50 58
116.000 356.000 205.000 41 49 57
116.000 357.000 204.000 41 49 57
116.000 357.000 205.000 41 49 57
117.000 356.000 204.000 41 49 57
117.000 357.000 204.000 41 49 57
116.000 358.000 204.000 41 49 57
116.000 358.000 205.000 42 49 57
116.000 359.000 204.000 41 49 57
116.000 359.000 205.000 41 48 56
117.000 358.000 204.000 41 49 57
117.000 359.000 204.000 41 49 58
118.000 356.000 204.000 40 49 57
118.000 357.000 204.000 41 49 57
118.000 358.000 204.000 41 49 57
118.000 359.000 204.000 42 50 58
113.000 363.000 207.000 43 50 58
115.000 360.000 205.000 42 49 57
115.000 361.000 205.000 42 49 56
114.000 360.000 207.000 44 51 58
114.000 361.000 206.000 43 50 57
114.000 361.000 207.000 43 50 58
115.000 360.000 206.000 43 50 57
115.000 361.000 206.000 42 49 57
115.000 362.000 205.000 43 50 57
115.000 363.000 205.000 43 50 58
114.000 362.000 206.000 44 50 58
114.000 362.000 207.000 43 51 58
114.000 363.000 206.000 43 50 57
114.000 363.000 207.000 43 50 58
115.000 362.000 206.000 43 50 57
115.000 363.000 206.000 43 50 57
113.000 364.000 207.000 42 50 58
113.000 365.000 207.000 43 50 58
113.000 366.000 206.000 43 50 58
113.000 366.000 207.000 43 51 59
113.000 367.000 207.000 44 51 59
115.000 364.000 205.000 43 50 58
115.000 365.000 205.000 44 51 58
114.000 364.000 206.000 42 50 57
114.000 364.000 207.000 43 50 58
114.000 365.000 206.000 42 50 58
114.000 365.000 207.000 42 50 58
115.000 364.000 206.000 42 50 57
114.000 366.000 205.000 43 50 59
114.000 367.000 205.000 43 50 59
115.000 366.000 205.000 43 51 58
115.000 367.000 204.000 44 52 59
115.000 367.000 205.000 44 51 60
114.000 366.000 206.000 43 50 58
114.000 367.000 206.000 43 51 59
117.000 363.000 203.000 44 50 58
118.000 360.000 203.000 42 50 58
118.000 361.000 203.000 41 49 58
119.000 360.000 202.000 42 50 58
119.000 360.000 203.000 43 50 58
119.000 361.000 202.000 42 50 57
119.000 361.000 203.000 42 50 58
118.000 362.000 203.000 41 49 57
118.000 363.000 202.000 43 50 58
118.000 363.000 203.000 42 49 57
119.000 362.000 202.000 43 50 57
119.000 363.000 202.000 44 51 58
116.000 360.000 205.000 41 49 57
116.000 361.000 205.000 42 49 57
117.000 360.000 204.000 42 50 58
117.000 361.000 204.000 42 49 57
116.000 362.000 204.000 43 50 57
116.000 362.000 205.000 42 50 57
116.000 363.000 204.000 44 51 59
116.000 363.000 205.000 43 50 58
117.000 362.000 204.000 42 49 57
117.000 363.000 204.000 44 51 58
118.000 360.000 204.000 42 50 58
117.000 364.000 203.000 44 51 59
117.000 365.000 203.000 43 51 58
116.000 367.000 203.000 45 52 60
117.000 366.000 203.000 43 51 59
117.000 367.000 203.000 44 51 59
119.000 365.000 201.000 42 50 58
118.000 364.000 202.000 43 50 58
118.000 364.000 203.000 43 50 58
118.000 365.000 202.000 44 51 59
118.000 365.000 203.000 43 51 59
119.000 364.000 202.000 43 50 58
119.000 365.000 202.000 43 51 59
119.000 366.000 201.000 42 51 59
119.000 367.000 201.000 44 52 61
118.000 366.000 202.000 43 51 59
118.000 366.000 203.000 43 51 59
118.000 367.000 202.000 44 51 60
119.000 366.000 202.000 44 52 60
119.000 367.000 202.000 44 52 60
116.000 364.000 204.000 44 51 58
116.000 364.000 205.000 43 50 58
116.000 365.000 204.000 44 51 59
116.000 365.000 205.000 44 51 59
117.000 364.000 204.000 44 51 59
117.000 365.000 204.000 44 51 58
116.000 366.000 204.000 44 51 59
116.000 366.000 205.000 44 51 59
116.000 367.000 204.000 44 52 59
124.000 352.000 199.000 42 51 61
124.000 353.000 199.000 41 50 60
125.000 352.000 199.000 42 51 60
125.000 353.000 199.000 40 50 59
125.000 354.000 199.000 40 50 59
125.000 355.000 199.000 42 51 60
126.000 352.000 198.000 42 50 59
126.000 353.000 198.000 41 50 59
126.000 353.000 199.000 41 50 59
127.000 352.000 198.000 42 50 58
127.000 353.000 198.000 42 50 59
126.000 354.000 198.000 41 50 59
126.000 354.000 199.000 41 50 59
126.000 355.000 199.000 41 51 60
127.000 354.000 198.000 43 51 60
127.000 355.000 198.000 42 51 60
127.000 355.000 199.000 42 51 60
125.000 356.000 199.000 43 51 60
125.000 357.000 199.000 44 52 60
125.000 358.000 199.000 44 52 60
125.000 359.000 199.000 44 52 61
126.000 356.000 199.000 43 52 61
126.000 357.000 198.000 43 52 61
126.000 357.000 199.000 44 52 61
127.000 356.000 198.000 43 51 60
127.000 356.000 199.000 43 51 61
127.000 357.000 198.000 43 52 61
126.000 358.000 198.000 43 52 61
126.000 358.000 199.000 43 52 61
126.000 359.000 199.000 45 53 62
127.000 358.000 198.000 42 51 60
127.000 359.000 198.000 44 53 62
120.000 352.000 201.000 44 53 63
120.000 353.000 201.000 43 52 62
121.000 352.000 201.000 44 53 63
121.000 353.000 201.000 45 53 63
120.000 352.000 202.000 42 52 61
120.000 353.000 202.000 42 52 61
121.000 354.000 201.000 45 53 62
121.000 355.000 201.000 44 53 61
120.000 354.000 202.000 43 52 61
120.000 355.000 202.000 42 50 59
121.000 355.000 202.000 43 51 60
122.000 352.000 200.000 43 53 62
122.000 353.000 200.000 43 52 62
122.000 353.000 201.000 44 53 62
123.000 352.000 200.000 42 52 61
123.000 353.000 200.000 43 52 62
122.000 354.000 201.000 43 52 62
122.000 355.000 201.000 44 53 62
123.000 354.000 200.000 43 52 62
123.000 355.000 200.000 43 52 61
123.000 355.000 201.000 44 53 62
121.000 357.000 201.000 43 51 60
120.000 356.000 202.000 41 49 58
120.000 357.000 202.000 41 49 58
121.000 356.000 202.000 43 52 60
121.000 357.000 202.000 42 51 59
121.000 358.000 201.000 43 51 60
121.000 359.000 201.000 43 51 59
120.000 358.000 202.000 43 51 59
120.000 359.000 202.000 44 51 59
121.000 358.000 202.000 43 51 60
121.000 359.000 202.000 43 51 60
122.000 356.000 201.000 45 53 62
122.000 357.000 201.000 45 53 62
123.000 356.000 200.000 45 54 62
123.000 356.000 201.000 46 54 63
123.000 357.000 200.000 45 53 62
123.000 357.000 201.000 46 54 63
122.000 357.000 202.000 44 52 61
122.000 358.000 201.000 43 51 60
122.000 359.000 201.000 43 51 59
123.000 358.000 200.000 45 53 61
123.000 358.000 201.000 45 53 61
123.000 359.000 200.000 44 52 60
124.000 353.000 200.000 42 52 61
124.000 354.000 200.000 42 51 61
124.000 355.000 200.000 42 51 60
125.000 355.000 200.000 41 51 60
124.000 356.000 200.000 43 51 61
124.000 357.000 200.000 45 53 61
125.000 356.000 200.000 42 51 60
125.000 357.000 200.000 44 52 61
124.000 358.000 200.000 45 53 61
124.000 359.000 200.000 44 51 59
125.000 358.000 200.000 44 52 60
125.000 359.000 200.000 43 51 59
122.000 365.000 199.000 44 51 58
123.000 364.000 199.000 45 52 60
123.000 365.000 199.000 44 51 59
122.000 366.000 199.000 44 51 59
122.000 367.000 199.000 44 51 59
123.000 366.000 199.000 46 52 60
123.000 367.000 199.000 45 52 60
124.000 361.000 199.000 44 52 60
125.000 360.000 199.000 45 53 61
125.000 361.000 199.000 45 53 61
124.000 362.000 199.000 44 51 59
124.000 363.000 199.000 44 51 59
125.000 362.000 199.000 44 51 59
125.000 363.000 199.000 43 51 58
126.000 360.000 199.000 45 53 62
126.000 361.000 198.000 44 52 61
126.000 361.000 199.000 45 53 61
127.000 360.000 198.000 45 53 62
127.000 361.000 198.000 44 52 61
127.000 361.000 199.000 44 52 61
126.000 362.000 199.000 44 52 60
126.000 363.000 198.000 45 52 60
126.000 363.000 199.000 44 52 60
127.000 362.000 198.000 44 51 60
127.000 362.000 199.000 44 52 61
127.000 363.000 198.000 44 52 60
124.000 364.000 199.000 45 52 59
124.000 365.000 199.000 46 52 60
125.000 364.000 199.000 44 51 59
125.000 365.000 198.000 46 52 60
125.000 365.000 199.000 46 52 60
124.000 366.000 199.000 46 52 60
124.000 367.000 198.000 45 52 60
124.000 367.000 199.000 46 52 60
125.000 366.000 198.000 45 52 59
125.000 367.000 198.000 45 52 59
126.000 365.000 197.000 44 51 59
127.000 364.000 197.000 44 52 60
127.000 365.000 197.000 45 53 60
126.000 364.000 198.000 44 51 59
126.000 364.000 199.000 43 51 59
126.000 365.000 198.000 44 51 59
127.000 364.000 198.000 44 52 60
126.000 366.000 197.000 44 51 59
126.000 367.000 197.000 45 51 59
127.000 366.000 197.000 45 52 60
127.000 367.000 196.000 45 52 60
127.000 367.000 197.000 46 52 60
126.000 366.000 198.000 44 51 59
126.000 367.000 198.000 44 51 59
120.000 360.000 201.000 43 50 58
120.000 361.000 201.000 43 50 58
121.000 360.000 201.000 43 51 59
121.000 361.000 201.000 43 50 58
120.000 360.000 202.000 42 50 58
120.000 361.000 202.000 43 50 57
120.000 362.000 201.000 43 50 58
120.000 363.000 201.000 44 50 58
121.000 362.000 200.000 44 51 59
121.000 362.000 201.000 44 51 58
121.000 363.000 200.000 43 51 58
121.000 363.000 201.000 43 50 58
120.000 362.000 202.000 44 50 57
122.000 360.000 200.000 43 51 59
122.000 360.000 201.000 43 50 58
122.000 361.000 200.000 43 51 59
122.000 361.000 201.000 42 50 59
123.000 360.000 200.000 43 50 59
123.000 361.000 200.000 42 51 59
122.000 362.000 200.000 44 51 59
122.000 363.000 200.000 44 51 59
123.000 362.000 200.000 44 51 60
123.000 363.000 200.000 45 52 60
120.000 364.000 201.000 44 51 58
120.000 365.000 201.000 43 51 58
121.000 364.000 200.000 44 51 58
121.000 364.000 201.000 44 51 58
121.000 365.000 200.000 43 50 58
121.000 365.000 201.000 44 51 58
120.000 366.000 201.000 43 51 59
120.000 367.000 200.000 45 53 60
120.000 367.000 201.000 44 52 60
121.000 366.000 200.000 45 52 59
121.000 367.000 200.000 45 52 60
122.000 364.000 200.000 43 51 58
122.000 365.000 200.000 42 50 57
123.000 364.000 200.000 44 52 59
123.000 365.000 200.000 43 50 58
122.000 366.000 200.000 44 51 59
124.000 360.000 200.000 44 52 60
124.000 361.000 200.000 43 51 59
124.000 362.000 200.000 43 51 59
112.000 352.000 208.000 41 48 56
112.000 353.000 208.000 42 49 57
113.000 352.000 208.000 40 49 57
113.000 353.000 208.000 41 49 57
113.000 354.000 208.000 41 48 56
113.000 355.000 208.000 41 48 56
113.000 356.000 208.000 40 47 55
113.000 357.000 208.000 40 47 55
113.000 358.000 208.000 41 48 56
113.000 359.000 208.000 41 49 57
113.000 360.000 208.000 42 50 58
113.000 361.000 208.000 43 50 58
113.000 362.000 208.000 43 50 58
113.000 363.000 208.000 42 50 58
112.000 364.000 208.000 42 50 58
112.000 365.000 208.000 43 50 58
113.000 364.000 208.000 43 50 58
112.000 368.000 207.000 42 50 58
112.000 369.000 206.000 44 51 59
113.000 368.000 206.000 43 50 58
113.000 369.000 206.000 43 50 58
113.000 370.000 206.000 44 51 59
113.000 371.000 206.000 45 52 60
114.000 368.000 205.000 44 52 60
114.000 369.000 205.000 44 51 59
115.000 368.000 204.000 45 52 60
115.000 368.000 205.000 45 52 60
115.000 369.000 204.000 46 53 60
115.000 369.000 205.000 45 53 61
114.000 368.000 206.000 43 51 59
114.000 369.000 206.000 43 50 58
114.000 370.000 205.000 45 52 60
114.000 371.000 205.000 45 52 60
115.000 370.000 204.000 47 53 61
115.000 370.000 205.000 46 53 61
115.000 371.000 204.000 46 53 61
115.000 371.000 205.000 46 53 60
114.000 370.000 206.000 43 50 58
112.000 373.000 207.000 44 52 61
113.000 372.000 206.000 46 53 60
113.000 373.000 206.000 46 53 61
113.000 373.000 207.000 44 52 61
112.000 374.000 207.000 44 53 62
112.000 375.000 207.000 45 53 62
113.000 374.000 206.000 45 53 62
113.000 374.000 207.000 45 53 62
113.000 375.000 206.000 45 53 62
113.000 375.000 207.000 45 53 62
114.000 372.000 205.000 44 52 60
114.000 373.000 205.000 45 53 61
115.000 372.000 204.000 44 52 61
115.000 372.000 205.000 44 52 60
115.000 373.000 204.000 44 53 62
115.000 373.000 205.000 45 53 61
114.000 374.000 205.000 46 53 61
114.000 375.000 205.000 45 53 62
115.000 374.000 204.000 45 53 62
115.000 374.000 205.000 44 53 62
115.000 375.000 204.000 44 53 63
115.000 375.000 205.000 44 53 62
116.000 368.000 203.000 45 52 60
116.000 369.000 203.000 45 52 60
117.000 368.000 202.000 45 52 61
117.000 368.000 203.000 45 52 60
117.000 369.000 202.000 45 53 61
117.000 369.000 203.000 45 53 61
116.000 370.000 203.000 47 54 62
116.000 371.000 203.000 47 54 62
117.000 370.000 202.000 47 54 62
117.000 370.000 203.000 47 54 62
117.000 371.000 202.000 46 54 62
117.000 371.000 203.000 47 54 62
118.000 369.000 201.000 45 53 61
119.000 368.000 201.000 45 53 61
119.000 369.000 201.000 46 54 62
118.000 368.000 202.000 44 52 61
118.000 369.000 202.000 45 53 61
118.000 370.000 201.000 45 53 61
118.000 371.000 201.000 45 53 62
119.000 370.000 201.000 45 54 62
119.000 371.000 201.000 46 54 63
118.000 370.000 202.000 46 54 62
118.000 371.000 202.000 45 53 62
116.000 368.000 204.000 45 52 60
116.000 369.000 204.000 46 53 61
116.000 370.000 204.000 47 53 61
116.000 371.000 204.000 47 54 62
116.000 372.000 203.000 46 54 62
116.000 373.000 203.000 45 53 62
117.000 372.000 202.000 47 54 63
117.000 373.000 202.000 47 55 63
117.000 375.000 201.000 50 58 66
116.000 374.000 203.000 45 54 63
116.000 375.000 203.000 45 54 64
117.000 374.000 202.000 47 56 64
117.000 375.000 202.000 47 56 64
118.000 372.000 201.000 46 54 63
118.000 373.000 201.000 48 55 64
119.000 372.000 201.000 46 54 63
119.000 373.000 200.000 46 54 63
119.000 373.000 201.000 46 55 63
118.000 372.000 202.000 46 54 63
118.000 373.000 202.000 48 56 64
118.000 374.000 201.000 49 57 65
118.000 375.000 200.000 48 56 64
118.000 375.000 201.000 49 57 66
119.000 374.000 200.000 47 55 64
119.000 375.000 200.000 47 55 64
116.000 372.000 204.000 46 53 62
116.000 373.000 204.000 44 53 62
116.000 374.000 204.000 45 53 62
116.000 375.000 204.000 45 54 63
119.000 376.000 199.000 47 56 65
119.000 377.000 199.000 47 56 65
119.000 378.000 199.000 48 56 66
119.000 379.000 199.000 47 56 65
119.000 380.000 199.000 46 55 65
119.000 381.000 199.000 46 55 65
119.000 382.000 199.000 47 56 66
115.000 377.000 203.000 45 54 64
115.000 378.000 203.000 45 54 64
115.000 379.000 203.000 45 54 64
112.000 376.000 207.000 44 53 62
112.000 377.000 206.000 45 54 63
112.000 377.000 207.000 45 54 63
113.000 376.000 206.000 45 54 63
113.000 377.000 206.000 46 55 64
113.000 378.000 205.000 48 56 65
113.000 379.000 205.000 47 56 65
112.000 378.000 206.000 46 55 64
112.000 379.000 206.000 45 54 64
113.000 378.000 206.000 47 55 64
114.000 376.000 205.000 46 54 62
114.000 377.000 205.000 46 54 63
115.000 376.000 204.000 44 54 63
115.000 376.000 205.000 45 53 63
115.000 377.000 204.000 45 54 64
115.000 377.000 205.000 45 54 63
114.000 378.000 204.000 46 55 64
114.000 378.000 205.000 47 55 64
114.000 379.000 204.000 46 55 64
115.000 378.000 204.000 45 54 64
115.000 379.000 204.000 46 55 64
114.000 380.000 203.000 47 55 65
114.000 381.000 203.000 47 56 65
115.000 380.000 202.000 46 55 65
115.000 380.000 203.000 46 55 65
115.000 381.000 202.000 47 56 66
115.000 381.000 203.000 47 56 65
114.000 382.000 203.000 48 56 65
114.000 383.000 203.000 46 55 64
115.000 382.000 202.000 47 56 66
115.000 382.000 203.000 48 56 66
115.000 383.000 202.000 45 55 64
112.000 381.000 205.000 47 56 66
113.000 380.000 204.000 47 56 65
113.000 380.000 205.000 46 55 64
113.000 381.000 204.000 47 56 65
113.000 381.000 205.000 47 56 65
112.000 381.000 206.000 45 55 65
112.000 382.000 205.000 47 56 65
113.000 382.000 204.000 48 56 65
113.000 382.000 205.000 47 56 65
113.000 383.000 204.000 47 56 65
113.000 383.000 205.000 46 55 64
112.000 382.000 206.000 46 55 65
114.000 380.000 204.000 46 55 64
114.000 381.000 204.000 47 56 65
114.000 382.000 204.000 47 56 65
117.000 376.000 201.000 49 57 66
117.000 377.000 201.000 48 56 66
116.000 376.000 203.000 45 55 64
116.000 377.000 202.000 46 55 65
116.000 377.000 203.000 45 54 64
117.000 376.000 202.000 47 56 65
117.000 377.000 202.000 47 56 65
117.000 378.000 201.000 48 57 66
117.000 379.000 201.000 47 56 65
116.000 378.000 202.000 46 55 65
116.000 378.000 203.000 45 54 64
116.000 379.000 202.000 46 55 65
116.000 379.000 203.000 45 55 64
117.000 378.000 202.000 47 56 65
118.000 376.000 200.000 49 57 66
118.000 376.000 201.000 49 57 66
118.000 377.000 200.000 49 57 66
118.000 377.000 201.000 49 57 66
119.000 376.000 200.000 47 56 65
119.000 377.000 200.000 47 56 65
118.000 378.000 200.000 49 58 66
118.000 379.000 200.000 49 57 66
119.000 378.000 200.000 47 56 65
119.000 379.000 200.000 47 56 65
116.000 376.000 204.000 45 54 64
116.000 380.000 201.000 46 56 65
116.000 381.000 201.000 48 57 66
117.000 380.000 201.000 46 56 65
117.000 381.000 200.000 47 56 66
117.000 381.000 201.000 47 56 66
116.000 380.000 202.000 46 56 65
116.000 381.000 202.000 47 56 66
116.000 382.000 201.000 47 56 65
116.000 383.000 201.000 47 55 65
117.000 382.000 200.000 47 56 65
117.000 382.000 201.000 47 56 65
116.000 382.000 202.000 46 55 65
116.000 383.000 202.000 45 54 64
118.000 380.000 200.000 47 56 65
118.000 381.000 200.000 47 56 65
119.000 380.000 200.000 47 56 66
119.000 381.000 200.000 47 56 65
118.000 382.000 200.000 47 56 65
119.000 382.000 200.000 48 57 66
121.000 368.000 199.000 46 54 61
121.000 369.000 199.000 46 54 62
121.000 370.000 199.000 48 55 64
121.000 371.000 199.000 47 55 63
122.000 368.000 199.000 45 53 61
122.000 369.000 199.000 46 54 62
123.000 368.000 199.000 47 54 61
123.000 369.000 198.000 49 56 64
123.000 369.000 199.000 48 55 63
122.000 370.000 199.000 47 55 63
122.000 371.000 199.000 45 53 62
123.000 370.000 198.000 48 56 64
123.000 370.000 199.000 48 56 64
123.000 371.000 198.000 48 56 65
123.000 371.000 199.000 45 54 63
121.000 372.000 199.000 45 53 61
121.000 373.000 199.000 45 53 62
120.000 375.000 199.000 46 55 64
121.000 374.000 199.000 45 53 62
121.000 375.000 199.000 46 54 63
122.000 372.000 199.000 44 52 61
122.000 373.000 199.000 44 52 61
123.000 372.000 198.000 45 54 63
123.000 372.000 199.000 45 54 63
123.000 373.000 198.000 45 54 62
123.000 373.000 199.000 44 53 62
122.000 374.000 199.000 45 53 62
122.000 375.000 199.000 45 54 62
123.000 374.000 198.000 46 54 63
123.000 374.000 199.000 45 53 62
123.000 375.000 198.000 46 54 62
127.000 371.000 195.000 46 53 60
125.000 368.000 197.000 45 52 60
125.000 369.000 197.000 46 53 61
124.000 368.000 198.000 45 52 60
124.000 369.000 198.000 46 53 61
125.000 368.000 198.000 45 52 60
125.000 369.000 198.000 46 53 61
125.000 370.000 197.000 45 53 61
125.000 371.000 197.000 44 52 60
124.000 370.000 198.000 47 54 62
124.000 371.000 198.000 46 54 63
126.000 368.000 197.000 44 51 59
126.000 369.000 196.000 44 52 59
126.000 369.000 197.000 45 52 59
127.000 368.000 196.000 46 52 60
127.000 368.000 197.000 45 52 60
127.000 369.000 196.000 45 52 60
127.000 369.000 197.000 44 51 59
126.000 370.000 196.000 45 51 59
126.000 370.000 197.000 45 52 59
126.000 371.000 196.000 45 52 60
126.000 371.000 197.000 45 52 59
127.000 370.000 196.000 46 53 60
127.000 371.000 196.000 45 52 60
127.000 372.000 195.000 45 52 60
127.000 373.000 195.000 45 52 60
127.000 374.000 195.000 45 52 60
127.000 375.000 195.000 45 53 60
125.000 372.000 197.000 44 52 60
125.000 373.000 197.000 45 52 61
124.000 372.000 198.000 44 53 62
124.000 373.000 198.000 45 53 62
125.000 372.000 198.000 44 52 60
124.000 375.000 197.000 44 53 61
125.000 374.000 197.000 45 53 61
125.000 375.000 197.000 44 52 60
124.000 374.000 198.000 45 53 62
124.000 375.000 198.000 45 53 62
126.000 372.000 196.000 44 51 59
126.000 372.000 197.000 43 51 59
126.000 373.000 196.000 45 52 60
126.000 373.000 197.000 45 52 60
127.000 372.000 196.000 45 52 60
127.000 373.000 196.000 45 52 60
126.000 374.000 196.000 45 52 60
126.000 374.000 197.000 45 52 60
126.000 375.000 196.000 45 52 60
126.000 375.000 197.000 44 52 60
127.000 374.000 196.000 45 52 60
127.000 375.000 196.000 45 52 60
120.000 368.000 200.000 46 54 62
120.000 368.000 201.000 46 54 62
120.000 369.000 200.000 46 54 62
120.000 369.000 201.000 47 54 62
121.000 368.000 200.000 47 54 62
121.000 369.000 200.000 46 53 62
120.000 370.000 200.000 47 54 63
120.000 371.000 200.000 47 54 63
120.000 371.000 201.000 47 55 63
121.000 370.000 200.000 47 55 63
121.000 371.000 200.000 47 55 63
120.000 372.000 200.000 46 54 63
120.000 373.000 200.000 46 54 63
121.000 372.000 200.000 45 53 62
121.000 373.000 200.000 45 53 62
120.000 374.000 200.000 47 55 64
120.000 375.000 200.000 47 56 64
121.000 374.000 200.000 45 54 62
120.000 376.000 199.000 47 55 64
120.000 377.000 199.000 48 56 65
121.000 376.000 199.000 46 54 63
121.000 377.000 199.000 47 55 64
120.000 378.000 199.000 49 57 66
120.000 379.000 199.000 48 57 66
121.000 378.000 199.000 47 55 64
121.000 379.000 198.000 46 54 63
121.000 379.000 199.000 46 55 64
122.000 376.000 198.000 44 52 61
122.000 376.000 199.000 44 53 62
122.000 377.000 198.000 45 54 63
122.000 377.000 199.000 46 54 63
123.000 376.000 198.000 45 54 62
123.000 377.000 198.000 46 54 63
123.000 379.000 197.000 46 54 63
122.000 378.000 198.000 47 55 64
122.000 379.000 198.000 46 54 63
123.000 378.000 198.000 46 54 63
123.000 379.000 198.000 46 54 63
120.000 380.000 199.000 48 57 66
120.000 381.000 199.000 47 56 65
121.000 380.000 198.000 47 55 64
121.000 380.000 199.000 48 56 65
121.000 381.000 198.000 46 55 64
120.000 382.000 199.000 47 56 65
121.000 382.000 198.000 47 55 64
122.000 380.000 197.000 46 54 62
122.000 381.000 197.000 45 53 61
123.000 380.000 197.000 46 54 62
123.000 381.000 196.000 46 54 62
123.000 381.000 197.000 45 53 62
122.000 380.000 198.000 45 54 62
122.000 381.000 198.000 45 53 62
122.000 382.000 197.000 45 53 62
123.000 382.000 196.000 46 54 62
123.000 382.000 197.000 46 53 62
122.000 382.000 198.000 46 54 63
127.000 376.000 195.000 45 53 60
127.000 377.000 195.000 45 52 60
126.000 379.000 195.000 44 52 60
127.000 378.000 195.000 45 52 60
127.000 379.000 195.000 45 52 60
124.000 376.000 197.000 46 54 63
124.000 377.000 197.000 47 55 63
125.000 376.000 197.000 45 53 62
125.000 377.000 197.000 46 54 62
124.000 376.000 198.000 46 54 63
124.000 377.000 198.000 47 55 63
124.000 378.000 197.000 47 54 63
124.000 379.000 196.000 48 55 63
124.000 379.000 197.000 47 55 63
125.000 378.000 196.000 46 53 62
125.000 378.000 197.000 46 54 62
125.000 379.000 196.000 47 54 63
126.000 376.000 196.000 45 53 61
126.000 376.000 197.000 45 53 61
126.000 377.000 196.000 45 53 61
127.000 376.000 196.000 46 53 60
127.000 377.000 196.000 45 52 60
126.000 378.000 196.000 45 53 61
126.000 379.000 196.000 45 53 61
127.000 378.000 196.000 45 53 60
125.000 380.000 195.000 45 53 61
125.000 381.000 195.000 45 53 61
124.000 382.000 195.000 46 54 62
126.000 380.000 195.000 44 52 60
126.000 381.000 195.000 44 52 61
127.000 380.000 194.000 43 51 59
127.000 380.000 195.000 43 51 59
127.000 381.000 194.000 44 51 60
124.000 380.000 196.000 47 54 62
124.000 380.000 197.000 46 54 62
124.000 381.000 196.000 46 54 62
125.000 380.000 196.000 47 54 62
125.000 381.000 196.000 46 53 61
124.000 382.000 196.000 46 54 62
137.000 363.000 191.000 43 50 57
138.000 361.000 191.000 43 50 57
139.000 361.000 191.000 44 51 58
137.000 367.000 191.000 43 50 58
138.000 364.000 191.000 42 49 56
138.000 365.000 191.000 42 49 56
139.000 364.000 191.000 43 50 57
139.000 365.000 191.000 43 50 57
138.000 366.000 191.000 41 48 56
138.000 367.000 191.000 41 49 57
139.000 366.000 190.000 43 50 57
139.000 366.000 191.000 42 49 56
139.000 367.000 191.000 42 49 57
141.000 361.000 191.000 41 48 55
142.000 361.000 191.000 41 48 55
143.000 362.000 191.000 42 49 56
140.000 365.000 191.000 43 50 57
141.000 365.000 191.000 44 50 57
140.000 366.000 191.000 43 49 56
142.000 364.000 191.000 44 50 57
142.000 365.000 190.000 43 49 56
142.000 365.000 191.000 44 50 57
143.000 364.000 191.000 42 48 56
143.000 365.000 191.000 42 49 56
133.000 374.000 191.000 45 52 59
133.000 375.000 191.000 45 52 59
134.000 375.000 191.000 46 52 60
135.000 375.000 190.000 44 51 59
131.000 379.000 191.000 46 53 61
131.000 380.000 191.000 48 54 62
131.000 381.000 191.000 48 55 62
132.000 376.000 191.000 45 52 60
132.000 377.000 191.000 45 52 60
133.000 376.000 191.000 44 51 59
133.000 377.000 191.000 45 52 60
132.000 378.000 191.000 44 51 59
132.000 379.000 191.000 44 52 60
133.000 378.000 190.000 45 53 60
133.000 378.000 191.000 45 52 60
133.000 379.000 190.000 45 52 60
134.000 376.000 190.000 47 54 61
134.000 376.000 191.000 46 53 60
134.000 377.000 190.000 47 54 61
135.000 376.000 190.000 46 53 60
135.000 377.000 190.000 47 53 61
135.000 378.000 189.000 47 53 61
135.000 379.000 189.000 47 54 62
134.000 378.000 190.000 47 54 61
134.000 379.000 190.000 47 54 62
135.000 378.000 190.000 47 54 62
135.000 379.000 190.000 48 54 62
132.000 380.000 190.000 46 53 61
132.000 380.000 191.000 46 53 61
132.000 381.000 190.000 46 53 60
132.000 381.000 191.000 47 54 61
133.000 380.000 190.000 45 52 60
133.000 381.000 190.000 44 52 60
135.000 380.000 189.000 47 55 63
135.000 381.000 189.000 47 54 63
134.000 380.000 190.000 46 53 61
134.000 381.000 190.000 45 52 60
135.000 380.000 190.000 48 55 63
135.000 381.000 190.000 49 55 63
136.000 368.000 191.000 44 51 59
137.000 368.000 191.000 43 50 59
137.000 369.000 191.000 43 51 59
136.000 370.000 191.000 45 52 60
136.000 371.000 191.000 45 52 60
137.000 370.000 191.000 45 52 60
137.000 371.000 191.000 45 52 60
138.000 368.000 191.000 41 49 57
138.000 369.000 191.000 41 49 57
139.000 370.000 189.000 44 51 58
139.000 371.000 189.000 44 51 58
137.000 372.000 191.000 44 51 59
139.000 372.000 189.000 45 51 58
139.000 375.000 189.000 42 50 58
138.000 374.000 190.000 43 50 58
139.000 374.000 190.000 43 50 57
139.000 375.000 190.000 42 50 57
140.000 369.000 189.000 45 52 59
141.000 369.000 189.000 44 50 57
140.000 369.000 190.000 45 51 58
140.000 370.000 189.000 45 52 59
141.000 370.000 189.000 43 50 57
141.000 371.000 189.000 44 51 58
142.000 369.000 189.000 43 49 56
142.000 369.000 190.000 43 49 56
143.000 368.000 190.000 43 50 57
143.000 369.000 190.000 43 49 56
142.000 370.000 189.000 42 49 56
142.000 371.000 189.000 43 50 57
143.000 370.000 189.000 42 49 56
143.000 371.000 189.000 43 50 58
140.000 372.000 189.000 47 53 60
141.000 372.000 189.000 45 52 59
141.000 373.000 189.000 46 53 60
140.000 375.000 189.000 44 51 59
142.000 372.000 189.000 44 51 58
143.000 372.000 189.000 44 51 59
143.000 374.000 188.000 44 52 59
136.000 377.000 189.000 47 53 60
137.000 376.000 189.000 45 51 59
136.000 378.000 189.000 47 53 60
136.000 379.000 189.000 46 53 60
137.000 379.000 189.000 45 52 60
138.000 376.000 189.000 43 50 58
139.000 376.000 189.000 42 50 58
139.000 377.000 189.000 43 51 59
136.000 380.000 189.000 45 53 61
136.000 381.000 189.000 45 53 61
137.000 380.000 189.000 46 53 61
139.000 381.000 189.000 44 52 60
140.000 376.000 189.000 44 51 59
140.000 377.000 189.000 44 52 60
141.000 377.000 188.000 47 54 62
140.000 378.000 189.000 45 52 60
142.000 376.000 188.000 45 52 60
142.000 377.000 188.000 47 54 61
143.000 378.000 188.000 46 52 60
144.000 362.000 191.000 42 48 55
145.000 363.000 191.000 40 47 55
144.000 365.000 190.000 42 48 55
145.000 364.000 191.000 41 48 56
145.000 368.000 190.000 43 49 57
144.000 370.000 189.000 41 48 56
144.000 371.000 189.000 42 49 57
144.000 370.000 190.000 41 48 56
145.000 375.000 188.000 43 50 57
144.000 376.000 188.000 43 51 58
145.000 376.000 188.000 43 50 57
129.000 347.000 197.000 40 47 55
128.000 347.000 198.000 41 49 56
129.000 347.000 198.000 41 48 56
130.000 347.000 197.000 39 46 54
131.000 346.000 197.000 40 46 53
131.000 347.000 197.000 39 46 53
131.000 351.000 195.000 41 48 56
128.000 348.000 197.000 41 49 57
128.000 349.000 197.000 42 49 57
129.000 348.000 197.000 40 48 55
129.000 349.000 197.000 41 48 56
128.000 348.000 198.000 41 49 57
128.000 349.000 198.000 43 50 57
128.000 350.000 197.000 41 48 56
128.000 351.000 197.000 41 49 57
129.000 350.000 196.000 41 48 56
129.000 350.000 197.000 41 48 56
129.000 351.000 196.000 41 49 57
129.000 351.000 197.000 41 49 57
128.000 350.000 198.000 41 49 57
130.000 348.000 197.000 40 47 54
130.000 349.000 196.000 41 48 55
131.000 348.000 196.000 39 46 53
131.000 348.000 197.000 39 46 53
131.000 349.000 196.000 39 46 53
130.000 350.000 196.000 41 48 56
130.000 351.000 196.000 41 49 56
131.000 350.000 196.000 39 47 54
131.000 351.000 196.000 41 48 56
132.000 346.000 197.000 40 47 54
132.000 347.000 197.000 40 46 53
133.000 346.000 197.000 41 47 54
133.000 347.000 197.000 40 47 53
134.000 347.000 197.000 40 46 53
135.000 347.000 197.000 40 47 54
135.000 347.000 198.000 40 47 54
132.000 350.000 195.000 40 47 55
132.000 351.000 195.000 40 47 55
133.000 350.000 195.000 42 48 56
133.000 351.000 194.000 41 48 56
133.000 351.000 195.000 41 48 56
134.000 350.000 195.000 40 48 55
134.000 351.000 194.000 41 48 55
134.000 351.000 195.000 41 48 55
135.000 350.000 195.000 41 48 55
135.000 351.000 194.000 41 47 54
135.000 351.000 195.000 41 47 55
132.000 348.000 196.000 39 46 53
132.000 348.000 197.000 39 46 53
132.000 349.000 196.000 40 46 53
133.000 348.000 196.000 40 46 54
133.000 348.000 197.000 40 46 53
133.000 349.000 196.000 40 47 54
132.000 350.000 196.000 40 46 54
134.000 348.000 196.000 40 47 54
134.000 348.000 197.000 39 46 53
134.000 349.000 196.000 40 47 54
135.000 348.000 196.000 39 47 54
135.000 348.000 197.000 39 46 54
135.000 349.000 196.000 39 46 54
136.000 347.000 198.000 40 47 54
137.000 347.000 198.000 40 46 53
136.000 350.000 195.000 42 48 55
136.000 351.000 194.000 41 47 54
136.000 351.000 195.000 41 47 54
137.000 350.000 195.000 42 47 54
137.000 351.000 194.000 41 47 54
137.000 351.000 195.000 41 47 53
138.000 351.000 195.000 41 47 54
139.000 351.000 195.000 40 47 54
136.000 348.000 196.000 39 47 54
136.000 348.000 197.000 40 47 54
136.000 349.000 196.000 40 47 54
136.000 349.000 197.000 40 47 54
137.000 349.000 196.000 42 48 55
137.000 349.000 197.000 40 47 53
136.000 348.000 198.000 39 47 54
137.000 348.000 198.000 40 46 53
136.000 350.000 196.000 41 47 54
137.000 350.000 196.000 42 47 54
138.000 349.000 197.000 41 47 53
138.000 349.000 198.000 41 46 53
139.000 349.000 198.000 40 46 52
138.000 350.000 196.000 41 47 54
138.000 350.000 197.000 41 47 53
138.000 351.000 196.000 41 47 54
139.000 350.000 197.000 40 46 53
139.000 351.000 196.000 41 47 54
139.000 351.000 197.000 40 47 54
140.000 351.000 197.000 40 47 54
140.000 350.000 198.000 40 46 53
141.000 351.000 200.000 40 47 55
142.000 351.000 200.000 40 47 54
142.000 351.000 201.000 40 47 54
143.000 350.000 201.000 39 46 53
143.000 351.000 201.000 40 47 54
143.000 351.000 202.000 40 47 55
144.000 350.000 201.000 39 46 53
144.000 351.000 201.000 40 47 54
145.000 350.000 201.000 40 46 53
145.000 351.000 201.000 41 47 54
146.000 350.000 201.000 40 46 52
130.000 352.000 195.000 42 49 57
130.000 353.000 195.000 42 50 58
131.000 352.000 195.000 41 48 56
131.000 353.000 195.000 42 49 57
131.000 354.000 195.000 42 50 58
131.000 355.000 195.000 44 52 60
128.000 352.000 197.000 41 50 58
128.000 353.000 197.000 43 51 59
129.000 352.000 196.000 41 49 58
129.000 352.000 197.000 41 49 58
129.000 353.000 196.000 42 50 59
129.000 353.000 197.000 42 50 59
128.000 354.000 197.000 43 51 60
128.000 355.000 197.000 44 52 61
129.000 354.000 196.000 44 51 60
129.000 354.000 197.000 43 51 60
129.000 355.000 196.000 45 53 61
129.000 355.000 197.000 45 53 61
128.000 354.000 198.000 43 51 60
128.000 355.000 198.000 43 51 60
130.000 352.000 196.000 42 49 57
130.000 353.000 196.000 42 50 58
130.000 354.000 196.000 44 51 60
130.000 355.000 196.000 45 52 61
131.000 356.000 195.000 44 52 60
128.000 356.000 197.000 43 52 61
129.000 356.000 197.000 44 52 61
129.000 357.000 197.000 44 52 61
128.000 356.000 198.000 43 52 61
128.000 357.000 198.000 43 52 61
128.000 358.000 197.000 44 53 62
128.000 359.000 197.000 44 53 62
129.000 358.000 197.000 44 53 62
129.000 359.000 197.000 43 52 61
128.000 358.000 198.000 43 52 61
128.000 359.000 198.000 44 53 62
129.000 359.000 198.000 44 53 62
130.000 356.000 196.000 44 52 61
130.000 357.000 196.000 44 52 61
130.000 357.000 197.000 44 52 61
131.000 356.000 196.000 44 52 60
131.000 357.000 196.000 43 52 61
130.000 358.000 197.000 44 52 61
130.000 359.000 196.000 42 51 60
130.000 359.000 197.000 42 52 61
131.000 358.000 196.000 43 52 61
131.000 359.000 196.000 43 51 61
131.000 359.000 197.000 43 52 61
132.000 352.000 195.000 41 48 55
132.000 353.000 194.000 41 48 56
132.000 353.000 195.000 41 48 56
133.000 352.000 194.000 41 48 55
133.000 353.000 194.000 41 48 56
132.000 354.000 194.000 41 48 56
132.000 354.000 195.000 42 49 56
132.000 355.000 195.000 43 50 58
133.000 354.000 194.000 41 48 56
133.000 355.000 194.000 42 49 56
134.000 352.000 194.000 41 48 55
134.000 353.000 194.000 40 47 55
135.000 352.000 194.000 41 47 55
135.000 353.000 194.000 40 47 54
134.000 354.000 194.000 41 48 55
134.000 355.000 194.000 41 48 56
135.000 354.000 194.000 40 47 54
135.000 355.000 194.000 39 47 54
132.000 356.000 195.000 43 51 59
132.000 357.000 195.000 43 51 59
133.000 356.000 194.000 43 50 58
133.000 356.000 195.000 43 50 58
133.000 357.000 194.000 43 50 58
133.000 357.000 195.000 43 50 58
132.000 358.000 195.000 44 52 60
132.000 359.000 195.000 43 52 60
133.000 358.000 195.000 43 51 59
133.000 359.000 194.000 42 50 59
133.000 359.000 195.000 43 51 60
134.000 356.000 194.000 42 49 57
134.000 357.000 194.000 43 50 58
135.000 356.000 194.000 40 48 56
135.000 357.000 194.000 41 49 57
135.000 358.000 193.000 39 47 56
135.000 359.000 193.000 39 47 56
134.000 358.000 194.000 42 50 58
134.000 359.000 194.000 42 50 59
135.000 358.000 194.000 40 48 56
132.000 359.000 196.000 43 52 60
131.000 362.000 195.000 43 51 60
131.000 363.000 195.000 43 52 60
129.000 360.000 197.000 42 51 61
129.000 361.000 197.000 44 53 62
128.000 360.000 198.000 43 52 62
128.000 361.000 198.000 43 52 61
129.000 360.000 198.000 43 52 61
129.000 361.000 198.000 43 52 61
128.000 363.000 197.000 44 52 60
129.000 362.000 197.000 45 53 62
129.000 363.000 196.000 44 52 61
129.000 363.000 197.000 45 53 61
128.000 362.000 198.000 43 52 60
128.000 363.000 198.000 43 51 59
129.000 362.000 198.000 44 53 61
130.000 360.000 196.000 42 51 60
130.000 360.000 197.000 42 51 60
130.000 361.000 196.000 43 52 61
130.000 361.000 197.000 43 52 61
131.000 360.000 196.000 43 52 61
131.000 361.000 196.000 43 52 61
130.000 362.000 196.000 43 52 61
130.000 362.000 197.000 44 52 61
130.000 363.000 196.000 43 52 60
131.000 362.000 196.000 43 52 61
129.000 367.000 195.000 44 51 59
130.000 364.000 195.000 43 51 59
130.000 365.000 195.000 43 51 59
131.000 364.000 195.000 43 52 61
131.000 365.000 195.000 43 51 60
130.000 366.000 195.000 44 52 60
130.000 367.000 195.000 44 51 59
131.000 366.000 194.000 43 52 61
131.000 366.000 195.000 44 52 61
131.000 367.000 194.000 45 53 61
131.000 367.000 195.000 45 53 61
128.000 364.000 197.000 44 52 60
128.000 365.000 197.000 46 53 61
129.000 364.000 196.000 44 52 60
129.000 364.000 197.000 45 52 61
129.000 365.000 196.000 45 52 60
128.000 366.000 196.000 45 52 59
128.000 366.000 197.000 45 52 60
128.000 367.000 196.000 44 52 59
128.000 367.000 197.000 45 52 60
129.000 366.000 196.000 45 52 60
129.000 367.000 196.000 44 51 59
130.000 364.000 196.000 43 51 59
130.000 365.000 196.000 43 51 59
130.000 366.000 196.000 44 52 59
132.000 360.000 195.000 44 52 61
132.000 361.000 195.000 44 52 61
133.000 360.000 194.000 42 51 60
133.000 360.000 195.000 43 51 60
133.000 361.000 194.000 42 51 60
133.000 361.000 195.000 43 52 61
133.000 363.000 193.000 44 52 60
132.000 362.000 195.000 43 52 61
132.000 363.000 194.000 44 53 62
132.000 363.000 195.000 43 52 61
133.000 362.000 194.000 43 52 61
133.000 363.000 194.000 45 53 62
134.000 360.000 193.000 41 50 58
134.000 361.000 193.000 42 50 59
135.000 360.000 193.000 40 48 56
134.000 360.000 194.000 42 51 59
135.000 363.000 193.000 43 50 58
134.000 362.000 194.000 42 50 59
133.000 364.000 193.000 46 54 62
132.000 364.000 194.000 44 53 62
132.000 365.000 194.000 42 51 61
133.000 364.000 194.000 45 54 63
133.000 365.000 194.000 44 53 62
133.000 366.000 193.000 45 54 63
133.000 367.000 193.000 44 53 62
132.000 366.000 194.000 42 52 61
132.000 367.000 194.000 43 52 62
133.000 366.000 194.000 44 53 62
134.000 364.000 193.000 43 51 59
134.000 365.000 193.000 46 53 61
135.000 364.000 193.000 44 51 58
135.000 365.000 192.000 45 52 59
134.000 366.000 193.000 46 54 62
134.000 367.000 193.000 46 53 62
135.000 366.000 192.000 44 52 59
135.000 367.000 192.000 44 51 59
136.000 352.000 194.000 41 48 55
136.000 353.000 194.000 41 47 54
137.000 352.000 194.000 41 47 54
137.000 353.000 194.000 41 47 54
136.000 354.000 194.000 40 47 54
136.000 355.000 194.000 40 47 54
137.000 354.000 194.000 41 48 55
138.000 352.000 194.000 41 48 55
138.000 352.000 195.000 42 48 55
138.000 353.000 194.000 41 47 55
139.000 352.000 195.000 40 47 54
139.000 353.000 194.000 42 48 55
139.000 353.000 195.000 42 48 55
138.000 354.000 194.000 43 49 56
139.000 354.000 194.000 42 49 56
136.000 357.000 193.000 40 48 56
137.000 357.000 193.000 40 48 56
136.000 356.000 194.000 40 48 56
137.000 356.000 194.000 41 49 56
136.000 358.000 193.000 40 48 56
136.000 359.000 193.000 40 48 56
137.000 359.000 192.000 39 47 55
138.000 356.000 193.000 42 49 57
138.000 357.000 193.000 41 48 56
139.000 356.000 193.000 43 50 57
139.000 357.000 193.000 43 50 57
138.000 358.000 192.000 42 49 56
138.000 359.000 192.000 41 49 56
139.000 358.000 192.000 42 49 56
139.000 359.000 192.000 41 48 56
140.000 353.000 195.000 41 48 55
140.000 354.000 194.000 42 48 55
140.000 355.000 194.000 41 48 55
141.000 354.000 195.000 40 47 54
141.000 355.000 194.000 40 47 54
143.000 355.000 195.000 41 47 53
140.000 352.000 196.000 40 47 54
142.000 353.000 197.000 40 47 54
143.000 353.000 198.000 40 46 53
143.000 354.000 196.000 41 47 54
143.000 355.000 196.000 41 47 54
143.000 355.000 197.000 41 47 54
140.000 356.000 193.000 43 49 57
140.000 357.000 193.000 42 49 56
141.000 357.000 193.000 42 48 55
140.000 358.000 192.000 41 48 56
140.000 359.000 192.000 42 49 56
141.000 358.000 192.000 42 49 56
141.000 359.000 192.000 43 49 56
142.000 357.000 193.000 43 49 56
143.000 356.000 195.000 41 48 54
142.000 358.000 192.000 44 49 56
142.000 358.000 193.000 43 49 56
142.000 359.000 192.000 44 50 57
143.000 359.000 192.000 43 49 56
143.000 352.000 200.000 42 48 55
143.000 352.000 201.000 40 47 54
143.000 353.000 200.000 42 48 55
136.000 361.000 192.000 43 50 57
136.000 361.000 193.000 43 50 57
137.000 360.000 192.000 42 49 56
136.000 362.000 192.000 44 51 58
136.000 363.000 192.000 45 51 59
137.000 363.000 192.000 44 50 58
138.000 360.000 192.000 43 50 57
139.000 360.000 192.000 43 50 57
136.000 364.000 192.000 44 51 59
136.000 365.000 192.000 45 51 59
137.000 364.000 192.000 43 50 58
137.000 365.000 192.000 43 50 58
136.000 366.000 192.000 44 51 59
136.000 367.000 192.000 44 51 59
143.000 360.000 192.000 44 50 57
143.000 361.000 192.000 43 50 57
128.000 368.000 195.000 44 51 59
128.000 369.000 195.000 44 52 60
129.000 368.000 195.000 44 51 59
129.000 369.000 194.000 43 50 58
129.000 369.000 195.000 43 51 59
128.000 370.000 195.000 45 52 60
128.000 371.000 195.000 45 52 60
129.000 370.000 194.000 42 50 58
129.000 370.000 195.000 43 51 59
129.000 371.000 194.000 44 52 60
130.000 368.000 194.000 44 51 59
130.000 368.000 195.000 43 51 59
130.000 369.000 194.000 43 51 58
131.000 368.000 194.000 45 52 61
131.000 369.000 194.000 45 52 61
131.000 370.000 193.000 45 52 61
131.000 371.000 193.000 44 52 60
130.000 370.000 194.000 43 51 59
130.000 371.000 194.000 43 51 59
131.000 370.000 194.000 44 52 60
131.000 371.000 194.000 44 52 60
128.000 368.000 196.000 45 52 60
128.000 369.000 196.000 44 52 60
128.000 372.000 195.000 45 52 60
128.000 373.000 195.000 46 53 60
129.000 372.000 194.000 44 52 60
129.000 373.000 194.000 44 52 59
128.000 374.000 195.000 45 52 59
128.000 375.000 195.000 46 53 60
129.000 374.000 194.000 44 51 58
129.000 375.000 194.000 44 51 58
130.000 372.000 193.000 44 51 59
130.000 373.000 193.000 43 50 58
131.000 372.000 193.000 44 51 59
131.000 373.000 193.000 43 51 59
130.000 372.000 194.000 45 52 60
130.000 373.000 194.000 44 51 59
130.000 374.000 193.000 43 50 57
130.000 375.000 193.000 44 51 58
131.000 374.000 192.000 46 52 59
131.000 374.000 193.000 45 51 59
131.000 375.000 192.000 46 52 60
131.000 375.000 193.000 46 52 60
132.000 368.000 193.000 43 52 61
132.000 369.000 193.000 44 52 61
133.000 368.000 193.000 44 53 61
133.000 369.000 193.000 43 52 61
132.000 368.000 194.000 43 52 61
132.000 369.000 194.000 44 53 61
132.000 370.000 193.000 45 53 61
133.000 370.000 193.000 44 52 60
134.000 368.000 193.000 45 53 62
134.000 369.000 192.000 45 53 61
134.000 369.000 193.000 45 53 61
135.000 368.000 192.000 43 51 59
135.000 369.000 192.000 44 52 60
134.000 370.000 192.000 45 53 61
134.000 371.000 192.000 45 53 61
135.000 370.000 192.000 44 52 61
135.000 371.000 192.000 45 52 61
132.000 372.000 193.000 44 51 59
132.000 373.000 192.000 44 51 59
132.000 374.000 192.000 46 52 59
132.000 375.000 192.000 46 52 59
133.000 374.000 192.000 45 52 59
133.000 375.000 192.000 46 52 60
134.000 372.000 192.000 44 52 60
134.000 373.000 192.000 45 52 60
129.000 377.000 193.000 46 53 61
128.000 376.000 194.000 46 53 60
128.000 376.000 195.000 46 53 60
128.000 377.000 194.000 46 53 60
128.000 377.000 195.000 45 52 60
129.000 376.000 194.000 45 52 60
129.000 377.000 194.000 46 53 61
129.000 378.000 193.000 45 52 60
129.000 379.000 193.000 46 53 61
128.000 378.000 194.000 46 53 60
128.000 379.000 194.000 45 52 60
129.000 378.000 194.000 46 53 60
130.000 376.000 193.000 45 52 60
130.000 377.000 193.000 45 53 60
131.000 376.000 192.000 45 52 60
131.000 376.000 193.000 46 52 59
131.000 377.000 192.000 44 52 60
130.000 378.000 192.000 45 53 60
130.000 378.000 193.000 45 52 60
130.000 379.000 192.000 47 54 61
130.000 379.000 193.000 46 53 61
131.000 378.000 192.000 45 52 60
131.000 379.000 192.000 46 53 61
128.000 380.000 193.000 46 53 60
128.000 381.000 193.000 46 52 60
129.000 380.000 192.000 47 54 62
129.000 380.000 193.000 47 54 61
129.000 381.000 192.000 48 55 62
129.000 381.000 193.000 47 54 61
128.000 380.000 194.000 45 51 59
128.000 381.000 194.000 45 52 59
128.000 382.000 194.000 45 52 60
130.000 380.000 192.000 47 54 62
130.000 381.000 192.000 48 55 62
131.000 380.000 192.000 47 54 62
132.000 376.000 192.000 45 52 59
132.000 377.000 192.000 45 52 60
132.000 378.000 192.000 44 52 60
136.000 368.000 192.000 44 51 59
136.000 369.000 192.000 44 52 60
144.000 355.000 197.000 41 47 54
145.000 354.000 197.000 40 47 54
145.000 355.000 197.000 41 47 53
144.000 354.000 198.000 40 47 54
144.000 354.000 199.000 41 47 54
145.000 354.000 198.000 40 47 54
145.000 354.000 199.000 41 47 54
146.000 353.000 199.000 40 47 53
146.000 355.000 197.000 39 46 53
146.000 354.000 198.000 40 46 54
144.000 357.000 195.000 41 48 54
144.000 356.000 196.000 41 47 54
145.000 356.000 196.000 41 47 53
145.000 357.000 196.000 41 48 55
146.000 357.000 196.000 41 47 54
144.000 352.000 200.000 39 46 53
144.000 352.000 201.000 38 46 53
144.000 353.000 200.000 41 47 54
145.000 352.000 200.000 40 46 53
145.000 353.000 200.000 41 47 54
146.000 352.000 200.000 39 45 52
146.000 353.000 200.000 39 46 52
144.000 360.000 192.000 42 48 56
144.000 360.000 193.000 41 48 55
144.000 361.000 192.000 41 48 55
145.000 361.000 192.000 40 47 54
145.000 361.000 193.000 40 47 54
144.000 362.000 192.000 42 48 55
145.000 362.000 192.000 40 48 55
146.000 362.000 192.000 40 47 55
146.000 362.000 193.000 41 48 56
146.000 363.000 192.000 41 48 56
146.000 366.000 192.000 41 48 55
