ply
format ascii 1.0
element vertex 399
property float x
property float y
property float z
property uchar red
property uchar green
property uchar blue
end_header
281.000 13.000 171.000 78 72 70
281.000 14.000 169.000 78 72 70
280.000 14.000 171.000 78 73 70
282.000 12.000 168.000 77 71 68
282.000 13.000 168.000 77 72 69
281.000 13.000 173.000 78 72 69
281.000 13.000 174.000 78 72 69
281.000 13.000 175.000 78 72 69
280.000 14.000 172.000 78 73 70
280.000 14.000 173.000 78 73 70
280.000 14.000 174.000 78 72 70
280.000 15.000 175.000 78 72 69
282.000 12.000 175.000 78 72 69
281.000 13.000 176.000 78 72 69
281.000 14.000 176.000 78 72 69
281.000 14.000 177.000 78 72 69
281.000 14.000 178.000 79 72 69
281.000 15.000 178.000 78 72 68
281.000 15.000 179.000 78 72 68
282.000 12.000 177.000 78 72 68
282.000 13.000 176.000 78 72 68
282.000 13.000 177.000 78 72 68
282.000 13.000 178.000 78 72 68
283.000 13.000 178.000 78 72 68
283.000 13.000 179.000 78 72 68
282.000 14.000 179.000 78 72 68
283.000 14.000 179.000 78 72 68
283.000 13.000 180.000 78 71 68
283.000 13.000 181.000 78 72 68
282.000 14.000 180.000 78 71 67
282.000 14.000 181.000 79 72 69
282.000 15.000 180.000 78 71 67
282.000 15.000 181.000 78 71 67
283.000 14.000 180.000 78 71 68
283.000 14.000 181.000 78 72 68
283.000 14.000 182.000 78 71 68
284.000 12.000 179.000 78 71 68
284.000 13.000 180.000 78 71 68
284.000 13.000 182.000 78 71 68
284.000 13.000 183.000 77 71 67
285.000 12.000 182.000 77 71 67
285.000 13.000 184.000 77 70 67
284.000 14.000 185.000 76 70 66
287.000 13.000 187.000 75 69 65
285.000 15.000 191.000 75 69 66
287.000 12.000 189.000 74 67 63
287.000 13.000 189.000 74 68 64
287.000 13.000 191.000 72 66 62
286.000 14.000 188.000 75 69 64
286.000 14.000 191.000 73 66 62
279.000 18.000 170.000 81 76 73
279.000 19.000 170.000 83 77 73
279.000 17.000 172.000 80 74 72
279.000 18.000 173.000 82 76 74
279.000 19.000 172.000 84 78 74
279.000 19.000 173.000 85 78 75
279.000 18.000 174.000 82 76 73
279.000 19.000 174.000 85 78 74
279.000 20.000 171.000 83 75 70
279.000 21.000 170.000 81 71 63
279.000 20.000 172.000 84 76 71
279.000 20.000 173.000 84 75 70
279.000 21.000 172.000 82 73 65
279.000 21.000 173.000 82 72 64
278.000 20.000 175.000 83 74 68
278.000 21.000 175.000 82 72 65
279.000 20.000 174.000 83 74 68
279.000 25.000 170.000 80 70 64
279.000 26.000 169.000 66 58 51
279.000 27.000 168.000 61 55 50
279.000 27.000 171.000 61 55 52
279.000 25.000 172.000 77 68 60
279.000 25.000 173.000 76 67 59
279.000 24.000 174.000 85 75 67
279.000 26.000 172.000 66 58 51
279.000 26.000 173.000 65 57 49
279.000 27.000 172.000 61 55 51
279.000 30.000 168.000 58 54 52
279.000 31.000 168.000 59 55 53
279.000 30.000 171.000 60 56 54
280.000 28.000 168.000 60 55 52
280.000 29.000 168.000 58 54 52
279.000 21.000 177.000 81 71 62
279.000 21.000 178.000 81 71 61
279.000 21.000 179.000 82 71 62
279.000 22.000 176.000 82 70 61
279.000 22.000 177.000 83 71 61
279.000 23.000 176.000 84 72 61
279.000 23.000 177.000 86 73 63
279.000 22.000 178.000 83 71 61
279.000 22.000 179.000 83 71 61
279.000 23.000 178.000 85 72 61
279.000 24.000 176.000 85 74 65
279.000 24.000 177.000 86 75 67
279.000 25.000 177.000 73 63 55
279.000 26.000 177.000 63 55 49
279.000 26.000 178.000 61 53 47
278.000 29.000 178.000 63 57 53
279.000 29.000 186.000 67 60 56
279.000 29.000 187.000 66 60 55
278.000 31.000 186.000 66 59 54
278.000 31.000 187.000 65 59 54
279.000 30.000 187.000 66 60 55
279.000 29.000 188.000 67 59 54
278.000 31.000 188.000 66 59 54
278.000 31.000 189.000 65 58 53
279.000 30.000 188.000 66 59 54
279.000 30.000 189.000 66 58 52
279.000 30.000 190.000 65 57 52
279.000 30.000 191.000 66 60 56
280.000 16.000 176.000 79 73 70
280.000 16.000 177.000 79 73 70
280.000 17.000 178.000 81 75 72
281.000 16.000 179.000 79 72 68
280.000 18.000 179.000 81 75 71
281.000 16.000 180.000 80 73 69
280.000 19.000 180.000 83 76 71
282.000 16.000 182.000 77 71 68
282.000 16.000 183.000 78 72 70
280.000 22.000 179.000 84 71 60
280.000 23.000 179.000 85 73 63
280.000 23.000 180.000 85 73 63
280.000 23.000 181.000 84 72 62
280.000 23.000 182.000 84 71 61
280.000 23.000 183.000 85 73 62
280.000 22.000 185.000 87 74 64
280.000 23.000 184.000 85 72 60
281.000 23.000 187.000 86 72 61
281.000 21.000 188.000 83 71 62
281.000 22.000 188.000 83 70 59
281.000 23.000 188.000 82 69 56
282.000 20.000 191.000 83 73 65
282.000 21.000 191.000 83 70 61
283.000 20.000 191.000 83 73 65
282.000 22.000 191.000 82 68 58
282.000 23.000 191.000 85 73 63
280.000 24.000 179.000 85 75 66
280.000 24.000 180.000 84 73 65
280.000 24.000 181.000 85 75 67
280.000 24.000 182.000 87 76 68
280.000 27.000 184.000 64 57 53
280.000 27.000 185.000 65 58 54
281.000 26.000 188.000 65 54 44
281.000 27.000 189.000 63 54 48
281.000 27.000 190.000 63 55 49
282.000 24.000 191.000 80 69 60
280.000 28.000 186.000 66 59 55
280.000 28.000 187.000 65 58 54
280.000 28.000 188.000 65 58 52
280.000 28.000 189.000 66 58 51
280.000 28.000 190.000 65 57 51
280.000 29.000 190.000 64 57 53
280.000 29.000 191.000 65 59 55
278.000 35.000 170.000 60 55 53
278.000 35.000 171.000 60 56 54
277.000 35.000 172.000 60 56 54
277.000 35.000 173.000 61 57 54
277.000 34.000 174.000 62 57 54
277.000 34.000 175.000 62 57 53
277.000 35.000 174.000 61 57 54
277.000 35.000 175.000 61 56 53
278.000 33.000 174.000 62 57 54
278.000 33.000 175.000 63 57 53
278.000 35.000 172.000 60 56 54
278.000 35.000 173.000 61 57 54
278.000 34.000 174.000 62 57 54
276.000 39.000 170.000 61 62 65
277.000 38.000 171.000 58 57 57
278.000 36.000 170.000 59 55 53
277.000 36.000 172.000 60 56 54
277.000 36.000 173.000 60 56 54
277.000 37.000 172.000 59 56 55
277.000 37.000 173.000 59 56 55
276.000 37.000 174.000 60 57 56
276.000 37.000 175.000 60 56 55
277.000 36.000 174.000 60 56 54
277.000 37.000 174.000 60 56 55
277.000 37.000 175.000 59 56 54
277.000 38.000 172.000 58 56 56
277.000 38.000 173.000 59 56 56
276.000 38.000 175.000 60 58 57
276.000 39.000 174.000 64 63 65
276.000 39.000 175.000 63 62 64
276.000 40.000 170.000 72 74 79
276.000 41.000 171.000 84 87 94
276.000 40.000 172.000 69 70 74
276.000 40.000 173.000 70 71 74
276.000 41.000 172.000 82 85 90
276.000 41.000 173.000 78 80 85
276.000 40.000 174.000 69 69 72
277.000 35.000 178.000 61 56 54
278.000 34.000 181.000 64 58 55
278.000 34.000 183.000 65 59 55
276.000 37.000 176.000 59 56 55
277.000 36.000 177.000 60 56 55
276.000 37.000 178.000 58 56 56
276.000 37.000 179.000 58 56 57
276.000 38.000 177.000 59 58 58
276.000 39.000 176.000 62 62 64
276.000 39.000 177.000 62 61 63
276.000 38.000 178.000 59 58 59
276.000 39.000 178.000 64 64 67
276.000 39.000 179.000 63 64 67
276.000 37.000 181.000 59 58 59
277.000 37.000 180.000 59 57 57
277.000 37.000 181.000 60 58 58
276.000 37.000 182.000 60 58 58
276.000 37.000 183.000 61 59 60
276.000 38.000 181.000 61 60 62
277.000 34.000 184.000 65 59 56
277.000 34.000 185.000 65 60 56
277.000 35.000 184.000 64 59 56
277.000 34.000 188.000 65 59 55
277.000 35.000 190.000 67 61 57
277.000 35.000 191.000 69 63 58
278.000 35.000 189.000 66 59 55
278.000 34.000 191.000 69 62 58
278.000 35.000 190.000 68 61 57
278.000 35.000 191.000 69 63 58
276.000 37.000 184.000 63 61 61
276.000 37.000 187.000 63 60 60
277.000 37.000 186.000 63 60 58
276.000 38.000 184.000 66 64 65
276.000 38.000 187.000 65 63 64
276.000 39.000 187.000 69 69 71
277.000 36.000 189.000 66 60 56
277.000 37.000 188.000 64 60 58
277.000 37.000 189.000 66 61 59
277.000 36.000 190.000 67 61 58
277.000 37.000 190.000 67 62 60
277.000 37.000 191.000 69 63 60
276.000 38.000 188.000 66 65 65
277.000 38.000 189.000 66 63 62
277.000 38.000 191.000 68 64 62
275.000 40.000 178.000 72 74 79
275.000 40.000 179.000 72 75 80
275.000 40.000 180.000 74 75 80
275.000 40.000 182.000 75 77 82
276.000 40.000 186.000 75 76 80
288.000 12.000 190.000 72 67 64
288.000 12.000 191.000 73 67 65
286.000 15.000 192.000 76 70 66
287.000 14.000 192.000 73 67 63
287.000 15.000 194.000 79 73 69
279.000 30.000 192.000 68 61 57
279.000 30.000 194.000 71 64 60
279.000 31.000 194.000 71 64 59
279.000 31.000 195.000 72 64 58
279.000 31.000 197.000 68 59 53
283.000 22.000 194.000 74 63 52
283.000 23.000 194.000 81 71 63
284.000 16.000 192.000 80 74 71
284.000 17.000 192.000 80 74 71
285.000 16.000 193.000 80 73 69
285.000 17.000 194.000 82 74 69
286.000 19.000 195.000 84 76 70
287.000 17.000 198.000 63 57 52
287.000 17.000 199.000 55 49 43
287.000 18.000 196.000 81 73 69
287.000 19.000 196.000 83 74 69
286.000 19.000 199.000 82 74 68
287.000 19.000 198.000 83 75 70
287.000 19.000 199.000 82 73 68
284.000 21.000 194.000 83 72 63
285.000 20.000 194.000 85 75 68
285.000 20.000 195.000 85 75 67
285.000 21.000 195.000 83 73 64
284.000 22.000 194.000 79 67 57
284.000 23.000 196.000 80 71 65
285.000 22.000 196.000 78 68 59
285.000 22.000 199.000 76 66 59
285.000 23.000 199.000 75 67 61
286.000 20.000 197.000 84 75 68
286.000 21.000 197.000 81 71 63
286.000 20.000 199.000 83 73 66
286.000 21.000 199.000 81 71 62
287.000 20.000 198.000 84 74 67
286.000 22.000 199.000 75 65 56
287.000 17.000 201.000 50 44 39
286.000 19.000 200.000 80 72 67
287.000 18.000 200.000 66 59 54
287.000 19.000 200.000 76 68 64
287.000 19.000 202.000 76 68 64
285.000 22.000 200.000 76 66 59
286.000 21.000 201.000 79 68 60
286.000 22.000 201.000 76 67 59
286.000 22.000 203.000 76 65 56
286.000 23.000 203.000 71 62 54
287.000 20.000 204.000 79 70 65
286.000 22.000 204.000 75 64 53
282.000 25.000 192.000 63 53 43
283.000 24.000 195.000 72 62 55
282.000 26.000 194.000 66 58 51
283.000 25.000 197.000 61 52 44
283.000 26.000 197.000 61 54 48
280.000 29.000 195.000 71 63 57
280.000 30.000 195.000 72 64 57
282.000 28.000 194.000 69 62 58
280.000 29.000 196.000 69 61 55
280.000 29.000 197.000 68 60 54
281.000 28.000 197.000 68 60 54
281.000 29.000 197.000 67 59 53
280.000 29.000 198.000 67 59 53
280.000 29.000 199.000 67 59 54
281.000 28.000 198.000 65 58 53
281.000 28.000 199.000 64 57 51
281.000 29.000 199.000 65 57 52
280.000 30.000 196.000 69 61 55
280.000 30.000 198.000 67 59 54
280.000 30.000 199.000 67 59 54
280.000 31.000 198.000 67 59 53
280.000 31.000 199.000 67 59 53
284.000 24.000 198.000 66 57 50
284.000 24.000 199.000 61 52 44
281.000 29.000 200.000 65 58 52
280.000 31.000 200.000 66 58 53
281.000 30.000 202.000 64 57 51
281.000 31.000 202.000 65 57 51
281.000 31.000 203.000 64 57 51
282.000 29.000 203.000 63 56 51
283.000 29.000 203.000 62 56 52
282.000 30.000 202.000 63 57 52
282.000 30.000 203.000 63 57 52
285.000 24.000 202.000 61 52 44
285.000 25.000 202.000 57 49 42
285.000 25.000 203.000 58 49 42
284.000 27.000 202.000 61 55 51
284.000 27.000 203.000 60 55 51
285.000 26.000 203.000 59 52 47
286.000 24.000 203.000 59 49 39
285.000 25.000 204.000 58 50 42
285.000 26.000 204.000 59 53 48
285.000 27.000 204.000 60 54 49
286.000 25.000 205.000 57 49 41
284.000 28.000 203.000 61 55 51
284.000 28.000 204.000 61 55 52
277.000 35.000 193.000 73 65 59
278.000 33.000 192.000 69 62 57
278.000 33.000 193.000 70 63 57
279.000 32.000 193.000 70 61 55
278.000 33.000 195.000 70 62 55
279.000 32.000 194.000 71 62 56
279.000 32.000 195.000 71 63 57
279.000 33.000 194.000 71 63 56
279.000 33.000 195.000 71 62 56
278.000 34.000 192.000 70 63 57
278.000 34.000 193.000 72 64 58
278.000 35.000 192.000 72 64 58
278.000 35.000 193.000 73 65 59
278.000 34.000 194.000 72 64 59
278.000 34.000 195.000 71 62 56
278.000 35.000 194.000 73 64 57
278.000 35.000 195.000 71 63 56
277.000 35.000 196.000 70 62 55
278.000 33.000 196.000 69 61 54
279.000 32.000 196.000 69 61 54
279.000 32.000 197.000 69 60 53
279.000 33.000 196.000 69 61 55
279.000 33.000 197.000 68 60 54
279.000 32.000 199.000 67 59 53
279.000 33.000 198.000 67 59 53
279.000 33.000 199.000 67 59 53
278.000 34.000 196.000 69 61 55
278.000 34.000 197.000 69 61 55
278.000 35.000 196.000 70 61 55
278.000 35.000 197.000 70 62 56
278.000 34.000 198.000 68 60 54
278.000 35.000 198.000 69 61 55
277.000 36.000 192.000 72 64 59
277.000 37.000 192.000 71 65 60
277.000 37.000 193.000 73 65 59
277.000 36.000 195.000 71 62 55
277.000 37.000 194.000 71 63 57
277.000 37.000 195.000 70 62 55
277.000 36.000 196.000 70 61 55
277.000 37.000 196.000 70 61 55
277.000 36.000 198.000 69 62 56
277.000 39.000 196.000 70 64 61
276.000 39.000 198.000 70 65 62
278.000 36.000 199.000 69 61 54
278.000 37.000 199.000 69 60 54
279.000 33.000 200.000 66 59 53
279.000 33.000 201.000 66 59 54
278.000 36.000 200.000 68 60 53
278.000 37.000 200.000 70 61 55
278.000 37.000 201.000 70 62 55
288.000 13.000 192.000 73 67 64
289.000 12.000 193.000 74 68 66
288.000 14.000 193.000 74 68 65
290.000 14.000 203.000 33 35 38
290.000 15.000 202.000 39 38 39
290.000 15.000 203.000 35 35 37
288.000 16.000 199.000 50 45 42
288.000 17.000 198.000 61 55 50
288.000 16.000 203.000 44 39 36
288.000 17.000 203.000 45 40 35
289.000 16.000 203.000 41 38 37
288.000 17.000 204.000 48 41 34
289.000 16.000 204.000 40 37 36
