ply
format ascii 1.0
element vertex 1065
property float x
property float y
property float z
property uchar red
property uchar green
property uchar blue
end_header
254.000 907.000 327.000 81 64 57
254.000 907.000 328.000 81 66 54
255.000 906.000 328.000 82 64 56
255.000 907.000 328.000 86 69 57
255.000 907.000 329.000 99 82 68
254.000 908.000 328.000 101 84 69
254.000 908.000 329.000 120 101 85
254.000 909.000 328.000 136 113 95
254.000 909.000 329.000 141 117 99
255.000 908.000 329.000 115 97 81
255.000 909.000 329.000 137 113 95
255.000 909.000 330.000 142 115 97
254.000 910.000 328.000 151 124 106
254.000 910.000 329.000 156 127 110
254.000 911.000 328.000 171 137 123
254.000 911.000 329.000 169 135 120
255.000 910.000 329.000 154 124 107
255.000 911.000 329.000 169 134 118
255.000 910.000 330.000 155 124 107
255.000 911.000 330.000 170 134 119
254.000 915.000 327.000 158 119 107
253.000 917.000 327.000 148 113 97
254.000 916.000 327.000 153 117 104
254.000 917.000 327.000 148 114 98
254.000 918.000 327.000 146 113 95
254.000 919.000 327.000 148 114 94
254.000 912.000 329.000 176 138 125
254.000 913.000 328.000 174 134 121
254.000 913.000 329.000 174 134 121
255.000 912.000 329.000 176 137 123
255.000 913.000 329.000 174 134 120
255.000 912.000 330.000 176 137 123
254.000 914.000 328.000 166 126 114
254.000 915.000 328.000 158 120 106
255.000 914.000 329.000 166 126 113
255.000 915.000 329.000 159 121 106
254.000 916.000 328.000 152 117 102
254.000 917.000 328.000 149 116 97
255.000 916.000 328.000 154 120 102
255.000 916.000 329.000 156 120 103
255.000 917.000 328.000 152 118 99
255.000 917.000 329.000 154 120 102
254.000 918.000 328.000 148 115 95
255.000 918.000 328.000 152 119 99
255.000 919.000 328.000 154 119 99
255.000 920.000 328.000 156 121 100
255.000 921.000 328.000 157 121 100
271.000 909.000 319.000 125 91 78
271.000 915.000 319.000 154 117 94
271.000 916.000 319.000 161 123 99
271.000 917.000 319.000 164 125 103
271.000 918.000 319.000 166 126 105
271.000 919.000 319.000 166 127 107
271.000 920.000 319.000 166 127 107
271.000 921.000 318.000 160 121 102
271.000 921.000 319.000 163 124 105
270.000 922.000 319.000 162 124 106
270.000 923.000 319.000 154 117 102
271.000 922.000 318.000 155 116 98
271.000 922.000 319.000 158 120 102
271.000 923.000 318.000 149 111 94
271.000 923.000 319.000 153 116 100
270.000 924.000 319.000 148 111 97
270.000 925.000 319.000 136 102 87
271.000 924.000 318.000 139 102 87
271.000 924.000 319.000 143 107 93
271.000 925.000 318.000 131 97 83
271.000 925.000 319.000 131 97 84
270.000 926.000 319.000 125 94 81
270.000 927.000 319.000 115 88 75
271.000 926.000 318.000 121 91 79
271.000 926.000 319.000 121 91 78
271.000 927.000 319.000 111 84 73
273.000 908.000 317.000 130 98 77
273.000 909.000 317.000 127 98 76
272.000 908.000 318.000 134 103 84
272.000 909.000 318.000 128 98 79
272.000 909.000 319.000 128 97 81
273.000 909.000 318.000 127 97 75
272.000 910.000 319.000 129 99 82
272.000 911.000 318.000 132 99 77
272.000 911.000 319.000 132 100 81
273.000 910.000 318.000 130 98 75
274.000 908.000 317.000 128 98 75
274.000 909.000 317.000 129 101 77
274.000 910.000 317.000 134 104 79
274.000 911.000 317.000 141 109 83
274.000 911.000 318.000 141 108 83
272.000 914.000 319.000 151 114 90
272.000 915.000 318.000 164 124 102
272.000 915.000 319.000 159 120 98
273.000 914.000 318.000 160 120 97
273.000 915.000 318.000 166 125 102
275.000 912.000 317.000 161 123 101
275.000 913.000 317.000 171 128 107
274.000 912.000 318.000 153 116 92
274.000 913.000 318.000 162 122 100
275.000 912.000 318.000 163 124 102
275.000 913.000 318.000 167 126 105
275.000 914.000 317.000 174 131 110
275.000 915.000 317.000 178 134 115
274.000 914.000 318.000 166 125 102
274.000 915.000 318.000 172 129 108
275.000 914.000 318.000 171 129 107
275.000 915.000 318.000 176 132 112
272.000 916.000 318.000 168 127 105
272.000 916.000 319.000 165 124 103
272.000 917.000 318.000 169 127 107
272.000 917.000 319.000 167 125 105
273.000 916.000 318.000 172 129 108
273.000 917.000 318.000 172 130 109
272.000 918.000 318.000 169 126 106
272.000 918.000 319.000 168 126 107
272.000 919.000 318.000 168 125 105
273.000 918.000 318.000 172 129 108
273.000 919.000 318.000 169 125 105
275.000 916.000 317.000 178 132 114
275.000 917.000 317.000 177 131 112
274.000 916.000 318.000 176 132 111
274.000 917.000 318.000 176 133 112
275.000 916.000 318.000 178 134 114
275.000 917.000 318.000 177 133 113
274.000 918.000 317.000 174 130 109
274.000 919.000 317.000 170 125 106
275.000 918.000 317.000 176 131 113
275.000 919.000 317.000 172 127 109
274.000 918.000 318.000 174 130 109
276.000 913.000 317.000 174 131 109
277.000 913.000 317.000 178 134 111
276.000 914.000 317.000 178 134 113
276.000 915.000 317.000 181 137 116
277.000 914.000 317.000 180 136 113
277.000 915.000 317.000 184 138 117
278.000 914.000 316.000 182 136 114
278.000 915.000 316.000 185 138 116
279.000 914.000 316.000 184 135 113
279.000 915.000 316.000 186 137 115
279.000 917.000 315.000 188 140 121
279.000 918.000 315.000 186 138 119
279.000 919.000 315.000 180 134 114
276.000 916.000 317.000 181 135 115
276.000 917.000 317.000 179 132 113
277.000 916.000 316.000 184 139 118
277.000 916.000 317.000 184 138 117
277.000 917.000 316.000 185 140 120
277.000 917.000 317.000 183 137 117
276.000 918.000 317.000 178 132 114
276.000 919.000 317.000 173 127 110
277.000 918.000 316.000 183 137 118
277.000 918.000 317.000 181 135 117
277.000 919.000 316.000 176 130 113
277.000 919.000 317.000 178 132 114
278.000 916.000 316.000 186 138 117
278.000 917.000 316.000 187 141 121
279.000 916.000 316.000 187 138 118
279.000 917.000 316.000 188 140 121
278.000 918.000 316.000 185 139 120
278.000 919.000 316.000 178 133 114
279.000 918.000 316.000 185 139 120
279.000 919.000 316.000 180 134 115
273.000 920.000 317.000 164 121 102
273.000 921.000 317.000 158 117 97
272.000 920.000 318.000 164 122 103
272.000 921.000 318.000 159 118 98
273.000 920.000 318.000 164 121 102
273.000 921.000 318.000 158 117 98
273.000 922.000 317.000 151 112 92
273.000 923.000 317.000 143 108 90
272.000 922.000 318.000 153 114 96
272.000 923.000 318.000 145 108 91
273.000 922.000 318.000 151 113 93
273.000 923.000 318.000 144 108 90
274.000 920.000 317.000 164 121 103
274.000 921.000 317.000 157 116 97
275.000 920.000 317.000 165 120 104
275.000 921.000 317.000 157 116 98
274.000 922.000 317.000 151 113 93
274.000 923.000 317.000 144 109 91
275.000 922.000 317.000 151 113 95
275.000 923.000 317.000 144 110 93
273.000 924.000 317.000 139 105 90
273.000 925.000 317.000 134 103 91
272.000 924.000 318.000 137 102 86
272.000 925.000 318.000 130 99 84
273.000 924.000 318.000 138 103 89
273.000 925.000 318.000 132 102 89
272.000 926.000 318.000 121 93 81
272.000 927.000 318.000 111 86 74
272.000 927.000 319.000 109 84 73
273.000 926.000 318.000 122 96 84
273.000 927.000 318.000 112 90 77
274.000 924.000 317.000 139 107 93
274.000 925.000 317.000 135 104 92
275.000 924.000 317.000 140 108 94
275.000 925.000 317.000 133 103 90
274.000 926.000 317.000 126 97 85
275.000 926.000 317.000 121 94 79
275.000 927.000 317.000 122 101 86
274.000 926.000 318.000 118 92 80
274.000 927.000 318.000 117 96 83
275.000 926.000 318.000 117 92 78
275.000 927.000 318.000 122 102 89
279.000 920.000 315.000 171 126 108
279.000 921.000 315.000 163 121 103
279.000 922.000 315.000 152 115 98
279.000 923.000 315.000 142 111 95
276.000 920.000 317.000 166 122 106
276.000 921.000 316.000 159 117 101
276.000 921.000 317.000 158 116 100
277.000 920.000 316.000 168 123 106
277.000 921.000 316.000 160 118 102
276.000 922.000 316.000 152 115 98
276.000 922.000 317.000 152 114 97
276.000 923.000 316.000 145 112 93
276.000 923.000 317.000 145 112 93
277.000 922.000 316.000 152 114 98
277.000 923.000 316.000 145 113 95
278.000 920.000 316.000 169 125 108
278.000 921.000 316.000 162 120 104
279.000 920.000 316.000 171 126 108
279.000 921.000 316.000 162 120 104
278.000 922.000 316.000 153 115 99
278.000 923.000 316.000 145 112 96
279.000 922.000 316.000 152 115 99
279.000 923.000 316.000 144 112 96
279.000 924.000 315.000 134 104 87
279.000 925.000 315.000 124 98 81
276.000 924.000 316.000 139 108 90
276.000 924.000 317.000 139 107 90
276.000 925.000 317.000 130 99 84
277.000 924.000 316.000 136 106 88
277.000 925.000 316.000 128 97 82
277.000 925.000 317.000 125 95 79
276.000 926.000 317.000 120 94 77
276.000 927.000 317.000 123 103 88
277.000 926.000 316.000 119 90 72
277.000 926.000 317.000 120 95 77
277.000 927.000 317.000 124 103 88
276.000 927.000 318.000 125 105 92
278.000 924.000 316.000 134 105 87
278.000 925.000 316.000 124 95 79
279.000 924.000 316.000 134 104 87
279.000 925.000 316.000 123 97 80
278.000 926.000 316.000 118 94 74
278.000 926.000 317.000 122 100 82
278.000 927.000 316.000 125 103 85
278.000 927.000 317.000 126 103 88
279.000 926.000 316.000 120 97 76
279.000 927.000 316.000 129 106 87
286.000 919.000 311.000 180 135 113
287.000 918.000 311.000 181 139 117
287.000 919.000 311.000 181 137 115
280.000 914.000 315.000 184 135 112
280.000 915.000 315.000 185 135 113
281.000 914.000 315.000 184 136 113
281.000 915.000 315.000 185 135 112
282.000 914.000 315.000 184 136 113
282.000 915.000 314.000 184 134 111
282.000 915.000 315.000 185 135 112
283.000 915.000 314.000 184 135 112
280.000 914.000 316.000 183 134 112
280.000 916.000 315.000 187 137 116
280.000 917.000 315.000 187 137 118
281.000 916.000 315.000 187 137 116
281.000 917.000 315.000 186 135 114
280.000 918.000 315.000 185 136 116
280.000 919.000 315.000 181 134 113
281.000 918.000 315.000 185 135 114
281.000 919.000 315.000 182 134 114
282.000 916.000 314.000 187 136 116
282.000 916.000 315.000 188 137 116
282.000 917.000 314.000 186 134 113
283.000 916.000 314.000 185 135 114
283.000 917.000 314.000 183 133 112
283.000 919.000 313.000 179 131 110
282.000 918.000 314.000 182 132 111
282.000 919.000 314.000 180 131 110
283.000 918.000 314.000 181 130 109
283.000 919.000 314.000 180 131 110
284.000 915.000 313.000 185 138 119
285.000 915.000 313.000 185 139 121
284.000 915.000 314.000 185 137 116
284.000 916.000 313.000 185 138 118
284.000 917.000 313.000 185 138 117
285.000 916.000 313.000 186 139 121
285.000 917.000 313.000 185 139 118
284.000 916.000 314.000 184 135 114
284.000 917.000 314.000 183 135 113
284.000 918.000 313.000 182 134 113
284.000 919.000 313.000 180 131 110
285.000 918.000 312.000 183 137 116
285.000 918.000 313.000 183 136 115
285.000 919.000 312.000 180 133 111
285.000 919.000 313.000 180 132 111
286.000 916.000 312.000 183 139 120
286.000 916.000 313.000 184 139 120
286.000 917.000 312.000 183 139 117
286.000 917.000 313.000 184 139 118
287.000 916.000 312.000 180 137 117
287.000 917.000 312.000 181 139 117
286.000 918.000 312.000 183 138 117
286.000 919.000 312.000 181 136 114
287.000 918.000 312.000 182 139 118
285.000 921.000 311.000 169 123 102
285.000 922.000 311.000 167 123 104
286.000 920.000 311.000 176 130 108
286.000 921.000 311.000 172 127 105
287.000 920.000 310.000 174 129 106
287.000 920.000 311.000 177 132 110
287.000 921.000 311.000 173 128 106
280.000 920.000 315.000 173 127 109
280.000 921.000 315.000 165 122 104
281.000 920.000 315.000 175 129 110
281.000 921.000 315.000 166 123 104
280.000 922.000 315.000 155 116 98
280.000 923.000 315.000 146 112 96
281.000 922.000 314.000 151 111 92
281.000 922.000 315.000 155 114 96
281.000 923.000 314.000 146 111 94
281.000 923.000 315.000 146 112 96
283.000 920.000 313.000 175 127 107
283.000 921.000 313.000 169 121 103
282.000 920.000 314.000 175 129 109
282.000 921.000 314.000 167 121 103
283.000 920.000 314.000 175 128 107
282.000 923.000 313.000 147 114 98
283.000 922.000 313.000 159 116 98
283.000 923.000 313.000 151 115 98
282.000 922.000 314.000 157 115 97
282.000 923.000 314.000 148 113 96
280.000 924.000 315.000 134 104 88
280.000 925.000 315.000 124 98 80
281.000 924.000 314.000 135 104 88
281.000 924.000 315.000 135 104 89
281.000 925.000 314.000 127 101 83
281.000 925.000 315.000 125 98 81
280.000 926.000 315.000 120 97 75
280.000 927.000 315.000 127 105 87
281.000 926.000 314.000 123 100 81
281.000 926.000 315.000 121 98 77
281.000 927.000 315.000 128 106 89
282.000 924.000 313.000 139 107 92
282.000 925.000 313.000 132 105 87
283.000 924.000 313.000 142 109 93
283.000 925.000 313.000 136 109 90
282.000 924.000 314.000 137 106 90
282.000 925.000 314.000 130 104 85
282.000 926.000 314.000 125 102 86
280.000 927.000 316.000 130 108 89
284.000 920.000 313.000 175 127 107
284.000 921.000 312.000 166 119 98
284.000 921.000 313.000 169 121 101
285.000 920.000 312.000 177 130 109
285.000 921.000 312.000 170 123 102
284.000 922.000 312.000 162 119 99
284.000 922.000 313.000 161 118 99
284.000 923.000 312.000 154 118 100
284.000 923.000 313.000 156 117 98
285.000 922.000 312.000 164 121 101
285.000 923.000 312.000 157 119 101
286.000 920.000 312.000 178 132 110
270.000 928.000 319.000 110 86 73
271.000 928.000 319.000 105 80 69
271.000 929.000 319.000 104 81 72
272.000 928.000 319.000 107 83 74
272.000 929.000 319.000 106 85 78
273.000 928.000 318.000 113 92 82
273.000 928.000 319.000 111 91 82
273.000 929.000 319.000 108 88 83
274.000 928.000 318.000 118 100 90
274.000 929.000 319.000 109 89 84
275.000 928.000 318.000 122 104 93
275.000 929.000 318.000 115 95 87
275.000 929.000 319.000 106 85 80
274.000 930.000 319.000 104 85 82
275.000 930.000 319.000 100 81 78
277.000 928.000 317.000 118 95 84
277.000 929.000 317.000 109 84 76
276.000 928.000 318.000 120 100 89
276.000 929.000 318.000 107 86 78
277.000 928.000 318.000 114 91 80
277.000 929.000 318.000 106 83 77
276.000 930.000 318.000 100 81 80
276.000 930.000 319.000 98 82 79
276.000 931.000 319.000 90 76 75
277.000 930.000 318.000 92 70 71
277.000 931.000 318.000 78 64 65
277.000 931.000 319.000 78 66 67
278.000 928.000 317.000 119 92 81
278.000 929.000 317.000 108 80 78
279.000 928.000 316.000 129 104 89
279.000 928.000 317.000 119 90 78
279.000 929.000 316.000 117 90 83
279.000 929.000 317.000 110 81 78
278.000 930.000 317.000 88 66 68
279.000 930.000 316.000 105 91 89
279.000 930.000 317.000 89 71 71
279.000 931.000 317.000 74 67 67
278.000 930.000 318.000 83 61 64
278.000 931.000 318.000 69 57 58
276.000 932.000 319.000 79 68 68
277.000 932.000 319.000 75 68 70
277.000 933.000 319.000 84 78 82
278.000 932.000 318.000 62 55 57
278.000 932.000 319.000 77 71 75
278.000 933.000 319.000 78 74 79
279.000 932.000 318.000 59 55 57
279.000 933.000 318.000 58 54 60
279.000 933.000 319.000 52 46 51
279.000 934.000 319.000 54 47 47
280.000 928.000 315.000 132 110 96
280.000 928.000 316.000 131 108 93
280.000 929.000 316.000 120 95 88
280.000 930.000 316.000 116 104 102
289.000 917.000 309.000 175 135 114
288.000 916.000 311.000 178 137 116
288.000 917.000 310.000 179 137 118
288.000 917.000 311.000 179 138 117
289.000 917.000 310.000 177 136 116
289.000 918.000 309.000 176 136 114
288.000 918.000 310.000 180 138 118
288.000 918.000 311.000 180 139 118
288.000 919.000 310.000 179 137 116
288.000 919.000 311.000 181 139 117
289.000 918.000 310.000 178 137 118
289.000 919.000 310.000 178 137 117
290.000 917.000 309.000 174 134 113
290.000 918.000 309.000 174 135 113
288.000 916.000 312.000 179 138 118
288.000 920.000 310.000 176 132 111
256.000 907.000 329.000 114 96 80
257.000 907.000 329.000 118 99 83
257.000 907.000 330.000 128 108 90
256.000 908.000 329.000 115 97 81
256.000 908.000 330.000 128 106 89
256.000 909.000 330.000 142 116 97
257.000 908.000 330.000 136 113 95
257.000 909.000 330.000 151 125 106
256.000 910.000 330.000 159 127 110
256.000 911.000 330.000 173 137 122
262.000 911.000 331.000 190 150 133
263.000 910.000 331.000 183 151 132
263.000 911.000 331.000 190 152 135
262.000 911.000 332.000 192 149 133
270.000 909.000 321.000 143 103 86
271.000 909.000 320.000 128 92 78
270.000 909.000 322.000 148 109 87
270.000 909.000 323.000 154 113 92
270.000 910.000 321.000 145 105 89
270.000 911.000 321.000 146 105 90
271.000 910.000 320.000 133 97 81
271.000 910.000 321.000 140 102 86
271.000 911.000 321.000 143 103 88
270.000 910.000 322.000 152 109 93
270.000 910.000 323.000 157 113 97
270.000 911.000 322.000 153 110 95
270.000 911.000 323.000 161 119 104
269.000 909.000 324.000 156 117 99
269.000 909.000 325.000 159 121 104
268.000 909.000 327.000 160 130 109
269.000 909.000 326.000 161 127 109
269.000 910.000 324.000 161 119 104
269.000 910.000 325.000 164 124 110
269.000 911.000 324.000 163 122 108
269.000 911.000 325.000 166 124 110
268.000 910.000 327.000 175 140 125
268.000 911.000 327.000 177 138 126
269.000 910.000 326.000 170 132 118
269.000 911.000 326.000 171 131 118
270.000 909.000 324.000 156 115 96
270.000 910.000 324.000 160 116 100
270.000 911.000 324.000 162 120 106
264.000 909.000 331.000 160 131 111
265.000 909.000 330.000 150 123 102
265.000 909.000 331.000 159 129 109
264.000 910.000 331.000 172 140 120
264.000 911.000 331.000 180 143 124
265.000 910.000 330.000 166 132 113
265.000 911.000 330.000 173 134 117
265.000 911.000 331.000 174 136 117
266.000 909.000 329.000 154 128 107
267.000 909.000 328.000 159 132 110
267.000 909.000 329.000 164 136 117
266.000 909.000 330.000 159 130 111
266.000 910.000 329.000 168 137 118
267.000 910.000 328.000 176 141 127
267.000 910.000 329.000 173 141 125
267.000 911.000 329.000 176 139 125
266.000 910.000 330.000 168 135 117
266.000 911.000 330.000 172 136 119
268.000 909.000 328.000 170 138 120
268.000 910.000 328.000 176 140 126
268.000 911.000 328.000 178 138 126
256.000 912.000 330.000 180 140 126
256.000 913.000 330.000 178 137 123
257.000 912.000 330.000 183 143 128
257.000 912.000 331.000 187 147 132
257.000 913.000 330.000 183 141 127
257.000 913.000 331.000 187 145 130
256.000 915.000 329.000 161 122 107
256.000 914.000 330.000 172 131 116
256.000 915.000 330.000 166 126 110
257.000 914.000 330.000 178 136 121
257.000 914.000 331.000 184 141 126
257.000 915.000 330.000 173 132 117
257.000 915.000 331.000 182 139 125
258.000 912.000 331.000 193 152 137
258.000 913.000 331.000 194 151 136
259.000 912.000 331.000 195 151 135
259.000 913.000 331.000 197 151 135
258.000 914.000 331.000 193 150 134
258.000 915.000 331.000 189 146 130
259.000 914.000 331.000 198 153 137
259.000 915.000 331.000 195 151 134
256.000 916.000 329.000 158 122 105
256.000 917.000 329.000 159 123 105
257.000 917.000 329.000 163 126 109
256.000 916.000 330.000 162 123 107
257.000 916.000 330.000 167 127 111
257.000 917.000 330.000 167 127 110
256.000 918.000 329.000 160 124 106
256.000 919.000 328.000 159 123 103
256.000 919.000 329.000 162 126 106
257.000 918.000 329.000 168 131 113
257.000 919.000 329.000 173 135 116
257.000 918.000 330.000 174 135 117
258.000 916.000 330.000 178 134 119
258.000 916.000 331.000 183 139 123
258.000 917.000 330.000 180 137 121
259.000 916.000 331.000 190 146 129
259.000 917.000 330.000 190 146 128
258.000 919.000 329.000 184 143 124
259.000 919.000 329.000 188 145 127
258.000 918.000 330.000 182 140 123
258.000 919.000 330.000 184 142 124
259.000 918.000 330.000 190 146 128
259.000 919.000 330.000 190 146 128
260.000 913.000 331.000 197 150 133
260.000 914.000 331.000 198 152 134
260.000 915.000 331.000 197 151 133
261.000 914.000 331.000 196 150 132
261.000 915.000 331.000 195 149 130
262.000 912.000 331.000 195 151 135
262.000 913.000 331.000 195 150 133
263.000 912.000 331.000 192 150 134
263.000 913.000 331.000 193 150 133
262.000 914.000 331.000 195 149 132
262.000 915.000 331.000 194 148 130
263.000 914.000 331.000 193 148 131
263.000 915.000 331.000 191 146 129
260.000 912.000 332.000 194 147 130
260.000 913.000 332.000 196 149 131
261.000 912.000 332.000 194 147 130
261.000 913.000 332.000 196 148 131
262.000 912.000 332.000 195 149 133
262.000 913.000 332.000 195 149 133
260.000 916.000 331.000 195 149 130
260.000 917.000 330.000 194 149 130
260.000 917.000 331.000 194 149 130
261.000 916.000 331.000 195 149 130
261.000 917.000 330.000 194 149 131
261.000 917.000 331.000 194 150 130
261.000 919.000 329.000 188 143 126
260.000 918.000 330.000 194 148 130
260.000 919.000 330.000 191 145 128
261.000 918.000 330.000 192 147 129
261.000 919.000 330.000 190 144 127
262.000 916.000 330.000 190 145 126
262.000 916.000 331.000 192 147 128
262.000 917.000 330.000 190 145 127
263.000 916.000 330.000 187 142 124
263.000 916.000 331.000 189 144 125
263.000 917.000 330.000 186 142 123
263.000 919.000 329.000 180 138 119
262.000 918.000 330.000 188 144 126
262.000 919.000 330.000 186 142 124
263.000 918.000 330.000 183 140 121
263.000 919.000 330.000 181 139 120
258.000 926.000 327.000 179 139 119
258.000 927.000 327.000 179 139 118
259.000 927.000 327.000 183 141 121
260.000 927.000 327.000 183 141 122
261.000 927.000 327.000 178 137 115
263.000 925.000 327.000 173 132 109
262.000 926.000 327.000 175 133 111
262.000 927.000 327.000 175 133 111
263.000 926.000 327.000 173 132 110
263.000 927.000 327.000 172 132 111
256.000 920.000 328.000 161 125 104
256.000 921.000 328.000 160 123 102
257.000 920.000 329.000 173 134 114
257.000 921.000 328.000 169 130 110
257.000 921.000 329.000 176 136 116
256.000 922.000 328.000 160 123 101
257.000 922.000 328.000 172 133 112
257.000 923.000 328.000 172 134 112
258.000 920.000 329.000 184 143 124
258.000 921.000 329.000 183 141 122
259.000 920.000 329.000 189 145 126
259.000 921.000 329.000 187 143 125
258.000 922.000 329.000 182 140 121
258.000 923.000 328.000 181 140 120
259.000 922.000 329.000 186 143 123
259.000 923.000 328.000 184 142 121
259.000 923.000 329.000 185 143 123
257.000 924.000 328.000 173 134 113
257.000 925.000 328.000 175 135 115
257.000 926.000 328.000 178 138 119
258.000 924.000 328.000 182 141 120
258.000 925.000 328.000 182 141 120
259.000 924.000 328.000 184 143 121
259.000 925.000 328.000 183 142 121
258.000 926.000 328.000 181 140 120
258.000 927.000 328.000 181 141 120
259.000 926.000 328.000 183 142 121
259.000 927.000 328.000 183 141 121
260.000 920.000 329.000 190 145 127
260.000 921.000 329.000 188 145 126
261.000 920.000 329.000 187 142 125
261.000 921.000 329.000 186 142 124
260.000 922.000 329.000 187 144 125
260.000 923.000 328.000 185 143 123
260.000 923.000 329.000 186 144 124
261.000 922.000 329.000 185 141 122
261.000 923.000 328.000 183 141 120
261.000 923.000 329.000 184 142 122
262.000 920.000 329.000 183 140 121
262.000 921.000 329.000 182 139 120
263.000 920.000 329.000 178 137 117
263.000 921.000 328.000 175 135 116
263.000 921.000 329.000 177 137 116
262.000 922.000 328.000 179 137 116
262.000 922.000 329.000 181 139 119
262.000 923.000 328.000 179 137 115
263.000 922.000 328.000 176 136 116
263.000 923.000 328.000 175 136 115
260.000 924.000 328.000 183 142 121
260.000 925.000 328.000 183 142 120
261.000 924.000 328.000 182 140 119
261.000 925.000 328.000 182 140 118
260.000 926.000 328.000 183 141 120
260.000 927.000 328.000 183 141 121
261.000 926.000 328.000 181 139 117
261.000 927.000 328.000 180 139 118
262.000 924.000 328.000 177 135 114
262.000 925.000 328.000 178 135 114
263.000 924.000 328.000 173 133 112
263.000 925.000 328.000 174 131 110
262.000 926.000 328.000 178 136 113
267.000 916.000 327.000 159 122 104
267.000 917.000 326.000 158 121 103
267.000 917.000 327.000 160 122 104
267.000 919.000 325.000 162 126 108
266.000 918.000 327.000 163 126 108
266.000 919.000 327.000 164 127 109
267.000 918.000 326.000 159 122 104
267.000 918.000 327.000 161 123 105
267.000 919.000 326.000 161 126 108
267.000 919.000 327.000 162 126 108
269.000 912.000 323.000 158 115 101
269.000 913.000 322.000 151 108 94
269.000 913.000 323.000 153 109 95
269.000 915.000 321.000 150 114 95
269.000 914.000 322.000 148 107 92
269.000 914.000 323.000 150 108 93
269.000 915.000 322.000 149 112 94
269.000 915.000 323.000 151 112 94
270.000 912.000 322.000 153 111 95
270.000 912.000 323.000 159 119 103
270.000 913.000 322.000 149 105 91
270.000 914.000 321.000 143 105 89
270.000 915.000 321.000 146 109 91
271.000 914.000 320.000 141 105 85
271.000 915.000 320.000 148 112 89
269.000 912.000 324.000 162 120 106
269.000 912.000 325.000 164 120 107
269.000 913.000 324.000 155 111 97
269.000 913.000 325.000 158 114 101
268.000 912.000 326.000 168 122 111
268.000 912.000 327.000 170 126 114
268.000 913.000 326.000 160 114 103
268.000 913.000 327.000 161 117 105
269.000 912.000 326.000 167 123 111
269.000 913.000 326.000 160 115 103
268.000 914.000 325.000 154 110 95
268.000 915.000 324.000 155 116 100
268.000 915.000 325.000 155 115 99
269.000 914.000 324.000 151 108 92
269.000 914.000 325.000 154 110 96
269.000 915.000 324.000 153 113 97
269.000 915.000 325.000 154 112 98
268.000 914.000 326.000 156 112 98
268.000 914.000 327.000 157 114 101
268.000 915.000 326.000 156 116 100
268.000 915.000 327.000 156 116 101
269.000 916.000 321.000 156 123 103
269.000 917.000 321.000 160 126 106
268.000 916.000 323.000 154 116 97
268.000 917.000 323.000 157 119 101
269.000 916.000 322.000 155 120 100
269.000 916.000 323.000 153 116 96
269.000 917.000 322.000 159 124 105
269.000 917.000 323.000 157 120 102
269.000 918.000 321.000 162 127 108
269.000 919.000 321.000 162 127 109
268.000 918.000 323.000 159 122 105
268.000 919.000 323.000 161 123 107
269.000 918.000 322.000 161 125 106
269.000 918.000 323.000 159 122 105
269.000 919.000 322.000 160 122 105
270.000 916.000 320.000 155 120 98
270.000 916.000 321.000 154 120 100
270.000 917.000 320.000 161 126 104
270.000 917.000 321.000 160 126 106
270.000 918.000 320.000 163 128 107
270.000 919.000 320.000 166 129 109
270.000 919.000 321.000 164 129 111
268.000 916.000 324.000 156 117 99
268.000 916.000 325.000 157 119 102
268.000 917.000 324.000 156 118 100
268.000 917.000 325.000 158 120 102
268.000 916.000 326.000 158 121 104
268.000 916.000 327.000 158 120 103
268.000 917.000 326.000 158 121 103
268.000 918.000 324.000 158 121 104
268.000 918.000 325.000 159 121 104
268.000 919.000 324.000 162 125 107
268.000 919.000 325.000 161 125 107
268.000 918.000 326.000 158 120 103
264.000 912.000 331.000 184 144 126
264.000 913.000 331.000 186 145 127
265.000 912.000 330.000 174 135 117
265.000 912.000 331.000 177 138 119
265.000 913.000 330.000 175 134 115
265.000 913.000 331.000 179 139 120
264.000 914.000 331.000 187 145 127
264.000 915.000 330.000 182 140 122
264.000 915.000 331.000 187 143 126
265.000 914.000 330.000 176 135 116
265.000 914.000 331.000 179 139 120
265.000 915.000 330.000 175 134 115
267.000 912.000 329.000 169 127 113
267.000 913.000 328.000 161 119 104
267.000 913.000 329.000 164 121 106
266.000 912.000 330.000 172 131 115
266.000 913.000 330.000 169 128 111
266.000 915.000 329.000 164 123 105
267.000 914.000 328.000 160 118 103
267.000 914.000 329.000 162 120 104
267.000 915.000 328.000 158 118 101
267.000 915.000 329.000 159 119 100
266.000 914.000 330.000 168 127 108
266.000 915.000 330.000 167 126 107
264.000 917.000 329.000 175 135 116
265.000 916.000 329.000 171 132 113
265.000 917.000 329.000 171 132 113
264.000 916.000 330.000 182 139 121
264.000 917.000 330.000 179 138 119
265.000 916.000 330.000 173 133 114
264.000 918.000 329.000 175 135 116
264.000 919.000 329.000 175 134 116
265.000 918.000 329.000 169 129 111
265.000 919.000 328.000 167 129 112
265.000 919.000 329.000 169 130 113
264.000 918.000 330.000 179 138 119
266.000 916.000 329.000 165 126 108
266.000 917.000 328.000 164 126 108
266.000 917.000 329.000 166 129 110
267.000 916.000 328.000 159 120 101
267.000 917.000 328.000 161 124 104
266.000 918.000 328.000 164 126 108
266.000 919.000 328.000 164 126 108
268.000 912.000 328.000 168 124 111
268.000 913.000 328.000 162 118 105
268.000 914.000 328.000 159 117 103
267.000 923.000 323.000 160 119 101
265.000 921.000 327.000 169 135 118
265.000 922.000 327.000 169 134 116
265.000 923.000 326.000 164 125 107
265.000 923.000 327.000 169 133 114
267.000 920.000 324.000 165 127 109
267.000 920.000 325.000 165 129 111
267.000 921.000 324.000 165 126 108
267.000 921.000 325.000 167 128 111
266.000 920.000 326.000 164 129 111
266.000 920.000 327.000 166 130 113
266.000 921.000 326.000 168 132 115
266.000 921.000 327.000 167 132 114
267.000 920.000 326.000 166 131 114
267.000 921.000 326.000 168 131 114
266.000 923.000 325.000 160 117 99
267.000 922.000 324.000 163 122 104
267.000 922.000 325.000 166 126 109
267.000 923.000 324.000 161 118 101
267.000 923.000 325.000 161 119 101
266.000 922.000 326.000 166 127 110
266.000 923.000 326.000 164 123 106
267.000 922.000 326.000 166 127 111
267.000 924.000 323.000 157 117 98
267.000 925.000 323.000 152 111 92
267.000 926.000 323.000 148 109 90
267.000 927.000 323.000 140 103 85
264.000 924.000 327.000 170 132 111
264.000 925.000 327.000 168 129 107
265.000 924.000 326.000 161 120 101
265.000 924.000 327.000 167 129 109
265.000 925.000 326.000 160 119 98
265.000 926.000 325.000 158 118 98
265.000 927.000 325.000 157 120 98
264.000 926.000 326.000 163 125 103
264.000 926.000 327.000 168 130 107
264.000 927.000 326.000 163 126 105
264.000 927.000 327.000 168 130 109
265.000 926.000 326.000 160 120 99
265.000 927.000 326.000 160 122 100
266.000 924.000 325.000 159 116 98
266.000 925.000 324.000 157 116 96
266.000 925.000 325.000 158 116 96
267.000 924.000 324.000 159 117 99
267.000 925.000 324.000 156 115 95
266.000 924.000 326.000 160 117 99
266.000 926.000 324.000 153 112 91
266.000 926.000 325.000 155 114 93
266.000 927.000 324.000 150 112 90
266.000 927.000 325.000 153 116 94
267.000 926.000 324.000 152 111 90
267.000 927.000 324.000 145 108 87
269.000 920.000 321.000 162 126 108
269.000 921.000 321.000 163 126 108
268.000 920.000 322.000 161 122 105
268.000 920.000 323.000 162 121 105
268.000 921.000 322.000 162 123 106
268.000 921.000 323.000 161 119 102
269.000 920.000 322.000 160 122 105
269.000 921.000 322.000 163 125 108
269.000 922.000 321.000 161 124 106
269.000 923.000 321.000 158 120 102
268.000 922.000 322.000 161 121 104
268.000 922.000 323.000 160 119 102
268.000 923.000 322.000 158 119 100
268.000 923.000 323.000 159 118 100
269.000 922.000 322.000 161 123 105
269.000 923.000 322.000 160 121 103
270.000 920.000 320.000 166 130 111
270.000 920.000 321.000 164 128 110
270.000 921.000 320.000 165 128 111
270.000 921.000 321.000 165 128 112
270.000 922.000 320.000 161 124 107
270.000 922.000 321.000 162 125 108
270.000 923.000 320.000 157 120 103
268.000 920.000 324.000 164 126 108
268.000 921.000 324.000 164 124 106
268.000 922.000 324.000 162 121 103
268.000 924.000 321.000 154 115 96
268.000 925.000 321.000 148 110 92
269.000 924.000 320.000 154 116 98
269.000 924.000 321.000 154 116 98
269.000 925.000 320.000 143 107 90
269.000 925.000 321.000 147 109 92
268.000 924.000 322.000 155 116 96
268.000 924.000 323.000 156 115 96
268.000 925.000 322.000 149 110 91
268.000 925.000 323.000 153 112 93
268.000 926.000 321.000 139 103 86
268.000 927.000 321.000 128 96 80
269.000 926.000 320.000 129 98 83
269.000 926.000 321.000 134 101 83
269.000 927.000 320.000 121 93 79
269.000 927.000 321.000 125 96 79
268.000 926.000 322.000 142 105 86
268.000 927.000 322.000 133 97 80
270.000 924.000 320.000 151 115 99
270.000 925.000 320.000 141 106 91
264.000 920.000 328.000 171 135 119
264.000 920.000 329.000 173 134 116
264.000 921.000 328.000 172 136 119
265.000 920.000 328.000 168 133 117
265.000 921.000 328.000 171 137 121
264.000 922.000 328.000 174 138 120
264.000 923.000 328.000 174 138 119
265.000 922.000 328.000 172 138 121
266.000 920.000 328.000 165 128 110
264.000 924.000 328.000 173 136 115
258.000 928.000 327.000 177 138 118
258.000 929.000 327.000 175 138 118
259.000 928.000 327.000 183 142 123
259.000 929.000 327.000 182 143 123
258.000 930.000 327.000 168 135 115
259.000 930.000 327.000 177 141 122
260.000 928.000 327.000 183 141 121
260.000 929.000 327.000 182 144 121
261.000 928.000 327.000 178 137 115
261.000 929.000 327.000 179 140 117
260.000 930.000 327.000 179 144 122
261.000 930.000 327.000 176 141 118
261.000 931.000 327.000 167 134 113
262.000 928.000 327.000 173 134 110
262.000 929.000 327.000 173 136 112
263.000 928.000 327.000 169 132 110
263.000 929.000 326.000 167 134 111
263.000 929.000 327.000 169 134 111
262.000 930.000 327.000 171 136 114
262.000 931.000 327.000 161 128 107
263.000 930.000 326.000 165 132 110
263.000 930.000 327.000 169 135 113
263.000 931.000 327.000 157 126 104
267.000 928.000 323.000 135 99 80
265.000 928.000 325.000 156 121 99
265.000 929.000 325.000 154 122 100
264.000 928.000 326.000 165 130 109
264.000 928.000 327.000 165 130 108
264.000 929.000 326.000 163 131 109
265.000 928.000 326.000 160 126 104
265.000 929.000 326.000 158 126 105
265.000 930.000 325.000 151 122 100
264.000 930.000 326.000 160 129 108
264.000 931.000 326.000 150 121 99
265.000 930.000 326.000 153 124 102
265.000 931.000 326.000 145 117 95
266.000 928.000 324.000 146 112 89
266.000 928.000 325.000 150 115 93
266.000 929.000 325.000 149 116 94
267.000 928.000 324.000 140 105 84
267.000 929.000 324.000 136 105 84
267.000 929.000 325.000 141 110 87
266.000 930.000 325.000 144 116 94
266.000 931.000 325.000 137 111 90
267.000 930.000 324.000 135 105 84
267.000 930.000 325.000 135 106 85
267.000 931.000 325.000 129 104 83
266.000 931.000 326.000 137 110 89
266.000 932.000 326.000 129 105 83
268.000 928.000 321.000 124 96 81
269.000 928.000 320.000 118 94 80
269.000 928.000 321.000 121 97 81
269.000 929.000 321.000 120 98 86
268.000 928.000 322.000 124 92 75
268.000 928.000 323.000 127 94 77
268.000 929.000 322.000 119 93 78
268.000 929.000 323.000 122 93 75
269.000 929.000 322.000 118 96 83
269.000 929.000 323.000 116 89 74
268.000 930.000 323.000 117 90 73
269.000 930.000 322.000 115 93 81
269.000 930.000 323.000 113 88 73
270.000 928.000 320.000 112 89 77
270.000 929.000 320.000 111 90 77
270.000 929.000 321.000 117 97 85
271.000 929.000 320.000 104 83 73
270.000 930.000 321.000 114 95 84
271.000 930.000 320.000 102 83 75
271.000 930.000 321.000 105 88 78
270.000 930.000 322.000 113 94 82
270.000 931.000 323.000 104 84 71
271.000 931.000 322.000 102 86 75
271.000 931.000 323.000 99 82 70
268.000 929.000 324.000 130 99 80
268.000 930.000 324.000 123 95 77
268.000 931.000 325.000 123 98 78
269.000 931.000 324.000 108 85 68
269.000 932.000 325.000 106 85 66
270.000 932.000 324.000 99 80 64
271.000 933.000 325.000 95 78 62
271.000 937.000 327.000 113 96 83
271.000 938.000 327.000 129 110 94
270.000 937.000 328.000 126 107 91
270.000 938.000 328.000 141 119 100
271.000 938.000 328.000 137 116 98
271.000 939.000 328.000 147 123 102
272.000 929.000 320.000 103 84 78
272.000 930.000 320.000 102 85 78
272.000 931.000 321.000 97 83 77
273.000 930.000 320.000 101 86 83
273.000 931.000 320.000 93 79 78
273.000 931.000 321.000 91 77 74
274.000 930.000 320.000 103 85 84
274.000 931.000 320.000 89 72 72
275.000 931.000 320.000 92 75 73
273.000 932.000 321.000 85 73 70
272.000 932.000 323.000 88 77 69
273.000 932.000 322.000 81 71 68
274.000 932.000 321.000 77 64 62
274.000 933.000 321.000 74 64 61
275.000 932.000 320.000 79 65 63
275.000 932.000 321.000 72 59 57
275.000 933.000 321.000 68 57 54
274.000 933.000 322.000 75 65 60
274.000 933.000 323.000 78 66 58
275.000 933.000 322.000 70 60 54
274.000 934.000 323.000 82 70 61
275.000 934.000 322.000 71 60 53
275.000 934.000 323.000 79 68 60
275.000 935.000 323.000 85 73 64
272.000 933.000 324.000 88 74 63
272.000 934.000 325.000 95 80 65
273.000 935.000 325.000 93 79 65
272.000 935.000 326.000 98 84 70
274.000 935.000 324.000 89 76 65
274.000 935.000 325.000 90 77 64
275.000 935.000 324.000 87 75 65
276.000 932.000 320.000 81 68 67
276.000 933.000 320.000 72 63 62
276.000 933.000 321.000 66 56 54
277.000 933.000 320.000 71 64 64
276.000 934.000 321.000 67 57 53
277.000 934.000 320.000 68 61 59
277.000 934.000 321.000 74 65 58
276.000 934.000 322.000 73 63 56
276.000 935.000 322.000 84 74 65
276.000 935.000 323.000 85 74 65
277.000 935.000 322.000 90 78 70
277.000 935.000 323.000 90 78 68
278.000 933.000 320.000 60 55 58
278.000 934.000 320.000 66 58 54
278.000 934.000 321.000 79 69 61
278.000 935.000 321.000 94 83 73
279.000 934.000 320.000 70 62 57
279.000 935.000 320.000 96 85 77
279.000 935.000 321.000 101 89 79
278.000 935.000 322.000 98 86 77
272.000 937.000 327.000 102 88 77
273.000 936.000 326.000 89 76 64
273.000 937.000 326.000 85 73 64
273.000 937.000 327.000 94 82 73
272.000 938.000 327.000 123 106 92
273.000 938.000 327.000 111 97 86
273.000 939.000 327.000 134 114 97
274.000 936.000 325.000 86 74 64
274.000 937.000 325.000 79 68 61
275.000 936.000 324.000 85 73 62
275.000 936.000 325.000 81 69 60
275.000 937.000 325.000 73 64 59
274.000 937.000 326.000 77 67 61
275.000 937.000 326.000 72 64 60
275.000 938.000 325.000 73 66 62
274.000 938.000 326.000 100 89 81
274.000 939.000 326.000 128 111 99
274.000 939.000 327.000 131 113 98
275.000 938.000 326.000 87 78 72
275.000 939.000 326.000 118 104 93
274.000 940.000 327.000 149 124 104
275.000 940.000 326.000 143 122 103
275.000 941.000 326.000 156 129 105
276.000 936.000 323.000 84 73 63
277.000 936.000 323.000 84 73 63
277.000 937.000 323.000 74 64 56
279.000 936.000 321.000 102 89 78
278.000 936.000 322.000 94 81 71
278.000 936.000 323.000 81 69 59
278.000 937.000 323.000 73 63 56
279.000 936.000 322.000 91 78 69
279.000 937.000 322.000 76 66 59
276.000 936.000 324.000 81 70 60
276.000 937.000 324.000 70 61 53
276.000 937.000 325.000 69 61 56
277.000 937.000 324.000 66 59 54
277.000 937.000 325.000 61 57 54
276.000 938.000 325.000 75 68 63
276.000 939.000 325.000 105 94 86
277.000 938.000 325.000 69 64 61
277.000 939.000 325.000 102 92 85
276.000 939.000 326.000 118 104 93
278.000 937.000 324.000 62 57 55
276.000 940.000 325.000 127 111 99
276.000 940.000 326.000 136 117 101
