ply
format ascii 1.0
element vertex 584
property float x
property float y
property float z
property uchar red
property uchar green
property uchar blue
end_header
211.000 971.000 287.000 52 55 60
211.000 972.000 287.000 54 57 62
211.000 973.000 287.000 56 58 64
211.000 974.000 287.000 59 61 67
211.000 971.000 288.000 53 55 60
211.000 971.000 289.000 52 54 59
211.000 970.000 291.000 52 53 58
211.000 971.000 290.000 54 56 60
211.000 971.000 291.000 50 52 57
211.000 972.000 288.000 56 58 63
211.000 972.000 289.000 55 57 62
211.000 973.000 288.000 58 61 66
211.000 973.000 289.000 60 62 67
211.000 972.000 290.000 55 57 62
211.000 972.000 291.000 51 53 59
211.000 973.000 290.000 56 59 64
211.000 973.000 291.000 53 56 62
211.000 974.000 288.000 59 61 66
211.000 974.000 289.000 60 62 67
211.000 975.000 288.000 61 62 67
211.000 975.000 289.000 59 60 65
211.000 974.000 290.000 59 62 67
211.000 974.000 291.000 55 58 63
211.000 975.000 290.000 61 63 69
212.000 971.000 291.000 51 53 58
212.000 971.000 292.000 52 54 59
212.000 971.000 293.000 52 53 57
212.000 971.000 294.000 54 55 59
213.000 971.000 294.000 53 54 57
212.000 972.000 291.000 49 51 56
212.000 973.000 291.000 51 53 59
212.000 975.000 289.000 58 60 65
212.000 974.000 291.000 53 56 62
212.000 975.000 290.000 60 62 67
212.000 975.000 291.000 54 56 62
212.000 972.000 292.000 51 53 57
212.000 972.000 293.000 52 53 58
212.000 973.000 292.000 52 53 59
212.000 973.000 293.000 52 53 58
212.000 972.000 294.000 55 56 60
212.000 973.000 294.000 54 55 59
213.000 972.000 294.000 54 55 59
213.000 972.000 295.000 53 53 57
213.000 973.000 294.000 53 55 59
213.000 973.000 295.000 55 56 60
212.000 974.000 292.000 53 54 60
212.000 974.000 293.000 53 54 59
212.000 975.000 292.000 53 55 60
212.000 975.000 293.000 53 55 60
213.000 975.000 293.000 52 54 59
213.000 974.000 294.000 53 54 59
213.000 974.000 295.000 55 56 60
213.000 975.000 294.000 54 56 60
213.000 975.000 295.000 54 55 59
214.000 973.000 295.000 56 57 61
214.000 974.000 295.000 58 59 62
214.000 975.000 295.000 56 57 61
214.000 971.000 296.000 49 51 54
214.000 972.000 296.000 51 52 56
214.000 973.000 296.000 56 57 61
214.000 973.000 297.000 54 56 60
215.000 973.000 298.000 52 54 59
215.000 973.000 299.000 53 55 59
214.000 974.000 296.000 60 61 66
214.000 974.000 297.000 57 59 64
214.000 975.000 296.000 60 61 65
214.000 975.000 297.000 61 63 67
215.000 974.000 297.000 58 59 64
215.000 975.000 297.000 60 61 66
215.000 974.000 298.000 55 57 62
215.000 975.000 298.000 57 59 63
215.000 975.000 299.000 56 57 62
216.000 975.000 299.000 54 56 61
211.000 976.000 288.000 62 63 68
212.000 976.000 288.000 62 64 68
212.000 976.000 289.000 59 61 65
212.000 977.000 288.000 65 66 70
212.000 977.000 289.000 61 63 68
212.000 976.000 290.000 59 61 66
212.000 976.000 291.000 56 58 63
212.000 977.000 290.000 59 61 66
212.000 977.000 291.000 59 61 66
213.000 977.000 291.000 57 60 65
212.000 978.000 289.000 64 65 70
213.000 979.000 289.000 66 67 71
212.000 978.000 290.000 60 61 66
213.000 978.000 290.000 62 63 68
213.000 978.000 291.000 59 62 67
213.000 979.000 290.000 63 65 70
213.000 979.000 291.000 60 62 68
214.000 979.000 291.000 58 60 66
212.000 976.000 292.000 53 56 61
212.000 977.000 292.000 53 56 61
213.000 976.000 293.000 52 55 59
213.000 977.000 292.000 53 55 61
213.000 977.000 293.000 51 54 59
213.000 976.000 294.000 53 55 59
213.000 976.000 295.000 53 55 59
213.000 977.000 294.000 52 53 58
213.000 978.000 292.000 52 55 61
213.000 978.000 293.000 50 52 57
213.000 979.000 292.000 55 57 63
214.000 976.000 295.000 53 54 58
214.000 977.000 294.000 53 54 59
214.000 977.000 295.000 53 54 58
215.000 977.000 295.000 52 53 57
214.000 978.000 293.000 52 53 58
214.000 979.000 292.000 55 57 62
214.000 979.000 293.000 52 54 59
214.000 978.000 294.000 52 53 58
214.000 978.000 295.000 54 56 60
214.000 979.000 294.000 52 54 58
215.000 978.000 295.000 52 53 57
215.000 979.000 294.000 53 55 59
215.000 979.000 295.000 51 53 57
213.000 980.000 290.000 65 66 71
213.000 980.000 291.000 61 63 68
214.000 980.000 290.000 63 64 69
214.000 980.000 291.000 59 61 67
214.000 981.000 290.000 62 64 70
214.000 981.000 291.000 59 62 67
215.000 981.000 291.000 60 62 67
214.000 982.000 290.000 63 65 70
215.000 982.000 290.000 63 65 71
215.000 982.000 291.000 61 64 69
215.000 983.000 290.000 64 66 71
215.000 983.000 291.000 64 66 71
214.000 980.000 292.000 56 58 63
214.000 980.000 293.000 53 55 59
215.000 980.000 292.000 55 57 61
215.000 980.000 293.000 53 55 59
215.000 981.000 292.000 56 58 63
215.000 981.000 293.000 51 53 57
215.000 980.000 294.000 51 53 58
215.000 980.000 295.000 51 52 57
215.000 982.000 292.000 55 57 62
214.000 976.000 296.000 58 58 63
214.000 977.000 296.000 55 56 60
215.000 976.000 296.000 60 61 65
215.000 976.000 297.000 60 62 66
215.000 977.000 296.000 56 57 62
215.000 977.000 297.000 59 60 64
215.000 976.000 298.000 59 60 65
215.000 976.000 299.000 56 58 62
215.000 977.000 298.000 59 61 65
215.000 978.000 296.000 55 56 60
216.000 979.000 295.000 50 52 56
216.000 983.000 290.000 63 65 71
216.000 983.000 291.000 62 64 69
216.000 981.000 293.000 49 51 56
216.000 980.000 294.000 49 51 56
216.000 980.000 295.000 51 52 57
216.000 981.000 294.000 49 51 56
217.000 980.000 295.000 50 51 56
217.000 981.000 294.000 48 50 55
217.000 981.000 295.000 51 53 57
216.000 982.000 292.000 51 54 59
216.000 982.000 293.000 49 51 56
216.000 983.000 292.000 56 57 62
216.000 983.000 293.000 48 50 55
217.000 983.000 292.000 55 57 62
217.000 983.000 293.000 48 50 55
216.000 982.000 294.000 48 51 56
217.000 982.000 294.000 46 48 53
217.000 982.000 295.000 48 50 54
217.000 983.000 294.000 45 47 52
218.000 982.000 295.000 48 49 54
218.000 983.000 294.000 47 49 54
218.000 983.000 295.000 48 49 54
216.000 977.000 297.000 57 58 63
216.000 977.000 298.000 59 60 65
216.000 978.000 296.000 55 55 59
216.000 978.000 297.000 58 58 63
216.000 979.000 296.000 54 55 59
216.000 979.000 297.000 57 58 62
217.000 979.000 297.000 57 59 63
216.000 978.000 298.000 58 59 63
216.000 978.000 299.000 57 58 62
217.000 978.000 299.000 55 56 60
217.000 979.000 298.000 57 58 62
217.000 979.000 299.000 54 55 60
217.000 979.000 300.000 53 54 59
216.000 980.000 296.000 52 53 58
217.000 980.000 296.000 52 54 58
217.000 980.000 297.000 55 56 61
217.000 981.000 296.000 50 51 56
217.000 981.000 297.000 52 53 57
217.000 980.000 298.000 55 57 61
217.000 980.000 299.000 55 56 60
218.000 981.000 297.000 53 54 58
218.000 980.000 298.000 55 56 61
218.000 980.000 299.000 54 55 60
218.000 981.000 298.000 54 55 60
218.000 981.000 299.000 56 57 61
218.000 982.000 296.000 50 51 56
218.000 982.000 297.000 51 52 57
218.000 983.000 296.000 49 50 54
218.000 983.000 297.000 49 50 55
219.000 983.000 296.000 47 49 54
219.000 983.000 297.000 48 49 55
218.000 982.000 298.000 54 55 60
219.000 982.000 298.000 53 54 59
219.000 982.000 299.000 55 56 61
219.000 983.000 298.000 50 51 56
219.000 983.000 299.000 52 53 58
218.000 980.000 300.000 56 57 61
218.000 980.000 301.000 56 57 61
218.000 981.000 300.000 56 57 62
219.000 981.000 300.000 56 57 62
219.000 981.000 301.000 55 56 61
219.000 981.000 302.000 50 52 57
219.000 982.000 300.000 55 57 61
219.000 982.000 301.000 54 56 60
219.000 983.000 300.000 53 54 59
219.000 983.000 301.000 55 56 61
219.000 982.000 302.000 51 53 58
220.000 983.000 300.000 51 53 57
220.000 983.000 301.000 55 56 61
220.000 982.000 302.000 50 51 56
220.000 982.000 303.000 51 53 57
220.000 983.000 302.000 51 53 58
220.000 983.000 303.000 51 53 57
221.000 983.000 303.000 52 54 58
216.000 984.000 291.000 63 65 70
217.000 984.000 291.000 61 63 68
217.000 985.000 291.000 59 61 65
218.000 986.000 291.000 57 58 63
219.000 987.000 291.000 54 55 60
217.000 984.000 292.000 56 58 62
217.000 984.000 293.000 49 51 56
217.000 985.000 292.000 57 59 64
218.000 984.000 293.000 50 51 56
218.000 985.000 292.000 55 57 62
218.000 985.000 293.000 50 52 57
219.000 985.000 293.000 47 48 52
218.000 984.000 294.000 47 49 54
218.000 984.000 295.000 46 48 52
218.000 985.000 294.000 48 50 55
219.000 984.000 295.000 45 47 52
219.000 985.000 294.000 45 47 52
219.000 985.000 295.000 42 44 49
218.000 986.000 292.000 54 56 60
218.000 986.000 293.000 51 52 57
219.000 986.000 292.000 53 55 60
219.000 986.000 293.000 49 50 55
219.000 987.000 292.000 52 53 58
219.000 987.000 293.000 49 51 56
219.000 986.000 294.000 44 46 51
219.000 986.000 295.000 41 43 48
219.000 988.000 292.000 52 54 58
220.000 987.000 293.000 46 49 54
220.000 986.000 294.000 43 46 51
220.000 986.000 295.000 41 43 49
220.000 987.000 294.000 44 46 52
220.000 987.000 295.000 42 44 49
220.000 988.000 292.000 49 51 55
220.000 988.000 293.000 47 50 54
220.000 989.000 292.000 50 51 56
220.000 989.000 293.000 49 51 55
221.000 989.000 293.000 50 51 56
220.000 988.000 294.000 46 49 54
221.000 988.000 294.000 49 51 55
221.000 988.000 295.000 48 50 55
221.000 989.000 294.000 50 52 56
221.000 989.000 295.000 52 53 57
222.000 989.000 295.000 52 53 57
222.000 990.000 293.000 50 52 56
222.000 990.000 294.000 48 50 54
222.000 990.000 295.000 49 50 53
223.000 990.000 295.000 50 51 54
223.000 991.000 294.000 54 55 58
223.000 991.000 295.000 53 54 57
219.000 984.000 296.000 46 48 53
219.000 984.000 297.000 48 49 54
219.000 985.000 296.000 44 46 51
219.000 985.000 297.000 46 49 54
219.000 984.000 298.000 48 49 54
220.000 985.000 297.000 46 48 53
220.000 984.000 298.000 47 49 54
220.000 984.000 299.000 48 50 54
220.000 985.000 298.000 48 49 54
220.000 985.000 299.000 46 48 53
220.000 986.000 296.000 40 43 48
220.000 986.000 297.000 43 45 50
220.000 987.000 296.000 40 43 48
221.000 986.000 297.000 44 46 51
221.000 987.000 296.000 42 44 49
221.000 987.000 297.000 43 44 49
220.000 986.000 298.000 47 49 54
220.000 986.000 299.000 46 48 53
221.000 986.000 298.000 46 48 53
221.000 986.000 299.000 48 50 55
221.000 987.000 298.000 46 48 52
221.000 987.000 299.000 49 52 56
222.000 987.000 299.000 49 51 56
220.000 984.000 300.000 49 50 55
220.000 984.000 301.000 52 54 58
220.000 985.000 300.000 48 49 54
221.000 984.000 301.000 53 55 59
221.000 985.000 300.000 48 50 54
221.000 985.000 301.000 52 53 57
221.000 984.000 302.000 55 56 60
221.000 984.000 303.000 54 56 60
221.000 985.000 302.000 54 56 60
221.000 985.000 303.000 56 57 61
221.000 986.000 300.000 48 50 54
221.000 986.000 301.000 50 52 56
222.000 985.000 303.000 57 58 62
222.000 986.000 300.000 48 50 54
222.000 986.000 301.000 49 51 55
222.000 987.000 300.000 52 53 58
222.000 987.000 301.000 50 52 56
223.000 987.000 301.000 51 53 57
222.000 986.000 302.000 52 54 58
222.000 986.000 303.000 56 58 62
223.000 986.000 303.000 55 56 60
223.000 987.000 302.000 52 53 58
223.000 987.000 303.000 54 55 59
221.000 988.000 296.000 48 50 54
221.000 988.000 297.000 45 47 51
221.000 989.000 296.000 53 55 59
222.000 988.000 297.000 45 47 52
222.000 989.000 296.000 53 54 58
222.000 989.000 297.000 50 52 56
222.000 988.000 298.000 44 46 51
222.000 988.000 299.000 49 51 55
222.000 989.000 298.000 47 49 54
223.000 989.000 298.000 50 51 56
223.000 989.000 299.000 49 50 54
222.000 990.000 296.000 50 51 54
222.000 990.000 297.000 50 51 55
223.000 990.000 296.000 48 49 53
223.000 990.000 297.000 49 50 54
223.000 991.000 296.000 51 52 55
223.000 990.000 298.000 50 52 55
223.000 990.000 299.000 50 52 56
222.000 988.000 300.000 53 54 58
223.000 988.000 300.000 51 52 56
223.000 988.000 301.000 50 52 56
223.000 989.000 300.000 49 50 55
223.000 989.000 301.000 50 52 56
223.000 988.000 302.000 53 54 59
221.000 979.000 311.000 50 52 56
220.000 983.000 304.000 55 56 61
221.000 983.000 304.000 53 55 59
221.000 980.000 310.000 52 54 58
221.000 984.000 304.000 54 55 60
221.000 984.000 305.000 53 55 59
222.000 984.000 304.000 55 56 60
222.000 984.000 305.000 53 55 60
222.000 985.000 304.000 56 58 62
222.000 985.000 305.000 54 56 60
223.000 985.000 305.000 54 56 60
223.000 985.000 306.000 56 58 62
222.000 986.000 304.000 56 58 62
223.000 986.000 304.000 57 58 62
223.000 986.000 305.000 55 57 61
223.000 987.000 304.000 56 57 61
223.000 987.000 305.000 56 57 61
224.000 991.000 296.000 52 52 55
224.000 991.000 297.000 49 50 53
224.000 990.000 298.000 49 50 54
224.000 990.000 299.000 50 51 55
224.000 991.000 298.000 46 48 51
225.000 991.000 298.000 47 48 52
225.000 991.000 299.000 48 49 52
224.000 989.000 300.000 49 51 55
224.000 989.000 301.000 51 53 57
224.000 988.000 302.000 52 53 58
224.000 988.000 303.000 51 52 56
224.000 989.000 302.000 51 53 57
224.000 989.000 303.000 50 51 55
225.000 989.000 302.000 51 52 56
225.000 989.000 303.000 48 49 54
224.000 990.000 300.000 49 51 55
224.000 990.000 301.000 49 51 55
225.000 990.000 300.000 50 52 55
225.000 990.000 301.000 49 50 54
225.000 991.000 300.000 50 51 55
225.000 991.000 301.000 50 51 55
225.000 990.000 302.000 50 51 55
225.000 990.000 303.000 50 51 55
226.000 991.000 300.000 51 52 55
226.000 991.000 301.000 49 50 54
226.000 990.000 302.000 50 51 55
226.000 990.000 303.000 51 52 56
226.000 991.000 302.000 48 49 53
226.000 991.000 303.000 51 52 56
227.000 991.000 303.000 50 52 55
224.000 979.000 315.000 42 43 46
225.000 980.000 316.000 44 45 48
227.000 980.000 319.000 50 50 54
224.000 987.000 304.000 54 55 59
224.000 987.000 305.000 56 57 61
224.000 986.000 306.000 58 59 64
224.000 987.000 306.000 57 59 63
225.000 987.000 306.000 58 59 63
224.000 988.000 304.000 51 52 56
224.000 988.000 305.000 55 56 60
225.000 988.000 304.000 51 52 57
225.000 988.000 305.000 54 56 60
225.000 989.000 304.000 49 50 54
225.000 989.000 305.000 53 54 58
225.000 988.000 306.000 56 57 61
225.000 990.000 304.000 49 50 54
226.000 989.000 305.000 55 55 59
226.000 988.000 306.000 56 57 62
226.000 988.000 307.000 58 59 63
226.000 989.000 306.000 55 56 60
227.000 989.000 307.000 56 57 61
226.000 990.000 304.000 51 52 56
226.000 990.000 305.000 52 53 57
227.000 990.000 305.000 53 54 58
227.000 991.000 304.000 51 52 56
227.000 991.000 305.000 53 54 58
226.000 990.000 306.000 54 55 59
227.000 990.000 306.000 54 55 59
227.000 990.000 307.000 57 58 62
228.000 991.000 305.000 52 53 57
228.000 990.000 307.000 56 57 61
228.000 991.000 306.000 52 53 58
228.000 991.000 307.000 53 55 59
229.000 991.000 307.000 52 53 58
229.000 984.000 319.000 51 51 55
225.000 992.000 296.000 52 52 55
225.000 992.000 297.000 51 52 55
225.000 992.000 298.000 49 50 53
225.000 992.000 299.000 48 49 52
226.000 993.000 297.000 54 54 57
226.000 992.000 299.000 49 49 53
226.000 993.000 298.000 52 53 56
226.000 993.000 299.000 49 50 53
227.000 993.000 298.000 52 53 56
227.000 993.000 299.000 50 51 54
227.000 994.000 298.000 55 55 59
227.000 994.000 299.000 53 54 58
226.000 992.000 300.000 48 49 53
226.000 992.000 301.000 48 49 53
227.000 992.000 301.000 47 48 52
227.000 993.000 300.000 49 50 54
227.000 993.000 301.000 48 50 53
227.000 992.000 302.000 46 47 51
227.000 992.000 303.000 48 49 53
227.000 993.000 302.000 48 49 53
227.000 994.000 300.000 51 53 57
228.000 994.000 298.000 53 54 58
228.000 994.000 299.000 55 56 60
228.000 995.000 299.000 55 56 60
229.000 995.000 298.000 54 55 59
229.000 995.000 299.000 57 58 62
228.000 993.000 301.000 50 52 56
228.000 992.000 303.000 46 47 51
228.000 993.000 302.000 49 50 54
228.000 993.000 303.000 47 47 51
228.000 994.000 300.000 53 55 59
228.000 994.000 301.000 52 53 57
229.000 994.000 301.000 54 56 60
229.000 995.000 300.000 57 59 63
229.000 995.000 301.000 56 58 62
228.000 994.000 302.000 53 54 58
229.000 994.000 302.000 54 56 60
229.000 994.000 303.000 46 48 52
229.000 995.000 302.000 58 59 63
230.000 995.000 301.000 56 57 62
230.000 994.000 302.000 56 58 62
230.000 994.000 303.000 49 51 55
230.000 995.000 302.000 57 59 63
230.000 995.000 303.000 49 50 55
231.000 995.000 303.000 50 52 56
230.000 996.000 299.000 56 57 61
229.000 996.000 300.000 58 59 63
230.000 996.000 300.000 59 60 64
230.000 996.000 301.000 58 59 64
230.000 997.000 300.000 59 60 64
231.000 996.000 301.000 57 59 63
231.000 997.000 300.000 60 61 65
231.000 997.000 301.000 60 61 66
230.000 996.000 302.000 58 60 64
231.000 996.000 302.000 59 60 65
231.000 996.000 303.000 55 57 61
231.000 997.000 302.000 60 62 66
232.000 997.000 301.000 60 62 66
232.000 996.000 303.000 51 52 57
232.000 997.000 302.000 61 63 68
232.000 997.000 303.000 58 60 65
232.000 998.000 300.000 61 62 67
232.000 998.000 301.000 61 62 67
232.000 999.000 301.000 62 63 68
233.000 999.000 301.000 62 64 68
232.000 998.000 302.000 63 64 69
232.000 998.000 303.000 61 63 67
233.000 998.000 302.000 63 64 69
233.000 998.000 303.000 61 63 68
233.000 999.000 302.000 62 63 68
234.000 999.000 301.000 62 64 68
234.000 998.000 303.000 61 63 67
234.000 999.000 302.000 62 63 68
228.000 992.000 304.000 51 52 56
228.000 992.000 305.000 54 54 58
228.000 993.000 304.000 48 49 53
229.000 992.000 305.000 55 56 61
229.000 993.000 304.000 48 49 53
229.000 993.000 305.000 54 54 59
228.000 992.000 306.000 54 55 59
229.000 992.000 306.000 56 57 62
229.000 992.000 307.000 53 55 60
230.000 993.000 305.000 55 56 60
231.000 993.000 305.000 54 54 58
230.000 992.000 306.000 57 58 63
230.000 992.000 307.000 57 59 64
230.000 993.000 306.000 58 59 63
231.000 992.000 307.000 62 63 68
231.000 993.000 306.000 58 59 63
231.000 993.000 307.000 62 63 68
230.000 994.000 304.000 45 46 50
230.000 994.000 305.000 48 49 53
231.000 994.000 304.000 43 45 49
231.000 994.000 305.000 47 48 51
231.000 995.000 304.000 44 45 50
231.000 994.000 306.000 54 55 59
231.000 992.000 308.000 61 63 68
231.000 993.000 308.000 65 66 71
232.000 993.000 307.000 63 64 68
232.000 994.000 305.000 46 47 50
232.000 995.000 304.000 44 45 49
232.000 995.000 305.000 44 44 49
233.000 995.000 305.000 44 45 48
232.000 994.000 306.000 55 55 59
232.000 994.000 307.000 60 60 64
233.000 994.000 306.000 55 55 58
233.000 994.000 307.000 59 59 62
233.000 995.000 306.000 49 49 52
234.000 994.000 307.000 60 59 63
234.000 995.000 306.000 49 48 51
234.000 995.000 307.000 57 56 59
235.000 995.000 307.000 52 51 54
232.000 993.000 308.000 66 67 72
233.000 993.000 308.000 63 64 68
233.000 993.000 309.000 63 64 68
233.000 994.000 308.000 60 61 65
234.000 993.000 309.000 59 61 65
234.000 993.000 310.000 57 59 64
234.000 994.000 308.000 62 62 66
234.000 994.000 309.000 61 62 66
235.000 994.000 309.000 64 65 69
235.000 995.000 308.000 62 62 65
235.000 995.000 309.000 67 67 71
235.000 994.000 310.000 59 60 64
235.000 995.000 310.000 62 63 67
232.000 996.000 304.000 46 48 52
232.000 997.000 304.000 49 52 56
233.000 996.000 304.000 48 49 53
233.000 996.000 305.000 48 49 52
233.000 997.000 304.000 50 52 56
233.000 998.000 304.000 52 54 59
234.000 996.000 305.000 49 49 52
234.000 997.000 304.000 53 55 59
234.000 997.000 305.000 53 55 58
235.000 997.000 305.000 52 53 57
234.000 996.000 306.000 45 45 48
235.000 996.000 306.000 44 44 46
235.000 996.000 307.000 46 45 47
235.000 997.000 306.000 49 50 53
234.000 998.000 304.000 54 56 60
235.000 998.000 304.000 54 56 61
235.000 996.000 308.000 54 53 56
236.000 995.000 309.000 66 66 69
236.000 995.000 310.000 63 64 68
237.000 995.000 310.000 62 62 67
237.000 995.000 311.000 59 60 64
236.000 996.000 307.000 45 44 47
236.000 997.000 306.000 45 46 50
236.000 997.000 307.000 44 44 48
236.000 996.000 308.000 52 51 54
236.000 996.000 309.000 59 59 62
237.000 996.000 308.000 51 51 54
228.000 980.000 320.000 54 54 58
229.000 982.000 321.000 55 55 59
229.000 983.000 320.000 55 55 59
230.000 981.000 322.000 48 49 53
230.000 982.000 322.000 50 52 56
231.000 985.000 322.000 46 48 54
232.000 981.000 325.000 51 52 55
232.000 982.000 325.000 50 51 54
