ply
format ascii 1.0
element vertex 1426
property float x
property float y
property float z
property uchar red
property uchar green
property uchar blue
end_header
266.000 209.000 194.000 38 45 52
266.000 209.000 195.000 37 44 51
267.000 209.000 195.000 37 44 51
266.000 210.000 194.000 38 45 52
266.000 210.000 195.000 37 44 52
266.000 211.000 194.000 38 44 52
266.000 211.000 195.000 37 44 52
266.000 209.000 196.000 37 44 51
267.000 209.000 196.000 38 44 51
267.000 209.000 197.000 38 45 52
266.000 210.000 196.000 38 45 52
266.000 211.000 196.000 38 45 52
267.000 210.000 196.000 39 45 52
267.000 210.000 197.000 39 46 53
267.000 211.000 197.000 39 46 53
267.000 210.000 198.000 40 46 54
267.000 210.000 199.000 42 48 56
267.000 211.000 198.000 40 46 53
267.000 211.000 199.000 41 47 55
266.000 212.000 195.000 37 44 52
266.000 213.000 195.000 38 44 52
266.000 214.000 195.000 38 45 53
266.000 215.000 195.000 38 45 52
266.000 212.000 196.000 39 45 53
266.000 212.000 198.000 39 46 53
266.000 213.000 198.000 40 46 53
266.000 213.000 199.000 40 46 54
267.000 212.000 198.000 40 46 53
267.000 212.000 199.000 41 47 54
267.000 213.000 198.000 40 47 54
267.000 213.000 199.000 40 47 54
266.000 214.000 196.000 38 45 52
266.000 215.000 196.000 38 45 52
266.000 214.000 198.000 41 47 54
266.000 214.000 199.000 40 46 53
266.000 215.000 198.000 40 46 53
266.000 215.000 199.000 41 47 54
267.000 214.000 199.000 39 46 53
267.000 210.000 200.000 41 48 56
267.000 211.000 200.000 40 47 55
267.000 211.000 201.000 39 46 54
267.000 212.000 200.000 40 47 55
267.000 212.000 201.000 39 46 54
267.000 213.000 200.000 40 47 54
267.000 213.000 201.000 40 46 54
266.000 215.000 200.000 40 47 54
267.000 214.000 200.000 39 45 53
267.000 214.000 201.000 39 46 53
267.000 215.000 200.000 40 46 54
267.000 215.000 201.000 40 47 54
267.000 215.000 202.000 42 48 55
268.000 211.000 201.000 39 46 54
268.000 212.000 201.000 40 47 54
268.000 212.000 202.000 42 49 57
268.000 213.000 202.000 43 49 56
269.000 213.000 203.000 49 54 61
268.000 214.000 202.000 44 49 57
268.000 215.000 202.000 45 50 57
268.000 215.000 203.000 48 53 60
269.000 214.000 203.000 49 54 61
269.000 215.000 203.000 48 53 60
269.000 213.000 204.000 49 53 59
269.000 214.000 204.000 49 53 60
269.000 215.000 204.000 46 51 58
270.000 214.000 204.000 46 50 57
270.000 215.000 204.000 44 50 57
270.000 215.000 205.000 43 49 56
271.000 215.000 205.000 42 49 56
265.000 217.000 195.000 38 45 52
265.000 218.000 195.000 38 45 53
265.000 219.000 195.000 37 44 52
266.000 219.000 195.000 37 45 53
266.000 216.000 196.000 38 45 52
266.000 216.000 197.000 39 45 52
266.000 217.000 196.000 37 45 52
266.000 217.000 197.000 38 45 52
266.000 216.000 198.000 39 45 52
266.000 216.000 199.000 40 46 53
266.000 217.000 198.000 38 45 52
266.000 217.000 199.000 39 45 53
266.000 218.000 197.000 37 45 53
266.000 219.000 197.000 37 45 53
266.000 218.000 198.000 38 45 53
266.000 218.000 199.000 39 46 54
266.000 219.000 198.000 37 45 53
266.000 219.000 199.000 38 46 54
265.000 220.000 195.000 37 44 52
264.000 223.000 195.000 38 45 52
265.000 220.000 196.000 37 44 52
265.000 221.000 196.000 36 44 51
265.000 221.000 197.000 37 44 52
265.000 221.000 198.000 37 45 53
265.000 221.000 199.000 38 46 54
264.000 223.000 196.000 36 44 52
265.000 222.000 196.000 35 43 50
265.000 222.000 197.000 36 43 51
265.000 223.000 197.000 37 44 52
265.000 222.000 198.000 37 44 52
265.000 222.000 199.000 38 45 53
265.000 223.000 198.000 37 45 53
265.000 223.000 199.000 37 45 53
266.000 220.000 196.000 37 44 52
266.000 220.000 197.000 37 45 53
266.000 220.000 198.000 38 45 53
266.000 220.000 199.000 39 46 54
266.000 221.000 198.000 38 45 53
266.000 221.000 199.000 39 46 54
266.000 222.000 199.000 38 46 54
266.000 223.000 199.000 38 45 53
266.000 216.000 200.000 38 46 54
266.000 217.000 200.000 39 46 54
267.000 216.000 200.000 38 46 55
267.000 216.000 201.000 38 46 54
267.000 217.000 200.000 37 46 55
267.000 217.000 201.000 37 46 55
267.000 216.000 202.000 41 48 55
267.000 217.000 202.000 40 47 56
266.000 218.000 200.000 39 47 55
266.000 219.000 200.000 39 47 55
267.000 218.000 200.000 38 47 56
267.000 218.000 201.000 37 46 55
267.000 219.000 200.000 38 47 56
267.000 219.000 201.000 38 46 56
267.000 218.000 202.000 40 48 56
267.000 219.000 202.000 42 49 57
266.000 220.000 200.000 38 47 55
266.000 221.000 200.000 39 46 55
266.000 221.000 201.000 37 46 54
267.000 220.000 200.000 38 46 55
267.000 220.000 201.000 38 47 56
267.000 221.000 201.000 37 46 54
267.000 220.000 202.000 43 49 57
267.000 221.000 202.000 42 48 56
266.000 222.000 200.000 39 46 54
266.000 222.000 201.000 38 46 54
266.000 223.000 200.000 38 46 54
266.000 223.000 201.000 38 46 54
267.000 222.000 201.000 39 46 54
266.000 223.000 202.000 41 47 55
267.000 222.000 202.000 42 48 56
267.000 222.000 203.000 47 51 58
267.000 223.000 202.000 43 49 56
267.000 223.000 203.000 48 52 58
268.000 216.000 202.000 45 51 58
268.000 216.000 203.000 47 52 60
268.000 217.000 202.000 45 51 58
268.000 217.000 203.000 49 54 61
269.000 216.000 203.000 47 52 59
269.000 217.000 203.000 50 55 62
268.000 218.000 202.000 46 52 59
268.000 218.000 203.000 51 56 62
268.000 219.000 202.000 46 52 59
268.000 219.000 203.000 50 55 61
269.000 218.000 203.000 51 56 63
269.000 216.000 204.000 46 51 58
269.000 217.000 204.000 48 53 60
269.000 218.000 204.000 49 54 60
269.000 219.000 204.000 47 51 57
270.000 216.000 204.000 44 50 57
270.000 216.000 205.000 44 51 58
270.000 217.000 204.000 46 52 59
270.000 217.000 205.000 45 51 58
271.000 216.000 205.000 44 50 58
271.000 217.000 205.000 44 51 58
271.000 216.000 206.000 44 51 59
271.000 217.000 206.000 44 51 59
270.000 218.000 204.000 43 49 56
270.000 218.000 205.000 43 49 56
270.000 219.000 204.000 43 48 54
270.000 219.000 205.000 41 47 54
271.000 218.000 205.000 42 49 56
271.000 218.000 206.000 40 47 55
271.000 219.000 206.000 39 46 54
268.000 220.000 202.000 46 52 59
268.000 220.000 203.000 49 54 60
268.000 221.000 203.000 48 52 59
268.000 222.000 203.000 48 52 58
268.000 223.000 203.000 49 53 59
268.000 220.000 204.000 50 54 60
268.000 221.000 204.000 47 51 57
269.000 220.000 204.000 46 50 56
269.000 220.000 205.000 42 47 53
269.000 221.000 204.000 45 49 54
269.000 221.000 205.000 41 46 52
268.000 222.000 204.000 48 52 58
268.000 223.000 204.000 47 51 57
269.000 222.000 204.000 47 51 56
269.000 222.000 205.000 43 48 54
269.000 223.000 205.000 42 47 54
270.000 220.000 205.000 41 46 52
270.000 220.000 206.000 40 46 53
270.000 221.000 206.000 40 46 53
271.000 220.000 206.000 39 46 54
271.000 220.000 207.000 39 46 54
271.000 221.000 206.000 40 47 54
271.000 221.000 207.000 41 48 55
270.000 222.000 206.000 42 48 54
270.000 223.000 206.000 40 47 54
271.000 222.000 207.000 41 48 55
271.000 223.000 207.000 39 46 54
272.000 216.000 206.000 46 52 60
272.000 217.000 206.000 44 51 59
272.000 217.000 207.000 44 51 59
272.000 218.000 206.000 41 48 56
272.000 218.000 207.000 41 48 57
272.000 219.000 207.000 38 46 55
273.000 218.000 207.000 40 48 56
272.000 220.000 207.000 39 46 54
272.000 221.000 207.000 40 47 55
272.000 222.000 207.000 41 48 56
272.000 223.000 207.000 39 46 54
273.000 218.000 208.000 39 46 54
273.000 219.000 208.000 38 46 54
274.000 218.000 208.000 37 45 53
274.000 219.000 208.000 37 45 53
274.000 219.000 209.000 37 44 52
275.000 219.000 209.000 36 43 51
272.000 220.000 208.000 39 46 54
272.000 221.000 208.000 40 47 55
273.000 220.000 208.000 38 46 54
273.000 221.000 208.000 39 46 54
272.000 222.000 208.000 40 47 55
272.000 223.000 208.000 39 47 55
273.000 222.000 208.000 39 46 54
273.000 223.000 208.000 38 46 54
274.000 220.000 208.000 38 45 53
274.000 220.000 209.000 37 45 53
274.000 221.000 208.000 39 46 54
274.000 221.000 209.000 39 47 54
275.000 220.000 209.000 37 44 52
275.000 221.000 209.000 38 45 53
274.000 222.000 208.000 39 47 55
274.000 222.000 209.000 40 47 55
274.000 223.000 208.000 39 46 55
274.000 223.000 209.000 39 46 54
275.000 222.000 209.000 38 46 54
275.000 223.000 209.000 38 46 54
276.000 220.000 209.000 36 43 51
276.000 221.000 209.000 37 45 52
277.000 220.000 209.000 35 43 51
277.000 221.000 209.000 37 45 53
277.000 221.000 210.000 36 44 52
276.000 222.000 209.000 38 45 53
276.000 223.000 209.000 38 46 54
277.000 222.000 209.000 38 45 53
277.000 223.000 209.000 38 45 54
278.000 221.000 210.000 37 44 52
278.000 222.000 209.000 38 45 53
278.000 223.000 209.000 38 45 54
278.000 222.000 210.000 37 45 53
278.000 223.000 210.000 38 45 53
279.000 222.000 210.000 38 45 53
279.000 223.000 210.000 37 45 53
280.000 223.000 210.000 38 45 53
262.000 230.000 195.000 36 44 51
262.000 231.000 195.000 37 44 52
263.000 230.000 195.000 35 43 51
263.000 228.000 196.000 38 45 52
263.000 229.000 196.000 37 44 52
263.000 229.000 197.000 38 45 52
263.000 229.000 198.000 39 45 53
262.000 231.000 196.000 36 44 51
263.000 230.000 196.000 36 43 51
263.000 230.000 197.000 37 44 51
263.000 231.000 196.000 36 43 51
263.000 231.000 197.000 37 44 51
263.000 230.000 198.000 38 45 52
263.000 230.000 199.000 39 45 52
263.000 231.000 198.000 39 45 52
263.000 231.000 199.000 39 45 53
261.000 233.000 195.000 39 46 53
261.000 234.000 195.000 38 45 52
261.000 235.000 195.000 37 44 52
262.000 232.000 195.000 38 45 53
262.000 233.000 195.000 40 46 53
261.000 234.000 196.000 38 44 52
261.000 235.000 196.000 38 44 52
261.000 235.000 197.000 38 45 52
262.000 232.000 196.000 38 45 52
262.000 232.000 197.000 38 45 52
262.000 233.000 196.000 39 45 52
262.000 233.000 197.000 39 46 53
263.000 232.000 197.000 38 44 52
262.000 233.000 198.000 40 46 53
263.000 232.000 198.000 39 46 52
263.000 232.000 199.000 40 46 54
263.000 233.000 198.000 40 46 53
263.000 233.000 199.000 40 46 53
262.000 234.000 196.000 38 45 52
262.000 234.000 197.000 39 45 52
262.000 235.000 197.000 38 45 52
262.000 234.000 198.000 40 46 53
262.000 234.000 199.000 40 46 53
262.000 235.000 198.000 39 45 52
262.000 235.000 199.000 38 45 52
263.000 234.000 199.000 39 46 53
261.000 236.000 194.000 39 46 54
261.000 236.000 195.000 38 45 52
261.000 237.000 194.000 40 47 55
261.000 237.000 195.000 39 46 54
260.000 239.000 194.000 39 46 54
261.000 238.000 194.000 39 47 54
261.000 238.000 195.000 39 46 54
261.000 239.000 194.000 39 46 54
261.000 239.000 195.000 39 46 54
261.000 236.000 196.000 38 45 53
261.000 236.000 197.000 39 45 52
261.000 237.000 196.000 39 45 53
261.000 237.000 197.000 38 45 53
261.000 236.000 198.000 38 45 52
261.000 237.000 198.000 38 45 53
261.000 238.000 196.000 39 46 54
261.000 238.000 197.000 38 45 53
261.000 239.000 196.000 39 46 54
261.000 239.000 197.000 39 46 54
261.000 238.000 198.000 38 45 53
261.000 239.000 198.000 39 46 54
261.000 239.000 199.000 38 45 53
262.000 236.000 198.000 39 45 52
262.000 236.000 199.000 39 45 52
262.000 237.000 198.000 39 45 53
262.000 237.000 199.000 38 45 52
262.000 238.000 199.000 37 44 52
262.000 239.000 199.000 37 44 52
263.000 232.000 200.000 39 46 54
263.000 233.000 200.000 39 46 54
263.000 233.000 201.000 38 46 54
263.000 234.000 200.000 39 46 54
263.000 234.000 201.000 37 45 53
263.000 235.000 200.000 38 45 53
263.000 235.000 201.000 38 45 53
263.000 235.000 202.000 38 45 53
262.000 236.000 200.000 38 45 53
262.000 237.000 200.000 39 46 53
262.000 237.000 201.000 39 46 54
263.000 236.000 200.000 38 45 53
263.000 236.000 201.000 37 45 53
263.000 237.000 201.000 38 46 54
263.000 236.000 202.000 37 45 53
263.000 237.000 202.000 38 46 53
262.000 238.000 200.000 38 45 53
262.000 238.000 201.000 39 46 54
262.000 239.000 200.000 38 45 53
262.000 239.000 201.000 38 46 53
263.000 238.000 201.000 39 46 54
263.000 238.000 202.000 39 46 54
263.000 238.000 203.000 41 47 54
263.000 239.000 202.000 38 46 53
263.000 239.000 203.000 42 48 55
264.000 224.000 195.000 37 44 52
264.000 225.000 195.000 37 44 52
264.000 224.000 196.000 36 44 52
264.000 224.000 197.000 36 44 52
264.000 225.000 196.000 36 44 52
264.000 225.000 197.000 36 44 52
265.000 224.000 197.000 38 45 53
265.000 225.000 197.000 37 45 53
265.000 224.000 198.000 38 45 53
265.000 224.000 199.000 39 46 54
265.000 225.000 198.000 38 45 53
265.000 225.000 199.000 39 46 54
264.000 226.000 196.000 37 44 52
264.000 226.000 197.000 37 45 52
264.000 227.000 196.000 38 45 53
264.000 227.000 197.000 38 45 53
264.000 226.000 198.000 38 45 53
264.000 227.000 198.000 38 45 53
264.000 227.000 199.000 38 45 52
265.000 226.000 198.000 37 45 53
265.000 226.000 199.000 39 45 53
265.000 227.000 199.000 38 45 52
264.000 228.000 196.000 38 45 52
264.000 228.000 197.000 38 45 53
264.000 229.000 197.000 39 45 53
264.000 228.000 198.000 39 45 53
264.000 228.000 199.000 39 45 52
264.000 229.000 198.000 39 45 53
264.000 229.000 199.000 39 45 52
264.000 230.000 198.000 39 45 52
264.000 230.000 199.000 38 45 52
265.000 224.000 200.000 38 46 54
265.000 225.000 200.000 39 46 54
265.000 226.000 200.000 39 46 53
265.000 227.000 200.000 39 45 53
265.000 227.000 201.000 39 45 53
266.000 224.000 200.000 38 45 53
266.000 224.000 201.000 39 45 53
266.000 225.000 200.000 39 46 54
266.000 225.000 201.000 39 46 53
266.000 224.000 202.000 41 47 54
266.000 225.000 202.000 42 48 55
267.000 224.000 202.000 45 50 57
267.000 224.000 203.000 48 53 59
267.000 225.000 202.000 45 50 57
267.000 225.000 203.000 48 53 59
266.000 226.000 200.000 39 46 54
266.000 226.000 201.000 39 46 53
266.000 227.000 201.000 41 47 54
266.000 226.000 202.000 42 48 55
266.000 227.000 202.000 43 49 56
267.000 226.000 202.000 46 51 58
267.000 227.000 202.000 47 53 59
264.000 229.000 200.000 38 45 52
265.000 228.000 200.000 38 45 53
265.000 228.000 201.000 39 46 53
265.000 229.000 200.000 37 45 52
265.000 229.000 201.000 37 44 52
264.000 230.000 200.000 38 45 53
264.000 230.000 201.000 38 46 53
264.000 231.000 200.000 39 46 53
264.000 231.000 201.000 38 46 54
265.000 230.000 201.000 38 45 53
265.000 231.000 201.000 39 47 55
265.000 230.000 202.000 41 48 55
265.000 231.000 202.000 43 50 57
266.000 228.000 201.000 40 46 54
266.000 229.000 201.000 41 47 55
266.000 228.000 202.000 44 50 57
266.000 229.000 202.000 43 49 56
267.000 228.000 202.000 47 52 59
267.000 229.000 202.000 48 53 60
266.000 230.000 202.000 45 51 58
266.000 231.000 202.000 46 51 58
266.000 231.000 203.000 48 53 60
267.000 230.000 202.000 48 53 59
267.000 230.000 203.000 48 52 59
267.000 231.000 203.000 46 51 58
268.000 224.000 203.000 49 53 58
268.000 225.000 203.000 48 52 58
268.000 226.000 203.000 47 51 58
268.000 227.000 202.000 49 54 60
268.000 227.000 203.000 46 51 57
269.000 226.000 203.000 47 52 59
269.000 227.000 203.000 43 49 56
268.000 224.000 204.000 47 51 57
268.000 225.000 204.000 44 49 55
269.000 224.000 204.000 43 49 55
269.000 224.000 205.000 41 47 54
269.000 225.000 204.000 40 46 54
269.000 225.000 205.000 38 45 53
269.000 226.000 204.000 44 50 58
269.000 227.000 204.000 44 50 58
270.000 224.000 205.000 37 45 53
270.000 225.000 205.000 36 45 53
270.000 224.000 206.000 37 44 52
270.000 225.000 206.000 36 45 53
271.000 224.000 206.000 36 44 52
271.000 224.000 207.000 37 45 53
271.000 225.000 206.000 38 45 54
270.000 226.000 204.000 46 52 60
270.000 226.000 205.000 42 49 57
270.000 227.000 204.000 42 50 58
270.000 227.000 205.000 42 50 58
271.000 226.000 205.000 43 51 59
271.000 227.000 205.000 42 50 58
271.000 226.000 206.000 42 49 57
268.000 228.000 203.000 45 50 57
268.000 229.000 203.000 45 50 57
269.000 228.000 203.000 42 48 55
269.000 229.000 203.000 41 47 55
268.000 230.000 203.000 46 51 57
268.000 231.000 203.000 43 48 55
269.000 230.000 203.000 44 50 57
269.000 228.000 204.000 41 48 56
269.000 229.000 204.000 42 48 55
269.000 230.000 204.000 43 49 57
269.000 231.000 204.000 42 48 55
270.000 228.000 204.000 40 48 56
270.000 229.000 204.000 41 49 57
271.000 228.000 205.000 39 48 56
271.000 229.000 205.000 39 47 56
270.000 230.000 204.000 44 50 58
270.000 231.000 204.000 42 49 57
271.000 230.000 205.000 41 49 57
271.000 231.000 205.000 40 47 55
264.000 232.000 200.000 39 46 54
264.000 232.000 201.000 38 46 54
264.000 233.000 201.000 38 46 54
264.000 233.000 202.000 40 47 55
265.000 232.000 202.000 42 48 56
265.000 232.000 203.000 44 50 58
265.000 233.000 202.000 43 50 58
265.000 233.000 203.000 44 51 59
264.000 234.000 201.000 38 45 53
264.000 234.000 202.000 40 47 54
264.000 235.000 202.000 39 46 54
264.000 235.000 203.000 41 48 55
265.000 234.000 203.000 43 49 57
265.000 235.000 203.000 44 50 57
266.000 232.000 203.000 46 52 59
266.000 233.000 203.000 45 51 59
267.000 232.000 203.000 45 51 57
267.000 233.000 203.000 44 49 56
266.000 234.000 203.000 46 51 57
266.000 235.000 203.000 48 52 58
267.000 234.000 203.000 45 49 56
266.000 235.000 204.000 49 53 58
267.000 234.000 204.000 46 50 56
267.000 235.000 204.000 46 50 56
264.000 236.000 202.000 39 46 54
264.000 236.000 203.000 42 49 56
264.000 237.000 203.000 42 48 55
265.000 236.000 203.000 44 50 56
265.000 237.000 203.000 44 50 56
264.000 238.000 203.000 42 48 55
264.000 239.000 203.000 45 51 57
265.000 237.000 204.000 44 49 56
264.000 238.000 204.000 45 50 56
264.000 239.000 204.000 46 51 57
265.000 238.000 204.000 44 49 55
265.000 239.000 204.000 44 49 55
265.000 239.000 205.000 42 47 54
266.000 236.000 204.000 45 49 55
266.000 237.000 204.000 41 46 53
267.000 236.000 204.000 41 46 52
267.000 237.000 204.000 39 44 51
267.000 237.000 205.000 36 43 50
266.000 238.000 204.000 40 45 52
266.000 238.000 205.000 39 45 52
266.000 239.000 205.000 39 45 52
267.000 238.000 205.000 35 42 50
267.000 239.000 205.000 37 44 51
267.000 239.000 206.000 38 45 52
268.000 232.000 203.000 41 47 54
268.000 233.000 203.000 41 47 54
268.000 232.000 204.000 39 46 53
268.000 233.000 204.000 40 46 53
269.000 232.000 204.000 40 46 53
269.000 233.000 204.000 40 46 53
268.000 234.000 204.000 42 48 55
268.000 235.000 204.000 42 47 54
268.000 235.000 205.000 41 47 54
269.000 234.000 204.000 41 47 54
269.000 234.000 205.000 41 47 55
269.000 235.000 205.000 39 46 53
270.000 232.000 204.000 40 47 54
270.000 232.000 205.000 39 46 54
270.000 233.000 204.000 39 45 53
270.000 233.000 205.000 38 45 53
271.000 232.000 205.000 38 45 54
271.000 233.000 205.000 38 45 53
271.000 232.000 206.000 38 45 54
271.000 233.000 206.000 37 45 53
270.000 234.000 205.000 39 46 54
270.000 234.000 206.000 38 46 53
270.000 235.000 206.000 38 45 53
271.000 234.000 206.000 37 45 53
271.000 234.000 207.000 37 44 53
271.000 235.000 207.000 37 44 52
268.000 236.000 204.000 40 45 52
268.000 236.000 205.000 39 45 52
268.000 237.000 205.000 36 43 51
269.000 236.000 205.000 39 45 53
268.000 237.000 206.000 34 42 49
269.000 236.000 206.000 37 44 51
269.000 237.000 206.000 34 42 50
268.000 238.000 205.000 35 42 49
268.000 238.000 206.000 33 41 49
268.000 239.000 206.000 37 44 52
268.000 239.000 207.000 38 45 53
269.000 238.000 206.000 34 42 50
269.000 238.000 207.000 33 41 50
269.000 239.000 206.000 36 43 51
269.000 239.000 207.000 36 43 51
270.000 236.000 206.000 36 44 52
270.000 236.000 207.000 35 43 51
270.000 237.000 206.000 34 42 50
270.000 237.000 207.000 33 42 50
271.000 236.000 207.000 35 43 51
271.000 237.000 207.000 35 43 51
270.000 238.000 207.000 33 41 50
271.000 235.000 208.000 37 45 53
269.000 239.000 208.000 36 44 52
271.000 236.000 208.000 35 43 51
271.000 237.000 208.000 35 43 51
271.000 237.000 209.000 35 42 50
270.000 238.000 208.000 34 42 50
270.000 239.000 208.000 35 43 51
271.000 238.000 208.000 34 42 50
271.000 238.000 209.000 34 42 50
271.000 239.000 208.000 35 43 51
271.000 239.000 209.000 35 43 51
271.000 239.000 210.000 35 42 50
260.000 240.000 194.000 39 46 54
260.000 241.000 194.000 39 46 54
260.000 241.000 195.000 39 46 54
261.000 240.000 195.000 39 46 54
261.000 241.000 195.000 39 47 55
260.000 242.000 194.000 39 46 54
260.000 242.000 195.000 39 47 54
260.000 243.000 194.000 39 47 54
260.000 243.000 195.000 39 47 54
261.000 242.000 195.000 39 47 55
261.000 240.000 196.000 39 46 54
261.000 240.000 197.000 39 46 54
261.000 241.000 196.000 39 47 55
261.000 241.000 197.000 39 46 54
261.000 240.000 198.000 39 46 54
261.000 240.000 199.000 39 46 54
261.000 241.000 198.000 38 46 54
261.000 241.000 199.000 38 46 54
260.000 243.000 196.000 39 47 55
261.000 242.000 196.000 40 47 55
261.000 242.000 197.000 40 47 55
261.000 243.000 196.000 39 47 55
261.000 243.000 197.000 40 47 55
261.000 242.000 198.000 39 47 55
261.000 242.000 199.000 38 46 54
261.000 243.000 198.000 39 47 55
261.000 243.000 199.000 38 46 54
260.000 244.000 194.000 40 47 55
260.000 244.000 195.000 40 47 54
260.000 245.000 195.000 39 46 54
261.000 244.000 194.000 40 47 55
261.000 245.000 194.000 40 46 54
260.000 246.000 195.000 38 46 53
260.000 247.000 195.000 39 46 53
261.000 246.000 194.000 39 46 53
261.000 247.000 194.000 39 46 53
260.000 244.000 196.000 39 47 55
260.000 244.000 197.000 39 46 54
260.000 245.000 196.000 39 46 54
260.000 245.000 197.000 38 46 54
260.000 244.000 198.000 38 46 54
260.000 245.000 198.000 38 46 54
261.000 244.000 198.000 38 46 54
261.000 244.000 199.000 38 46 54
261.000 245.000 198.000 38 46 54
261.000 245.000 199.000 38 46 54
260.000 246.000 196.000 38 45 53
260.000 246.000 197.000 39 46 54
260.000 247.000 196.000 39 46 54
260.000 247.000 197.000 39 46 54
260.000 246.000 198.000 39 47 55
260.000 246.000 199.000 39 47 55
260.000 247.000 198.000 39 47 55
260.000 247.000 199.000 40 48 55
261.000 246.000 199.000 39 46 54
261.000 241.000 200.000 38 46 54
261.000 242.000 200.000 38 46 54
261.000 242.000 201.000 38 46 54
261.000 243.000 200.000 38 46 54
261.000 243.000 201.000 38 45 53
262.000 240.000 200.000 39 46 54
262.000 240.000 201.000 40 47 54
262.000 241.000 200.000 38 46 54
262.000 241.000 201.000 39 47 54
262.000 240.000 202.000 39 46 54
262.000 241.000 202.000 39 46 54
262.000 241.000 203.000 39 46 54
263.000 240.000 202.000 38 46 54
263.000 240.000 203.000 42 48 56
263.000 241.000 202.000 38 46 53
263.000 241.000 203.000 42 48 56
262.000 242.000 201.000 39 46 54
262.000 243.000 201.000 38 45 53
262.000 242.000 202.000 39 47 55
262.000 242.000 203.000 40 47 55
262.000 243.000 202.000 38 46 54
262.000 243.000 203.000 40 47 55
263.000 242.000 203.000 43 49 57
263.000 243.000 203.000 43 49 57
263.000 240.000 204.000 46 52 58
263.000 241.000 204.000 46 52 59
263.000 242.000 204.000 47 53 60
263.000 242.000 205.000 47 53 60
263.000 243.000 204.000 45 51 59
263.000 243.000 205.000 46 51 58
261.000 244.000 200.000 38 46 54
261.000 244.000 201.000 38 45 53
261.000 245.000 200.000 39 46 54
261.000 245.000 201.000 40 47 55
261.000 244.000 202.000 37 45 53
261.000 245.000 202.000 40 47 54
260.000 247.000 200.000 40 47 55
261.000 246.000 200.000 39 46 54
261.000 246.000 201.000 40 47 55
261.000 247.000 200.000 40 47 54
261.000 247.000 201.000 40 47 55
261.000 246.000 202.000 41 48 55
261.000 246.000 203.000 41 48 56
261.000 247.000 202.000 41 48 55
261.000 247.000 203.000 40 47 55
262.000 244.000 202.000 38 45 53
262.000 244.000 203.000 39 47 55
262.000 245.000 202.000 38 46 54
262.000 245.000 203.000 40 47 55
262.000 246.000 203.000 41 48 55
262.000 247.000 203.000 41 48 55
262.000 244.000 204.000 44 50 57
262.000 245.000 204.000 46 52 58
262.000 245.000 205.000 48 53 59
263.000 244.000 204.000 45 51 58
263.000 244.000 205.000 45 51 58
263.000 245.000 205.000 48 52 59
263.000 244.000 206.000 43 48 56
263.000 245.000 206.000 46 51 59
263.000 245.000 207.000 44 50 58
262.000 246.000 204.000 46 51 58
262.000 246.000 205.000 48 52 59
262.000 247.000 204.000 46 51 58
262.000 247.000 205.000 48 52 58
263.000 246.000 205.000 48 52 59
263.000 246.000 206.000 46 50 58
263.000 246.000 207.000 41 48 55
263.000 247.000 206.000 45 50 57
263.000 247.000 207.000 40 46 54
261.000 248.000 193.000 40 46 53
260.000 248.000 195.000 39 46 53
260.000 249.000 194.000 39 46 53
260.000 249.000 195.000 39 46 53
261.000 248.000 194.000 40 46 53
261.000 248.000 195.000 40 46 54
261.000 249.000 194.000 40 46 53
260.000 250.000 195.000 39 45 53
260.000 251.000 195.000 38 45 52
260.000 248.000 196.000 39 46 54
260.000 248.000 197.000 39 46 54
260.000 249.000 196.000 39 46 53
260.000 249.000 197.000 39 46 53
260.000 248.000 198.000 39 46 54
260.000 248.000 199.000 39 46 54
260.000 249.000 198.000 38 45 53
260.000 249.000 199.000 37 45 53
260.000 250.000 196.000 39 46 53
260.000 250.000 197.000 39 46 53
260.000 251.000 196.000 38 45 52
260.000 251.000 197.000 38 45 52
260.000 250.000 198.000 38 45 52
260.000 250.000 199.000 38 45 53
260.000 251.000 198.000 38 45 52
260.000 251.000 199.000 38 45 52
260.000 252.000 195.000 39 45 52
260.000 252.000 196.000 39 46 53
260.000 252.000 197.000 40 46 53
260.000 253.000 197.000 39 45 53
260.000 252.000 198.000 39 46 53
260.000 252.000 199.000 39 45 53
260.000 253.000 198.000 38 45 52
260.000 253.000 199.000 38 45 52
260.000 254.000 198.000 38 45 52
260.000 254.000 199.000 38 45 53
260.000 255.000 199.000 38 45 53
260.000 248.000 200.000 39 46 54
260.000 248.000 201.000 39 46 54
260.000 249.000 200.000 37 45 52
260.000 249.000 201.000 39 45 53
261.000 248.000 201.000 40 47 54
260.000 249.000 202.000 40 47 54
261.000 248.000 202.000 40 47 55
261.000 248.000 203.000 40 47 54
261.000 249.000 202.000 40 47 55
261.000 249.000 203.000 41 48 55
260.000 250.000 200.000 39 46 53
260.000 250.000 201.000 40 46 54
260.000 251.000 200.000 38 45 53
260.000 251.000 201.000 40 47 54
260.000 250.000 202.000 41 48 55
260.000 251.000 202.000 41 48 55
260.000 251.000 203.000 40 47 54
261.000 250.000 202.000 41 47 54
261.000 250.000 203.000 40 47 54
261.000 251.000 203.000 40 47 54
261.000 248.000 204.000 44 50 57
261.000 249.000 204.000 46 51 58
261.000 250.000 204.000 44 50 57
261.000 250.000 205.000 48 52 58
261.000 251.000 204.000 43 48 55
261.000 251.000 205.000 46 50 57
262.000 248.000 204.000 46 51 58
262.000 248.000 205.000 48 52 58
262.000 249.000 205.000 49 53 59
262.000 248.000 206.000 47 51 57
262.000 249.000 206.000 50 54 59
263.000 248.000 206.000 46 50 57
263.000 248.000 207.000 42 48 55
263.000 249.000 207.000 47 51 58
262.000 250.000 205.000 48 52 58
262.000 251.000 205.000 47 51 56
262.000 250.000 206.000 49 52 57
262.000 250.000 207.000 48 52 57
262.000 251.000 206.000 48 51 56
262.000 251.000 207.000 45 49 54
263.000 250.000 207.000 46 50 56
260.000 252.000 200.000 38 45 52
260.000 252.000 201.000 39 46 53
260.000 253.000 200.000 37 44 52
260.000 253.000 201.000 38 46 53
260.000 252.000 202.000 40 46 54
260.000 252.000 203.000 40 47 55
260.000 253.000 202.000 39 47 55
260.000 253.000 203.000 40 47 55
261.000 252.000 203.000 40 47 55
260.000 254.000 201.000 38 46 54
260.000 254.000 202.000 39 47 55
260.000 254.000 203.000 39 47 55
260.000 255.000 202.000 41 48 55
260.000 255.000 203.000 41 48 56
261.000 252.000 204.000 43 49 56
261.000 252.000 205.000 46 51 57
261.000 252.000 206.000 46 50 55
261.000 253.000 206.000 46 50 56
262.000 252.000 207.000 42 46 51
262.000 253.000 207.000 43 47 52
264.000 240.000 204.000 47 52 59
264.000 240.000 205.000 48 53 59
264.000 241.000 204.000 47 53 59
264.000 241.000 205.000 46 51 57
265.000 240.000 205.000 45 50 56
265.000 241.000 205.000 44 49 56
264.000 242.000 205.000 46 51 58
264.000 243.000 205.000 45 50 57
264.000 242.000 206.000 43 49 55
264.000 243.000 206.000 43 49 55
264.000 243.000 207.000 42 48 54
265.000 242.000 206.000 43 49 56
265.000 242.000 207.000 42 48 56
265.000 243.000 207.000 41 47 54
266.000 240.000 205.000 43 49 56
266.000 240.000 206.000 42 48 55
266.000 241.000 206.000 43 49 56
266.000 241.000 207.000 43 50 57
267.000 240.000 206.000 41 47 54
267.000 240.000 207.000 42 48 56
267.000 241.000 206.000 43 49 56
267.000 241.000 207.000 43 49 56
266.000 242.000 207.000 42 48 56
264.000 244.000 206.000 42 48 55
264.000 244.000 207.000 40 47 54
264.000 245.000 207.000 42 48 55
265.000 244.000 207.000 40 47 54
264.000 246.000 207.000 42 48 55
268.000 240.000 206.000 39 46 53
268.000 240.000 207.000 40 47 54
263.000 247.000 208.000 38 45 53
263.000 248.000 208.000 40 47 54
263.000 249.000 208.000 42 48 55
263.000 249.000 209.000 42 48 56
262.000 251.000 208.000 40 45 52
263.000 250.000 208.000 43 48 55
263.000 250.000 209.000 43 49 56
263.000 251.000 208.000 41 47 53
263.000 251.000 209.000 42 48 55
263.000 251.000 210.000 40 47 54
262.000 252.000 208.000 39 44 50
262.000 253.000 208.000 38 43 50
263.000 252.000 209.000 38 45 52
263.000 252.000 210.000 38 45 53
263.000 252.000 211.000 35 43 52
263.000 253.000 211.000 36 43 51
262.000 254.000 209.000 41 47 54
262.000 255.000 209.000 42 48 55
263.000 254.000 211.000 38 45 53
265.000 243.000 208.000 41 47 55
267.000 241.000 208.000 41 48 55
266.000 242.000 208.000 40 47 54
266.000 243.000 208.000 40 47 55
266.000 243.000 209.000 39 46 54
267.000 242.000 208.000 40 47 54
267.000 242.000 209.000 39 46 54
267.000 243.000 209.000 38 45 53
266.000 243.000 210.000 39 46 54
267.000 243.000 210.000 38 45 53
267.000 243.000 211.000 38 45 53
264.000 245.000 208.000 41 48 55
265.000 244.000 208.000 39 47 54
265.000 244.000 209.000 38 46 54
265.000 245.000 208.000 40 47 55
265.000 245.000 209.000 40 47 55
265.000 245.000 210.000 39 47 54
264.000 246.000 208.000 41 47 54
264.000 246.000 209.000 39 46 53
264.000 247.000 208.000 39 46 54
264.000 247.000 209.000 39 46 54
265.000 246.000 209.000 39 46 54
265.000 247.000 209.000 38 45 53
265.000 246.000 210.000 39 46 54
265.000 247.000 210.000 39 46 54
265.000 247.000 211.000 39 46 54
266.000 244.000 209.000 38 46 54
266.000 244.000 210.000 38 45 53
266.000 244.000 211.000 38 45 53
266.000 245.000 210.000 38 46 54
266.000 245.000 211.000 38 46 53
267.000 244.000 211.000 39 46 53
267.000 245.000 211.000 39 45 53
266.000 246.000 211.000 39 46 53
266.000 247.000 211.000 39 46 54
267.000 246.000 211.000 38 45 53
267.000 245.000 212.000 37 45 52
266.000 247.000 212.000 37 45 53
267.000 246.000 212.000 37 45 52
267.000 247.000 212.000 37 45 53
267.000 247.000 213.000 36 44 52
268.000 240.000 208.000 40 47 54
268.000 241.000 208.000 40 47 54
268.000 241.000 209.000 39 46 54
269.000 240.000 208.000 38 45 53
269.000 240.000 209.000 36 44 52
269.000 241.000 209.000 37 45 53
269.000 241.000 210.000 35 43 51
268.000 242.000 209.000 39 46 54
268.000 242.000 210.000 37 45 53
268.000 242.000 211.000 36 44 53
268.000 243.000 211.000 37 44 52
269.000 242.000 210.000 36 44 52
269.000 242.000 211.000 35 43 51
269.000 243.000 211.000 36 44 52
270.000 240.000 208.000 36 44 52
270.000 240.000 209.000 35 43 51
271.000 240.000 209.000 35 42 50
270.000 241.000 210.000 35 43 51
270.000 241.000 211.000 35 42 50
271.000 240.000 210.000 34 42 50
271.000 241.000 210.000 35 43 50
271.000 241.000 211.000 35 42 50
270.000 242.000 211.000 34 42 50
271.000 242.000 211.000 34 42 49
269.000 243.000 212.000 35 43 51
270.000 242.000 212.000 34 42 50
270.000 243.000 212.000 35 42 50
271.000 242.000 212.000 34 42 49
271.000 243.000 212.000 34 42 49
271.000 243.000 213.000 34 42 50
268.000 244.000 211.000 38 45 52
268.000 244.000 212.000 37 44 51
268.000 245.000 212.000 37 44 52
269.000 244.000 212.000 36 44 51
269.000 245.000 212.000 35 43 51
269.000 245.000 213.000 35 43 51
268.000 246.000 212.000 37 44 52
268.000 246.000 213.000 36 43 51
268.000 247.000 213.000 35 43 51
269.000 246.000 213.000 35 43 51
269.000 247.000 213.000 35 43 50
269.000 247.000 214.000 34 42 50
270.000 244.000 212.000 35 43 50
270.000 244.000 213.000 35 43 51
270.000 245.000 213.000 36 43 51
271.000 244.000 213.000 35 42 50
271.000 245.000 213.000 34 42 50
271.000 245.000 214.000 33 41 49
270.000 246.000 213.000 36 43 51
270.000 246.000 214.000 34 42 50
270.000 247.000 214.000 34 42 50
271.000 246.000 214.000 34 42 50
271.000 246.000 215.000 35 43 50
271.000 247.000 214.000 35 43 50
271.000 247.000 215.000 35 43 50
264.000 248.000 208.000 39 46 54
264.000 248.000 209.000 40 47 55
264.000 249.000 208.000 41 47 55
264.000 249.000 209.000 42 48 56
264.000 248.000 210.000 41 48 56
264.000 249.000 210.000 42 48 56
265.000 248.000 210.000 40 47 55
265.000 248.000 211.000 41 48 56
265.000 249.000 210.000 42 49 57
265.000 249.000 211.000 41 48 56
264.000 250.000 209.000 43 49 57
264.000 250.000 210.000 42 49 57
264.000 250.000 211.000 42 49 57
264.000 251.000 211.000 40 48 55
265.000 250.000 211.000 40 47 55
266.000 248.000 211.000 40 47 54
265.000 249.000 212.000 39 46 54
265.000 250.000 212.000 38 46 53
265.000 251.000 213.000 37 45 53
266.000 248.000 212.000 37 45 53
266.000 249.000 212.000 38 45 53
266.000 249.000 213.000 36 44 52
267.000 248.000 213.000 35 43 51
267.000 249.000 213.000 36 44 52
267.000 249.000 214.000 34 43 51
266.000 250.000 212.000 37 45 53
266.000 250.000 213.000 36 44 52
266.000 250.000 214.000 36 44 52
266.000 251.000 214.000 36 44 52
267.000 250.000 214.000 35 43 51
267.000 250.000 215.000 35 43 51
264.000 252.000 211.000 36 44 53
264.000 252.000 212.000 36 44 52
264.000 253.000 212.000 36 44 52
264.000 253.000 213.000 37 44 52
265.000 252.000 213.000 35 44 52
265.000 253.000 213.000 36 44 51
265.000 252.000 214.000 35 43 51
265.000 253.000 215.000 34 42 50
266.000 252.000 214.000 35 43 51
268.000 248.000 213.000 35 43 51
268.000 248.000 214.000 34 42 50
268.000 249.000 214.000 34 42 50
268.000 249.000 215.000 34 42 51
269.000 248.000 214.000 34 42 50
269.000 248.000 215.000 34 42 50
269.000 249.000 215.000 34 42 50
268.000 250.000 215.000 34 43 51
269.000 250.000 215.000 34 42 50
270.000 248.000 214.000 34 42 50
270.000 248.000 215.000 36 43 51
270.000 249.000 215.000 36 43 50
271.000 248.000 215.000 36 43 51
268.000 251.000 216.000 35 43 51
269.000 250.000 216.000 35 42 50
269.000 251.000 216.000 35 42 50
269.000 251.000 217.000 34 42 49
270.000 249.000 216.000 37 44 51
271.000 248.000 216.000 36 43 51
271.000 249.000 216.000 37 44 52
271.000 249.000 217.000 37 44 52
271.000 249.000 218.000 36 44 51
271.000 249.000 219.000 36 43 51
270.000 250.000 216.000 37 44 51
270.000 250.000 217.000 37 44 51
270.000 251.000 217.000 35 43 50
271.000 250.000 217.000 36 44 51
270.000 250.000 218.000 36 44 51
270.000 251.000 218.000 35 42 50
270.000 251.000 219.000 35 43 50
271.000 250.000 218.000 36 43 51
271.000 250.000 219.000 37 44 52
271.000 251.000 219.000 36 44 51
271.000 249.000 220.000 35 43 51
271.000 250.000 220.000 36 44 52
271.000 251.000 220.000 36 43 51
269.000 252.000 217.000 35 42 50
269.000 253.000 217.000 34 42 50
269.000 252.000 218.000 34 42 50
270.000 252.000 218.000 34 42 50
270.000 252.000 219.000 34 42 50
272.000 224.000 207.000 38 46 54
272.000 225.000 206.000 40 47 55
272.000 225.000 207.000 39 47 55
273.000 224.000 207.000 39 46 55
273.000 225.000 207.000 38 47 55
272.000 226.000 206.000 42 49 58
272.000 226.000 207.000 41 49 57
272.000 227.000 206.000 41 49 58
273.000 226.000 207.000 39 47 56
273.000 227.000 207.000 38 47 56
274.000 226.000 207.000 37 46 55
274.000 227.000 207.000 37 46 55
272.000 229.000 205.000 39 47 56
272.000 228.000 206.000 39 47 56
272.000 229.000 206.000 38 47 55
273.000 228.000 207.000 38 46 55
273.000 229.000 207.000 38 46 55
272.000 230.000 205.000 40 48 56
272.000 230.000 206.000 40 47 56
272.000 231.000 206.000 40 47 55
273.000 230.000 207.000 39 47 55
273.000 231.000 207.000 39 47 55
274.000 228.000 207.000 38 47 56
274.000 229.000 207.000 39 47 55
274.000 230.000 207.000 38 46 55
274.000 231.000 207.000 38 46 55
272.000 232.000 206.000 38 46 54
272.000 232.000 207.000 39 46 55
272.000 233.000 206.000 38 45 53
272.000 233.000 207.000 38 46 54
273.000 232.000 207.000 38 46 54
273.000 233.000 207.000 38 46 54
272.000 234.000 207.000 37 45 53
273.000 224.000 208.000 38 46 54
273.000 225.000 208.000 38 46 55
274.000 224.000 208.000 39 46 55
274.000 225.000 208.000 39 47 55
275.000 224.000 208.000 38 46 55
275.000 224.000 209.000 38 46 55
275.000 225.000 208.000 38 47 55
274.000 226.000 208.000 37 46 55
274.000 227.000 208.000 38 46 55
275.000 226.000 208.000 38 46 55
275.000 227.000 208.000 39 47 56
275.000 228.000 208.000 39 47 56
275.000 229.000 208.000 40 48 56
274.000 230.000 208.000 39 47 55
274.000 231.000 208.000 38 46 55
275.000 230.000 208.000 39 47 55
275.000 231.000 208.000 38 46 55
275.000 231.000 209.000 38 46 55
276.000 224.000 209.000 39 47 55
276.000 225.000 208.000 38 47 56
276.000 225.000 209.000 39 47 56
277.000 224.000 209.000 38 46 55
277.000 225.000 209.000 39 47 56
276.000 226.000 208.000 39 48 57
276.000 226.000 209.000 39 48 57
276.000 227.000 208.000 40 48 57
277.000 226.000 209.000 40 48 57
277.000 227.000 209.000 40 49 58
278.000 224.000 209.000 39 47 55
278.000 225.000 209.000 39 47 56
279.000 224.000 210.000 38 46 55
279.000 225.000 210.000 38 46 55
278.000 226.000 209.000 39 47 57
278.000 227.000 209.000 42 50 59
278.000 226.000 210.000 39 48 57
278.000 227.000 210.000 40 49 58
279.000 226.000 210.000 38 47 56
279.000 227.000 210.000 40 48 57
276.000 228.000 208.000 40 48 57
276.000 228.000 209.000 41 49 57
276.000 229.000 208.000 41 48 57
276.000 229.000 209.000 40 48 57
277.000 228.000 209.000 41 49 58
277.000 229.000 209.000 40 48 57
276.000 230.000 208.000 39 47 56
276.000 230.000 209.000 38 47 55
276.000 231.000 209.000 38 47 55
277.000 230.000 209.000 38 47 56
277.000 231.000 209.000 39 47 56
276.000 231.000 210.000 38 47 55
277.000 230.000 210.000 39 47 56
277.000 231.000 210.000 39 47 56
277.000 231.000 211.000 39 47 56
278.000 228.000 209.000 41 50 58
278.000 229.000 209.000 39 48 57
278.000 228.000 210.000 41 49 58
278.000 229.000 210.000 40 48 57
279.000 228.000 210.000 41 49 57
279.000 228.000 211.000 40 48 56
279.000 229.000 211.000 40 48 56
278.000 230.000 210.000 40 48 57
278.000 230.000 211.000 41 48 56
278.000 231.000 210.000 40 48 57
278.000 231.000 211.000 40 48 56
279.000 230.000 211.000 40 47 55
279.000 231.000 211.000 40 48 56
278.000 231.000 212.000 38 46 54
279.000 230.000 212.000 39 46 54
279.000 231.000 212.000 39 46 54
279.000 231.000 213.000 38 46 54
273.000 232.000 208.000 37 45 54
273.000 233.000 208.000 37 45 54
272.000 234.000 208.000 37 45 53
272.000 235.000 208.000 37 44 53
272.000 235.000 209.000 36 44 52
273.000 234.000 208.000 38 45 53
273.000 234.000 209.000 37 45 53
273.000 235.000 209.000 37 44 52
274.000 232.000 208.000 37 45 54
274.000 233.000 208.000 37 45 54
274.000 233.000 209.000 37 45 54
275.000 232.000 209.000 38 46 55
275.000 233.000 209.000 38 46 55
274.000 233.000 210.000 38 46 54
275.000 232.000 210.000 39 47 56
275.000 233.000 210.000 38 46 55
274.000 234.000 209.000 37 45 53
274.000 234.000 210.000 36 44 52
274.000 235.000 210.000 34 43 52
274.000 235.000 211.000 34 43 52
275.000 234.000 210.000 37 45 53
275.000 234.000 211.000 36 44 53
275.000 235.000 211.000 35 43 52
275.000 235.000 212.000 34 43 52
272.000 236.000 208.000 36 44 52
272.000 236.000 209.000 36 44 52
272.000 237.000 209.000 35 43 51
273.000 236.000 209.000 37 44 52
273.000 236.000 210.000 35 44 52
273.000 237.000 210.000 35 43 51
273.000 237.000 211.000 34 42 50
272.000 238.000 209.000 34 42 50
272.000 238.000 210.000 34 42 51
272.000 239.000 210.000 35 42 50
273.000 238.000 210.000 34 42 51
273.000 238.000 211.000 34 42 50
273.000 239.000 211.000 34 42 50
274.000 236.000 210.000 34 43 51
274.000 236.000 211.000 34 43 51
274.000 237.000 211.000 34 42 51
274.000 238.000 211.000 34 42 50
274.000 239.000 211.000 34 42 50
274.000 237.000 212.000 34 42 51
275.000 236.000 212.000 35 43 52
275.000 237.000 212.000 35 43 51
275.000 237.000 213.000 34 43 51
275.000 237.000 214.000 35 43 51
274.000 238.000 212.000 34 42 50
274.000 238.000 213.000 34 42 50
274.000 239.000 212.000 34 42 50
274.000 239.000 213.000 34 42 51
275.000 238.000 213.000 34 42 51
275.000 238.000 214.000 35 43 51
275.000 238.000 215.000 36 43 51
275.000 239.000 214.000 36 43 51
275.000 239.000 215.000 36 44 51
276.000 232.000 210.000 39 47 56
276.000 233.000 210.000 38 46 55
276.000 233.000 211.000 37 45 53
277.000 232.000 210.000 39 47 56
277.000 232.000 211.000 38 46 55
277.000 233.000 211.000 37 45 53
276.000 234.000 211.000 35 44 52
278.000 232.000 211.000 38 46 54
277.000 233.000 212.000 37 45 53
276.000 234.000 212.000 36 44 52
276.000 235.000 212.000 35 44 52
276.000 235.000 213.000 36 44 52
277.000 234.000 212.000 37 45 53
277.000 234.000 213.000 37 44 52
277.000 235.000 213.000 37 45 53
277.000 234.000 214.000 36 44 52
277.000 235.000 214.000 35 43 51
277.000 235.000 215.000 34 42 50
278.000 232.000 212.000 38 46 54
278.000 233.000 212.000 37 45 53
278.000 233.000 213.000 36 44 52
279.000 232.000 212.000 38 45 53
279.000 232.000 213.000 36 44 53
279.000 233.000 213.000 35 43 51
278.000 233.000 214.000 36 43 51
279.000 232.000 214.000 35 44 52
279.000 232.000 215.000 35 43 52
279.000 233.000 214.000 34 43 51
279.000 233.000 215.000 34 42 51
278.000 234.000 213.000 36 44 52
278.000 234.000 214.000 36 43 51
278.000 234.000 215.000 34 42 51
278.000 235.000 215.000 33 41 50
276.000 236.000 212.000 34 43 51
276.000 236.000 213.000 35 44 52
276.000 236.000 214.000 36 43 51
276.000 237.000 214.000 36 43 51
276.000 237.000 215.000 36 43 51
277.000 236.000 214.000 35 42 50
277.000 236.000 215.000 34 42 50
276.000 238.000 215.000 35 43 50
275.000 239.000 216.000 36 43 51
279.000 233.000 216.000 34 42 50
279.000 233.000 217.000 34 42 50
278.000 234.000 216.000 34 42 50
278.000 235.000 216.000 34 42 50
278.000 235.000 217.000 36 43 50
279.000 234.000 216.000 34 42 50
279.000 234.000 217.000 35 43 50
279.000 235.000 217.000 36 43 51
277.000 236.000 216.000 34 42 50
277.000 237.000 216.000 36 43 51
277.000 237.000 217.000 36 43 51
276.000 238.000 216.000 35 43 51
276.000 239.000 216.000 36 43 51
276.000 239.000 217.000 35 43 51
277.000 238.000 216.000 35 43 50
277.000 238.000 217.000 35 43 50
277.000 239.000 217.000 35 42 50
277.000 238.000 218.000 37 44 51
277.000 239.000 218.000 36 43 51
277.000 239.000 219.000 37 44 51
278.000 236.000 216.000 34 42 50
278.000 236.000 217.000 37 44 51
278.000 237.000 217.000 37 44 51
278.000 236.000 218.000 38 44 51
278.000 237.000 218.000 38 45 52
278.000 238.000 218.000 37 44 51
277.000 239.000 220.000 37 44 51
280.000 224.000 210.000 38 46 55
280.000 225.000 210.000 38 47 55
280.000 225.000 211.000 39 47 55
281.000 224.000 211.000 40 47 55
281.000 225.000 211.000 40 47 56
280.000 226.000 210.000 38 47 56
280.000 226.000 211.000 39 47 56
280.000 227.000 211.000 39 48 56
281.000 226.000 211.000 39 47 56
282.000 224.000 211.000 40 48 56
280.000 227.000 212.000 40 48 57
281.000 226.000 212.000 38 47 56
281.000 227.000 212.000 39 48 57
281.000 227.000 213.000 38 47 56
282.000 225.000 212.000 39 47 56
282.000 226.000 212.000 38 47 56
282.000 226.000 213.000 39 47 56
282.000 227.000 213.000 39 47 56
282.000 227.000 214.000 39 47 55
280.000 228.000 211.000 40 48 56
280.000 228.000 212.000 40 48 56
280.000 228.000 213.000 39 47 56
280.000 229.000 212.000 39 47 56
280.000 229.000 213.000 38 46 55
281.000 228.000 213.000 38 47 56
281.000 229.000 213.000 37 46 56
281.000 228.000 214.000 38 46 55
281.000 228.000 215.000 38 46 54
281.000 229.000 214.000 37 46 55
280.000 230.000 212.000 38 46 55
280.000 230.000 213.000 37 46 55
280.000 231.000 213.000 37 45 54
280.000 230.000 214.000 37 45 54
280.000 230.000 215.000 37 45 53
280.000 231.000 214.000 36 45 53
280.000 231.000 215.000 36 44 52
281.000 230.000 214.000 37 46 55
280.000 231.000 216.000 35 43 51
280.000 232.000 214.000 36 44 53
280.000 232.000 215.000 35 43 52
280.000 232.000 216.000 35 42 50
272.000 240.000 210.000 34 42 50
272.000 240.000 211.000 34 42 50
272.000 241.000 211.000 35 42 50
273.000 240.000 211.000 35 42 50
272.000 241.000 212.000 34 42 50
273.000 240.000 212.000 34 42 50
273.000 241.000 212.000 35 42 50
273.000 241.000 213.000 34 42 50
273.000 241.000 214.000 34 42 51
272.000 242.000 212.000 34 42 49
272.000 242.000 213.000 34 42 49
272.000 243.000 213.000 34 42 50
273.000 242.000 213.000 34 42 50
272.000 243.000 214.000 33 41 50
273.000 242.000 214.000 34 42 50
273.000 242.000 215.000 33 42 50
273.000 243.000 214.000 33 42 50
273.000 243.000 215.000 33 42 51
274.000 240.000 212.000 34 42 50
274.000 240.000 213.000 34 42 50
274.000 241.000 213.000 34 42 51
274.000 240.000 214.000 35 43 51
274.000 241.000 214.000 34 42 51
274.000 241.000 215.000 34 42 50
275.000 240.000 214.000 36 43 51
275.000 240.000 215.000 36 43 51
275.000 241.000 215.000 35 43 51
274.000 242.000 214.000 33 42 51
274.000 242.000 215.000 33 42 50
272.000 244.000 213.000 34 42 50
272.000 244.000 214.000 33 41 50
272.000 245.000 214.000 33 41 49
272.000 245.000 215.000 34 42 50
273.000 244.000 214.000 33 42 50
273.000 244.000 215.000 34 43 51
273.000 245.000 215.000 35 43 51
272.000 246.000 214.000 33 42 50
272.000 246.000 215.000 35 43 51
272.000 247.000 215.000 36 43 51
273.000 243.000 216.000 34 43 52
274.000 241.000 216.000 35 43 51
275.000 240.000 216.000 36 43 51
275.000 240.000 217.000 35 43 51
275.000 241.000 216.000 36 43 51
275.000 241.000 217.000 36 43 51
275.000 241.000 218.000 35 44 52
274.000 242.000 216.000 35 43 51
274.000 242.000 217.000 36 43 51
274.000 243.000 216.000 35 44 52
274.000 243.000 217.000 36 43 52
274.000 242.000 218.000 36 44 51
274.000 243.000 218.000 36 44 51
274.000 243.000 219.000 36 44 52
275.000 242.000 218.000 36 44 51
275.000 242.000 219.000 36 44 52
275.000 243.000 219.000 36 44 52
275.000 243.000 220.000 36 44 52
272.000 245.000 216.000 37 44 52
273.000 244.000 216.000 36 44 52
273.000 244.000 217.000 36 44 52
273.000 245.000 216.000 37 44 52
273.000 245.000 217.000 37 45 53
273.000 244.000 218.000 36 44 52
273.000 245.000 218.000 37 44 52
273.000 245.000 219.000 36 44 52
272.000 246.000 216.000 37 44 52
272.000 246.000 217.000 37 44 52
272.000 247.000 216.000 36 44 51
272.000 247.000 217.000 37 44 52
273.000 246.000 217.000 37 45 52
272.000 247.000 218.000 36 44 52
272.000 247.000 219.000 38 45 53
273.000 246.000 218.000 37 44 52
273.000 246.000 219.000 37 44 52
274.000 244.000 218.000 35 43 51
274.000 244.000 219.000 35 44 52
274.000 245.000 219.000 35 44 52
272.000 247.000 220.000 37 45 53
273.000 246.000 220.000 36 44 52
273.000 246.000 221.000 37 45 52
273.000 247.000 220.000 37 45 52
273.000 247.000 221.000 37 44 52
273.000 247.000 222.000 37 45 52
274.000 244.000 220.000 35 44 52
274.000 245.000 220.000 36 44 52
274.000 245.000 221.000 36 44 52
275.000 244.000 220.000 35 43 52
275.000 244.000 221.000 37 44 52
275.000 245.000 221.000 36 44 52
275.000 245.000 222.000 37 45 53
274.000 246.000 221.000 37 45 53
274.000 246.000 222.000 38 46 54
274.000 246.000 223.000 39 46 54
274.000 247.000 222.000 38 45 53
274.000 247.000 223.000 38 46 54
276.000 240.000 217.000 35 43 51
276.000 240.000 218.000 35 43 51
276.000 241.000 218.000 35 43 52
276.000 241.000 219.000 36 44 52
277.000 240.000 218.000 35 43 51
277.000 240.000 219.000 37 44 52
276.000 242.000 219.000 36 44 52
276.000 241.000 220.000 37 44 52
276.000 242.000 220.000 37 44 52
272.000 248.000 217.000 36 43 51
272.000 248.000 218.000 35 43 51
272.000 248.000 219.000 35 43 51
272.000 249.000 219.000 35 43 51
272.000 248.000 220.000 37 44 52
272.000 248.000 221.000 38 45 52
272.000 249.000 220.000 36 43 51
272.000 249.000 221.000 37 44 52
272.000 248.000 222.000 38 45 52
272.000 248.000 223.000 38 45 53
272.000 249.000 222.000 38 45 52
273.000 248.000 222.000 37 45 52
273.000 248.000 223.000 37 45 52
273.000 249.000 223.000 38 45 53
272.000 250.000 223.000 37 44 52
273.000 249.000 224.000 39 46 54
272.000 250.000 224.000 38 45 53
272.000 250.000 225.000 38 46 54
260.000 256.000 202.000 41 48 55
260.000 256.000 203.000 42 49 57
260.000 257.000 203.000 40 47 55
260.000 256.000 204.000 43 50 57
260.000 257.000 204.000 43 49 56
