ply
format ascii 1.0
element vertex 1277
property float x
property float y
property float z
property uchar red
property uchar green
property uchar blue
end_header
117.000 827.000 207.000 130 138 153
118.000 827.000 207.000 133 141 156
118.000 828.000 207.000 133 142 157
119.000 828.000 206.000 133 142 158
119.000 828.000 207.000 132 140 156
119.000 829.000 206.000 132 141 156
119.000 829.000 207.000 131 139 154
119.000 830.000 207.000 136 142 156
121.000 829.000 202.000 141 150 165
121.000 829.000 203.000 140 149 164
122.000 829.000 202.000 137 146 161
122.000 830.000 202.000 133 141 156
122.000 831.000 203.000 128 136 151
123.000 831.000 202.000 127 135 149
123.000 831.000 203.000 128 136 151
120.000 828.000 205.000 137 146 162
120.000 829.000 204.000 136 145 161
120.000 829.000 205.000 136 146 161
121.000 829.000 204.000 134 144 160
120.000 829.000 206.000 135 143 158
120.000 830.000 205.000 132 141 156
121.000 830.000 204.000 130 140 156
121.000 830.000 205.000 129 139 155
121.000 831.000 205.000 125 134 150
120.000 830.000 206.000 138 145 160
120.000 830.000 207.000 138 144 158
120.000 831.000 206.000 133 141 155
120.000 831.000 207.000 127 135 149
121.000 831.000 206.000 127 135 150
122.000 831.000 205.000 127 136 152
118.000 828.000 208.000 130 138 154
118.000 829.000 208.000 129 136 151
118.000 829.000 209.000 125 132 147
119.000 829.000 208.000 132 139 154
118.000 830.000 208.000 124 131 146
118.000 830.000 209.000 121 129 144
119.000 830.000 208.000 129 136 150
119.000 830.000 209.000 124 131 146
119.000 831.000 208.000 126 132 146
119.000 831.000 209.000 123 130 144
118.000 830.000 210.000 120 129 143
118.000 831.000 210.000 123 130 145
118.000 831.000 211.000 123 131 146
119.000 831.000 210.000 122 129 143
120.000 831.000 208.000 125 132 145
123.000 832.000 203.000 129 137 152
123.000 833.000 203.000 131 138 153
121.000 832.000 205.000 123 132 147
120.000 832.000 207.000 119 127 142
121.000 832.000 206.000 122 130 146
121.000 832.000 207.000 120 127 142
121.000 833.000 206.000 122 129 145
121.000 833.000 207.000 119 127 142
122.000 832.000 204.000 129 138 153
122.000 832.000 205.000 127 135 151
122.000 833.000 205.000 126 134 149
123.000 832.000 204.000 132 140 155
123.000 833.000 204.000 130 138 152
123.000 833.000 205.000 127 134 149
122.000 833.000 206.000 122 131 146
123.000 834.000 204.000 130 137 151
123.000 834.000 205.000 131 138 153
123.000 835.000 205.000 135 142 155
122.000 834.000 206.000 124 133 147
122.000 834.000 207.000 123 131 145
122.000 835.000 207.000 129 136 151
123.000 834.000 206.000 131 139 153
123.000 835.000 206.000 133 140 154
123.000 835.000 207.000 131 138 152
123.000 836.000 206.000 132 139 153
123.000 836.000 207.000 131 138 152
124.000 832.000 202.000 127 134 149
124.000 833.000 202.000 127 135 149
124.000 833.000 203.000 129 136 150
124.000 834.000 203.000 128 137 152
125.000 834.000 202.000 126 135 150
125.000 834.000 203.000 128 137 152
125.000 835.000 202.000 128 137 153
125.000 835.000 203.000 133 142 157
124.000 834.000 204.000 130 138 152
124.000 835.000 204.000 133 141 154
124.000 835.000 205.000 134 141 155
125.000 835.000 204.000 136 144 158
125.000 836.000 203.000 134 143 158
126.000 836.000 201.000 130 138 153
127.000 837.000 201.000 131 138 153
126.000 836.000 202.000 129 138 153
126.000 836.000 203.000 131 139 154
126.000 837.000 202.000 130 137 152
126.000 837.000 203.000 129 137 151
127.000 837.000 202.000 131 138 153
127.000 838.000 202.000 128 135 150
127.000 838.000 203.000 129 137 152
127.000 839.000 203.000 127 136 151
124.000 836.000 205.000 135 142 156
124.000 837.000 205.000 131 139 153
125.000 836.000 204.000 137 144 159
125.000 836.000 205.000 137 144 158
125.000 837.000 204.000 130 138 153
125.000 837.000 205.000 129 137 152
124.000 836.000 206.000 133 140 154
124.000 837.000 206.000 131 138 152
124.000 837.000 207.000 129 136 151
125.000 837.000 206.000 128 136 150
125.000 838.000 205.000 129 137 153
124.000 838.000 207.000 130 138 153
125.000 838.000 206.000 130 138 153
125.000 838.000 207.000 131 139 154
125.000 839.000 207.000 132 140 155
126.000 837.000 204.000 128 137 151
126.000 837.000 205.000 128 136 151
126.000 838.000 204.000 130 139 154
126.000 838.000 205.000 131 139 154
126.000 839.000 205.000 133 141 156
127.000 838.000 204.000 131 139 154
127.000 839.000 204.000 129 137 153
127.000 839.000 205.000 132 140 156
126.000 839.000 206.000 136 143 158
126.000 839.000 207.000 133 142 157
127.000 840.000 204.000 128 136 152
127.000 840.000 205.000 130 138 153
127.000 841.000 205.000 125 132 148
126.000 840.000 206.000 135 143 157
126.000 840.000 207.000 134 141 156
127.000 840.000 206.000 131 139 154
127.000 841.000 206.000 126 133 149
127.000 841.000 207.000 127 134 150
119.000 832.000 209.000 123 130 144
119.000 832.000 210.000 124 131 145
119.000 832.000 211.000 127 134 148
119.000 833.000 210.000 127 135 149
119.000 833.000 211.000 130 138 153
118.000 832.000 212.000 130 138 152
118.000 832.000 213.000 134 141 156
118.000 833.000 213.000 137 144 159
119.000 832.000 212.000 132 139 154
119.000 833.000 212.000 137 144 159
119.000 833.000 213.000 140 148 162
118.000 833.000 214.000 137 145 160
118.000 833.000 215.000 137 144 159
119.000 833.000 214.000 141 149 165
119.000 834.000 212.000 141 150 165
119.000 834.000 213.000 148 157 174
118.000 834.000 215.000 144 153 169
119.000 834.000 214.000 149 159 176
119.000 834.000 215.000 147 157 173
119.000 835.000 214.000 154 164 181
119.000 835.000 215.000 152 162 179
118.000 833.000 216.000 133 141 156
118.000 834.000 216.000 140 149 164
118.000 834.000 217.000 137 145 160
119.000 834.000 216.000 143 152 167
119.000 834.000 217.000 138 146 161
119.000 835.000 216.000 144 152 168
119.000 835.000 217.000 137 144 159
118.000 834.000 218.000 136 144 159
118.000 834.000 219.000 135 143 159
118.000 835.000 218.000 135 144 159
118.000 835.000 219.000 136 144 160
119.000 835.000 218.000 135 143 158
119.000 835.000 219.000 137 145 161
118.000 835.000 220.000 140 149 165
118.000 835.000 221.000 147 155 171
118.000 835.000 222.000 147 155 171
119.000 836.000 216.000 139 147 162
119.000 836.000 217.000 136 143 158
119.000 836.000 218.000 137 144 158
119.000 836.000 219.000 140 148 163
119.000 837.000 219.000 139 147 161
118.000 836.000 220.000 147 156 172
118.000 836.000 221.000 150 158 174
119.000 836.000 220.000 143 152 168
119.000 836.000 221.000 144 153 170
119.000 837.000 220.000 134 143 161
119.000 837.000 221.000 134 143 161
118.000 836.000 222.000 142 151 167
118.000 836.000 223.000 138 147 165
118.000 837.000 223.000 139 149 166
119.000 837.000 222.000 135 143 161
119.000 837.000 223.000 137 146 163
119.000 838.000 221.000 134 141 159
119.000 838.000 222.000 137 144 162
119.000 838.000 223.000 138 147 164
120.000 832.000 208.000 120 127 141
120.000 832.000 209.000 123 130 144
120.000 833.000 208.000 122 130 143
120.000 833.000 209.000 125 132 146
121.000 833.000 208.000 122 129 143
121.000 833.000 209.000 126 133 147
120.000 833.000 210.000 127 135 150
120.000 833.000 211.000 130 138 153
121.000 834.000 208.000 121 129 143
121.000 834.000 209.000 125 133 147
121.000 835.000 209.000 127 134 148
120.000 834.000 210.000 132 140 155
120.000 834.000 211.000 135 143 158
121.000 834.000 210.000 131 139 153
121.000 835.000 210.000 132 140 154
121.000 835.000 211.000 136 144 160
122.000 834.000 208.000 122 130 144
122.000 835.000 208.000 126 134 148
122.000 835.000 209.000 126 134 148
120.000 834.000 212.000 139 148 164
120.000 834.000 213.000 147 157 174
120.000 835.000 212.000 146 155 170
120.000 835.000 213.000 151 161 178
121.000 835.000 212.000 144 153 168
120.000 835.000 214.000 154 164 182
120.000 835.000 215.000 154 163 180
121.000 836.000 210.000 133 141 156
121.000 836.000 211.000 138 146 161
122.000 836.000 208.000 126 134 148
122.000 836.000 209.000 128 135 149
122.000 837.000 209.000 127 135 150
123.000 836.000 208.000 129 136 150
123.000 836.000 209.000 127 135 149
123.000 837.000 208.000 128 136 150
123.000 837.000 209.000 128 136 150
122.000 836.000 210.000 131 139 154
122.000 836.000 211.000 134 142 158
122.000 837.000 210.000 128 136 152
122.000 837.000 211.000 131 140 155
123.000 837.000 210.000 127 136 151
123.000 838.000 209.000 131 140 155
123.000 838.000 210.000 131 139 155
123.000 838.000 211.000 129 138 153
123.000 839.000 211.000 134 142 157
120.000 836.000 213.000 152 162 179
121.000 836.000 212.000 143 151 167
121.000 836.000 213.000 145 154 172
121.000 837.000 212.000 137 146 162
121.000 837.000 213.000 136 145 162
120.000 836.000 214.000 153 162 179
120.000 836.000 215.000 149 158 175
120.000 837.000 215.000 137 146 163
121.000 837.000 214.000 138 147 164
121.000 837.000 215.000 133 142 158
121.000 838.000 214.000 133 141 157
121.000 838.000 215.000 132 141 156
122.000 837.000 212.000 134 142 158
122.000 837.000 213.000 134 142 158
122.000 838.000 212.000 129 138 153
122.000 838.000 213.000 132 140 155
122.000 839.000 213.000 131 139 154
123.000 838.000 212.000 131 139 154
123.000 839.000 212.000 134 141 156
123.000 839.000 213.000 131 139 154
122.000 838.000 214.000 133 141 157
122.000 838.000 215.000 133 141 157
122.000 839.000 214.000 131 140 155
122.000 839.000 215.000 131 140 155
124.000 837.000 208.000 127 135 149
124.000 838.000 208.000 130 138 153
124.000 838.000 209.000 134 142 157
124.000 839.000 209.000 138 147 162
125.000 838.000 208.000 132 140 155
125.000 839.000 208.000 133 142 157
125.000 839.000 209.000 135 144 159
124.000 838.000 210.000 137 145 160
124.000 839.000 210.000 138 146 161
124.000 839.000 211.000 135 142 158
120.000 836.000 216.000 142 151 167
120.000 836.000 217.000 135 143 157
120.000 837.000 216.000 132 140 156
120.000 837.000 217.000 133 141 156
121.000 837.000 216.000 132 141 156
120.000 837.000 218.000 135 143 157
120.000 837.000 219.000 135 143 159
120.000 838.000 217.000 132 140 155
121.000 838.000 216.000 131 140 155
121.000 838.000 217.000 131 139 154
121.000 839.000 216.000 132 140 155
121.000 839.000 217.000 132 140 155
120.000 838.000 218.000 134 142 157
120.000 838.000 219.000 134 143 158
121.000 838.000 218.000 133 141 156
121.000 839.000 218.000 134 142 157
121.000 839.000 219.000 137 144 159
122.000 839.000 216.000 132 140 155
120.000 837.000 220.000 131 141 157
120.000 838.000 220.000 133 142 158
120.000 838.000 221.000 135 143 160
120.000 839.000 220.000 137 145 161
120.000 839.000 221.000 138 146 162
121.000 839.000 220.000 138 146 161
121.000 839.000 221.000 138 146 162
120.000 838.000 222.000 138 145 162
120.000 838.000 223.000 138 145 163
120.000 839.000 222.000 138 147 162
120.000 839.000 223.000 137 145 163
123.000 840.000 213.000 132 140 155
122.000 840.000 215.000 132 140 156
123.000 840.000 214.000 131 140 155
123.000 840.000 215.000 134 143 159
123.000 841.000 214.000 135 144 159
123.000 841.000 215.000 137 146 163
125.000 840.000 208.000 132 140 156
125.000 840.000 209.000 134 143 159
125.000 841.000 209.000 138 146 162
124.000 840.000 210.000 133 141 157
124.000 840.000 211.000 133 141 156
125.000 840.000 210.000 134 142 158
125.000 840.000 211.000 134 142 157
125.000 841.000 210.000 140 147 163
125.000 841.000 211.000 140 148 163
126.000 840.000 208.000 134 141 156
126.000 840.000 209.000 135 143 158
126.000 841.000 208.000 133 141 156
126.000 841.000 209.000 136 144 159
127.000 841.000 208.000 127 135 150
127.000 841.000 209.000 131 139 155
126.000 841.000 210.000 140 147 163
126.000 841.000 211.000 143 151 166
127.000 842.000 208.000 124 132 148
127.000 842.000 209.000 133 140 156
127.000 843.000 209.000 131 139 156
126.000 842.000 210.000 141 148 163
126.000 842.000 211.000 142 150 166
126.000 843.000 211.000 135 144 161
127.000 842.000 210.000 138 146 161
127.000 843.000 210.000 133 141 158
127.000 843.000 211.000 133 142 158
124.000 840.000 212.000 134 142 157
124.000 840.000 213.000 133 141 157
124.000 841.000 212.000 137 145 161
124.000 841.000 213.000 136 145 161
125.000 841.000 212.000 141 149 165
125.000 841.000 213.000 139 148 164
124.000 841.000 214.000 138 147 163
124.000 841.000 215.000 141 151 167
125.000 842.000 212.000 141 150 166
125.000 842.000 213.000 140 149 165
125.000 843.000 213.000 140 148 165
124.000 842.000 214.000 139 148 165
124.000 842.000 215.000 140 150 166
125.000 842.000 214.000 139 147 164
125.000 843.000 214.000 140 149 165
125.000 843.000 215.000 140 150 167
126.000 842.000 212.000 141 150 166
126.000 843.000 212.000 138 147 165
126.000 843.000 213.000 140 150 166
127.000 843.000 212.000 134 143 161
126.000 843.000 214.000 142 150 167
127.000 844.000 211.000 129 138 157
125.000 844.000 215.000 146 155 171
126.000 844.000 213.000 141 150 168
127.000 844.000 212.000 132 141 160
127.000 844.000 213.000 135 144 164
127.000 845.000 213.000 137 146 165
126.000 844.000 214.000 145 154 170
126.000 844.000 215.000 148 157 174
126.000 845.000 215.000 140 149 166
127.000 844.000 214.000 137 146 165
127.000 845.000 214.000 134 143 161
127.000 845.000 215.000 131 141 158
127.000 846.000 215.000 134 142 160
121.000 840.000 218.000 138 147 163
121.000 840.000 219.000 141 149 165
122.000 840.000 216.000 135 144 160
122.000 840.000 217.000 138 148 163
122.000 841.000 216.000 140 149 166
122.000 841.000 217.000 142 153 170
123.000 841.000 216.000 141 151 167
123.000 841.000 217.000 146 157 174
122.000 840.000 218.000 142 151 168
122.000 840.000 219.000 142 151 167
122.000 841.000 218.000 145 156 173
122.000 841.000 219.000 143 152 169
123.000 841.000 218.000 149 160 178
123.000 842.000 216.000 148 158 174
123.000 842.000 217.000 149 159 177
122.000 842.000 219.000 143 152 169
123.000 842.000 218.000 149 159 177
123.000 842.000 219.000 146 155 172
123.000 843.000 218.000 147 157 174
123.000 843.000 219.000 144 154 171
121.000 840.000 220.000 141 149 164
121.000 840.000 221.000 138 146 162
121.000 841.000 220.000 139 147 162
121.000 841.000 221.000 137 145 161
120.000 840.000 223.000 137 147 163
121.000 840.000 222.000 136 145 161
121.000 841.000 222.000 136 145 161
122.000 841.000 220.000 141 149 164
122.000 841.000 221.000 138 147 162
122.000 841.000 222.000 140 148 164
122.000 842.000 220.000 141 150 166
122.000 842.000 221.000 141 150 166
123.000 842.000 220.000 142 151 167
123.000 843.000 220.000 141 150 168
123.000 843.000 221.000 140 149 166
122.000 842.000 222.000 142 151 167
122.000 843.000 222.000 140 149 165
123.000 843.000 222.000 139 149 165
123.000 843.000 223.000 139 148 165
123.000 844.000 220.000 142 151 168
123.000 844.000 221.000 141 150 167
123.000 844.000 222.000 140 149 166
124.000 842.000 216.000 144 154 171
124.000 843.000 216.000 142 151 169
124.000 843.000 217.000 144 154 172
125.000 843.000 216.000 142 151 168
124.000 843.000 218.000 145 155 173
124.000 843.000 219.000 145 155 173
124.000 844.000 217.000 145 156 174
125.000 844.000 216.000 148 157 174
125.000 844.000 217.000 147 157 174
124.000 844.000 218.000 145 155 173
124.000 844.000 219.000 145 155 172
125.000 844.000 218.000 146 155 172
125.000 844.000 219.000 145 155 171
125.000 845.000 218.000 145 154 170
125.000 845.000 219.000 144 153 169
126.000 844.000 216.000 150 159 176
126.000 845.000 216.000 143 151 168
126.000 845.000 217.000 144 152 168
127.000 845.000 216.000 137 145 163
126.000 845.000 218.000 143 150 167
126.000 845.000 219.000 143 151 167
126.000 846.000 217.000 135 142 159
127.000 846.000 216.000 132 140 157
127.000 846.000 217.000 131 138 155
127.000 847.000 217.000 134 142 158
126.000 846.000 218.000 137 144 161
126.000 846.000 219.000 139 145 161
126.000 847.000 219.000 134 140 157
127.000 846.000 218.000 131 137 154
127.000 847.000 218.000 131 139 156
127.000 847.000 219.000 131 138 156
124.000 844.000 220.000 145 154 171
124.000 844.000 221.000 143 152 169
124.000 845.000 220.000 147 155 171
124.000 845.000 221.000 144 153 170
125.000 845.000 220.000 145 154 169
125.000 845.000 221.000 145 153 169
124.000 845.000 222.000 142 151 168
125.000 846.000 220.000 143 151 166
125.000 846.000 221.000 144 152 167
124.000 846.000 223.000 146 154 170
125.000 846.000 222.000 145 153 168
125.000 846.000 223.000 146 154 170
125.000 847.000 222.000 145 153 169
125.000 847.000 223.000 147 155 171
126.000 846.000 220.000 141 148 163
126.000 846.000 221.000 143 151 166
126.000 847.000 220.000 136 143 160
126.000 847.000 221.000 138 146 162
127.000 847.000 220.000 132 140 158
126.000 847.000 222.000 141 149 165
126.000 847.000 223.000 144 152 167
127.000 848.000 219.000 136 146 164
127.000 848.000 220.000 138 148 166
127.000 848.000 221.000 137 147 164
126.000 848.000 222.000 133 142 158
126.000 848.000 223.000 134 142 158
127.000 848.000 222.000 138 148 166
127.000 848.000 223.000 137 146 164
127.000 849.000 223.000 147 157 175
118.000 836.000 224.000 138 149 167
118.000 837.000 224.000 141 152 171
119.000 837.000 224.000 140 151 169
119.000 838.000 224.000 142 152 170
120.000 839.000 224.000 137 145 165
128.000 838.000 201.000 128 136 151
128.000 839.000 201.000 132 140 154
129.000 839.000 201.000 135 142 157
128.000 838.000 202.000 125 132 146
128.000 839.000 202.000 130 137 151
128.000 839.000 203.000 128 136 151
129.000 840.000 201.000 135 143 157
128.000 840.000 202.000 136 143 157
128.000 840.000 203.000 134 143 158
128.000 841.000 203.000 140 148 164
129.000 840.000 202.000 138 145 159
129.000 841.000 202.000 139 146 161
129.000 841.000 203.000 140 148 163
130.000 841.000 201.000 131 139 154
130.000 841.000 202.000 133 141 156
130.000 842.000 202.000 127 135 151
130.000 842.000 203.000 131 138 155
130.000 843.000 203.000 130 139 156
131.000 842.000 202.000 125 133 150
131.000 843.000 202.000 127 135 152
131.000 843.000 203.000 130 139 156
128.000 840.000 204.000 130 138 155
128.000 841.000 204.000 137 145 160
128.000 841.000 205.000 130 138 154
129.000 841.000 204.000 139 147 162
129.000 841.000 205.000 137 144 160
128.000 841.000 206.000 126 133 150
128.000 842.000 205.000 138 146 162
129.000 842.000 204.000 136 144 160
129.000 842.000 205.000 138 147 163
129.000 843.000 205.000 138 147 164
128.000 842.000 206.000 134 142 158
128.000 842.000 207.000 128 136 152
128.000 843.000 207.000 137 145 161
129.000 842.000 206.000 139 147 163
129.000 843.000 206.000 140 149 166
129.000 843.000 207.000 140 149 165
130.000 842.000 204.000 134 143 159
130.000 843.000 204.000 133 144 161
130.000 843.000 205.000 136 147 165
131.000 843.000 204.000 133 143 161
131.000 844.000 203.000 132 143 159
129.000 844.000 207.000 145 155 172
130.000 844.000 205.000 144 156 174
131.000 844.000 204.000 141 152 171
131.000 844.000 205.000 148 160 180
131.000 845.000 205.000 154 166 185
130.000 844.000 206.000 147 158 176
130.000 844.000 207.000 149 159 176
130.000 845.000 207.000 153 164 182
131.000 844.000 206.000 152 163 182
131.000 845.000 206.000 155 166 185
131.000 845.000 207.000 156 166 185
131.000 846.000 207.000 156 166 184
132.000 843.000 201.000 131 140 156
132.000 843.000 202.000 130 138 154
132.000 844.000 201.000 131 140 156
133.000 844.000 201.000 132 141 157
132.000 844.000 202.000 131 140 156
132.000 844.000 203.000 136 147 164
132.000 845.000 203.000 139 149 166
133.000 844.000 202.000 132 140 156
133.000 845.000 202.000 133 142 158
133.000 845.000 203.000 139 148 165
133.000 846.000 203.000 142 151 167
134.000 846.000 202.000 140 148 164
134.000 846.000 203.000 142 151 167
135.000 846.000 202.000 142 150 166
135.000 846.000 203.000 142 150 167
135.000 847.000 203.000 141 150 167
132.000 844.000 204.000 147 158 176
132.000 845.000 204.000 150 161 179
132.000 845.000 205.000 154 165 184
132.000 845.000 206.000 156 167 186
132.000 846.000 205.000 155 166 183
133.000 846.000 204.000 146 156 173
133.000 846.000 205.000 150 160 177
133.000 847.000 205.000 149 159 176
132.000 846.000 206.000 157 166 184
132.000 846.000 207.000 155 164 183
132.000 847.000 207.000 151 161 178
133.000 847.000 206.000 152 160 177
133.000 847.000 207.000 149 158 175
134.000 846.000 204.000 145 154 171
134.000 847.000 204.000 143 152 169
134.000 847.000 205.000 146 155 172
135.000 847.000 204.000 142 150 168
135.000 847.000 205.000 142 151 169
134.000 847.000 206.000 150 159 175
136.000 847.000 202.000 141 149 166
136.000 847.000 203.000 141 150 167
136.000 847.000 204.000 141 150 168
128.000 842.000 208.000 128 135 151
128.000 843.000 208.000 138 145 162
128.000 843.000 209.000 134 142 160
128.000 844.000 209.000 141 149 167
129.000 844.000 208.000 144 153 171
129.000 844.000 209.000 144 154 171
129.000 845.000 209.000 148 158 175
128.000 844.000 210.000 137 147 165
128.000 844.000 211.000 136 147 165
128.000 845.000 211.000 147 157 175
129.000 844.000 210.000 145 155 172
129.000 845.000 210.000 149 160 177
129.000 845.000 211.000 150 160 178
129.000 846.000 211.000 148 158 176
130.000 844.000 208.000 148 158 176
130.000 845.000 208.000 151 161 179
130.000 845.000 209.000 149 159 176
131.000 845.000 208.000 153 164 183
130.000 846.000 209.000 149 158 176
131.000 846.000 208.000 153 163 182
131.000 846.000 209.000 151 160 178
131.000 847.000 209.000 149 158 175
130.000 846.000 210.000 148 157 175
130.000 846.000 211.000 147 156 174
130.000 847.000 211.000 146 156 173
131.000 847.000 210.000 146 154 172
131.000 847.000 211.000 143 152 169
128.000 844.000 212.000 137 147 165
128.000 845.000 212.000 147 157 174
128.000 845.000 213.000 143 152 170
128.000 846.000 213.000 147 156 173
129.000 846.000 212.000 147 156 174
129.000 846.000 213.000 145 154 171
129.000 847.000 212.000 144 153 171
129.000 847.000 213.000 144 153 169
128.000 846.000 214.000 143 153 170
128.000 846.000 215.000 139 148 165
128.000 847.000 214.000 144 153 170
128.000 847.000 215.000 144 153 170
129.000 847.000 214.000 144 154 170
129.000 847.000 215.000 146 155 172
130.000 847.000 212.000 145 154 171
130.000 847.000 213.000 144 153 170
132.000 846.000 208.000 152 161 179
132.000 847.000 208.000 148 158 176
132.000 847.000 209.000 146 155 173
133.000 847.000 208.000 145 154 172
132.000 847.000 210.000 143 151 168
128.000 847.000 216.000 141 149 166
128.000 847.000 217.000 140 149 166
128.000 847.000 218.000 137 146 163
133.000 848.000 207.000 148 156 173
135.000 848.000 205.000 144 153 170
134.000 848.000 206.000 150 158 175
134.000 848.000 207.000 148 156 173
135.000 848.000 206.000 146 155 172
135.000 848.000 207.000 147 155 172
135.000 849.000 206.000 145 154 171
135.000 849.000 207.000 145 154 171
136.000 848.000 203.000 142 151 168
137.000 848.000 202.000 143 152 169
137.000 848.000 203.000 144 153 170
138.000 848.000 202.000 146 154 171
138.000 849.000 203.000 144 154 171
139.000 850.000 203.000 142 152 169
136.000 848.000 204.000 144 153 170
136.000 848.000 205.000 144 153 171
136.000 849.000 205.000 147 156 174
137.000 848.000 204.000 146 155 172
137.000 849.000 204.000 148 157 174
137.000 849.000 205.000 151 161 178
136.000 849.000 206.000 144 154 172
136.000 849.000 207.000 143 152 170
137.000 849.000 206.000 148 159 178
137.000 850.000 205.000 154 164 184
136.000 850.000 207.000 145 156 173
137.000 850.000 206.000 152 163 182
137.000 850.000 207.000 153 165 184
138.000 849.000 204.000 148 158 175
138.000 849.000 205.000 153 163 181
139.000 849.000 204.000 146 156 174
138.000 850.000 205.000 158 169 187
139.000 850.000 204.000 149 159 177
139.000 850.000 205.000 159 169 188
139.000 851.000 205.000 158 168 186
138.000 850.000 206.000 161 172 191
138.000 851.000 206.000 164 175 193
138.000 851.000 207.000 159 170 189
139.000 851.000 206.000 159 169 188
139.000 851.000 207.000 159 169 188
139.000 852.000 207.000 156 166 185
140.000 850.000 202.000 141 150 167
140.000 850.000 203.000 144 154 171
141.000 851.000 203.000 145 154 171
142.000 851.000 202.000 144 153 170
140.000 850.000 204.000 148 157 175
140.000 851.000 204.000 148 157 175
140.000 851.000 205.000 149 159 177
141.000 851.000 204.000 145 154 171
141.000 851.000 205.000 145 155 172
140.000 851.000 206.000 150 160 178
142.000 851.000 204.000 143 153 170
143.000 852.000 203.000 153 163 180
141.000 852.000 205.000 145 155 173
140.000 852.000 206.000 148 157 176
140.000 852.000 207.000 151 160 178
141.000 852.000 206.000 145 154 173
141.000 852.000 207.000 146 155 174
141.000 853.000 207.000 147 157 174
142.000 852.000 204.000 145 155 173
142.000 852.000 205.000 144 154 172
143.000 852.000 204.000 156 166 183
143.000 852.000 205.000 151 161 179
143.000 853.000 205.000 152 162 180
142.000 852.000 206.000 144 152 171
142.000 853.000 206.000 145 153 172
142.000 853.000 207.000 148 158 176
143.000 853.000 206.000 147 157 175
143.000 853.000 207.000 148 157 175
143.000 854.000 206.000 148 158 176
143.000 854.000 207.000 150 159 177
131.000 848.000 211.000 141 149 167
129.000 848.000 215.000 149 159 176
130.000 848.000 212.000 143 152 169
130.000 848.000 213.000 144 153 170
131.000 848.000 212.000 142 150 168
131.000 848.000 213.000 145 154 171
131.000 849.000 213.000 146 154 171
130.000 848.000 214.000 145 154 171
130.000 848.000 215.000 149 159 176
130.000 849.000 215.000 147 157 174
131.000 849.000 214.000 147 156 174
131.000 849.000 215.000 148 158 175
131.000 850.000 215.000 150 160 177
132.000 848.000 209.000 142 151 169
133.000 848.000 208.000 145 153 171
133.000 848.000 209.000 141 150 167
133.000 849.000 209.000 142 151 168
132.000 848.000 210.000 140 147 165
132.000 848.000 211.000 139 147 165
133.000 848.000 210.000 137 146 164
133.000 849.000 210.000 139 148 166
133.000 849.000 211.000 139 148 166
133.000 850.000 211.000 141 152 171
134.000 848.000 208.000 146 154 170
134.000 849.000 208.000 145 153 170
134.000 849.000 209.000 145 153 169
135.000 849.000 208.000 145 154 171
134.000 849.000 210.000 144 153 170
134.000 850.000 209.000 147 156 172
135.000 850.000 208.000 147 156 172
135.000 850.000 209.000 148 156 173
134.000 850.000 210.000 146 156 173
134.000 850.000 211.000 149 160 178
135.000 850.000 210.000 148 157 175
135.000 850.000 211.000 151 161 179
135.000 851.000 210.000 147 157 176
135.000 851.000 211.000 155 165 184
132.000 848.000 212.000 139 148 166
132.000 849.000 212.000 141 150 168
132.000 849.000 213.000 147 158 175
133.000 849.000 212.000 143 153 171
132.000 849.000 214.000 151 160 178
133.000 850.000 212.000 147 159 179
133.000 850.000 213.000 156 167 187
133.000 851.000 213.000 160 173 193
132.000 850.000 214.000 158 168 186
132.000 850.000 215.000 156 167 185
132.000 851.000 215.000 155 167 186
133.000 850.000 214.000 161 173 192
133.000 851.000 214.000 159 171 192
133.000 851.000 215.000 155 167 187
134.000 850.000 212.000 153 164 185
134.000 851.000 212.000 159 171 193
134.000 851.000 213.000 162 175 196
135.000 851.000 212.000 164 175 195
134.000 851.000 214.000 159 172 193
133.000 852.000 215.000 152 165 185
135.000 852.000 212.000 169 181 202
135.000 852.000 213.000 169 181 202
134.000 852.000 214.000 163 176 198
134.000 852.000 215.000 158 171 192
135.000 852.000 214.000 170 183 204
135.000 852.000 215.000 167 181 202
135.000 853.000 215.000 169 183 204
128.000 848.000 216.000 145 155 172
128.000 848.000 217.000 144 154 171
129.000 848.000 216.000 149 158 175
129.000 848.000 217.000 148 158 175
129.000 849.000 217.000 151 161 178
128.000 848.000 218.000 143 153 171
128.000 848.000 219.000 144 155 174
128.000 849.000 219.000 152 162 181
129.000 848.000 218.000 147 158 175
129.000 848.000 219.000 148 159 177
129.000 849.000 218.000 151 160 178
129.000 849.000 219.000 153 163 181
129.000 850.000 219.000 155 165 183
130.000 849.000 216.000 151 161 178
130.000 849.000 217.000 152 161 178
131.000 849.000 216.000 150 159 177
130.000 849.000 218.000 153 162 180
130.000 850.000 217.000 152 162 180
131.000 850.000 216.000 150 159 177
131.000 850.000 217.000 152 161 179
130.000 850.000 218.000 153 163 181
130.000 850.000 219.000 154 164 182
131.000 850.000 218.000 154 163 182
131.000 850.000 219.000 155 165 183
131.000 851.000 218.000 154 163 182
131.000 851.000 219.000 156 166 184
128.000 848.000 220.000 146 157 175
128.000 848.000 221.000 149 159 178
128.000 849.000 221.000 154 165 183
129.000 849.000 220.000 157 168 186
129.000 849.000 221.000 160 171 190
128.000 849.000 222.000 156 166 185
128.000 849.000 223.000 155 167 186
129.000 849.000 222.000 162 173 192
129.000 850.000 220.000 158 168 186
129.000 850.000 221.000 163 173 192
129.000 850.000 222.000 164 174 193
129.000 850.000 223.000 160 171 189
130.000 850.000 220.000 156 166 184
130.000 850.000 221.000 158 168 187
130.000 851.000 220.000 155 165 183
130.000 851.000 221.000 154 164 183
131.000 851.000 220.000 156 165 184
131.000 851.000 221.000 153 163 182
130.000 851.000 222.000 157 167 185
130.000 851.000 223.000 158 166 184
131.000 851.000 222.000 152 161 180
131.000 851.000 223.000 153 162 181
131.000 852.000 222.000 152 161 180
131.000 852.000 223.000 153 161 181
132.000 850.000 216.000 152 161 180
132.000 851.000 216.000 153 163 183
132.000 851.000 217.000 152 162 181
133.000 851.000 216.000 152 164 184
132.000 851.000 218.000 153 163 182
132.000 851.000 219.000 156 166 184
133.000 852.000 216.000 153 165 186
133.000 852.000 217.000 158 169 189
132.000 852.000 219.000 155 165 184
133.000 852.000 218.000 160 170 190
133.000 852.000 219.000 157 167 186
133.000 853.000 219.000 159 169 188
134.000 852.000 216.000 161 175 195
134.000 852.000 217.000 168 179 200
134.000 853.000 216.000 166 179 200
134.000 853.000 217.000 171 182 203
135.000 853.000 216.000 165 179 201
135.000 853.000 217.000 165 177 199
134.000 853.000 218.000 170 180 200
134.000 853.000 219.000 160 170 190
135.000 853.000 218.000 164 174 195
135.000 853.000 219.000 159 169 190
135.000 854.000 218.000 159 171 192
135.000 854.000 219.000 154 164 184
132.000 852.000 220.000 156 166 184
132.000 852.000 221.000 156 165 183
133.000 852.000 220.000 156 166 184
133.000 853.000 220.000 156 165 184
133.000 853.000 221.000 159 168 186
132.000 852.000 222.000 154 163 183
132.000 852.000 223.000 154 163 182
133.000 852.000 222.000 158 167 185
133.000 853.000 222.000 164 173 191
133.000 853.000 223.000 167 177 196
134.000 853.000 220.000 155 165 184
134.000 853.000 221.000 160 169 187
134.000 853.000 222.000 167 176 194
134.000 853.000 223.000 177 186 205
134.000 854.000 220.000 156 165 184
134.000 854.000 221.000 159 168 186
135.000 854.000 220.000 153 162 181
135.000 854.000 221.000 156 164 182
134.000 854.000 222.000 165 174 192
134.000 854.000 223.000 177 188 207
135.000 854.000 222.000 160 169 187
135.000 854.000 223.000 168 179 198
136.000 850.000 208.000 147 156 174
136.000 850.000 209.000 148 157 174
136.000 851.000 208.000 149 159 177
136.000 851.000 209.000 147 158 176
137.000 850.000 208.000 153 164 182
137.000 851.000 208.000 153 164 183
137.000 851.000 209.000 150 161 179
136.000 851.000 210.000 147 157 176
136.000 851.000 211.000 153 163 183
137.000 851.000 210.000 148 159 178
138.000 851.000 208.000 156 167 186
137.000 852.000 209.000 151 162 181
136.000 852.000 210.000 149 160 180
136.000 852.000 211.000 154 164 184
137.000 852.000 210.000 151 162 181
137.000 852.000 211.000 154 164 183
138.000 852.000 208.000 154 164 184
138.000 852.000 209.000 151 161 181
139.000 852.000 208.000 154 164 183
139.000 852.000 209.000 149 160 179
139.000 853.000 209.000 148 158 177
138.000 852.000 210.000 153 163 182
138.000 853.000 210.000 154 164 183
138.000 853.000 211.000 156 165 183
139.000 853.000 210.000 152 162 181
139.000 853.000 211.000 156 165 184
139.000 854.000 211.000 156 165 184
136.000 852.000 212.000 164 174 194
136.000 852.000 213.000 172 183 203
136.000 853.000 212.000 162 173 193
136.000 853.000 213.000 167 178 197
137.000 852.000 212.000 155 164 184
137.000 853.000 212.000 157 167 186
137.000 853.000 213.000 166 176 196
136.000 853.000 214.000 171 183 204
136.000 853.000 215.000 172 185 206
137.000 853.000 214.000 170 182 202
136.000 854.000 215.000 175 187 207
137.000 854.000 214.000 176 186 206
137.000 854.000 215.000 179 189 208
138.000 853.000 212.000 157 166 185
138.000 854.000 213.000 164 173 192
139.000 854.000 212.000 157 166 185
139.000 854.000 213.000 158 168 186
139.000 855.000 213.000 156 165 184
138.000 854.000 214.000 173 181 201
138.000 854.000 215.000 177 185 205
138.000 855.000 215.000 169 178 198
139.000 854.000 214.000 160 169 189
139.000 855.000 214.000 157 166 185
139.000 855.000 215.000 158 166 186
140.000 852.000 208.000 151 161 180
140.000 853.000 208.000 152 161 179
140.000 853.000 209.000 150 160 178
141.000 853.000 208.000 152 162 179
140.000 853.000 210.000 151 161 180
141.000 854.000 209.000 154 164 181
140.000 854.000 210.000 152 161 180
140.000 854.000 211.000 154 164 182
141.000 854.000 210.000 154 164 182
141.000 854.000 211.000 153 163 181
141.000 855.000 211.000 154 164 181
142.000 853.000 208.000 153 162 180
142.000 854.000 208.000 154 163 181
142.000 854.000 209.000 155 165 183
143.000 854.000 208.000 153 163 181
143.000 854.000 209.000 155 164 182
143.000 855.000 209.000 156 166 184
142.000 854.000 210.000 157 166 184
142.000 855.000 210.000 157 167 184
142.000 855.000 211.000 156 166 183
143.000 855.000 210.000 156 167 184
143.000 855.000 211.000 155 165 183
140.000 854.000 212.000 156 165 184
140.000 854.000 213.000 156 164 183
140.000 855.000 212.000 155 164 182
140.000 855.000 213.000 155 163 182
141.000 855.000 212.000 154 163 180
141.000 855.000 213.000 153 162 180
140.000 855.000 214.000 154 163 181
140.000 855.000 215.000 153 162 181
142.000 855.000 212.000 154 163 180
136.000 853.000 216.000 170 183 205
136.000 854.000 216.000 168 181 203
136.000 854.000 217.000 161 174 195
137.000 854.000 216.000 169 179 200
137.000 854.000 217.000 157 169 191
137.000 855.000 216.000 160 171 193
137.000 855.000 217.000 154 165 186
136.000 854.000 218.000 158 169 189
136.000 854.000 219.000 152 161 181
136.000 855.000 219.000 153 162 181
137.000 855.000 218.000 151 162 182
137.000 855.000 219.000 151 161 179
138.000 855.000 216.000 164 174 195
138.000 855.000 217.000 152 164 184
139.000 855.000 216.000 155 165 186
139.000 855.000 217.000 151 162 183
138.000 855.000 218.000 149 159 179
138.000 855.000 219.000 148 158 177
136.000 854.000 220.000 150 159 178
136.000 854.000 221.000 154 162 180
136.000 855.000 220.000 151 160 178
136.000 855.000 221.000 152 160 178
137.000 855.000 220.000 151 160 178
137.000 855.000 221.000 150 158 175
136.000 854.000 222.000 154 163 181
136.000 855.000 222.000 154 162 180
136.000 855.000 223.000 158 167 185
137.000 855.000 222.000 149 157 174
137.000 855.000 223.000 147 155 173
138.000 855.000 220.000 150 159 177
143.000 856.000 211.000 152 162 180
141.000 856.000 213.000 152 161 179
140.000 856.000 214.000 154 163 181
140.000 856.000 215.000 152 162 180
141.000 856.000 214.000 153 162 181
141.000 856.000 215.000 152 161 180
142.000 856.000 212.000 152 161 179
142.000 856.000 213.000 152 161 179
143.000 856.000 212.000 152 161 178
143.000 856.000 213.000 151 161 179
143.000 857.000 213.000 150 160 177
142.000 856.000 214.000 151 161 179
142.000 856.000 215.000 151 161 179
142.000 857.000 215.000 152 161 179
143.000 856.000 214.000 151 160 179
143.000 857.000 214.000 151 160 178
143.000 857.000 215.000 153 162 180
139.000 856.000 216.000 151 163 183
139.000 856.000 217.000 150 160 179
138.000 856.000 219.000 149 158 176
139.000 856.000 218.000 150 161 179
139.000 856.000 219.000 153 163 180
138.000 856.000 220.000 150 159 177
138.000 856.000 221.000 150 157 175
139.000 856.000 220.000 153 162 180
139.000 856.000 221.000 149 158 175
138.000 856.000 222.000 147 154 171
138.000 856.000 223.000 145 152 170
139.000 856.000 222.000 147 155 173
139.000 856.000 223.000 147 154 172
140.000 856.000 216.000 151 161 181
140.000 856.000 217.000 153 163 181
141.000 856.000 216.000 150 160 179
141.000 856.000 217.000 150 161 180
141.000 857.000 216.000 151 161 180
141.000 857.000 217.000 152 162 180
140.000 856.000 218.000 155 164 180
140.000 856.000 219.000 158 167 184
140.000 857.000 219.000 159 168 185
141.000 857.000 218.000 153 161 179
141.000 857.000 219.000 159 167 184
142.000 857.000 216.000 153 162 180
142.000 857.000 217.000 151 161 179
143.000 857.000 216.000 153 162 179
143.000 857.000 217.000 150 159 177
142.000 857.000 218.000 151 160 177
142.000 857.000 219.000 157 165 182
143.000 857.000 218.000 147 157 175
143.000 858.000 216.000 152 161 178
143.000 858.000 217.000 150 159 176
143.000 858.000 218.000 147 157 174
143.000 858.000 219.000 148 156 173
140.000 856.000 220.000 155 165 182
140.000 857.000 220.000 159 168 185
140.000 857.000 221.000 148 157 175
141.000 857.000 220.000 163 171 188
141.000 857.000 221.000 153 162 180
140.000 856.000 223.000 147 155 174
140.000 857.000 222.000 147 156 174
140.000 857.000 223.000 148 157 175
141.000 857.000 222.000 150 158 177
141.000 857.000 223.000 151 160 180
142.000 857.000 220.000 161 169 186
142.000 857.000 221.000 154 163 182
142.000 857.000 222.000 149 158 177
142.000 857.000 223.000 155 164 184
142.000 858.000 221.000 151 160 179
143.000 858.000 220.000 149 157 174
143.000 858.000 221.000 148 156 175
142.000 858.000 222.000 149 158 178
143.000 858.000 222.000 147 156 175
143.000 858.000 223.000 150 159 178
144.000 852.000 202.000 144 153 170
145.000 853.000 203.000 149 158 175
146.000 853.000 203.000 148 157 174
147.000 854.000 203.000 149 158 176
144.000 853.000 204.000 155 165 182
144.000 853.000 205.000 152 162 180
145.000 853.000 204.000 150 160 177
145.000 853.000 205.000 151 160 178
145.000 854.000 205.000 149 159 177
144.000 854.000 206.000 148 158 176
144.000 854.000 207.000 152 162 180
145.000 854.000 206.000 149 159 176
145.000 854.000 207.000 151 161 179
145.000 855.000 207.000 153 163 181
146.000 854.000 204.000 148 157 175
146.000 854.000 205.000 147 156 174
147.000 854.000 204.000 148 156 174
147.000 854.000 205.000 146 154 172
147.000 855.000 205.000 147 156 173
146.000 854.000 206.000 149 158 175
146.000 855.000 206.000 149 158 176
146.000 855.000 207.000 149 158 177
147.000 855.000 206.000 149 159 176
148.000 854.000 203.000 151 160 177
149.000 855.000 203.000 151 160 177
148.000 854.000 204.000 150 159 176
148.000 855.000 204.000 148 157 175
148.000 855.000 205.000 148 157 174
149.000 855.000 204.000 146 155 172
149.000 855.000 205.000 147 156 173
150.000 855.000 204.000 143 152 170
146.000 856.000 207.000 149 159 177
147.000 856.000 206.000 149 159 177
147.000 856.000 207.000 150 160 178
148.000 856.000 205.000 150 159 177
149.000 856.000 205.000 149 157 175
148.000 856.000 206.000 149 159 177
148.000 856.000 207.000 150 160 179
149.000 856.000 206.000 151 160 179
149.000 856.000 207.000 153 163 182
149.000 857.000 207.000 157 168 187
150.000 856.000 204.000 142 152 170
150.000 856.000 205.000 145 155 174
150.000 857.000 205.000 147 159 178
151.000 856.000 204.000 144 155 173
151.000 856.000 205.000 146 156 176
150.000 856.000 206.000 150 160 180
150.000 857.000 206.000 155 166 186
150.000 857.000 207.000 163 174 194
151.000 857.000 206.000 163 175 195
151.000 857.000 207.000 165 177 197
151.000 858.000 207.000 164 177 197
153.000 857.000 203.000 143 153 171
154.000 857.000 203.000 143 154 173
155.000 857.000 203.000 150 161 180
155.000 858.000 203.000 146 157 176
152.000 856.000 204.000 147 157 174
152.000 857.000 204.000 150 159 177
152.000 857.000 205.000 160 170 188
153.000 857.000 204.000 146 155 173
153.000 857.000 205.000 150 159 178
152.000 857.000 206.000 167 178 198
153.000 858.000 205.000 155 165 183
152.000 858.000 207.000 162 175 196
153.000 858.000 207.000 167 178 197
153.000 859.000 207.000 166 176 196
154.000 857.000 204.000 143 153 171
154.000 857.000 205.000 145 154 172
154.000 858.000 204.000 142 153 171
154.000 858.000 205.000 144 154 173
155.000 858.000 204.000 142 153 172
155.000 858.000 205.000 143 153 172
144.000 854.000 208.000 154 164 182
144.000 855.000 208.000 157 167 186
144.000 855.000 209.000 160 171 190
145.000 855.000 208.000 160 170 189
145.000 855.000 209.000 170 180 199
144.000 855.000 210.000 156 167 185
146.000 855.000 208.000 155 165 184
145.000 856.000 209.000 173 182 201
144.000 856.000 210.000 158 168 187
144.000 856.000 211.000 151 162 181
145.000 856.000 210.000 166 175 194
145.000 856.000 211.000 155 166 185
145.000 857.000 211.000 155 165 184
146.000 856.000 208.000 150 161 179
146.000 856.000 209.000 159 169 187
147.000 856.000 208.000 149 160 179
147.000 856.000 209.000 150 161 180
147.000 857.000 209.000 150 160 179
146.000 856.000 210.000 162 171 189
146.000 857.000 210.000 153 162 181
146.000 857.000 211.000 152 161 180
147.000 857.000 210.000 149 158 177
147.000 857.000 211.000 148 157 176
147.000 858.000 211.000 148 158 177
144.000 856.000 212.000 150 160 178
144.000 857.000 212.000 151 160 179
144.000 857.000 213.000 151 161 179
145.000 857.000 212.000 152 162 181
145.000 857.000 213.000 154 164 182
144.000 857.000 214.000 154 163 181
144.000 857.000 215.000 157 166 183
145.000 857.000 214.000 157 166 184
144.000 858.000 215.000 159 168 185
145.000 858.000 214.000 157 167 185
145.000 858.000 215.000 159 168 187
146.000 857.000 212.000 150 160 179
146.000 857.000 213.000 151 161 179
147.000 857.000 212.000 147 157 176
146.000 858.000 213.000 150 161 179
147.000 858.000 212.000 148 159 177
147.000 858.000 213.000 152 161 180
146.000 858.000 214.000 154 164 182
146.000 858.000 215.000 156 165 182
147.000 858.000 214.000 153 162 180
147.000 858.000 215.000 155 164 181
147.000 859.000 214.000 152 161 179
147.000 859.000 215.000 155 163 180
148.000 856.000 208.000 149 161 180
148.000 857.000 208.000 152 164 183
148.000 857.000 209.000 151 162 181
149.000 857.000 208.000 160 171 192
149.000 857.000 209.000 156 168 188
148.000 857.000 210.000 148 157 177
149.000 858.000 209.000 153 165 185
148.000 858.000 210.000 147 158 177
148.000 858.000 211.000 147 157 177
149.000 858.000 210.000 148 160 180
149.000 858.000 211.000 146 158 178
150.000 857.000 208.000 163 175 195
150.000 858.000 208.000 162 175 195
150.000 858.000 209.000 156 169 190
151.000 858.000 208.000 158 171 193
151.000 858.000 209.000 156 169 191
151.000 859.000 209.000 155 170 192
150.000 858.000 210.000 150 164 184
150.000 858.000 211.000 147 160 181
150.000 859.000 210.000 154 168 190
150.000 859.000 211.000 152 166 187
151.000 859.000 210.000 159 173 195
151.000 859.000 211.000 165 178 200
148.000 858.000 212.000 147 158 177
148.000 858.000 213.000 150 160 178
148.000 859.000 213.000 150 160 178
149.000 858.000 212.000 147 159 178
149.000 859.000 212.000 150 161 181
149.000 859.000 213.000 150 161 180
148.000 859.000 214.000 150 160 178
148.000 859.000 215.000 152 162 180
149.000 859.000 214.000 149 159 178
149.000 859.000 215.000 153 162 180
150.000 859.000 212.000 155 168 189
150.000 859.000 213.000 152 163 184
151.000 859.000 212.000 169 182 203
151.000 859.000 213.000 161 173 195
150.000 859.000 214.000 149 159 178
150.000 859.000 215.000 151 161 180
151.000 860.000 212.000 170 183 204
151.000 860.000 213.000 160 172 193
150.000 860.000 214.000 150 161 181
150.000 860.000 215.000 153 163 182
151.000 860.000 214.000 152 164 184
144.000 858.000 216.000 158 167 184
144.000 858.000 217.000 156 164 182
145.000 858.000 216.000 161 170 188
145.000 858.000 217.000 158 167 186
144.000 858.000 218.000 151 160 179
144.000 858.000 219.000 146 155 173
145.000 858.000 218.000 152 161 180
145.000 858.000 219.000 148 157 175
145.000 859.000 219.000 146 156 175
146.000 858.000 216.000 158 167 184
146.000 858.000 217.000 156 165 183
146.000 859.000 216.000 158 166 184
146.000 859.000 217.000 156 165 182
147.000 858.000 216.000 158 166 183
147.000 859.000 216.000 157 165 182
147.000 859.000 217.000 155 164 181
146.000 859.000 218.000 150 160 178
146.000 859.000 219.000 145 155 173
147.000 859.000 218.000 150 160 177
147.000 859.000 219.000 145 154 172
144.000 858.000 220.000 144 152 170
144.000 858.000 221.000 144 152 169
145.000 858.000 220.000 144 153 171
145.000 858.000 221.000 144 153 170
145.000 859.000 220.000 145 154 172
145.000 859.000 221.000 146 154 171
144.000 858.000 222.000 145 153 170
144.000 858.000 223.000 146 155 174
145.000 858.000 222.000 144 152 169
145.000 858.000 223.000 145 153 171
145.000 859.000 222.000 145 153 170
146.000 859.000 220.000 146 154 172
146.000 859.000 221.000 144 152 169
147.000 859.000 220.000 142 151 169
147.000 859.000 221.000 142 151 168
146.000 858.000 223.000 148 157 174
146.000 859.000 222.000 144 152 169
146.000 859.000 223.000 146 155 173
147.000 859.000 222.000 144 152 170
147.000 859.000 223.000 154 162 181
148.000 859.000 216.000 154 163 180
148.000 859.000 217.000 153 163 181
149.000 859.000 216.000 154 163 181
149.000 859.000 217.000 154 163 182
148.000 859.000 218.000 150 160 178
148.000 859.000 219.000 147 155 173
148.000 859.000 220.000 143 152 170
148.000 859.000 221.000 144 153 171
148.000 859.000 222.000 147 155 172
148.000 859.000 223.000 157 164 182
149.000 860.000 217.000 155 165 185
148.000 860.000 219.000 148 157 175
149.000 860.000 218.000 153 164 184
149.000 860.000 219.000 152 163 183
150.000 860.000 216.000 156 166 185
150.000 860.000 217.000 161 170 191
148.000 860.000 220.000 145 155 173
148.000 860.000 221.000 147 156 174
149.000 860.000 220.000 150 161 180
149.000 860.000 221.000 153 161 179
152.000 858.000 208.000 160 174 196
152.000 859.000 208.000 160 175 197
152.000 859.000 209.000 160 174 197
153.000 859.000 208.000 169 181 201
152.000 859.000 210.000 162 176 198
133.000 853.000 224.000 168 179 199
134.000 854.000 224.000 182 194 214
135.000 854.000 224.000 176 187 206
136.000 855.000 224.000 166 175 192
137.000 855.000 224.000 148 156 174
138.000 856.000 224.000 145 154 172
139.000 856.000 224.000 147 156 173
139.000 856.000 225.000 147 157 174
140.000 856.000 224.000 148 157 175
140.000 856.000 225.000 147 156 175
140.000 857.000 224.000 149 159 177
141.000 857.000 224.000 160 170 191
141.000 857.000 225.000 168 179 199
142.000 857.000 224.000 173 182 201
142.000 857.000 225.000 183 193 212
143.000 857.000 224.000 175 183 201
143.000 857.000 225.000 182 191 209
143.000 858.000 224.000 162 171 190
143.000 858.000 225.000 172 180 199
144.000 858.000 224.000 150 160 178
144.000 858.000 225.000 153 161 180
145.000 858.000 224.000 148 157 175
145.000 858.000 225.000 147 155 174
146.000 858.000 224.000 148 158 176
146.000 858.000 225.000 146 155 174
146.000 859.000 224.000 149 159 178
147.000 858.000 225.000 143 154 176
147.000 859.000 224.000 164 174 194
147.000 859.000 225.000 161 171 192
