ply
format ascii 1.0
element vertex 780
property float x
property float y
property float z
property uchar red
property uchar green
property uchar blue
end_header
144.000 474.000 159.000 47 56 65
144.000 475.000 159.000 47 55 64
145.000 474.000 158.000 46 54 63
145.000 474.000 159.000 47 55 64
145.000 475.000 158.000 46 55 64
145.000 475.000 159.000 47 55 64
146.000 473.000 157.000 47 55 63
147.000 473.000 156.000 48 55 63
147.000 473.000 157.000 48 55 63
146.000 473.000 158.000 47 55 64
146.000 474.000 157.000 44 53 62
146.000 475.000 157.000 44 53 62
147.000 474.000 156.000 46 53 62
147.000 474.000 157.000 45 53 62
147.000 475.000 156.000 44 52 61
144.000 476.000 159.000 46 54 63
144.000 477.000 159.000 46 54 63
145.000 476.000 158.000 46 54 63
145.000 476.000 159.000 46 54 63
145.000 477.000 158.000 46 54 62
145.000 479.000 157.000 46 54 62
144.000 478.000 159.000 46 54 62
145.000 478.000 158.000 46 54 62
146.000 476.000 157.000 45 53 62
146.000 477.000 157.000 45 53 61
147.000 476.000 156.000 43 52 61
147.000 477.000 156.000 45 53 62
147.000 477.000 157.000 44 52 61
146.000 478.000 157.000 46 54 62
147.000 478.000 156.000 47 54 62
148.000 472.000 155.000 47 54 61
148.000 473.000 155.000 49 55 63
149.000 472.000 155.000 46 53 61
149.000 473.000 155.000 48 55 63
148.000 474.000 155.000 47 54 63
148.000 475.000 155.000 45 53 61
149.000 474.000 155.000 47 54 63
151.000 472.000 153.000 48 54 61
151.000 473.000 153.000 47 53 61
150.000 472.000 154.000 46 53 61
150.000 472.000 155.000 46 53 61
150.000 473.000 154.000 46 53 61
151.000 472.000 154.000 47 53 61
148.000 473.000 156.000 48 55 63
148.000 474.000 156.000 45 53 62
149.000 476.000 154.000 47 54 62
149.000 477.000 155.000 46 53 61
148.000 478.000 154.000 47 54 62
155.000 471.000 151.000 47 54 62
156.000 470.000 150.000 48 54 62
156.000 471.000 150.000 47 54 62
157.000 471.000 150.000 48 54 62
159.000 469.000 149.000 46 53 61
158.000 471.000 149.000 48 54 62
159.000 470.000 149.000 46 53 61
159.000 471.000 149.000 47 54 61
152.000 471.000 153.000 49 55 62
153.000 471.000 152.000 46 53 61
154.000 471.000 152.000 46 53 61
154.000 472.000 151.000 46 53 61
155.000 472.000 151.000 46 53 61
153.000 479.000 151.000 45 53 61
155.000 476.000 150.000 45 53 61
155.000 478.000 149.000 45 53 61
155.000 479.000 149.000 45 53 62
154.000 479.000 150.000 45 53 62
155.000 479.000 150.000 45 53 62
157.000 472.000 149.000 48 54 62
157.000 473.000 149.000 46 53 60
156.000 472.000 150.000 47 53 61
156.000 473.000 150.000 46 53 61
157.000 472.000 150.000 48 54 61
158.000 472.000 149.000 48 54 62
158.000 473.000 148.000 47 54 62
159.000 472.000 148.000 47 54 61
159.000 473.000 148.000 47 54 62
158.000 474.000 148.000 46 53 62
159.000 475.000 148.000 46 54 62
159.000 476.000 147.000 46 54 62
159.000 477.000 147.000 46 54 63
158.000 478.000 147.000 47 54 63
158.000 479.000 147.000 47 54 62
159.000 478.000 147.000 46 54 63
159.000 479.000 146.000 47 54 63
159.000 479.000 147.000 46 54 62
156.000 476.000 149.000 46 54 62
157.000 477.000 149.000 47 54 62
156.000 478.000 149.000 46 54 62
157.000 478.000 148.000 47 55 63
157.000 479.000 148.000 47 54 62
158.000 476.000 148.000 46 54 62
158.000 477.000 148.000 46 54 62
159.000 477.000 148.000 46 54 62
158.000 478.000 148.000 47 55 63
152.000 472.000 153.000 48 54 61
153.000 472.000 152.000 46 53 61
143.000 475.000 160.000 47 55 64
142.000 476.000 161.000 47 56 65
143.000 476.000 160.000 46 55 64
143.000 477.000 160.000 47 55 64
143.000 478.000 160.000 47 55 64
144.000 474.000 160.000 47 56 65
144.000 475.000 160.000 46 55 64
144.000 476.000 160.000 45 54 63
144.000 477.000 160.000 46 54 63
143.000 480.000 159.000 47 54 63
143.000 481.000 159.000 47 54 63
143.000 482.000 159.000 46 54 63
143.000 483.000 159.000 46 54 63
143.000 484.000 159.000 45 54 63
143.000 485.000 159.000 46 54 63
143.000 491.000 159.000 46 55 64
142.000 493.000 159.000 46 55 64
142.000 496.000 159.000 49 57 65
143.000 499.000 157.000 55 61 69
142.000 498.000 159.000 51 58 66
142.000 499.000 159.000 52 59 67
143.000 498.000 158.000 50 57 65
143.000 499.000 158.000 54 61 68
143.000 500.000 157.000 63 70 78
143.000 501.000 157.000 78 84 92
142.000 500.000 159.000 57 64 73
142.000 501.000 158.000 71 77 85
142.000 501.000 159.000 68 75 84
143.000 500.000 158.000 59 66 74
143.000 502.000 157.000 86 92 101
143.000 503.000 157.000 89 95 104
142.000 502.000 158.000 84 90 99
142.000 503.000 158.000 90 97 107
143.000 504.000 156.000 85 91 100
142.000 504.000 158.000 90 96 106
159.000 490.000 143.000 44 52 60
159.000 491.000 143.000 44 51 59
157.000 495.000 143.000 71 76 84
158.000 495.000 143.000 72 76 84
151.000 486.000 151.000 46 54 62
145.000 480.000 157.000 46 54 62
145.000 481.000 157.000 46 54 62
144.000 481.000 158.000 46 54 63
145.000 482.000 157.000 46 54 63
144.000 482.000 158.000 46 54 63
144.000 483.000 158.000 46 54 63
146.000 482.000 156.000 46 54 62
146.000 483.000 156.000 46 54 63
147.000 487.000 155.000 45 53 61
144.000 484.000 158.000 45 54 63
146.000 484.000 156.000 45 54 62
146.000 485.000 156.000 46 54 63
151.000 481.000 152.000 45 52 60
151.000 483.000 152.000 47 54 61
149.000 487.000 153.000 43 51 60
148.000 487.000 154.000 44 52 61
151.000 484.000 152.000 47 54 62
150.000 491.000 151.000 43 51 60
151.000 491.000 150.000 44 52 61
151.000 491.000 151.000 43 52 60
150.000 492.000 151.000 44 52 61
150.000 493.000 151.000 47 54 63
146.000 489.000 155.000 46 54 62
147.000 488.000 155.000 45 53 61
147.000 489.000 154.000 44 52 60
146.000 490.000 155.000 45 54 63
146.000 491.000 155.000 46 54 63
147.000 491.000 154.000 44 53 61
145.000 489.000 157.000 46 55 64
145.000 490.000 156.000 46 55 64
145.000 490.000 157.000 47 55 64
144.000 490.000 158.000 46 55 64
146.000 488.000 156.000 46 54 63
146.000 489.000 156.000 46 54 63
146.000 494.000 155.000 46 54 63
147.000 494.000 154.000 48 56 65
147.000 495.000 154.000 50 58 67
144.000 492.000 157.000 46 54 63
145.000 492.000 156.000 45 54 62
144.000 495.000 157.000 48 56 64
146.000 493.000 156.000 45 54 62
148.000 488.000 153.000 43 51 60
148.000 489.000 153.000 43 51 60
148.000 490.000 154.000 43 51 60
148.000 493.000 153.000 46 54 62
149.000 492.000 152.000 43 52 60
149.000 493.000 152.000 46 54 62
148.000 494.000 153.000 48 56 65
148.000 495.000 153.000 50 58 68
153.000 480.000 151.000 46 53 61
153.000 481.000 150.000 45 53 61
153.000 481.000 151.000 46 53 61
152.000 483.000 151.000 45 52 60
153.000 482.000 150.000 45 52 60
153.000 482.000 151.000 45 52 60
153.000 483.000 150.000 44 51 60
153.000 483.000 151.000 45 52 60
154.000 481.000 149.000 45 53 61
155.000 480.000 149.000 45 53 62
155.000 481.000 149.000 45 53 62
154.000 480.000 150.000 45 53 61
154.000 481.000 150.000 45 53 61
154.000 482.000 149.000 45 52 61
154.000 483.000 149.000 45 52 61
155.000 482.000 149.000 44 52 61
155.000 483.000 149.000 45 53 61
154.000 482.000 150.000 44 52 60
154.000 483.000 150.000 44 52 60
152.000 484.000 151.000 46 53 62
152.000 485.000 151.000 45 53 61
153.000 484.000 150.000 44 52 60
153.000 485.000 150.000 44 52 60
154.000 484.000 149.000 45 52 60
155.000 484.000 149.000 45 53 61
155.000 485.000 149.000 45 52 60
154.000 486.000 149.000 44 51 60
155.000 486.000 148.000 45 52 60
155.000 487.000 148.000 44 52 60
157.000 480.000 147.000 47 54 62
157.000 482.000 147.000 47 54 62
157.000 483.000 147.000 47 54 62
159.000 481.000 145.000 45 54 62
158.000 480.000 147.000 47 55 63
158.000 481.000 146.000 47 54 62
159.000 480.000 146.000 46 54 63
159.000 482.000 145.000 46 54 62
158.000 482.000 146.000 47 54 62
158.000 483.000 147.000 46 54 62
159.000 482.000 146.000 46 54 62
156.000 480.000 148.000 46 54 62
156.000 481.000 148.000 46 54 62
157.000 480.000 148.000 47 54 62
157.000 481.000 148.000 47 54 62
156.000 483.000 148.000 45 53 62
156.000 485.000 147.000 45 53 62
157.000 484.000 147.000 46 53 62
157.000 485.000 147.000 46 53 62
156.000 486.000 147.000 44 52 61
157.000 486.000 147.000 44 53 61
157.000 487.000 146.000 44 52 61
159.000 484.000 145.000 45 53 61
158.000 484.000 147.000 46 53 61
158.000 485.000 146.000 45 53 62
158.000 487.000 145.000 44 52 61
159.000 486.000 144.000 45 53 61
159.000 487.000 145.000 45 52 61
158.000 486.000 146.000 45 53 61
158.000 487.000 146.000 44 52 61
156.000 484.000 148.000 45 53 61
156.000 485.000 148.000 45 53 61
156.000 486.000 148.000 45 53 61
152.000 480.000 152.000 46 53 61
155.000 488.000 147.000 43 51 60
155.000 489.000 147.000 43 51 59
155.000 490.000 147.000 45 52 60
155.000 491.000 146.000 44 52 60
155.000 491.000 147.000 45 52 60
153.000 489.000 149.000 46 54 62
152.000 488.000 150.000 46 54 63
152.000 490.000 149.000 46 54 62
153.000 490.000 148.000 46 54 61
153.000 490.000 149.000 47 54 62
154.000 488.000 148.000 44 52 60
154.000 489.000 148.000 43 51 60
155.000 488.000 148.000 43 51 60
155.000 489.000 148.000 43 51 59
154.000 490.000 148.000 45 52 60
153.000 493.000 147.000 47 53 60
154.000 492.000 147.000 46 53 60
155.000 494.000 145.000 51 57 64
154.000 494.000 146.000 52 58 65
155.000 494.000 146.000 50 57 64
152.000 493.000 148.000 47 54 62
153.000 492.000 148.000 47 54 62
152.000 495.000 149.000 53 60 68
153.000 495.000 148.000 56 62 69
156.000 488.000 146.000 42 51 59
156.000 488.000 147.000 43 51 60
156.000 489.000 147.000 43 51 60
156.000 491.000 145.000 44 52 60
156.000 490.000 146.000 44 52 60
156.000 490.000 147.000 44 52 60
157.000 490.000 146.000 44 52 60
158.000 489.000 145.000 44 52 60
159.000 489.000 144.000 43 51 60
158.000 490.000 145.000 44 52 60
158.000 491.000 144.000 44 52 60
157.000 492.000 145.000 43 51 59
156.000 492.000 146.000 44 51 59
158.000 496.000 142.000 78 83 91
158.000 497.000 142.000 79 84 93
159.000 497.000 142.000 78 83 91
158.000 498.000 143.000 80 86 95
159.000 499.000 142.000 85 91 99
157.000 502.000 143.000 93 99 108
158.000 500.000 143.000 96 102 111
158.000 501.000 143.000 94 100 110
159.000 500.000 142.000 85 91 100
158.000 502.000 143.000 93 99 109
151.000 497.000 149.000 80 86 95
150.000 496.000 151.000 55 64 73
150.000 497.000 150.000 76 82 91
151.000 496.000 150.000 61 68 76
150.000 498.000 151.000 89 94 103
150.000 499.000 151.000 94 99 108
151.000 498.000 150.000 94 100 109
149.000 500.000 151.000 90 97 106
150.000 500.000 150.000 89 96 106
150.000 503.000 150.000 88 94 103
145.000 497.000 155.000 48 55 63
145.000 499.000 155.000 64 70 77
147.000 497.000 153.000 58 65 73
146.000 496.000 155.000 49 57 65
146.000 497.000 155.000 50 58 66
147.000 498.000 153.000 68 74 83
146.000 498.000 154.000 62 69 77
146.000 499.000 154.000 78 84 92
144.000 497.000 157.000 49 56 64
145.000 497.000 156.000 48 55 64
144.000 498.000 156.000 51 58 66
144.000 499.000 156.000 56 63 70
145.000 498.000 156.000 50 57 65
145.000 499.000 156.000 60 65 73
145.000 500.000 155.000 77 82 90
145.000 502.000 154.000 79 85 94
145.000 503.000 154.000 79 85 93
146.000 501.000 153.000 82 88 97
147.000 501.000 152.000 87 94 103
147.000 501.000 153.000 86 92 101
146.000 502.000 153.000 79 86 94
147.000 503.000 153.000 78 84 93
144.000 500.000 156.000 70 76 84
144.000 501.000 156.000 82 87 95
144.000 502.000 156.000 85 90 99
148.000 496.000 152.000 52 60 70
148.000 496.000 153.000 52 60 69
148.000 498.000 152.000 79 85 93
149.000 498.000 152.000 79 85 93
149.000 500.000 152.000 92 99 108
148.000 503.000 152.000 82 89 98
145.000 504.000 155.000 81 87 95
153.000 497.000 147.000 82 86 94
155.000 496.000 145.000 74 80 87
154.000 497.000 147.000 81 86 94
154.000 498.000 147.000 84 89 97
152.000 497.000 148.000 83 88 96
152.000 498.000 149.000 92 98 106
153.000 502.000 147.000 84 90 99
154.000 500.000 146.000 81 87 97
154.000 501.000 146.000 82 88 97
154.000 502.000 146.000 80 87 95
156.000 498.000 145.000 79 85 94
157.000 498.000 144.000 75 82 91
156.000 501.000 144.000 91 97 106
142.000 481.000 160.000 47 55 64
142.000 482.000 160.000 46 54 63
142.000 483.000 160.000 46 54 63
165.000 479.000 143.000 47 54 61
166.000 478.000 143.000 43 50 57
166.000 479.000 143.000 43 50 58
167.000 479.000 143.000 45 51 58
169.000 478.000 143.000 45 51 57
169.000 479.000 143.000 45 51 58
170.000 479.000 142.000 43 49 56
171.000 478.000 143.000 43 49 56
173.000 476.000 143.000 46 51 58
173.000 477.000 143.000 45 51 58
172.000 478.000 143.000 43 49 56
173.000 478.000 142.000 44 49 56
174.000 476.000 143.000 50 55 62
174.000 477.000 142.000 48 53 60
174.000 477.000 143.000 48 53 60
175.000 476.000 143.000 48 54 61
175.000 477.000 142.000 48 54 61
175.000 477.000 143.000 50 55 62
175.000 478.000 142.000 50 55 62
163.000 471.000 147.000 46 52 59
160.000 471.000 148.000 48 54 61
161.000 470.000 148.000 46 53 60
163.000 469.000 148.000 46 53 60
162.000 470.000 148.000 46 53 60
162.000 471.000 148.000 46 52 60
163.000 471.000 148.000 47 53 60
164.000 470.000 147.000 48 53 59
165.000 470.000 147.000 50 54 60
164.000 469.000 148.000 49 54 61
160.000 473.000 147.000 48 54 62
161.000 472.000 147.000 45 52 59
160.000 475.000 147.000 46 54 62
161.000 474.000 147.000 46 53 60
161.000 475.000 146.000 45 53 60
161.000 475.000 147.000 47 54 62
162.000 472.000 147.000 45 52 59
162.000 473.000 147.000 45 52 60
163.000 472.000 147.000 46 52 60
163.000 473.000 146.000 46 52 60
163.000 473.000 147.000 46 53 60
162.000 474.000 146.000 45 52 60
162.000 474.000 147.000 45 52 60
162.000 475.000 146.000 45 52 60
163.000 474.000 146.000 45 52 60
163.000 475.000 146.000 45 53 61
160.000 472.000 148.000 48 54 61
160.000 476.000 147.000 46 54 62
160.000 477.000 146.000 46 54 62
160.000 477.000 147.000 46 54 62
161.000 476.000 146.000 46 53 61
161.000 477.000 146.000 47 54 62
161.000 478.000 145.000 47 54 63
161.000 479.000 145.000 47 54 63
160.000 478.000 146.000 47 54 63
160.000 479.000 146.000 47 55 63
161.000 478.000 146.000 47 54 63
162.000 477.000 145.000 44 52 60
163.000 476.000 145.000 44 53 61
163.000 477.000 145.000 44 52 60
162.000 476.000 146.000 44 52 60
162.000 477.000 146.000 44 52 61
162.000 478.000 145.000 45 53 61
162.000 479.000 144.000 43 52 60
162.000 479.000 145.000 45 53 61
163.000 478.000 144.000 43 51 60
163.000 478.000 145.000 43 51 60
163.000 479.000 144.000 42 51 59
164.000 473.000 146.000 46 52 59
165.000 472.000 146.000 49 54 60
165.000 473.000 146.000 47 52 59
164.000 475.000 145.000 46 53 60
165.000 474.000 145.000 45 51 58
165.000 475.000 145.000 45 52 59
164.000 474.000 146.000 45 52 59
164.000 475.000 146.000 45 52 60
165.000 474.000 146.000 46 51 58
167.000 473.000 145.000 47 52 59
166.000 472.000 146.000 50 55 61
167.000 472.000 146.000 48 53 59
166.000 474.000 145.000 47 52 59
166.000 475.000 145.000 46 52 58
167.000 474.000 145.000 47 52 58
167.000 475.000 144.000 47 52 59
167.000 475.000 145.000 48 53 59
164.000 476.000 145.000 47 53 61
164.000 477.000 144.000 48 54 62
164.000 477.000 145.000 47 54 62
165.000 476.000 145.000 45 52 59
165.000 477.000 144.000 45 52 59
164.000 478.000 144.000 47 54 62
165.000 478.000 144.000 46 52 60
165.000 479.000 144.000 46 53 61
166.000 476.000 144.000 46 51 58
166.000 477.000 144.000 44 50 57
167.000 476.000 144.000 47 52 59
168.000 468.000 147.000 47 53 59
169.000 468.000 147.000 45 51 58
171.000 469.000 146.000 49 54 60
171.000 470.000 146.000 49 53 59
172.000 468.000 146.000 50 56 62
172.000 469.000 146.000 50 55 61
173.000 468.000 146.000 45 51 57
173.000 470.000 145.000 51 56 62
174.000 469.000 145.000 42 50 57
175.000 471.000 144.000 43 50 57
169.000 476.000 144.000 43 49 56
170.000 476.000 144.000 42 49 56
173.000 475.000 144.000 47 52 58
174.000 472.000 145.000 47 53 60
176.000 478.000 142.000 45 51 59
176.000 479.000 142.000 46 53 60
176.000 470.000 144.000 42 49 57
161.000 483.000 143.000 46 54 62
162.000 481.000 143.000 44 52 60
163.000 480.000 143.000 42 50 58
163.000 481.000 143.000 43 51 59
162.000 482.000 143.000 45 53 61
162.000 483.000 143.000 45 53 61
163.000 482.000 143.000 44 51 59
163.000 483.000 143.000 44 51 59
161.000 484.000 143.000 48 55 63
161.000 485.000 143.000 48 56 64
160.000 486.000 143.000 47 54 62
160.000 487.000 143.000 45 53 61
161.000 486.000 143.000 48 55 63
161.000 487.000 143.000 47 54 62
162.000 484.000 143.000 46 54 62
162.000 485.000 143.000 47 54 63
163.000 484.000 142.000 44 52 60
163.000 485.000 142.000 44 52 60
163.000 485.000 143.000 45 53 61
162.000 486.000 142.000 47 54 62
162.000 486.000 143.000 48 55 63
162.000 487.000 142.000 46 54 62
163.000 486.000 142.000 44 52 60
163.000 487.000 142.000 44 52 60
164.000 480.000 143.000 45 52 60
164.000 481.000 143.000 43 50 58
165.000 480.000 143.000 47 54 61
164.000 482.000 143.000 42 49 57
164.000 483.000 142.000 42 50 58
164.000 483.000 143.000 42 50 58
165.000 482.000 142.000 43 50 58
165.000 483.000 142.000 43 50 58
166.000 480.000 143.000 44 51 59
167.000 480.000 143.000 43 49 56
167.000 481.000 142.000 42 49 56
167.000 483.000 141.000 42 49 56
166.000 482.000 142.000 43 50 58
166.000 483.000 142.000 43 51 58
167.000 482.000 142.000 42 49 56
167.000 483.000 142.000 43 49 57
165.000 485.000 141.000 42 50 58
164.000 484.000 142.000 43 50 58
164.000 485.000 142.000 43 51 59
165.000 484.000 142.000 42 50 58
165.000 485.000 142.000 42 50 58
164.000 487.000 141.000 44 52 60
165.000 486.000 141.000 43 50 59
165.000 487.000 141.000 44 51 59
164.000 486.000 142.000 43 51 59
166.000 484.000 141.000 45 52 59
166.000 485.000 141.000 44 52 60
167.000 484.000 141.000 43 50 57
167.000 485.000 141.000 44 51 59
166.000 484.000 142.000 44 51 59
167.000 484.000 142.000 44 51 58
166.000 486.000 141.000 44 51 59
166.000 487.000 140.000 44 51 59
166.000 487.000 141.000 44 51 59
167.000 486.000 141.000 46 53 60
167.000 487.000 140.000 45 52 60
167.000 487.000 141.000 45 52 60
160.000 488.000 143.000 45 52 60
161.000 488.000 143.000 45 53 60
161.000 489.000 142.000 45 52 59
161.000 489.000 143.000 44 51 59
161.000 490.000 142.000 44 51 59
163.000 489.000 141.000 44 51 59
162.000 488.000 142.000 47 54 62
162.000 489.000 142.000 46 53 61
163.000 488.000 142.000 45 53 61
162.000 490.000 141.000 44 52 60
162.000 491.000 141.000 44 51 59
163.000 490.000 141.000 44 51 59
163.000 491.000 141.000 43 51 59
161.000 492.000 141.000 44 51 60
161.000 493.000 141.000 49 57 64
160.000 492.000 142.000 44 51 59
161.000 494.000 141.000 70 75 83
160.000 495.000 142.000 74 80 87
162.000 492.000 141.000 44 52 61
163.000 492.000 140.000 47 55 63
163.000 493.000 140.000 55 62 70
162.000 495.000 140.000 80 85 93
163.000 494.000 140.000 70 76 83
163.000 495.000 140.000 77 83 91
166.000 491.000 139.000 47 53 61
167.000 490.000 139.000 45 52 60
167.000 491.000 139.000 46 53 61
164.000 488.000 141.000 43 51 59
164.000 489.000 141.000 43 51 59
165.000 488.000 141.000 44 51 59
165.000 489.000 140.000 44 52 59
165.000 489.000 141.000 44 51 59
164.000 490.000 140.000 42 50 58
164.000 490.000 141.000 43 50 58
164.000 491.000 140.000 43 51 59
165.000 490.000 140.000 44 51 59
165.000 491.000 140.000 45 53 60
166.000 488.000 140.000 44 52 59
166.000 489.000 140.000 44 52 59
167.000 488.000 140.000 45 52 60
167.000 489.000 140.000 44 51 59
166.000 490.000 140.000 45 52 59
165.000 492.000 139.000 56 62 70
165.000 493.000 139.000 65 70 78
165.000 494.000 139.000 79 84 92
165.000 495.000 139.000 85 90 99
166.000 492.000 139.000 55 60 68
166.000 493.000 139.000 68 73 80
167.000 492.000 139.000 55 61 69
167.000 493.000 139.000 71 76 84
166.000 494.000 139.000 82 86 94
166.000 495.000 139.000 89 94 103
167.000 494.000 138.000 89 94 102
167.000 494.000 139.000 83 88 96
167.000 495.000 138.000 88 94 103
164.000 492.000 140.000 48 55 63
164.000 493.000 140.000 60 66 74
164.000 494.000 140.000 75 80 88
169.000 481.000 142.000 47 52 59
168.000 483.000 141.000 43 49 56
169.000 483.000 141.000 46 51 58
168.000 482.000 142.000 45 51 58
168.000 483.000 142.000 44 50 57
171.000 481.000 141.000 43 50 57
170.000 480.000 142.000 43 50 57
171.000 480.000 142.000 42 48 55
170.000 483.000 141.000 43 49 55
171.000 482.000 141.000 42 49 56
171.000 483.000 141.000 41 48 55
170.000 487.000 139.000 49 54 60
171.000 487.000 139.000 47 52 59
168.000 484.000 141.000 43 50 57
168.000 485.000 141.000 43 50 57
169.000 484.000 141.000 46 52 58
169.000 485.000 140.000 46 52 58
169.000 485.000 141.000 47 52 58
168.000 486.000 140.000 45 52 59
168.000 486.000 141.000 45 52 59
168.000 487.000 140.000 47 54 61
169.000 486.000 140.000 45 51 57
169.000 487.000 140.000 47 52 59
170.000 484.000 141.000 44 50 56
170.000 485.000 140.000 46 52 58
171.000 484.000 140.000 41 48 55
171.000 485.000 140.000 43 49 56
170.000 486.000 140.000 47 52 58
170.000 487.000 140.000 47 53 59
171.000 487.000 140.000 47 52 59
173.000 480.000 141.000 43 49 56
173.000 480.000 142.000 42 48 55
173.000 482.000 141.000 43 50 57
175.000 480.000 141.000 49 54 60
174.000 480.000 142.000 44 50 57
174.000 482.000 141.000 44 50 57
175.000 482.000 140.000 48 53 60
175.000 482.000 141.000 47 53 59
172.000 486.000 139.000 45 51 58
173.000 486.000 139.000 44 51 58
175.000 484.000 139.000 44 50 58
175.000 487.000 138.000 46 52 60
172.000 484.000 140.000 41 48 55
172.000 485.000 140.000 43 49 56
173.000 484.000 140.000 41 48 56
175.000 484.000 140.000 43 50 57
168.000 489.000 139.000 46 53 61
169.000 488.000 139.000 48 54 61
169.000 489.000 139.000 47 54 61
168.000 490.000 139.000 45 52 60
168.000 491.000 139.000 47 54 62
170.000 488.000 139.000 49 55 61
171.000 488.000 139.000 48 53 60
168.000 488.000 140.000 46 54 61
168.000 489.000 140.000 45 53 61
169.000 488.000 140.000 48 53 60
168.000 493.000 138.000 85 90 99
169.000 492.000 138.000 67 74 83
169.000 493.000 138.000 86 92 101
168.000 494.000 138.000 91 97 105
168.000 494.000 139.000 83 88 96
168.000 495.000 138.000 90 96 105
169.000 495.000 138.000 90 97 107
170.000 493.000 138.000 82 88 97
171.000 493.000 138.000 77 83 91
170.000 495.000 137.000 85 93 103
171.000 494.000 137.000 75 83 92
171.000 495.000 137.000 79 86 96
170.000 495.000 138.000 88 95 105
171.000 494.000 138.000 80 86 96
172.000 490.000 138.000 48 54 61
172.000 491.000 138.000 55 61 68
173.000 490.000 138.000 49 55 62
175.000 491.000 137.000 65 70 77
174.000 491.000 138.000 57 62 69
173.000 493.000 137.000 77 82 89
172.000 492.000 138.000 67 72 80
172.000 493.000 138.000 75 80 88
172.000 494.000 137.000 75 80 88
172.000 495.000 137.000 74 80 89
173.000 494.000 137.000 76 81 88
173.000 495.000 137.000 74 80 87
174.000 492.000 137.000 76 81 88
174.000 493.000 137.000 77 82 89
175.000 492.000 137.000 76 81 88
175.000 493.000 137.000 77 82 89
174.000 494.000 136.000 74 80 88
174.000 494.000 137.000 75 80 88
174.000 495.000 136.000 74 80 87
175.000 494.000 136.000 75 81 89
175.000 495.000 136.000 73 79 88
160.000 480.000 145.000 47 55 63
160.000 481.000 145.000 47 55 63
161.000 480.000 144.000 46 54 62
161.000 480.000 145.000 47 54 63
161.000 481.000 144.000 46 54 63
160.000 482.000 144.000 47 55 63
160.000 483.000 144.000 47 55 63
161.000 482.000 144.000 46 54 62
161.000 483.000 144.000 47 54 63
162.000 480.000 144.000 44 52 61
162.000 481.000 144.000 45 53 61
163.000 480.000 144.000 42 50 59
160.000 484.000 144.000 47 54 63
160.000 486.000 144.000 46 53 61
160.000 497.000 141.000 75 81 89
161.000 496.000 141.000 77 83 92
161.000 497.000 141.000 75 81 90
160.000 499.000 141.000 79 85 94
161.000 499.000 141.000 78 84 92
160.000 498.000 142.000 80 85 94
162.000 496.000 140.000 79 85 94
163.000 496.000 140.000 78 84 92
161.000 500.000 141.000 78 84 93
160.000 501.000 142.000 79 86 95
162.000 500.000 141.000 77 83 91
162.000 501.000 141.000 77 84 92
163.000 500.000 140.000 76 82 90
164.000 496.000 139.000 85 91 99
165.000 496.000 139.000 88 93 102
165.000 497.000 139.000 88 93 102
164.000 498.000 139.000 83 89 97
166.000 496.000 139.000 91 96 105
166.000 497.000 139.000 87 93 102
167.000 496.000 138.000 89 95 104
166.000 498.000 139.000 84 90 99
166.000 499.000 139.000 83 89 98
167.000 498.000 138.000 79 86 96
167.000 499.000 138.000 81 88 97
166.000 501.000 139.000 76 83 92
164.000 500.000 140.000 76 82 90
164.000 501.000 140.000 77 82 91
175.000 499.000 135.000 78 84 92
174.000 500.000 135.000 73 79 87
174.000 501.000 135.000 73 79 87
175.000 500.000 135.000 74 80 88
175.000 501.000 135.000 73 79 87
174.000 502.000 135.000 75 81 89
174.000 503.000 135.000 76 83 91
175.000 502.000 135.000 74 80 88
175.000 503.000 134.000 75 81 89
175.000 503.000 135.000 75 81 89
168.000 496.000 138.000 90 96 105
169.000 496.000 138.000 88 95 104
169.000 497.000 138.000 86 92 101
168.000 498.000 138.000 78 85 93
168.000 499.000 138.000 75 81 90
169.000 498.000 138.000 77 84 92
169.000 499.000 138.000 73 80 88
171.000 496.000 137.000 80 87 97
171.000 497.000 137.000 79 85 94
170.000 496.000 138.000 85 93 103
170.000 498.000 137.000 82 88 96
171.000 498.000 137.000 83 88 96
168.000 500.000 138.000 73 79 88
168.000 501.000 138.000 74 80 88
169.000 500.000 138.000 71 78 86
172.000 496.000 136.000 72 78 86
172.000 496.000 137.000 74 80 89
172.000 497.000 137.000 74 81 89
173.000 496.000 136.000 72 78 86
173.000 497.000 136.000 71 77 85
172.000 498.000 137.000 78 83 92
173.000 498.000 136.000 72 77 85
173.000 499.000 136.000 73 78 86
174.000 496.000 136.000 72 78 86
174.000 497.000 136.000 71 77 85
175.000 496.000 136.000 72 78 87
175.000 497.000 136.000 72 79 87
174.000 499.000 136.000 73 78 86
173.000 500.000 136.000 73 78 86
173.000 501.000 136.000 73 79 87
173.000 502.000 136.000 75 82 90
174.000 500.000 136.000 73 79 86
174.000 501.000 136.000 73 79 87
174.000 504.000 135.000 83 89 97
174.000 505.000 135.000 88 94 103
175.000 504.000 134.000 76 83 91
175.000 504.000 135.000 78 84 93
175.000 505.000 134.000 80 87 95
175.000 506.000 134.000 81 88 97
176.000 481.000 141.000 52 57 63
176.000 499.000 135.000 86 92 101
177.000 499.000 135.000 87 94 103
176.000 500.000 135.000 79 85 93
176.000 501.000 135.000 72 79 87
177.000 500.000 135.000 83 89 98
177.000 501.000 134.000 73 79 87
177.000 501.000 135.000 75 81 90
176.000 502.000 134.000 73 79 87
176.000 502.000 135.000 73 79 87
176.000 503.000 134.000 75 80 88
177.000 502.000 134.000 72 78 86
178.000 500.000 134.000 78 85 93
178.000 500.000 135.000 83 90 98
176.000 504.000 134.000 75 81 88
