ply
format ascii 1.0
element vertex 1030
property float x
property float y
property float z
property uchar red
property uchar green
property uchar blue
end_header
319.000 639.000 246.000 88 89 96
319.000 639.000 247.000 81 82 88
319.000 635.000 251.000 77 79 86
319.000 636.000 251.000 77 80 86
319.000 637.000 251.000 77 79 86
319.000 638.000 248.000 77 79 85
319.000 639.000 248.000 77 79 85
319.000 639.000 249.000 77 78 84
319.000 638.000 250.000 76 79 85
324.000 631.000 239.000 85 85 91
325.000 631.000 239.000 84 85 92
325.000 632.000 238.000 87 87 94
325.000 632.000 239.000 83 85 92
326.000 632.000 239.000 81 84 92
321.000 631.000 243.000 79 79 86
323.000 631.000 241.000 82 82 89
322.000 631.000 242.000 81 81 88
322.000 631.000 243.000 80 80 87
323.000 631.000 242.000 81 81 88
323.000 631.000 243.000 79 80 87
320.000 631.000 244.000 77 78 85
320.000 631.000 245.000 77 78 85
321.000 631.000 244.000 78 79 86
321.000 631.000 245.000 78 79 86
322.000 631.000 244.000 79 80 87
322.000 631.000 245.000 78 80 86
323.000 631.000 244.000 77 80 87
323.000 631.000 245.000 76 79 86
322.000 631.000 246.000 75 79 86
323.000 631.000 246.000 75 79 86
323.000 631.000 247.000 74 78 86
324.000 631.000 240.000 81 83 90
324.000 631.000 241.000 79 82 89
325.000 631.000 240.000 79 83 90
325.000 631.000 241.000 78 82 89
324.000 631.000 242.000 78 81 88
324.000 631.000 243.000 76 80 88
325.000 631.000 242.000 77 81 88
325.000 631.000 243.000 76 81 88
326.000 631.000 240.000 78 82 89
326.000 631.000 241.000 78 82 89
327.000 631.000 241.000 78 82 89
326.000 631.000 242.000 77 81 89
326.000 631.000 243.000 76 80 88
327.000 631.000 242.000 77 81 89
327.000 631.000 243.000 76 80 88
324.000 631.000 244.000 76 80 87
324.000 631.000 245.000 75 79 87
325.000 631.000 244.000 75 80 87
325.000 631.000 245.000 75 79 87
324.000 631.000 246.000 75 79 86
324.000 631.000 247.000 74 79 86
325.000 631.000 246.000 74 79 86
325.000 631.000 247.000 74 79 86
326.000 631.000 244.000 75 80 88
326.000 631.000 245.000 75 79 87
327.000 631.000 244.000 75 80 88
327.000 631.000 245.000 75 79 87
326.000 631.000 246.000 74 79 87
326.000 631.000 247.000 74 79 86
327.000 630.000 247.000 73 78 86
327.000 631.000 246.000 74 79 87
327.000 631.000 247.000 74 79 86
327.000 627.000 255.000 72 76 83
324.000 631.000 248.000 74 78 86
324.000 631.000 249.000 74 78 85
325.000 631.000 248.000 74 78 86
325.000 631.000 249.000 74 78 85
324.000 631.000 250.000 74 78 85
324.000 631.000 251.000 74 78 85
325.000 630.000 251.000 73 77 84
325.000 631.000 250.000 73 78 85
325.000 631.000 251.000 73 77 84
327.000 629.000 251.000 73 77 84
326.000 630.000 248.000 74 78 86
326.000 630.000 249.000 73 78 85
326.000 631.000 248.000 74 78 86
326.000 631.000 249.000 73 78 85
327.000 630.000 248.000 73 78 86
327.000 630.000 249.000 73 78 86
326.000 630.000 250.000 73 78 85
326.000 630.000 251.000 73 77 84
327.000 630.000 250.000 73 78 85
327.000 630.000 251.000 73 77 85
324.000 631.000 252.000 73 77 84
324.000 631.000 253.000 73 77 84
325.000 630.000 252.000 73 77 84
325.000 630.000 253.000 73 77 84
325.000 631.000 252.000 73 77 84
325.000 631.000 253.000 73 77 84
324.000 631.000 254.000 73 77 84
324.000 631.000 255.000 74 77 84
325.000 630.000 254.000 73 77 84
325.000 630.000 255.000 74 77 84
327.000 629.000 252.000 73 77 84
327.000 629.000 253.000 73 77 84
326.000 629.000 254.000 73 77 84
326.000 629.000 255.000 73 77 83
327.000 628.000 254.000 73 77 84
327.000 628.000 255.000 73 77 83
327.000 629.000 254.000 73 77 84
326.000 630.000 252.000 73 77 84
326.000 630.000 253.000 73 77 84
327.000 630.000 252.000 73 77 84
326.000 630.000 254.000 73 77 84
320.000 632.000 245.000 77 78 85
321.000 632.000 245.000 78 79 86
320.000 632.000 246.000 77 78 85
320.000 632.000 247.000 78 79 86
321.000 632.000 246.000 78 79 86
321.000 632.000 247.000 77 79 86
322.000 632.000 245.000 78 80 86
322.000 632.000 246.000 77 79 86
322.000 632.000 247.000 76 79 86
323.000 632.000 247.000 75 79 86
320.000 638.000 247.000 78 80 86
320.000 639.000 246.000 83 83 90
320.000 639.000 247.000 81 81 87
321.000 638.000 247.000 80 81 88
321.000 639.000 246.000 81 81 88
321.000 639.000 247.000 80 80 87
322.000 639.000 247.000 80 82 90
325.000 632.000 240.000 79 83 90
326.000 632.000 240.000 79 83 90
327.000 632.000 241.000 78 82 90
320.000 632.000 248.000 77 79 86
320.000 633.000 248.000 77 79 86
320.000 633.000 249.000 77 79 86
321.000 632.000 248.000 77 79 86
321.000 633.000 248.000 77 79 86
321.000 633.000 249.000 77 79 86
321.000 633.000 250.000 77 80 87
320.000 634.000 250.000 77 80 86
320.000 635.000 250.000 77 80 86
320.000 635.000 251.000 77 80 86
321.000 634.000 250.000 77 80 86
321.000 634.000 251.000 77 79 86
321.000 635.000 251.000 78 80 87
322.000 632.000 248.000 75 78 85
322.000 632.000 249.000 75 78 85
322.000 633.000 249.000 74 78 85
323.000 632.000 248.000 74 78 85
323.000 632.000 249.000 74 78 85
322.000 632.000 250.000 74 78 85
322.000 633.000 250.000 75 78 85
322.000 633.000 251.000 75 79 85
323.000 632.000 250.000 74 78 85
323.000 632.000 251.000 74 78 85
322.000 634.000 251.000 75 79 85
321.000 634.000 252.000 76 79 86
321.000 635.000 252.000 77 80 86
321.000 635.000 253.000 76 79 86
322.000 633.000 252.000 75 79 85
322.000 633.000 253.000 75 79 86
323.000 632.000 252.000 74 78 85
323.000 632.000 253.000 75 78 85
323.000 633.000 252.000 75 79 86
323.000 633.000 253.000 75 79 85
322.000 633.000 254.000 76 80 86
322.000 633.000 255.000 77 80 87
323.000 632.000 254.000 75 79 85
323.000 632.000 255.000 75 79 86
323.000 633.000 254.000 76 79 86
323.000 633.000 255.000 76 79 86
322.000 634.000 252.000 75 79 86
322.000 634.000 253.000 76 79 86
322.000 635.000 253.000 76 79 86
322.000 634.000 254.000 76 80 86
322.000 634.000 255.000 77 80 87
322.000 635.000 254.000 77 80 87
322.000 635.000 255.000 77 80 87
320.000 636.000 251.000 78 80 87
320.000 637.000 251.000 77 80 87
321.000 636.000 251.000 77 80 87
321.000 637.000 251.000 77 80 87
320.000 638.000 248.000 78 80 86
320.000 638.000 249.000 77 79 85
320.000 639.000 249.000 78 79 85
321.000 638.000 248.000 78 80 86
321.000 638.000 249.000 77 79 86
321.000 639.000 248.000 79 80 87
321.000 639.000 249.000 78 80 86
320.000 638.000 250.000 76 78 84
320.000 638.000 251.000 77 79 86
320.000 639.000 250.000 77 79 85
321.000 638.000 251.000 77 80 86
321.000 639.000 250.000 78 80 87
321.000 639.000 251.000 78 80 87
322.000 639.000 248.000 77 80 88
322.000 639.000 249.000 78 81 88
323.000 639.000 249.000 67 75 86
322.000 639.000 250.000 79 82 89
322.000 639.000 251.000 79 81 88
321.000 636.000 252.000 78 80 87
321.000 636.000 253.000 76 79 86
321.000 637.000 252.000 78 80 87
321.000 637.000 253.000 77 80 87
321.000 636.000 254.000 76 79 86
321.000 637.000 254.000 76 79 86
321.000 637.000 255.000 76 79 86
320.000 638.000 252.000 77 80 86
321.000 638.000 252.000 77 80 87
321.000 638.000 253.000 75 79 86
321.000 639.000 252.000 78 81 88
321.000 639.000 253.000 76 79 86
321.000 638.000 254.000 74 78 85
321.000 638.000 255.000 75 79 86
321.000 639.000 254.000 75 79 86
321.000 639.000 255.000 75 79 86
322.000 636.000 254.000 76 80 86
322.000 636.000 255.000 77 80 87
322.000 637.000 255.000 76 80 86
324.000 632.000 248.000 74 78 85
324.000 632.000 249.000 74 78 85
324.000 632.000 250.000 74 78 85
324.000 632.000 252.000 74 77 84
324.000 632.000 253.000 73 77 84
324.000 632.000 254.000 73 77 84
324.000 632.000 255.000 73 77 84
328.000 631.000 242.000 76 81 89
328.000 631.000 243.000 76 80 88
329.000 631.000 242.000 76 81 89
329.000 631.000 243.000 75 80 88
330.000 631.000 242.000 76 81 89
330.000 631.000 243.000 75 80 88
331.000 631.000 243.000 75 80 88
328.000 630.000 245.000 74 79 87
328.000 631.000 244.000 75 80 88
328.000 631.000 245.000 75 79 87
329.000 630.000 245.000 74 79 87
329.000 631.000 244.000 75 80 88
329.000 631.000 245.000 75 80 88
328.000 630.000 246.000 74 79 87
328.000 630.000 247.000 74 79 87
328.000 631.000 246.000 74 79 87
329.000 630.000 246.000 74 79 87
329.000 630.000 247.000 74 79 87
330.000 629.000 247.000 73 78 87
331.000 629.000 247.000 73 79 87
330.000 630.000 245.000 74 80 88
330.000 631.000 244.000 75 80 88
330.000 631.000 245.000 75 80 88
331.000 630.000 244.000 75 80 88
331.000 630.000 245.000 75 80 88
331.000 631.000 244.000 75 80 88
330.000 630.000 246.000 74 79 87
330.000 630.000 247.000 73 79 87
331.000 630.000 246.000 74 79 87
332.000 631.000 243.000 76 81 89
332.000 629.000 246.000 75 80 88
332.000 629.000 247.000 74 79 88
333.000 629.000 246.000 71 77 85
333.000 629.000 247.000 70 76 84
332.000 630.000 244.000 76 81 89
332.000 630.000 245.000 75 80 88
332.000 631.000 244.000 76 81 89
333.000 630.000 244.000 72 77 85
333.000 630.000 245.000 73 78 86
332.000 630.000 246.000 75 80 88
333.000 630.000 246.000 71 77 85
334.000 629.000 246.000 64 70 79
334.000 629.000 247.000 65 72 80
335.000 629.000 246.000 60 66 74
335.000 629.000 247.000 61 67 75
334.000 630.000 244.000 62 69 77
334.000 630.000 245.000 62 69 77
335.000 630.000 245.000 56 62 70
334.000 630.000 246.000 63 69 78
335.000 630.000 246.000 59 64 72
330.000 627.000 251.000 71 77 84
331.000 627.000 251.000 70 76 84
329.000 627.000 253.000 72 76 84
328.000 627.000 254.000 72 76 83
328.000 627.000 255.000 72 76 83
329.000 626.000 254.000 71 76 83
329.000 626.000 255.000 71 76 83
329.000 627.000 254.000 72 76 83
330.000 625.000 255.000 70 74 81
331.000 624.000 255.000 67 73 80
331.000 625.000 254.000 68 74 82
331.000 625.000 255.000 68 73 80
330.000 626.000 253.000 70 76 83
330.000 627.000 252.000 71 76 84
330.000 627.000 253.000 71 76 84
331.000 626.000 252.000 69 75 83
331.000 626.000 253.000 69 74 82
331.000 627.000 252.000 70 76 84
330.000 626.000 254.000 71 75 83
330.000 626.000 255.000 71 75 82
330.000 627.000 254.000 71 76 83
331.000 626.000 254.000 69 74 82
328.000 629.000 248.000 73 78 86
328.000 629.000 249.000 73 78 86
329.000 629.000 248.000 73 78 86
329.000 629.000 249.000 73 78 86
328.000 629.000 250.000 73 78 85
328.000 629.000 251.000 73 77 85
329.000 628.000 251.000 72 77 85
329.000 629.000 250.000 72 78 85
329.000 629.000 251.000 72 77 85
328.000 630.000 248.000 73 78 86
328.000 630.000 249.000 73 78 85
329.000 630.000 248.000 73 78 86
328.000 630.000 250.000 73 77 85
328.000 630.000 251.000 73 77 85
330.000 628.000 249.000 72 77 85
330.000 629.000 248.000 73 78 86
330.000 629.000 249.000 72 78 86
331.000 628.000 249.000 71 77 85
331.000 629.000 248.000 72 78 86
331.000 629.000 249.000 72 77 86
330.000 628.000 250.000 72 77 85
330.000 628.000 251.000 72 77 85
330.000 629.000 250.000 72 77 85
331.000 628.000 250.000 71 77 85
331.000 628.000 251.000 71 77 85
328.000 628.000 252.000 72 77 84
328.000 628.000 253.000 72 77 84
328.000 629.000 252.000 73 77 84
328.000 629.000 253.000 73 77 84
329.000 628.000 252.000 72 77 84
329.000 628.000 253.000 72 77 84
328.000 628.000 254.000 72 76 84
330.000 628.000 252.000 72 77 84
332.000 626.000 251.000 67 73 81
332.000 627.000 250.000 71 77 85
332.000 627.000 251.000 69 75 83
333.000 626.000 251.000 66 72 80
333.000 627.000 250.000 67 73 81
333.000 627.000 251.000 67 73 81
334.000 625.000 251.000 67 73 81
335.000 625.000 251.000 67 72 79
334.000 627.000 249.000 68 74 81
335.000 627.000 249.000 67 73 81
334.000 626.000 250.000 68 74 82
334.000 626.000 251.000 67 73 80
334.000 627.000 250.000 67 73 81
335.000 626.000 250.000 67 72 80
335.000 626.000 251.000 67 73 80
335.000 627.000 250.000 66 72 80
332.000 625.000 253.000 67 73 81
333.000 625.000 252.000 66 71 79
333.000 625.000 253.000 66 72 80
332.000 625.000 254.000 67 72 80
332.000 625.000 255.000 67 73 81
332.000 626.000 252.000 68 74 82
332.000 626.000 253.000 69 74 82
333.000 626.000 252.000 66 72 80
334.000 625.000 252.000 66 73 81
332.000 628.000 248.000 72 78 87
332.000 628.000 249.000 71 77 85
332.000 629.000 248.000 73 79 87
333.000 628.000 248.000 67 73 82
333.000 628.000 249.000 67 73 82
333.000 629.000 248.000 69 75 84
332.000 628.000 250.000 71 77 85
334.000 628.000 248.000 66 72 80
334.000 628.000 249.000 68 74 82
335.000 628.000 248.000 66 71 79
335.000 628.000 249.000 69 75 83
328.000 632.000 241.000 77 81 89
336.000 629.000 246.000 56 63 71
336.000 629.000 247.000 57 63 71
337.000 629.000 247.000 56 63 70
336.000 630.000 246.000 56 62 69
336.000 626.000 249.000 61 67 74
336.000 627.000 249.000 62 68 75
337.000 626.000 249.000 60 66 73
337.000 627.000 249.000 59 65 72
336.000 626.000 250.000 65 70 77
337.000 626.000 250.000 62 68 75
338.000 627.000 249.000 58 63 70
336.000 628.000 248.000 60 66 73
337.000 628.000 248.000 57 63 71
318.000 641.000 247.000 83 83 89
319.000 640.000 246.000 83 83 89
319.000 640.000 247.000 84 84 91
319.000 641.000 246.000 84 84 90
319.000 641.000 247.000 83 83 89
319.000 642.000 246.000 83 83 89
319.000 642.000 247.000 83 83 89
319.000 643.000 247.000 83 84 90
319.000 640.000 248.000 79 79 85
319.000 640.000 249.000 77 79 85
319.000 641.000 248.000 81 83 89
319.000 641.000 249.000 82 83 89
318.000 642.000 248.000 82 83 90
319.000 642.000 248.000 84 85 92
319.000 643.000 248.000 84 86 92
319.000 643.000 249.000 85 86 93
320.000 640.000 245.000 82 82 88
320.000 640.000 246.000 82 82 88
320.000 641.000 246.000 82 82 88
320.000 641.000 247.000 83 84 90
321.000 640.000 246.000 82 82 89
321.000 641.000 246.000 82 82 89
321.000 641.000 247.000 83 83 90
320.000 642.000 246.000 83 82 88
320.000 642.000 247.000 84 85 92
321.000 642.000 247.000 85 86 93
322.000 640.000 247.000 79 82 89
322.000 641.000 247.000 82 83 90
322.000 642.000 247.000 85 86 93
320.000 643.000 248.000 85 87 94
321.000 642.000 248.000 84 86 93
321.000 643.000 248.000 85 86 93
322.000 640.000 248.000 77 81 89
322.000 640.000 249.000 72 77 87
322.000 641.000 248.000 78 82 89
323.000 640.000 248.000 70 77 85
323.000 640.000 249.000 68 76 85
323.000 641.000 248.000 74 79 86
323.000 641.000 249.000 73 78 86
322.000 640.000 250.000 73 78 86
322.000 640.000 251.000 75 79 87
322.000 641.000 251.000 74 79 86
323.000 640.000 250.000 71 77 85
323.000 640.000 251.000 70 76 85
323.000 641.000 250.000 71 77 85
323.000 641.000 251.000 73 78 85
322.000 642.000 248.000 81 84 91
322.000 643.000 248.000 79 83 90
323.000 642.000 248.000 75 80 86
323.000 642.000 249.000 74 79 86
323.000 643.000 248.000 77 81 88
323.000 643.000 249.000 77 81 88
323.000 642.000 250.000 73 78 85
323.000 642.000 251.000 74 79 86
323.000 643.000 250.000 77 82 89
323.000 643.000 251.000 76 80 88
321.000 640.000 253.000 77 81 88
321.000 640.000 254.000 76 80 88
321.000 640.000 255.000 75 80 87
322.000 640.000 252.000 75 79 86
322.000 640.000 253.000 75 80 87
322.000 641.000 252.000 76 81 88
322.000 641.000 253.000 76 82 90
322.000 640.000 254.000 75 79 86
322.000 640.000 255.000 76 80 86
322.000 641.000 254.000 76 81 89
322.000 641.000 255.000 75 81 89
322.000 642.000 252.000 77 82 90
322.000 642.000 253.000 78 84 93
322.000 643.000 252.000 79 85 93
322.000 643.000 253.000 79 85 94
323.000 642.000 252.000 75 80 87
323.000 643.000 252.000 77 82 90
322.000 642.000 254.000 79 86 97
322.000 642.000 255.000 78 84 94
322.000 643.000 254.000 78 85 95
322.000 643.000 255.000 78 86 96
320.000 644.000 248.000 87 89 96
320.000 644.000 249.000 87 89 97
320.000 645.000 249.000 84 87 94
321.000 645.000 248.000 86 89 96
321.000 645.000 249.000 86 89 96
321.000 646.000 249.000 84 87 94
322.000 644.000 248.000 86 90 97
322.000 645.000 248.000 91 96 104
322.000 645.000 249.000 86 91 98
323.000 644.000 249.000 80 85 92
323.000 645.000 249.000 82 86 93
323.000 644.000 250.000 79 84 91
323.000 644.000 251.000 78 83 91
323.000 645.000 250.000 81 85 92
323.000 645.000 251.000 80 85 92
322.000 646.000 249.000 86 90 97
322.000 646.000 250.000 83 87 95
322.000 647.000 250.000 84 89 96
322.000 647.000 251.000 88 92 100
323.000 646.000 250.000 82 86 94
323.000 646.000 251.000 81 85 93
322.000 644.000 252.000 81 86 94
322.000 644.000 253.000 81 87 95
322.000 645.000 253.000 81 86 94
323.000 644.000 252.000 79 84 92
323.000 644.000 253.000 78 84 92
323.000 645.000 252.000 80 85 92
323.000 645.000 253.000 79 84 92
322.000 644.000 254.000 80 87 96
322.000 644.000 255.000 80 86 95
322.000 645.000 254.000 80 85 94
322.000 645.000 255.000 78 83 91
322.000 646.000 253.000 80 84 92
322.000 647.000 252.000 85 90 98
322.000 647.000 253.000 80 84 91
323.000 646.000 252.000 82 86 94
322.000 646.000 254.000 79 84 91
322.000 646.000 255.000 78 82 90
322.000 647.000 254.000 79 83 91
322.000 647.000 255.000 78 83 90
322.000 648.000 251.000 81 85 93
322.000 648.000 252.000 86 91 99
322.000 648.000 253.000 82 86 93
322.000 649.000 252.000 77 80 86
322.000 649.000 253.000 78 82 88
322.000 648.000 254.000 81 85 93
322.000 648.000 255.000 81 85 93
322.000 649.000 254.000 79 83 89
322.000 649.000 255.000 79 83 91
322.000 650.000 253.000 77 80 86
322.000 650.000 254.000 78 82 88
322.000 650.000 255.000 77 80 87
322.000 651.000 255.000 76 79 85
327.000 626.000 257.000 72 75 82
327.000 627.000 256.000 73 76 82
327.000 627.000 257.000 73 76 82
326.000 627.000 258.000 74 76 82
326.000 627.000 259.000 74 76 81
327.000 626.000 258.000 73 75 81
327.000 626.000 259.000 73 75 80
327.000 627.000 258.000 73 76 82
327.000 627.000 259.000 74 76 81
325.000 627.000 262.000 75 74 77
325.000 627.000 263.000 76 72 71
327.000 625.000 261.000 74 75 80
327.000 624.000 263.000 65 66 69
327.000 625.000 262.000 73 73 77
327.000 625.000 263.000 69 68 72
326.000 626.000 261.000 74 75 79
326.000 627.000 260.000 74 76 80
326.000 627.000 261.000 75 75 79
327.000 626.000 260.000 74 75 80
327.000 626.000 261.000 74 75 79
326.000 626.000 262.000 74 73 76
326.000 626.000 263.000 74 71 72
326.000 627.000 262.000 75 74 76
327.000 626.000 262.000 74 74 78
325.000 629.000 256.000 74 77 84
325.000 629.000 257.000 74 77 83
325.000 628.000 259.000 74 76 82
325.000 629.000 258.000 74 77 83
325.000 629.000 259.000 74 76 82
324.000 630.000 256.000 74 77 84
324.000 630.000 257.000 74 77 84
324.000 631.000 256.000 74 78 84
324.000 631.000 257.000 74 77 84
325.000 630.000 256.000 74 77 84
325.000 630.000 257.000 74 77 83
324.000 630.000 258.000 74 77 83
324.000 630.000 259.000 73 76 83
324.000 631.000 258.000 74 78 84
324.000 631.000 259.000 74 78 84
325.000 630.000 258.000 74 77 83
325.000 630.000 259.000 74 77 83
326.000 628.000 256.000 73 77 83
326.000 628.000 257.000 73 76 83
326.000 629.000 256.000 74 77 83
326.000 629.000 257.000 74 77 83
327.000 628.000 256.000 73 76 83
327.000 628.000 257.000 73 76 82
326.000 628.000 258.000 74 76 82
326.000 628.000 259.000 74 76 81
325.000 628.000 260.000 75 76 81
325.000 628.000 261.000 75 76 81
325.000 629.000 260.000 74 77 82
325.000 629.000 261.000 76 78 83
324.000 629.000 262.000 75 77 82
324.000 629.000 263.000 79 79 82
325.000 628.000 262.000 75 75 79
325.000 628.000 263.000 76 73 75
325.000 629.000 262.000 75 77 82
325.000 629.000 263.000 77 76 78
324.000 630.000 260.000 73 77 83
324.000 630.000 261.000 75 78 84
324.000 631.000 260.000 73 76 83
324.000 631.000 261.000 75 78 84
325.000 630.000 260.000 74 77 83
324.000 630.000 262.000 74 77 82
324.000 630.000 263.000 78 78 82
324.000 631.000 262.000 77 79 85
324.000 631.000 263.000 74 75 80
326.000 628.000 260.000 74 76 81
325.000 626.000 264.000 77 70 65
325.000 626.000 265.000 80 70 63
325.000 627.000 264.000 78 70 65
325.000 627.000 265.000 82 71 62
324.000 627.000 267.000 90 75 63
325.000 626.000 266.000 83 72 63
325.000 626.000 267.000 87 73 63
325.000 627.000 266.000 87 73 61
325.000 627.000 267.000 90 75 63
326.000 625.000 264.000 68 66 69
326.000 625.000 265.000 70 66 67
327.000 625.000 264.000 65 64 67
326.000 625.000 266.000 75 69 66
326.000 626.000 264.000 73 69 68
326.000 626.000 265.000 75 68 66
326.000 626.000 266.000 78 70 65
324.000 627.000 268.000 92 76 64
324.000 627.000 269.000 94 78 65
325.000 626.000 268.000 89 75 64
325.000 626.000 269.000 91 77 64
324.000 626.000 270.000 95 79 66
324.000 627.000 270.000 96 80 67
324.000 627.000 271.000 99 81 70
325.000 626.000 270.000 94 79 66
324.000 629.000 264.000 76 72 70
324.000 629.000 265.000 81 72 67
325.000 628.000 264.000 75 69 65
325.000 628.000 265.000 82 72 63
324.000 628.000 266.000 88 74 61
324.000 628.000 267.000 91 75 63
324.000 629.000 266.000 88 75 64
324.000 629.000 267.000 92 76 63
325.000 628.000 266.000 86 72 61
324.000 630.000 264.000 79 77 78
324.000 630.000 265.000 79 73 71
324.000 631.000 264.000 80 79 83
324.000 631.000 265.000 80 77 78
324.000 630.000 266.000 87 75 66
324.000 630.000 267.000 92 76 64
324.000 631.000 266.000 83 73 68
324.000 631.000 267.000 92 76 67
324.000 628.000 268.000 94 77 65
324.000 628.000 269.000 95 78 66
324.000 629.000 268.000 96 78 67
324.000 629.000 269.000 97 79 67
324.000 628.000 270.000 98 80 68
324.000 628.000 271.000 101 82 72
324.000 629.000 270.000 99 80 69
324.000 629.000 271.000 103 82 72
324.000 630.000 268.000 97 79 66
324.000 630.000 269.000 99 80 67
324.000 631.000 268.000 96 78 66
324.000 631.000 269.000 99 80 66
324.000 630.000 270.000 101 81 68
324.000 630.000 271.000 104 83 72
324.000 631.000 270.000 102 82 67
324.000 631.000 271.000 105 84 71
322.000 633.000 256.000 77 80 87
322.000 633.000 257.000 77 80 87
323.000 632.000 256.000 75 78 85
323.000 632.000 257.000 74 78 85
323.000 633.000 256.000 76 80 86
323.000 633.000 257.000 76 79 86
322.000 633.000 258.000 75 78 85
322.000 633.000 259.000 72 76 83
323.000 632.000 258.000 74 77 84
323.000 632.000 259.000 75 78 85
323.000 633.000 258.000 74 78 85
323.000 633.000 259.000 74 78 84
322.000 634.000 256.000 78 81 88
322.000 634.000 257.000 77 80 87
322.000 635.000 256.000 78 81 88
322.000 635.000 257.000 77 80 86
322.000 634.000 258.000 74 78 84
322.000 634.000 259.000 74 77 84
322.000 635.000 258.000 74 77 84
322.000 635.000 259.000 73 76 82
323.000 632.000 260.000 73 76 83
323.000 632.000 261.000 72 75 82
323.000 633.000 260.000 74 77 84
323.000 633.000 261.000 71 75 81
323.000 632.000 262.000 77 80 86
323.000 632.000 263.000 72 74 80
323.000 633.000 262.000 76 79 85
323.000 633.000 263.000 71 74 80
322.000 634.000 260.000 75 78 85
322.000 634.000 261.000 75 78 84
322.000 635.000 260.000 74 77 83
322.000 635.000 261.000 76 78 84
323.000 634.000 260.000 76 78 85
323.000 634.000 261.000 73 76 82
322.000 634.000 262.000 72 75 81
322.000 635.000 262.000 75 77 83
323.000 634.000 262.000 75 77 83
323.000 634.000 263.000 74 77 82
323.000 635.000 262.000 76 78 84
323.000 635.000 263.000 77 79 84
321.000 637.000 256.000 75 79 86
321.000 638.000 256.000 75 79 86
321.000 639.000 256.000 75 78 85
322.000 636.000 256.000 77 80 87
322.000 636.000 257.000 77 80 86
322.000 637.000 256.000 76 80 87
322.000 637.000 257.000 77 80 87
322.000 636.000 258.000 74 77 84
322.000 636.000 259.000 72 76 82
322.000 637.000 258.000 75 78 85
322.000 637.000 259.000 73 76 83
322.000 638.000 256.000 76 80 87
322.000 638.000 257.000 76 79 86
322.000 639.000 256.000 76 80 86
322.000 639.000 257.000 77 81 87
322.000 638.000 258.000 76 79 85
322.000 638.000 259.000 75 78 85
322.000 639.000 258.000 77 80 87
322.000 639.000 259.000 76 80 87
322.000 636.000 260.000 73 76 82
322.000 636.000 261.000 74 77 83
322.000 637.000 260.000 73 76 83
322.000 637.000 261.000 74 76 82
322.000 636.000 262.000 75 77 83
322.000 636.000 263.000 77 79 85
322.000 637.000 262.000 73 76 81
322.000 637.000 263.000 77 79 85
323.000 637.000 263.000 78 80 86
322.000 638.000 260.000 74 77 83
322.000 638.000 261.000 75 78 84
322.000 639.000 260.000 75 78 85
322.000 639.000 261.000 77 79 85
322.000 638.000 262.000 76 78 83
323.000 638.000 262.000 77 79 85
323.000 638.000 263.000 79 80 86
323.000 639.000 262.000 79 81 86
323.000 639.000 263.000 77 79 85
324.000 632.000 256.000 75 78 85
323.000 632.000 264.000 74 75 80
323.000 632.000 265.000 80 80 84
323.000 633.000 264.000 72 74 79
323.000 633.000 265.000 80 81 85
323.000 633.000 266.000 81 79 81
323.000 633.000 267.000 79 72 71
323.000 634.000 264.000 71 74 79
323.000 634.000 265.000 77 79 84
323.000 635.000 264.000 73 75 81
323.000 635.000 265.000 75 77 83
323.000 634.000 266.000 84 84 88
323.000 634.000 267.000 81 76 75
323.000 635.000 266.000 83 84 90
323.000 635.000 267.000 84 82 84
323.000 635.000 268.000 83 77 75
323.000 636.000 264.000 74 77 83
323.000 636.000 265.000 73 76 82
323.000 637.000 264.000 77 79 85
323.000 637.000 265.000 76 78 84
323.000 636.000 266.000 79 82 88
323.000 636.000 267.000 84 84 89
323.000 637.000 266.000 78 81 88
323.000 637.000 267.000 83 85 91
323.000 638.000 264.000 78 80 85
323.000 638.000 265.000 79 81 87
323.000 639.000 264.000 79 80 85
323.000 639.000 265.000 80 81 87
323.000 638.000 266.000 79 81 89
323.000 638.000 267.000 83 85 92
323.000 639.000 266.000 79 82 89
323.000 639.000 267.000 81 84 92
323.000 636.000 268.000 84 80 81
323.000 637.000 268.000 86 85 89
323.000 638.000 268.000 85 87 93
323.000 639.000 268.000 82 85 92
324.000 632.000 264.000 79 79 83
324.000 632.000 265.000 82 80 82
324.000 632.000 266.000 80 74 71
324.000 632.000 267.000 88 74 67
324.000 633.000 266.000 79 72 70
324.000 633.000 267.000 83 72 67
324.000 632.000 268.000 96 78 68
324.000 632.000 269.000 100 81 68
324.000 633.000 268.000 92 77 69
324.000 633.000 269.000 99 81 70
324.000 632.000 270.000 102 82 68
324.000 632.000 271.000 106 84 71
324.000 633.000 270.000 103 83 70
324.000 633.000 271.000 108 85 73
324.000 634.000 268.000 86 74 69
324.000 634.000 269.000 97 80 71
324.000 635.000 268.000 85 75 70
324.000 635.000 269.000 92 79 72
324.000 634.000 270.000 104 84 72
324.000 634.000 271.000 109 86 74
324.000 635.000 270.000 103 84 75
324.000 635.000 271.000 110 86 74
324.000 636.000 268.000 86 82 84
324.000 636.000 269.000 87 78 74
324.000 637.000 269.000 86 82 81
324.000 636.000 270.000 100 83 75
324.000 636.000 271.000 110 85 76
324.000 637.000 270.000 93 80 75
324.000 637.000 271.000 106 85 77
324.000 638.000 268.000 86 87 92
324.000 638.000 269.000 86 84 86
324.000 639.000 268.000 83 85 91
324.000 639.000 269.000 87 87 90
324.000 638.000 270.000 90 80 77
324.000 638.000 271.000 100 83 75
324.000 639.000 270.000 88 81 80
324.000 639.000 271.000 94 80 75
329.000 625.000 257.000 71 74 81
328.000 625.000 258.000 72 75 80
328.000 625.000 259.000 72 74 80
329.000 624.000 258.000 70 73 79
329.000 624.000 259.000 71 73 79
329.000 625.000 258.000 71 74 80
328.000 626.000 256.000 72 76 82
328.000 626.000 257.000 72 75 81
328.000 627.000 256.000 72 76 82
329.000 626.000 256.000 71 75 82
329.000 626.000 257.000 71 75 81
328.000 626.000 258.000 72 75 81
328.000 626.000 259.000 73 75 80
330.000 624.000 256.000 69 73 80
330.000 624.000 257.000 69 73 79
330.000 625.000 256.000 70 74 81
330.000 625.000 257.000 70 73 80
328.000 624.000 260.000 71 74 79
328.000 625.000 260.000 73 74 80
328.000 625.000 261.000 73 75 80
328.000 625.000 262.000 73 75 79
323.000 628.000 273.000 109 87 74
323.000 629.000 273.000 109 86 73
323.000 628.000 274.000 110 88 74
323.000 628.000 275.000 112 89 75
323.000 629.000 274.000 111 88 74
323.000 629.000 275.000 113 89 75
323.000 630.000 273.000 109 87 73
323.000 631.000 273.000 111 88 73
323.000 630.000 274.000 111 87 73
323.000 630.000 275.000 113 89 74
323.000 631.000 274.000 113 89 74
323.000 631.000 275.000 114 90 75
323.000 628.000 276.000 113 90 75
323.000 629.000 276.000 114 90 75
323.000 629.000 277.000 114 90 75
323.000 630.000 276.000 115 90 75
323.000 630.000 277.000 115 92 77
323.000 631.000 276.000 116 92 76
323.000 631.000 277.000 116 92 76
323.000 630.000 278.000 115 91 76
324.000 627.000 272.000 102 82 70
324.000 627.000 273.000 106 85 72
324.000 628.000 272.000 104 83 72
324.000 628.000 273.000 107 86 73
324.000 629.000 272.000 105 83 73
324.000 629.000 273.000 107 85 72
324.000 630.000 272.000 106 85 72
324.000 630.000 273.000 108 86 72
324.000 631.000 272.000 107 86 72
324.000 631.000 273.000 109 87 73
323.000 632.000 274.000 114 91 76
323.000 632.000 275.000 115 92 77
323.000 633.000 274.000 115 92 77
323.000 633.000 275.000 116 92 77
323.000 634.000 275.000 117 93 77
323.000 632.000 276.000 116 93 77
323.000 632.000 277.000 117 93 78
323.000 633.000 276.000 117 93 78
324.000 632.000 272.000 109 86 73
324.000 632.000 273.000 111 88 74
324.000 633.000 272.000 110 87 74
324.000 633.000 273.000 113 89 75
324.000 633.000 274.000 115 91 77
324.000 634.000 272.000 112 87 75
324.000 634.000 273.000 114 89 75
324.000 635.000 272.000 113 87 75
324.000 635.000 273.000 114 89 76
324.000 634.000 274.000 116 92 77
324.000 634.000 275.000 117 93 77
324.000 635.000 274.000 117 92 77
324.000 635.000 275.000 117 93 77
324.000 635.000 276.000 117 92 77
324.000 636.000 272.000 112 87 75
324.000 636.000 273.000 115 90 76
324.000 637.000 272.000 111 88 78
324.000 637.000 273.000 114 89 77
324.000 636.000 274.000 117 92 77
324.000 636.000 275.000 118 93 79
324.000 637.000 274.000 117 91 78
324.000 637.000 275.000 119 93 79
324.000 638.000 272.000 108 87 78
324.000 638.000 273.000 113 89 79
324.000 639.000 272.000 103 85 77
324.000 639.000 273.000 112 90 80
324.000 638.000 274.000 117 92 79
324.000 638.000 275.000 120 94 79
324.000 639.000 274.000 117 92 79
324.000 639.000 275.000 120 94 80
325.000 639.000 275.000 119 94 80
321.000 640.000 256.000 74 79 85
321.000 642.000 259.000 80 84 92
321.000 643.000 258.000 79 84 91
321.000 643.000 259.000 81 85 93
322.000 640.000 256.000 75 79 86
322.000 640.000 257.000 77 80 87
322.000 641.000 256.000 75 80 88
322.000 641.000 257.000 77 81 89
322.000 640.000 258.000 77 81 88
322.000 640.000 259.000 76 80 88
322.000 641.000 258.000 78 82 90
322.000 641.000 259.000 78 82 89
322.000 642.000 256.000 77 83 91
322.000 642.000 257.000 78 83 91
322.000 643.000 256.000 79 86 95
322.000 643.000 257.000 79 85 94
322.000 642.000 258.000 79 83 91
322.000 642.000 259.000 79 84 91
322.000 643.000 258.000 79 84 92
322.000 643.000 259.000 81 86 94
321.000 642.000 260.000 81 85 93
322.000 640.000 260.000 76 80 87
322.000 640.000 261.000 77 80 86
322.000 641.000 260.000 77 81 88
322.000 641.000 261.000 79 82 88
323.000 640.000 261.000 77 80 86
323.000 641.000 261.000 79 82 88
323.000 640.000 262.000 80 82 88
323.000 640.000 263.000 81 82 88
323.000 641.000 262.000 82 84 90
323.000 641.000 263.000 83 85 91
322.000 642.000 260.000 78 82 90
322.000 642.000 261.000 79 82 88
322.000 643.000 260.000 80 85 93
322.000 643.000 261.000 80 83 90
323.000 642.000 261.000 81 84 91
323.000 643.000 261.000 81 85 92
323.000 642.000 262.000 83 85 92
323.000 642.000 263.000 83 85 91
323.000 643.000 262.000 84 87 94
323.000 643.000 263.000 84 87 94
322.000 644.000 256.000 79 84 92
322.000 644.000 257.000 79 85 94
322.000 645.000 256.000 77 83 92
322.000 645.000 257.000 78 85 95
322.000 644.000 258.000 79 85 93
322.000 644.000 259.000 83 88 96
322.000 645.000 258.000 81 86 95
322.000 646.000 256.000 78 83 90
322.000 646.000 257.000 79 84 91
322.000 647.000 256.000 77 82 91
322.000 647.000 257.000 76 81 88
322.000 646.000 258.000 82 86 93
322.000 647.000 258.000 80 84 92
323.000 645.000 261.000 89 92 99
323.000 644.000 262.000 88 92 99
323.000 646.000 260.000 88 92 99
324.000 644.000 263.000 88 91 98
324.000 645.000 262.000 93 96 103
324.000 645.000 263.000 92 95 103
324.000 646.000 262.000 95 98 106
324.000 647.000 262.000 96 99 107
323.000 640.000 264.000 80 82 88
323.000 640.000 265.000 80 82 88
323.000 641.000 264.000 83 85 91
323.000 641.000 265.000 80 82 89
323.000 640.000 266.000 81 83 90
323.000 640.000 267.000 79 82 89
323.000 642.000 264.000 84 87 93
324.000 641.000 265.000 79 81 88
324.000 640.000 266.000 80 82 89
324.000 640.000 267.000 80 82 89
324.000 641.000 266.000 80 83 90
324.000 641.000 267.000 79 82 90
324.000 642.000 264.000 83 86 92
324.000 642.000 265.000 80 83 90
324.000 643.000 264.000 83 86 93
324.000 643.000 265.000 81 85 92
324.000 642.000 266.000 78 81 88
324.000 642.000 267.000 79 83 90
324.000 643.000 266.000 79 83 90
324.000 643.000 267.000 81 84 92
324.000 640.000 268.000 82 84 91
324.000 640.000 269.000 87 88 93
324.000 641.000 268.000 81 83 90
324.000 641.000 269.000 86 87 93
324.000 640.000 270.000 89 86 88
324.000 640.000 271.000 90 82 79
324.000 641.000 270.000 91 91 96
324.000 641.000 271.000 90 87 90
324.000 642.000 268.000 80 84 91
324.000 642.000 269.000 84 86 93
324.000 643.000 268.000 81 85 92
324.000 643.000 269.000 81 84 91
324.000 642.000 270.000 89 90 97
324.000 642.000 271.000 90 91 95
324.000 644.000 264.000 84 87 95
324.000 644.000 265.000 83 86 94
324.000 645.000 264.000 86 90 98
325.000 645.000 265.000 82 86 95
325.000 645.000 266.000 84 88 96
325.000 646.000 264.000 86 90 98
325.000 646.000 265.000 83 87 95
325.000 647.000 264.000 88 92 100
325.000 647.000 265.000 84 88 96
322.000 648.000 256.000 79 85 94
322.000 648.000 257.000 79 84 92
322.000 649.000 256.000 80 85 93
322.000 648.000 258.000 80 84 92
322.000 649.000 258.000 77 81 89
322.000 650.000 256.000 76 81 87
322.000 651.000 256.000 76 80 86
322.000 651.000 257.000 75 79 85
323.000 650.000 259.000 78 82 89
323.000 648.000 260.000 83 87 94
323.000 649.000 260.000 82 86 94
322.000 652.000 257.000 75 78 84
324.000 648.000 262.000 96 99 106
324.000 649.000 262.000 91 94 102
324.000 650.000 262.000 89 92 99
325.000 650.000 263.000 89 93 101
325.000 651.000 263.000 90 94 101
325.000 648.000 264.000 88 93 101
325.000 648.000 265.000 86 90 98
325.000 649.000 264.000 90 94 102
325.000 649.000 265.000 88 91 99
325.000 650.000 264.000 90 94 102
325.000 650.000 265.000 89 92 101
325.000 651.000 264.000 90 94 101
325.000 651.000 265.000 90 94 102
326.000 650.000 267.000 90 94 102
326.000 650.000 268.000 91 94 102
325.000 652.000 264.000 89 92 100
325.000 653.000 264.000 83 87 95
326.000 652.000 266.000 92 95 103
327.000 653.000 269.000 90 93 102
327.000 654.000 269.000 90 93 102
324.000 640.000 272.000 97 82 76
324.000 640.000 273.000 108 88 80
324.000 641.000 272.000 91 83 81
324.000 641.000 273.000 97 83 77
325.000 640.000 273.000 112 91 82
325.000 641.000 273.000 100 84 77
325.000 640.000 274.000 116 92 80
325.000 640.000 275.000 119 94 80
325.000 641.000 274.000 111 91 80
325.000 641.000 275.000 117 95 81
324.000 642.000 272.000 91 89 92
325.000 642.000 273.000 92 82 78
325.000 643.000 273.000 91 86 88
325.000 642.000 274.000 102 85 77
325.000 642.000 275.000 112 93 82
325.000 643.000 274.000 93 80 75
325.000 643.000 275.000 104 85 78
326.000 641.000 276.000 123 97 83
326.000 642.000 276.000 120 96 84
326.000 643.000 276.000 116 93 83
328.000 656.000 271.000 92 95 102
328.000 657.000 271.000 90 93 101
329.000 657.000 273.000 90 94 102
