ply
format ascii 1.0
element vertex 541
property float x
property float y
property float z
property uchar red
property uchar green
property uchar blue
end_header
61.000 27.000 174.000 76 69 64
63.000 29.000 171.000 83 75 70
63.000 30.000 171.000 85 77 71
60.000 28.000 175.000 81 73 67
60.000 29.000 175.000 84 76 70
61.000 28.000 174.000 80 72 67
61.000 29.000 174.000 83 76 70
61.000 30.000 174.000 87 78 73
61.000 30.000 175.000 86 78 72
61.000 31.000 174.000 86 78 74
61.000 31.000 175.000 86 78 75
62.000 29.000 173.000 83 75 70
62.000 30.000 173.000 86 78 72
62.000 31.000 173.000 85 78 73
63.000 30.000 172.000 86 77 72
63.000 31.000 172.000 85 78 73
55.000 25.000 185.000 74 67 62
55.000 24.000 186.000 72 65 61
55.000 25.000 186.000 74 67 61
55.000 26.000 185.000 78 70 64
55.000 26.000 186.000 79 71 65
55.000 27.000 186.000 83 74 68
53.000 26.000 191.000 82 74 68
53.000 27.000 191.000 85 77 72
54.000 24.000 189.000 75 68 63
54.000 25.000 188.000 78 70 65
54.000 25.000 189.000 78 71 65
54.000 26.000 188.000 80 72 66
54.000 26.000 189.000 81 72 67
54.000 27.000 188.000 83 74 67
54.000 27.000 189.000 83 74 68
55.000 28.000 185.000 86 77 71
55.000 28.000 186.000 87 78 72
55.000 29.000 186.000 89 81 75
55.000 29.000 187.000 88 80 76
53.000 28.000 191.000 85 79 74
53.000 29.000 191.000 81 75 71
53.000 30.000 191.000 74 68 65
54.000 28.000 188.000 86 78 72
54.000 28.000 189.000 86 78 72
54.000 29.000 188.000 86 79 75
54.000 29.000 189.000 85 77 73
55.000 29.000 188.000 87 80 75
54.000 28.000 190.000 85 77 73
54.000 29.000 190.000 83 76 72
55.000 30.000 188.000 80 73 69
55.000 31.000 188.000 64 58 55
54.000 31.000 191.000 61 56 53
59.000 27.000 177.000 76 70 64
58.000 27.000 178.000 77 70 64
58.000 27.000 179.000 77 70 64
57.000 25.000 180.000 73 67 63
57.000 25.000 181.000 73 67 63
56.000 24.000 183.000 72 66 61
56.000 25.000 183.000 74 67 62
57.000 26.000 180.000 75 69 65
57.000 26.000 181.000 77 70 66
57.000 27.000 180.000 80 73 67
56.000 26.000 182.000 78 71 66
56.000 26.000 183.000 77 70 64
56.000 27.000 182.000 81 73 67
56.000 27.000 183.000 81 73 67
57.000 27.000 182.000 80 73 67
58.000 26.000 180.000 74 68 64
58.000 27.000 180.000 79 71 66
59.000 28.000 177.000 80 72 66
59.000 29.000 177.000 84 76 70
58.000 28.000 178.000 81 72 65
58.000 28.000 179.000 80 71 65
59.000 28.000 178.000 81 72 66
59.000 29.000 178.000 84 75 69
57.000 28.000 180.000 82 74 68
56.000 28.000 183.000 84 75 68
57.000 28.000 182.000 84 75 69
58.000 28.000 180.000 81 73 67
58.000 29.000 180.000 85 76 70
60.000 28.000 176.000 80 72 66
60.000 28.000 177.000 80 72 67
60.000 29.000 176.000 84 76 70
60.000 29.000 177.000 83 75 69
60.000 31.000 176.000 85 78 74
56.000 26.000 184.000 77 70 64
56.000 27.000 184.000 82 73 67
56.000 28.000 184.000 85 76 70
61.000 33.000 175.000 60 57 54
62.000 32.000 173.000 79 72 68
63.000 32.000 172.000 76 70 66
63.000 32.000 173.000 74 68 65
63.000 33.000 172.000 64 60 58
63.000 33.000 173.000 66 61 59
62.000 33.000 174.000 64 60 57
63.000 34.000 172.000 56 54 54
63.000 34.000 173.000 56 54 54
63.000 35.000 173.000 57 55 55
61.000 38.000 175.000 57 54 53
61.000 39.000 175.000 58 55 53
62.000 36.000 174.000 58 55 54
62.000 37.000 174.000 57 54 53
62.000 37.000 175.000 57 54 53
63.000 38.000 173.000 56 53 52
63.000 39.000 173.000 57 54 53
62.000 38.000 174.000 57 54 53
62.000 38.000 175.000 57 54 53
62.000 39.000 175.000 58 55 53
63.000 38.000 174.000 56 53 52
63.000 39.000 174.000 57 54 53
61.000 41.000 175.000 60 56 54
63.000 40.000 173.000 57 54 53
63.000 41.000 173.000 58 55 54
62.000 40.000 174.000 58 55 54
62.000 40.000 175.000 59 55 54
62.000 41.000 175.000 59 56 54
63.000 40.000 174.000 58 55 54
63.000 41.000 174.000 59 56 54
62.000 42.000 175.000 61 57 55
54.000 32.000 191.000 59 54 51
54.000 39.000 191.000 70 63 58
55.000 41.000 188.000 70 63 58
55.000 45.000 187.000 76 66 59
55.000 46.000 185.000 78 67 59
55.000 47.000 185.000 78 68 59
55.000 46.000 186.000 78 68 59
55.000 47.000 186.000 79 68 59
53.000 44.000 191.000 75 66 58
53.000 45.000 191.000 76 66 59
53.000 46.000 191.000 76 66 59
53.000 47.000 191.000 76 66 58
54.000 44.000 189.000 73 64 58
54.000 45.000 188.000 75 65 57
54.000 45.000 189.000 74 64 57
61.000 37.000 176.000 57 54 53
60.000 39.000 177.000 58 54 53
61.000 38.000 176.000 57 54 52
61.000 39.000 176.000 58 54 52
60.000 39.000 178.000 59 55 54
56.000 36.000 187.000 62 57 53
59.000 41.000 178.000 61 57 54
59.000 41.000 179.000 62 57 54
59.000 42.000 179.000 64 59 56
59.000 43.000 179.000 65 60 56
57.000 41.000 182.000 64 58 55
57.000 41.000 183.000 65 59 55
58.000 41.000 180.000 62 57 55
58.000 41.000 181.000 63 58 54
59.000 40.000 180.000 60 56 54
59.000 41.000 180.000 62 57 54
58.000 42.000 181.000 66 60 56
58.000 43.000 180.000 66 60 56
58.000 43.000 181.000 67 61 56
59.000 42.000 180.000 65 59 56
59.000 43.000 180.000 66 60 57
59.000 44.000 178.000 66 60 56
59.000 44.000 179.000 66 60 56
59.000 45.000 178.000 67 61 57
59.000 45.000 179.000 67 61 57
59.000 46.000 178.000 68 61 57
56.000 45.000 183.000 75 67 61
57.000 44.000 183.000 71 64 58
58.000 44.000 180.000 68 61 57
58.000 44.000 181.000 69 62 57
58.000 45.000 180.000 69 62 57
58.000 45.000 181.000 70 62 57
59.000 44.000 180.000 67 60 57
58.000 46.000 180.000 70 62 57
58.000 46.000 181.000 71 63 57
60.000 40.000 177.000 59 55 53
60.000 41.000 177.000 61 56 54
61.000 40.000 176.000 60 56 54
61.000 41.000 176.000 61 56 54
61.000 41.000 177.000 61 57 54
60.000 40.000 178.000 59 55 54
60.000 41.000 178.000 61 57 54
60.000 42.000 177.000 63 58 55
61.000 42.000 176.000 62 58 55
60.000 42.000 178.000 63 58 55
56.000 41.000 185.000 68 61 56
57.000 41.000 184.000 65 59 55
56.000 41.000 186.000 68 61 56
55.000 49.000 184.000 79 68 59
54.000 48.000 187.000 78 67 58
54.000 49.000 186.000 79 67 58
54.000 49.000 187.000 79 67 58
55.000 50.000 184.000 78 67 59
54.000 50.000 186.000 78 67 58
53.000 48.000 190.000 76 66 57
53.000 49.000 190.000 75 65 57
53.000 50.000 189.000 75 64 55
47.000 28.000 209.000 49 46 44
47.000 29.000 209.000 51 48 46
47.000 30.000 209.000 54 50 49
47.000 31.000 208.000 56 51 49
47.000 31.000 209.000 56 51 49
46.000 30.000 211.000 55 51 48
46.000 31.000 211.000 57 52 48
47.000 30.000 210.000 54 50 48
47.000 31.000 210.000 56 52 49
45.000 29.000 214.000 55 51 48
45.000 31.000 213.000 58 53 50
44.000 31.000 215.000 61 54 50
45.000 30.000 214.000 57 52 49
45.000 31.000 214.000 59 53 49
46.000 30.000 212.000 55 51 49
46.000 31.000 212.000 57 53 50
46.000 31.000 213.000 58 53 50
43.000 30.000 217.000 60 53 49
43.000 31.000 217.000 62 55 50
42.000 30.000 219.000 61 55 50
42.000 31.000 219.000 63 56 51
43.000 31.000 218.000 62 55 50
43.000 31.000 219.000 62 55 50
41.000 29.000 222.000 61 54 50
41.000 30.000 221.000 63 57 52
40.000 30.000 223.000 64 57 52
41.000 30.000 222.000 63 56 51
41.000 31.000 222.000 65 58 53
41.000 31.000 223.000 65 58 53
42.000 28.000 220.000 58 53 50
42.000 30.000 221.000 62 56 51
42.000 31.000 220.000 64 57 51
44.000 29.000 216.000 56 51 48
44.000 30.000 216.000 58 53 49
51.000 27.000 199.000 76 69 65
51.000 28.000 198.000 74 67 63
51.000 29.000 198.000 66 60 55
51.000 29.000 199.000 64 58 54
51.000 30.000 198.000 59 53 48
53.000 25.000 192.000 79 71 65
53.000 26.000 192.000 82 74 68
53.000 26.000 193.000 82 73 67
53.000 27.000 192.000 85 78 72
53.000 27.000 193.000 85 77 72
52.000 27.000 195.000 84 76 71
52.000 27.000 196.000 82 74 69
53.000 28.000 192.000 85 78 74
53.000 28.000 193.000 85 77 73
53.000 29.000 192.000 80 74 71
53.000 29.000 193.000 77 71 67
52.000 28.000 195.000 81 74 70
52.000 29.000 195.000 74 67 63
53.000 29.000 194.000 74 68 63
53.000 30.000 192.000 70 64 61
53.000 30.000 193.000 69 63 59
52.000 30.000 195.000 64 58 53
52.000 31.000 195.000 62 56 52
53.000 30.000 195.000 66 59 54
53.000 31.000 194.000 63 57 53
53.000 31.000 195.000 63 57 53
54.000 31.000 192.000 61 56 52
52.000 28.000 196.000 80 74 69
52.000 29.000 196.000 72 66 62
52.000 31.000 197.000 59 53 49
50.000 27.000 202.000 68 62 58
49.000 31.000 203.000 54 49 47
50.000 28.000 201.000 61 55 51
50.000 29.000 201.000 55 50 45
50.000 30.000 200.000 54 49 46
50.000 31.000 200.000 56 51 48
51.000 30.000 200.000 55 50 46
50.000 31.000 203.000 53 49 46
48.000 29.000 207.000 50 46 44
48.000 31.000 205.000 54 50 47
49.000 30.000 204.000 53 48 45
49.000 31.000 204.000 53 49 46
48.000 30.000 206.000 52 48 46
48.000 30.000 207.000 52 48 46
48.000 31.000 206.000 54 50 48
48.000 31.000 207.000 55 51 48
39.000 28.000 226.000 58 53 50
39.000 29.000 226.000 59 54 50
39.000 29.000 227.000 60 55 53
39.000 31.000 225.000 66 58 53
39.000 30.000 226.000 62 56 51
39.000 30.000 227.000 61 56 51
39.000 31.000 226.000 65 58 53
37.000 29.000 231.000 65 59 55
37.000 30.000 231.000 65 59 55
37.000 31.000 230.000 64 58 55
38.000 28.000 228.000 61 57 55
38.000 30.000 229.000 63 58 54
38.000 31.000 228.000 64 58 54
38.000 31.000 229.000 64 59 56
35.000 30.000 235.000 72 62 56
35.000 30.000 236.000 74 63 56
35.000 31.000 236.000 76 65 57
36.000 29.000 232.000 67 60 55
36.000 29.000 233.000 66 59 54
36.000 30.000 232.000 67 61 57
36.000 30.000 233.000 68 61 55
36.000 31.000 233.000 70 62 57
40.000 29.000 224.000 60 54 50
40.000 29.000 225.000 60 54 50
40.000 30.000 224.000 63 57 52
40.000 30.000 225.000 63 56 52
40.000 31.000 224.000 66 59 54
40.000 31.000 225.000 66 59 54
47.000 45.000 204.000 84 73 64
47.000 45.000 206.000 85 73 64
47.000 45.000 207.000 84 72 62
47.000 46.000 206.000 84 73 64
47.000 32.000 208.000 57 52 49
47.000 32.000 209.000 57 52 49
46.000 32.000 210.000 59 53 49
46.000 32.000 211.000 59 53 49
46.000 33.000 211.000 61 55 50
47.000 32.000 210.000 58 53 49
47.000 34.000 209.000 61 55 50
47.000 35.000 208.000 62 56 52
46.000 35.000 211.000 66 58 53
45.000 32.000 213.000 60 55 51
45.000 33.000 212.000 62 56 51
45.000 33.000 213.000 62 56 51
44.000 32.000 215.000 62 55 50
44.000 33.000 215.000 64 57 51
45.000 32.000 214.000 61 55 50
45.000 32.000 215.000 61 54 50
45.000 33.000 214.000 64 57 52
45.000 34.000 213.000 65 58 52
44.000 34.000 214.000 66 59 53
44.000 34.000 215.000 66 59 52
44.000 35.000 214.000 68 60 53
44.000 35.000 215.000 69 60 54
45.000 34.000 214.000 66 58 53
46.000 32.000 212.000 59 53 50
46.000 34.000 212.000 63 56 51
46.000 36.000 211.000 69 61 54
45.000 36.000 213.000 70 62 55
44.000 37.000 215.000 72 63 56
45.000 38.000 213.000 74 64 56
43.000 32.000 217.000 64 57 51
43.000 33.000 217.000 66 58 52
42.000 32.000 219.000 65 58 52
42.000 33.000 219.000 67 59 53
43.000 32.000 218.000 65 57 51
43.000 33.000 218.000 66 58 52
43.000 35.000 217.000 70 61 54
42.000 34.000 218.000 69 60 54
42.000 34.000 219.000 69 60 54
42.000 35.000 219.000 71 61 55
43.000 34.000 218.000 69 60 54
43.000 35.000 218.000 71 61 55
41.000 33.000 221.000 69 61 55
41.000 32.000 222.000 67 60 54
41.000 33.000 222.000 69 61 55
41.000 34.000 220.000 70 62 55
41.000 34.000 221.000 71 62 55
41.000 35.000 221.000 74 64 57
40.000 34.000 223.000 73 63 57
40.000 35.000 223.000 75 65 58
41.000 34.000 222.000 71 62 55
42.000 32.000 220.000 67 59 53
43.000 36.000 216.000 71 62 55
43.000 36.000 217.000 72 62 56
43.000 37.000 216.000 73 64 56
43.000 37.000 217.000 74 64 57
42.000 36.000 219.000 73 63 56
42.000 37.000 218.000 75 64 58
42.000 37.000 219.000 75 64 57
41.000 38.000 221.000 80 68 60
41.000 39.000 221.000 82 70 61
40.000 38.000 223.000 83 70 62
40.000 39.000 223.000 84 72 63
41.000 38.000 222.000 81 69 60
41.000 39.000 222.000 83 71 61
44.000 32.000 216.000 63 56 50
44.000 33.000 216.000 65 57 51
44.000 34.000 216.000 67 59 52
44.000 35.000 216.000 69 61 54
43.000 47.000 215.000 85 73 65
45.000 47.000 211.000 84 73 65
45.000 44.000 212.000 83 71 61
45.000 45.000 212.000 85 74 65
44.000 46.000 212.000 86 75 67
44.000 47.000 212.000 85 74 66
45.000 46.000 212.000 86 75 67
43.000 41.000 217.000 80 69 60
42.000 41.000 219.000 82 71 62
42.000 43.000 217.000 80 68 59
43.000 42.000 217.000 80 69 60
43.000 43.000 216.000 80 68 59
43.000 43.000 217.000 79 67 58
42.000 42.000 219.000 81 69 60
42.000 43.000 218.000 81 70 60
42.000 43.000 219.000 83 72 63
40.000 40.000 223.000 86 74 65
41.000 41.000 222.000 85 72 62
41.000 42.000 222.000 85 72 62
41.000 42.000 223.000 88 76 67
41.000 43.000 222.000 90 78 70
41.000 43.000 223.000 93 82 74
42.000 42.000 221.000 83 71 60
42.000 44.000 217.000 82 70 61
42.000 44.000 218.000 86 75 67
42.000 45.000 218.000 89 79 71
46.000 48.000 207.000 82 72 64
45.000 48.000 210.000 80 70 62
45.000 48.000 211.000 81 70 62
45.000 49.000 210.000 78 67 60
45.000 50.000 210.000 79 68 61
51.000 33.000 197.000 62 56 51
51.000 32.000 199.000 58 53 49
51.000 33.000 198.000 61 54 50
51.000 33.000 199.000 59 53 49
51.000 37.000 198.000 67 60 55
53.000 32.000 192.000 60 55 53
53.000 32.000 194.000 63 58 54
53.000 35.000 194.000 67 60 55
54.000 32.000 192.000 59 54 51
52.000 32.000 197.000 60 54 50
52.000 33.000 196.000 63 57 53
50.000 32.000 202.000 56 51 48
50.000 34.000 201.000 60 54 50
49.000 32.000 204.000 55 50 48
49.000 32.000 205.000 54 50 47
49.000 33.000 204.000 57 52 50
49.000 33.000 205.000 56 52 49
48.000 33.000 207.000 58 53 50
48.000 34.000 205.000 58 53 50
48.000 35.000 205.000 60 55 51
48.000 34.000 206.000 58 53 50
48.000 35.000 206.000 59 54 50
48.000 38.000 203.000 66 59 54
49.000 38.000 202.000 65 58 54
51.000 47.000 193.000 82 70 63
49.000 46.000 199.000 80 69 61
49.000 47.000 199.000 80 69 61
51.000 45.000 196.000 82 70 61
50.000 45.000 199.000 79 68 60
50.000 47.000 197.000 81 70 61
51.000 46.000 196.000 83 70 62
51.000 47.000 196.000 84 71 63
50.000 46.000 199.000 80 69 60
50.000 47.000 199.000 80 69 61
53.000 40.000 192.000 73 65 58
53.000 40.000 193.000 74 65 58
52.000 40.000 195.000 75 65 57
52.000 44.000 194.000 82 70 62
52.000 47.000 193.000 80 69 61
49.000 42.000 201.000 74 64 58
49.000 43.000 201.000 75 65 58
48.000 45.000 201.000 80 70 62
49.000 44.000 201.000 76 66 58
49.000 45.000 201.000 79 68 60
48.000 45.000 202.000 82 71 63
48.000 45.000 203.000 83 72 63
48.000 46.000 201.000 82 71 63
49.000 46.000 200.000 81 70 62
49.000 46.000 201.000 82 71 63
49.000 47.000 200.000 81 69 61
49.000 47.000 201.000 82 71 63
48.000 46.000 202.000 83 73 64
48.000 46.000 203.000 84 73 64
48.000 47.000 202.000 84 73 64
48.000 32.000 208.000 56 51 49
49.000 48.000 201.000 83 72 64
49.000 49.000 201.000 83 73 66
48.000 49.000 202.000 83 73 66
48.000 51.000 201.000 77 67 59
38.000 32.000 227.000 65 59 54
38.000 33.000 227.000 67 60 55
39.000 32.000 226.000 67 60 54
39.000 32.000 227.000 66 59 53
39.000 33.000 226.000 69 61 56
39.000 33.000 227.000 69 62 56
39.000 34.000 226.000 72 63 57
39.000 34.000 227.000 71 62 56
39.000 35.000 226.000 74 65 58
39.000 35.000 227.000 73 64 57
37.000 32.000 230.000 65 59 57
37.000 32.000 231.000 66 60 58
37.000 33.000 230.000 65 60 57
37.000 33.000 231.000 67 60 58
37.000 34.000 230.000 66 60 56
37.000 34.000 231.000 68 61 56
37.000 35.000 231.000 68 61 57
38.000 32.000 228.000 64 58 54
38.000 32.000 229.000 65 59 56
38.000 33.000 228.000 66 59 55
38.000 33.000 229.000 66 60 56
38.000 34.000 229.000 67 60 56
38.000 35.000 228.000 69 61 55
38.000 35.000 229.000 68 61 55
39.000 36.000 227.000 75 65 58
39.000 39.000 226.000 82 70 61
39.000 39.000 227.000 79 68 60
37.000 36.000 230.000 69 61 57
37.000 36.000 231.000 70 63 58
37.000 37.000 230.000 69 62 57
37.000 37.000 231.000 71 63 57
38.000 36.000 229.000 69 61 55
38.000 37.000 228.000 73 63 56
38.000 37.000 229.000 71 62 55
38.000 36.000 230.000 69 61 55
38.000 37.000 230.000 70 62 56
38.000 38.000 228.000 74 64 56
38.000 39.000 229.000 72 64 57
39.000 38.000 228.000 75 65 58
39.000 39.000 228.000 75 66 58
39.000 39.000 229.000 74 64 58
36.000 32.000 232.000 70 63 59
36.000 32.000 233.000 72 63 57
36.000 33.000 232.000 70 63 58
36.000 33.000 233.000 72 63 57
36.000 32.000 234.000 74 64 57
36.000 33.000 234.000 75 65 58
36.000 34.000 232.000 70 62 57
36.000 34.000 233.000 74 64 58
36.000 35.000 233.000 76 66 59
37.000 35.000 232.000 70 62 57
36.000 34.000 234.000 77 66 59
36.000 35.000 234.000 79 67 59
37.000 36.000 232.000 73 64 58
37.000 36.000 233.000 76 66 59
37.000 37.000 232.000 74 65 59
37.000 37.000 233.000 78 66 59
39.000 40.000 227.000 78 67 60
39.000 40.000 228.000 76 66 58
40.000 32.000 224.000 68 60 55
40.000 33.000 224.000 71 63 57
40.000 34.000 224.000 72 64 57
40.000 35.000 224.000 76 66 59
40.000 36.000 224.000 79 67 60
40.000 37.000 225.000 82 70 61
40.000 38.000 224.000 83 71 62
40.000 39.000 224.000 85 73 64
40.000 39.000 225.000 84 72 63
40.000 39.000 226.000 82 70 62
40.000 40.000 224.000 86 73 64
40.000 41.000 224.000 85 72 62
64.000 30.000 170.000 84 76 70
64.000 32.000 171.000 74 67 64
64.000 33.000 171.000 62 58 55
65.000 32.000 170.000 74 67 63
64.000 34.000 171.000 56 53 53
64.000 35.000 171.000 57 54 54
65.000 35.000 170.000 56 54 53
64.000 34.000 172.000 55 53 53
64.000 36.000 171.000 56 53 52
65.000 36.000 171.000 56 53 52
64.000 36.000 172.000 56 53 52
64.000 37.000 172.000 56 53 52
64.000 38.000 172.000 56 53 52
