ply
format ascii 1.0
element vertex 579
property float x
property float y
property float z
property uchar red
property uchar green
property uchar blue
end_header
230.000 983.000 322.000 50 52 56
236.000 983.000 328.000 51 52 56
237.000 983.000 328.000 54 55 58
238.000 983.000 328.000 55 55 59
239.000 983.000 328.000 53 54 57
239.000 984.000 327.000 50 50 53
237.000 984.000 328.000 57 57 60
255.000 972.000 326.000 59 56 56
255.000 973.000 326.000 57 56 57
255.000 974.000 326.000 60 60 62
255.000 975.000 326.000 58 57 60
240.000 983.000 327.000 49 50 53
240.000 984.000 327.000 46 47 50
240.000 985.000 327.000 44 45 48
241.000 984.000 327.000 45 46 48
241.000 985.000 327.000 45 45 48
243.000 987.000 326.000 49 50 53
245.000 987.000 327.000 53 54 56
247.000 985.000 327.000 52 51 53
246.000 986.000 327.000 53 53 55
246.000 987.000 327.000 55 55 58
247.000 986.000 327.000 53 53 54
247.000 987.000 327.000 56 56 59
245.000 989.000 326.000 46 48 52
245.000 991.000 325.000 52 53 56
245.000 990.000 326.000 48 50 53
246.000 988.000 327.000 56 57 61
246.000 989.000 327.000 56 57 61
247.000 988.000 327.000 60 60 64
247.000 989.000 327.000 60 61 64
246.000 990.000 326.000 57 58 61
246.000 991.000 326.000 55 55 58
247.000 990.000 326.000 53 54 57
247.000 990.000 327.000 57 58 61
247.000 991.000 326.000 48 49 52
250.000 983.000 327.000 45 44 45
251.000 982.000 327.000 41 41 42
251.000 983.000 327.000 42 41 42
254.000 977.000 327.000 53 53 56
255.000 976.000 326.000 54 54 56
255.000 977.000 326.000 53 52 56
255.000 977.000 327.000 54 53 57
254.000 978.000 327.000 51 51 55
254.000 979.000 327.000 42 43 46
255.000 978.000 327.000 52 52 56
255.000 979.000 327.000 46 47 50
252.000 981.000 327.000 39 39 41
253.000 980.000 327.000 37 38 41
253.000 981.000 327.000 37 37 40
252.000 982.000 327.000 39 39 41
252.000 983.000 327.000 42 42 44
253.000 982.000 327.000 37 38 40
254.000 980.000 327.000 38 39 42
254.000 981.000 327.000 36 38 41
255.000 980.000 327.000 40 41 44
255.000 981.000 327.000 40 41 44
254.000 982.000 327.000 35 37 40
255.000 982.000 327.000 44 45 48
255.000 983.000 327.000 49 50 53
252.000 982.000 328.000 40 40 42
252.000 983.000 328.000 40 41 43
253.000 982.000 328.000 36 37 40
253.000 983.000 328.000 41 42 45
254.000 982.000 328.000 34 36 39
254.000 983.000 328.000 40 42 45
255.000 983.000 328.000 46 47 51
248.000 985.000 327.000 54 53 55
249.000 984.000 327.000 53 52 53
249.000 985.000 327.000 57 56 58
248.000 986.000 327.000 56 56 57
248.000 987.000 327.000 60 59 61
249.000 986.000 327.000 60 59 61
249.000 987.000 327.000 63 62 64
250.000 984.000 327.000 52 50 52
250.000 985.000 327.000 56 54 56
251.000 984.000 327.000 48 47 48
251.000 985.000 327.000 51 50 51
250.000 986.000 327.000 58 57 59
250.000 987.000 327.000 62 61 63
251.000 986.000 327.000 53 53 54
251.000 987.000 327.000 58 57 59
248.000 988.000 327.000 63 62 65
248.000 989.000 327.000 62 62 65
249.000 988.000 327.000 65 64 67
249.000 989.000 327.000 64 63 66
248.000 990.000 326.000 56 57 61
248.000 990.000 327.000 58 58 62
248.000 991.000 326.000 56 57 61
249.000 990.000 326.000 59 59 63
249.000 990.000 327.000 60 61 64
249.000 991.000 326.000 59 60 64
250.000 988.000 327.000 65 64 66
250.000 989.000 327.000 64 64 66
251.000 988.000 327.000 63 62 65
251.000 989.000 327.000 62 62 65
250.000 990.000 326.000 61 61 64
250.000 990.000 327.000 62 61 64
250.000 991.000 326.000 59 60 63
251.000 990.000 326.000 61 61 63
251.000 990.000 327.000 61 60 63
251.000 991.000 326.000 59 59 62
252.000 984.000 327.000 46 46 49
252.000 985.000 327.000 50 49 52
252.000 986.000 327.000 51 51 54
252.000 987.000 327.000 56 56 59
253.000 986.000 327.000 53 54 57
253.000 987.000 327.000 57 57 61
254.000 985.000 327.000 49 50 54
255.000 984.000 327.000 53 53 57
255.000 985.000 327.000 51 52 56
254.000 986.000 327.000 52 53 57
254.000 987.000 327.000 56 57 61
255.000 986.000 327.000 54 55 59
255.000 987.000 327.000 59 60 65
252.000 988.000 327.000 61 61 64
252.000 989.000 327.000 60 60 63
253.000 988.000 327.000 60 61 65
253.000 989.000 327.000 59 60 63
252.000 990.000 326.000 59 59 62
252.000 990.000 327.000 59 58 61
252.000 991.000 326.000 57 57 61
253.000 990.000 326.000 59 59 63
253.000 990.000 327.000 59 58 61
253.000 991.000 326.000 56 57 61
254.000 988.000 327.000 59 60 65
254.000 989.000 327.000 59 60 64
255.000 988.000 327.000 60 61 65
255.000 989.000 327.000 61 62 66
255.000 991.000 325.000 60 63 68
254.000 990.000 326.000 59 59 63
254.000 990.000 327.000 60 60 63
254.000 991.000 326.000 55 56 60
255.000 990.000 326.000 61 60 64
255.000 991.000 326.000 58 59 64
252.000 984.000 328.000 47 47 50
252.000 985.000 328.000 49 50 53
253.000 984.000 328.000 47 47 50
253.000 985.000 328.000 49 50 53
253.000 986.000 328.000 52 52 56
254.000 984.000 328.000 44 45 49
254.000 985.000 328.000 47 49 52
255.000 984.000 328.000 48 49 53
247.000 992.000 325.000 48 49 52
248.000 992.000 325.000 58 58 61
249.000 992.000 325.000 60 60 63
271.000 981.000 319.000 44 41 41
271.000 982.000 319.000 43 40 40
273.000 971.000 319.000 149 110 92
274.000 970.000 319.000 157 117 98
274.000 971.000 319.000 151 113 93
275.000 971.000 318.000 149 113 93
275.000 971.000 319.000 150 114 94
273.000 972.000 319.000 142 106 89
273.000 973.000 319.000 128 97 81
272.000 974.000 319.000 106 82 71
272.000 975.000 319.000 92 72 64
273.000 974.000 319.000 112 87 75
273.000 975.000 319.000 96 76 66
274.000 972.000 319.000 146 110 92
274.000 973.000 319.000 131 99 82
275.000 972.000 318.000 144 109 89
275.000 972.000 319.000 147 111 91
275.000 973.000 318.000 133 101 84
274.000 974.000 318.000 114 88 74
274.000 974.000 319.000 114 88 76
274.000 975.000 318.000 99 81 70
274.000 975.000 319.000 98 80 69
275.000 974.000 318.000 115 89 76
275.000 975.000 318.000 98 80 68
277.000 971.000 317.000 146 111 93
276.000 971.000 318.000 146 110 89
277.000 971.000 318.000 146 111 92
278.000 971.000 317.000 143 109 92
279.000 971.000 316.000 140 109 92
279.000 971.000 317.000 141 107 91
276.000 973.000 317.000 127 96 83
277.000 972.000 317.000 141 107 90
277.000 973.000 317.000 127 95 81
276.000 972.000 318.000 142 107 88
276.000 973.000 318.000 134 101 85
276.000 974.000 317.000 109 82 70
276.000 975.000 317.000 96 75 65
277.000 974.000 317.000 106 79 67
277.000 975.000 317.000 89 71 61
276.000 974.000 318.000 112 85 73
276.000 975.000 318.000 92 73 64
278.000 972.000 317.000 137 103 88
278.000 973.000 317.000 123 91 78
279.000 972.000 316.000 137 107 93
279.000 972.000 317.000 137 104 90
279.000 973.000 316.000 121 93 81
279.000 973.000 317.000 120 90 78
278.000 974.000 317.000 102 77 66
278.000 975.000 317.000 86 68 59
279.000 974.000 316.000 101 77 68
279.000 974.000 317.000 99 75 66
279.000 975.000 317.000 85 69 61
280.000 972.000 316.000 134 105 91
280.000 973.000 316.000 123 96 85
272.000 976.000 319.000 71 58 52
272.000 977.000 319.000 58 51 47
273.000 976.000 319.000 75 62 54
273.000 977.000 319.000 64 56 51
272.000 978.000 319.000 54 49 46
272.000 979.000 319.000 50 46 45
273.000 978.000 319.000 57 50 47
273.000 979.000 319.000 53 48 46
274.000 976.000 318.000 84 72 65
274.000 976.000 319.000 81 69 62
274.000 977.000 318.000 71 63 58
274.000 977.000 319.000 70 62 57
275.000 976.000 318.000 81 69 63
275.000 977.000 318.000 65 56 52
274.000 978.000 318.000 60 54 51
274.000 978.000 319.000 60 54 51
274.000 979.000 318.000 54 49 47
274.000 979.000 319.000 55 50 48
275.000 978.000 318.000 56 51 49
275.000 979.000 318.000 52 48 47
272.000 980.000 319.000 49 46 46
272.000 981.000 319.000 47 44 44
273.000 980.000 318.000 50 47 46
273.000 980.000 319.000 52 49 48
273.000 981.000 318.000 50 46 46
273.000 981.000 319.000 50 47 46
272.000 982.000 319.000 48 45 45
273.000 982.000 318.000 52 49 48
274.000 980.000 318.000 51 47 47
274.000 981.000 318.000 50 47 46
275.000 980.000 318.000 49 46 46
275.000 981.000 318.000 51 48 47
274.000 982.000 318.000 51 48 47
277.000 976.000 317.000 69 56 48
277.000 977.000 317.000 59 51 46
276.000 976.000 318.000 72 59 52
276.000 977.000 318.000 57 48 43
277.000 976.000 318.000 64 52 46
277.000 977.000 318.000 57 49 45
276.000 978.000 318.000 53 48 46
276.000 979.000 318.000 53 50 49
277.000 978.000 318.000 52 48 45
277.000 979.000 318.000 54 50 50
278.000 976.000 317.000 66 55 47
278.000 977.000 317.000 60 53 49
279.000 976.000 317.000 70 61 55
278.000 978.000 317.000 57 51 48
278.000 978.000 318.000 55 50 47
276.000 980.000 318.000 54 51 50
277.000 980.000 318.000 56 53 52
256.000 971.000 326.000 76 66 63
257.000 971.000 326.000 73 65 65
258.000 970.000 325.000 88 69 70
258.000 971.000 325.000 69 62 63
259.000 970.000 325.000 92 75 75
259.000 971.000 325.000 66 56 58
258.000 970.000 326.000 81 66 65
258.000 971.000 326.000 72 65 65
256.000 972.000 326.000 59 56 58
256.000 973.000 326.000 57 56 58
257.000 972.000 326.000 64 63 65
257.000 973.000 326.000 59 58 60
256.000 974.000 326.000 59 59 61
256.000 975.000 326.000 55 55 57
257.000 974.000 326.000 57 57 59
257.000 975.000 326.000 53 53 55
258.000 972.000 325.000 64 63 65
258.000 973.000 325.000 61 60 62
259.000 972.000 325.000 58 55 57
259.000 973.000 325.000 58 56 59
258.000 973.000 326.000 59 58 60
259.000 974.000 325.000 52 51 53
258.000 974.000 326.000 57 56 58
258.000 975.000 326.000 54 53 56
259.000 974.000 326.000 51 50 52
259.000 975.000 326.000 51 50 52
261.000 969.000 325.000 134 110 103
260.000 970.000 325.000 96 79 79
260.000 971.000 325.000 70 58 59
261.000 970.000 325.000 102 84 83
261.000 971.000 325.000 78 66 66
262.000 969.000 325.000 138 113 104
263.000 969.000 325.000 142 115 105
262.000 970.000 325.000 112 94 90
262.000 971.000 325.000 91 77 75
263.000 970.000 324.000 113 94 88
263.000 970.000 325.000 119 99 92
263.000 971.000 324.000 103 87 84
263.000 971.000 325.000 97 82 80
260.000 972.000 325.000 60 54 56
260.000 973.000 325.000 55 52 55
261.000 972.000 325.000 66 59 61
261.000 973.000 325.000 52 49 52
260.000 974.000 325.000 48 47 50
260.000 975.000 325.000 45 45 48
261.000 974.000 325.000 46 46 49
261.000 975.000 325.000 47 47 50
260.000 975.000 326.000 47 47 49
262.000 972.000 325.000 73 64 64
262.000 973.000 325.000 57 52 55
263.000 972.000 324.000 84 71 70
263.000 972.000 325.000 80 68 67
263.000 973.000 324.000 69 64 65
263.000 973.000 325.000 65 59 61
262.000 974.000 325.000 54 53 56
262.000 975.000 325.000 53 53 55
263.000 974.000 324.000 63 61 63
263.000 974.000 325.000 59 58 60
263.000 975.000 325.000 58 58 60
266.000 970.000 323.000 142 112 96
266.000 971.000 323.000 130 103 91
267.000 970.000 323.000 148 114 96
267.000 971.000 323.000 136 105 91
264.000 969.000 325.000 147 117 104
264.000 970.000 324.000 126 104 94
264.000 971.000 324.000 111 92 86
265.000 970.000 324.000 135 110 96
265.000 971.000 324.000 122 100 90
266.000 970.000 324.000 143 114 97
266.000 971.000 324.000 132 106 93
265.000 973.000 323.000 84 74 69
265.000 974.000 323.000 71 62 59
265.000 975.000 323.000 61 54 52
266.000 972.000 323.000 112 88 79
266.000 973.000 323.000 89 76 69
267.000 972.000 323.000 117 89 77
267.000 973.000 323.000 94 77 68
266.000 974.000 323.000 75 64 61
266.000 975.000 323.000 63 54 52
267.000 974.000 322.000 81 67 61
267.000 974.000 323.000 79 66 60
267.000 975.000 322.000 65 55 50
267.000 975.000 323.000 64 54 50
264.000 972.000 324.000 93 79 75
264.000 973.000 324.000 77 70 69
265.000 972.000 324.000 103 85 78
265.000 973.000 324.000 81 73 69
264.000 974.000 324.000 66 62 62
264.000 975.000 324.000 60 57 58
265.000 974.000 324.000 67 61 59
265.000 975.000 324.000 60 54 54
268.000 971.000 322.000 143 110 93
268.000 971.000 323.000 141 108 92
269.000 971.000 322.000 146 111 92
270.000 971.000 321.000 148 110 92
271.000 971.000 320.000 147 107 90
271.000 971.000 321.000 149 109 91
270.000 971.000 322.000 150 112 93
269.000 972.000 321.000 133 101 85
269.000 973.000 321.000 116 90 78
268.000 972.000 322.000 128 99 83
268.000 972.000 323.000 127 96 82
268.000 973.000 322.000 106 84 72
269.000 972.000 322.000 136 104 87
269.000 973.000 322.000 114 90 78
269.000 974.000 321.000 91 73 63
269.000 975.000 321.000 74 61 53
268.000 974.000 322.000 84 69 60
268.000 975.000 322.000 67 56 49
269.000 974.000 322.000 88 70 61
269.000 975.000 322.000 71 59 52
270.000 972.000 321.000 138 103 87
270.000 973.000 321.000 118 90 78
271.000 972.000 320.000 137 100 86
271.000 972.000 321.000 139 102 86
271.000 973.000 320.000 121 90 78
271.000 973.000 321.000 120 90 78
270.000 974.000 321.000 96 76 66
270.000 975.000 321.000 77 62 54
271.000 974.000 320.000 100 77 66
271.000 975.000 320.000 84 66 57
256.000 976.000 326.000 52 52 55
256.000 977.000 326.000 54 54 57
256.000 977.000 327.000 53 53 56
257.000 976.000 326.000 53 53 56
257.000 977.000 326.000 53 54 57
257.000 977.000 327.000 53 53 57
256.000 978.000 327.000 52 52 56
256.000 979.000 327.000 49 50 53
257.000 978.000 327.000 52 53 56
257.000 979.000 327.000 51 52 55
258.000 976.000 326.000 52 52 54
258.000 977.000 326.000 52 53 55
259.000 976.000 326.000 51 50 52
259.000 977.000 326.000 52 52 55
258.000 978.000 326.000 54 54 57
258.000 978.000 327.000 53 54 57
258.000 979.000 327.000 54 54 57
259.000 978.000 326.000 53 54 57
259.000 979.000 326.000 53 53 56
259.000 979.000 327.000 54 54 56
256.000 980.000 327.000 46 46 49
256.000 981.000 327.000 48 48 51
257.000 980.000 327.000 52 52 55
257.000 981.000 327.000 54 54 56
256.000 982.000 327.000 53 54 57
256.000 983.000 327.000 55 55 58
257.000 982.000 327.000 56 56 58
257.000 983.000 327.000 56 56 59
258.000 980.000 327.000 57 56 59
258.000 981.000 327.000 58 57 60
259.000 980.000 327.000 58 57 60
259.000 981.000 327.000 59 58 60
258.000 982.000 327.000 59 58 60
258.000 983.000 327.000 58 58 60
259.000 982.000 327.000 58 57 59
259.000 983.000 327.000 56 56 58
261.000 976.000 325.000 52 51 53
260.000 976.000 326.000 51 50 52
260.000 977.000 326.000 52 52 54
261.000 976.000 326.000 51 51 53
261.000 977.000 326.000 54 53 55
260.000 978.000 326.000 54 54 56
260.000 979.000 326.000 53 54 56
261.000 978.000 326.000 53 52 54
261.000 979.000 326.000 53 53 55
262.000 976.000 325.000 54 54 56
262.000 977.000 325.000 52 51 53
263.000 976.000 325.000 55 54 56
263.000 977.000 325.000 49 48 50
262.000 978.000 325.000 49 48 50
262.000 979.000 325.000 48 48 50
263.000 978.000 325.000 47 46 48
263.000 979.000 325.000 45 45 46
262.000 978.000 326.000 50 50 51
262.000 979.000 326.000 50 50 53
260.000 980.000 326.000 53 53 56
260.000 981.000 326.000 54 53 56
260.000 981.000 327.000 56 56 58
261.000 980.000 326.000 52 52 54
261.000 981.000 326.000 51 51 53
260.000 982.000 326.000 52 52 55
260.000 982.000 327.000 55 55 57
260.000 983.000 326.000 49 49 52
260.000 983.000 327.000 54 53 56
261.000 982.000 326.000 46 47 50
261.000 983.000 326.000 44 45 49
263.000 980.000 325.000 44 44 46
263.000 981.000 325.000 43 44 47
262.000 980.000 326.000 48 49 52
262.000 981.000 326.000 45 46 50
262.000 983.000 325.000 39 41 45
263.000 982.000 325.000 45 46 48
263.000 983.000 325.000 46 47 50
262.000 982.000 326.000 42 44 48
262.000 983.000 326.000 40 42 46
256.000 984.000 327.000 56 56 59
256.000 985.000 327.000 56 56 60
257.000 984.000 327.000 55 55 58
257.000 985.000 327.000 57 57 60
256.000 986.000 327.000 61 61 65
256.000 987.000 327.000 62 63 67
257.000 986.000 327.000 59 59 63
257.000 987.000 327.000 60 60 64
258.000 984.000 327.000 59 59 62
258.000 985.000 327.000 61 60 63
259.000 984.000 326.000 55 54 57
259.000 984.000 327.000 56 55 57
259.000 985.000 326.000 56 56 59
258.000 986.000 326.000 60 61 64
258.000 986.000 327.000 62 62 65
258.000 987.000 326.000 59 58 62
258.000 987.000 327.000 60 60 64
259.000 986.000 326.000 56 56 59
259.000 987.000 326.000 51 51 55
256.000 988.000 327.000 62 62 66
256.000 989.000 326.000 62 62 66
256.000 989.000 327.000 63 63 66
257.000 988.000 326.000 61 61 64
257.000 988.000 327.000 61 61 65
257.000 989.000 326.000 61 61 65
256.000 990.000 326.000 60 61 65
257.000 990.000 326.000 59 60 64
258.000 988.000 326.000 57 57 60
258.000 989.000 326.000 57 58 62
259.000 988.000 326.000 47 48 52
259.000 989.000 326.000 47 49 53
261.000 985.000 325.000 35 38 43
260.000 984.000 326.000 48 49 52
260.000 985.000 326.000 50 51 54
261.000 984.000 326.000 40 42 46
261.000 985.000 326.000 38 40 45
260.000 987.000 325.000 42 44 48
261.000 986.000 325.000 40 42 47
261.000 987.000 325.000 44 47 52
260.000 986.000 326.000 47 48 52
260.000 987.000 326.000 45 46 49
261.000 986.000 326.000 39 42 47
262.000 984.000 325.000 40 42 46
262.000 985.000 325.000 42 45 49
263.000 984.000 325.000 50 51 54
263.000 985.000 325.000 53 53 57
262.000 984.000 326.000 35 38 43
262.000 986.000 325.000 50 51 55
260.000 988.000 325.000 42 45 50
266.000 976.000 323.000 48 45 44
266.000 977.000 323.000 43 40 40
267.000 976.000 322.000 50 45 43
267.000 976.000 323.000 49 45 42
267.000 977.000 323.000 42 39 37
266.000 978.000 323.000 41 38 40
267.000 978.000 323.000 40 36 36
267.000 979.000 323.000 37 35 34
264.000 976.000 324.000 51 49 50
264.000 976.000 325.000 51 50 51
264.000 977.000 324.000 44 42 42
264.000 977.000 325.000 47 46 47
265.000 976.000 324.000 48 45 44
265.000 977.000 324.000 42 40 40
264.000 978.000 324.000 42 40 40
264.000 978.000 325.000 44 43 43
264.000 979.000 324.000 39 38 39
264.000 979.000 325.000 41 40 42
265.000 978.000 324.000 41 39 38
265.000 979.000 324.000 40 39 41
266.000 977.000 324.000 42 39 39
266.000 978.000 324.000 41 39 40
266.000 979.000 324.000 38 38 39
267.000 980.000 323.000 34 34 35
267.000 981.000 323.000 35 35 36
267.000 982.000 323.000 37 38 40
264.000 980.000 325.000 41 40 42
264.000 981.000 325.000 41 41 42
265.000 980.000 324.000 40 40 42
265.000 981.000 324.000 40 40 42
264.000 982.000 324.000 41 41 43
264.000 982.000 325.000 43 43 45
264.000 983.000 324.000 44 43 45
264.000 983.000 325.000 46 46 48
265.000 982.000 324.000 42 42 44
265.000 983.000 324.000 43 42 44
266.000 980.000 324.000 37 37 39
266.000 981.000 324.000 37 37 39
266.000 982.000 324.000 39 39 40
269.000 976.000 321.000 59 50 47
269.000 977.000 321.000 50 44 43
268.000 976.000 322.000 54 47 44
268.000 977.000 322.000 47 42 41
269.000 976.000 322.000 56 49 46
269.000 977.000 322.000 48 42 42
268.000 978.000 322.000 42 38 36
268.000 979.000 322.000 42 39 39
268.000 979.000 323.000 39 36 34
269.000 978.000 322.000 44 41 40
269.000 979.000 322.000 41 39 39
270.000 976.000 321.000 61 52 47
270.000 977.000 321.000 49 44 42
271.000 976.000 320.000 66 55 50
271.000 976.000 321.000 63 53 47
271.000 977.000 320.000 52 47 45
271.000 977.000 321.000 51 45 43
270.000 978.000 321.000 45 41 40
270.000 979.000 321.000 42 40 39
271.000 978.000 320.000 48 44 43
271.000 978.000 321.000 45 42 41
271.000 979.000 320.000 46 43 43
271.000 979.000 321.000 42 39 39
268.000 980.000 322.000 42 40 41
268.000 980.000 323.000 38 38 39
268.000 981.000 323.000 40 41 44
269.000 980.000 322.000 39 38 39
269.000 981.000 322.000 39 39 41
268.000 982.000 322.000 40 41 45
268.000 982.000 323.000 41 43 46
270.000 980.000 321.000 42 40 40
270.000 981.000 321.000 39 38 38
271.000 980.000 320.000 46 44 43
271.000 981.000 320.000 44 41 40
264.000 984.000 324.000 46 46 47
264.000 984.000 325.000 52 51 54
272.000 971.000 320.000 150 110 92
273.000 971.000 320.000 152 112 95
272.000 972.000 320.000 139 102 85
272.000 973.000 320.000 123 91 78
273.000 972.000 320.000 144 105 88
272.000 974.000 320.000 104 79 69
272.000 975.000 320.000 90 70 62
272.000 976.000 320.000 69 57 52
272.000 977.000 320.000 55 49 46
272.000 978.000 320.000 53 47 45
