ply
format ascii 1.0
element vertex 1460
property float x
property float y
property float z
property uchar red
property uchar green
property uchar blue
end_header
30.000 19.000 287.000 82 72 65
31.000 18.000 287.000 82 73 65
31.000 19.000 287.000 82 72 66
30.000 20.000 287.000 82 73 67
30.000 21.000 287.000 73 64 57
30.000 22.000 287.000 63 53 45
30.000 23.000 287.000 63 54 47
30.000 24.000 287.000 65 56 49
30.000 25.000 287.000 66 57 50
30.000 26.000 287.000 67 58 51
30.000 27.000 287.000 68 59 52
30.000 28.000 287.000 69 60 54
31.000 28.000 287.000 69 60 54
31.000 29.000 287.000 71 62 56
31.000 30.000 287.000 77 67 62
30.000 19.000 288.000 81 72 66
31.000 18.000 288.000 82 73 66
31.000 18.000 289.000 82 73 66
31.000 19.000 288.000 82 73 66
31.000 19.000 289.000 82 73 66
31.000 18.000 290.000 83 73 66
31.000 18.000 291.000 83 73 66
31.000 19.000 290.000 83 73 66
31.000 19.000 291.000 83 74 66
31.000 18.000 292.000 83 73 66
31.000 19.000 292.000 83 73 65
31.000 19.000 293.000 82 73 65
31.000 19.000 294.000 82 72 65
31.000 19.000 295.000 81 72 65
30.000 20.000 288.000 82 73 67
30.000 20.000 289.000 82 73 66
30.000 21.000 288.000 75 67 60
30.000 21.000 289.000 75 67 60
30.000 20.000 290.000 83 73 67
30.000 21.000 290.000 79 70 64
30.000 21.000 291.000 79 71 66
31.000 20.000 290.000 82 73 66
31.000 20.000 291.000 83 73 66
31.000 21.000 291.000 83 75 69
30.000 22.000 288.000 63 54 46
30.000 22.000 289.000 63 54 46
30.000 23.000 288.000 62 54 47
30.000 23.000 289.000 62 53 47
30.000 22.000 290.000 63 54 46
30.000 22.000 291.000 65 56 49
30.000 23.000 290.000 61 53 46
30.000 23.000 291.000 60 52 44
30.000 21.000 292.000 80 72 67
31.000 20.000 292.000 83 74 67
31.000 20.000 293.000 81 72 65
31.000 21.000 292.000 82 74 69
31.000 21.000 293.000 82 74 69
31.000 20.000 294.000 81 72 65
31.000 20.000 295.000 80 71 65
31.000 21.000 294.000 81 73 68
31.000 21.000 295.000 81 74 70
30.000 22.000 292.000 66 57 51
30.000 23.000 292.000 60 51 43
31.000 22.000 292.000 67 59 52
31.000 22.000 293.000 68 60 54
31.000 23.000 292.000 60 51 43
31.000 23.000 293.000 59 50 43
31.000 22.000 294.000 69 61 55
31.000 22.000 295.000 71 63 59
31.000 23.000 294.000 58 49 42
31.000 23.000 295.000 57 48 42
31.000 19.000 296.000 81 73 66
31.000 19.000 297.000 81 73 66
31.000 20.000 296.000 81 72 67
31.000 20.000 297.000 81 73 67
31.000 21.000 296.000 80 74 70
31.000 21.000 297.000 81 73 69
31.000 20.000 298.000 82 73 67
31.000 20.000 299.000 82 73 67
31.000 21.000 298.000 81 72 67
31.000 21.000 299.000 80 72 66
31.000 22.000 296.000 74 67 64
31.000 22.000 297.000 76 69 66
31.000 23.000 296.000 56 48 42
31.000 23.000 297.000 57 49 43
31.000 22.000 298.000 79 72 69
31.000 22.000 299.000 81 74 70
31.000 23.000 298.000 58 51 45
31.000 23.000 299.000 58 51 45
31.000 20.000 300.000 81 73 66
31.000 20.000 301.000 80 71 64
31.000 21.000 300.000 79 70 64
31.000 21.000 301.000 79 70 64
31.000 21.000 302.000 79 70 63
31.000 22.000 300.000 82 75 71
31.000 22.000 301.000 82 74 70
31.000 23.000 300.000 60 52 46
31.000 23.000 301.000 62 54 48
31.000 22.000 302.000 82 74 69
31.000 23.000 302.000 68 61 56
30.000 24.000 288.000 65 57 50
30.000 24.000 289.000 65 57 51
30.000 25.000 288.000 65 57 51
30.000 25.000 289.000 65 57 51
30.000 24.000 290.000 64 57 51
30.000 24.000 291.000 64 56 50
30.000 25.000 290.000 65 57 51
30.000 25.000 291.000 65 57 51
31.000 24.000 291.000 64 56 50
31.000 25.000 291.000 64 57 51
30.000 26.000 288.000 66 57 51
30.000 26.000 289.000 65 57 51
30.000 27.000 288.000 66 58 52
30.000 27.000 289.000 66 58 52
31.000 27.000 288.000 67 58 52
31.000 27.000 289.000 66 59 53
30.000 26.000 290.000 65 57 51
31.000 26.000 290.000 65 57 51
31.000 26.000 291.000 64 57 51
31.000 27.000 290.000 66 58 53
31.000 27.000 291.000 65 58 52
31.000 24.000 292.000 63 55 48
31.000 24.000 293.000 62 55 49
31.000 25.000 292.000 64 57 51
31.000 25.000 293.000 63 56 51
31.000 24.000 294.000 61 53 47
31.000 24.000 295.000 60 52 47
31.000 25.000 294.000 63 55 50
31.000 25.000 295.000 62 55 49
31.000 26.000 292.000 63 56 51
31.000 26.000 293.000 63 56 51
31.000 27.000 292.000 64 58 53
31.000 27.000 293.000 64 57 53
31.000 26.000 294.000 63 56 51
31.000 26.000 295.000 62 55 50
31.000 27.000 294.000 64 57 53
31.000 27.000 295.000 63 56 52
31.000 28.000 288.000 68 59 54
31.000 28.000 289.000 67 59 54
31.000 29.000 288.000 70 61 55
31.000 29.000 289.000 69 61 55
31.000 28.000 290.000 66 59 53
31.000 28.000 291.000 65 58 53
31.000 29.000 290.000 68 60 55
31.000 29.000 291.000 67 60 55
31.000 30.000 288.000 75 66 61
31.000 30.000 289.000 73 64 60
31.000 30.000 290.000 72 63 59
31.000 30.000 291.000 70 62 58
31.000 28.000 292.000 65 59 54
31.000 28.000 293.000 65 58 54
31.000 29.000 292.000 66 59 55
31.000 29.000 293.000 66 59 55
31.000 28.000 294.000 64 58 54
31.000 28.000 295.000 64 57 53
31.000 24.000 296.000 59 52 47
31.000 24.000 297.000 59 51 46
31.000 25.000 296.000 62 55 50
31.000 25.000 297.000 61 54 50
31.000 24.000 298.000 57 49 43
31.000 24.000 299.000 55 46 42
31.000 25.000 298.000 61 54 49
31.000 25.000 299.000 60 53 48
31.000 26.000 296.000 62 55 50
31.000 26.000 297.000 62 55 51
31.000 27.000 296.000 63 56 51
31.000 27.000 297.000 62 56 51
31.000 26.000 298.000 61 55 50
31.000 26.000 299.000 61 55 50
31.000 24.000 300.000 55 46 42
31.000 24.000 301.000 54 46 41
31.000 25.000 300.000 60 53 47
31.000 25.000 301.000 58 51 45
32.000 17.000 287.000 82 72 65
33.000 17.000 286.000 82 72 65
33.000 17.000 287.000 82 73 65
34.000 16.000 286.000 82 72 65
34.000 16.000 287.000 82 72 65
34.000 17.000 287.000 82 73 65
35.000 16.000 286.000 82 72 65
35.000 16.000 287.000 82 72 65
36.000 16.000 286.000 82 72 65
36.000 16.000 287.000 82 72 65
37.000 16.000 286.000 82 72 65
37.000 16.000 287.000 82 72 65
38.000 16.000 286.000 82 72 65
38.000 16.000 287.000 82 72 65
39.000 16.000 286.000 82 72 65
39.000 16.000 287.000 82 72 65
32.000 31.000 287.000 85 75 70
40.000 16.000 286.000 82 72 65
40.000 16.000 287.000 82 72 65
41.000 16.000 286.000 82 72 65
41.000 16.000 287.000 82 72 65
42.000 16.000 286.000 82 72 65
42.000 16.000 287.000 82 72 65
43.000 16.000 286.000 82 72 65
43.000 16.000 287.000 82 72 65
44.000 16.000 286.000 82 72 65
44.000 16.000 287.000 82 72 65
45.000 16.000 286.000 82 72 65
45.000 16.000 287.000 82 72 65
46.000 16.000 286.000 82 72 65
46.000 16.000 287.000 82 72 65
47.000 16.000 286.000 82 72 65
47.000 16.000 287.000 82 72 65
48.000 16.000 286.000 82 72 65
48.000 16.000 287.000 82 72 65
49.000 16.000 286.000 82 72 65
49.000 16.000 287.000 82 72 65
50.000 16.000 286.000 82 72 65
50.000 16.000 287.000 82 72 65
51.000 16.000 286.000 82 72 65
51.000 16.000 287.000 82 72 65
52.000 16.000 286.000 82 72 65
52.000 16.000 287.000 82 72 65
53.000 16.000 286.000 82 72 65
53.000 16.000 287.000 82 72 65
54.000 16.000 286.000 83 73 65
54.000 16.000 287.000 82 72 65
55.000 16.000 286.000 83 73 65
55.000 16.000 287.000 83 72 64
32.000 17.000 288.000 82 73 65
32.000 17.000 289.000 82 73 65
33.000 17.000 288.000 82 73 65
33.000 17.000 289.000 82 73 65
32.000 17.000 290.000 82 73 65
32.000 17.000 291.000 82 73 65
33.000 17.000 290.000 82 73 65
33.000 17.000 291.000 82 73 65
32.000 18.000 288.000 82 73 65
32.000 18.000 290.000 82 73 65
32.000 18.000 291.000 83 73 65
34.000 16.000 288.000 82 73 65
34.000 17.000 288.000 82 73 65
34.000 17.000 289.000 82 73 65
35.000 16.000 288.000 82 73 65
35.000 16.000 289.000 82 73 65
35.000 17.000 289.000 82 73 65
34.000 17.000 290.000 82 73 65
34.000 17.000 291.000 82 73 65
35.000 17.000 290.000 82 73 65
35.000 17.000 291.000 82 73 65
32.000 17.000 292.000 82 73 65
33.000 17.000 292.000 82 73 65
33.000 17.000 293.000 82 73 65
33.000 17.000 294.000 82 73 65
33.000 17.000 295.000 82 73 65
32.000 18.000 292.000 83 73 65
32.000 18.000 293.000 82 73 65
32.000 18.000 294.000 82 72 65
32.000 18.000 295.000 82 72 65
32.000 19.000 295.000 81 72 65
33.000 18.000 294.000 82 73 65
33.000 18.000 295.000 82 73 65
34.000 17.000 292.000 82 73 65
34.000 17.000 293.000 82 73 65
35.000 17.000 292.000 82 73 65
35.000 17.000 293.000 82 73 65
34.000 17.000 294.000 82 73 65
34.000 17.000 295.000 82 73 65
35.000 17.000 294.000 82 73 65
35.000 17.000 295.000 82 73 65
36.000 16.000 288.000 82 72 65
36.000 16.000 289.000 82 72 65
37.000 16.000 288.000 82 72 65
37.000 16.000 289.000 82 72 65
36.000 16.000 290.000 82 72 65
36.000 17.000 290.000 82 73 65
36.000 17.000 291.000 82 73 65
37.000 16.000 290.000 82 72 65
37.000 16.000 291.000 82 72 65
37.000 17.000 291.000 82 72 65
38.000 16.000 288.000 82 72 65
38.000 16.000 289.000 82 72 65
39.000 16.000 288.000 82 72 65
39.000 16.000 289.000 82 72 65
38.000 16.000 290.000 82 72 65
38.000 16.000 291.000 82 72 65
39.000 16.000 290.000 82 72 65
39.000 16.000 291.000 82 72 65
36.000 17.000 292.000 82 72 65
36.000 17.000 293.000 82 73 65
37.000 17.000 292.000 82 72 65
37.000 17.000 293.000 82 72 65
36.000 17.000 294.000 82 72 65
36.000 17.000 295.000 82 72 65
37.000 17.000 294.000 82 72 65
37.000 17.000 295.000 82 72 65
38.000 16.000 292.000 82 72 65
38.000 17.000 292.000 82 72 65
38.000 17.000 293.000 82 72 65
39.000 16.000 292.000 82 72 65
39.000 16.000 293.000 82 72 65
39.000 17.000 293.000 82 72 65
38.000 17.000 294.000 82 72 65
38.000 17.000 295.000 82 72 65
39.000 16.000 294.000 82 72 65
39.000 17.000 294.000 82 72 65
39.000 17.000 295.000 82 72 65
32.000 18.000 296.000 82 72 66
32.000 18.000 297.000 82 73 66
32.000 19.000 296.000 81 72 66
32.000 19.000 297.000 82 73 66
33.000 18.000 296.000 82 73 65
33.000 18.000 297.000 82 73 66
32.000 18.000 298.000 82 73 66
32.000 19.000 298.000 82 73 66
32.000 19.000 299.000 82 73 66
33.000 18.000 298.000 82 73 66
33.000 18.000 299.000 82 72 66
33.000 19.000 299.000 82 73 66
34.000 17.000 296.000 82 73 65
35.000 17.000 296.000 82 72 65
35.000 17.000 297.000 82 72 65
35.000 17.000 298.000 82 72 65
34.000 18.000 296.000 82 73 65
34.000 18.000 297.000 82 72 65
34.000 18.000 298.000 82 72 65
34.000 18.000 299.000 82 72 65
35.000 18.000 298.000 82 72 65
35.000 18.000 299.000 82 72 65
32.000 19.000 300.000 82 72 66
33.000 18.000 300.000 82 72 66
33.000 19.000 300.000 82 72 66
33.000 19.000 301.000 82 72 65
33.000 19.000 302.000 82 72 66
33.000 19.000 303.000 82 73 66
34.000 18.000 300.000 82 72 65
34.000 18.000 301.000 82 72 65
35.000 18.000 300.000 82 72 65
35.000 18.000 301.000 81 72 65
34.000 18.000 302.000 81 72 65
34.000 18.000 303.000 81 72 65
34.000 19.000 302.000 82 72 65
34.000 19.000 303.000 82 72 65
35.000 18.000 302.000 81 72 65
35.000 18.000 303.000 81 72 65
32.000 20.000 298.000 82 73 67
32.000 20.000 299.000 82 73 66
32.000 20.000 300.000 81 72 66
32.000 20.000 301.000 81 72 65
32.000 20.000 302.000 82 73 66
32.000 20.000 303.000 83 73 66
32.000 21.000 302.000 80 70 63
32.000 21.000 303.000 81 70 63
33.000 20.000 303.000 83 73 66
32.000 22.000 303.000 82 73 68
32.000 23.000 302.000 57 50 45
32.000 23.000 303.000 70 63 59
36.000 17.000 296.000 82 72 65
36.000 17.000 297.000 82 72 65
37.000 17.000 296.000 82 72 65
37.000 17.000 297.000 82 72 65
36.000 17.000 298.000 82 72 65
36.000 17.000 299.000 82 72 65
37.000 17.000 298.000 82 72 65
37.000 17.000 299.000 82 72 65
36.000 18.000 299.000 82 72 65
38.000 17.000 296.000 82 72 65
38.000 17.000 297.000 82 72 65
39.000 17.000 296.000 82 72 65
39.000 17.000 297.000 82 72 65
38.000 17.000 298.000 82 72 65
38.000 17.000 299.000 81 72 65
39.000 17.000 298.000 81 72 65
39.000 17.000 299.000 81 72 65
36.000 17.000 300.000 81 72 65
36.000 17.000 301.000 81 72 65
37.000 17.000 300.000 81 72 65
37.000 17.000 301.000 81 72 65
37.000 17.000 302.000 81 72 65
36.000 18.000 300.000 82 72 65
36.000 18.000 301.000 81 72 65
36.000 18.000 302.000 81 72 65
36.000 18.000 303.000 81 72 65
37.000 18.000 302.000 81 72 65
37.000 18.000 303.000 81 72 65
38.000 17.000 300.000 81 72 65
38.000 17.000 301.000 81 72 65
39.000 17.000 300.000 81 72 65
39.000 17.000 301.000 81 72 65
38.000 17.000 302.000 81 72 65
38.000 17.000 303.000 81 72 65
39.000 17.000 302.000 81 72 65
39.000 17.000 303.000 81 71 65
32.000 30.000 288.000 78 69 64
32.000 30.000 289.000 78 68 64
32.000 31.000 288.000 83 73 68
32.000 31.000 289.000 81 71 67
32.000 30.000 290.000 75 66 62
32.000 30.000 291.000 72 64 60
32.000 31.000 290.000 80 70 67
32.000 31.000 291.000 77 69 65
33.000 31.000 291.000 79 70 66
32.000 29.000 292.000 67 60 56
32.000 29.000 293.000 66 60 56
32.000 28.000 294.000 64 58 54
32.000 28.000 295.000 64 57 53
32.000 29.000 294.000 66 59 55
32.000 29.000 295.000 65 59 55
32.000 30.000 292.000 71 63 59
32.000 30.000 293.000 70 63 60
32.000 31.000 292.000 75 67 63
32.000 31.000 293.000 73 66 63
33.000 31.000 292.000 77 69 66
33.000 31.000 293.000 74 67 64
32.000 30.000 294.000 69 62 58
32.000 30.000 295.000 68 61 58
33.000 30.000 295.000 69 63 59
33.000 31.000 294.000 74 66 64
33.000 31.000 295.000 74 67 64
32.000 27.000 297.000 63 56 52
32.000 26.000 298.000 61 55 51
32.000 26.000 299.000 61 54 50
32.000 27.000 298.000 62 56 52
32.000 27.000 299.000 61 55 51
32.000 24.000 301.000 54 46 40
32.000 25.000 300.000 61 53 48
32.000 25.000 301.000 59 51 45
32.000 24.000 302.000 53 43 38
32.000 24.000 303.000 52 43 38
32.000 25.000 302.000 58 50 44
32.000 25.000 303.000 57 49 44
32.000 26.000 300.000 61 54 50
32.000 26.000 301.000 61 55 50
32.000 27.000 300.000 61 55 50
32.000 27.000 301.000 61 55 50
32.000 26.000 302.000 62 55 49
32.000 26.000 303.000 61 54 49
32.000 27.000 302.000 61 55 51
32.000 27.000 303.000 61 55 51
33.000 27.000 302.000 60 54 50
33.000 27.000 303.000 61 55 51
32.000 28.000 296.000 64 57 52
32.000 28.000 297.000 63 57 52
32.000 29.000 296.000 65 58 54
32.000 29.000 297.000 64 58 54
32.000 28.000 298.000 63 57 53
32.000 28.000 299.000 63 57 52
32.000 29.000 298.000 64 57 53
32.000 29.000 299.000 64 57 53
33.000 29.000 298.000 65 58 54
33.000 29.000 299.000 65 58 54
32.000 30.000 296.000 68 61 58
33.000 30.000 296.000 70 63 59
33.000 30.000 297.000 68 62 58
33.000 31.000 296.000 74 67 64
33.000 31.000 297.000 72 65 62
33.000 30.000 298.000 67 61 57
33.000 30.000 299.000 67 61 57
33.000 31.000 298.000 72 65 61
34.000 31.000 297.000 75 68 65
34.000 31.000 298.000 75 69 66
34.000 31.000 299.000 73 67 63
32.000 28.000 300.000 62 56 52
32.000 28.000 301.000 62 55 51
32.000 29.000 300.000 63 56 52
33.000 28.000 301.000 62 56 52
33.000 29.000 300.000 64 57 53
33.000 29.000 301.000 63 57 53
33.000 28.000 302.000 61 55 51
33.000 28.000 303.000 61 55 51
33.000 29.000 302.000 62 56 52
33.000 29.000 303.000 61 56 52
33.000 30.000 300.000 66 60 56
33.000 30.000 301.000 63 57 53
34.000 29.000 302.000 63 57 53
34.000 29.000 303.000 62 56 52
34.000 30.000 300.000 68 61 58
34.000 30.000 301.000 66 59 56
34.000 31.000 300.000 73 66 63
34.000 31.000 301.000 71 64 61
35.000 31.000 301.000 73 66 64
34.000 30.000 302.000 64 58 55
34.000 30.000 303.000 63 57 54
35.000 30.000 302.000 67 61 58
35.000 30.000 303.000 66 59 57
35.000 31.000 302.000 71 64 62
35.000 31.000 303.000 71 65 62
40.000 16.000 288.000 82 72 65
40.000 16.000 289.000 82 72 65
41.000 16.000 288.000 82 72 65
41.000 16.000 289.000 82 72 65
40.000 16.000 290.000 82 72 65
40.000 16.000 291.000 82 72 65
41.000 16.000 290.000 82 72 65
41.000 16.000 291.000 82 72 65
42.000 16.000 288.000 82 72 65
42.000 16.000 289.000 82 72 65
43.000 16.000 288.000 82 72 65
43.000 16.000 289.000 82 72 65
42.000 16.000 290.000 82 72 65
42.000 16.000 291.000 82 72 65
43.000 16.000 290.000 82 72 65
43.000 16.000 291.000 82 72 65
40.000 16.000 292.000 82 72 65
40.000 16.000 293.000 82 72 65
41.000 16.000 292.000 82 72 65
41.000 16.000 293.000 82 72 65
40.000 16.000 294.000 82 72 65
40.000 16.000 295.000 82 72 65
40.000 17.000 294.000 82 72 65
40.000 17.000 295.000 82 72 65
41.000 16.000 294.000 82 72 65
41.000 16.000 295.000 82 72 65
42.000 16.000 292.000 82 72 65
42.000 16.000 293.000 82 72 65
43.000 16.000 292.000 82 72 65
43.000 16.000 293.000 82 72 65
42.000 16.000 294.000 82 72 65
42.000 16.000 295.000 81 72 65
43.000 16.000 294.000 81 72 65
43.000 16.000 295.000 81 72 65
44.000 16.000 288.000 82 72 65
44.000 16.000 289.000 82 72 65
45.000 16.000 288.000 82 72 65
45.000 16.000 289.000 82 72 65
44.000 16.000 290.000 82 72 65
44.000 16.000 291.000 81 72 65
45.000 16.000 290.000 81 72 65
45.000 16.000 291.000 81 72 65
46.000 16.000 288.000 82 72 65
46.000 16.000 289.000 81 72 65
47.000 16.000 288.000 82 72 65
47.000 16.000 289.000 81 72 65
46.000 16.000 290.000 81 72 65
46.000 16.000 291.000 81 72 65
47.000 16.000 290.000 81 72 65
47.000 16.000 291.000 81 72 65
44.000 16.000 292.000 81 72 65
44.000 16.000 293.000 81 72 65
45.000 16.000 292.000 81 72 65
45.000 16.000 293.000 81 72 65
44.000 16.000 294.000 81 72 65
44.000 16.000 295.000 81 72 65
45.000 16.000 294.000 81 72 65
45.000 16.000 295.000 81 72 65
46.000 16.000 292.000 81 72 65
46.000 16.000 293.000 81 72 65
47.000 16.000 292.000 81 72 65
47.000 16.000 293.000 81 72 65
46.000 16.000 294.000 81 72 65
46.000 16.000 295.000 81 72 65
47.000 16.000 294.000 81 72 65
47.000 16.000 295.000 81 72 65
40.000 17.000 296.000 82 72 65
40.000 17.000 297.000 81 72 65
41.000 16.000 296.000 81 72 65
41.000 17.000 296.000 81 72 65
41.000 17.000 297.000 81 72 65
40.000 17.000 298.000 81 72 65
40.000 17.000 299.000 81 72 65
41.000 17.000 298.000 81 72 65
41.000 17.000 299.000 81 72 65
42.000 16.000 296.000 81 72 65
42.000 16.000 297.000 81 72 65
42.000 17.000 297.000 81 72 65
43.000 16.000 296.000 81 72 65
43.000 16.000 297.000 81 72 65
42.000 16.000 298.000 81 72 65
42.000 16.000 299.000 81 72 65
42.000 17.000 298.000 81 72 65
42.000 17.000 299.000 81 72 65
43.000 16.000 298.000 81 72 65
43.000 16.000 299.000 81 72 65
40.000 17.000 300.000 81 72 65
40.000 17.000 301.000 81 72 65
41.000 17.000 300.000 81 72 65
41.000 17.000 301.000 81 72 65
40.000 17.000 302.000 81 72 65
40.000 17.000 303.000 81 71 64
41.000 17.000 302.000 81 71 65
41.000 17.000 303.000 81 71 64
42.000 17.000 300.000 81 72 65
42.000 17.000 301.000 81 72 65
43.000 16.000 300.000 81 72 65
43.000 16.000 301.000 81 71 65
43.000 17.000 300.000 81 72 65
43.000 17.000 301.000 81 71 65
42.000 17.000 302.000 81 71 64
42.000 17.000 303.000 80 71 64
43.000 17.000 302.000 81 71 64
43.000 17.000 303.000 80 71 64
44.000 16.000 296.000 81 72 65
44.000 16.000 297.000 81 72 65
45.000 16.000 296.000 81 72 65
45.000 16.000 297.000 81 72 65
44.000 16.000 298.000 81 72 65
44.000 16.000 299.000 81 72 65
45.000 16.000 298.000 81 72 65
45.000 16.000 299.000 81 72 65
46.000 16.000 296.000 81 72 65
46.000 16.000 297.000 81 72 65
47.000 16.000 296.000 81 72 65
47.000 16.000 297.000 81 72 65
46.000 16.000 298.000 81 72 65
46.000 16.000 299.000 81 72 65
47.000 16.000 298.000 81 72 65
47.000 16.000 299.000 81 72 65
44.000 16.000 300.000 81 71 65
44.000 16.000 301.000 81 71 64
45.000 16.000 300.000 81 71 65
45.000 16.000 301.000 81 71 64
44.000 16.000 302.000 81 71 64
44.000 17.000 302.000 81 71 64
44.000 17.000 303.000 80 71 64
45.000 16.000 302.000 81 71 64
45.000 16.000 303.000 81 71 64
45.000 17.000 303.000 80 71 64
46.000 16.000 300.000 81 71 65
46.000 16.000 301.000 81 71 64
47.000 16.000 300.000 81 71 65
47.000 16.000 301.000 81 71 65
46.000 16.000 302.000 81 71 64
46.000 16.000 303.000 81 71 65
47.000 16.000 302.000 81 71 65
47.000 16.000 303.000 81 71 65
33.000 19.000 304.000 82 73 66
33.000 19.000 305.000 82 72 65
34.000 18.000 304.000 81 72 65
34.000 19.000 304.000 82 72 65
34.000 19.000 305.000 81 72 65
35.000 18.000 304.000 81 72 65
35.000 18.000 305.000 81 72 65
35.000 19.000 305.000 81 72 65
34.000 19.000 306.000 81 71 65
34.000 19.000 307.000 80 71 64
35.000 18.000 306.000 81 71 65
35.000 18.000 307.000 80 71 64
35.000 19.000 306.000 81 71 64
34.000 19.000 308.000 80 71 64
34.000 19.000 309.000 79 70 64
32.000 20.000 304.000 84 74 67
32.000 20.000 305.000 84 74 67
32.000 21.000 304.000 82 73 65
32.000 21.000 305.000 83 73 66
33.000 20.000 304.000 83 73 66
33.000 20.000 305.000 82 73 66
33.000 21.000 305.000 83 73 65
33.000 20.000 306.000 82 72 65
33.000 20.000 307.000 81 71 65
33.000 21.000 307.000 82 72 66
32.000 22.000 304.000 82 71 65
32.000 22.000 305.000 81 71 63
32.000 23.000 304.000 73 66 62
32.000 23.000 305.000 78 70 65
32.000 22.000 306.000 81 70 62
32.000 23.000 306.000 82 74 69
33.000 22.000 307.000 82 71 65
33.000 23.000 306.000 83 74 69
33.000 23.000 307.000 82 73 69
34.000 20.000 307.000 81 71 65
33.000 20.000 308.000 80 71 65
33.000 20.000 309.000 79 70 65
33.000 21.000 308.000 81 71 66
33.000 21.000 309.000 80 71 66
33.000 22.000 308.000 80 70 64
33.000 22.000 309.000 80 70 65
33.000 23.000 308.000 84 73 70
33.000 23.000 309.000 83 73 70
33.000 22.000 310.000 79 70 65
33.000 23.000 310.000 83 73 69
34.000 20.000 308.000 80 71 64
34.000 20.000 309.000 79 70 64
36.000 18.000 304.000 81 72 65
36.000 18.000 305.000 81 71 64
37.000 18.000 304.000 81 71 65
36.000 18.000 306.000 80 71 64
38.000 17.000 304.000 81 71 64
39.000 17.000 304.000 81 71 64
38.000 18.000 304.000 81 71 64
38.000 18.000 305.000 80 71 64
38.000 18.000 306.000 80 71 64
39.000 18.000 308.000 80 70 64
32.000 24.000 304.000 52 44 38
32.000 24.000 305.000 55 47 41
32.000 25.000 304.000 56 48 42
32.000 25.000 305.000 55 47 40
32.000 24.000 306.000 58 50 43
33.000 24.000 306.000 60 51 46
33.000 24.000 307.000 60 52 47
33.000 25.000 306.000 55 46 39
33.000 25.000 307.000 54 45 39
32.000 26.000 304.000 61 54 49
32.000 26.000 305.000 58 51 47
33.000 26.000 304.000 61 54 50
33.000 26.000 305.000 60 53 49
33.000 27.000 304.000 61 55 51
33.000 27.000 305.000 61 55 51
33.000 26.000 306.000 59 52 47
33.000 27.000 306.000 61 54 50
34.000 27.000 306.000 61 55 51
34.000 27.000 307.000 60 54 50
33.000 24.000 308.000 65 58 53
33.000 24.000 309.000 70 63 58
33.000 25.000 308.000 54 45 39
34.000 25.000 309.000 53 45 38
34.000 26.000 308.000 60 52 47
34.000 26.000 309.000 57 49 44
34.000 27.000 308.000 60 54 50
34.000 27.000 309.000 60 54 49
33.000 28.000 304.000 61 55 51
33.000 28.000 305.000 61 55 51
34.000 28.000 304.000 61 55 51
34.000 28.000 305.000 61 55 51
34.000 29.000 304.000 62 56 52
34.000 29.000 305.000 61 55 52
35.000 29.000 305.000 62 56 52
34.000 28.000 306.000 60 55 51
34.000 28.000 307.000 61 54 50
34.000 29.000 306.000 61 55 51
34.000 29.000 307.000 61 55 51
35.000 29.000 306.000 62 56 52
35.000 29.000 307.000 61 56 52
34.000 30.000 304.000 63 58 54
35.000 30.000 304.000 65 59 56
35.000 30.000 305.000 64 58 55
35.000 31.000 304.000 69 63 61
35.000 30.000 306.000 63 57 53
35.000 30.000 307.000 62 56 52
35.000 28.000 308.000 61 55 51
35.000 28.000 309.000 60 54 51
35.000 29.000 308.000 60 55 51
35.000 29.000 309.000 60 55 51
36.000 30.000 305.000 65 59 56
36.000 31.000 304.000 71 65 62
36.000 31.000 305.000 70 63 61
36.000 30.000 306.000 65 59 57
36.000 30.000 307.000 64 58 56
36.000 31.000 306.000 69 62 60
36.000 31.000 307.000 67 61 59
37.000 31.000 306.000 70 64 63
36.000 30.000 308.000 63 57 54
36.000 30.000 309.000 62 56 53
36.000 31.000 308.000 67 61 59
37.000 30.000 309.000 64 59 57
37.000 31.000 308.000 68 62 61
37.000 31.000 309.000 68 62 61
40.000 17.000 304.000 80 71 64
41.000 17.000 304.000 80 71 64
45.000 17.000 304.000 80 71 64
46.000 17.000 304.000 80 71 64
46.000 17.000 305.000 80 71 64
47.000 17.000 305.000 80 71 65
47.000 17.000 306.000 80 71 65
48.000 16.000 288.000 82 72 65
48.000 16.000 289.000 81 72 65
49.000 16.000 288.000 82 72 65
49.000 16.000 289.000 82 72 65
48.000 16.000 290.000 81 72 65
48.000 16.000 291.000 81 72 65
49.000 16.000 290.000 81 72 65
49.000 16.000 291.000 81 72 65
50.000 16.000 288.000 82 72 65
50.000 16.000 289.000 82 72 65
51.000 16.000 288.000 82 72 65
51.000 16.000 289.000 82 72 65
50.000 16.000 290.000 81 72 65
50.000 16.000 291.000 81 72 65
51.000 16.000 290.000 82 72 65
51.000 16.000 291.000 82 72 65
48.000 16.000 292.000 81 72 65
48.000 16.000 293.000 81 72 65
49.000 16.000 292.000 81 72 65
49.000 16.000 293.000 81 72 65
48.000 16.000 294.000 81 72 65
48.000 16.000 295.000 81 72 65
49.000 16.000 294.000 81 72 65
49.000 16.000 295.000 81 72 65
50.000 16.000 292.000 81 72 65
50.000 16.000 293.000 81 72 65
51.000 16.000 292.000 81 72 65
51.000 16.000 293.000 81 72 65
50.000 16.000 294.000 81 72 65
50.000 16.000 295.000 81 72 65
51.000 16.000 294.000 81 72 65
51.000 16.000 295.000 81 72 65
52.000 16.000 288.000 82 72 65
52.000 16.000 289.000 82 72 65
53.000 16.000 288.000 82 72 65
53.000 16.000 289.000 82 72 65
52.000 16.000 290.000 82 72 65
52.000 16.000 291.000 82 72 65
53.000 16.000 290.000 82 72 65
53.000 16.000 291.000 82 72 65
54.000 16.000 288.000 82 72 65
54.000 16.000 289.000 82 72 65
55.000 16.000 288.000 82 72 64
55.000 16.000 289.000 82 72 64
54.000 16.000 290.000 82 72 65
54.000 16.000 291.000 82 72 65
55.000 16.000 290.000 82 72 65
55.000 16.000 291.000 82 72 65
52.000 16.000 292.000 81 72 65
52.000 16.000 293.000 81 72 65
53.000 16.000 292.000 82 72 65
53.000 16.000 293.000 81 72 65
52.000 16.000 294.000 81 72 65
52.000 16.000 295.000 81 72 65
53.000 16.000 294.000 81 72 65
53.000 16.000 295.000 81 72 65
54.000 16.000 292.000 82 72 65
54.000 16.000 293.000 82 72 65
55.000 16.000 292.000 82 72 65
55.000 16.000 293.000 82 72 65
54.000 16.000 294.000 81 72 65
54.000 16.000 295.000 81 72 65
55.000 16.000 294.000 82 72 65
55.000 16.000 295.000 81 72 65
48.000 16.000 296.000 81 72 65
48.000 16.000 297.000 81 72 65
49.000 16.000 296.000 81 72 65
49.000 16.000 297.000 81 72 65
48.000 16.000 298.000 81 72 65
48.000 16.000 299.000 81 72 65
49.000 16.000 298.000 81 72 65
49.000 16.000 299.000 81 72 65
50.000 16.000 296.000 81 72 65
50.000 16.000 297.000 81 72 65
51.000 16.000 296.000 81 72 65
51.000 16.000 297.000 81 72 65
50.000 16.000 298.000 81 72 65
50.000 16.000 299.000 81 72 65
51.000 16.000 298.000 81 72 65
51.000 16.000 299.000 81 72 65
48.000 16.000 300.000 81 72 65
48.000 16.000 301.000 81 71 65
49.000 16.000 300.000 81 72 65
49.000 16.000 301.000 81 72 65
48.000 16.000 302.000 81 71 65
48.000 16.000 303.000 81 71 65
49.000 16.000 302.000 81 72 65
49.000 16.000 303.000 81 72 65
50.000 16.000 300.000 81 72 65
50.000 16.000 301.000 81 72 65
51.000 16.000 300.000 81 72 65
51.000 16.000 301.000 81 72 65
50.000 16.000 302.000 81 72 65
50.000 16.000 303.000 81 72 65
51.000 16.000 302.000 81 72 65
51.000 16.000 303.000 81 72 65
52.000 16.000 296.000 81 72 65
52.000 16.000 297.000 81 72 65
53.000 16.000 296.000 81 72 65
53.000 16.000 297.000 81 72 65
52.000 16.000 298.000 81 72 65
52.000 16.000 299.000 81 72 65
53.000 16.000 298.000 81 72 65
53.000 16.000 299.000 81 72 65
54.000 16.000 296.000 81 72 65
54.000 16.000 297.000 81 72 65
55.000 16.000 296.000 81 72 65
55.000 16.000 297.000 81 72 65
54.000 16.000 298.000 81 72 65
54.000 16.000 299.000 81 72 65
55.000 16.000 298.000 81 72 65
55.000 16.000 299.000 81 72 66
52.000 16.000 300.000 81 72 65
52.000 16.000 301.000 81 72 65
53.000 16.000 300.000 81 72 65
53.000 16.000 301.000 81 72 65
52.000 16.000 302.000 81 72 65
52.000 16.000 303.000 81 72 66
53.000 16.000 302.000 81 72 66
53.000 16.000 303.000 81 72 66
54.000 16.000 300.000 81 72 66
54.000 16.000 301.000 81 72 66
55.000 16.000 300.000 81 72 66
55.000 16.000 301.000 81 72 66
54.000 16.000 302.000 81 72 66
54.000 16.000 303.000 81 72 66
55.000 16.000 302.000 81 72 66
55.000 16.000 303.000 81 72 66
56.000 16.000 297.000 81 72 65
56.000 16.000 298.000 81 72 65
56.000 16.000 299.000 81 72 66
56.000 16.000 300.000 81 72 66
56.000 16.000 301.000 81 72 66
56.000 16.000 302.000 81 72 66
56.000 16.000 303.000 81 73 66
48.000 17.000 305.000 80 71 65
49.000 16.000 304.000 81 72 65
48.000 17.000 306.000 81 72 65
50.000 16.000 304.000 81 72 65
50.000 16.000 305.000 81 72 65
51.000 16.000 304.000 81 72 65
51.000 16.000 305.000 81 72 66
52.000 16.000 304.000 81 72 66
52.000 16.000 305.000 81 72 66
53.000 16.000 304.000 81 72 66
53.000 16.000 305.000 81 72 66
54.000 16.000 304.000 81 72 66
55.000 16.000 304.000 81 73 66
56.000 16.000 304.000 82 73 67
33.000 32.000 286.000 90 78 73
33.000 32.000 287.000 90 78 73
34.000 32.000 286.000 92 78 73
34.000 33.000 286.000 92 77 73
34.000 33.000 287.000 91 77 73
35.000 33.000 286.000 95 79 74
35.000 33.000 287.000 93 78 73
35.000 34.000 286.000 95 79 74
35.000 34.000 287.000 94 79 74
36.000 34.000 286.000 99 81 74
36.000 34.000 287.000 97 81 75
37.000 35.000 286.000 102 83 75
37.000 35.000 287.000 100 83 75
38.000 35.000 286.000 101 82 73
38.000 35.000 287.000 99 81 73
39.000 35.000 286.000 100 80 71
39.000 35.000 287.000 98 79 71
39.000 36.000 286.000 99 79 70
39.000 36.000 287.000 97 78 71
40.000 36.000 286.000 98 78 70
40.000 36.000 287.000 96 77 70
41.000 36.000 286.000 98 77 70
41.000 36.000 287.000 96 77 70
42.000 36.000 286.000 98 78 71
42.000 36.000 287.000 96 77 70
43.000 36.000 286.000 99 78 71
43.000 37.000 286.000 99 79 72
43.000 37.000 287.000 96 77 70
44.000 37.000 286.000 99 78 71
44.000 37.000 287.000 97 77 71
45.000 37.000 286.000 98 78 71
45.000 37.000 287.000 97 77 71
46.000 37.000 286.000 98 77 70
46.000 37.000 287.000 97 77 70
47.000 37.000 286.000 98 77 70
46.000 38.000 287.000 97 77 71
47.000 38.000 286.000 98 78 70
47.000 38.000 287.000 97 78 71
48.000 38.000 286.000 98 78 71
48.000 38.000 287.000 98 78 71
49.000 38.000 286.000 99 80 72
49.000 38.000 287.000 99 79 71
50.000 38.000 286.000 100 80 72
50.000 38.000 287.000 100 80 72
51.000 38.000 286.000 101 79 72
51.000 38.000 287.000 101 80 72
53.000 38.000 285.000 104 82 73
53.000 39.000 285.000 106 83 74
52.000 38.000 286.000 102 81 72
52.000 38.000 287.000 103 82 73
53.000 38.000 286.000 104 82 73
53.000 38.000 287.000 105 83 74
53.000 39.000 286.000 106 83 74
53.000 39.000 287.000 106 85 75
54.000 39.000 285.000 107 85 74
55.000 39.000 285.000 110 87 76
54.000 39.000 286.000 107 84 74
54.000 39.000 287.000 107 85 75
55.000 39.000 286.000 109 86 76
55.000 39.000 287.000 109 87 76
56.000 39.000 286.000 110 87 76
56.000 39.000 287.000 109 86 76
33.000 32.000 288.000 88 77 73
33.000 32.000 289.000 86 76 72
33.000 33.000 288.000 89 77 73
33.000 33.000 289.000 88 77 73
33.000 32.000 290.000 84 74 71
33.000 32.000 291.000 83 74 71
33.000 33.000 290.000 87 76 73
34.000 33.000 288.000 91 77 73
34.000 33.000 289.000 90 78 74
35.000 33.000 288.000 92 78 73
35.000 33.000 289.000 91 78 74
34.000 33.000 290.000 89 78 74
34.000 33.000 291.000 88 77 74
35.000 33.000 290.000 91 79 75
35.000 33.000 291.000 89 78 75
35.000 34.000 288.000 94 79 74
35.000 34.000 289.000 93 79 74
35.000 34.000 290.000 92 80 75
35.000 34.000 291.000 91 80 76
33.000 32.000 292.000 82 73 71
33.000 32.000 293.000 80 73 71
33.000 32.000 294.000 78 71 69
34.000 32.000 293.000 84 76 74
34.000 33.000 292.000 86 78 75
34.000 33.000 293.000 86 78 75
35.000 33.000 292.000 88 78 76
35.000 33.000 293.000 87 78 76
34.000 32.000 294.000 82 74 73
34.000 32.000 295.000 81 73 71
34.000 33.000 294.000 85 76 74
35.000 33.000 294.000 86 78 76
35.000 33.000 295.000 86 78 76
35.000 34.000 292.000 89 79 76
36.000 34.000 288.000 96 81 75
36.000 34.000 289.000 95 81 75
37.000 35.000 288.000 98 82 75
37.000 35.000 289.000 97 81 75
36.000 34.000 290.000 94 81 76
36.000 34.000 291.000 93 81 76
36.000 35.000 290.000 95 81 76
37.000 35.000 290.000 96 81 75
37.000 35.000 291.000 94 81 76
38.000 35.000 288.000 98 82 74
38.000 35.000 289.000 97 81 75
39.000 35.000 288.000 97 80 73
39.000 35.000 289.000 96 80 74
38.000 35.000 290.000 96 81 75
38.000 35.000 291.000 93 80 75
39.000 35.000 290.000 96 81 75
36.000 33.000 295.000 87 79 77
36.000 34.000 292.000 92 82 77
36.000 34.000 293.000 90 81 78
37.000 35.000 292.000 93 83 78
37.000 35.000 293.000 92 83 80
36.000 34.000 294.000 89 80 78
36.000 34.000 295.000 88 80 79
37.000 34.000 294.000 90 82 80
37.000 34.000 295.000 89 81 80
37.000 35.000 294.000 91 83 80
37.000 35.000 295.000 90 82 81
38.000 35.000 292.000 93 81 77
38.000 35.000 293.000 91 82 78
38.000 35.000 294.000 90 82 79
38.000 35.000 295.000 90 83 81
39.000 36.000 288.000 96 79 72
39.000 36.000 289.000 95 79 74
39.000 36.000 290.000 94 79 74
39.000 36.000 291.000 92 79 73
38.000 36.000 292.000 92 81 76
38.000 36.000 293.000 91 80 76
39.000 36.000 292.000 92 79 74
39.000 36.000 293.000 90 79 75
38.000 36.000 294.000 90 80 77
39.000 36.000 294.000 88 79 76
39.000 36.000 295.000 88 80 78
34.000 32.000 296.000 80 73 71
34.000 32.000 297.000 80 73 71
35.000 32.000 297.000 82 74 73
35.000 33.000 296.000 85 76 75
35.000 33.000 297.000 84 76 75
34.000 32.000 298.000 79 72 70
34.000 32.000 299.000 78 71 69
35.000 32.000 298.000 81 73 72
35.000 32.000 299.000 80 73 71
35.000 33.000 298.000 82 74 73
35.000 33.000 299.000 82 74 73
35.000 32.000 300.000 78 71 70
35.000 32.000 301.000 78 71 69
35.000 33.000 300.000 81 74 73
35.000 32.000 302.000 76 69 67
36.000 33.000 296.000 86 78 77
36.000 33.000 297.000 85 77 76
36.000 33.000 298.000 84 76 76
36.000 33.000 299.000 83 76 75
36.000 34.000 296.000 87 79 79
36.000 34.000 297.000 86 78 78
37.000 34.000 296.000 88 80 79
37.000 34.000 297.000 87 80 79
37.000 35.000 296.000 89 82 81
37.000 35.000 297.000 88 81 81
36.000 34.000 298.000 85 77 77
36.000 34.000 299.000 84 77 77
37.000 34.000 298.000 86 79 78
37.000 34.000 299.000 85 78 77
38.000 35.000 296.000 90 83 82
38.000 35.000 297.000 89 83 82
39.000 35.000 297.000 90 84 83
38.000 35.000 298.000 88 81 81
38.000 35.000 299.000 87 80 79
39.000 35.000 298.000 89 83 83
39.000 35.000 299.000 89 82 81
36.000 33.000 300.000 83 76 74
36.000 33.000 301.000 82 75 73
36.000 32.000 302.000 78 71 69
36.000 32.000 303.000 76 70 67
36.000 33.000 302.000 80 74 72
36.000 33.000 303.000 79 72 70
37.000 33.000 302.000 81 75 73
37.000 33.000 303.000 80 73 72
36.000 34.000 300.000 83 77 75
37.000 34.000 300.000 84 77 76
37.000 34.000 301.000 83 76 75
37.000 34.000 302.000 82 76 74
37.000 34.000 303.000 81 75 73
38.000 34.000 301.000 83 76 75
38.000 35.000 300.000 86 78 78
38.000 35.000 301.000 85 77 77
39.000 35.000 300.000 88 81 81
39.000 35.000 301.000 87 80 80
38.000 34.000 302.000 83 76 75
38.000 34.000 303.000 81 75 74
38.000 35.000 302.000 84 77 76
39.000 35.000 302.000 85 78 78
39.000 35.000 303.000 83 77 77
39.000 36.000 296.000 89 82 80
39.000 36.000 297.000 89 83 82
39.000 36.000 298.000 88 83 81
39.000 36.000 299.000 89 83 82
39.000 36.000 300.000 88 82 82
40.000 36.000 288.000 95 78 72
40.000 36.000 289.000 94 78 72
41.000 36.000 288.000 95 77 71
41.000 36.000 289.000 94 77 71
40.000 36.000 290.000 93 78 72
40.000 36.000 291.000 92 78 72
41.000 36.000 290.000 92 77 71
41.000 36.000 291.000 91 77 71
42.000 36.000 288.000 95 77 70
42.000 36.000 289.000 94 76 71
43.000 37.000 288.000 95 77 70
43.000 37.000 289.000 94 77 70
42.000 36.000 290.000 92 76 70
42.000 36.000 291.000 91 77 71
42.000 37.000 291.000 91 77 71
43.000 37.000 290.000 92 76 70
43.000 37.000 291.000 91 76 70
40.000 36.000 292.000 91 78 73
40.000 36.000 293.000 90 78 73
41.000 36.000 292.000 90 77 72
41.000 36.000 293.000 89 77 72
40.000 36.000 294.000 87 77 74
40.000 36.000 295.000 86 78 75
41.000 36.000 294.000 87 76 72
41.000 36.000 295.000 85 76 73
42.000 36.000 292.000 90 77 71
42.000 37.000 292.000 90 76 71
42.000 37.000 293.000 89 76 71
43.000 37.000 292.000 90 76 70
43.000 37.000 293.000 89 76 70
42.000 36.000 295.000 84 75 71
42.000 37.000 294.000 87 75 71
42.000 37.000 295.000 85 74 71
43.000 37.000 294.000 87 75 71
43.000 37.000 295.000 86 74 70
44.000 37.000 288.000 95 77 71
44.000 37.000 289.000 94 76 70
45.000 37.000 288.000 96 77 70
45.000 37.000 289.000 94 77 70
44.000 37.000 290.000 93 76 69
44.000 37.000 291.000 91 76 70
45.000 37.000 290.000 93 76 69
45.000 37.000 291.000 91 76 70
46.000 37.000 288.000 96 77 70
46.000 37.000 289.000 95 77 70
46.000 37.000 290.000 93 76 69
46.000 37.000 291.000 92 76 70
46.000 38.000 288.000 96 77 71
46.000 38.000 289.000 95 77 70
47.000 38.000 288.000 97 78 72
47.000 38.000 289.000 96 78 72
46.000 38.000 290.000 94 76 70
46.000 38.000 291.000 92 76 70
47.000 38.000 290.000 95 78 71
47.000 38.000 291.000 94 77 70
44.000 37.000 292.000 90 76 70
44.000 37.000 293.000 89 76 70
45.000 37.000 292.000 90 76 70
45.000 37.000 293.000 90 76 70
44.000 37.000 294.000 88 75 70
44.000 37.000 295.000 86 74 70
45.000 37.000 294.000 88 76 71
45.000 37.000 295.000 86 74 70
46.000 37.000 292.000 91 76 70
46.000 37.000 293.000 90 76 71
46.000 37.000 294.000 89 76 71
46.000 37.000 295.000 87 74 70
46.000 38.000 292.000 91 76 70
46.000 38.000 293.000 91 76 70
47.000 38.000 292.000 92 76 69
47.000 38.000 293.000 91 76 69
46.000 38.000 294.000 89 76 70
46.000 38.000 295.000 88 75 70
47.000 38.000 294.000 90 75 70
47.000 38.000 295.000 88 75 70
40.000 35.000 302.000 87 80 81
40.000 35.000 303.000 86 80 80
40.000 36.000 296.000 86 79 77
40.000 36.000 297.000 87 81 79
41.000 36.000 296.000 84 76 73
41.000 36.000 297.000 84 77 74
40.000 36.000 298.000 87 81 80
40.000 36.000 299.000 88 82 81
41.000 36.000 298.000 84 78 76
41.000 36.000 299.000 85 80 79
42.000 36.000 296.000 83 74 71
42.000 36.000 297.000 82 74 71
42.000 37.000 296.000 84 74 70
42.000 37.000 297.000 82 73 70
43.000 37.000 296.000 84 73 69
43.000 37.000 297.000 82 72 69
42.000 36.000 298.000 82 75 73
42.000 36.000 299.000 83 76 75
42.000 37.000 298.000 82 74 71
43.000 37.000 298.000 82 72 70
43.000 37.000 299.000 82 74 72
40.000 36.000 300.000 88 82 82
40.000 36.000 301.000 88 82 82
41.000 36.000 300.000 87 81 80
41.000 36.000 301.000 87 82 81
40.000 36.000 302.000 87 81 82
40.000 36.000 303.000 87 81 82
41.000 36.000 302.000 88 82 82
41.000 36.000 303.000 88 82 82
42.000 36.000 300.000 84 78 77
42.000 36.000 301.000 86 80 79
43.000 37.000 300.000 83 76 74
43.000 37.000 301.000 84 77 76
42.000 36.000 302.000 88 82 81
42.000 36.000 303.000 89 83 83
43.000 36.000 302.000 88 82 81
43.000 36.000 303.000 89 83 83
43.000 37.000 302.000 85 79 78
43.000 37.000 303.000 88 82 81
44.000 37.000 296.000 84 73 69
44.000 37.000 297.000 83 72 69
45.000 37.000 296.000 85 73 69
45.000 37.000 297.000 85 73 69
44.000 37.000 298.000 83 73 69
44.000 37.000 299.000 83 73 70
45.000 37.000 298.000 85 73 70
45.000 37.000 299.000 84 74 70
46.000 37.000 296.000 86 74 69
46.000 37.000 297.000 86 74 69
47.000 37.000 297.000 87 75 70
46.000 37.000 298.000 86 75 70
46.000 37.000 299.000 86 75 71
47.000 37.000 298.000 87 76 71
47.000 37.000 299.000 87 76 72
46.000 38.000 296.000 87 74 70
47.000 38.000 296.000 88 75 70
47.000 38.000 297.000 87 75 71
47.000 38.000 298.000 87 75 71
47.000 38.000 299.000 87 76 71
44.000 37.000 300.000 83 75 72
44.000 37.000 301.000 84 75 73
45.000 37.000 300.000 84 74 71
45.000 37.000 301.000 84 75 73
44.000 37.000 302.000 85 77 76
44.000 37.000 303.000 87 80 79
45.000 37.000 302.000 84 76 74
45.000 37.000 303.000 85 78 76
46.000 37.000 300.000 85 75 72
46.000 37.000 301.000 85 76 73
47.000 37.000 300.000 86 76 72
47.000 37.000 301.000 86 76 72
46.000 37.000 302.000 85 76 73
46.000 37.000 303.000 84 76 75
47.000 37.000 302.000 85 76 73
47.000 37.000 303.000 84 76 74
47.000 38.000 300.000 87 76 72
47.000 38.000 301.000 86 76 73
47.000 38.000 302.000 86 76 73
47.000 38.000 303.000 84 76 74
36.000 32.000 304.000 75 69 67
36.000 32.000 305.000 74 67 65
37.000 32.000 304.000 76 69 68
37.000 32.000 305.000 74 68 66
37.000 33.000 304.000 78 71 70
37.000 33.000 305.000 77 70 69
37.000 32.000 306.000 73 67 66
37.000 32.000 307.000 73 66 65
37.000 34.000 304.000 80 73 72
38.000 33.000 305.000 77 71 70
38.000 32.000 307.000 74 67 67
38.000 33.000 306.000 76 70 69
38.000 33.000 307.000 77 71 70
38.000 34.000 304.000 80 74 73
38.000 34.000 305.000 79 73 72
39.000 34.000 304.000 81 75 75
39.000 34.000 305.000 81 75 75
39.000 35.000 304.000 83 77 77
39.000 35.000 305.000 83 78 78
39.000 34.000 306.000 82 76 76
39.000 34.000 307.000 82 76 75
37.000 32.000 308.000 71 65 65
38.000 33.000 308.000 76 70 69
38.000 33.000 309.000 75 69 69
39.000 34.000 308.000 83 77 77
40.000 35.000 304.000 85 79 80
40.000 35.000 305.000 86 80 81
40.000 35.000 306.000 87 81 82
40.000 35.000 307.000 87 82 82
40.000 34.000 308.000 85 80 81
41.000 36.000 304.000 88 82 82
41.000 36.000 305.000 88 82 83
41.000 36.000 306.000 88 83 84
42.000 36.000 304.000 89 83 83
43.000 36.000 304.000 89 83 83
43.000 37.000 304.000 88 83 82
44.000 37.000 304.000 88 82 81
44.000 36.000 307.000 91 86 87
47.000 38.000 304.000 84 77 75
47.000 38.000 305.000 84 77 76
48.000 38.000 288.000 98 78 71
48.000 38.000 289.000 97 78 72
49.000 38.000 288.000 98 79 71
49.000 38.000 289.000 98 79 71
48.000 38.000 290.000 96 78 71
48.000 38.000 291.000 95 78 71
49.000 38.000 290.000 97 78 70
49.000 38.000 291.000 96 78 70
50.000 38.000 288.000 100 80 72
50.000 38.000 289.000 99 80 72
51.000 38.000 288.000 102 81 73
51.000 38.000 289.000 101 81 73
50.000 38.000 290.000 98 79 70
50.000 38.000 291.000 97 78 70
51.000 38.000 290.000 100 79 71
51.000 38.000 291.000 99 79 71
48.000 38.000 292.000 93 76 69
48.000 38.000 293.000 92 76 69
49.000 38.000 292.000 94 77 70
49.000 38.000 293.000 93 77 70
48.000 38.000 294.000 90 75 69
48.000 38.000 295.000 89 75 70
49.000 38.000 294.000 92 76 70
49.000 38.000 295.000 90 75 69
50.000 38.000 292.000 96 78 70
50.000 38.000 293.000 95 78 70
51.000 38.000 292.000 98 79 71
51.000 38.000 293.000 97 78 71
50.000 38.000 294.000 94 77 70
50.000 38.000 295.000 91 75 69
51.000 38.000 294.000 96 78 71
51.000 38.000 295.000 93 77 70
52.000 38.000 288.000 104 83 74
52.000 38.000 289.000 103 82 73
53.000 38.000 288.000 106 85 76
53.000 38.000 289.000 106 85 76
53.000 39.000 288.000 107 86 76
53.000 39.000 289.000 108 86 77
52.000 38.000 290.000 102 81 72
52.000 38.000 291.000 101 80 72
53.000 38.000 290.000 105 84 74
53.000 38.000 291.000 103 82 73
53.000 39.000 290.000 107 86 76
53.000 39.000 291.000 105 84 75
54.000 39.000 288.000 108 86 76
54.000 39.000 289.000 108 86 77
55.000 39.000 288.000 109 86 76
55.000 39.000 289.000 108 86 76
54.000 38.000 291.000 103 81 72
54.000 39.000 290.000 107 85 76
54.000 39.000 291.000 105 83 73
55.000 39.000 290.000 108 85 75
55.000 39.000 291.000 107 84 74
52.000 38.000 292.000 100 79 72
52.000 38.000 293.000 99 79 71
53.000 38.000 292.000 101 80 71
53.000 38.000 293.000 100 80 72
52.000 38.000 294.000 98 79 72
52.000 38.000 295.000 96 77 71
53.000 38.000 294.000 99 79 72
53.000 38.000 295.000 97 78 71
54.000 38.000 292.000 101 80 71
54.000 38.000 293.000 102 80 72
54.000 39.000 292.000 103 81 72
54.000 39.000 293.000 103 81 72
55.000 39.000 292.000 105 82 72
55.000 39.000 293.000 104 81 71
54.000 38.000 294.000 101 80 72
54.000 38.000 295.000 99 79 71
54.000 39.000 294.000 102 81 72
55.000 38.000 295.000 100 80 70
55.000 39.000 294.000 103 81 71
55.000 39.000 295.000 102 80 70
48.000 38.000 296.000 88 75 70
48.000 38.000 297.000 88 75 70
49.000 38.000 296.000 89 75 70
49.000 38.000 297.000 88 75 70
48.000 38.000 298.000 87 75 70
48.000 38.000 299.000 87 76 72
49.000 38.000 298.000 88 75 70
49.000 38.000 299.000 88 76 71
50.000 38.000 296.000 90 75 69
50.000 38.000 297.000 89 75 69
51.000 38.000 296.000 92 76 69
51.000 38.000 297.000 90 75 69
50.000 38.000 298.000 88 75 70
50.000 38.000 299.000 88 76 71
51.000 38.000 298.000 89 75 69
51.000 38.000 299.000 89 76 71
48.000 38.000 300.000 87 76 72
48.000 38.000 301.000 87 76 72
49.000 38.000 300.000 87 76 72
49.000 38.000 301.000 87 76 73
48.000 38.000 302.000 86 77 74
48.000 38.000 303.000 85 77 74
49.000 38.000 302.000 87 77 73
49.000 38.000 303.000 86 77 74
50.000 38.000 300.000 88 76 72
50.000 38.000 301.000 88 77 73
51.000 38.000 300.000 89 77 72
51.000 38.000 301.000 89 78 73
50.000 38.000 302.000 88 77 74
50.000 38.000 303.000 87 77 74
51.000 38.000 302.000 90 79 74
51.000 38.000 303.000 89 79 75
52.000 38.000 296.000 93 76 69
52.000 38.000 297.000 91 75 68
53.000 38.000 296.000 94 76 70
53.000 38.000 297.000 92 75 69
52.000 38.000 298.000 90 75 69
52.000 38.000 299.000 90 76 70
53.000 38.000 298.000 91 75 68
53.000 38.000 299.000 90 75 69
54.000 38.000 296.000 97 78 70
54.000 38.000 297.000 95 76 69
55.000 38.000 296.000 99 79 69
55.000 38.000 297.000 97 78 69
54.000 38.000 298.000 92 75 67
54.000 38.000 299.000 91 75 68
55.000 38.000 298.000 95 76 67
55.000 38.000 299.000 92 75 67
52.000 38.000 300.000 90 77 72
52.000 38.000 301.000 89 78 73
53.000 38.000 300.000 90 76 71
53.000 38.000 301.000 89 77 72
52.000 38.000 302.000 90 79 74
52.000 38.000 303.000 90 79 75
53.000 38.000 302.000 89 78 73
53.000 38.000 303.000 88 78 73
54.000 38.000 300.000 90 75 69
54.000 38.000 301.000 89 76 70
55.000 38.000 300.000 91 74 67
55.000 38.000 301.000 89 74 67
54.000 38.000 302.000 86 74 68
54.000 38.000 303.000 84 72 67
55.000 38.000 302.000 85 71 64
55.000 38.000 303.000 82 70 63
56.000 39.000 288.000 109 86 75
56.000 39.000 289.000 108 84 73
56.000 39.000 290.000 108 84 73
56.000 38.000 296.000 101 80 70
56.000 38.000 297.000 99 79 69
56.000 39.000 297.000 101 80 70
56.000 38.000 298.000 96 77 66
56.000 38.000 299.000 94 76 66
56.000 38.000 300.000 92 75 67
56.000 38.000 301.000 90 74 66
56.000 38.000 302.000 84 71 63
56.000 38.000 303.000 82 70 62
48.000 38.000 304.000 85 77 75
48.000 38.000 305.000 85 78 77
49.000 38.000 304.000 85 77 75
49.000 38.000 305.000 85 78 76
48.000 38.000 306.000 86 79 79
49.000 38.000 306.000 86 79 79
50.000 38.000 304.000 86 77 75
50.000 38.000 305.000 87 79 77
51.000 38.000 304.000 88 79 76
51.000 38.000 305.000 88 79 77
50.000 38.000 306.000 88 80 80
51.000 38.000 306.000 88 81 80
52.000 37.000 305.000 87 78 76
53.000 37.000 305.000 86 77 74
52.000 38.000 304.000 88 79 75
52.000 38.000 305.000 87 79 77
53.000 38.000 304.000 87 77 73
54.000 37.000 304.000 82 72 67
54.000 37.000 305.000 82 72 67
55.000 37.000 304.000 81 70 64
55.000 37.000 305.000 81 70 65
54.000 38.000 304.000 82 72 66
55.000 38.000 304.000 81 70 64
56.000 37.000 304.000 80 69 62
56.000 37.000 305.000 80 68 64
56.000 38.000 304.000 80 69 63
