ply
format ascii 1.0
element vertex 841
property float x
property float y
property float z
property uchar red
property uchar green
property uchar blue
end_header
253.000 582.000 138.000 83 90 100
253.000 583.000 138.000 84 91 102
254.000 581.000 138.000 83 90 101
255.000 581.000 138.000 85 92 102
254.000 582.000 138.000 84 91 101
254.000 583.000 138.000 82 89 99
255.000 582.000 138.000 84 91 101
255.000 583.000 138.000 84 90 100
253.000 584.000 138.000 86 94 104
253.000 585.000 138.000 88 95 106
253.000 585.000 139.000 90 99 110
252.000 587.000 139.000 104 112 123
253.000 586.000 139.000 90 99 110
253.000 587.000 139.000 98 106 116
254.000 584.000 138.000 82 89 99
254.000 585.000 138.000 84 91 102
254.000 585.000 139.000 84 92 103
255.000 584.000 138.000 82 89 99
255.000 585.000 139.000 82 90 100
254.000 586.000 139.000 84 92 102
254.000 587.000 139.000 87 94 104
255.000 586.000 139.000 83 90 100
255.000 587.000 139.000 84 91 100
252.000 588.000 139.000 93 101 113
252.000 589.000 139.000 85 92 103
253.000 588.000 139.000 94 100 111
253.000 589.000 139.000 88 94 104
252.000 590.000 139.000 82 89 99
252.000 591.000 139.000 83 90 99
253.000 590.000 139.000 85 91 101
254.000 588.000 139.000 88 95 105
254.000 589.000 139.000 87 94 103
255.000 588.000 139.000 86 92 103
255.000 589.000 139.000 86 93 103
254.000 590.000 139.000 87 93 103
255.000 590.000 139.000 87 94 104
252.000 591.000 140.000 85 91 101
253.000 591.000 140.000 85 91 101
254.000 590.000 140.000 90 96 106
254.000 591.000 140.000 93 99 109
255.000 590.000 140.000 89 96 107
255.000 591.000 140.000 98 105 116
251.000 596.000 140.000 90 97 107
251.000 597.000 140.000 94 100 111
251.000 599.000 141.000 82 89 99
252.000 592.000 140.000 85 92 101
252.000 593.000 140.000 83 90 100
253.000 592.000 140.000 86 92 102
253.000 593.000 140.000 84 91 101
252.000 594.000 140.000 83 90 100
252.000 595.000 140.000 84 91 101
253.000 594.000 140.000 84 91 101
253.000 595.000 140.000 84 91 101
254.000 592.000 140.000 90 97 107
254.000 593.000 140.000 85 92 102
255.000 592.000 140.000 96 103 114
255.000 593.000 140.000 85 93 103
254.000 594.000 140.000 84 91 101
254.000 594.000 141.000 83 90 101
254.000 595.000 140.000 85 92 103
254.000 595.000 141.000 84 91 102
255.000 594.000 140.000 80 88 98
255.000 595.000 140.000 84 92 103
252.000 596.000 140.000 84 91 102
252.000 596.000 141.000 82 89 100
252.000 597.000 141.000 82 90 100
253.000 596.000 141.000 83 90 100
253.000 597.000 141.000 83 90 101
252.000 598.000 141.000 82 89 99
252.000 599.000 141.000 83 89 99
253.000 598.000 141.000 80 87 98
253.000 599.000 141.000 82 89 99
254.000 596.000 141.000 88 95 106
254.000 597.000 141.000 92 98 109
255.000 596.000 140.000 97 104 114
255.000 596.000 141.000 97 104 115
255.000 597.000 140.000 102 108 119
255.000 597.000 141.000 100 106 117
254.000 598.000 141.000 86 93 104
254.000 599.000 141.000 82 89 99
255.000 598.000 141.000 96 103 114
255.000 599.000 141.000 84 92 103
251.000 600.000 141.000 82 88 98
251.000 601.000 141.000 81 87 97
250.000 603.000 141.000 81 89 99
251.000 602.000 141.000 82 89 99
251.000 603.000 141.000 86 94 104
250.000 605.000 142.000 85 93 105
251.000 604.000 142.000 89 97 109
251.000 605.000 142.000 98 106 117
250.000 606.000 142.000 84 92 103
250.000 607.000 142.000 78 86 96
251.000 606.000 142.000 94 102 114
251.000 607.000 142.000 83 91 103
252.000 600.000 141.000 83 89 98
252.000 601.000 141.000 82 88 98
253.000 600.000 141.000 83 89 99
253.000 601.000 141.000 82 89 98
252.000 602.000 141.000 84 91 102
252.000 603.000 141.000 92 100 110
253.000 602.000 141.000 86 93 104
253.000 603.000 141.000 95 102 113
254.000 600.000 141.000 83 90 100
254.000 601.000 141.000 83 90 100
255.000 600.000 141.000 82 89 99
255.000 601.000 141.000 83 90 100
254.000 602.000 141.000 88 95 105
254.000 603.000 141.000 95 102 112
255.000 602.000 141.000 89 95 105
255.000 603.000 141.000 90 96 106
252.000 604.000 142.000 97 105 116
252.000 605.000 142.000 101 109 120
253.000 604.000 142.000 103 110 121
253.000 605.000 142.000 99 107 119
252.000 606.000 142.000 97 105 116
252.000 607.000 142.000 91 98 109
253.000 606.000 142.000 96 104 114
253.000 607.000 142.000 89 97 107
254.000 604.000 141.000 98 105 115
254.000 605.000 141.000 93 100 111
255.000 604.000 141.000 90 97 107
255.000 605.000 141.000 89 96 107
254.000 604.000 142.000 102 109 121
254.000 605.000 142.000 98 105 116
255.000 606.000 141.000 91 98 109
254.000 606.000 142.000 95 102 113
254.000 607.000 142.000 85 93 103
255.000 606.000 142.000 91 98 108
255.000 607.000 142.000 84 91 101
247.000 615.000 143.000 85 91 101
245.000 619.000 143.000 105 112 122
246.000 617.000 143.000 84 91 101
247.000 616.000 143.000 86 92 101
247.000 617.000 143.000 85 92 101
246.000 618.000 143.000 93 100 110
246.000 619.000 143.000 105 111 122
247.000 618.000 143.000 86 93 103
247.000 619.000 143.000 92 99 110
244.000 621.000 143.000 99 107 119
245.000 620.000 143.000 100 108 119
246.000 620.000 143.000 101 109 120
246.000 621.000 143.000 99 107 118
247.000 620.000 143.000 96 103 115
249.000 609.000 142.000 80 87 96
249.000 610.000 142.000 89 95 104
249.000 611.000 142.000 96 102 112
250.000 608.000 142.000 77 84 94
250.000 609.000 142.000 77 84 94
251.000 608.000 142.000 80 87 98
251.000 609.000 142.000 80 87 97
250.000 610.000 142.000 83 89 99
250.000 611.000 142.000 89 95 105
251.000 610.000 142.000 81 88 98
251.000 611.000 142.000 81 88 98
248.000 612.000 142.000 98 105 115
248.000 613.000 143.000 87 95 105
249.000 612.000 142.000 96 103 113
249.000 613.000 143.000 90 97 108
248.000 614.000 143.000 83 90 100
248.000 615.000 143.000 84 90 100
249.000 614.000 143.000 84 91 102
249.000 615.000 143.000 83 90 101
250.000 612.000 142.000 91 98 108
250.000 613.000 142.000 88 95 105
250.000 613.000 143.000 86 93 104
251.000 612.000 142.000 82 89 99
251.000 613.000 142.000 83 91 101
251.000 613.000 143.000 83 90 100
250.000 614.000 143.000 84 92 103
250.000 615.000 143.000 88 96 107
251.000 614.000 143.000 87 94 104
251.000 615.000 143.000 95 102 112
252.000 608.000 142.000 83 91 101
252.000 609.000 142.000 81 88 98
253.000 608.000 142.000 83 90 100
253.000 609.000 142.000 80 87 97
252.000 610.000 142.000 82 89 98
252.000 611.000 142.000 80 87 97
253.000 610.000 142.000 81 88 98
253.000 611.000 142.000 81 88 98
254.000 608.000 142.000 79 86 96
254.000 609.000 142.000 79 86 96
255.000 608.000 142.000 78 85 95
255.000 609.000 142.000 80 86 96
254.000 610.000 142.000 80 87 96
254.000 611.000 142.000 80 87 96
255.000 610.000 142.000 81 88 97
255.000 611.000 142.000 80 87 97
252.000 612.000 142.000 80 87 97
252.000 613.000 142.000 81 88 98
252.000 613.000 143.000 81 88 98
253.000 612.000 142.000 79 86 96
253.000 613.000 142.000 80 87 96
252.000 614.000 143.000 86 92 102
252.000 615.000 143.000 94 100 110
253.000 614.000 142.000 82 88 98
253.000 614.000 143.000 83 89 99
253.000 615.000 143.000 86 92 101
254.000 612.000 142.000 80 87 96
254.000 613.000 142.000 80 87 96
255.000 612.000 142.000 79 86 96
255.000 613.000 142.000 79 86 96
254.000 614.000 142.000 84 90 99
254.000 615.000 142.000 85 91 100
254.000 615.000 143.000 85 91 100
255.000 614.000 142.000 83 89 99
255.000 615.000 142.000 86 92 102
248.000 616.000 143.000 85 91 101
248.000 617.000 143.000 84 90 100
249.000 616.000 143.000 84 91 101
249.000 617.000 143.000 83 90 100
248.000 618.000 143.000 82 89 99
248.000 619.000 143.000 82 89 100
249.000 618.000 143.000 81 88 98
249.000 619.000 143.000 79 86 96
250.000 616.000 143.000 91 98 109
250.000 617.000 143.000 89 96 106
251.000 616.000 143.000 97 104 114
251.000 617.000 143.000 91 98 109
250.000 618.000 143.000 82 89 99
250.000 619.000 143.000 77 85 95
251.000 618.000 143.000 84 91 101
251.000 619.000 143.000 78 85 94
250.000 620.000 143.000 76 84 93
251.000 620.000 143.000 78 84 93
251.000 623.000 143.000 77 84 93
252.000 616.000 143.000 94 100 110
252.000 617.000 143.000 86 93 103
253.000 616.000 143.000 86 92 102
253.000 617.000 143.000 82 89 99
252.000 618.000 143.000 82 89 98
252.000 619.000 143.000 79 85 95
253.000 618.000 143.000 80 86 95
253.000 619.000 143.000 79 85 94
254.000 616.000 143.000 85 91 100
254.000 617.000 143.000 83 89 98
255.000 616.000 142.000 88 94 103
255.000 616.000 143.000 86 92 102
255.000 617.000 143.000 84 90 99
254.000 618.000 143.000 80 87 96
254.000 619.000 143.000 79 85 95
255.000 618.000 143.000 81 88 97
255.000 619.000 143.000 79 86 95
252.000 620.000 143.000 78 84 93
252.000 621.000 143.000 79 85 95
253.000 620.000 143.000 79 85 95
253.000 621.000 143.000 80 88 97
252.000 622.000 143.000 80 87 97
252.000 623.000 143.000 81 88 98
253.000 622.000 143.000 87 94 104
253.000 623.000 143.000 93 100 110
254.000 620.000 143.000 80 87 97
254.000 621.000 143.000 84 91 101
255.000 620.000 143.000 80 87 97
255.000 621.000 143.000 81 90 101
254.000 622.000 143.000 91 99 110
254.000 623.000 143.000 97 105 116
255.000 622.000 143.000 89 98 109
255.000 623.000 143.000 96 104 115
247.000 620.000 144.000 94 102 113
249.000 619.000 144.000 79 87 97
248.000 620.000 144.000 84 92 103
249.000 620.000 144.000 79 87 98
252.000 624.000 143.000 84 91 101
253.000 624.000 143.000 96 103 114
253.000 625.000 143.000 93 100 110
253.000 626.000 143.000 89 96 107
254.000 624.000 143.000 100 108 119
254.000 625.000 143.000 99 106 117
255.000 624.000 143.000 98 105 117
255.000 625.000 143.000 97 104 115
254.000 626.000 143.000 90 97 108
254.000 627.000 143.000 82 89 100
255.000 626.000 143.000 89 96 106
255.000 627.000 143.000 81 88 98
253.000 628.000 144.000 82 89 99
254.000 628.000 144.000 82 88 98
255.000 628.000 144.000 80 86 96
256.000 581.000 138.000 84 91 101
257.000 581.000 138.000 83 89 99
256.000 582.000 138.000 82 89 99
256.000 583.000 138.000 83 90 100
257.000 582.000 138.000 83 90 100
257.000 583.000 138.000 84 91 100
258.000 581.000 138.000 83 90 101
259.000 581.000 138.000 89 96 106
258.000 582.000 138.000 89 96 106
258.000 583.000 138.000 93 100 110
259.000 582.000 138.000 95 102 113
259.000 583.000 138.000 103 109 120
259.000 583.000 139.000 103 110 121
260.000 581.000 138.000 97 103 114
261.000 581.000 138.000 92 100 111
260.000 582.000 138.000 102 109 120
260.000 583.000 139.000 101 109 121
261.000 582.000 138.000 102 110 122
261.000 583.000 139.000 95 104 117
262.000 582.000 138.000 101 109 121
262.000 583.000 139.000 94 103 116
263.000 583.000 139.000 95 104 116
256.000 584.000 138.000 83 89 99
256.000 585.000 138.000 81 88 98
256.000 585.000 139.000 82 89 99
257.000 584.000 138.000 83 90 100
257.000 584.000 139.000 84 90 100
257.000 585.000 139.000 83 90 100
256.000 586.000 139.000 82 89 99
256.000 587.000 139.000 83 90 100
257.000 586.000 139.000 83 89 99
257.000 587.000 139.000 82 89 99
258.000 584.000 138.000 84 91 102
258.000 584.000 139.000 84 92 103
258.000 585.000 139.000 84 91 102
259.000 584.000 139.000 90 98 109
259.000 585.000 139.000 86 94 105
258.000 586.000 139.000 84 90 100
258.000 587.000 139.000 82 88 98
259.000 586.000 139.000 84 91 101
259.000 587.000 139.000 82 89 99
256.000 588.000 139.000 84 91 101
256.000 589.000 139.000 85 92 102
257.000 588.000 139.000 81 87 97
257.000 589.000 139.000 84 91 101
256.000 590.000 139.000 85 93 103
258.000 588.000 139.000 81 87 96
258.000 589.000 139.000 83 89 98
259.000 588.000 139.000 82 88 98
259.000 589.000 139.000 83 89 99
257.000 589.000 140.000 84 90 100
256.000 590.000 140.000 86 93 104
256.000 591.000 140.000 97 104 115
257.000 590.000 140.000 86 93 103
257.000 591.000 140.000 90 97 107
258.000 589.000 140.000 85 91 100
259.000 589.000 140.000 85 91 100
258.000 590.000 140.000 87 93 102
258.000 591.000 140.000 86 92 102
259.000 590.000 140.000 87 93 102
259.000 591.000 140.000 86 92 101
260.000 584.000 139.000 98 106 117
260.000 585.000 139.000 93 101 112
261.000 584.000 139.000 95 104 116
261.000 585.000 139.000 97 104 116
260.000 586.000 139.000 86 94 105
260.000 587.000 139.000 82 89 99
261.000 586.000 139.000 92 99 110
261.000 587.000 139.000 83 91 102
262.000 584.000 139.000 90 99 112
262.000 585.000 139.000 91 99 111
263.000 584.000 139.000 90 98 110
263.000 585.000 139.000 86 94 106
262.000 586.000 139.000 90 98 109
262.000 587.000 139.000 84 92 103
263.000 586.000 139.000 85 92 103
263.000 587.000 139.000 82 89 100
262.000 587.000 140.000 80 87 98
263.000 587.000 140.000 81 88 98
260.000 588.000 139.000 82 89 99
260.000 589.000 139.000 85 91 101
261.000 588.000 139.000 82 89 100
261.000 589.000 139.000 85 93 104
263.000 588.000 139.000 82 89 99
263.000 589.000 139.000 85 91 101
263.000 590.000 139.000 83 90 99
263.000 591.000 139.000 84 91 101
261.000 588.000 140.000 82 89 100
261.000 589.000 140.000 90 97 108
260.000 590.000 140.000 91 97 107
260.000 591.000 140.000 88 94 104
261.000 590.000 140.000 97 104 114
261.000 591.000 140.000 88 96 106
262.000 588.000 140.000 82 90 101
262.000 589.000 140.000 91 98 109
263.000 588.000 140.000 82 89 99
263.000 589.000 140.000 87 93 103
262.000 590.000 140.000 96 103 114
262.000 591.000 140.000 87 95 105
263.000 590.000 140.000 88 95 105
263.000 591.000 140.000 84 92 102
264.000 584.000 139.000 91 99 110
264.000 585.000 139.000 83 91 102
265.000 585.000 139.000 83 91 101
264.000 586.000 139.000 82 90 100
264.000 587.000 139.000 80 87 97
265.000 586.000 139.000 79 87 97
265.000 587.000 139.000 80 87 97
266.000 586.000 139.000 78 85 95
266.000 587.000 139.000 79 86 95
267.000 587.000 139.000 78 85 95
264.000 586.000 140.000 82 90 100
264.000 587.000 140.000 81 88 98
265.000 587.000 140.000 81 87 97
264.000 588.000 139.000 82 89 99
264.000 589.000 139.000 83 89 99
265.000 588.000 139.000 83 89 98
265.000 589.000 139.000 83 89 98
264.000 590.000 139.000 82 88 98
264.000 591.000 139.000 81 87 97
265.000 590.000 139.000 82 88 97
265.000 591.000 139.000 80 86 95
266.000 588.000 139.000 82 88 97
266.000 589.000 139.000 83 89 98
267.000 588.000 139.000 84 90 99
267.000 589.000 139.000 85 91 100
266.000 590.000 139.000 81 87 96
266.000 591.000 139.000 79 85 94
267.000 590.000 139.000 85 91 100
267.000 591.000 139.000 84 90 100
264.000 588.000 140.000 82 88 98
264.000 589.000 140.000 84 90 100
268.000 588.000 139.000 81 88 97
268.000 589.000 139.000 85 91 101
269.000 589.000 139.000 83 90 99
268.000 590.000 139.000 90 96 105
268.000 591.000 139.000 88 95 104
269.000 590.000 139.000 86 93 102
269.000 591.000 139.000 88 95 104
270.000 590.000 139.000 84 90 100
270.000 591.000 139.000 83 89 98
271.000 591.000 139.000 78 84 92
256.000 592.000 140.000 94 101 112
256.000 593.000 140.000 83 91 102
257.000 592.000 140.000 88 95 106
257.000 593.000 140.000 81 89 99
256.000 594.000 140.000 79 87 97
256.000 595.000 140.000 82 90 101
256.000 595.000 141.000 84 92 103
257.000 594.000 140.000 80 87 97
257.000 594.000 141.000 81 88 98
257.000 595.000 140.000 81 88 99
257.000 595.000 141.000 83 91 101
258.000 592.000 140.000 85 91 102
258.000 593.000 140.000 80 87 97
259.000 592.000 140.000 85 91 101
259.000 593.000 140.000 81 87 97
258.000 594.000 140.000 80 86 96
258.000 595.000 140.000 82 89 98
259.000 594.000 140.000 80 87 96
259.000 595.000 140.000 82 88 98
256.000 596.000 140.000 99 105 116
256.000 596.000 141.000 95 102 112
256.000 597.000 141.000 102 109 119
257.000 596.000 141.000 89 96 106
257.000 597.000 141.000 94 101 112
256.000 598.000 141.000 96 103 113
256.000 599.000 141.000 86 93 103
257.000 598.000 141.000 93 100 111
257.000 599.000 141.000 87 94 105
258.000 596.000 140.000 86 93 103
258.000 597.000 140.000 87 95 105
258.000 597.000 141.000 90 98 108
259.000 596.000 140.000 84 91 101
259.000 597.000 140.000 85 92 102
258.000 598.000 140.000 93 100 111
258.000 598.000 141.000 92 99 109
258.000 599.000 141.000 85 93 103
259.000 598.000 140.000 86 93 103
259.000 599.000 140.000 84 91 102
259.000 599.000 141.000 81 89 99
263.000 592.000 139.000 82 88 98
263.000 593.000 139.000 80 87 96
263.000 594.000 139.000 80 87 96
263.000 595.000 139.000 80 87 96
260.000 592.000 140.000 85 91 100
260.000 593.000 140.000 82 88 97
261.000 592.000 140.000 83 90 99
261.000 593.000 140.000 80 86 96
260.000 594.000 140.000 80 86 96
260.000 595.000 140.000 81 87 97
261.000 594.000 140.000 78 85 94
261.000 595.000 140.000 80 86 95
262.000 592.000 140.000 81 88 99
262.000 593.000 140.000 80 87 96
263.000 592.000 140.000 81 88 98
263.000 593.000 140.000 80 86 95
262.000 594.000 140.000 78 85 94
262.000 595.000 140.000 80 86 95
263.000 594.000 140.000 79 86 95
263.000 595.000 140.000 80 86 95
263.000 596.000 139.000 81 87 97
260.000 596.000 140.000 81 88 97
260.000 597.000 140.000 82 88 97
261.000 596.000 140.000 81 87 96
261.000 597.000 140.000 79 86 95
260.000 598.000 140.000 80 87 97
260.000 599.000 140.000 81 88 98
260.000 599.000 141.000 81 89 99
261.000 598.000 140.000 79 85 95
261.000 599.000 140.000 80 88 98
262.000 596.000 140.000 80 86 95
262.000 597.000 140.000 80 86 95
263.000 596.000 140.000 81 87 96
263.000 597.000 140.000 81 87 97
262.000 598.000 140.000 79 86 96
262.000 599.000 140.000 83 90 101
263.000 598.000 140.000 82 90 101
263.000 599.000 140.000 87 95 107
256.000 600.000 141.000 81 88 98
256.000 601.000 141.000 82 89 98
257.000 600.000 141.000 82 89 100
257.000 601.000 141.000 81 88 98
256.000 602.000 141.000 84 90 100
256.000 603.000 141.000 84 91 100
257.000 602.000 141.000 82 88 98
257.000 603.000 141.000 81 87 97
258.000 600.000 141.000 82 89 99
258.000 601.000 141.000 81 89 99
259.000 600.000 141.000 81 88 98
259.000 601.000 141.000 83 89 99
258.000 602.000 141.000 82 89 99
258.000 603.000 141.000 81 87 97
259.000 602.000 141.000 84 90 100
259.000 603.000 141.000 82 88 97
256.000 604.000 141.000 84 90 100
256.000 605.000 141.000 84 91 101
257.000 604.000 141.000 81 88 97
257.000 605.000 141.000 81 87 97
256.000 606.000 141.000 83 90 100
257.000 606.000 141.000 78 85 95
256.000 606.000 142.000 81 88 98
256.000 607.000 142.000 81 88 98
257.000 606.000 142.000 79 85 95
257.000 607.000 142.000 80 86 96
258.000 604.000 141.000 81 87 96
258.000 605.000 141.000 81 87 96
259.000 604.000 141.000 81 87 96
259.000 605.000 141.000 81 87 96
258.000 606.000 141.000 80 86 95
258.000 607.000 141.000 80 87 96
259.000 606.000 141.000 81 87 96
259.000 607.000 141.000 81 87 96
260.000 600.000 140.000 84 91 101
260.000 600.000 141.000 83 90 100
260.000 601.000 140.000 88 95 105
260.000 601.000 141.000 88 94 104
261.000 600.000 140.000 87 94 104
261.000 601.000 140.000 91 98 108
260.000 602.000 141.000 87 94 103
260.000 603.000 141.000 80 87 97
261.000 602.000 140.000 91 97 108
261.000 603.000 140.000 81 88 99
262.000 600.000 140.000 91 98 109
262.000 601.000 140.000 94 101 112
263.000 600.000 140.000 90 98 109
263.000 601.000 140.000 94 101 113
262.000 602.000 140.000 90 98 109
262.000 603.000 140.000 86 94 105
263.000 602.000 140.000 89 97 109
263.000 603.000 140.000 87 95 107
260.000 604.000 141.000 80 87 96
260.000 605.000 141.000 81 87 96
261.000 604.000 140.000 82 89 99
261.000 604.000 141.000 80 87 96
261.000 605.000 141.000 82 88 97
260.000 606.000 141.000 80 87 96
260.000 607.000 141.000 79 86 95
261.000 606.000 141.000 81 88 97
261.000 607.000 141.000 79 86 96
262.000 604.000 140.000 85 92 103
262.000 605.000 140.000 84 90 100
263.000 604.000 140.000 90 97 108
263.000 605.000 140.000 89 95 105
262.000 606.000 140.000 83 90 100
262.000 606.000 141.000 82 88 98
262.000 607.000 141.000 81 88 98
263.000 606.000 140.000 83 90 100
263.000 607.000 140.000 84 91 101
263.000 607.000 141.000 83 90 100
264.000 592.000 139.000 81 87 96
264.000 593.000 139.000 80 86 95
265.000 592.000 139.000 79 85 94
265.000 593.000 139.000 79 85 94
264.000 594.000 139.000 80 86 95
264.000 595.000 139.000 80 87 96
265.000 594.000 139.000 79 85 94
265.000 595.000 139.000 80 86 96
266.000 592.000 139.000 77 83 92
266.000 593.000 139.000 77 83 92
267.000 592.000 139.000 78 85 94
267.000 593.000 139.000 76 82 92
266.000 594.000 139.000 78 84 93
266.000 595.000 139.000 80 87 96
267.000 594.000 139.000 78 84 93
267.000 595.000 139.000 80 86 95
264.000 596.000 139.000 81 88 97
264.000 597.000 139.000 83 89 100
265.000 596.000 139.000 81 87 97
265.000 597.000 139.000 83 90 100
265.000 598.000 139.000 92 99 109
266.000 596.000 139.000 80 86 96
266.000 597.000 139.000 81 88 98
267.000 596.000 139.000 80 86 95
267.000 597.000 139.000 80 86 96
266.000 598.000 139.000 92 99 109
266.000 599.000 139.000 97 104 115
267.000 598.000 139.000 85 91 101
267.000 599.000 139.000 89 96 106
264.000 598.000 140.000 89 97 108
264.000 599.000 140.000 90 99 110
265.000 598.000 140.000 95 102 113
265.000 599.000 140.000 94 102 114
266.000 599.000 140.000 94 101 112
268.000 592.000 139.000 82 88 98
268.000 593.000 139.000 77 84 93
269.000 592.000 139.000 82 88 98
269.000 593.000 139.000 77 84 93
268.000 594.000 139.000 79 85 95
268.000 595.000 139.000 81 87 96
269.000 594.000 139.000 79 86 95
269.000 595.000 139.000 83 89 99
270.000 592.000 139.000 80 87 96
270.000 593.000 139.000 77 84 93
271.000 592.000 139.000 76 83 92
271.000 593.000 139.000 78 85 94
270.000 594.000 139.000 83 89 99
270.000 595.000 139.000 89 95 104
271.000 594.000 139.000 85 91 101
268.000 596.000 139.000 80 87 96
268.000 597.000 139.000 78 85 94
269.000 596.000 139.000 83 90 99
269.000 597.000 139.000 81 87 96
268.000 598.000 139.000 80 86 96
268.000 599.000 139.000 81 88 98
269.000 598.000 139.000 78 85 94
269.000 599.000 139.000 78 85 94
270.000 596.000 139.000 87 93 102
267.000 600.000 139.000 90 97 108
267.000 601.000 139.000 92 99 109
267.000 602.000 139.000 91 98 108
267.000 603.000 139.000 86 93 104
264.000 600.000 140.000 90 99 110
264.000 601.000 140.000 90 98 110
265.000 600.000 140.000 90 99 111
265.000 601.000 140.000 91 100 112
264.000 602.000 140.000 87 95 107
264.000 603.000 140.000 84 92 103
265.000 602.000 140.000 86 94 105
265.000 603.000 140.000 81 89 100
266.000 600.000 140.000 91 99 110
266.000 601.000 140.000 91 99 110
267.000 601.000 140.000 93 101 112
266.000 602.000 140.000 89 97 108
266.000 603.000 140.000 82 90 101
267.000 602.000 140.000 90 98 108
267.000 603.000 140.000 84 92 103
267.000 604.000 139.000 79 86 96
267.000 606.000 139.000 80 86 96
267.000 607.000 139.000 82 88 97
264.000 604.000 140.000 87 94 105
264.000 605.000 140.000 87 94 104
265.000 604.000 140.000 80 88 98
265.000 605.000 140.000 82 89 99
264.000 606.000 140.000 83 90 100
264.000 607.000 140.000 85 92 102
265.000 606.000 140.000 83 90 99
265.000 607.000 140.000 85 91 100
266.000 604.000 140.000 78 85 96
266.000 605.000 140.000 79 86 95
267.000 604.000 140.000 78 86 96
267.000 605.000 140.000 78 85 95
266.000 606.000 140.000 81 87 97
266.000 607.000 140.000 82 89 98
267.000 606.000 140.000 79 86 96
267.000 607.000 140.000 81 88 97
268.000 600.000 139.000 86 92 102
268.000 601.000 139.000 89 95 105
269.000 600.000 139.000 81 87 97
269.000 601.000 139.000 83 90 99
268.000 602.000 139.000 87 93 103
268.000 603.000 139.000 84 91 101
269.000 602.000 139.000 83 89 99
269.000 603.000 139.000 81 88 97
268.000 604.000 139.000 79 86 96
268.000 605.000 139.000 77 84 94
269.000 604.000 139.000 78 85 95
269.000 605.000 139.000 77 83 93
268.000 606.000 139.000 78 85 94
268.000 607.000 139.000 80 87 97
269.000 606.000 139.000 77 84 93
272.000 591.000 139.000 75 81 90
272.000 592.000 139.000 75 81 90
272.000 593.000 139.000 78 84 93
273.000 592.000 139.000 74 80 89
273.000 593.000 139.000 75 81 90
256.000 608.000 142.000 78 85 95
256.000 609.000 142.000 82 88 98
257.000 608.000 142.000 80 87 96
257.000 609.000 142.000 84 91 100
256.000 610.000 142.000 87 93 103
256.000 611.000 142.000 84 91 101
257.000 610.000 142.000 93 98 108
257.000 611.000 142.000 90 96 106
258.000 608.000 141.000 82 88 97
259.000 608.000 141.000 81 87 96
259.000 609.000 141.000 83 89 98
258.000 608.000 142.000 82 88 98
258.000 609.000 142.000 85 92 101
259.000 609.000 142.000 85 92 101
259.000 610.000 141.000 84 90 100
259.000 611.000 141.000 84 91 100
258.000 610.000 142.000 90 96 106
258.000 611.000 142.000 87 94 104
259.000 610.000 142.000 87 93 103
259.000 611.000 142.000 85 91 101
256.000 612.000 142.000 80 87 97
256.000 613.000 142.000 78 85 95
257.000 612.000 142.000 82 89 98
257.000 613.000 142.000 77 85 95
256.000 614.000 142.000 82 89 99
256.000 615.000 142.000 91 97 107
257.000 614.000 142.000 82 90 100
257.000 615.000 142.000 95 102 112
258.000 612.000 142.000 82 89 99
258.000 613.000 142.000 78 85 95
259.000 612.000 142.000 81 88 98
259.000 613.000 142.000 79 86 96
258.000 614.000 142.000 82 89 99
258.000 615.000 142.000 93 99 109
259.000 614.000 142.000 81 88 98
259.000 615.000 142.000 89 96 106
260.000 608.000 141.000 79 86 95
260.000 609.000 141.000 79 86 96
261.000 608.000 141.000 79 86 96
261.000 609.000 141.000 79 86 96
260.000 610.000 141.000 80 87 96
260.000 611.000 141.000 81 88 98
261.000 610.000 141.000 78 85 95
261.000 611.000 141.000 80 86 96
262.000 608.000 141.000 83 90 100
262.000 609.000 141.000 85 92 102
263.000 608.000 140.000 90 97 107
263.000 608.000 141.000 88 95 105
263.000 609.000 141.000 93 99 109
262.000 610.000 141.000 81 87 97
262.000 611.000 141.000 81 87 96
263.000 610.000 141.000 82 89 99
263.000 611.000 141.000 82 88 97
260.000 612.000 141.000 82 89 98
261.000 612.000 141.000 81 87 96
261.000 613.000 141.000 79 86 95
260.000 612.000 142.000 81 88 97
260.000 613.000 142.000 80 86 96
261.000 613.000 142.000 78 85 94
261.000 614.000 141.000 80 86 95
260.000 614.000 142.000 81 88 98
260.000 615.000 142.000 87 93 103
261.000 614.000 142.000 80 87 96
261.000 615.000 142.000 83 89 99
262.000 612.000 141.000 81 87 96
262.000 613.000 141.000 80 86 94
263.000 612.000 141.000 82 88 97
263.000 613.000 141.000 82 87 96
262.000 614.000 141.000 80 86 95
262.000 615.000 141.000 80 86 96
263.000 614.000 141.000 81 87 96
256.000 616.000 142.000 94 100 110
256.000 616.000 143.000 91 98 108
256.000 617.000 143.000 86 93 103
257.000 616.000 142.000 97 104 114
257.000 617.000 142.000 94 101 111
257.000 617.000 143.000 90 97 107
256.000 618.000 143.000 81 88 98
256.000 619.000 143.000 79 86 95
257.000 618.000 142.000 83 91 102
257.000 618.000 143.000 81 89 99
257.000 619.000 142.000 79 86 97
257.000 619.000 143.000 78 85 95
258.000 616.000 142.000 98 104 114
258.000 617.000 142.000 94 101 111
259.000 616.000 142.000 94 101 111
259.000 617.000 142.000 92 99 109
258.000 618.000 142.000 85 93 103
256.000 620.000 143.000 80 87 97
256.000 621.000 143.000 82 89 100
257.000 620.000 143.000 79 86 96
257.000 621.000 143.000 82 89 99
256.000 622.000 143.000 88 95 106
256.000 623.000 143.000 90 98 109
257.000 622.000 143.000 83 90 100
257.000 623.000 143.000 82 90 100
258.000 620.000 143.000 78 85 94
258.000 621.000 143.000 80 87 96
258.000 622.000 143.000 80 87 97
258.000 623.000 143.000 78 86 96
259.000 622.000 142.000 80 86 95
259.000 623.000 143.000 79 85 94
260.000 616.000 142.000 90 96 107
260.000 617.000 142.000 86 93 103
261.000 616.000 142.000 83 90 100
262.000 616.000 142.000 80 87 97
267.000 608.000 139.000 82 88 98
267.000 609.000 139.000 80 87 96
264.000 608.000 140.000 90 96 106
264.000 609.000 140.000 91 97 107
264.000 609.000 141.000 88 94 104
265.000 608.000 140.000 87 93 102
265.000 609.000 140.000 86 92 102
264.000 610.000 141.000 83 90 99
264.000 611.000 141.000 81 88 97
265.000 610.000 140.000 81 88 98
265.000 611.000 140.000 80 87 96
266.000 608.000 140.000 82 89 98
266.000 609.000 140.000 81 87 97
267.000 608.000 140.000 82 88 97
267.000 609.000 140.000 80 87 97
266.000 610.000 140.000 80 86 96
267.000 610.000 140.000 79 86 95
264.000 612.000 141.000 82 88 97
264.000 613.000 141.000 81 87 96
264.000 614.000 141.000 81 87 96
268.000 608.000 139.000 83 90 99
270.000 620.000 140.000 85 93 103
270.000 621.000 140.000 86 94 105
256.000 624.000 143.000 94 102 113
256.000 625.000 143.000 96 102 113
257.000 624.000 143.000 86 93 103
257.000 625.000 143.000 89 96 106
256.000 626.000 143.000 87 94 104
256.000 627.000 143.000 82 88 97
257.000 626.000 143.000 86 92 102
258.000 624.000 143.000 78 86 96
258.000 625.000 143.000 79 87 97
259.000 624.000 142.000 78 85 94
259.000 624.000 143.000 78 85 94
258.000 626.000 143.000 80 87 97
258.000 627.000 143.000 83 90 99
259.000 626.000 143.000 79 85 95
259.000 627.000 143.000 82 89 99
256.000 628.000 143.000 80 86 95
258.000 628.000 143.000 86 93 103
259.000 628.000 143.000 88 95 105
260.000 625.000 143.000 78 85 94
260.000 626.000 143.000 80 86 95
264.000 626.000 142.000 79 86 95
264.000 627.000 142.000 83 90 99
264.000 628.000 142.000 84 90 100
256.000 628.000 144.000 79 85 94
272.000 627.000 139.000 79 86 95
275.000 624.000 138.000 93 100 111
278.000 626.000 137.000 77 84 93
278.000 627.000 137.000 81 87 96
