ply
format ascii 1.0
element vertex 372
property float x
property float y
property float z
property uchar red
property uchar green
property uchar blue
end_header
295.000 89.000 151.000 36 43 50
294.000 90.000 151.000 38 43 50
295.000 90.000 151.000 38 44 51
295.000 91.000 151.000 38 44 51
294.000 91.000 152.000 38 44 50
295.000 91.000 152.000 39 45 51
293.000 93.000 152.000 37 43 50
293.000 95.000 152.000 37 44 51
297.000 87.000 151.000 38 44 51
298.000 86.000 151.000 39 45 52
298.000 87.000 151.000 39 46 53
296.000 89.000 151.000 37 43 51
297.000 88.000 151.000 38 44 51
297.000 89.000 151.000 39 45 52
296.000 90.000 151.000 37 44 51
298.000 88.000 151.000 39 45 53
297.000 90.000 152.000 39 45 52
298.000 89.000 152.000 39 46 53
297.000 94.000 153.000 38 45 53
300.000 91.000 154.000 40 46 53
301.000 91.000 155.000 39 45 52
303.000 91.000 156.000 38 44 51
301.000 92.000 155.000 39 45 52
301.000 93.000 155.000 38 45 52
302.000 92.000 156.000 39 45 52
304.000 94.000 157.000 36 43 50
306.000 93.000 157.000 36 43 50
307.000 94.000 158.000 36 42 48
307.000 95.000 158.000 36 41 48
293.000 96.000 152.000 37 44 51
294.000 96.000 152.000 37 44 52
295.000 96.000 152.000 38 45 52
294.000 98.000 152.000 38 45 52
295.000 99.000 153.000 39 45 51
293.000 102.000 153.000 39 46 53
294.000 102.000 153.000 39 45 52
295.000 102.000 153.000 39 45 52
296.000 101.000 154.000 38 45 52
297.000 101.000 154.000 38 45 52
296.000 102.000 153.000 39 45 52
296.000 103.000 153.000 38 45 52
296.000 102.000 154.000 38 45 52
297.000 102.000 154.000 38 45 52
298.000 102.000 154.000 38 45 52
298.000 103.000 154.000 39 46 53
299.000 103.000 154.000 39 45 53
302.000 97.000 155.000 37 44 50
302.000 98.000 155.000 38 44 50
302.000 96.000 156.000 37 43 50
303.000 97.000 157.000 35 42 48
300.000 101.000 155.000 39 45 52
300.000 102.000 155.000 38 44 51
300.000 103.000 154.000 38 44 51
301.000 103.000 154.000 36 43 50
301.000 103.000 155.000 36 43 50
303.000 101.000 155.000 37 43 49
302.000 103.000 155.000 36 43 49
303.000 103.000 155.000 36 42 48
299.000 108.000 154.000 37 44 51
298.000 110.000 153.000 39 45 52
302.000 104.000 154.000 36 42 49
302.000 105.000 154.000 36 42 49
303.000 105.000 154.000 37 42 49
302.000 106.000 154.000 36 42 49
303.000 107.000 154.000 36 41 47
301.000 109.000 153.000 36 42 48
300.000 108.000 154.000 36 42 49
293.000 118.000 153.000 39 45 53
295.000 116.000 153.000 35 42 49
294.000 118.000 153.000 40 46 52
294.000 119.000 153.000 40 46 53
295.000 119.000 153.000 39 45 52
293.000 122.000 153.000 40 47 54
293.000 123.000 153.000 40 47 54
294.000 120.000 153.000 40 47 54
295.000 121.000 153.000 41 47 55
293.000 124.000 153.000 40 47 55
292.000 126.000 153.000 41 48 56
293.000 126.000 153.000 41 48 55
294.000 124.000 153.000 39 47 55
294.000 125.000 154.000 39 46 54
295.000 125.000 154.000 39 47 55
295.000 126.000 155.000 40 48 56
297.000 114.000 154.000 39 46 53
299.000 112.000 154.000 39 45 52
299.000 113.000 154.000 40 46 54
298.000 114.000 154.000 41 48 55
296.000 116.000 153.000 34 41 49
296.000 117.000 153.000 38 45 52
296.000 117.000 154.000 37 43 50
297.000 117.000 154.000 37 44 51
296.000 118.000 153.000 40 46 53
297.000 119.000 154.000 40 46 53
298.000 116.000 154.000 34 42 49
298.000 117.000 154.000 36 43 51
299.000 117.000 154.000 36 43 50
299.000 117.000 155.000 35 43 50
299.000 118.000 155.000 39 46 53
300.000 112.000 154.000 38 45 52
300.000 113.000 154.000 38 45 52
300.000 114.000 154.000 40 47 54
301.000 115.000 155.000 43 49 57
302.000 114.000 155.000 42 49 57
300.000 116.000 155.000 36 43 51
301.000 116.000 155.000 38 45 53
301.000 116.000 156.000 34 42 51
300.000 119.000 156.000 40 47 55
301.000 119.000 157.000 40 47 55
302.000 116.000 156.000 35 44 52
302.000 117.000 157.000 37 45 53
297.000 120.000 154.000 40 46 54
296.000 122.000 154.000 39 46 54
298.000 120.000 155.000 41 48 55
298.000 121.000 155.000 41 48 55
298.000 122.000 155.000 41 48 56
299.000 121.000 156.000 42 49 57
299.000 122.000 156.000 41 49 57
299.000 123.000 156.000 41 49 57
297.000 125.000 155.000 41 48 57
296.000 126.000 156.000 40 48 56
297.000 126.000 156.000 40 48 56
298.000 125.000 156.000 41 49 57
298.000 125.000 157.000 40 48 56
299.000 124.000 157.000 40 48 56
298.000 126.000 157.000 40 48 56
298.000 127.000 157.000 40 47 56
298.000 127.000 158.000 39 47 55
299.000 126.000 158.000 38 46 55
300.000 120.000 157.000 41 48 56
301.000 120.000 157.000 40 48 55
300.000 123.000 157.000 40 48 56
300.000 123.000 158.000 39 47 55
301.000 123.000 158.000 37 45 54
302.000 121.000 159.000 38 46 54
302.000 123.000 159.000 37 45 53
300.000 124.000 158.000 38 46 55
300.000 125.000 158.000 37 45 54
301.000 124.000 159.000 37 45 53
304.000 99.000 156.000 36 42 48
307.000 96.000 158.000 36 41 47
307.000 97.000 158.000 36 41 47
307.000 98.000 158.000 36 41 47
307.000 99.000 158.000 36 41 47
304.000 103.000 155.000 36 42 48
304.000 103.000 156.000 35 41 47
305.000 103.000 156.000 36 41 47
306.000 100.000 157.000 37 42 47
306.000 103.000 156.000 36 41 47
306.000 103.000 157.000 36 41 47
307.000 103.000 157.000 36 41 46
308.000 96.000 159.000 36 42 48
309.000 99.000 159.000 36 40 46
308.000 101.000 158.000 36 41 46
308.000 103.000 158.000 35 40 46
309.000 103.000 158.000 35 40 46
310.000 101.000 159.000 34 39 45
304.000 104.000 155.000 36 41 48
304.000 105.000 155.000 36 41 47
305.000 105.000 155.000 35 41 47
305.000 106.000 155.000 36 41 47
306.000 104.000 156.000 36 41 47
306.000 105.000 156.000 36 41 47
307.000 104.000 157.000 35 40 46
307.000 106.000 156.000 36 41 46
304.000 108.000 154.000 36 42 47
308.000 105.000 157.000 35 40 46
309.000 106.000 157.000 37 41 47
311.000 105.000 159.000 36 41 47
311.000 107.000 158.000 37 42 48
312.000 106.000 159.000 37 42 47
312.000 107.000 159.000 37 42 48
304.000 115.000 157.000 42 50 59
306.000 114.000 157.000 46 53 62
306.000 115.000 158.000 45 52 61
304.000 116.000 158.000 34 43 52
308.000 115.000 159.000 44 53 62
311.000 99.000 160.000 35 40 45
311.000 104.000 160.000 36 41 47
311.000 105.000 160.000 36 41 46
312.000 101.000 161.000 35 40 46
313.000 101.000 161.000 35 40 46
312.000 102.000 160.000 35 41 47
312.000 102.000 161.000 35 40 46
315.000 102.000 162.000 37 42 48
312.000 105.000 160.000 36 41 47
313.000 104.000 161.000 36 41 47
313.000 105.000 160.000 36 41 47
312.000 106.000 160.000 37 42 48
313.000 106.000 160.000 36 41 48
315.000 104.000 161.000 36 41 47
315.000 104.000 162.000 37 42 48
314.000 106.000 161.000 36 41 47
314.000 107.000 161.000 36 42 48
315.000 107.000 162.000 37 42 48
314.000 108.000 161.000 37 42 48
315.000 108.000 162.000 38 43 48
315.000 109.000 162.000 39 44 50
317.000 110.000 164.000 40 45 51
318.000 108.000 166.000 34 38 42
318.000 110.000 165.000 39 44 50
319.000 110.000 166.000 39 44 49
310.000 115.000 160.000 45 54 64
308.000 116.000 161.000 33 43 52
309.000 116.000 162.000 33 43 52
310.000 116.000 162.000 31 42 52
311.000 116.000 163.000 31 42 51
305.000 126.000 163.000 35 42 49
311.000 123.000 166.000 34 40 47
308.000 126.000 165.000 36 42 49
311.000 126.000 167.000 37 43 49
311.000 127.000 167.000 37 43 50
313.000 116.000 164.000 33 42 51
314.000 116.000 165.000 33 43 53
314.000 117.000 167.000 31 39 46
316.000 116.000 166.000 33 44 54
317.000 116.000 167.000 33 43 53
315.000 117.000 168.000 31 38 46
318.000 116.000 168.000 33 42 52
319.000 116.000 169.000 33 42 52
319.000 116.000 170.000 30 39 48
312.000 124.000 167.000 35 41 48
313.000 123.000 168.000 35 41 47
314.000 123.000 169.000 35 41 47
315.000 123.000 171.000 35 41 48
312.000 127.000 168.000 37 43 50
313.000 127.000 169.000 36 42 49
314.000 124.000 169.000 35 41 47
314.000 125.000 170.000 35 41 48
315.000 125.000 170.000 35 41 48
315.000 125.000 171.000 35 42 49
319.000 122.000 175.000 37 44 52
317.000 124.000 173.000 36 43 51
316.000 126.000 172.000 35 42 50
316.000 126.000 173.000 36 43 50
318.000 124.000 175.000 38 45 53
318.000 125.000 174.000 37 45 53
318.000 125.000 175.000 38 46 54
319.000 125.000 176.000 39 46 54
320.000 109.000 168.000 36 40 45
321.000 111.000 168.000 39 44 50
323.000 110.000 171.000 38 43 49
323.000 111.000 170.000 39 44 50
324.000 111.000 171.000 39 45 51
320.000 116.000 169.000 37 46 56
320.000 116.000 170.000 32 41 50
320.000 116.000 171.000 30 39 47
321.000 116.000 171.000 31 41 50
322.000 116.000 171.000 36 45 55
321.000 116.000 172.000 30 39 47
322.000 116.000 172.000 32 41 51
292.000 129.000 154.000 42 48 56
293.000 128.000 154.000 41 48 56
293.000 128.000 155.000 40 48 56
292.000 130.000 154.000 41 48 56
294.000 128.000 155.000 40 48 55
294.000 129.000 155.000 40 48 55
295.000 129.000 156.000 41 48 56
294.000 131.000 156.000 41 48 55
295.000 130.000 156.000 41 48 56
295.000 130.000 157.000 40 48 55
295.000 131.000 156.000 40 47 55
293.000 132.000 155.000 42 48 56
293.000 133.000 155.000 40 47 55
293.000 134.000 155.000 40 47 55
293.000 134.000 156.000 40 47 55
294.000 132.000 156.000 40 47 54
294.000 133.000 156.000 40 47 54
295.000 132.000 156.000 39 46 54
295.000 132.000 157.000 39 46 54
295.000 133.000 156.000 39 46 54
295.000 133.000 157.000 38 45 53
294.000 134.000 156.000 40 47 54
295.000 134.000 157.000 38 45 52
295.000 135.000 157.000 39 45 53
295.000 134.000 158.000 38 45 52
295.000 135.000 158.000 38 45 52
296.000 128.000 156.000 41 49 57
296.000 129.000 157.000 39 47 55
296.000 130.000 157.000 39 47 55
296.000 131.000 157.000 39 46 54
297.000 130.000 158.000 38 45 53
297.000 131.000 158.000 38 45 53
298.000 131.000 159.000 37 44 52
296.000 132.000 158.000 38 45 53
296.000 133.000 158.000 37 45 52
297.000 132.000 158.000 38 45 53
297.000 132.000 159.000 38 45 52
297.000 133.000 158.000 38 45 52
297.000 133.000 159.000 37 44 51
296.000 134.000 158.000 38 45 52
296.000 134.000 159.000 38 45 52
296.000 135.000 159.000 38 45 52
297.000 134.000 159.000 38 45 52
298.000 132.000 159.000 37 44 51
298.000 133.000 159.000 37 43 51
299.000 133.000 159.000 36 43 50
298.000 134.000 159.000 38 44 52
298.000 135.000 159.000 37 44 51
296.000 135.000 160.000 38 44 51
297.000 134.000 160.000 38 44 51
297.000 135.000 160.000 37 44 51
298.000 133.000 160.000 36 43 51
299.000 132.000 160.000 37 43 51
299.000 133.000 160.000 36 43 50
298.000 134.000 160.000 37 44 51
298.000 135.000 160.000 37 44 51
299.000 134.000 160.000 35 42 50
299.000 134.000 161.000 35 42 50
299.000 135.000 160.000 36 43 50
299.000 135.000 161.000 35 43 50
300.000 129.000 160.000 38 45 52
300.000 130.000 160.000 37 44 51
301.000 130.000 161.000 36 43 50
302.000 128.000 161.000 37 43 50
302.000 129.000 162.000 35 42 49
303.000 128.000 162.000 36 43 50
302.000 130.000 161.000 35 42 49
302.000 130.000 162.000 35 42 49
302.000 131.000 162.000 36 42 49
303.000 130.000 162.000 36 42 49
300.000 132.000 160.000 37 43 51
300.000 133.000 160.000 36 43 50
300.000 133.000 161.000 36 43 50
301.000 133.000 161.000 36 43 50
300.000 134.000 161.000 36 43 50
300.000 135.000 161.000 36 42 50
301.000 134.000 161.000 36 42 49
301.000 135.000 161.000 36 43 49
302.000 132.000 162.000 36 43 49
302.000 133.000 162.000 37 43 50
303.000 132.000 162.000 37 43 50
303.000 133.000 162.000 37 43 50
302.000 134.000 161.000 37 43 49
302.000 135.000 161.000 38 43 50
302.000 134.000 162.000 37 43 49
302.000 135.000 162.000 38 43 50
303.000 134.000 162.000 37 43 49
303.000 135.000 162.000 38 43 50
298.000 136.000 160.000 38 45 52
299.000 136.000 160.000 37 44 51
300.000 136.000 160.000 36 43 50
300.000 136.000 161.000 36 43 50
301.000 136.000 161.000 37 43 49
301.000 137.000 161.000 37 43 49
301.000 136.000 162.000 38 43 50
302.000 136.000 162.000 38 44 50
302.000 137.000 162.000 38 43 49
303.000 136.000 162.000 37 43 50
304.000 128.000 162.000 36 42 49
304.000 129.000 163.000 36 42 49
305.000 128.000 163.000 35 42 49
304.000 130.000 162.000 35 42 49
304.000 130.000 163.000 35 42 48
304.000 131.000 163.000 36 42 49
306.000 129.000 163.000 35 42 49
306.000 128.000 164.000 36 42 49
306.000 130.000 164.000 37 43 50
306.000 131.000 164.000 36 43 49
304.000 132.000 163.000 36 42 49
304.000 133.000 163.000 36 42 49
305.000 133.000 163.000 36 42 49
304.000 134.000 162.000 37 43 49
304.000 134.000 163.000 36 42 49
304.000 135.000 162.000 38 44 50
305.000 134.000 163.000 36 43 49
305.000 135.000 163.000 38 43 50
306.000 132.000 164.000 37 43 50
306.000 133.000 164.000 37 44 51
306.000 134.000 164.000 37 43 50
308.000 128.000 165.000 36 42 49
311.000 128.000 167.000 37 43 50
304.000 136.000 162.000 38 44 50
