ply
format ascii 1.0
element vertex 840
property float x
property float y
property float z
property uchar red
property uchar green
property uchar blue
end_header
306.000 598.000 250.000 68 71 76
307.000 605.000 249.000 59 62 66
307.000 606.000 249.000 60 63 68
306.000 607.000 250.000 61 64 69
307.000 608.000 248.000 63 65 70
306.000 608.000 250.000 63 65 70
306.000 609.000 250.000 64 66 70
306.000 610.000 249.000 66 68 71
306.000 611.000 249.000 65 67 70
304.000 609.000 253.000 65 68 73
306.000 612.000 248.000 62 64 68
306.000 613.000 248.000 61 64 68
279.000 598.000 267.000 86 91 100
279.000 599.000 267.000 87 93 102
272.000 607.000 271.000 98 104 115
273.000 606.000 270.000 93 99 109
273.000 606.000 271.000 93 100 110
273.000 607.000 270.000 96 102 113
273.000 607.000 271.000 98 105 115
274.000 605.000 269.000 91 98 108
275.000 604.000 269.000 90 96 107
275.000 605.000 269.000 91 97 107
274.000 605.000 270.000 91 97 107
274.000 607.000 269.000 97 104 115
275.000 606.000 269.000 94 100 110
275.000 607.000 268.000 93 101 112
275.000 607.000 269.000 96 103 114
274.000 606.000 270.000 93 99 109
274.000 607.000 270.000 95 102 113
278.000 601.000 267.000 89 95 105
279.000 600.000 267.000 90 96 105
279.000 601.000 267.000 90 96 105
278.000 602.000 267.000 89 95 104
278.000 603.000 267.000 92 96 106
279.000 602.000 267.000 89 95 104
279.000 603.000 267.000 89 94 104
276.000 603.000 268.000 88 94 104
276.000 603.000 269.000 87 94 104
277.000 602.000 268.000 93 98 108
277.000 603.000 268.000 92 98 108
278.000 601.000 268.000 91 97 106
278.000 602.000 268.000 91 96 106
278.000 603.000 268.000 95 100 110
278.000 604.000 267.000 91 96 105
278.000 605.000 267.000 91 97 106
279.000 604.000 267.000 89 95 104
279.000 605.000 267.000 89 95 105
278.000 606.000 267.000 94 99 109
278.000 607.000 267.000 95 100 111
279.000 606.000 267.000 89 96 107
279.000 607.000 267.000 93 100 110
276.000 604.000 268.000 88 94 103
276.000 604.000 269.000 87 94 104
276.000 605.000 268.000 90 96 105
277.000 604.000 268.000 91 97 106
277.000 605.000 268.000 92 98 108
276.000 606.000 268.000 93 99 109
276.000 607.000 268.000 92 99 109
277.000 606.000 268.000 94 100 110
277.000 607.000 268.000 95 101 111
278.000 604.000 268.000 94 100 109
278.000 605.000 268.000 94 99 109
278.000 606.000 268.000 97 102 112
278.000 607.000 268.000 96 102 112
280.000 597.000 267.000 85 90 99
281.000 597.000 266.000 86 92 101
280.000 598.000 267.000 87 93 102
280.000 599.000 267.000 89 95 105
281.000 598.000 266.000 90 97 106
281.000 599.000 266.000 99 105 115
280.000 600.000 267.000 93 99 110
280.000 601.000 267.000 94 100 110
281.000 600.000 266.000 105 111 122
281.000 601.000 266.000 101 106 117
280.000 602.000 267.000 90 96 106
280.000 603.000 267.000 89 94 104
281.000 602.000 266.000 90 96 106
281.000 603.000 266.000 89 95 104
281.000 603.000 267.000 89 95 105
282.000 601.000 266.000 108 112 122
282.000 602.000 266.000 94 99 108
282.000 603.000 266.000 90 97 106
283.000 603.000 266.000 91 97 107
280.000 604.000 267.000 89 95 105
280.000 605.000 267.000 96 103 114
281.000 604.000 266.000 90 97 108
281.000 604.000 267.000 89 97 108
281.000 605.000 267.000 98 106 119
280.000 606.000 267.000 103 111 123
280.000 607.000 267.000 109 115 127
281.000 606.000 267.000 115 123 135
281.000 607.000 267.000 118 125 136
282.000 604.000 266.000 97 105 116
282.000 605.000 267.000 111 119 132
283.000 604.000 266.000 105 112 123
283.000 605.000 266.000 123 130 142
283.000 605.000 267.000 124 131 144
282.000 606.000 267.000 116 124 136
282.000 607.000 267.000 114 121 132
283.000 606.000 267.000 125 132 144
283.000 607.000 267.000 110 116 127
284.000 603.000 266.000 88 95 105
285.000 603.000 266.000 88 94 104
286.000 603.000 266.000 90 95 103
287.000 602.000 266.000 91 96 106
287.000 603.000 266.000 90 95 104
284.000 604.000 266.000 96 103 114
284.000 605.000 266.000 112 118 129
284.000 605.000 267.000 120 125 137
285.000 604.000 266.000 91 97 107
285.000 605.000 266.000 97 103 114
285.000 605.000 267.000 95 101 111
284.000 606.000 267.000 120 126 137
284.000 607.000 267.000 109 114 125
285.000 606.000 267.000 98 104 113
285.000 607.000 267.000 94 99 109
286.000 604.000 266.000 88 93 102
286.000 605.000 266.000 88 93 101
286.000 605.000 267.000 87 92 100
287.000 604.000 266.000 91 96 105
287.000 604.000 267.000 92 97 105
287.000 605.000 267.000 90 94 103
286.000 606.000 267.000 87 92 101
286.000 607.000 267.000 88 92 101
287.000 606.000 267.000 87 92 101
287.000 607.000 267.000 87 92 101
287.000 607.000 268.000 88 93 102
272.000 607.000 272.000 98 105 116
271.000 610.000 271.000 94 101 113
271.000 611.000 271.000 94 101 112
271.000 612.000 271.000 96 102 113
270.000 609.000 272.000 92 100 111
270.000 609.000 273.000 96 103 115
271.000 608.000 272.000 102 110 122
271.000 608.000 273.000 114 121 134
271.000 609.000 272.000 96 104 115
270.000 609.000 274.000 92 99 111
270.000 610.000 272.000 92 99 110
270.000 610.000 273.000 91 98 109
271.000 610.000 272.000 93 99 110
272.000 608.000 271.000 97 104 115
272.000 609.000 270.000 98 106 118
272.000 609.000 271.000 95 102 114
273.000 608.000 270.000 100 107 119
273.000 609.000 270.000 108 115 128
273.000 611.000 269.000 123 132 146
272.000 610.000 270.000 100 109 122
272.000 610.000 271.000 95 103 115
272.000 611.000 270.000 106 115 128
272.000 611.000 271.000 95 103 115
273.000 610.000 270.000 117 126 139
273.000 611.000 270.000 120 129 143
274.000 608.000 269.000 113 120 132
274.000 609.000 269.000 130 138 151
275.000 608.000 268.000 98 106 119
275.000 608.000 269.000 109 116 128
275.000 609.000 268.000 116 125 139
275.000 609.000 269.000 122 130 143
274.000 608.000 270.000 107 114 126
274.000 610.000 269.000 125 134 148
274.000 611.000 269.000 127 136 151
275.000 610.000 268.000 130 139 153
275.000 610.000 269.000 126 135 149
275.000 611.000 268.000 131 139 154
275.000 611.000 269.000 128 137 151
273.000 612.000 269.000 127 136 149
273.000 613.000 269.000 136 143 156
272.000 612.000 270.000 107 115 128
272.000 612.000 271.000 97 104 116
272.000 613.000 270.000 108 115 127
273.000 612.000 270.000 121 129 143
273.000 613.000 270.000 130 136 149
272.000 614.000 270.000 103 109 121
273.000 614.000 270.000 122 127 138
273.000 615.000 270.000 101 106 117
274.000 612.000 269.000 125 134 148
274.000 613.000 269.000 120 128 141
275.000 612.000 268.000 125 134 149
275.000 612.000 269.000 119 128 142
275.000 613.000 269.000 110 118 131
274.000 614.000 269.000 114 120 132
274.000 615.000 269.000 101 107 117
275.000 614.000 269.000 101 109 121
275.000 615.000 269.000 97 104 116
274.000 615.000 270.000 99 104 114
278.000 608.000 267.000 95 102 112
278.000 609.000 267.000 98 104 115
279.000 608.000 267.000 95 101 112
279.000 609.000 267.000 95 101 111
279.000 610.000 267.000 100 106 116
276.000 608.000 268.000 92 100 112
276.000 609.000 268.000 100 110 124
277.000 608.000 268.000 94 101 113
277.000 609.000 268.000 110 118 130
276.000 610.000 268.000 115 125 139
276.000 611.000 268.000 125 134 149
277.000 610.000 268.000 128 136 149
277.000 611.000 268.000 127 136 150
278.000 608.000 268.000 95 102 113
278.000 609.000 268.000 103 110 122
278.000 610.000 268.000 117 124 136
278.000 611.000 268.000 128 134 147
279.000 610.000 268.000 107 112 122
279.000 611.000 268.000 113 118 128
276.000 612.000 268.000 117 127 141
276.000 613.000 268.000 112 121 135
276.000 613.000 269.000 114 123 136
277.000 612.000 268.000 121 130 143
277.000 613.000 268.000 119 127 141
276.000 614.000 269.000 113 120 133
276.000 615.000 269.000 106 113 125
277.000 614.000 268.000 122 129 142
277.000 614.000 269.000 124 131 143
277.000 615.000 269.000 116 122 134
278.000 612.000 268.000 122 129 141
278.000 613.000 268.000 113 120 132
279.000 612.000 268.000 101 107 117
279.000 613.000 268.000 92 99 109
278.000 614.000 268.000 103 110 121
278.000 615.000 269.000 96 103 114
279.000 614.000 268.000 91 98 108
279.000 614.000 269.000 90 97 107
279.000 615.000 269.000 91 97 107
274.000 616.000 269.000 102 105 114
275.000 616.000 269.000 99 104 113
275.000 617.000 269.000 102 105 114
274.000 616.000 270.000 103 107 116
275.000 617.000 270.000 103 107 115
276.000 616.000 269.000 102 107 117
276.000 617.000 269.000 100 106 116
277.000 616.000 269.000 103 110 121
277.000 617.000 269.000 106 112 123
276.000 618.000 269.000 102 106 116
277.000 618.000 269.000 112 118 129
277.000 619.000 269.000 111 116 126
277.000 619.000 270.000 107 111 121
278.000 616.000 269.000 97 103 114
278.000 617.000 269.000 104 110 121
279.000 616.000 269.000 93 99 109
279.000 617.000 269.000 95 101 111
278.000 618.000 269.000 124 129 140
278.000 619.000 269.000 127 132 142
279.000 618.000 269.000 107 113 124
278.000 619.000 270.000 117 122 131
279.000 618.000 270.000 108 113 123
279.000 619.000 270.000 110 114 124
277.000 620.000 270.000 102 106 116
278.000 620.000 270.000 102 106 115
278.000 621.000 270.000 97 102 111
278.000 621.000 271.000 96 100 109
279.000 620.000 270.000 100 105 114
279.000 620.000 271.000 98 103 112
279.000 621.000 271.000 97 102 112
278.000 622.000 271.000 95 99 108
279.000 622.000 271.000 93 97 107
279.000 623.000 271.000 91 96 104
280.000 608.000 267.000 101 107 117
280.000 609.000 267.000 95 100 110
281.000 608.000 267.000 111 116 127
281.000 609.000 267.000 98 102 112
282.000 608.000 267.000 106 110 120
282.000 609.000 267.000 96 100 109
283.000 608.000 267.000 92 98 108
283.000 609.000 267.000 92 96 105
280.000 610.000 268.000 92 97 107
280.000 611.000 268.000 92 98 108
281.000 610.000 268.000 90 95 105
281.000 611.000 268.000 90 95 105
282.000 609.000 268.000 92 95 104
283.000 609.000 268.000 91 95 103
282.000 610.000 268.000 91 95 104
282.000 611.000 268.000 92 96 104
283.000 610.000 268.000 89 93 101
283.000 611.000 268.000 90 94 102
280.000 612.000 268.000 95 100 109
280.000 613.000 268.000 94 99 108
281.000 612.000 268.000 93 98 107
281.000 613.000 268.000 94 98 107
281.000 613.000 269.000 95 99 108
280.000 614.000 268.000 93 98 108
280.000 614.000 269.000 93 98 107
280.000 615.000 269.000 92 97 106
281.000 614.000 269.000 95 99 108
281.000 615.000 269.000 95 99 108
282.000 612.000 268.000 92 97 105
282.000 612.000 269.000 92 97 106
282.000 613.000 269.000 95 99 108
283.000 612.000 268.000 90 95 103
283.000 612.000 269.000 91 96 105
283.000 613.000 269.000 93 97 105
282.000 614.000 269.000 96 100 109
282.000 615.000 269.000 97 101 109
283.000 614.000 269.000 92 97 105
282.000 615.000 270.000 94 97 105
283.000 614.000 270.000 92 96 105
283.000 615.000 270.000 92 96 104
284.000 608.000 267.000 89 95 105
284.000 609.000 267.000 89 94 103
285.000 608.000 267.000 88 94 103
286.000 608.000 267.000 88 93 102
284.000 609.000 268.000 90 95 104
285.000 608.000 268.000 88 93 103
285.000 609.000 268.000 90 95 105
284.000 610.000 268.000 91 96 105
284.000 611.000 268.000 91 95 104
284.000 611.000 269.000 92 97 106
285.000 610.000 268.000 97 102 111
285.000 611.000 268.000 100 105 115
285.000 611.000 269.000 99 105 114
286.000 608.000 268.000 89 94 103
286.000 609.000 268.000 90 96 106
287.000 608.000 268.000 91 96 105
287.000 609.000 268.000 92 98 108
287.000 609.000 269.000 94 101 111
286.000 610.000 268.000 91 98 109
286.000 610.000 269.000 95 103 114
286.000 611.000 269.000 106 113 124
287.000 610.000 269.000 104 111 122
287.000 611.000 269.000 114 121 133
284.000 612.000 269.000 93 98 106
284.000 613.000 269.000 93 98 107
285.000 612.000 269.000 97 103 113
285.000 613.000 269.000 100 106 116
285.000 613.000 270.000 102 108 118
284.000 614.000 270.000 93 98 107
284.000 615.000 270.000 94 99 108
285.000 614.000 270.000 102 107 117
285.000 615.000 270.000 97 102 112
286.000 612.000 269.000 113 119 130
287.000 612.000 269.000 115 123 135
286.000 612.000 270.000 116 123 134
286.000 613.000 270.000 117 123 134
287.000 612.000 270.000 115 122 135
287.000 613.000 270.000 117 124 136
286.000 614.000 270.000 111 117 127
286.000 615.000 270.000 98 103 113
286.000 615.000 271.000 92 97 107
287.000 614.000 270.000 106 113 124
287.000 615.000 271.000 93 99 109
280.000 616.000 269.000 93 97 106
280.000 617.000 269.000 93 98 108
281.000 616.000 269.000 94 98 107
280.000 617.000 270.000 93 99 108
281.000 616.000 270.000 93 98 106
281.000 617.000 270.000 92 97 106
280.000 618.000 270.000 96 101 110
280.000 619.000 270.000 98 103 112
281.000 618.000 270.000 93 98 107
281.000 619.000 270.000 94 99 108
281.000 619.000 271.000 95 100 109
282.000 616.000 269.000 97 101 110
282.000 616.000 270.000 95 99 108
282.000 617.000 270.000 94 99 108
283.000 616.000 270.000 91 96 105
283.000 617.000 270.000 93 98 107
283.000 617.000 271.000 95 101 110
282.000 618.000 270.000 92 97 107
282.000 618.000 271.000 98 103 112
282.000 619.000 271.000 95 100 109
283.000 618.000 271.000 106 111 120
283.000 619.000 271.000 104 109 118
280.000 620.000 270.000 97 102 111
280.000 620.000 271.000 97 102 111
280.000 621.000 271.000 97 101 111
281.000 620.000 271.000 97 101 110
281.000 621.000 271.000 97 101 110
280.000 622.000 271.000 95 99 109
282.000 620.000 271.000 94 98 108
284.000 616.000 270.000 92 97 106
284.000 616.000 271.000 92 97 106
284.000 617.000 271.000 100 105 114
285.000 616.000 270.000 94 99 108
285.000 616.000 271.000 93 98 107
285.000 617.000 271.000 104 108 117
284.000 618.000 271.000 114 119 128
284.000 619.000 271.000 107 112 121
285.000 618.000 271.000 114 119 128
285.000 619.000 271.000 110 115 124
286.000 616.000 271.000 91 96 105
286.000 617.000 271.000 94 99 109
287.000 616.000 271.000 91 95 104
287.000 617.000 271.000 95 99 108
286.000 618.000 271.000 98 103 113
287.000 618.000 271.000 93 99 108
272.000 608.000 272.000 96 103 114
279.000 623.000 272.000 91 95 104
283.000 619.000 272.000 95 101 110
281.000 621.000 272.000 97 101 110
280.000 622.000 272.000 94 99 108
280.000 623.000 272.000 94 98 107
281.000 622.000 272.000 96 101 110
281.000 623.000 272.000 96 100 108
281.000 623.000 273.000 95 100 109
282.000 620.000 272.000 93 99 108
282.000 621.000 272.000 94 99 109
283.000 620.000 272.000 94 99 108
283.000 621.000 272.000 94 100 110
282.000 622.000 272.000 95 100 110
282.000 622.000 273.000 97 103 113
282.000 623.000 273.000 102 108 118
283.000 622.000 273.000 102 108 118
283.000 623.000 273.000 117 122 132
283.000 623.000 274.000 116 121 132
284.000 619.000 272.000 96 101 111
285.000 619.000 272.000 98 104 114
286.000 618.000 272.000 93 99 109
286.000 619.000 272.000 94 100 110
287.000 618.000 272.000 93 98 107
287.000 619.000 272.000 91 96 105
284.000 620.000 272.000 92 99 109
284.000 621.000 272.000 93 100 110
284.000 621.000 273.000 96 103 114
285.000 620.000 272.000 98 104 114
285.000 621.000 273.000 102 109 120
284.000 622.000 273.000 109 115 126
284.000 623.000 273.000 114 120 131
285.000 622.000 273.000 126 131 143
284.000 623.000 274.000 125 130 141
285.000 623.000 274.000 134 139 150
286.000 620.000 272.000 97 103 113
286.000 621.000 273.000 100 106 115
287.000 620.000 272.000 91 96 106
287.000 621.000 273.000 91 97 106
286.000 622.000 273.000 117 121 131
287.000 622.000 273.000 96 101 111
286.000 622.000 274.000 127 130 140
286.000 623.000 274.000 124 128 138
287.000 622.000 274.000 111 115 124
287.000 623.000 274.000 101 105 113
279.000 624.000 272.000 90 95 104
279.000 625.000 272.000 91 96 105
279.000 625.000 273.000 91 96 105
280.000 624.000 272.000 91 96 105
280.000 624.000 273.000 92 97 106
280.000 625.000 273.000 92 97 106
281.000 624.000 273.000 97 102 111
281.000 625.000 273.000 99 104 113
281.000 625.000 274.000 102 107 116
280.000 626.000 273.000 95 100 109
281.000 626.000 273.000 99 103 113
281.000 626.000 274.000 99 104 114
281.000 627.000 274.000 102 107 117
282.000 624.000 273.000 108 113 123
282.000 625.000 273.000 104 109 119
282.000 624.000 274.000 120 124 134
282.000 625.000 274.000 108 113 123
283.000 624.000 274.000 122 127 138
283.000 625.000 274.000 117 121 131
282.000 626.000 274.000 98 103 112
282.000 627.000 274.000 97 102 111
282.000 627.000 275.000 96 102 111
283.000 626.000 274.000 102 106 116
283.000 626.000 275.000 101 105 114
283.000 627.000 275.000 97 102 111
284.000 624.000 274.000 118 124 135
284.000 625.000 274.000 112 117 127
285.000 624.000 274.000 122 128 139
285.000 625.000 274.000 101 108 119
284.000 626.000 274.000 106 111 120
284.000 626.000 275.000 103 108 117
284.000 627.000 275.000 103 107 116
285.000 626.000 275.000 101 106 116
285.000 627.000 275.000 106 110 119
286.000 624.000 274.000 111 116 127
286.000 625.000 274.000 99 105 115
286.000 625.000 275.000 96 103 113
287.000 624.000 274.000 97 102 111
287.000 625.000 274.000 97 103 113
286.000 626.000 275.000 100 106 116
286.000 627.000 275.000 107 113 124
287.000 626.000 274.000 98 103 113
287.000 626.000 275.000 98 105 116
287.000 627.000 275.000 102 110 122
284.000 628.000 275.000 101 106 115
285.000 628.000 275.000 104 109 118
286.000 628.000 275.000 107 113 124
285.000 628.000 276.000 103 108 117
286.000 628.000 276.000 101 107 119
292.000 597.000 263.000 75 79 85
295.000 599.000 262.000 75 79 85
288.000 602.000 266.000 94 100 109
288.000 603.000 266.000 102 107 116
289.000 602.000 266.000 94 100 109
289.000 603.000 266.000 100 104 114
290.000 602.000 266.000 97 102 112
290.000 603.000 266.000 98 103 112
291.000 603.000 266.000 90 95 103
288.000 604.000 266.000 105 109 118
288.000 604.000 267.000 108 112 121
288.000 605.000 267.000 99 103 113
289.000 604.000 267.000 114 117 126
289.000 605.000 267.000 108 112 121
288.000 606.000 267.000 88 93 102
288.000 607.000 267.000 87 92 101
289.000 606.000 267.000 96 101 110
290.000 604.000 267.000 103 107 116
290.000 605.000 267.000 103 107 115
291.000 604.000 266.000 90 95 103
291.000 604.000 267.000 93 97 105
291.000 605.000 267.000 94 98 106
290.000 606.000 267.000 98 102 110
291.000 606.000 267.000 94 98 106
288.000 607.000 268.000 87 93 102
289.000 606.000 268.000 92 97 106
289.000 607.000 268.000 89 94 103
290.000 606.000 268.000 95 99 106
290.000 607.000 268.000 91 95 103
291.000 606.000 268.000 94 97 105
291.000 607.000 268.000 92 96 103
293.000 602.000 265.000 78 81 87
292.000 603.000 266.000 86 90 97
293.000 603.000 266.000 81 85 91
294.000 603.000 265.000 78 81 86
295.000 603.000 265.000 75 78 84
292.000 604.000 266.000 88 92 100
292.000 605.000 267.000 89 93 100
293.000 604.000 266.000 83 87 94
293.000 605.000 266.000 82 86 94
293.000 605.000 267.000 85 89 96
292.000 606.000 267.000 88 92 99
293.000 606.000 267.000 83 88 95
293.000 607.000 267.000 86 91 99
294.000 604.000 265.000 76 80 86
295.000 604.000 265.000 78 81 87
295.000 605.000 265.000 81 85 91
294.000 604.000 266.000 78 82 88
294.000 605.000 266.000 80 84 91
295.000 605.000 266.000 82 85 91
294.000 606.000 266.000 87 91 98
294.000 606.000 267.000 89 93 101
294.000 607.000 267.000 93 97 105
295.000 606.000 266.000 88 92 99
295.000 607.000 266.000 95 99 106
292.000 607.000 268.000 87 91 98
293.000 607.000 268.000 84 88 96
299.000 597.000 257.000 67 71 77
296.000 598.000 260.000 70 74 80
299.000 602.000 259.000 68 71 77
297.000 601.000 261.000 70 73 79
297.000 602.000 262.000 71 74 79
297.000 603.000 262.000 74 77 82
297.000 603.000 263.000 74 77 82
298.000 603.000 262.000 73 75 80
297.000 604.000 262.000 75 78 83
297.000 604.000 263.000 75 78 84
297.000 605.000 262.000 77 80 86
297.000 605.000 263.000 77 80 86
297.000 606.000 263.000 79 82 88
297.000 607.000 263.000 78 82 89
298.000 604.000 261.000 72 75 80
298.000 605.000 261.000 76 79 84
298.000 604.000 262.000 75 78 83
298.000 605.000 262.000 77 80 86
298.000 606.000 262.000 77 80 85
298.000 606.000 263.000 76 79 85
298.000 607.000 262.000 76 80 86
298.000 607.000 263.000 76 80 87
300.000 602.000 258.000 68 72 77
296.000 603.000 264.000 75 78 83
296.000 604.000 264.000 77 80 86
296.000 604.000 265.000 78 81 87
296.000 605.000 264.000 79 82 88
296.000 605.000 265.000 82 85 91
297.000 605.000 264.000 77 81 86
296.000 606.000 264.000 79 83 89
296.000 606.000 265.000 83 87 93
296.000 607.000 265.000 83 87 94
297.000 606.000 264.000 79 82 89
297.000 607.000 264.000 78 82 89
297.000 607.000 265.000 79 83 90
296.000 607.000 266.000 92 96 103
288.000 608.000 268.000 90 95 104
288.000 609.000 268.000 92 98 107
288.000 609.000 269.000 93 99 109
289.000 608.000 268.000 88 93 102
289.000 608.000 269.000 88 93 102
289.000 609.000 269.000 90 96 105
288.000 610.000 269.000 103 110 121
288.000 611.000 269.000 115 123 135
289.000 610.000 269.000 93 99 110
289.000 611.000 269.000 99 106 117
288.000 611.000 270.000 118 125 137
289.000 611.000 270.000 105 111 123
290.000 608.000 268.000 90 93 101
290.000 608.000 269.000 88 92 100
290.000 609.000 269.000 89 93 102
291.000 608.000 268.000 90 93 101
291.000 608.000 269.000 89 93 100
291.000 609.000 269.000 89 93 100
290.000 610.000 269.000 89 95 103
291.000 610.000 269.000 90 94 102
291.000 611.000 269.000 91 95 103
290.000 611.000 270.000 89 95 104
291.000 611.000 270.000 90 95 103
288.000 612.000 270.000 125 132 144
288.000 613.000 270.000 126 132 144
289.000 612.000 270.000 117 123 134
289.000 613.000 270.000 113 118 128
288.000 614.000 270.000 122 128 139
288.000 614.000 271.000 108 114 125
288.000 615.000 271.000 94 99 109
289.000 614.000 271.000 102 107 117
289.000 615.000 271.000 94 99 107
290.000 612.000 270.000 93 98 108
290.000 613.000 270.000 94 99 108
291.000 612.000 270.000 90 94 103
291.000 613.000 270.000 90 94 102
290.000 614.000 271.000 91 96 105
290.000 615.000 271.000 91 95 104
291.000 614.000 270.000 89 94 102
291.000 614.000 271.000 89 94 102
291.000 615.000 271.000 91 95 104
294.000 608.000 267.000 96 100 108
294.000 609.000 267.000 95 99 107
295.000 608.000 266.000 95 99 106
295.000 608.000 267.000 97 101 108
295.000 609.000 267.000 95 100 108
295.000 610.000 267.000 96 101 108
295.000 611.000 267.000 92 96 104
292.000 608.000 268.000 88 91 99
292.000 608.000 269.000 87 91 99
292.000 609.000 269.000 87 92 99
293.000 608.000 268.000 86 91 99
293.000 609.000 268.000 90 95 103
293.000 609.000 269.000 89 93 102
292.000 610.000 269.000 90 94 102
292.000 611.000 269.000 91 95 103
293.000 610.000 268.000 95 100 108
293.000 610.000 269.000 92 96 105
293.000 611.000 269.000 96 100 108
292.000 611.000 270.000 91 95 103
294.000 609.000 268.000 95 100 108
294.000 610.000 268.000 96 101 109
294.000 611.000 268.000 98 103 111
295.000 610.000 268.000 95 99 107
295.000 611.000 268.000 93 98 105
293.000 612.000 269.000 95 99 107
293.000 613.000 269.000 92 96 104
292.000 612.000 270.000 90 94 102
292.000 613.000 270.000 91 95 102
293.000 612.000 270.000 90 94 102
293.000 613.000 270.000 91 95 103
293.000 614.000 269.000 89 93 101
292.000 614.000 270.000 91 95 103
292.000 615.000 270.000 91 95 104
292.000 615.000 271.000 91 95 104
293.000 614.000 270.000 90 95 103
293.000 615.000 270.000 90 95 103
294.000 612.000 268.000 93 98 106
294.000 612.000 269.000 97 101 110
294.000 613.000 268.000 86 90 98
294.000 613.000 269.000 90 95 103
295.000 612.000 268.000 87 92 100
295.000 613.000 268.000 85 89 97
294.000 614.000 269.000 87 92 100
294.000 615.000 269.000 88 92 100
295.000 614.000 268.000 85 89 97
295.000 615.000 268.000 84 88 95
288.000 616.000 271.000 94 98 107
288.000 617.000 271.000 98 102 110
289.000 616.000 271.000 94 98 106
289.000 617.000 271.000 96 101 109
289.000 618.000 271.000 96 101 109
290.000 616.000 271.000 92 96 104
290.000 617.000 271.000 95 99 107
291.000 616.000 271.000 93 97 106
291.000 617.000 271.000 98 103 112
290.000 618.000 271.000 95 100 109
290.000 619.000 271.000 97 103 113
291.000 618.000 271.000 103 109 118
291.000 619.000 271.000 99 106 116
291.000 620.000 271.000 91 99 110
293.000 616.000 269.000 89 94 101
292.000 616.000 270.000 95 100 110
292.000 616.000 271.000 94 99 108
292.000 617.000 270.000 105 110 120
292.000 617.000 271.000 103 108 117
293.000 616.000 270.000 93 98 107
293.000 617.000 270.000 99 104 112
292.000 618.000 271.000 108 113 123
292.000 619.000 271.000 102 109 119
293.000 618.000 270.000 101 106 115
293.000 619.000 270.000 96 102 112
294.000 616.000 269.000 88 92 100
294.000 617.000 269.000 89 93 101
295.000 616.000 268.000 86 90 98
295.000 617.000 268.000 88 92 100
294.000 617.000 270.000 92 96 104
294.000 618.000 269.000 89 93 102
294.000 619.000 269.000 90 95 104
295.000 618.000 268.000 89 93 101
295.000 619.000 268.000 91 95 103
292.000 620.000 271.000 93 101 112
292.000 621.000 271.000 98 104 115
293.000 620.000 270.000 89 94 104
293.000 620.000 271.000 91 98 109
293.000 621.000 270.000 89 94 103
293.000 621.000 271.000 91 97 108
293.000 622.000 270.000 89 95 103
294.000 620.000 269.000 92 96 104
294.000 621.000 269.000 92 96 104
295.000 620.000 268.000 92 95 102
295.000 621.000 268.000 91 95 102
299.000 609.000 261.000 78 81 87
298.000 608.000 262.000 76 80 86
298.000 608.000 263.000 78 82 88
298.000 609.000 263.000 83 86 92
299.000 609.000 263.000 83 86 92
299.000 610.000 261.000 78 81 87
298.000 610.000 263.000 86 89 95
299.000 610.000 262.000 82 85 91
299.000 610.000 263.000 87 90 96
299.000 611.000 262.000 79 82 88
299.000 611.000 263.000 86 89 95
298.000 613.000 263.000 81 84 90
299.000 612.000 262.000 77 80 86
299.000 612.000 263.000 81 84 90
299.000 613.000 262.000 77 80 85
299.000 613.000 263.000 79 82 88
298.000 614.000 263.000 80 83 89
298.000 615.000 263.000 80 83 90
299.000 614.000 263.000 79 82 88
299.000 615.000 263.000 80 83 89
296.000 608.000 265.000 85 89 96
296.000 609.000 265.000 89 93 100
297.000 608.000 264.000 81 85 92
297.000 608.000 265.000 83 87 93
297.000 609.000 265.000 89 93 100
296.000 608.000 266.000 91 95 103
296.000 609.000 266.000 94 98 105
297.000 610.000 265.000 92 95 102
297.000 611.000 265.000 92 96 103
296.000 610.000 266.000 96 100 107
296.000 610.000 267.000 97 101 109
296.000 611.000 266.000 92 96 103
296.000 611.000 267.000 92 96 103
297.000 610.000 266.000 92 96 103
297.000 611.000 266.000 90 94 101
298.000 608.000 264.000 82 85 92
298.000 609.000 264.000 87 91 97
298.000 610.000 264.000 90 93 100
298.000 610.000 265.000 92 95 102
298.000 611.000 264.000 91 94 100
298.000 611.000 265.000 93 97 104
299.000 611.000 264.000 89 92 98
297.000 612.000 265.000 93 97 104
297.000 613.000 265.000 94 97 104
296.000 612.000 266.000 87 91 98
296.000 612.000 267.000 85 89 97
296.000 613.000 266.000 89 93 100
296.000 613.000 267.000 84 89 96
297.000 612.000 266.000 91 95 102
297.000 613.000 266.000 93 96 103
297.000 614.000 265.000 89 92 98
297.000 615.000 265.000 85 88 95
296.000 614.000 266.000 88 91 98
296.000 614.000 267.000 85 89 96
296.000 615.000 266.000 85 88 94
296.000 615.000 267.000 84 88 94
297.000 614.000 266.000 91 94 100
297.000 615.000 266.000 87 90 96
298.000 612.000 264.000 87 91 97
298.000 612.000 265.000 91 95 101
298.000 613.000 264.000 84 88 94
298.000 613.000 265.000 90 93 99
299.000 612.000 264.000 87 90 96
298.000 614.000 264.000 82 85 91
298.000 614.000 265.000 86 89 95
298.000 615.000 264.000 81 85 92
298.000 615.000 265.000 84 87 93
298.000 616.000 263.000 82 86 93
298.000 617.000 263.000 82 87 94
299.000 616.000 263.000 80 83 90
299.000 617.000 263.000 80 84 92
298.000 618.000 263.000 82 87 94
298.000 619.000 263.000 83 86 94
299.000 618.000 263.000 80 85 93
298.000 620.000 262.000 85 88 96
298.000 620.000 263.000 84 87 94
298.000 621.000 262.000 85 89 96
298.000 621.000 263.000 84 88 96
297.000 616.000 265.000 89 93 100
297.000 617.000 265.000 95 99 106
296.000 616.000 266.000 88 92 99
296.000 616.000 267.000 86 90 97
296.000 617.000 266.000 93 96 104
296.000 617.000 267.000 89 93 101
297.000 616.000 266.000 88 92 99
297.000 617.000 266.000 96 99 106
297.000 618.000 265.000 94 98 106
297.000 619.000 265.000 87 91 99
296.000 618.000 266.000 93 97 104
296.000 618.000 267.000 90 94 102
296.000 619.000 266.000 89 93 100
296.000 619.000 267.000 90 94 101
297.000 618.000 266.000 95 98 106
297.000 619.000 266.000 89 93 100
298.000 616.000 264.000 85 89 96
298.000 616.000 265.000 88 91 98
298.000 617.000 264.000 87 91 99
298.000 617.000 265.000 92 95 103
298.000 618.000 264.000 87 91 99
298.000 618.000 265.000 92 96 104
298.000 619.000 264.000 85 88 96
298.000 619.000 265.000 86 91 98
297.000 620.000 265.000 86 90 97
296.000 620.000 266.000 89 92 99
296.000 620.000 267.000 90 93 100
296.000 621.000 266.000 86 90 97
297.000 620.000 266.000 87 90 97
298.000 620.000 264.000 85 88 96
288.000 618.000 272.000 96 100 109
288.000 619.000 272.000 92 97 106
289.000 618.000 272.000 97 101 110
289.000 619.000 272.000 95 100 109
290.000 618.000 272.000 96 101 110
290.000 619.000 272.000 94 100 110
291.000 619.000 272.000 93 100 111
288.000 620.000 272.000 91 96 105
288.000 621.000 273.000 91 96 105
289.000 620.000 272.000 94 99 109
289.000 621.000 272.000 92 98 108
289.000 621.000 273.000 92 98 108
288.000 622.000 273.000 91 96 106
289.000 622.000 273.000 90 96 106
289.000 623.000 273.000 89 95 105
288.000 623.000 274.000 94 98 108
289.000 623.000 274.000 90 95 105
290.000 620.000 272.000 92 98 108
290.000 621.000 272.000 101 107 118
290.000 621.000 273.000 95 102 112
291.000 620.000 272.000 90 98 109
291.000 621.000 272.000 101 108 118
290.000 622.000 272.000 122 126 137
290.000 622.000 273.000 104 109 119
291.000 622.000 272.000 120 125 135
288.000 624.000 274.000 94 100 109
288.000 625.000 274.000 96 101 111
288.000 626.000 274.000 96 101 111
288.000 626.000 275.000 97 104 115
